<svg xmlns="http://www.w3.org/2000/svg" xmlns:xlink="http://www.w3.org/1999/xlink" width="110" height="110" viewBox="0 0 110 110">
  <defs>
    <filter id="Trazado_982547" x="0" y="0" width="110" height="110" filterUnits="userSpaceOnUse">
      <feOffset dy="3" input="SourceAlpha"/>
      <feGaussianBlur stdDeviation="3" result="blur"/>
      <feFlood flood-opacity="0.161"/>
      <feComposite operator="in" in2="blur"/>
      <feComposite in="SourceGraphic"/>
    </filter>
  </defs>
  <g id="Grupo_1206303" data-name="Grupo 1206303" transform="translate(-1286 -3603)">
    <g id="Grupo_1185081" data-name="Grupo 1185081" transform="translate(1295 3609)">
      <g id="Grupo_1183626" data-name="Grupo 1183626" transform="translate(0 0)">
        <g id="Grupo_1179602" data-name="Grupo 1179602">
          <g id="Grupo_1171898" data-name="Grupo 1171898" transform="translate(0 0)">
            <g id="Grupo_1164700" data-name="Grupo 1164700">
              <g id="Grupo_1160931" data-name="Grupo 1160931">
                <g id="Grupo_1160749" data-name="Grupo 1160749">
                  <g id="Grupo_1158891" data-name="Grupo 1158891">
                    <g id="Grupo_1157406" data-name="Grupo 1157406">
                      <g id="Grupo_1155793" data-name="Grupo 1155793">
                        <g id="Grupo_1154704" data-name="Grupo 1154704">
                          <g id="Grupo_1150790" data-name="Grupo 1150790">
                            <g id="Grupo_1154214" data-name="Grupo 1154214">
                              <g id="Grupo_1152583" data-name="Grupo 1152583">
                                <g id="Grupo_1146973" data-name="Grupo 1146973">
                                  <g id="Grupo_1146954" data-name="Grupo 1146954">
                                    <g transform="matrix(1, 0, 0, 1, -9, -6)" filter="url(#Trazado_982547)">
                                      <g id="Trazado_982547-2" data-name="Trazado 982547" transform="translate(9 6)" fill="#f5fcec">
                                        <path d="M 46.00000381469727 90.49986267089844 C 39.99188232421875 90.49986267089844 34.16428375244141 89.32350158691406 28.67905807495117 87.00344848632812 C 23.38021659851074 84.76223754882812 18.62104415893555 81.55341339111328 14.53376388549805 77.46613311767578 C 10.44647026062012 73.37885284423828 7.237643718719482 68.61968994140625 4.996417045593262 63.32085037231445 C 2.676363706588745 57.83565139770508 1.500003814697266 52.00805282592773 1.500003814697266 45.99993133544922 C 1.500003814697266 39.99182510375977 2.676363706588745 34.16422653198242 4.996417045593262 28.67901039123535 C 7.237643718719482 23.38017082214355 10.44647026062012 18.62101173400879 14.53376388549805 14.53373146057129 C 18.62104415893555 10.44645118713379 23.38021659851074 7.237624645233154 28.67905807495117 4.996411323547363 C 34.16428375244141 2.676357984542847 39.99188232421875 1.499997973442078 46.00000381469727 1.499997973442078 C 52.00812530517578 1.499997973442078 57.83573532104492 2.676357984542847 63.32094955444336 4.996411323547363 C 68.61980438232422 7.237624645233154 73.37896728515625 10.44645118713379 77.46625518798828 14.53373146057129 C 81.55353546142578 18.62101173400879 84.76236724853516 23.38017082214355 87.00359344482422 28.67901039123535 C 89.32364654541016 34.16422653198242 90.5 39.99182510375977 90.5 45.99993133544922 C 90.5 52.00805282592773 89.32364654541016 57.83565139770508 87.00359344482422 63.32085037231445 C 84.76236724853516 68.61968994140625 81.55353546142578 73.37885284423828 77.46625518798828 77.46613311767578 C 73.37896728515625 81.55341339111328 68.61980438232422 84.76223754882812 63.32094955444336 87.00344848632812 C 57.83573532104492 89.32350158691406 52.00812530517578 90.49986267089844 46.00000381469727 90.49986267089844 Z" stroke="none"/>
                                        <path d="M 46.00000381469727 3 C 40.19371795654297 3 34.56270217895508 4.136505126953125 29.26338958740234 6.377914428710938 C 24.14333343505859 8.54351806640625 19.54443359375 11.64438629150391 15.59442138671875 15.59439086914062 C 11.64440155029297 19.54440307617188 8.543533325195312 24.14330291748047 6.3779296875 29.26334381103516 C 4.136505126953125 34.56266021728516 3.000007629394531 40.19366073608398 3.000007629394531 45.99993133544922 C 3.000007629394531 51.80620193481445 4.136505126953125 57.43720245361328 6.3779296875 62.73651885986328 C 8.543533325195312 67.85655975341797 11.64440155029297 72.45545959472656 15.59442138671875 76.40547180175781 C 19.54443359375 80.35547637939453 24.14333343505859 83.45634460449219 29.26338958740234 85.6219482421875 C 34.56270217895508 87.86335754394531 40.19371795654297 88.99986267089844 46.00000381469727 88.99986267089844 C 51.80628967285156 88.99986267089844 57.43730545043945 87.86335754394531 62.73663330078125 85.6219482421875 C 67.85667419433594 83.45634460449219 72.45558929443359 80.35547637939453 76.40560150146484 76.40547180175781 C 80.35560607910156 72.45545959472656 83.45648956298828 67.85655975341797 85.62208557128906 62.73651885986328 C 87.86350250244141 57.43720245361328 89 51.80620193481445 89 45.99993133544922 C 89 40.19366073608398 87.86350250244141 34.56266021728516 85.62208557128906 29.26334381103516 C 83.45648956298828 24.14330291748047 80.35560607910156 19.54440307617188 76.40560150146484 15.59439086914062 C 72.45558929443359 11.64438629150391 67.85667419433594 8.54351806640625 62.73663330078125 6.377914428710938 C 57.43730545043945 4.136505126953125 51.80628967285156 3 46.00000381469727 3 M 46.00000381469727 0 C 71.40510559082031 0 92 20.59487152099609 92 45.99993133544922 C 92 71.40499114990234 71.40510559082031 91.99986267089844 46.00000381469727 91.99986267089844 C 20.59491729736328 91.99986267089844 7.62939453125e-06 71.40499114990234 7.62939453125e-06 45.99993133544922 C 7.62939453125e-06 20.59487152099609 20.59491729736328 0 46.00000381469727 0 Z" stroke="none" fill="#5a812d"/>
                                      </g>
                                    </g>
                                  </g>
                                </g>
                              </g>
                            </g>
                          </g>
                        </g>
                      </g>
                    </g>
                  </g>
                </g>
              </g>
            </g>
          </g>
        </g>
      </g>
    </g>
    <g id="papeleria" transform="translate(1309.075 3587.82)">
      <path id="Trazado_1052967" data-name="Trazado 1052967" d="M57.445,220.547H19.534A12.034,12.034,0,0,1,7.5,208.513v-9.524a10.737,10.737,0,0,1,8.492-10.5,111.561,111.561,0,0,1,22.5-2.662,111.559,111.559,0,0,1,22.5,2.662,10.737,10.737,0,0,1,8.492,10.5v9.524A12.034,12.034,0,0,1,57.445,220.547Z" transform="translate(-6.565 -127.4)" fill="#ff6e80"/>
      <path id="Trazado_1052968" data-name="Trazado 1052968" d="M34.574,196.039v-9.41a119.019,119.019,0,0,0-18.582,2.562,10.737,10.737,0,0,0-8.492,10.5v9.524a12.034,12.034,0,0,0,12.034,12.034h16.36C30.821,215.3,30.926,206.152,34.574,196.039Z" transform="translate(-6.565 -128.1)" fill="#f8475e"/>
      <path id="Trazado_1052969" data-name="Trazado 1052969" d="M51.6,121.312c1.046-.142,2.114-.272,3.2-.387L47.75,101.55a3.165,3.165,0,0,0-4.057-1.892l-4.761,1.733a3.165,3.165,0,0,0-1.892,4.057l6.285,17.268C45.808,122.214,48.617,121.717,51.6,121.312Z" transform="translate(-32.253 -51.807)" fill="#59d5ff"/>
      <path id="Trazado_1052970" data-name="Trazado 1052970" d="M77.587,242.018c2.483-.5,5.292-1,8.28-1.4,1.046-.142,2.114-.272,3.2-.387l-1.624-4.461q-1.087.127-2.193.276c-3.027.41-6.127.945-9.255,1.593Z" transform="translate(-66.515 -171.11)" fill="#00c4fc"/>
      <path id="Trazado_1052971" data-name="Trazado 1052971" d="M221.012,75.152c1.662,0,3.331.058,4.985.159V57.293a15.05,15.05,0,0,0-2.165-7.949,3.322,3.322,0,0,0-5.639,0,15.05,15.05,0,0,0-2.165,7.949V75.312c1.654-.1,3.323-.159,4.985-.159Z" transform="translate(-189.087 -6.565)" fill="#f7e969"/>
      <path id="Trazado_1052972" data-name="Trazado 1052972" d="M221.012,230.287c-1.6,0-3.269.051-4.985.152v4.622c1.654-.1,3.323-.159,4.985-.159s3.331.058,4.985.159v-4.622C224.281,230.338,222.616,230.287,221.012,230.287Z" transform="translate(-189.087 -166.314)" fill="#f5c956"/>
      <path id="Trazado_1052973" data-name="Trazado 1052973" d="M221.012,70.235l-4.231,1.829a15.843,15.843,0,0,0-.754,4.885v.873a20.8,20.8,0,0,1,9.97,0v-.873a15.844,15.844,0,0,0-.754-4.885Z" transform="translate(-189.087 -26.221)" fill="#e9a982"/>
      <path id="Trazado_1052974" data-name="Trazado 1052974" d="M229.126,49.342a3.322,3.322,0,0,0-5.639,0,13.921,13.921,0,0,0-1.411,3.065,22.378,22.378,0,0,1,8.461,0A13.93,13.93,0,0,0,229.126,49.342Z" transform="translate(-194.382 -6.564)" fill="#5972a4"/>
      <path id="Trazado_1052975" data-name="Trazado 1052975" d="M398.887,75.949a13.417,13.417,0,0,0,.629-5.114,15.772,15.772,0,0,0-.881-4.4,2.166,2.166,0,0,0-3.718-.647,29.349,29.349,0,0,1-2.522,2.594,10.373,10.373,0,0,0-2.751,4.029,5.023,5.023,0,0,0,2.938,6.514A4.949,4.949,0,0,0,398.887,75.949Z" transform="translate(-340.764 -21.629)" fill="#f7e969"/>
      <path id="Trazado_1052976" data-name="Trazado 1052976" d="M340.968,172.761c2.736.371,5.324.819,7.648,1.277l4.119-9.967a3.026,3.026,0,0,0-1.762-4l-4.512-1.642a3.026,3.026,0,0,0-3.92,1.931l-3.831,12.117Q339.853,172.609,340.968,172.761Z" transform="translate(-296.47 -103.256)" fill="#72d98b"/>
      <path id="Trazado_1052977" data-name="Trazado 1052977" d="M350.411,238.16c-2.981-.608-5.936-1.113-8.824-1.5q-.736-.1-1.463-.188l-1.416,4.477q1.144.132,2.259.283c2.736.371,5.324.819,7.648,1.277Z" transform="translate(-296.47 -171.723)" fill="#00c67f"/>
      <path id="Trazado_1052978" data-name="Trazado 1052978" d="M381.715,276.067a3.475,3.475,0,0,1-3.455-3.851l.26-2.389a3.214,3.214,0,0,1,6.39,0l.26,2.389A3.475,3.475,0,0,1,381.715,276.067Z" transform="translate(-331.07 -198.414)" fill="#5972a4"/>
      <g id="Grupo_1206302" data-name="Grupo 1206302" transform="translate(18.544 80.323)">
        <g id="Grupo_1206301" data-name="Grupo 1206301" transform="translate(0 0)">
          <ellipse id="Elipse_14273" data-name="Elipse 14273" cx="3.606" cy="2.872" rx="3.606" ry="2.872" fill="#fff"/>
          <ellipse id="Elipse_14274" data-name="Elipse 14274" cx="3.607" cy="2.872" rx="3.607" ry="2.872" transform="translate(19.548)" fill="#fff"/>
        </g>
      </g>
      <path id="Trazado_1052979" data-name="Trazado 1052979" d="M13.183,59.228a.935.935,0,0,0-1.2-.559l-.7.256a.935.935,0,0,0,.64,1.758l.7-.256A.935.935,0,0,0,13.183,59.228Zm-1.877-5.157a.935.935,0,0,0-1.2-.559l-.7.256a.935.935,0,0,0,.64,1.758l.7-.256A.935.935,0,0,0,11.306,54.071Zm12.165,26a.781.781,0,0,1,1.563,0,.935.935,0,1,0,1.871,0,2.652,2.652,0,0,0-5.3,0,.935.935,0,1,0,1.871,0Zm8.454,3.771a3.35,3.35,0,0,0,2.526-1.15.935.935,0,0,0-1.41-1.229,1.478,1.478,0,0,1-2.232,0A.935.935,0,0,0,29.4,82.69a3.35,3.35,0,0,0,2.526,1.15ZM57.177,61.048a3.94,3.94,0,0,0-.395-3.56A5.875,5.875,0,0,0,59,54.64a13.02,13.02,0,0,0,.676-3.5.935.935,0,0,0-1.867-.12A11.125,11.125,0,0,1,57.244,54a4.014,4.014,0,0,1-1.894,2.172,4.048,4.048,0,0,0-.527-.236c-4.951-1.8-4.659-1.71-5.031-1.792a4.149,4.149,0,0,1-.038-3.035,9.441,9.441,0,0,1,2.53-3.692,29.831,29.831,0,0,0,2.594-2.672,1.231,1.231,0,0,1,2.112.369A14.623,14.623,0,0,1,57.5,46.9a.935.935,0,1,0,1.828-.4,16.457,16.457,0,0,0-.574-2.014,3.1,3.1,0,0,0-5.324-.924,28.851,28.851,0,0,1-2.45,2.515,11.242,11.242,0,0,0-2.972,4.367,6.012,6.012,0,0,0-.163,3.769,3.942,3.942,0,0,0-2.663,2.608l-.508,1.605c-2.345-.318-4.634-.558-6.826-.714V50.728a15.86,15.86,0,0,0-2.306-8.444,4.257,4.257,0,0,0-7.227,0,15.858,15.858,0,0,0-2.306,8.444v6.986c-2.052.146-4.189.365-6.374.653l-3.255-8.944a4.1,4.1,0,0,0-5.256-2.451L6.359,48.705a4.1,4.1,0,0,0-2.451,5.256l2.606,7.161A11.671,11.671,0,0,0,0,71.589v9.524A12.984,12.984,0,0,0,12.969,94.082h6.593a.935.935,0,1,0,0-1.871H12.969a11.111,11.111,0,0,1-11.1-11.1V71.589a9.741,9.741,0,0,1,5.288-8.7L9.822,70.21q-1.649.346-3.307.736a.935.935,0,0,0,.428,1.821c4.242-1,8.459-1.782,12.534-2.335a93.578,93.578,0,0,1,12.448-.909,93.575,93.575,0,0,1,12.448.909c.734.1,1.486.21,2.245.327a4.188,4.188,0,0,0-.1.553L46.26,73.7a4.41,4.41,0,1,0,8.769,0l-.152-1.394c.682.149,1.361.3,2.029.46a.935.935,0,0,0,.428-1.821c-.92-.216-1.86-.426-2.8-.627a4.134,4.134,0,0,0-.69-1.2l2.619-6.337a9.849,9.849,0,0,1,5.515,8.807v9.524a11.111,11.111,0,0,1-11.1,11.1H24.037a.935.935,0,1,0,0,1.871H50.881A12.984,12.984,0,0,0,63.85,81.113V71.589A11.73,11.73,0,0,0,57.177,61.048Zm-37.952,7.53c-2.474.335-5,.757-7.549,1.256L5.666,53.321A2.23,2.23,0,0,1,7,50.463L11.76,48.73a2.232,2.232,0,0,1,2.858,1.333l6.646,18.259Q20.254,68.44,19.226,68.578ZM26,67.872q-1.391.1-2.827.241l-2.892-7.946c1.958-.251,3.874-.445,5.719-.579Zm3.895-24.6a2.387,2.387,0,0,1,4.051,0,12.621,12.621,0,0,1,.737,1.371,24.288,24.288,0,0,0-2.762-.139,24.355,24.355,0,0,0-2.762.138,12.591,12.591,0,0,1,.736-1.37Zm-1.473,3.37a18.624,18.624,0,0,1,3.5-.267,18.627,18.627,0,0,1,3.5.267,14.918,14.918,0,0,1,.546,3.787,22.2,22.2,0,0,0-8.088,0,14.919,14.919,0,0,1,.546-3.789Zm7.548,21.116q-2.084-.105-4.05-.106t-4.05.106V52.34a20.185,20.185,0,0,1,8.1,0Zm1.871.113V59.589c2.012.146,4.107.362,6.254.648l-2.52,7.97q-1.9-.206-3.734-.336Zm12.8,8.845A2.538,2.538,0,0,1,48.12,73.9l.26-2.389a2.278,2.278,0,0,1,4.53,0l.26,2.389A2.538,2.538,0,0,1,50.644,76.717ZM55.4,60.457l-3.1,7.5a4.157,4.157,0,0,0-4.765,1.054c-.986-.158-1.964-.3-2.913-.432q-.58-.079-1.153-.15l3.491-11.042a2.089,2.089,0,0,1,2.709-1.334l4.512,1.642A2.089,2.089,0,0,1,55.4,60.457ZM38.816,80.07a.781.781,0,1,1,1.563,0,.935.935,0,0,0,1.871,0,2.652,2.652,0,1,0-5.3,0,.935.935,0,0,0,1.871,0ZM13.861,63.826l-.7.256a.935.935,0,0,0,.64,1.758l.7-.256a.935.935,0,0,0-.64-1.758Z" transform="translate(0 0)"/>
    </g>
  </g>
</svg>
