<svg xmlns="http://www.w3.org/2000/svg" xmlns:xlink="http://www.w3.org/1999/xlink" width="93.934" height="93.934" viewBox="0 0 93.934 93.934">
  <defs>
    <filter id="Trazado_982547" x="0" y="0" width="93.934" height="93.934" filterUnits="userSpaceOnUse">
      <feOffset dy="3" input="SourceAlpha"/>
      <feGaussianBlur stdDeviation="3" result="blur"/>
      <feFlood flood-opacity="0.161"/>
      <feComposite operator="in" in2="blur"/>
      <feComposite in="SourceGraphic"/>
    </filter>
  </defs>
  <g id="Grupo_1206326" data-name="Grupo 1206326" transform="translate(-189 -4614.033)">
    <g id="Grupo_1183815" data-name="Grupo 1183815" transform="translate(0 4267.973)">
      <g id="Grupo_1181939" data-name="Grupo 1181939" transform="translate(0 -388.939)">
        <g id="Grupo_1175133" data-name="Grupo 1175133" transform="translate(-0.033 -1251)">
          <g id="Grupo_1167337" data-name="Grupo 1167337" transform="translate(198.033 1992)">
            <g id="Grupo_1166720" data-name="Grupo 1166720">
              <g id="Grupo_1164305" data-name="Grupo 1164305">
                <g id="Grupo_1163948" data-name="Grupo 1163948">
                  <g id="Grupo_1158168" data-name="Grupo 1158168">
                    <g id="Grupo_1152576" data-name="Grupo 1152576">
                      <g id="Grupo_1148633" data-name="Grupo 1148633">
                        <g id="Grupo_1148525" data-name="Grupo 1148525">
                          <g transform="matrix(1, 0, 0, 1, -9, -6)" filter="url(#Trazado_982547)">
                            <g id="Trazado_982547-2" data-name="Trazado 982547" transform="translate(9 6)" fill="#eaf9f8">
                              <path d="M 37.966796875 74.43359375 C 33.04315185546875 74.43359375 28.26757431030273 73.46962738037109 23.77274131774902 71.56847381591797 C 19.43047523498535 69.73184967041016 15.53040790557861 67.10224914550781 12.18087482452393 63.75271987915039 C 8.831341743469238 60.4031867980957 6.201741218566895 56.50312042236328 4.365118980407715 52.16086196899414 C 2.463963508605957 47.66601943969727 1.499996900558472 42.89044189453125 1.499996900558472 37.966796875 C 1.499996900558472 33.04315185546875 2.463963508605957 28.26757431030273 4.365118980407715 23.77274131774902 C 6.201741218566895 19.43047523498535 8.831341743469238 15.53040790557861 12.18087482452393 12.18087482452393 C 15.53040790557861 8.831341743469238 19.43047523498535 6.201741218566895 23.77274131774902 4.365118980407715 C 28.26757431030273 2.463963508605957 33.04315185546875 1.499996900558472 37.966796875 1.499996900558472 C 42.89044189453125 1.499996900558472 47.66601943969727 2.463963508605957 52.16086196899414 4.365118980407715 C 56.50312042236328 6.201741218566895 60.4031867980957 8.831341743469238 63.75271987915039 12.18087482452393 C 67.10224914550781 15.53040790557861 69.73184967041016 19.43047523498535 71.56847381591797 23.77274131774902 C 73.46962738037109 28.26757431030273 74.43359375 33.04315185546875 74.43359375 37.966796875 C 74.43359375 42.89044189453125 73.46962738037109 47.66601943969727 71.56847381591797 52.16086196899414 C 69.73184967041016 56.50313186645508 67.10224914550781 60.4031867980957 63.75271987915039 63.75271987915039 C 60.4031867980957 67.10224914550781 56.50313186645508 69.73184967041016 52.16086196899414 71.56847381591797 C 47.66601943969727 73.46962738037109 42.89044189453125 74.43359375 37.966796875 74.43359375 Z" stroke="none"/>
                              <path d="M 37.966796875 3 C 33.2449836730957 3 28.66600799560547 3.924095153808594 24.35705947875977 5.746635437011719 C 20.19359588623047 7.507637023925781 16.45379638671875 10.02928161621094 13.24153518676758 13.24153518676758 C 10.02927398681641 16.45379638671875 7.507621765136719 20.19359588623047 5.746635437011719 24.35705947875977 C 3.924095153808594 28.66600799560547 3 33.2449836730957 3 37.966796875 C 3 42.6886100769043 3.924095153808594 47.26758575439453 5.746635437011719 51.57653427124023 C 7.507621765136719 55.73999786376953 10.02927398681641 59.47979736328125 13.24153518676758 62.69205856323242 C 16.45379638671875 65.90431976318359 20.19359588623047 68.42597198486328 24.35705947875977 70.18695831298828 C 28.66600799560547 72.00949859619141 33.2449836730957 72.93359375 37.966796875 72.93359375 C 42.6886100769043 72.93359375 47.26758575439453 72.00949859619141 51.57653427124023 70.18695831298828 C 55.73999786376953 68.42597198486328 59.47979736328125 65.90431976318359 62.69205856323242 62.69205856323242 C 65.90431976318359 59.47979736328125 68.42597198486328 55.73999786376953 70.18695831298828 51.57653427124023 C 72.00949859619141 47.26758575439453 72.93359375 42.6886100769043 72.93359375 37.966796875 C 72.93359375 33.2449836730957 72.00949859619141 28.66600799560547 70.18695831298828 24.35705947875977 C 68.42597198486328 20.19359588623047 65.90431976318359 16.45379638671875 62.69205856323242 13.24153518676758 C 59.47979736328125 10.02928161621094 55.73999786376953 7.507637023925781 51.57653427124023 5.746635437011719 C 47.26758575439453 3.924095153808594 42.6886100769043 3 37.966796875 3 M 37.966796875 0 C 58.93528366088867 0 75.93359375 16.99832153320312 75.93359375 37.966796875 C 75.93359375 58.93528366088867 58.93528366088867 75.93359375 37.966796875 75.93359375 C 16.99831008911133 75.93359375 0 58.93528366088867 0 37.966796875 C 0 16.99832153320312 16.99831008911133 0 37.966796875 0 Z" stroke="none" fill="#1f7069"/>
                            </g>
                          </g>
                        </g>
                      </g>
                    </g>
                  </g>
                </g>
              </g>
            </g>
          </g>
        </g>
      </g>
    </g>
    <g id="comunicacion_1_" data-name="comunicacion (1)" transform="translate(212.91 4634.943)">
      <g id="Grupo_1206317" data-name="Grupo 1206317" transform="translate(0.675 0.676)">
        <g id="Grupo_1206309" data-name="Grupo 1206309">
          <g id="Grupo_1206307" data-name="Grupo 1206307">
            <g id="Grupo_1206304" data-name="Grupo 1206304">
              <path id="Trazado_1052980" data-name="Trazado 1052980" d="M91.5,20.109v3.718H76.978c-4.695-3.071-6.241-7.933-3.593-15.067A12.612,12.612,0,0,1,91.5,20.109Z" transform="translate(-66.278 -7.5)" fill="#ffaa75"/>
              <path id="Trazado_1052981" data-name="Trazado 1052981" d="M18.2,36.557H7.5V32.839A12.611,12.611,0,0,1,14.607,21.49C13.951,27.547,15.165,32.589,18.2,36.557Z" transform="translate(-7.5 -20.23)" fill="#ff9a5c"/>
            </g>
            <ellipse id="Elipse_14275" data-name="Elipse 14275" cx="2.742" cy="3.478" rx="2.742" ry="3.478" transform="translate(19.735 12.849)" fill="#ffddcf"/>
            <ellipse id="Elipse_14276" data-name="Elipse 14276" cx="2.742" cy="3.478" rx="2.742" ry="3.478" transform="translate(0 12.849)" fill="#ffcbbe"/>
            <g id="Grupo_1206305" data-name="Grupo 1206305" transform="translate(2.252 5.437)">
              <path id="Trazado_1052982" data-name="Trazado 1052982" d="M101.327,78.228a10.328,10.328,0,0,1-3.055,7.346c-9.05-1.387-13.5-6.615-12.832-16.1a10.358,10.358,0,0,1,15.887,8.759Z" transform="translate(-80.611 -67.87)" fill="#ffddcf"/>
              <path id="Trazado_1052983" data-name="Trazado 1052983" d="M50.16,101.725a10.358,10.358,0,1,1-12.832-16.1C38.15,92.992,42.469,98.41,50.16,101.725Z" transform="translate(-32.5 -84.021)" fill="#ffcbbe"/>
            </g>
            <g id="Grupo_1206306" data-name="Grupo 1206306" transform="translate(2.253 1.973)">
              <path id="Trazado_1052984" data-name="Trazado 1052984" d="M94.528,39.7a11.38,11.38,0,0,1-8.3-4.735.9.9,0,0,0-1.438-.025,13.237,13.237,0,0,1-5.658,4.012,5.382,5.382,0,0,1-1.156-6.61c3.8-1.306,6.356-3.285,10.477-2.894,3.516.332,4.3,3.365,5.191,6.781l.759.49C94.689,37.8,95.061,38.73,94.528,39.7Z" transform="translate(-73.292 -29.402)" fill="#ffaa75"/>
              <path id="Trazado_1052985" data-name="Trazado 1052985" d="M38.362,68.7a20.4,20.4,0,0,1-5.421,1.323,5.73,5.73,0,0,1-.108-4.046l1.9-3.2a19.885,19.885,0,0,0,2.471-.684A20.879,20.879,0,0,0,38.362,68.7Z" transform="translate(-32.518 -59.146)" fill="#ff9a5c"/>
            </g>
          </g>
          <g id="Grupo_1206308" data-name="Grupo 1206308" transform="translate(18.937 2.972)">
            <path id="Trazado_1052986" data-name="Trazado 1052986" d="M305.422,43.017v5.369A2.517,2.517,0,0,1,302.9,50.9h-1.158c-6.345-1.575-8.674-5.019-6.264-10.4H302.9A2.517,2.517,0,0,1,305.422,43.017Z" transform="translate(-287.634 -40.5)" fill="#8ce09f"/>
            <path id="Trazado_1052987" data-name="Trazado 1052987" d="M231.863,50.9h-4.682a.9.9,0,0,0-.641.268l-2.33,2.363a.9.9,0,0,1-1.543-.632V51.353a.45.45,0,0,0-.45-.45h-1.949a2.517,2.517,0,0,1-2.517-2.516V43.017a2.517,2.517,0,0,1,2.517-2.517H225.6C225.189,45.23,227.311,48.742,231.863,50.9Z" transform="translate(-217.75 -40.5)" fill="#73da8c"/>
          </g>
        </g>
        <g id="Grupo_1206316" data-name="Grupo 1206316" transform="translate(4.689 17.743)">
          <g id="Grupo_1206314" data-name="Grupo 1206314" transform="translate(15.081)">
            <g id="Grupo_1206310" data-name="Grupo 1206310" transform="translate(9.795)">
              <circle id="Elipse_14277" data-name="Elipse 14277" cx="1.351" cy="1.351" r="1.351" fill="#ff97c1"/>
            </g>
            <path id="Trazado_1052988" data-name="Trazado 1052988" d="M313.25,271.628v1.351H320v-1.351a3.378,3.378,0,0,0-6.755,0Z" transform="translate(-305.482 -262.508)" fill="#a29cde"/>
            <path id="Trazado_1052989" data-name="Trazado 1052989" d="M460.176,370.63H459.5v-6.755h.676a3.378,3.378,0,0,1,0,6.755Z" transform="translate(-438.559 -349.521)" fill="#a29cde"/>
            <g id="Grupo_1206312" data-name="Grupo 1206312" transform="translate(0 8.444)">
              <g id="Grupo_1206311" data-name="Grupo 1206311">
                <path id="Trazado_1052990" data-name="Trazado 1052990" d="M344.853,302.1v10.884a3.841,3.841,0,0,1-1.886,3.309c-9.228-2.531-13.034-8.277-9.827-18.039h7.867A3.846,3.846,0,0,1,344.853,302.1Z" transform="translate(-322.562 -298.249)" fill="#ff97c1"/>
                <path id="Trazado_1052991" data-name="Trazado 1052991" d="M247.405,316.289a3.819,3.819,0,0,1-1.96.537h-14.6A3.846,3.846,0,0,1,227,312.98V302.1a3.846,3.846,0,0,1,3.846-3.846h6.732C236.257,306.573,239.6,312.675,247.405,316.289Z" transform="translate(-227 -298.25)" fill="#ff83b4"/>
              </g>
            </g>
            <g id="Grupo_1206313" data-name="Grupo 1206313" transform="translate(1.922 11.146)">
              <path id="Trazado_1052992" data-name="Trazado 1052992" d="M341.044,329.6v10.47a1.352,1.352,0,0,1-1.351,1.351h-1.528c-6.28-2.2-8.955-6.342-6.4-13.172h7.927A1.352,1.352,0,0,1,341.044,329.6Z" transform="translate(-323.377 -328.25)" fill="#f9ee80"/>
              <path id="Trazado_1052993" data-name="Trazado 1052993" d="M263.125,341.422H250.468a1.351,1.351,0,0,1-1.351-1.351v-3.935c-.954-1.922-1.123-3.735,0-5.369V329.6a1.351,1.351,0,0,1,1.351-1.351h6.259A14.493,14.493,0,0,0,263.125,341.422Z" transform="translate(-248.337 -328.25)" fill="#f4e74d"/>
            </g>
          </g>
          <g id="Grupo_1206315" data-name="Grupo 1206315" transform="translate(0 11.146)">
            <path id="Trazado_1052994" data-name="Trazado 1052994" d="M152.521,330.767v5.369A2.517,2.517,0,0,1,150,338.653h-1.471c-5.311-1.458-7.556-4.744-5.737-10.4H150A2.518,2.518,0,0,1,152.521,330.767Z" transform="translate(-134.732 -328.25)" fill="#a4e7ff"/>
            <path id="Trazado_1052995" data-name="Trazado 1052995" d="M73.36,338.653h-.785a.45.45,0,0,0-.45.45v1.549a.9.9,0,0,1-1.542.632l-2.331-2.363a.9.9,0,0,0-.641-.268H62.077a2.517,2.517,0,0,1-2.517-2.516v-5.369a2.517,2.517,0,0,1,2.517-2.517h5.545C67.135,332.928,69.078,336.436,73.36,338.653Z" transform="translate(-59.56 -328.25)" fill="#83deff"/>
          </g>
        </g>
      </g>
      <g id="Grupo_1206325" data-name="Grupo 1206325" transform="translate(0)">
        <g id="Grupo_1206320" data-name="Grupo 1206320">
          <g id="Grupo_1206318" data-name="Grupo 1206318" transform="translate(6.985 16.263)">
            <path id="Trazado_1052996" data-name="Trazado 1052996" d="M78.227,183a.675.675,0,0,1-.676-.675v-1.081a.676.676,0,0,1,1.351,0v1.081A.675.675,0,0,1,78.227,183Z" transform="translate(-77.551 -180.571)"/>
            <path id="Trazado_1052997" data-name="Trazado 1052997" d="M203.124,183a.675.675,0,0,1-.675-.675v-1.081a.675.675,0,1,1,1.351,0v1.081A.675.675,0,0,1,203.124,183Z" transform="translate(-191.2 -180.571)"/>
            <path id="Trazado_1052998" data-name="Trazado 1052998" d="M125.694,194.241a2.642,2.642,0,0,1-1.992-.907.676.676,0,1,1,1.019-.888,1.29,1.29,0,0,0,1.947,0,.676.676,0,1,1,1.019.888A2.642,2.642,0,0,1,125.694,194.241Z" transform="translate(-119.394 -191.166)"/>
          </g>
          <path id="Trazado_1052999" data-name="Trazado 1052999" d="M34.883,2.972H22.129A3.209,3.209,0,0,0,21.7,3,13.3,13.3,0,0,0,8.062,1.066a.676.676,0,0,0,.531,1.242A11.953,11.953,0,0,1,20.244,3.59a3.19,3.19,0,0,0-1.308,2.575v4.178A10.555,10.555,0,0,1,16.42,7.824,1.573,1.573,0,0,0,13.9,7.776c-3.42,4.418-10.278,5.049-10.584,5.075a3.053,3.053,0,0,0-1.961.831v-.4A11.855,11.855,0,0,1,6.02,3.817.675.675,0,1,0,5.2,2.745,13.2,13.2,0,0,0,0,13.285V17c0,2.24,1.466,4.071,3.293,4.151a11.036,11.036,0,0,0,19.984,0c1.789-.078,3.232-1.836,3.291-4.013l2.315-2.347a.226.226,0,0,1,.16-.067h5.84a3.2,3.2,0,0,0,3.193-3.193V6.165a3.2,3.2,0,0,0-3.193-3.193ZM23.153,19.806a1.492,1.492,0,0,1-.207-.014.676.676,0,0,0-.724.408,9.685,9.685,0,0,1-17.874,0,.676.676,0,0,0-.723-.408,1.5,1.5,0,0,1-.207.014c-1.139,0-2.066-1.257-2.066-2.8,0-1.513.907-2.77,2.021-2.8l.038,0c.429-.033,7.733-.659,11.555-5.6a.215.215,0,0,1,.182-.086.211.211,0,0,1,.172.089,11.855,11.855,0,0,0,3.648,3.364,3.2,3.2,0,0,0,3.163,2.756h1.724V16.05a1.571,1.571,0,0,0,.978,1.458,1.587,1.587,0,0,0,.339.1,2.334,2.334,0,0,1-2.018,2.2Zm13.572-8.272a1.844,1.844,0,0,1-1.842,1.842h-5.84a1.585,1.585,0,0,0-1.122.47l-2.33,2.363a.225.225,0,0,1-.385-.158V14.5a1.127,1.127,0,0,0-1.126-1.126h-1.95a1.844,1.844,0,0,1-1.842-1.842V6.165a1.844,1.844,0,0,1,1.842-1.842H34.883a1.844,1.844,0,0,1,1.842,1.842Z" transform="translate(0 0)"/>
          <g id="Grupo_1206319" data-name="Grupo 1206319" transform="translate(21.639 6.372)">
            <path id="Trazado_1053000" data-name="Trazado 1053000" d="M243.7,70.865a.675.675,0,0,0-.937.187l-.639.958-.639-.958a.675.675,0,0,0-1.124.749l.951,1.427-.951,1.427a.675.675,0,1,0,1.124.749l.639-.958.639.958a.675.675,0,0,0,1.124-.749l-.951-1.427.951-1.427A.675.675,0,0,0,243.7,70.865Z" transform="translate(-240.25 -70.751)"/>
            <path id="Trazado_1053001" data-name="Trazado 1053001" d="M354.16,74.355h-1.14l1.7-2.552a.675.675,0,0,0-.562-1.05h-2.4a.675.675,0,1,0,0,1.351h1.14l-1.7,2.552a.675.675,0,0,0,.562,1.05h2.4a.675.675,0,1,0,0-1.351Z" transform="translate(-341.101 -70.752)"/>
            <path id="Trazado_1053002" data-name="Trazado 1053002" d="M299.118,70.864a.675.675,0,0,0-.937.187l-.639.958-.639-.958a.675.675,0,0,0-1.124.749l1.087,1.631v1.6a.676.676,0,0,0,1.351,0v-1.6l1.087-1.631A.675.675,0,0,0,299.118,70.864Z" transform="translate(-290.675 -70.751)"/>
          </g>
        </g>
        <g id="Grupo_1206324" data-name="Grupo 1206324" transform="translate(4.689 17.743)">
          <g id="Grupo_1206321" data-name="Grupo 1206321" transform="translate(20.602 16.87)">
            <path id="Trazado_1053003" data-name="Trazado 1053003" d="M281.477,386.736a.675.675,0,0,1-.675-.676v-1.081a.675.675,0,1,1,1.351,0v1.081A.675.675,0,0,1,281.477,386.736Z" transform="translate(-280.802 -384.304)"/>
            <path id="Trazado_1053004" data-name="Trazado 1053004" d="M406.373,386.736a.675.675,0,0,1-.675-.676v-1.081a.676.676,0,1,1,1.351,0v1.081A.675.675,0,0,1,406.373,386.736Z" transform="translate(-394.449 -384.304)"/>
            <path id="Trazado_1053005" data-name="Trazado 1053005" d="M328.944,397.973a2.642,2.642,0,0,1-1.992-.907.675.675,0,0,1,1.019-.887,1.29,1.29,0,0,0,1.947,0,.675.675,0,0,1,1.019.887,2.642,2.642,0,0,1-1.992.907Z" transform="translate(-322.644 -394.898)"/>
          </g>
          <g id="Grupo_1206323" data-name="Grupo 1206323" transform="translate(4.503 14.546)">
            <g id="Grupo_1206322" data-name="Grupo 1206322" transform="translate(3.04)">
              <path id="Trazado_1053006" data-name="Trazado 1053006" d="M137.834,363.456a2.029,2.029,0,0,1-2.026-2.027v-.9a2.026,2.026,0,0,1,4.053,0v.9A2.029,2.029,0,0,1,137.834,363.456Zm0-3.6a.676.676,0,0,0-.675.675v.9a.675.675,0,1,0,1.351,0v-.9A.676.676,0,0,0,137.834,359.853Z" transform="translate(-135.808 -358.502)"/>
            </g>
            <path id="Trazado_1053007" data-name="Trazado 1053007" d="M103.454,363.456a.676.676,0,0,1-.676-.676v-2.927h-.045a.676.676,0,0,1,0-1.351h.721a.675.675,0,0,1,.675.676v3.6A.676.676,0,0,1,103.454,363.456Z" transform="translate(-102.058 -358.502)"/>
            <path id="Trazado_1053008" data-name="Trazado 1053008" d="M192.954,363.456a.676.676,0,0,1-.676-.676v-2.927h-.045a.676.676,0,0,1,0-1.351h.721a.675.675,0,0,1,.676.676v3.6A.676.676,0,0,1,192.954,363.456Z" transform="translate(-183.497 -358.502)"/>
          </g>
          <path id="Trazado_1053009" data-name="Trazado 1053009" d="M93.485,215.406a4.067,4.067,0,0,0-2.7-3.821v-1.413a4.734,4.734,0,0,0-4.729-4.729H82.784a4.072,4.072,0,0,0-3.147-2.645v-1.861a2.026,2.026,0,1,0-1.351,0v1.86a4.058,4.058,0,0,0-3.147,2.646h-3.27a4.739,4.739,0,0,0-4.273,2.7H55.253a3.2,3.2,0,0,0-3.193,3.193v1.27a.675.675,0,1,0,1.351,0v-1.27a1.844,1.844,0,0,1,1.842-1.842H68.006a1.844,1.844,0,0,1,1.836,1.7v5.651a1.844,1.844,0,0,1-1.836,1.7H65.75a1.127,1.127,0,0,0-1.126,1.126v1.549a.214.214,0,0,1-.14.208.212.212,0,0,1-.246-.05l-2.332-2.364a1.588,1.588,0,0,0-1.122-.469H55.253a1.844,1.844,0,0,1-1.842-1.841v-.947a.675.675,0,1,0-1.351,0v.947a3.2,3.2,0,0,0,3.193,3.192h5.533a.225.225,0,0,1,.16.067l2.331,2.363a1.576,1.576,0,0,0,2.7-1.106V219.9h1.165v.743a4.734,4.734,0,0,0,4.728,4.729H86.055a4.734,4.734,0,0,0,4.729-4.729v-1.412A4.068,4.068,0,0,0,93.485,215.406ZM78.962,198.35a.676.676,0,1,1-.676.675A.676.676,0,0,1,78.962,198.35Zm-1.911,6.533a2.7,2.7,0,0,1,4.252.56H76.621A2.718,2.718,0,0,1,77.051,204.883Zm12.381,15.758a3.381,3.381,0,0,1-3.377,3.378H71.869a3.381,3.381,0,0,1-3.378-3.378v-.78a3.175,3.175,0,0,0,1.351-.545v1.325a2.029,2.029,0,0,0,2.026,2.027H86.055a2.029,2.029,0,0,0,2.027-2.027v-10.47a2.029,2.029,0,0,0-2.027-2.026h-6.5a.675.675,0,1,0,0,1.351h6.5a.676.676,0,0,1,.675.675v10.47a.676.676,0,0,1-.675.676H71.869a.676.676,0,0,1-.675-.676v-10.47a.676.676,0,0,1,.675-.675H76.4a.675.675,0,1,0,0-1.351H71.869a2.026,2.026,0,0,0-1.668.877,3.2,3.2,0,0,0-1.156-.7,3.386,3.386,0,0,1,2.824-1.525H86.055a3.381,3.381,0,0,1,3.378,3.378v10.47Zm1.351-2.894v-4.681a2.7,2.7,0,0,1,0,4.681Z" transform="translate(-52.06 -196.999)"/>
        </g>
      </g>
    </g>
  </g>
</svg>
