<svg xmlns="http://www.w3.org/2000/svg" xmlns:xlink="http://www.w3.org/1999/xlink" width="400" height="282" viewBox="0 0 400 282">
  <defs>
    <clipPath id="clip-path">
      <rect id="Rectángulo_417634" data-name="Rectángulo 417634" width="400" height="282" transform="translate(180 5038)" fill="#fff" stroke="#707070" stroke-width="1"/>
    </clipPath>
    <clipPath id="clip-path-2">
      <rect id="Rectángulo_417633" data-name="Rectángulo 417633" width="303.853" height="155.596"/>
    </clipPath>
    <clipPath id="clip-path-3">
      <path id="Trazado_1053156" data-name="Trazado 1053156" d="M221.5,185.471c-5.1-5.894-5.806-11.56-5.292-19.339,1.908-28.976,39.618-26.833,39.728-26.826,34.253,2.283,34.657,44.558,15.67,55.985-4.719,2.84-6.877.719-12.382.646a77.794,77.794,0,0,1-16.873-1.615C236.847,193,227.372,192.246,221.5,185.471Z" transform="translate(-216.068 -139.268)"/>
    </clipPath>
    <clipPath id="clip-path-4">
      <path id="Trazado_1053158" data-name="Trazado 1053158" d="M248.527,137.159a21.67,21.67,0,0,1-1.483-10.525,13.365,13.365,0,0,1,5.152-9.086c2.716-1.945,6.143-2.554,9.468-2.84a20.112,20.112,0,0,1,8.426.675,13.52,13.52,0,0,1,7.721,7.45,17.042,17.042,0,0,1,.683,10.826,9.174,9.174,0,0,1-2.1,4.2c-1.468,1.512-3.618,2.121-5.681,2.547a55.7,55.7,0,0,1-15.6,1.006,11.861,11.861,0,0,1-4.051-.851C249.8,139.978,249.15,138.811,248.527,137.159Z" transform="translate(-246.889 -114.565)"/>
    </clipPath>
    <clipPath id="clip-path-5">
      <path id="Trazado_1053164" data-name="Trazado 1053164" d="M226.8,175.152c-1.754,7.009-3.516,14.121-3.317,21.343s2.62,14.686,8.037,19.472a24.9,24.9,0,0,0,12.147,5.549c6.826,1.233,14.239.154,19.89-3.875,8.139-5.806,11.193-16.272,13.688-25.585a26.148,26.148,0,0,1-3.582-10.679A48.042,48.042,0,0,1,242.9,155.46,27.283,27.283,0,0,1,226.8,175.152Z" transform="translate(-223.469 -155.46)"/>
    </clipPath>
    <clipPath id="clip-path-6">
      <path id="Trazado_1053176" data-name="Trazado 1053176" d="M316.431,420.017c-4.47.1-12.7,5.16-16.712,9.167-3.163,3.163,2.936,6.334,2.106,10.723-1.805,9.534-3.618,19.061-5.446,29.035a68,68,0,0,0,45.5,2.341q.187-13.167.367-26.341.1-7.222.206-14.437a9.671,9.671,0,0,0-.91-5.233c-1.13-1.857-3.339-2.716-5.424-3.31C329.657,420.127,322.824,419.871,316.431,420.017Z" transform="translate(-296.38 -419.983)"/>
    </clipPath>
    <clipPath id="clip-path-7">
      <path id="Trazado_1053190" data-name="Trazado 1053190" d="M288.843,376.317c-.272.264-2.385-1.857-2.657-1.585.418,5,3.244,12.33,4.785,17.1.58,1.8,1.218,3.861.242,5.49-1.094,1.828-3.574,2.077-5.615,2.7a11.871,11.871,0,0,0-7.7,7.611,10.777,10.777,0,0,0,2.07,10.407,17.186,17.186,0,0,1,0-2.613,10.631,10.631,0,0,0,3.64,7.464c-.521-2.84,1.607-5.549,4.081-7.039s5.35-2.209,7.839-3.67a12.765,12.765,0,0,0,6.349-9.365,21.98,21.98,0,0,0-.939-7.413q-1.09-4.448-2.187-8.9c-.668-2.723-1.439-5.622-3.516-7.508C293.9,377.777,292.175,377.117,288.843,376.317Z" transform="translate(-277.374 -374.707)"/>
    </clipPath>
    <clipPath id="clip-path-8">
      <path id="Trazado_1053197" data-name="Trazado 1053197" d="M356.789,359.41a27.461,27.461,0,0,1-.807-5.094c.022-2.422,1.079-4.771,1-7.193-.117-3.574-2.686-6.642-5.644-8.661s-6.356-3.288-9.395-5.174c-2.591-1.615-4.9-3.67-7.567-5.16-6.664-3.728-15.193-3.472-22.018-.044a31.259,31.259,0,0,0-14.437,15.985c-3.714-.015-6.62,3.259-8.176,6.628-2.415,5.218-1.38,10.6.286,16.1s8.683,3.831,10.6,10.172c.169.565,4.719-1.967,5.9-3.831a19.884,19.884,0,0,0,2.29-6.165,120.369,120.369,0,0,0,2.253-14.877c2.789,4.316,6.18,6.231,11.266,5.512,3.941-.565,7.861-.763,11.244,1.336,1.967,1.218,4.066,3.428,7.721,4.9a4.867,4.867,0,0,0-2.657,2.3,4.9,4.9,0,0,1,2.774-1.571,8.664,8.664,0,0,1,1.284-.235,21.047,21.047,0,0,0,4.22.837,7.177,7.177,0,0,1,.727.11c.206.1.411.2.624.323-.073-.081-.147-.147-.22-.228a4.571,4.571,0,0,1,3.354,3.075c1.593.653,4.228-2.437,5.005-3.978A8.079,8.079,0,0,0,356.789,359.41Z" transform="translate(-288.317 -325.423)"/>
    </clipPath>
    <clipPath id="clip-path-9">
      <path id="Trazado_1053221" data-name="Trazado 1053221" d="M122.022,356.943c3.927,3.721,9.864,3.457,14.451.6a12.137,12.137,0,0,0,14.106,4.881,6.367,6.367,0,0,0,9.556,3.692,18.17,18.17,0,0,0,1.673,15.185,38.112,38.112,0,0,0-1.424,7.853c-.029.4.007.917.382,1.072.411.169,1.938.778,5.6-4.286,2.422-3.354,5.563-3.428,8.7-2.371a32.805,32.805,0,0,0,7.494-13.24,22.772,22.772,0,0,0-.9-15.031c-1.005-2.26-2.429-4.323-3.259-6.657-.719-2.018-.969-4.2-1.886-6.128a9.249,9.249,0,0,0-4.521-4.36,8.054,8.054,0,0,0-11.325-4.917,8.072,8.072,0,0,1-3.1,1.284c-2.128.081-3.435-2.172-4.91-3.706a9.177,9.177,0,0,0-7.853-2.679c-2.84.426-5.424,2.3-7.222,5.439a10.1,10.1,0,0,0-10.569-.477,9.567,9.567,0,0,0-4.8,9,7.817,7.817,0,0,0-7.655,5.189c-1.108,3.127-.191,6.789,2.73,8.382a12.307,12.307,0,0,0-2.972,7.721c-.059,2.811.888,5.637,2.914,7.237C118.616,365.956,120.576,362.176,122.022,356.943Z" transform="translate(-114.11 -328.041)"/>
    </clipPath>
  </defs>
  <g id="Enmascarar_grupo_1098861" data-name="Enmascarar grupo 1098861" transform="translate(-180 -5038)" clip-path="url(#clip-path)">
    <g id="Grupo_1206412" data-name="Grupo 1206412">
      <circle id="Elipse_14281" data-name="Elipse 14281" cx="167" cy="167" r="167" transform="translate(212 5005)" fill="#fffcf3"/>
      <g id="OBJECTS" transform="translate(186.88 4926.278)">
        <g id="Grupo_1206351" data-name="Grupo 1206351" transform="translate(32 108.06)">
          <g id="Grupo_1206343" data-name="Grupo 1206343" transform="translate(0 38)">
            <rect id="Rectángulo_417631" data-name="Rectángulo 417631" width="320" height="171.743" fill="#be5949"/>
            <rect id="Rectángulo_417632" data-name="Rectángulo 417632" width="303.853" height="154.862" transform="translate(8.073 8.44)" fill="#3b3945"/>
            <g id="Grupo_1206342" data-name="Grupo 1206342" transform="translate(8.073 8.418)">
              <g id="Grupo_1206341" data-name="Grupo 1206341">
                <g id="Grupo_1206340" data-name="Grupo 1206340" clip-path="url(#clip-path-2)">
                  <path id="Trazado_1053118" data-name="Trazado 1053118" d="M37.648,155.53s16.829,101.028,90.1,118.569c185.644,44.44,222.539-96.528,222.539-96.528L352.2,292.213,32.51,292.9l2.4-124.294Z" transform="translate(-40.209 -129.108)" fill="#33313d"/>
                </g>
              </g>
            </g>
          </g>
          <g id="Grupo_1206350" data-name="Grupo 1206350" transform="translate(32.896 75.941)">
            <g id="Grupo_1206344" data-name="Grupo 1206344" transform="translate(189.775 1.318)">
              <path id="Trazado_1053119" data-name="Trazado 1053119" d="M339.933,170.52l-4.543,32.066,37.086,7.963,6-33.534Z" transform="translate(-335.39 -163.937)" fill="none" stroke="#fff" stroke-miterlimit="10" stroke-width="3"/>
              <path id="Trazado_1053120" data-name="Trazado 1053120" d="M386.35,210.843,398.5,203.87l4.741-33.35-11.486,6.642" transform="translate(-348.948 -163.937)" fill="none" stroke="#fff" stroke-miterlimit="10" stroke-width="3"/>
              <path id="Trazado_1053121" data-name="Trazado 1053121" d="M340.89,167.855l19.582-6.3,31.817,5.5" transform="translate(-336.853 -161.55)" fill="none" stroke="#fff" stroke-miterlimit="10" stroke-width="3"/>
            </g>
            <g id="Grupo_1206346" data-name="Grupo 1206346" transform="translate(0)">
              <path id="Trazado_1053122" data-name="Trazado 1053122" d="M109.414,173.22c-.462.139-.925.264-1.395.4-.484-1.835-.976-3.67-1.541-5.453a.991.991,0,0,0-1.732.866c.316,1.747.661,3.494,1.013,5.24-.668.183-1.343.374-2.011.565-.639.242-1.468.294-1.842.939a1.286,1.286,0,0,0,1.439,1.872,26.382,26.382,0,0,1,2.965-.69c.169.807.33,1.622.5,2.429a25.143,25.143,0,0,0,.954,3.42,1.252,1.252,0,0,0,.58.756,1.267,1.267,0,0,0,1.842-.749c.147-.741-.426-2.716-.829-4.338-.206-.683-.4-1.372-.58-2.062a12.419,12.419,0,0,0,1.908-.646A1.459,1.459,0,0,0,109.414,173.22Z" transform="translate(-83.448 -161.891)" fill="#fff"/>
              <path id="Trazado_1053123" data-name="Trazado 1053123" d="M134.738,176.775c-.771-.763-1.894-.264-2.833-.183-1.094.183-2.187.389-3.273.631a29.246,29.246,0,0,0,3.457-6.393c1.072-2.84.088-6.209-2.987-7.2-2.664-.9-5.292,1.534-6.239,3.839a1.07,1.07,0,0,0,1.974.683c.954-1.343,1.938-2.29,3.193-2.217a3,3,0,0,1,1.556.969,3.727,3.727,0,0,1,.316,2.906c-.639,2.231-2.224,4.572-3.875,7.119-.448.807-.749.727-1.372,1.894a1.288,1.288,0,0,0,1.262,1.6,26.261,26.261,0,0,0,3.5-.587c2.29-.426,1.886-.154,4.844-.675A1.466,1.466,0,0,0,134.738,176.775Z" transform="translate(-89.066 -160.735)" fill="#fff"/>
              <path id="Trazado_1053124" data-name="Trazado 1053124" d="M158.777,159.8a23.368,23.368,0,0,0-2.906.727c-.477.191-1.057.279-1.321.771a1.2,1.2,0,0,0,1.343,1.747,29.322,29.322,0,0,1,3.552-.822A1.256,1.256,0,0,0,158.777,159.8Z" transform="translate(-97.457 -159.755)" fill="#fff"/>
              <path id="Trazado_1053125" data-name="Trazado 1053125" d="M157.981,169.889c-1.028.33-2.062.675-3.061,1.086-.418.213-.969.286-1.24.7A1.258,1.258,0,0,0,155,173.647a18.4,18.4,0,0,1,2.708-.925,4.141,4.141,0,0,0,1.431-.492A1.335,1.335,0,0,0,157.981,169.889Z" transform="translate(-97.197 -162.436)" fill="#fff"/>
              <g id="Grupo_1206345" data-name="Grupo 1206345" transform="translate(0 8.837)">
                <path id="Trazado_1053126" data-name="Trazado 1053126" d="M88.7,178.735a3.861,3.861,0,0,0-3.354-1.747c1.395-1.629,2.833-3.618,1.116-4.91-.947-.572-2.092-.117-3.1.007a38.076,38.076,0,0,0-5.923,1.439,1.1,1.1,0,0,0,.675,2.07,38.865,38.865,0,0,1,5.571-.939c-.484.624-1.094,1.328-1.585,1.923-.448.6-1.094,1.138-1.211,1.916-.1,1.417,1.3,1.754,2.429,1.468.161-.029.536-.059.749-.073a5.407,5.407,0,0,1,1.387.059l.117.022c.029.007.051.015.1.029a1.442,1.442,0,0,1,.242.11c.11.066.22.139.33.213a3.442,3.442,0,0,1,.345.389c.536,1.145.308,2.422-1.8,3.875a10.391,10.391,0,0,1-3.589,1.218,9.083,9.083,0,0,0-2.65.521,1.488,1.488,0,0,0-.037,2.459c.829.382.829.286,1.123.242a.056.056,0,0,1,.029.007h-.007a1.325,1.325,0,0,1,.316-.015,15.784,15.784,0,0,0,3.648-.646,8.781,8.781,0,0,0,3.949-2.239C89.584,184.305,90.347,181,88.7,178.735Z" transform="translate(-76.821 -171.795)" fill="#fff"/>
                <path id="Trazado_1053127" data-name="Trazado 1053127" d="M81.039,195.22h-.022c-.088.007-.169.015-.257.015A1.1,1.1,0,0,0,81.039,195.22Z" transform="translate(-77.869 -178.028)" fill="#fff"/>
              </g>
            </g>
            <g id="Grupo_1206348" data-name="Grupo 1206348" transform="translate(188.549 72.905)">
              <path id="Trazado_1053128" data-name="Trazado 1053128" d="M344.67,262.341a48.673,48.673,0,0,0-2.2,4.983c-.418-.117-.866-.191-1.24-.286-1.784-.44-3.046-.595-4.286-.793.976-1.079,2.422-2.547,3.464-3.611.594-.6,1.2-1.2,1.828-1.769a1.213,1.213,0,0,0,.543-.9.89.89,0,0,0-1.5-.624c-2.231,1.93-4.345,3.985-6.5,6-.91.646-1.549,1.894-.528,2.76,1.328.961,3.09,1.035,4.631,1.483.763.117,1.688.47,2.539.668-.4,1.167-.771,2.341-1.138,3.523-.308,1.064-.609,2.136-.925,3.207a1.5,1.5,0,0,0,.55,1.615,1.516,1.516,0,0,0,2.011-.117,5.788,5.788,0,0,0,.807-2.1c.6-2.158,1.24-4.308,2.011-6.407.572-1.571,1.094-3.149,1.629-4.734a8.309,8.309,0,0,0,.617-2.407A1.246,1.246,0,0,0,344.67,262.341Z" transform="translate(-333.719 -259.087)" fill="#fff"/>
              <path id="Trazado_1053129" data-name="Trazado 1053129" d="M360.3,271.909c-1.475-.477-3.141-.272-4.675-.528-1.02-.007-2.319-.411-3.266-.1a1.535,1.535,0,0,0,.595,2.943c1.725.147,3.442.308,5.167.448.837.022,1.842.345,2.5-.352A1.552,1.552,0,0,0,360.3,271.909Z" transform="translate(-338.432 -262.3)" fill="#fff"/>
              <g id="Grupo_1206347" data-name="Grupo 1206347" transform="translate(24.835 3.708)">
                <path id="Trazado_1053130" data-name="Trazado 1053130" d="M379.823,271.634a3.851,3.851,0,0,0-2.98-2.319c1.666-1.35,3.435-3.046,1.982-4.624-.829-.734-2.033-.492-3.061-.55a38.309,38.309,0,0,0-6.084.345,1.1,1.1,0,0,0,.294,2.158,39.33,39.33,0,0,1,5.644.088c-.595.521-1.314,1.108-1.908,1.6-.55.506-1.284.925-1.534,1.666-.352,1.372.961,1.96,2.128,1.879.169,0,.536.037.749.059a5.351,5.351,0,0,1,1.35.308l.11.044c.022.015.051.022.088.044a2.305,2.305,0,0,1,.22.147c.1.088.191.176.286.272a3.336,3.336,0,0,1,.264.44c.316,1.218-.139,2.437-2.466,3.486a10.181,10.181,0,0,1-3.75.543c-.888.044-1.85-.286-2.694.029a1.481,1.481,0,0,0-.477,2.407c.749.528.763.433,1.064.44.007,0,.015.007.022.007a.125.125,0,0,1,.051.007c-.022-.007-.044-.007-.059-.015a1.584,1.584,0,0,1,.316.044,15.649,15.649,0,0,0,3.706.029,8.721,8.721,0,0,0,4.286-1.49C379.684,277.278,381.042,274.166,379.823,271.634Z" transform="translate(-367.557 -264.14)" fill="#fff"/>
                <path id="Trazado_1053131" data-name="Trazado 1053131" d="M369.979,285.929h-.022c-.088-.015-.169-.015-.257-.029A.977.977,0,0,0,369.979,285.929Z" transform="translate(-368.127 -269.929)" fill="#fff"/>
              </g>
              <path id="Trazado_1053132" data-name="Trazado 1053132" d="M401.229,271.106c-.462-.793-1.483-.683-2.275-.741a15.806,15.806,0,0,0-3.178.132,1.086,1.086,0,0,0,.418,2.077c1.167.11,1.189.139,2.672.352a3.419,3.419,0,0,0,1.739.044A1.314,1.314,0,0,0,401.229,271.106Z" transform="translate(-350.057 -262.084)" fill="#fff"/>
              <path id="Trazado_1053133" data-name="Trazado 1053133" d="M398.221,278.893c-1.116-.1-2.239-.11-3.354-.183a1.166,1.166,0,0,0-.829.345,1.188,1.188,0,0,0,.521,1.967c.851.191,1.7.367,2.561.506.815.2,1.842.352,2.319-.521A1.415,1.415,0,0,0,398.221,278.893Z" transform="translate(-349.678 -264.308)" fill="#fff"/>
            </g>
            <g id="Grupo_1206349" data-name="Grupo 1206349" transform="translate(15.14 40.378)">
              <path id="Trazado_1053134" data-name="Trazado 1053134" d="M128.96,223.673a21.8,21.8,0,0,0-9.006,8.132c-.543-5.05-3.875-10.3-8.264-13.666a30.046,30.046,0,0,0-3.508-2.415,5.721,5.721,0,0,0-2.481-.954c-1.637.051-1.395,1.747-1.314,2.048q.077.583.132,1.167c.059.639.11,1.277.132,1.916.059,3.8-.6,7.787,1.013,11.376a14.136,14.136,0,0,0,5.6,7.134,9.9,9.9,0,0,0,4.727,1.431,21.06,21.06,0,0,0-.873,2.561,3.816,3.816,0,0,0-.132,1.982,1.309,1.309,0,0,0,2.128.418c.617-.888.242-.55.477-1.306a35.747,35.747,0,0,1,7.582-13.916,32.561,32.561,0,0,1,4.022-3.611c.418-.272.969-.44,1.094-.983A1.091,1.091,0,0,0,128.96,223.673Zm-16.925,12.639a12.887,12.887,0,0,1-4.741-6.76c-1-2.723-.316-6.165-.4-9.688-.007-.433-.1-1.483-.191-2.3.007,0,.007.007.015.007a32.912,32.912,0,0,1,3.193,2.114,28.069,28.069,0,0,1,4.536,4.514c2.422,3.413,3.839,7.435,3.259,10.459a3.417,3.417,0,0,1-.088.462c-.785-1.321-1.7-2.576-2.437-3.927-1.13-2.077-1.945-4.308-2.98-6.437a14.654,14.654,0,0,0-3.3-4.609.964.964,0,0,0-1.05,1.563c1.982,2.1,3.941,7.222,5.064,9.842.793,1.651,2.415,4.55,3.273,6.15A7.774,7.774,0,0,1,112.036,236.311Z" transform="translate(-99.28 -214.77)" fill="#237c74"/>
              <path id="Trazado_1053135" data-name="Trazado 1053135" d="M132.107,259.487a13.277,13.277,0,0,0-4.631-6.04,11.806,11.806,0,0,0-11.985-.771,1.858,1.858,0,0,0-.9.6,1.3,1.3,0,0,0-.161-.117c-9.982-5.629-16.7,2.194-16.976,13.138.1,3.413.081,7.163,1.989,10.128a10.142,10.142,0,0,0,6.547,3.817c3.163.448,4.873.081,7.332.91,1.387.448,1.615.719,3.53,1.27a9.542,9.542,0,0,0,4.367.059,10.8,10.8,0,0,0,5.2-2.995C131.483,274.848,134.133,266.092,132.107,259.487Zm-4.939,14.15c-1.9,3.369-4.983,5.879-7.413,5.967-1.916.316-3.648-.844-6.246-1.6-2.473-.675-5.96-.514-7.251-.778.147.022.352.051.11.015-5.783-1.1-6.239-4.815-6.158-11.963.389-6.055,3.383-11.149,7.633-11.259a12.7,12.7,0,0,1,5.336,1.248c1.747,1.365,4.36-.382,4.631-.272a8.164,8.164,0,0,1,3.89-.521,9.265,9.265,0,0,1,7.442,5.82C130.529,264.72,129.384,269.491,127.167,273.637Z" transform="translate(-97.45 -224.485)" fill="#d63845"/>
            </g>
          </g>
        </g>
        <g id="Grupo_1206374" data-name="Grupo 1206374" transform="translate(123.765 112.834)">
          <g id="Grupo_1206354" data-name="Grupo 1206354" transform="translate(0 142.308)">
            <g id="Grupo_1206352" data-name="Grupo 1206352">
              <path id="Trazado_1053136" data-name="Trazado 1053136" d="M178.131,308.46a201.183,201.183,0,0,1-21.1,35.5c3.457,2.767,10.217,8.1,14.444,10.451,8.169-10.114,15.229-20.954,23.9-31.765-2.327-2.363-7.582-5.681-10.371-7.472S179.518,311.058,178.131,308.46Z" transform="translate(-157.03 -308.46)" fill="#fdae86"/>
              <path id="Trazado_1053137" data-name="Trazado 1053137" d="M181.6,317.06s8.793,18.106,13.321,17l5.835-7.486S184.161,317.163,181.6,317.06Z" transform="translate(-163.567 -310.748)" fill="#f28361"/>
            </g>
            <g id="Grupo_1206353" data-name="Grupo 1206353" transform="translate(92.756 1.527)">
              <path id="Trazado_1053138" data-name="Trazado 1053138" d="M303.41,310.54a201.163,201.163,0,0,0,12.558,39.347c-3.993,1.916-11.78,5.585-16.426,6.928-5.673-11.692-10.114-23.846-16.132-36.338,2.8-1.776,8.661-3.824,11.787-4.939S301.472,312.757,303.41,310.54Z" transform="translate(-283.41 -310.54)" fill="#fdae86"/>
              <path id="Trazado_1053139" data-name="Trazado 1053139" d="M305.247,319.849S292.6,335.5,288.44,333.405l-4-8.609S302.737,319.372,305.247,319.849Z" transform="translate(-283.684 -313.009)" fill="#f28361"/>
            </g>
          </g>
          <g id="Grupo_1206355" data-name="Grupo 1206355" transform="translate(12.183 167.285)">
            <path id="Trazado_1053140" data-name="Trazado 1053140" d="M265.365,433.14q-.121,5.3-.514,10.569-.088,1.244-.2,2.488a1.937,1.937,0,0,1-.015.206c-.081.954-.176,1.908-.272,2.862-.037.338-.066.675-.11,1.013-.073.719-.154,1.431-.242,2.15-.051.433-.1.873-.161,1.306-.066.55-.132,1.1-.213,1.651-.125.9-.257,1.805-.389,2.708H176.316a.007.007,0,0,1-.007-.007c-.081-.161-.161-.323-.228-.484s-.139-.338-.2-.514c-.044-.132-.088-.264-.125-.4-.022-.073-.044-.154-.059-.228-.037-.139-.073-.286-.1-.426-.037-.176-.066-.345-.088-.514a14.061,14.061,0,0,1-.154-1.622q-.8-16.349-1.615-32.7c-.661-15.956,1.424-32.7,6.833-47.5.029-.088.066-.176.1-.272q1.035-2.829,2.246-5.549a1.568,1.568,0,0,0,.073-.161,73.936,73.936,0,0,1,13.7-20.939,60.722,60.722,0,0,1,4.514-4.286c15.3,10.811,33.27,11.039,49.461,2.349C260.463,372.9,266.055,403.261,265.365,433.14Z" transform="translate(-173.629 -342.49)" fill="#6f4659"/>
          </g>
          <path id="Trazado_1053141" data-name="Trazado 1053141" d="M265.365,434.693q-.121,5.3-.514,10.569-.088,1.244-.2,2.488a1.938,1.938,0,0,1-.015.206c-.081.954-.176,1.908-.272,2.862-.037.338-.066.675-.11,1.013-.073.719-.154,1.431-.242,2.15-.051.433-.1.873-.161,1.306-.066.55-.132,1.1-.213,1.651-.125.9-.257,1.805-.389,2.708H176.316a.007.007,0,0,1-.007-.007c-.081-.161-.161-.323-.228-.484s-.139-.338-.2-.514c-.044-.132-.088-.264-.125-.4-.022-.073-.044-.154-.059-.228-.037-.139-.073-.286-.1-.426-.037-.176-.066-.345-.088-.514a14.062,14.062,0,0,1-.154-1.622q-.8-16.349-1.615-32.7c-.661-15.956,1.424-32.7,6.833-47.5.029-.088.066-.176.1-.272.719-1.85,1.475-3.714,2.246-5.549a1.57,1.57,0,0,0,.073-.161,73.935,73.935,0,0,1,13.7-20.939c-.484,7.611-5.4,102.246,53.446,94.862C250.143,443.192,260.463,442.5,265.365,434.693Z" transform="translate(-161.446 -176.759)" fill="#6b3e57"/>
          <g id="Grupo_1206359" data-name="Grupo 1206359" transform="translate(10.752 97.407)">
            <g id="Grupo_1206358" data-name="Grupo 1206358">
              <path id="Trazado_1053142" data-name="Trazado 1053142" d="M210.88,251.15c-9.387,1.233-18.092,10.5-21.424,14.84q-9.248,12.044-17.776,24.6A51.177,51.177,0,0,0,190.2,308.1c1.622.9,5.534,4.294,7.3,3.714,1.534-.506.521-4.506,1.409-5.85,2.275-3.428,4.594-6.98,5.358-11.031a36.533,36.533,0,0,0,.279-7.391C204.363,276.493,208.546,262.012,210.88,251.15Z" transform="translate(-171.68 -248.311)" fill="#f06ea2"/>
              <path id="Trazado_1053143" data-name="Trazado 1053143" d="M285.012,259.95c8.36,4.609,17.116,22.341,23.376,33.395a9.085,9.085,0,0,1,1.593,4.727c-.117,2.517-2.231,4.44-4.3,5.879a43.062,43.062,0,0,1-25.725,7.589,2.806,2.806,0,0,1-1.666-.426,2.891,2.891,0,0,1-.675-2.517C278.516,293.19,279.353,276.383,285.012,259.95Z" transform="translate(-199.859 -250.653)" fill="#f06ea2"/>
              <path id="Trazado_1053144" data-name="Trazado 1053144" d="M227.49,250.22c-5.666.169-11.883.55-16.015,4.426-3.222,3.024-4.477,7.56-5.38,11.89-2.356,11.281-1.468,22.114-.991,33.629.272,6.532-.675,14.18,3.171,19.273a57.066,57.066,0,0,0,51.251,2.532,98.623,98.623,0,0,0,11.4-54.547,15.687,15.687,0,0,0-1.417-6.092c-2.084-3.927-6.767-5.541-11.024-6.818s-9.079-2.51-12.961-.338c-1.945,1.086-3.361,2.892-5.006,4.4a19.638,19.638,0,0,1-6.136,3.817,4.2,4.2,0,0,1-2.848.323c-1.314-.455-1.938-1.916-2.385-3.229A22.885,22.885,0,0,1,227.49,250.22Z" transform="translate(-180.422 -248.064)" fill="#fe80ab"/>
              <g id="Grupo_1206356" data-name="Grupo 1206356" transform="translate(40.011)">
                <path id="Trazado_1053145" data-name="Trazado 1053145" d="M238.955,247.941a7.331,7.331,0,0,0-7.039.558,11.3,11.3,0,0,0-4.367,5.783,25.218,25.218,0,0,0-1.248,7.244,68.226,68.226,0,0,0,.2,10.246,4.809,4.809,0,0,0,.727,2.5c.859,1.138,2.5,1.321,3.912,1.145,4.411-.536,8.1-3.472,11.538-6.29a2.054,2.054,0,0,0,.932-1.336,2.368,2.368,0,0,0-.506-1.292,14.011,14.011,0,0,1-1.483-5.226A85.868,85.868,0,0,0,238.955,247.941Z" transform="translate(-226.195 -247.282)" fill="#fff5f7"/>
                <path id="Trazado_1053146" data-name="Trazado 1053146" d="M262.213,249.81a14.571,14.571,0,0,1,4.675,4.4,13.928,13.928,0,0,1,1.439,5.328c.624,5.255.7,10.752-1.218,15.655-.565,1.439-1.424,2.921-2.84,3.428-1.453.521-3.031-.139-4.418-.822q-2.686-1.31-5.292-2.782c-2.261-1.277-4.7-2.943-5.189-5.556a8.847,8.847,0,0,1,1.057-5.145A35.43,35.43,0,0,1,262.213,249.81Z" transform="translate(-232.338 -247.955)" fill="#fff5f7"/>
              </g>
              <g id="Grupo_1206357" data-name="Grupo 1206357" transform="translate(50.673 32.356)">
                <path id="Trazado_1053147" data-name="Trazado 1053147" d="M244.9,293.676c.278-1.441,1.245-2.465,2.161-2.289s1.432,1.488,1.155,2.928-1.246,2.465-2.161,2.289S244.627,295.117,244.9,293.676Z" transform="translate(-241.815 -291.367)" fill="#fff"/>
                <path id="Trazado_1053148" data-name="Trazado 1053148" d="M243.156,314.425c.278-1.441,1.245-2.465,2.161-2.289s1.432,1.488,1.154,2.928-1.245,2.465-2.161,2.289S242.878,315.866,243.156,314.425Z" transform="translate(-241.349 -296.888)" fill="#fff"/>
                <path id="Trazado_1053149" data-name="Trazado 1053149" d="M240.8,337.675c.278-1.441,1.246-2.465,2.161-2.289s1.432,1.488,1.155,2.928-1.246,2.465-2.161,2.289S240.519,339.116,240.8,337.675Z" transform="translate(-240.722 -303.073)" fill="#fff"/>
              </g>
            </g>
            <path id="Trazado_1053150" data-name="Trazado 1053150" d="M261.451,351.706l-1.409-5.439c-17.49,6.3-37.108,5.005-53.211-4.117a35.6,35.6,0,0,0-3.171,4.639A68.012,68.012,0,0,0,261.451,351.706Z" transform="translate(-180.188 -272.522)" fill="#38324f"/>
          </g>
          <g id="Grupo_1206360" data-name="Grupo 1206360" transform="translate(58.875 88.591)">
            <path id="Trazado_1053151" data-name="Trazado 1053151" d="M239.481,235.27a45.786,45.786,0,0,1-1.108,14.136,24.5,24.5,0,0,0-1.116,6.635,11.584,11.584,0,0,0,4.059,7.985,10.267,10.267,0,0,0,8.308,2.73c3.457-.6,6.165-3.494,7.523-6.73s1.593-6.818,1.813-10.327q.242-3.831.477-7.655a4.343,4.343,0,0,0-.418-2.7,4.247,4.247,0,0,0-2.635-1.446A73.642,73.642,0,0,0,239.481,235.27Z" transform="translate(-237.248 -235.27)" fill="#fdae86"/>
            <path id="Trazado_1053152" data-name="Trazado 1053152" d="M239.769,241.94l-1.519,10.906s19.127-.22,21.5-8.859C259.74,243.988,248.613,246.314,239.769,241.94Z" transform="translate(-237.514 -237.045)" fill="#f28361"/>
          </g>
          <g id="Grupo_1206373" data-name="Grupo 1206373" transform="translate(40.553)">
            <g id="Grupo_1206367" data-name="Grupo 1206367" transform="translate(2.778)">
              <path id="Trazado_1053153" data-name="Trazado 1053153" d="M248.527,137.159a21.67,21.67,0,0,1-1.483-10.525,13.365,13.365,0,0,1,5.152-9.086c2.716-1.945,6.143-2.554,9.468-2.84a20.112,20.112,0,0,1,8.426.675,13.52,13.52,0,0,1,7.721,7.45,17.042,17.042,0,0,1,.683,10.826,9.174,9.174,0,0,1-2.1,4.2c-1.468,1.512-3.618,2.121-5.681,2.547a55.7,55.7,0,0,1-15.6,1.006,11.861,11.861,0,0,1-4.051-.851C249.8,139.978,249.15,138.811,248.527,137.159Z" transform="translate(-224.268 -114.565)" fill="#732829"/>
              <path id="Trazado_1053154" data-name="Trazado 1053154" d="M221.5,185.471c-5.1-5.894-5.806-11.56-5.292-19.339,1.908-28.976,39.618-26.833,39.728-26.826,34.253,2.283,34.657,44.558,15.67,55.985-4.719,2.84-6.877.719-12.382.646a77.794,77.794,0,0,1-16.873-1.615C236.847,193,227.372,192.246,221.5,185.471Z" transform="translate(-216.068 -121.137)" fill="#732829"/>
              <g id="Grupo_1206363" data-name="Grupo 1206363" transform="translate(0 18.131)">
                <g id="Grupo_1206362" data-name="Grupo 1206362">
                  <g id="Grupo_1206361" data-name="Grupo 1206361" clip-path="url(#clip-path-3)">
                    <path id="Trazado_1053155" data-name="Trazado 1053155" d="M215.12,170.245c-1.028-6.95.639-15.354,5.064-20.8s11.486-8.015,18.224-10.018a36.813,36.813,0,0,1,19.677-.617c27.053,7.1,21.3,40.881,20.822,47.817,5.365-5.761,7.361-19.6,5.784-27.31a31.653,31.653,0,0,0-12.932-19.083,42.541,42.541,0,0,0-22.128-7.3,41.161,41.161,0,0,0-16.374,2.18,29.7,29.7,0,0,0-13.387,9.49C214.43,151.647,213,160.938,215.12,170.245Z" transform="translate(-215.566 -137.561)" fill="#914841"/>
                  </g>
                </g>
              </g>
              <g id="Grupo_1206366" data-name="Grupo 1206366" transform="translate(22.621)">
                <g id="Grupo_1206365" data-name="Grupo 1206365">
                  <g id="Grupo_1206364" data-name="Grupo 1206364" clip-path="url(#clip-path-4)">
                    <path id="Trazado_1053157" data-name="Trazado 1053157" d="M243.39,124.52c1.952-4.543,3.354-6.459,7.956-8.272s14.958-2.576,18.833.506a15.682,15.682,0,0,1,5.417,10.261c.521,3.934.793,4.631-.308,8.44,4.6-3.978,5.556-7.53,3.611-13.3a19.007,19.007,0,0,0-7.068-9.123c-3.736-2.686-8.462-4.279-12.983-3.428a15.645,15.645,0,0,0-9.262,5.952C247.287,118.531,243.361,121.416,243.39,124.52Z" transform="translate(-245.958 -113.184)" fill="#914841"/>
                  </g>
                </g>
              </g>
              <path id="Trazado_1053159" data-name="Trazado 1053159" d="M247.83,139.566a40.7,40.7,0,0,1,30.18,1.747c-1.7-1.49-4.352-7.662-16.33-7.662C256.7,133.65,249.437,135.177,247.83,139.566Z" transform="translate(-224.519 -119.642)" fill="#f06ea2"/>
            </g>
            <path id="Trazado_1053160" data-name="Trazado 1053160" d="M222.373,201.005a6.805,6.805,0,0,0-3.171-4.837,4.673,4.673,0,0,0-5.519.639c-1.387,1.453-1.453,3.684-1.38,5.688a20.774,20.774,0,0,0,.8,5.791,8,8,0,0,0,3.457,4.565,5,5,0,0,0,5.512-.272,5.534,5.534,0,0,0,1.783-4.2C223.885,206.811,223.114,205.35,222.373,201.005Z" transform="translate(-212.283 -136.113)" fill="#faa07f"/>
            <path id="Trazado_1053161" data-name="Trazado 1053161" d="M293.819,205.241a4.171,4.171,0,0,1,4.939-.088,6.4,6.4,0,0,1,2.517,4.506,14.221,14.221,0,0,1-.514,5.262,16.9,16.9,0,0,1-2.334,5.673,8.009,8.009,0,0,1-4.932,3.435,5.3,5.3,0,0,1-5.395-2.143,5.975,5.975,0,0,1-.521-4.565,17.75,17.75,0,0,1,1.93-4.294C290.956,210.459,291.551,207.208,293.819,205.241Z" transform="translate(-232.258 -138.462)" fill="#faa07f"/>
            <g id="Grupo_1206371" data-name="Grupo 1206371" transform="translate(8.21 30.015)">
              <path id="Trazado_1053162" data-name="Trazado 1053162" d="M226.8,175.152c-1.754,7.009-3.516,14.121-3.317,21.343s2.62,14.686,8.037,19.472a24.9,24.9,0,0,0,12.147,5.549c6.826,1.233,14.239.154,19.89-3.875,8.139-5.806,11.193-16.272,13.688-25.585a26.148,26.148,0,0,1-3.582-10.679A48.042,48.042,0,0,1,242.9,155.46,27.283,27.283,0,0,1,226.8,175.152Z" transform="translate(-223.469 -155.46)" fill="#fdae86"/>
              <g id="Grupo_1206370" data-name="Grupo 1206370">
                <g id="Grupo_1206369" data-name="Grupo 1206369">
                  <g id="Grupo_1206368" data-name="Grupo 1206368" clip-path="url(#clip-path-5)">
                    <path id="Trazado_1053163" data-name="Trazado 1053163" d="M227.99,175.434a23.023,23.023,0,0,0,17.4-13.85c1.387,6.136,6.569,10.752,12.169,13.607s10.143,4.719,15.919,7.207c-.741,4.044,2.077,8.037,4.756,11.163A16.046,16.046,0,0,0,272.2,177.68c-3.024-2.231-6.738-3.3-9.967-5.218-6.928-4.125-11.039-11.758-17.475-16.617a2.194,2.194,0,0,0-1.277-.565c-.8.015-1.321.822-1.7,1.527A88.233,88.233,0,0,1,227.99,175.434Z" transform="translate(-224.672 -155.412)" fill="#f28361"/>
                  </g>
                </g>
              </g>
            </g>
            <g id="Grupo_1206372" data-name="Grupo 1206372" transform="translate(14.29 52.754)">
              <path id="Trazado_1053165" data-name="Trazado 1053165" d="M232.257,189.728c-2.231.132,3.538-2.686,5.806-3.083a11.231,11.231,0,0,1,6.745.734c.536.264,1.094.653,1.116,1.189.051,1.321-2.158.462-4.712.462A71.633,71.633,0,0,0,232.257,189.728Z" transform="translate(-231.754 -186.441)" fill="#732829"/>
              <path id="Trazado_1053166" data-name="Trazado 1053166" d="M284.36,196.3c2.092.793-2.569-3.618-4.617-4.675a11.272,11.272,0,0,0-6.657-1.314c-.594.088-1.24.3-1.417.8-.448,1.24,1.923,1.086,4.36,1.85A72.012,72.012,0,0,1,284.36,196.3Z" transform="translate(-242.359 -187.445)" fill="#732829"/>
              <path id="Trazado_1053167" data-name="Trazado 1053167" d="M279.895,211.012a8.047,8.047,0,0,0-8.756-3.809,9,9,0,0,0-4.389,2.892,9.325,9.325,0,0,1,6.928-1.6,9.715,9.715,0,0,1,5.042,2.084,22.1,22.1,0,0,1,1.938,2A12.844,12.844,0,0,0,279.895,211.012Z" transform="translate(-241.065 -191.916)" fill="#2b344a"/>
              <path id="Trazado_1053168" data-name="Trazado 1053168" d="M246.115,206.012a8.047,8.047,0,0,0-8.756-3.809,9,9,0,0,0-4.389,2.892,9.325,9.325,0,0,1,6.928-1.6,9.715,9.715,0,0,1,5.042,2.084,22.1,22.1,0,0,1,1.938,2A11.847,11.847,0,0,0,246.115,206.012Z" transform="translate(-232.077 -190.586)" fill="#2b344a"/>
              <path id="Trazado_1053169" data-name="Trazado 1053169" d="M257.443,211.22a4.46,4.46,0,0,0-.639,5.086,5.227,5.227,0,0,1-.154-1.218c0-.646.1-1.5.154-2.026A3.688,3.688,0,0,1,257.443,211.22Z" transform="translate(-238.282 -193.034)" fill="#a83139"/>
              <path id="Trazado_1053170" data-name="Trazado 1053170" d="M262.706,227.248a16.311,16.311,0,0,1-8.807,1.028,4.82,4.82,0,0,1-1.989-.595,6.133,6.133,0,0,0,2.914,1.519,9.1,9.1,0,0,0,9.116-2.195,7.348,7.348,0,0,0,.763-.9A12.5,12.5,0,0,1,262.706,227.248Z" transform="translate(-237.116 -196.996)" fill="#c33"/>
            </g>
          </g>
        </g>
        <g id="Grupo_1206398" data-name="Grupo 1206398" transform="translate(183.19 265.465)">
          <path id="Trazado_1053171" data-name="Trazado 1053171" d="M338.963,495.135H289.62a43.813,43.813,0,0,1,5.138-9.7c.382-.521.749-.991,1.108-1.409a221.64,221.64,0,0,1,38.393-2.187,5.764,5.764,0,0,1,3.486.91,5.7,5.7,0,0,1,1.607,3.721,11.433,11.433,0,0,1,.125,1.409A59.628,59.628,0,0,1,338.963,495.135Z" transform="translate(-251.731 -364.877)" fill="#38324f"/>
          <g id="Grupo_1206375" data-name="Grupo 1206375" transform="translate(83.231)">
            <path id="Trazado_1053172" data-name="Trazado 1053172" d="M372.656,369.993a85.381,85.381,0,0,0,15.574-21.182,57.464,57.464,0,0,1-3.3-17.717,4.864,4.864,0,0,1,.374-2.429,1.758,1.758,0,0,1,2.062-.947,2.631,2.631,0,0,1,1.226,1.7c.646,1.813,1.475,5.094,2.319,6.877,2.716-4.661,4.389-8.448,6.958-12.851a1.875,1.875,0,0,1,1.673-.917,1.571,1.571,0,0,1,1.292,1.211,4.243,4.243,0,0,1-.037,1.872,34.241,34.241,0,0,1-3.361,9.71c2.363-2.517,3.053-4.147,6.319-7.861a2.274,2.274,0,0,1,1.681-.851,1.805,1.805,0,0,1,1.578,1.549,4.694,4.694,0,0,1-.338,2.341,42.851,42.851,0,0,1-4.007,7.993c1.2-1.116,2.143-2.554,4.22-3.846a1.809,1.809,0,0,1,2.011-.029,1.979,1.979,0,0,1,.418,1.952c-.609,3.075-2.914,5.483-4.881,7.824a10.987,10.987,0,0,1,3.648-2.547,1.928,1.928,0,0,1,1.417-.176,1.384,1.384,0,0,1,.749,1.424,3.48,3.48,0,0,1-.675,1.571c-3.273,4.939-6.657,6.128-11.171,8.837-5.2,12.264-13.732,25.8-21.417,36.683-.22.308-.5.653-.881.653s-.653-.338-.866-.646C371.166,384.216,367.584,375.02,372.656,369.993Z" transform="translate(-356.391 -322.524)" fill="#fdae86"/>
            <path id="Trazado_1053173" data-name="Trazado 1053173" d="M355.517,439.288c4.44-7.655,25.226-19.971,22.613-23.9-1.336-2.018-5.277-9.387-9.211-12.646-.176-.147-.55.8-.778.763-.426-.073-1.541-.3-1.85,0a59.638,59.638,0,0,1-10.583,8.044c-1.534.917-3.215,1.872-3.919,3.508a7.821,7.821,0,0,0-.242,4.059C352.288,425.159,354.563,433.643,355.517,439.288Z" transform="translate(-351.399 -343.863)" fill="#fd6b2c"/>
          </g>
          <g id="Grupo_1206379" data-name="Grupo 1206379" transform="translate(42.85 71.529)">
            <path id="Trazado_1053174" data-name="Trazado 1053174" d="M316.431,420.017c-4.47.1-12.7,5.16-16.712,9.167-3.163,3.163,2.936,6.334,2.106,10.723-1.805,9.534-3.618,19.061-5.446,29.035a68,68,0,0,0,45.5,2.341q.187-13.167.367-26.341.1-7.222.206-14.437a9.671,9.671,0,0,0-.91-5.233c-1.13-1.857-3.339-2.716-5.424-3.31C329.657,420.127,322.824,419.871,316.431,420.017Z" transform="translate(-296.38 -419.983)" fill="#fd6b2c"/>
            <g id="Grupo_1206378" data-name="Grupo 1206378">
              <g id="Grupo_1206377" data-name="Grupo 1206377">
                <g id="Grupo_1206376" data-name="Grupo 1206376" clip-path="url(#clip-path-6)">
                  <path id="Trazado_1053175" data-name="Trazado 1053175" d="M344.1,426.443s.514,30.15-18.18,41.343c-13.453,8.051-30.246.844-30.246.844L293.73,471.1s39.428,10.613,50.04,3.435S350.119,423.977,344.1,426.443Z" transform="translate(-295.675 -421.675)" fill="#f75d25"/>
                </g>
              </g>
            </g>
          </g>
          <g id="Grupo_1206381" data-name="Grupo 1206381" transform="translate(59.173 66.805)">
            <path id="Trazado_1053177" data-name="Trazado 1053177" d="M337.84,418.176c1.336,3.266,1.358,6.561,1.659,10.415,3.442-2.371,7.339-2.7,11,.051-.007-6.055-5.328-14.268-8.609-13.13A11.946,11.946,0,0,0,337.84,418.176Z" transform="translate(-323.733 -414.041)" fill="#ffefe0"/>
            <path id="Trazado_1053178" data-name="Trazado 1053178" d="M326.113,413.564a7.075,7.075,0,0,0-6.561,3.912,10.516,10.516,0,0,0-.411,7.655,31.939,31.939,0,0,0,3.413,7.1,18.531,18.531,0,0,1,11.472-4.4C331.119,423.112,328.653,418.144,326.113,413.564Z" transform="translate(-318.619 -413.546)" fill="#ffefe0"/>
            <g id="Grupo_1206380" data-name="Grupo 1206380" transform="translate(4.566 0.257)">
              <path id="Trazado_1053179" data-name="Trazado 1053179" d="M339.1,423.242c-.117.433-.272.851-.426,1.262-.609,1.615-1.4,3.428-2.965,3.941a4.368,4.368,0,0,1-3.347-.572,13.248,13.248,0,0,1-3.978-3.229,15.238,15.238,0,0,1-3.134-6.2,14.609,14.609,0,0,1-.411-3.435c1.739-1.549,4.125-1.27,6.224-.426a27.3,27.3,0,0,1,5.828,3.567,5.528,5.528,0,0,1,2.319,2.679,1.9,1.9,0,0,1,.066.294A4.657,4.657,0,0,1,339.1,423.242Z" transform="translate(-324.84 -413.896)" fill="#f9af88"/>
              <path id="Trazado_1053180" data-name="Trazado 1053180" d="M340.057,424.251a2.776,2.776,0,0,1-.807.639c-2.3,1.306-7.45,1.453-10.716,1.4a15.238,15.238,0,0,1-3.134-6.2c1.005.088,11.024.991,14.026,2.679C340.211,423.209,340.512,423.7,340.057,424.251Z" transform="translate(-324.989 -415.544)" fill="#f28361"/>
            </g>
          </g>
          <g id="Grupo_1206384" data-name="Grupo 1206384" transform="translate(0 63.761)">
            <g id="Grupo_1206383" data-name="Grupo 1206383">
              <path id="Trazado_1053181" data-name="Trazado 1053181" d="M244.429,416.658a15.591,15.591,0,0,1-1.835-4.514,2.985,2.985,0,0,1,.051-1.5,1.9,1.9,0,0,1,1.16-1.138,2.7,2.7,0,0,1,2.246.389,5.476,5.476,0,0,1,1.417,1.556q2,2.873,4.007,5.739c.139.2.279.418.2.631-.1.264-.492.382-.837.36a9.145,9.145,0,0,1-.991-.206,5.942,5.942,0,0,0-2.033.125,4.292,4.292,0,0,1-2.026-.015A2.74,2.74,0,0,1,244.429,416.658Z" transform="translate(-239.201 -409.398)" fill="#ed8464"/>
              <path id="Trazado_1053182" data-name="Trazado 1053182" d="M288.458,457.265c-1.916,1.13-3.8,2.327-5.681,3.494a75.537,75.537,0,0,1-10.62,5.791c-1.872,1.086-4.455.521-6.194-.851a16.257,16.257,0,0,1-3.868-5.358q-5.846-11-11.677-22a28.518,28.518,0,0,1-6.539-2.473,11.6,11.6,0,0,1-4.991-5.035,12,12,0,0,1-.528-7.56c.47-2.216,1.453-4.477,3.376-5.673s4.925-.763,5.842,1.306a6.233,6.233,0,0,1,3.758.264,3.34,3.34,0,0,1,1.739,3,3.972,3.972,0,0,1,3.677.11,2.51,2.51,0,0,1,.917,3.171c-.007.015-.022.037-.029.051h.007a5.333,5.333,0,0,1,3.031,1.806,2.06,2.06,0,0,1,.506,1.461,1.054,1.054,0,0,1-1.072.954,3.169,3.169,0,0,1,1.71,2.694,24.285,24.285,0,0,1-.161,3.339c-.051,1.468,6.488,11.251,8.55,11.8a1.9,1.9,0,0,0,1.167-.323c1.857-.947,4.917-3.633,5.776-4.169,1.094-.668-1.24,2.121-.081,1.563A58.2,58.2,0,0,0,288.458,457.265Z" transform="translate(-237.996 -411.407)" fill="#fdae86"/>
              <g id="Grupo_1206382" data-name="Grupo 1206382" transform="translate(4.042 7.524)">
                <path id="Trazado_1053183" data-name="Trazado 1053183" d="M243.53,428.8a5.925,5.925,0,0,0-.022.7c.088-.294.286-.851.352-1.013.3-.69.6-1.372.9-2.062-.007.015-.015.037-.029.073.36-.851,1.013-2.319,1.483-3.391a6.947,6.947,0,0,1,1.828-2.635,3.047,3.047,0,0,1,1.475-.822C245.483,419.988,244,425.433,243.53,428.8Z" transform="translate(-243.503 -419.65)" fill="#e0564f"/>
                <path id="Trazado_1053184" data-name="Trazado 1053184" d="M253.14,425.824a7.792,7.792,0,0,0-2.7,5.659c-.007.139-.051.69-.015.587.25-.734.543-1.519.785-2.077a13.836,13.836,0,0,1,2.481-3.75,7.109,7.109,0,0,1,2.686-2.062A6.14,6.14,0,0,0,253.14,425.824Z" transform="translate(-245.341 -420.855)" fill="#e0564f"/>
                <path id="Trazado_1053185" data-name="Trazado 1053185" d="M257.271,433.757c-.051.286-.367,1.49-.132.969a25.636,25.636,0,0,1,2.429-4.117,4.4,4.4,0,0,1,3.376-2.048C259.84,427.82,257.675,431.049,257.271,433.757Z" transform="translate(-247.108 -421.992)" fill="#e0564f"/>
              </g>
              <path id="Trazado_1053186" data-name="Trazado 1053186" d="M300.559,466.7c-1.916,1.13-3.8,2.327-5.681,3.494a27.7,27.7,0,0,1-11.4-13.519c1.857-.947,4.917-3.633,5.776-4.169,1.094-.668-1.24,2.121-.081,1.563A58.2,58.2,0,0,0,300.559,466.7Z" transform="translate(-250.098 -420.839)" fill="#f28361"/>
            </g>
            <path id="Trazado_1053187" data-name="Trazado 1053187" d="M303.05,463.6c4.771-15.1,7.45-31.875-.778-34.95-2.539-.947-4.829.829-7.251,3.251a191.969,191.969,0,0,0-13.211,15.376C285.384,454.606,294.434,460.94,303.05,463.6Z" transform="translate(-249.653 -414.45)" fill="#ff7e33"/>
          </g>
          <g id="Grupo_1206397" data-name="Grupo 1206397" transform="translate(28.901 2.128)">
            <g id="Grupo_1206388" data-name="Grupo 1206388" transform="translate(0 36.172)">
              <path id="Trazado_1053188" data-name="Trazado 1053188" d="M288.843,376.317c-.272.264-2.385-1.857-2.657-1.585.418,5,3.244,12.33,4.785,17.1.58,1.8,1.218,3.861.242,5.49-1.094,1.828-3.574,2.077-5.615,2.7a11.871,11.871,0,0,0-7.7,7.611,10.777,10.777,0,0,0,2.07,10.407,17.186,17.186,0,0,1,0-2.613,10.631,10.631,0,0,0,3.64,7.464c-.521-2.84,1.607-5.549,4.081-7.039s5.35-2.209,7.839-3.67a12.765,12.765,0,0,0,6.349-9.365,21.98,21.98,0,0,0-.939-7.413q-1.09-4.448-2.187-8.9c-.668-2.723-1.439-5.622-3.516-7.508C293.9,377.777,292.175,377.117,288.843,376.317Z" transform="translate(-277.374 -374.707)" fill="#401916"/>
              <g id="Grupo_1206387" data-name="Grupo 1206387">
                <g id="Grupo_1206386" data-name="Grupo 1206386">
                  <g id="Grupo_1206385" data-name="Grupo 1206385" clip-path="url(#clip-path-7)">
                    <path id="Trazado_1053189" data-name="Trazado 1053189" d="M292.113,402.8a9.464,9.464,0,0,1-4.595,7.794c-1.879,1.094-4.11,1.512-5.908,2.738a7.914,7.914,0,0,0-2.921,8.844,3.893,3.893,0,0,1,1.769-2.76c.22,2.525,1.2,7.692,1.2,7.692s6-5.585,7.391-6.04,5.152-1.233,6.539-1.681c3.053-1,2.539-.22,4.33-2.884-2.943,5.079-9.446,5.791-12.55,10.774-.925,1.483-1.82,3.229-3.494,3.736a4.056,4.056,0,0,1-3.611-.881,9.826,9.826,0,0,1-2.319-3.061,22.283,22.283,0,0,1-2.686-7.706,12.955,12.955,0,0,1,1.35-7.956,14.325,14.325,0,0,1,5.747-5.35C284.686,404.789,287.225,403.967,292.113,402.8Z" transform="translate(-276.777 -382.181)" fill="#5c2118"/>
                  </g>
                </g>
              </g>
            </g>
            <g id="Grupo_1206396" data-name="Grupo 1206396" transform="translate(8.031)">
              <g id="Grupo_1206389" data-name="Grupo 1206389" transform="translate(3.011 41.96)">
                <path id="Trazado_1053191" data-name="Trazado 1053191" d="M367.72,389.343c.631-3.061-.6-7.949,4.279-6.481,12.506,3.758,5.138,16.25,1.9,16.991-1.945.448-4.25.866-5.85-.242a4.6,4.6,0,0,1-1.9-3.728C366.12,394.5,366.935,393.2,367.72,389.343Z" transform="translate(-312.035 -382.594)" fill="#f28361"/>
                <path id="Trazado_1053192" data-name="Trazado 1053192" d="M299.627,391.409a5.034,5.034,0,0,0-5.145.646,5.489,5.489,0,0,0-2.062,4.308,10.779,10.779,0,0,0,1.174,4.528,13.806,13.806,0,0,0,3.119,4.624,8.546,8.546,0,0,0,5.549,2.29,6.079,6.079,0,0,0,5.343-2.657,4.532,4.532,0,0,0-.022-4.066,14.5,14.5,0,0,0-2.532-3.472C303.238,395.555,302.225,392.8,299.627,391.409Z" transform="translate(-292.419 -384.821)" fill="#fdae86"/>
              </g>
              <path id="Trazado_1053193" data-name="Trazado 1053193" d="M354.91,369.066c.22,6.231,1.923,12.36,1.982,18.6s-2,13.072-7.332,16.308c-3.009,1.82-6.635,2.253-10.143,2.451-5.688.316-11.5.081-16.866-1.828-11.112-3.956-19.016-15.618-18.422-27.4s9.732-22.642,21.262-25.108S354.419,354.953,354.91,369.066Z" transform="translate(-292.516 -332.364)" fill="#fdae86"/>
              <path id="Trazado_1053194" data-name="Trazado 1053194" d="M355.354,369.315c-1.108-2.18-3.347-3.5-5.468-4.712-7.149-4.073-14.385-8.183-22.3-10.466-3.736-1.079-7.927-1.688-11.369.125-3.046,1.607-4.9,4.807-6.2,7.993a88.9,88.9,0,0,0-3.64,11.963c-.257,1.028-.521,2.055-.778,3.083a2.019,2.019,0,0,1,1.02,1.974c-.147,1.607-.286,3.244-.492,4.859a11.688,11.688,0,0,0,8.624-6.209,21.965,21.965,0,0,0,1.6-14.488c1.116,2.385,4.389,2.738,7.009,3.024s5.255-.2,7.89-.323,5.446.176,7.53,1.791c2.128,1.651,3.273,4.506,5.732,5.6,3.78,1.673,8.161.169,11.552,2.532C356.25,373.77,356.4,371.355,355.354,369.315Z" transform="translate(-292.915 -332.789)" fill="#f28361"/>
              <g id="Grupo_1206393" data-name="Grupo 1206393">
                <path id="Trazado_1053195" data-name="Trazado 1053195" d="M356.789,359.41a27.461,27.461,0,0,1-.807-5.094c.022-2.422,1.079-4.771,1-7.193-.117-3.574-2.686-6.642-5.644-8.661s-6.356-3.288-9.395-5.174c-2.591-1.615-4.9-3.67-7.567-5.16-6.664-3.728-15.193-3.472-22.018-.044a31.259,31.259,0,0,0-14.437,15.985c-3.714-.015-6.62,3.259-8.176,6.628-2.415,5.218-1.38,10.6.286,16.1s8.683,3.831,10.6,10.172c.169.565,4.719-1.967,5.9-3.831a19.884,19.884,0,0,0,2.29-6.165,120.369,120.369,0,0,0,2.253-14.877c2.789,4.316,6.18,6.231,11.266,5.512,3.941-.565,7.861-.763,11.244,1.336,1.967,1.218,4.066,3.428,7.721,4.9a4.867,4.867,0,0,0-2.657,2.3,4.9,4.9,0,0,1,2.774-1.571,8.664,8.664,0,0,1,1.284-.235,21.047,21.047,0,0,0,4.22.837,7.177,7.177,0,0,1,.727.11c.206.1.411.2.624.323-.073-.081-.147-.147-.22-.228a4.571,4.571,0,0,1,3.354,3.075c1.593.653,4.228-2.437,5.005-3.978A8.079,8.079,0,0,0,356.789,359.41Z" transform="translate(-288.317 -325.423)" fill="#401916"/>
                <g id="Grupo_1206392" data-name="Grupo 1206392">
                  <g id="Grupo_1206391" data-name="Grupo 1206391">
                    <g id="Grupo_1206390" data-name="Grupo 1206390" clip-path="url(#clip-path-8)">
                      <path id="Trazado_1053196" data-name="Trazado 1053196" d="M289.667,379.355c-1.85-4.822-.066-15.053-.462-20.2a11.609,11.609,0,0,1,3.7-9.431c2.1-2.062,5.16-1.666,7.794-4.308,4.521-4.521,6.356-11,11.846-14.283,12.961-7.758,18.818-2.466,27.42,3.949,3.185,2.378,12,5.262,13.849,8.778,1.556,2.936.418,7.567.558,9.556.154,2.136,1.255,2.327,1.5,4.455.455,4.029-1.255,9.585.69,7.391a16.842,16.842,0,0,0,3.64-7.9,26.206,26.206,0,0,0-7.846-24.059c-4.176-3.817-9.5-6.15-14.855-7.956s-11.039-3.156-16.639-2.407c-7.229.961-13.673,5.394-18.283,11.046-2.672,3.281-4.881,7.039-8.272,9.571-2.106,1.563-4.609,2.605-6.451,4.477-2.29,2.319-3.273,5.651-3.508,8.9C283.773,364.727,283.267,376.925,289.667,379.355Z" transform="translate(-287.177 -324.707)" fill="#5c2118"/>
                    </g>
                  </g>
                </g>
              </g>
              <g id="Grupo_1206395" data-name="Grupo 1206395" transform="translate(24.751 39.449)">
                <g id="Grupo_1206394" data-name="Grupo 1206394" transform="translate(13.952 21.202)">
                  <path id="Trazado_1053198" data-name="Trazado 1053198" d="M351.773,412.853a5.863,5.863,0,0,1-2.187,2.539,5.54,5.54,0,0,1-6.532-.558,6.134,6.134,0,0,1-1.879-3.42,6.588,6.588,0,0,1,.206-3.354.142.142,0,0,0,.073.022,21.022,21.022,0,0,0,10.884.91c.015.1.029.2.051.294A6.568,6.568,0,0,1,351.773,412.853Z" transform="translate(-341.049 -408.06)" fill="#571525"/>
                  <path id="Trazado_1053199" data-name="Trazado 1053199" d="M348.477,413.224a8.248,8.248,0,0,0-6.327,1.4,5.806,5.806,0,0,0,1.211,1.541,5.514,5.514,0,0,0,6.532.558,5.686,5.686,0,0,0,1.96-2.121A7.787,7.787,0,0,0,348.477,413.224Z" transform="translate(-341.342 -409.408)" fill="#de737c"/>
                  <path id="Trazado_1053200" data-name="Trazado 1053200" d="M352.521,409.294a4.891,4.891,0,0,1-1.732,1.02,9.76,9.76,0,0,1-3.684.338,8.869,8.869,0,0,1-3.721-.866,4.6,4.6,0,0,1-1.783-1.7,21.022,21.022,0,0,0,10.884.91C352.5,409.1,352.514,409.2,352.521,409.294Z" transform="translate(-341.196 -408.068)" fill="#fff"/>
                </g>
                <path id="Trazado_1053201" data-name="Trazado 1053201" d="M331.8,380.029c-3.824-1.864-8.117-.668-9.761,3.406a7.452,7.452,0,0,1,3.545-2.657,10.382,10.382,0,0,1,5.02-.639,17.281,17.281,0,0,1,1.938.257C332.293,380.272,332.051,380.147,331.8,380.029Z" transform="translate(-322.04 -379.172)" fill="#401916"/>
                <path id="Trazado_1053202" data-name="Trazado 1053202" d="M335.558,399.628c-2.466-4.206-9.761-3.281-10.928,1.483a5.05,5.05,0,0,1,2.224-1.563,12.568,12.568,0,0,1,5.974-.771,6.954,6.954,0,0,1,1.659.484C334.788,399.327,335.962,400.141,335.558,399.628Z" transform="translate(-322.729 -383.901)" fill="#2b344a"/>
                <path id="Trazado_1053203" data-name="Trazado 1053203" d="M366.822,394.862a4.381,4.381,0,0,0-4.639-1.328,6.077,6.077,0,0,0-2.664,2.18A2.457,2.457,0,0,0,358.91,397a7.911,7.911,0,0,1,2.635-1.688,5.206,5.206,0,0,1,3.853-.433,9.218,9.218,0,0,1,2.04.756A5.219,5.219,0,0,0,366.822,394.862Z" transform="translate(-331.849 -382.93)" fill="#2b344a"/>
                <path id="Trazado_1053204" data-name="Trazado 1053204" d="M354.39,398.58a9.259,9.259,0,0,1,.272,1.769c.1.793.147,1.057.257,2.026.073,1.13.389-.683.389-1.072A4.462,4.462,0,0,0,354.39,398.58Z" transform="translate(-330.647 -384.336)" fill="#de413c"/>
              </g>
            </g>
          </g>
        </g>
        <g id="Grupo_1206411" data-name="Grupo 1206411" transform="translate(55.874 269.514)">
          <g id="Grupo_1206399" data-name="Grupo 1206399" transform="translate(0 2.744)">
            <path id="Trazado_1053205" data-name="Trazado 1053205" d="M104.317,391.185c-6.583-8.609-9.71-19.288-12.7-29.7-1.218-4.242-2.444-8.771-1.145-12.991.932-3.031,3.09-5.578,3.949-8.631.382-1.35.426-2.98-.587-3.956-1.24-1.189-3.442-.646-4.55.668a8.021,8.021,0,0,0-1.541,4.734,26.14,26.14,0,0,0-4.939-7.861c-.9-.976-2.136-1.96-3.406-1.585a2.521,2.521,0,0,0-1.615,1.974,6.026,6.026,0,0,0,.213,2.65,14.047,14.047,0,0,0,2.62,5.578,21.393,21.393,0,0,1-2.738-3.017,7.037,7.037,0,0,0-3.244-2.385,3.1,3.1,0,0,0-3.567,1.248,3.208,3.208,0,0,0-.007,2.65,9.463,9.463,0,0,0,1.5,2.275,15.764,15.764,0,0,0,2.87,2.995A16.365,16.365,0,0,1,72.61,344.1a6.9,6.9,0,0,0-2.994-1.314,2.915,2.915,0,0,0-2.862,1.24,3.015,3.015,0,0,0,.4,3.2,8.966,8.966,0,0,0,2.65,2.114c.969.587,1.967,1.211,2.738,1.585-1.013-.316-1.952-.815-2.958-1.167a5.166,5.166,0,0,0-3.112-.264,2.581,2.581,0,0,0-1.945,2.239,2.67,2.67,0,0,0,1.035,2.033,7.289,7.289,0,0,0,2.07,1.1c3.119,1.226,6.349,2.2,9.24,2a115.517,115.517,0,0,0,15.222,41.7c.9,1.49-1.717,1.989-.132,2.7a5.787,5.787,0,0,0,4.448-.33C99.568,399.677,102.365,397.541,104.317,391.185Z" transform="translate(-64.529 -331.779)" fill="#fe9965"/>
            <path id="Trazado_1053206" data-name="Trazado 1053206" d="M96.7,411.684c7.494-.477,10.965-.426,15.3-2.994-2.092,4.69-6.943,17.886-9.828,13.637C100.942,420.529,96.7,411.684,96.7,411.684Z" transform="translate(-73.088 -352.242)" fill="#f77c57"/>
          </g>
          <g id="Grupo_1206401" data-name="Grupo 1206401" transform="translate(23.421 56.99)">
            <path id="Trazado_1053207" data-name="Trazado 1053207" d="M165.049,474.908h-47c-.154-1.71-.294-3.45-.367-4.279-.007-.1-.007-.169-.015-.235l-.022-.264s-.528-17.615.206-26.393A168.052,168.052,0,0,1,96.44,423.363q1.706-2.84,3.648-5.475c.051-.073.1-.147.161-.22a69.905,69.905,0,0,1,6.694-7.772c.073-.081.154-.169.242-.25.947-.947,1.923-1.857,2.921-2.745a.786.786,0,0,1,.117-.1c.418-.374.844-.749,1.277-1.108.514.36,1.028.719,1.549,1.064a94.173,94.173,0,0,0,8.91,5.35c.837.448,1.688.881,2.539,1.3q3.49,1.739,7.119,3.185c2.752,1.116,5.563,2.106,8.4,2.972q1.662.749,3.332,1.585c.484.235.969.484,1.453.734.147.073.294.147.433.228.492.257.983.514,1.468.785.661.352,1.314.719,1.967,1.094a99.314,99.314,0,0,1,10.8,7.171c.044.037.1.073.139.11q.418,7.85,1.24,15.677c.147,1.424.308,2.84.477,4.264.044.411.1.822.147,1.233.213,1.717.433,3.442.675,5.152q.363,2.62.771,5.233Q163.868,468.894,165.049,474.908Z" transform="translate(-96.44 -405.69)" fill="#0093e2"/>
            <g id="Grupo_1206400" data-name="Grupo 1206400" transform="translate(18.018 17.813)">
              <path id="Trazado_1053208" data-name="Trazado 1053208" d="M129.908,435.89a121.061,121.061,0,0,0-4.2,15.618A31.568,31.568,0,0,1,129.908,435.89Z" transform="translate(-122.246 -431.538)" fill="#0c6acf"/>
              <path id="Trazado_1053209" data-name="Trazado 1053209" d="M122,429.96a64.5,64.5,0,0,0,2.393,19.7A25.026,25.026,0,0,1,122,429.96Z" transform="translate(-120.99 -429.96)" fill="#0c6acf"/>
            </g>
            <path id="Trazado_1053210" data-name="Trazado 1053210" d="M125.734,489.315h47q-1.189-6.022-2.128-12.081-.407-2.609-.771-5.233c-.242-1.71-.462-3.435-.675-5.152-.051-.411-.1-.822-.147-1.233-.169-1.424-.33-2.84-.477-4.264a20.292,20.292,0,0,0-2.95-1.512,21.541,21.541,0,0,1-3.325,11.53,24.9,24.9,0,0,1-4.543,5.483,33.1,33.1,0,0,1-17.395,7.758,54.294,54.294,0,0,1-14.994-.073l.022.264c0,.081.007.154.015.235.015.184.022.374.044.558.081,1.24.191,2.481.308,3.721Z" transform="translate(-104.126 -420.097)" fill="#078adb"/>
            <path id="Trazado_1053211" data-name="Trazado 1053211" d="M163.257,468.439a48.016,48.016,0,0,1-12.851-1.189,2.521,2.521,0,0,0-.117,2.312,31.364,31.364,0,0,0,13.013,1.284A12.524,12.524,0,0,0,163.257,468.439Z" transform="translate(-110.707 -422.068)" fill="#1e58bd"/>
          </g>
          <g id="Grupo_1206402" data-name="Grupo 1206402" transform="translate(46.082 70.01)">
            <path id="Trazado_1053212" data-name="Trazado 1053212" d="M139.994,433.58a19.23,19.23,0,0,0,.044,5.541,15.3,15.3,0,0,0-12.6-1.585A14.923,14.923,0,0,1,133.7,423.43a7.787,7.787,0,0,1,5.226,2.488C140.266,427.379,140.6,429.287,139.994,433.58Z" transform="translate(-127.315 -423.43)" fill="#e3f9ff"/>
            <path id="Trazado_1053213" data-name="Trazado 1053213" d="M145.609,435.967a16.777,16.777,0,0,0-.969,3.714,11.551,11.551,0,0,1,12.066,3.325c2.892-1.314,4.646-4.44,5.064-7.582s-.308-6.334-.917-9.644C154.563,425.853,148.075,429.53,145.609,435.967Z" transform="translate(-131.925 -424.055)" fill="#e3f9ff"/>
            <path id="Trazado_1053214" data-name="Trazado 1053214" d="M156.949,427.6a24.137,24.137,0,0,1-13.585,12.675,10.286,10.286,0,0,1-2.561-11.89A57,57,0,0,0,156.949,427.6Z" transform="translate(-130.663 -424.539)" fill="#f77c57"/>
          </g>
          <g id="Grupo_1206408" data-name="Grupo 1206408" transform="translate(29.808)">
            <g id="Grupo_1206403" data-name="Grupo 1206403" transform="translate(0 44.89)">
              <path id="Trazado_1053215" data-name="Trazado 1053215" d="M114.99,392.122c-.3-1.857-2.481-3.119-4.47-2.892a5.96,5.96,0,0,0-4.5,3.354,10.722,10.722,0,0,0-.837,5.512,9.424,9.424,0,0,0,1.776,5.387,5.155,5.155,0,0,0,5.365,1.849,5.331,5.331,0,0,0,3-2.892C116.8,399.366,115.607,395.924,114.99,392.122Z" transform="translate(-105.143 -389.204)" fill="#f77c57"/>
              <path id="Trazado_1053216" data-name="Trazado 1053216" d="M175.953,406.642c.646-3.171,5.086-5.549,8.228-6.136s6.884.976,7.9,4.044c1.284,3.9-1.152,7.9-2.4,9.5-5.578,7.127-13.358,1.512-14.172.477C175.029,413.908,175.029,411.193,175.953,406.642Z" transform="translate(-123.779 -392.179)" fill="#fe9965"/>
            </g>
            <path id="Trazado_1053217" data-name="Trazado 1053217" d="M122.6,365.651c-3.772,8.2-5.372,14.327-6.914,23.222-5.916,34.239,41.028,25.688,44.947,17.894,5.174-10.29,3.141-27.508.088-32.837-3.963-6.914-13.629-6.15-21.372-8.073C134.274,364.6,128.689,363.391,122.6,365.651Z" transform="translate(-107.81 -337.71)" fill="#fe9965"/>
            <path id="Trazado_1053218" data-name="Trazado 1053218" d="M124.12,366.576a10.088,10.088,0,0,0,14.958,3.435,13.316,13.316,0,0,0,13.431,4.778,7.76,7.76,0,0,0,8.382,4.543c-1.079,3.3-1.967,6.994-.528,10.158.778,1.717,2.231,3.251,2.187,5.138a17.654,17.654,0,0,1-.719,3.031,2.477,2.477,0,0,0,.932,2.752,2.729,2.729,0,0,0,2.789-.69,12.912,12.912,0,0,0,4.323-7.809,18.326,18.326,0,0,0-3.068-13.828c-3.494-4.9-9.2-7.743-14.921-9.585a90.64,90.64,0,0,0-14.7-3.251,26.112,26.112,0,0,0-6.965-.33A34.426,34.426,0,0,0,124.12,366.576Z" transform="translate(-110.192 -337.82)" fill="#f77c57"/>
            <path id="Trazado_1053219" data-name="Trazado 1053219" d="M122.022,356.943c3.927,3.721,9.864,3.457,14.451.6a12.137,12.137,0,0,0,14.106,4.881,6.367,6.367,0,0,0,9.556,3.692,18.17,18.17,0,0,0,1.673,15.185,38.112,38.112,0,0,0-1.424,7.853c-.029.4.007.917.382,1.072.411.169,1.938.778,5.6-4.286,2.422-3.354,5.563-3.428,8.7-2.371a32.805,32.805,0,0,0,7.494-13.24,22.772,22.772,0,0,0-.9-15.031c-1.005-2.26-2.429-4.323-3.259-6.657-.719-2.018-.969-4.2-1.886-6.128a9.249,9.249,0,0,0-4.521-4.36,8.054,8.054,0,0,0-11.325-4.917,8.072,8.072,0,0,1-3.1,1.284c-2.128.081-3.435-2.172-4.91-3.706a9.177,9.177,0,0,0-7.853-2.679c-2.84.426-5.424,2.3-7.222,5.439a10.1,10.1,0,0,0-10.569-.477,9.567,9.567,0,0,0-4.8,9,7.817,7.817,0,0,0-7.655,5.189c-1.108,3.127-.191,6.789,2.73,8.382a12.307,12.307,0,0,0-2.972,7.721c-.059,2.811.888,5.637,2.914,7.237C118.616,365.956,120.576,362.176,122.022,356.943Z" transform="translate(-107.528 -328.041)" fill="#411714"/>
            <g id="Grupo_1206406" data-name="Grupo 1206406" transform="translate(6.581)">
              <g id="Grupo_1206405" data-name="Grupo 1206405">
                <g id="Grupo_1206404" data-name="Grupo 1206404" clip-path="url(#clip-path-9)">
                  <path id="Trazado_1053220" data-name="Trazado 1053220" d="M125.107,341.918c.242-3.178,3.163-5.673,6.29-6.3s6.356.264,9.292,1.519a8.688,8.688,0,0,1,8.242-5.5c3.523.132,6.833,1.8,7.809,5.189,2.165-1.417,7.068-1.585,9.651-1.468,4.183.184,5.417,5.02,5.417,9.651,2.752-1.284,13.637,2.73,10.415,27.677-.565,4.389-3.09,8.294-5.769,11.816,7.068-1.226,12.029-9.211,13.116-16.3s-1.182-14.3-4.389-20.712c-2.664-5.336-6.092-10.444-10.9-13.982-8.242-6.055-19.215-6.628-29.439-6.312-4.712.147-9.615.484-13.725,2.789S123.926,337.133,125.107,341.918Z" transform="translate(-116.968 -327.798)" fill="#5c2118"/>
                </g>
              </g>
            </g>
            <path id="Trazado_1053222" data-name="Trazado 1053222" d="M127.136,398.546c.22-1.146.964-1.967,1.66-1.833s1.083,1.171.862,2.318-.964,1.967-1.66,1.833S126.915,399.693,127.136,398.546Z" transform="translate(-110.978 -346.308)" fill="#2a344a"/>
            <path id="Trazado_1053223" data-name="Trazado 1053223" d="M151.722,404.113c.428-1.086,1.31-1.756,1.97-1.5s.848,1.351.421,2.437-1.31,1.756-1.97,1.5S151.294,405.2,151.722,404.113Z" transform="translate(-117.474 -347.867)" fill="#2a344a"/>
            <path id="Trazado_1053224" data-name="Trazado 1053224" d="M162.372,391.161a3.278,3.278,0,0,0-1.974-2.708,2.546,2.546,0,0,0-2.738.154c1.277-.36,2.672.815,3.229,1.218a4.315,4.315,0,0,1,1.13,1.4c.132.228.264.565.374.741A7.465,7.465,0,0,0,162.372,391.161Z" transform="translate(-119.115 -344.028)" fill="#611011"/>
            <path id="Trazado_1053225" data-name="Trazado 1053225" d="M131.789,381.608a3.1,3.1,0,0,0-1.49-.984,4.44,4.44,0,0,0-3.949,1.211,14.847,14.847,0,0,1,2.532-.484,5.012,5.012,0,0,1,2.356.1C131.378,381.468,131.855,381.71,131.789,381.608Z" transform="translate(-110.785 -342.005)" fill="#611011"/>
            <path id="Trazado_1053226" data-name="Trazado 1053226" d="M135.529,402.28a2.468,2.468,0,0,0,.176,3.127,3.388,3.388,0,0,1-.147-1.226,6.179,6.179,0,0,1,.661-2.07,1.075,1.075,0,0,1,.69-.543C136.358,401.407,135.837,401.869,135.529,402.28Z" transform="translate(-113.101 -347.594)" fill="#de413c"/>
            <g id="Grupo_1206407" data-name="Grupo 1206407" transform="translate(19.034 59.831)">
              <path id="Trazado_1053227" data-name="Trazado 1053227" d="M142.837,415.006a6.636,6.636,0,0,1-2.407,2.9,5.9,5.9,0,0,1-7.163-.624,7,7,0,0,1-2.055-3.9,7.855,7.855,0,0,1,.228-3.824.181.181,0,0,0,.081.029,22.215,22.215,0,0,0,11.941,1.013c.015.11.037.22.051.33A7.749,7.749,0,0,1,142.837,415.006Z" transform="translate(-131.077 -409.56)" fill="#571525"/>
              <path id="Trazado_1053228" data-name="Trazado 1053228" d="M139.223,415.431c-2.341-.294-5.028-.059-6.943,1.615a6.436,6.436,0,0,0,1.328,1.754,5.862,5.862,0,0,0,7.163.624,6.429,6.429,0,0,0,2.15-2.422A8.4,8.4,0,0,0,139.223,415.431Z" transform="translate(-131.397 -411.093)" fill="#de737c"/>
              <path id="Trazado_1053229" data-name="Trazado 1053229" d="M143.665,410.943a5.425,5.425,0,0,1-1.908,1.167,10.48,10.48,0,0,1-4.044.4,9.646,9.646,0,0,1-4.081-.976,5.134,5.134,0,0,1-1.952-1.93,22.216,22.216,0,0,0,11.941,1.013A2.543,2.543,0,0,1,143.665,410.943Z" transform="translate(-131.237 -409.571)" fill="#fff"/>
            </g>
          </g>
          <g id="Grupo_1206410" data-name="Grupo 1206410" transform="translate(75.747 81.988)">
            <g id="Grupo_1206409" data-name="Grupo 1206409" transform="translate(9.707 15.009)">
              <path id="Trazado_1053230" data-name="Trazado 1053230" d="M210.589,489.411H196.226a117.213,117.213,0,0,0-6.972-11.317c-.506-.727-1.028-1.446-1.563-2.15q-1.464-1.982-3.053-3.846c-.939-1.116-1.916-2.194-2.914-3.229-.257-.257-.506-.514-.763-.771a18.925,18.925,0,0,1,2.855-2.385c1.167-.844,2.5-1.732,3.772-2.539,2.569-1.637,4.859-2.972,4.859-2.972a49.383,49.383,0,0,1,5.277,5.541c1.2,1.446,2.3,2.936,3.325,4.44A83.855,83.855,0,0,1,210.589,489.411Z" transform="translate(-180.96 -460.2)" fill="#fe9965"/>
              <path id="Trazado_1053231" data-name="Trazado 1053231" d="M201.325,470.182a24.293,24.293,0,0,1-11.794,7.912,76.794,76.794,0,0,0-7.53-9.226,41.771,41.771,0,0,0,5.864-5.7c2.569-1.637,4.859-2.972,4.859-2.972A54.64,54.64,0,0,1,201.325,470.182Z" transform="translate(-181.237 -460.2)" fill="#f77c57"/>
            </g>
            <path id="Trazado_1053232" data-name="Trazado 1053232" d="M177.742,439.75A110.913,110.913,0,0,1,196.7,455.728,35.058,35.058,0,0,1,180.3,472.7a41.81,41.81,0,0,1-9.365-10.319c-2.451-3.912-3.817-8.675-2.936-13.211A11.462,11.462,0,0,1,177.742,439.75Z" transform="translate(-167.734 -439.75)" fill="#0ba4e6"/>
          </g>
        </g>
      </g>
    </g>
  </g>
</svg>
