<svg xmlns="http://www.w3.org/2000/svg" xmlns:xlink="http://www.w3.org/1999/xlink" width="113" height="113" viewBox="0 0 113 113">
  <defs>
    <filter id="Trazado_982547" x="0" y="0" width="113" height="113" filterUnits="userSpaceOnUse">
      <feOffset dy="3" input="SourceAlpha"/>
      <feGaussianBlur stdDeviation="3" result="blur"/>
      <feFlood flood-opacity="0.161"/>
      <feComposite operator="in" in2="blur"/>
      <feComposite in="SourceGraphic"/>
    </filter>
  </defs>
  <g id="Grupo_1206426" data-name="Grupo 1206426" transform="translate(-272 -7244.852)">
    <g id="Grupo_1185083" data-name="Grupo 1185083" transform="translate(0 1906.237)">
      <g id="Grupo_1181935" data-name="Grupo 1181935" transform="translate(0 2335.614)">
        <g id="Grupo_1175141" data-name="Grupo 1175141" transform="translate(0.5 395.985)">
          <g id="Grupo_1173988" data-name="Grupo 1173988" transform="translate(280.5 2613.015)">
            <g id="Grupo_1172010" data-name="Grupo 1172010">
              <g id="Grupo_1171046" data-name="Grupo 1171046">
                <g id="Grupo_1148525" data-name="Grupo 1148525">
                  <g transform="matrix(1, 0, 0, 1, -9, -6)" filter="url(#Trazado_982547)">
                    <g id="Trazado_982547-2" data-name="Trazado 982547" transform="translate(9 6)" fill="#eaf9f8">
                      <path d="M 47.5 93.5 C 41.28937149047852 93.5 35.26533508300781 92.28397369384766 29.59518623352051 89.88570404052734 C 24.11771965026855 87.56893157958984 19.19813346862793 84.25196075439453 14.97309303283691 80.02691650390625 C 10.74804019927979 75.80186462402344 7.431066513061523 70.88229370117188 5.114293098449707 65.40481567382812 C 2.716026782989502 59.73468017578125 1.5 53.71062850952148 1.5 47.5 C 1.5 41.28937149047852 2.716026782989502 35.26533508300781 5.114293098449707 29.59518623352051 C 7.431066513061523 24.11771965026855 10.74804019927979 19.19813346862793 14.97309303283691 14.97309303283691 C 19.19813346862793 10.74804019927979 24.11771965026855 7.431066513061523 29.59518623352051 5.114293098449707 C 35.26533508300781 2.716026782989502 41.28937149047852 1.5 47.5 1.5 C 53.71062850952148 1.5 59.73468017578125 2.716026782989502 65.40481567382812 5.114293098449707 C 70.88229370117188 7.431066513061523 75.80186462402344 10.74804019927979 80.02691650390625 14.97309303283691 C 84.25196075439453 19.19813346862793 87.56893157958984 24.11771965026855 89.88570404052734 29.59518623352051 C 92.28397369384766 35.26533508300781 93.5 41.28937149047852 93.5 47.5 C 93.5 53.71062850952148 92.28397369384766 59.73468017578125 89.88570404052734 65.40481567382812 C 87.56893157958984 70.88229370117188 84.25196075439453 75.80186462402344 80.02691650390625 80.02691650390625 C 75.80186462402344 84.25196075439453 70.88229370117188 87.56893157958984 65.40481567382812 89.88570404052734 C 59.73468017578125 92.28397369384766 53.71062850952148 93.5 47.5 93.5 Z" stroke="none"/>
                      <path d="M 47.5 3 C 41.49121475219727 3 35.66376876831055 4.176155090332031 30.17950439453125 6.495796203613281 C 24.88084411621094 8.736953735351562 20.12152099609375 11.94598388671875 16.03375244140625 16.03375244140625 C 11.94598388671875 20.12152099609375 8.736953735351562 24.88084411621094 6.495796203613281 30.17950439453125 C 4.176155090332031 35.66376876831055 3 41.49121475219727 3 47.5 C 3 53.50878524780273 4.176155090332031 59.33623123168945 6.495796203613281 64.82049560546875 C 8.736953735351562 70.11915588378906 11.94598388671875 74.87847900390625 16.03375244140625 78.96624755859375 C 20.12152099609375 83.05401611328125 24.88084411621094 86.26304626464844 30.17950439453125 88.50419616699219 C 35.66376876831055 90.82384490966797 41.49121475219727 92 47.5 92 C 53.50878524780273 92 59.33623123168945 90.82384490966797 64.82049560546875 88.50419616699219 C 70.11915588378906 86.26304626464844 74.87847900390625 83.05401611328125 78.96624755859375 78.96624755859375 C 83.05401611328125 74.87847900390625 86.26304626464844 70.11915588378906 88.50419616699219 64.82049560546875 C 90.82384490966797 59.33623123168945 92 53.50878524780273 92 47.5 C 92 41.49121475219727 90.82384490966797 35.66376876831055 88.50419616699219 30.17950439453125 C 86.26304626464844 24.88084411621094 83.05401611328125 20.12152099609375 78.96624755859375 16.03375244140625 C 74.87847900390625 11.94598388671875 70.11915588378906 8.736953735351562 64.82049560546875 6.495796203613281 C 59.33623123168945 4.176155090332031 53.50878524780273 3 47.5 3 M 47.5 0 C 73.7335205078125 0 95 21.2664794921875 95 47.5 C 95 73.7335205078125 73.7335205078125 95 47.5 95 C 21.2664794921875 95 0 73.7335205078125 0 47.5 C 0 21.2664794921875 21.2664794921875 0 47.5 0 Z" stroke="none" fill="#1f7069"/>
                    </g>
                  </g>
                </g>
              </g>
            </g>
          </g>
        </g>
      </g>
    </g>
    <g id="reaccion" transform="translate(290.363 7265.729)">
      <g id="Grupo_1206424" data-name="Grupo 1206424" transform="translate(7.276 0.956)">
        <circle id="Elipse_14282" data-name="Elipse 14282" cx="14.607" cy="14.607" r="14.607" transform="translate(0)" fill="#f8ea69"/>
        <circle id="Elipse_14283" data-name="Elipse 14283" cx="14.607" cy="14.607" r="14.607" transform="translate(32.509 34.12)" fill="#ff89ca"/>
        <path id="Trazado_1075166" data-name="Trazado 1075166" d="M286.087,323.025a14.607,14.607,0,0,1-11.524-23.582,14.607,14.607,0,1,0,20.5,20.5A14.544,14.544,0,0,1,286.087,323.025Z" transform="translate(-236.423 -262.241)" fill="#fa4aad"/>
        <circle id="Elipse_14284" data-name="Elipse 14284" cx="14.607" cy="14.607" r="14.607" transform="translate(0 34.12)" fill="#bd9cde"/>
        <path id="Trazado_1075167" data-name="Trazado 1075167" d="M30.975,323.025a14.607,14.607,0,0,1-11.524-23.582,14.607,14.607,0,1,0,20.5,20.5A14.543,14.543,0,0,1,30.975,323.025Z" transform="translate(-13.82 -262.241)" fill="#996acc"/>
        <g id="Grupo_1206423" data-name="Grupo 1206423" transform="translate(10.049 46.527)">
          <path id="Trazado_1075168" data-name="Trazado 1075168" d="M97.237,378.6c1.761,0,3.33,1.2,4.316-.844,1-2.069-1.241-5.138-4.316-5.138s-5.317,3.07-4.316,5.138C93.908,379.795,95.476,378.6,97.237,378.6Z" transform="translate(-92.68 -372.617)" fill="#423e4f"/>
        </g>
        <circle id="Elipse_14285" data-name="Elipse 14285" cx="14.607" cy="14.607" r="14.607" transform="translate(32.509)" fill="#83deff"/>
        <path id="Trazado_1075169" data-name="Trazado 1075169" d="M30.975,55.274A14.607,14.607,0,0,1,19.451,31.692a14.607,14.607,0,1,0,20.5,20.5,14.542,14.542,0,0,1-8.975,3.083Z" transform="translate(-13.82 -28.609)" fill="#f8ad3e"/>
        <path id="Trazado_1075170" data-name="Trazado 1075170" d="M286.087,55.274a14.607,14.607,0,0,1-11.524-23.582,14.607,14.607,0,1,0,20.5,20.5,14.544,14.544,0,0,1-8.975,3.083Z" transform="translate(-236.423 -28.609)" fill="#00b4fd"/>
      </g>
      <g id="Grupo_1206425" data-name="Grupo 1206425" transform="translate(6.32 0)">
        <path id="Trazado_1075171" data-name="Trazado 1075171" d="M21.882,0a15.533,15.533,0,0,0-8.115,2.281.956.956,0,0,0,1,1.63,13.666,13.666,0,1,1-2.792,2.262.956.956,0,1,0-1.387-1.315A15.562,15.562,0,1,0,21.882,0Z" transform="translate(-6.32 0)"/>
        <path id="Trazado_1075172" data-name="Trazado 1075172" d="M58.937,100.388V99.062a.956.956,0,1,0-1.911,0v1.326a.956.956,0,1,0,1.911,0Z" transform="translate(-50.565 -85.604)"/>
        <path id="Trazado_1075173" data-name="Trazado 1075173" d="M101.779,111.231a3.49,3.49,0,0,0,2.632-1.2.956.956,0,1,0-1.441-1.256,1.577,1.577,0,0,1-2.381,0,.956.956,0,1,0-1.441,1.256A3.49,3.49,0,0,0,101.779,111.231Z" transform="translate(-87.113 -94.63)"/>
        <path id="Trazado_1075174" data-name="Trazado 1075174" d="M162.655,98.656a.581.581,0,0,1,1.162,0,.956.956,0,1,0,1.911,0,2.493,2.493,0,0,0-4.985,0,.956.956,0,0,0,1.911,0Z" transform="translate(-141.066 -83.909)"/>
        <path id="Trazado_1075175" data-name="Trazado 1075175" d="M288.657,292.157a.956.956,0,0,0,1.324-.27,15.575,15.575,0,1,0-2.677,3.081.956.956,0,0,0-1.267-1.431,13.636,13.636,0,1,1,2.35-2.7A.956.956,0,0,0,288.657,292.157Z" transform="translate(-228.922 -233.631)"/>
        <path id="Trazado_1075176" data-name="Trazado 1075176" d="M305.02,359.109a.956.956,0,0,0,1.911,0v-1.058l.26.07a.956.956,0,0,0,.495-1.846l-2.979-.8a.956.956,0,0,0-.495,1.846l.848.227a.953.953,0,0,0-.041.276v1.283Z" transform="translate(-265.634 -310.149)"/>
        <path id="Trazado_1075177" data-name="Trazado 1075177" d="M363.057,377.158a3.658,3.658,0,0,0-2.758,1.256.956.956,0,1,0,1.441,1.256,1.745,1.745,0,0,1,2.635,0,.956.956,0,1,0,1.441-1.256A3.657,3.657,0,0,0,363.057,377.158Z" transform="translate(-314.986 -329.097)"/>
        <path id="Trazado_1075178" data-name="Trazado 1075178" d="M430.085,356.152a.956.956,0,0,0-1.171-.676l-2.979.8a.956.956,0,1,0,.495,1.846l.26-.07v1.058a.956.956,0,0,0,1.911,0v-1.283a.953.953,0,0,0-.041-.276l.848-.227A.956.956,0,0,0,430.085,356.152Z" transform="translate(-371.845 -310.149)"/>
        <path id="Trazado_1075179" data-name="Trazado 1075179" d="M21.882,298.876A15.562,15.562,0,1,0,6.32,283.313,15.58,15.58,0,0,0,21.882,298.876Zm0-29.213A13.651,13.651,0,1,1,8.231,283.313,13.666,13.666,0,0,1,21.882,269.662Z" transform="translate(-6.32 -233.631)"/>
        <path id="Trazado_1075180" data-name="Trazado 1075180" d="M47.614,366.515a1.347,1.347,0,0,1,2.034,0,.956.956,0,1,0,1.441-1.256,3.258,3.258,0,0,0-4.916,0,.956.956,0,1,0,1.441,1.256Z" transform="translate(-40.889 -317.737)"/>
        <path id="Trazado_1075181" data-name="Trazado 1075181" d="M169.011,366.606a.956.956,0,0,0,1.348-.093,1.347,1.347,0,0,1,2.034,0,.956.956,0,1,0,1.441-1.256,3.258,3.258,0,0,0-4.916,0A.956.956,0,0,0,169.011,366.606Z" transform="translate(-147.993 -317.736)"/>
        <path id="Trazado_1075182" data-name="Trazado 1075182" d="M85.494,371.628c1.029,2.127,2.769,1.781,3.92,1.552a4.754,4.754,0,0,1,2.512,0,6.928,6.928,0,0,0,1.352.172,2.674,2.674,0,0,0,2.569-1.725,3.947,3.947,0,0,0-.384-3.852,5.649,5.649,0,0,0-9.585,0A3.947,3.947,0,0,0,85.494,371.628Zm2-2.837a3.738,3.738,0,0,1,6.346,0,2.122,2.122,0,0,1,.283,2c-.359.742-.585.757-1.827.51a6.554,6.554,0,0,0-3.257,0c-1.243.247-1.469.232-1.827-.51A2.122,2.122,0,0,1,87.5,368.792Z" transform="translate(-75.109 -318.591)"/>
        <path id="Trazado_1075183" data-name="Trazado 1075183" d="M276.993,0a15.562,15.562,0,1,0,15.562,15.562A15.58,15.58,0,0,0,276.993,0Zm0,29.213a13.651,13.651,0,1,1,13.651-13.651A13.666,13.666,0,0,1,276.993,29.213Z" transform="translate(-228.922 0)"/>
        <path id="Trazado_1075184" data-name="Trazado 1075184" d="M443.094,105.819a.956.956,0,0,0-.956.956v1.485a.956.956,0,0,0,1.911,0v-1.485A.956.956,0,0,0,443.094,105.819Z" transform="translate(-386.602 -92.334)"/>
        <path id="Trazado_1075185" data-name="Trazado 1075185" d="M313.212,93.33a1.774,1.774,0,0,1-1.792,0,.956.956,0,1,0-.985,1.638,3.641,3.641,0,0,0,1,.412.952.952,0,0,0-.078.378v1.485a.956.956,0,1,0,1.911,0V95.758a.951.951,0,0,0-.078-.378,3.638,3.638,0,0,0,1-.411.956.956,0,1,0-.984-1.638Z" transform="translate(-271.277 -81.318)"/>
        <path id="Trazado_1075186" data-name="Trazado 1075186" d="M370.907,120.734a12.468,12.468,0,0,0-4.421-.618h-.015a.956.956,0,0,0,0,1.911h.015a11.036,11.036,0,0,1,3.7.476.956.956,0,1,0,.723-1.769Z" transform="translate(-319.743 -104.81)"/>
      </g>
    </g>
  </g>
</svg>
