<svg xmlns="http://www.w3.org/2000/svg" xmlns:xlink="http://www.w3.org/1999/xlink" width="93.934" height="93.934" viewBox="0 0 93.934 93.934">
  <defs>
    <filter id="Trazado_982547" x="0" y="0" width="93.934" height="93.934" filterUnits="userSpaceOnUse">
      <feOffset dy="3" input="SourceAlpha"/>
      <feGaussianBlur stdDeviation="3" result="blur"/>
      <feFlood flood-opacity="0.161"/>
      <feComposite operator="in" in2="blur"/>
      <feComposite in="SourceGraphic"/>
    </filter>
  </defs>
  <g id="Grupo_1206462" data-name="Grupo 1206462" transform="translate(-819 -8543.033)">
    <g id="Grupo_1185088" data-name="Grupo 1185088" transform="translate(828 8549.033)">
      <g id="Grupo_1181939" data-name="Grupo 1181939">
        <g id="Grupo_1175133" data-name="Grupo 1175133">
          <g id="Grupo_1167337" data-name="Grupo 1167337">
            <g id="Grupo_1166720" data-name="Grupo 1166720">
              <g id="Grupo_1164305" data-name="Grupo 1164305">
                <g id="Grupo_1163948" data-name="Grupo 1163948">
                  <g id="Grupo_1158168" data-name="Grupo 1158168">
                    <g id="Grupo_1152576" data-name="Grupo 1152576">
                      <g id="Grupo_1148633" data-name="Grupo 1148633">
                        <g id="Grupo_1148525" data-name="Grupo 1148525">
                          <g transform="matrix(1, 0, 0, 1, -9, -6)" filter="url(#Trazado_982547)">
                            <g id="Trazado_982547-2" data-name="Trazado 982547" transform="translate(9 6)" fill="#eaf9f8">
                              <path d="M 37.966796875 74.43359375 C 33.04315185546875 74.43359375 28.26757431030273 73.46962738037109 23.77274131774902 71.56847381591797 C 19.43047523498535 69.73184967041016 15.53040790557861 67.10224914550781 12.18087482452393 63.75271987915039 C 8.831341743469238 60.4031867980957 6.201741218566895 56.50312042236328 4.365118980407715 52.16086196899414 C 2.463963508605957 47.66601943969727 1.499996900558472 42.89044189453125 1.499996900558472 37.966796875 C 1.499996900558472 33.04315185546875 2.463963508605957 28.26757431030273 4.365118980407715 23.77274131774902 C 6.201741218566895 19.43047523498535 8.831341743469238 15.53040790557861 12.18087482452393 12.18087482452393 C 15.53040790557861 8.831341743469238 19.43047523498535 6.201741218566895 23.77274131774902 4.365118980407715 C 28.26757431030273 2.463963508605957 33.04315185546875 1.499996900558472 37.966796875 1.499996900558472 C 42.89044189453125 1.499996900558472 47.66601943969727 2.463963508605957 52.16086196899414 4.365118980407715 C 56.50312042236328 6.201741218566895 60.4031867980957 8.831341743469238 63.75271987915039 12.18087482452393 C 67.10224914550781 15.53040790557861 69.73184967041016 19.43047523498535 71.56847381591797 23.77274131774902 C 73.46962738037109 28.26757431030273 74.43359375 33.04315185546875 74.43359375 37.966796875 C 74.43359375 42.89044189453125 73.46962738037109 47.66601943969727 71.56847381591797 52.16086196899414 C 69.73184967041016 56.50313186645508 67.10224914550781 60.4031867980957 63.75271987915039 63.75271987915039 C 60.4031867980957 67.10224914550781 56.50313186645508 69.73184967041016 52.16086196899414 71.56847381591797 C 47.66601943969727 73.46962738037109 42.89044189453125 74.43359375 37.966796875 74.43359375 Z" stroke="none"/>
                              <path d="M 37.966796875 3 C 33.2449836730957 3 28.66600799560547 3.924095153808594 24.35705947875977 5.746635437011719 C 20.19359588623047 7.507637023925781 16.45379638671875 10.02928161621094 13.24153518676758 13.24153518676758 C 10.02927398681641 16.45379638671875 7.507621765136719 20.19359588623047 5.746635437011719 24.35705947875977 C 3.924095153808594 28.66600799560547 3 33.2449836730957 3 37.966796875 C 3 42.6886100769043 3.924095153808594 47.26758575439453 5.746635437011719 51.57653427124023 C 7.507621765136719 55.73999786376953 10.02927398681641 59.47979736328125 13.24153518676758 62.69205856323242 C 16.45379638671875 65.90431976318359 20.19359588623047 68.42597198486328 24.35705947875977 70.18695831298828 C 28.66600799560547 72.00949859619141 33.2449836730957 72.93359375 37.966796875 72.93359375 C 42.6886100769043 72.93359375 47.26758575439453 72.00949859619141 51.57653427124023 70.18695831298828 C 55.73999786376953 68.42597198486328 59.47979736328125 65.90431976318359 62.69205856323242 62.69205856323242 C 65.90431976318359 59.47979736328125 68.42597198486328 55.73999786376953 70.18695831298828 51.57653427124023 C 72.00949859619141 47.26758575439453 72.93359375 42.6886100769043 72.93359375 37.966796875 C 72.93359375 33.2449836730957 72.00949859619141 28.66600799560547 70.18695831298828 24.35705947875977 C 68.42597198486328 20.19359588623047 65.90431976318359 16.45379638671875 62.69205856323242 13.24153518676758 C 59.47979736328125 10.02928161621094 55.73999786376953 7.507637023925781 51.57653427124023 5.746635437011719 C 47.26758575439453 3.924095153808594 42.6886100769043 3 37.966796875 3 M 37.966796875 0 C 58.93528366088867 0 75.93359375 16.99832153320312 75.93359375 37.966796875 C 75.93359375 58.93528366088867 58.93528366088867 75.93359375 37.966796875 75.93359375 C 16.99831008911133 75.93359375 0 58.93528366088867 0 37.966796875 C 0 16.99832153320312 16.99831008911133 0 37.966796875 0 Z" stroke="none" fill="#1f7069"/>
                            </g>
                          </g>
                        </g>
                      </g>
                    </g>
                  </g>
                </g>
              </g>
            </g>
          </g>
        </g>
      </g>
    </g>
    <g id="debate" transform="translate(839.202 8563.196)">
      <g id="Grupo_1206460" data-name="Grupo 1206460" transform="translate(3.963 0.697)">
        <g id="Grupo_1206456" data-name="Grupo 1206456">
          <g id="Grupo_1206455" data-name="Grupo 1206455" transform="translate(5.067)">
            <path id="Trazado_1076351" data-name="Trazado 1076351" d="M104.163,216.914a5.909,5.909,0,1,0-11.818-.074v.074h0l5.909,1.872Z" transform="translate(-89.826 -192.016)" fill="#75cef9"/>
            <path id="Trazado_1076352" data-name="Trazado 1076352" d="M100.015,211.2a5.844,5.844,0,0,0-1.716-.27,5.909,5.909,0,0,0-5.954,5.909v.074l2.143,1.594,1.389-1.594v-.074A5.911,5.911,0,0,1,100.015,211.2Z" transform="translate(-89.827 -192.01)" fill="#6bbef6"/>
            <path id="Trazado_1076353" data-name="Trazado 1076353" d="M78.543,7.5H75.934a6.759,6.759,0,0,0-6.759,6.759v5.859H85.3V14.26A6.759,6.759,0,0,0,78.543,7.5Z" transform="translate(-68.811 -7.501)" fill="#756e78"/>
            <path id="Trazado_1076354" data-name="Trazado 1076354" d="M80.079,7.676a6.763,6.763,0,0,0-5.222,6.584v6.17H69.175V14.26A6.759,6.759,0,0,1,75.934,7.5h2.608A6.788,6.788,0,0,1,80.079,7.676Z" transform="translate(-68.811 -7.501)" fill="#665e66"/>
            <path id="Trazado_1076355" data-name="Trazado 1076355" d="M80.215,126.587H67.158a1.9,1.9,0,1,1,0-3.8H80.215a1.9,1.9,0,1,1,0,3.8Z" transform="translate(-65.259 -112.07)" fill="#eaac9d"/>
            <path id="Trazado_1076356" data-name="Trazado 1076356" d="M104.164,67.265v5.924a5.909,5.909,0,1,1-11.818.074v-6c0-.016,0-2.97,0-2.987A11.364,11.364,0,0,0,104.164,67.265Z" transform="translate(-89.827 -58.999)" fill="#ffddce"/>
            <path id="Trazado_1076357" data-name="Trazado 1076357" d="M100.015,78.907a5.844,5.844,0,0,1-1.716.27,5.909,5.909,0,0,1-5.954-5.909V64.284a11.36,11.36,0,0,0,3.532,2.532v6.453A5.911,5.911,0,0,0,100.015,78.907Z" transform="translate(-89.827 -59.004)" fill="#ffcbbe"/>
          </g>
          <path id="Trazado_1076358" data-name="Trazado 1076358" d="M54.141,297.275l-.406,2.515-2.009,12.438H33.31L30.9,297.275,42.519,295.4Z" transform="translate(-29.024 -268.633)" fill="#f6e781"/>
          <path id="Trazado_1076359" data-name="Trazado 1076359" d="M53.736,299.79H35.45l.99,12.438H33.31L30.9,297.275,42.519,295.4l11.622,1.872Z" transform="translate(-29.024 -268.633)" fill="#ffd064"/>
          <path id="Trazado_1076360" data-name="Trazado 1076360" d="M35.884,279.018H12.639a1.872,1.872,0,1,1,0-3.743H35.884a1.872,1.872,0,1,1,0,3.743Z" transform="translate(-10.767 -250.377)" fill="#f6e781"/>
          <path id="Trazado_1076361" data-name="Trazado 1076361" d="M18.931,279.024H12.638a1.872,1.872,0,0,1,0-3.743h6.293a1.872,1.872,0,0,0,0,3.743Z" transform="translate(-10.767 -250.382)" fill="#ffd064"/>
        </g>
        <g id="Grupo_1206459" data-name="Grupo 1206459" transform="translate(18.616 1.735)">
          <g id="Grupo_1206458" data-name="Grupo 1206458" transform="translate(5.067)">
            <path id="Trazado_1076362" data-name="Trazado 1076362" d="M304.375,245.064a5.909,5.909,0,1,0-11.818-.074v.074h0l5.909,1.872Z" transform="translate(-290.038 -219.283)" fill="#756e78"/>
            <path id="Trazado_1076363" data-name="Trazado 1076363" d="M300.226,239.346a5.844,5.844,0,0,0-1.716-.27,5.909,5.909,0,0,0-5.953,5.909v.074l2.143,1.594,1.389-1.594v-.074A5.911,5.911,0,0,1,300.226,239.346Z" transform="translate(-290.038 -219.278)" fill="#665e66"/>
            <g id="Grupo_1206457" data-name="Grupo 1206457">
              <path id="Trazado_1076364" data-name="Trazado 1076364" d="M276.762,26.161h-4.429a6.145,6.145,0,0,0-6.082,7.024l.953,6.593H281.89l.953-6.593A6.145,6.145,0,0,0,276.762,26.161Z" transform="translate(-266.12 -26.161)" fill="#f6e781"/>
              <path id="Trazado_1076365" data-name="Trazado 1076365" d="M272.078,33.187l.954,6.593H267.2l-.953-6.593a6.144,6.144,0,0,1,6.081-7.024h4.429a6.264,6.264,0,0,1,.7.039A6.145,6.145,0,0,0,272.078,33.187Z" transform="translate(-266.12 -26.163)" fill="#ffd064"/>
              <path id="Trazado_1076366" data-name="Trazado 1076366" d="M280.427,155.118H267.37a1.9,1.9,0,0,1,0-3.8h13.058a1.9,1.9,0,1,1,0,3.8Z" transform="translate(-265.471 -139.683)" fill="#eaac9d"/>
              <path id="Trazado_1076367" data-name="Trazado 1076367" d="M304.409,93.608v6.734a5.988,5.988,0,0,1-4.144,5.708,5.8,5.8,0,0,1-1.715.271,5.905,5.905,0,0,1-5.95-5.9V93.608h.663a2.323,2.323,0,0,0,2.322-2.323,3.726,3.726,0,0,0,.543.569,3.684,3.684,0,0,0,5.29-.569,2.323,2.323,0,0,0,2.323,2.323h.667Z" transform="translate(-290.077 -85.23)" fill="#ffddce"/>
              <path id="Trazado_1076368" data-name="Trazado 1076368" d="M300.266,106.05a5.8,5.8,0,0,1-1.715.271,5.905,5.905,0,0,1-5.95-5.9V93.608h.663a2.323,2.323,0,0,0,2.322-2.323,3.726,3.726,0,0,0,.543.569v8.557A5.911,5.911,0,0,0,300.266,106.05Z" transform="translate(-290.078 -85.23)" fill="#ffcbbe"/>
            </g>
          </g>
          <path id="Trazado_1076369" data-name="Trazado 1076369" d="M254.352,325.425l-.406,2.515-2.009,12.438H233.521l-2.414-14.953,11.623-1.872Z" transform="translate(-229.235 -295.901)" fill="#c6865c"/>
          <path id="Trazado_1076370" data-name="Trazado 1076370" d="M253.947,327.94H235.661l.99,12.438h-3.129l-2.414-14.953,11.623-1.872,11.622,1.872Z" transform="translate(-229.235 -295.901)" fill="#be694f"/>
          <path id="Trazado_1076371" data-name="Trazado 1076371" d="M236.1,307.169H212.85a1.872,1.872,0,1,1,0-3.743H236.1a1.872,1.872,0,1,1,0,3.743Z" transform="translate(-210.978 -277.645)" fill="#c6865c"/>
          <path id="Trazado_1076372" data-name="Trazado 1076372" d="M219.142,307.174h-6.293a1.872,1.872,0,0,1,0-3.743h6.293a1.872,1.872,0,0,0,0,3.743Z" transform="translate(-210.978 -277.65)" fill="#be694f"/>
        </g>
      </g>
      <g id="Grupo_1206461" data-name="Grupo 1206461" transform="translate(3.265 0)">
        <path id="Trazado_1076373" data-name="Trazado 1076373" d="M130.509,112.782a.7.7,0,0,0-.7.7v1.338a.7.7,0,1,0,1.395,0v-1.338A.7.7,0,0,0,130.509,112.782Z" transform="translate(-118.045 -102.295)"/>
        <path id="Trazado_1076374" data-name="Trazado 1076374" d="M168.368,114.817v-1.338a.7.7,0,1,0-1.395,0v1.338a.7.7,0,1,0,1.395,0Z" transform="translate(-151.751 -102.295)"/>
        <path id="Trazado_1076375" data-name="Trazado 1076375" d="M138.753,163.857a.7.7,0,1,0,0,1.395h1.922a.7.7,0,1,0,0-1.395Z" transform="translate(-125.523 -148.621)"/>
        <path id="Trazado_1076376" data-name="Trazado 1076376" d="M330.721,144.045a.7.7,0,0,0,.7-.7V142.01a.7.7,0,1,0-1.395,0v1.338A.7.7,0,0,0,330.721,144.045Z" transform="translate(-299.641 -128.173)"/>
        <path id="Trazado_1076377" data-name="Trazado 1076377" d="M367.882,144.045a.7.7,0,0,0,.7-.7V142.01a.7.7,0,1,0-1.395,0v1.338A.7.7,0,0,0,367.882,144.045Z" transform="translate(-333.347 -128.173)"/>
        <path id="Trazado_1076378" data-name="Trazado 1076378" d="M332.106,192.545a3.181,3.181,0,0,0,2.256-.933.7.7,0,1,0-.986-.986,1.8,1.8,0,0,1-2.54,0,.7.7,0,1,0-.986.986A3.179,3.179,0,0,0,332.106,192.545Z" transform="translate(-299.298 -172.715)"/>
        <path id="Trazado_1076379" data-name="Trazado 1076379" d="M50.265,30.085A2.572,2.572,0,0,0,47.7,27.516H45.019V24.847a.7.7,0,0,0-.2-.493l-1.18-1.18a.7.7,0,1,0-.986.986l.975.975v2.38h-.981a6.663,6.663,0,0,0-2.6-4.643A6.708,6.708,0,0,0,42.6,18.565h0A2.594,2.594,0,0,0,44.4,14.1l.658-4.544a6.843,6.843,0,0,0-6.773-7.821H33.859a6.843,6.843,0,0,0-6.773,7.822l.658,4.542-.035.033a2.6,2.6,0,0,0,1.83,4.432,6.55,6.55,0,0,0,1.884,3.74,6.714,6.714,0,0,0,.657.57,6.576,6.576,0,0,0-1.9,2.273,2.569,2.569,0,0,0-1.1-.248H24.027A6.65,6.65,0,0,0,21.4,20.238a6.713,6.713,0,0,0,2.583-4.326h0a2.594,2.594,0,0,0,2.231-3.921V7.456A7.464,7.464,0,0,0,18.761,0H16.152A7.465,7.465,0,0,0,8.7,7.456v4.53a2.6,2.6,0,0,0,2.223,3.925,6.6,6.6,0,0,0,.2.9.7.7,0,0,0,1.339-.39,5.23,5.23,0,0,1-.208-1.464V7.567a12.832,12.832,0,0,0,2.179,1.4,11.765,11.765,0,0,0,8.243.921v5A5.264,5.264,0,0,1,17.5,20.173a5.163,5.163,0,0,1-3.817-1.621.7.7,0,0,0-1.011.961,6.549,6.549,0,0,0,.818.725,6.559,6.559,0,0,0-2.607,4.66H9.906V22.518l.975-.975a.7.7,0,0,0-.986-.986l-1.18,1.18a.7.7,0,0,0-.2.493V24.9H5.834a2.568,2.568,0,0,0-.606,5.065L7.56,44.4a.7.7,0,0,0,.688.586h17.6l.328,2.031a.7.7,0,0,0,.688.586H45.282a.7.7,0,0,0,.688-.586l.55-3.411a.7.7,0,0,0-1.377-.222l-.456,2.824H27.459L25.27,32.654H46.877l-1.288,7.98a.7.7,0,0,0,.577.8.706.706,0,0,0,.112.009.7.7,0,0,0,.688-.586L48.3,32.581a2.573,2.573,0,0,0,1.963-2.5ZM24.836,14.165a1.192,1.192,0,0,1-.773.348V12.119a1.2,1.2,0,0,1,.773,2.047ZM9.727,13.317a1.2,1.2,0,0,1,1.124-1.2v2.395A1.2,1.2,0,0,1,9.727,13.317ZM15.1,7.745a10.707,10.707,0,0,1-3.027-2.223.7.7,0,0,0-1.226.455v4.745a2.6,2.6,0,0,0-.76.136v-3.4a6.068,6.068,0,0,1,6.061-6.062h2.609a6.068,6.068,0,0,1,6.061,6.062v3.4a2.582,2.582,0,0,0-.759-.137V8.963a.7.7,0,0,0-.911-.664A10.348,10.348,0,0,1,15.1,7.745ZM14.831,21.02a6.621,6.621,0,0,0,2.631.548h.046a6.484,6.484,0,0,0,2.558-.546A5.351,5.351,0,0,1,22.621,24.9H12.282a5.179,5.179,0,0,1,2.548-3.879Zm28.621-4.2a1.192,1.192,0,0,1-.777.348V14.771a1.2,1.2,0,0,1,.777,2.047Zm-15.109-.849a1.2,1.2,0,0,1,1.128-1.2v2.395a1.2,1.2,0,0,1-1.128-1.2Zm1.826-5.856a.7.7,0,0,0-.7.7v2.564a2.623,2.623,0,0,0-.416.044l-.588-4.061A5.448,5.448,0,0,1,33.859,3.13h4.428a5.448,5.448,0,0,1,5.392,6.227l-.588,4.062a2.6,2.6,0,0,0-.416-.045V10.811a.7.7,0,0,0-.7-.7H41.31a1.627,1.627,0,0,1-1.625-1.625.7.7,0,0,0-1.25-.426,2.986,2.986,0,0,1-4.729,0,.7.7,0,0,0-1.25.426,1.627,1.627,0,0,1-1.625,1.625Zm.7,7.505V11.508a3.024,3.024,0,0,0,2.676-1.689,4.4,4.4,0,0,0,5.058,0,3.024,3.024,0,0,0,2.681,1.689v6.037a5.258,5.258,0,0,1-5.167,5.281h-.04a5.207,5.207,0,0,1-5.207-5.207Zm2.541,6.041a6.581,6.581,0,0,0,2.666.561h.051a6.48,6.48,0,0,0,2.592-.561,5.269,5.269,0,0,1,2.524,3.857H30.9a5.19,5.19,0,0,1,2.508-3.856ZM4.66,27.467a1.172,1.172,0,0,1,1.174-1.173H29.08a1.176,1.176,0,0,1,.6.167,6.626,6.626,0,0,0-.186,1.055H24.45a2.568,2.568,0,0,0-2.124,1.125H5.834A1.176,1.176,0,0,1,4.66,27.467ZM8.843,43.6,6.653,30.036H21.883c0,.016,0,.032,0,.049a2.573,2.573,0,0,0,1.964,2.5l1.779,11.014H8.843ZM47.7,31.259H24.45a1.174,1.174,0,1,1,0-2.348H47.7a1.174,1.174,0,0,1,0,2.348Z" transform="translate(-3.265 0)"/>
      </g>
    </g>
  </g>
</svg>
