<svg xmlns="http://www.w3.org/2000/svg" xmlns:xlink="http://www.w3.org/1999/xlink" width="295" height="243" viewBox="0 0 295 243">
  <defs>
    <clipPath id="clip-path">
      <rect id="Rectángulo_416199" data-name="Rectángulo 416199" width="295" height="243" transform="translate(1020.302 4052)" fill="#fff" stroke="#707070" stroke-width="1"/>
    </clipPath>
    <clipPath id="clip-path-2">
      <rect id="Rectángulo_416155" data-name="Rectángulo 416155" width="21.471" height="4.437" fill="none"/>
    </clipPath>
    <clipPath id="clip-path-3">
      <rect id="Rectángulo_416156" data-name="Rectángulo 416156" width="9.266" height="7.478" fill="none"/>
    </clipPath>
    <clipPath id="clip-path-4">
      <rect id="Rectángulo_416157" data-name="Rectángulo 416157" width="19.268" height="24.607" fill="none"/>
    </clipPath>
    <clipPath id="clip-path-5">
      <rect id="Rectángulo_416158" data-name="Rectángulo 416158" width="20.11" height="24.599" fill="none"/>
    </clipPath>
  </defs>
  <g id="Enmascarar_grupo_1098861" data-name="Enmascarar grupo 1098861" transform="translate(-1020.302 -4052)" clip-path="url(#clip-path)">
    <g id="Grupo_1201467" data-name="Grupo 1201467" transform="translate(1060.246 4098.045)">
      <circle id="Elipse_13507" data-name="Elipse 13507" cx="107.287" cy="107.287" r="107.287" transform="translate(0 35.381)" fill="#fff"/>
      <g id="Grupo_1201363" data-name="Grupo 1201363" transform="translate(0 0)">
        <path id="Trazado_1075258" data-name="Trazado 1075258" d="M199.576,192.491A177.421,177.421,0,0,0,223.1,164.317c1.844-2.725,3.687-5.736,3.546-9.023-.1-2.282-1.156-4.591-.492-6.777a2.231,2.231,0,0,1,1.148-1.479,2.351,2.351,0,0,1,1.81.163c1.576.687,3.238,4.768,3.672,6.39.886-3.855,1.7-10.278,3.275-13.905.5-1.144,1.261-2.44,2.508-2.507a2.338,2.338,0,0,1,2.029,1.258,6.236,6.236,0,0,1,.652,2.407,43.76,43.76,0,0,1,.171,8.823,38.373,38.373,0,0,1,2.956-10.161,2.8,2.8,0,0,1,.949-1.311,1.894,1.894,0,0,1,2.129.275,4.289,4.289,0,0,1,1.189,1.927c1.267,3.54.877,7.43.472,11.168a22.049,22.049,0,0,1,3.451-7.124A2.628,2.628,0,0,1,254,143.276a1.872,1.872,0,0,1,1.962,1.237,4.969,4.969,0,0,1,.15,2.484,31.383,31.383,0,0,1-3.32,10.811c1.23,3.988-.233,8.663-3.737,11.963a150.934,150.934,0,0,1-22.581,45.058,42.427,42.427,0,0,1-7.957,8.731,2.992,2.992,0,0,1-1.2.647,3.078,3.078,0,0,1-2.2-.717c-7.016-4.675-12.034-11.894-15.415-19.618a17.739,17.739,0,0,1-1.656-5.609c-.157-1.953,0-4.291,1.532-5.773" transform="translate(-41.082 -101.458)" fill="#f9cbb2"/>
        <path id="Trazado_1075259" data-name="Trazado 1075259" d="M217.682,160.154a9.856,9.856,0,0,0-8.726-3.588.378.378,0,0,0-.047.739,33.372,33.372,0,0,1,4.272,1.388,35.916,35.916,0,0,1,4.012,2.019.381.381,0,0,0,.488-.558" transform="translate(-10.925 -105.744)" fill="#e5b798"/>
        <path id="Trazado_1075260" data-name="Trazado 1075260" d="M457.912,177.015a161.8,161.8,0,0,1-19.061-23.963c-3.365-5.174-7.286-11.118-7.472-14.642-.109-2.055.545-6.322-.138-8.276a3.108,3.108,0,0,0-1.184-1.687c-1.456-.907-3.437.286-4.262,1.738s-1.07,3.187-2.135,4.491a56.549,56.549,0,0,0-4.258-10.127,10.008,10.008,0,0,0-3.058-3.575c-1.066-.55-2.68-.38-3.181.668a4.77,4.77,0,0,0-.03,3.009c.7,3.082,2.139,5.9,2.911,9.317a62.458,62.458,0,0,0-4.758-6.9c-3.167-3.976-4.879-3.567-5.522-3.087-1.212.906-.88,2.74-.5,3.963a40.416,40.416,0,0,0,4.566,9.467c-1.752-1.763-6.969-6.932-9.08-5.642-2.3,1.4,1.312,5.857,3.264,7.808.358.358.845.59,1.1,1.012a3.826,3.826,0,0,1,.309,2.025,12.379,12.379,0,0,0,5.1,9.441c.718,5.089,2.605,9.957,4.491,14.773,4.475,11.433,9.03,22.89,15.2,33.6a2.871,2.871,0,0,0,1.308,1.385,2.907,2.907,0,0,0,2.242-.352,25.344,25.344,0,0,0,6-4.3,105.816,105.816,0,0,0,8.216-8.781c3.4-3.924,6.8-7.847,9.926-11.356" transform="translate(-400.01 -97.796)" fill="#f9cbb2"/>
        <path id="Trazado_1075261" data-name="Trazado 1075261" d="M293.624,218.835c.023.272.054.568.093.856a9.714,9.714,0,0,1,2.187,1.463l.086-.1c4.249-.163,14.638-2.981,14.607-2.607q-.023.257-.047.537a26.241,26.241,0,0,0,4.981-1.977q.689-4.331,1.222-9c-7.564,6.763-14.848,9.759-23.128,10.825" transform="translate(-176.06 -117.168)" fill="#ffaf6d"/>
        <path id="Trazado_1075262" data-name="Trazado 1075262" d="M337.493,191.5c-.1.654-.21,1.307-.319,1.946a132.058,132.058,0,0,0,19.4-10.4c.319-.21.646-.42.965-.638a31.791,31.791,0,0,0,6.623-5.556,6.667,6.667,0,0,0,1.533-2.591,7.975,7.975,0,0,0,.124-2.4q-.444-9.268-1.167-18.521c-.763-9.658-1.782-19.424-5.276-28.451s-9.759-17.362-18.568-21.377a13.639,13.639,0,0,0-7.7-1.486c-3.486-5.276-10.086-7.541-16.35-8.436a59.243,59.243,0,0,0-35.821,6.241A30.377,30.377,0,0,0,272.5,106c-2.833,3.128-4.5,7.105-6.093,11.019-4.475,10.988-7.525,38.156-7.525,52.7l-.132.125c4.778,5.035,13.082,15.619,18.124,19.907l.163.07c.086-.218.171-.319.257-.3,1.276.35,7.751,3.167,12.35,3.533a11,11,0,0,1,5.019-1.128c.054-.327.117-.646.163-.934a39.223,39.223,0,0,1-13.891-9.191c-6.319-6.529-10.319-15.938-8.272-24.786a27.6,27.6,0,0,1,2.825-7.089,14.763,14.763,0,0,0,1.658-3.642,12.376,12.376,0,0,0,.21-2.942q-.035-4.868-.062-9.743a86.107,86.107,0,0,0,11.681.311,78.039,78.039,0,0,1,3.728-16.84l-1.7,16.2a1.007,1.007,0,0,0,.1.693.994.994,0,0,0,.654.3,59.86,59.86,0,0,0,14.537.825,1.309,1.309,0,0,0,1.463-1.37c1.214-6.661.988-13.86,4.49-19.65-.91,6.623-1.821,13.354-.9,19.977a1.321,1.321,0,0,0,1.339,1.432,42.868,42.868,0,0,0,12.42.272,1.7,1.7,0,0,0,1.105-.42,1.733,1.733,0,0,0,.335-1.058q.805-8.93,1.6-17.868.537,9.058,1.066,18.117a1.766,1.766,0,0,0,.342,1.144,1.64,1.64,0,0,0,1.105.389,26.528,26.528,0,0,0,5.774-.086,2.307,2.307,0,0,0,1.619-.685,2.425,2.425,0,0,0,.335-1.37c.195-5.214.825-13.237,1.027-18.459a354.151,354.151,0,0,1-.7,67.035q-.525,4.658-1.222,9" transform="translate(-198.022 -91.661)" fill="#ffaf6d"/>
        <path id="Trazado_1075263" data-name="Trazado 1075263" d="M341.387,223.156a8.382,8.382,0,0,1,2.327,3.782,6.536,6.536,0,0,1-.171,5.144c-.84,8.91.023,12.669-1.51,14.4-2.5,2.817-9.385,3.385-15.86,3.082a56.664,56.664,0,0,1-12.833-1.837,6.962,6.962,0,0,1-3.689-2.545,7.911,7.911,0,0,1-.926-3.572,57.355,57.355,0,0,1,.872-12.42,5.345,5.345,0,0,1-.677-2.911,6.717,6.717,0,0,1,2.833-4.84,8.8,8.8,0,0,1,1.416-.864c-4.6-.366-11.074-3.183-12.35-3.533-.086-.023-.171.078-.257.3-.661,1.588-1.424,9.416-3.152,20.062-.942,5.852-2.412,14.568-5.455,19.65-2.35,3.922-11.852,7.875-14.576,9.051-.2.086-.428.591-.669,1.463v.008c-2.335,8.389-6.412,50.63-9.066,84.241,8.918,4.374,30.91,3.65,42.529,1.339a2.914,2.914,0,0,0,1.86-.879,2.974,2.974,0,0,0,.412-1.751q.175-7.763.35-15.533a227.237,227.237,0,0,0,23.93.156q.479,9.514.957,19.035a1.459,1.459,0,0,0,1.72,1.665c14.194.965,31.6,1.447,43.05-1.658-1.984-28.576-1.673-66.124-3.549-78.07-.023-.008-.039-.023-.062-.031-3.65-1.837-12.335-7.875-16.521-17.689-5.237-12.288-6.887-29.019-6.288-37.408q.023-.28.047-.537c.031-.374-10.358,2.444-14.607,2.607Z" transform="translate(-221.543 -119.17)" fill="#f27979"/>
        <path id="Trazado_1075264" data-name="Trazado 1075264" d="M334.566,199.335c8.28-1.066,15.564-4.062,23.128-10.825a354.154,354.154,0,0,0,.7-67.035c-.2,5.222-.833,13.245-1.027,18.459a2.425,2.425,0,0,1-.335,1.37,2.307,2.307,0,0,1-1.619.685,26.528,26.528,0,0,1-5.774.086,1.64,1.64,0,0,1-1.105-.389,1.766,1.766,0,0,1-.342-1.144q-.537-9.058-1.066-18.117-.794,8.93-1.6,17.868a1.734,1.734,0,0,1-.335,1.058,1.7,1.7,0,0,1-1.105.42,42.869,42.869,0,0,1-12.42-.272,1.321,1.321,0,0,1-1.339-1.432c-.918-6.623-.008-13.354.9-19.977-3.5,5.79-3.276,12.988-4.49,19.65a1.309,1.309,0,0,1-1.463,1.37,59.86,59.86,0,0,1-14.537-.825.994.994,0,0,1-.654-.3,1.007,1.007,0,0,1-.1-.693l1.7-16.2a78.044,78.044,0,0,0-3.728,16.84,86.1,86.1,0,0,1-11.681-.311q.023,4.879.062,9.743a12.378,12.378,0,0,1-.21,2.942,14.758,14.758,0,0,1-1.658,3.642,27.6,27.6,0,0,0-2.825,7.089c-2.047,8.848,1.953,18.257,8.272,24.786a39.86,39.86,0,0,0,30.233,11.907c1.51-.078,2.973-.2,4.412-.389" transform="translate(-217.002 -97.668)" fill="#f9cbb2"/>
        <path id="Trazado_1075265" data-name="Trazado 1075265" d="M343.582,221.258a8.8,8.8,0,0,0-1.416.864,6.716,6.716,0,0,0-2.833,4.84,5.345,5.345,0,0,0,.677,2.91,6.259,6.259,0,0,0,4.156,3.16,11.183,11.183,0,0,0,5.65-.638,20.935,20.935,0,0,0,4.84-2.156,12.2,12.2,0,0,0,2.272-1.829l.156-1.261a22.015,22.015,0,0,1-9.035-2.957c-.187-.117.226-2.28.553-4.062a10.994,10.994,0,0,0-5.019,1.128" transform="translate(-251.956 -119.857)" fill="#ffb6c1"/>
        <path id="Trazado_1075266" data-name="Trazado 1075266" d="M329.543,223.02c.1,1,.218,2.039.2,2.63-2.078,1.891-7.37,2.794-12.731,2.14l-.156,1.261a23.826,23.826,0,0,0,3.121,3.206,16.136,16.136,0,0,0,2.739,1.883,12,12,0,0,0,7.533,1.447,6.051,6.051,0,0,0,2.529-.949,3.776,3.776,0,0,0,1.105-1.23,6.536,6.536,0,0,0,.171-5.144,8.383,8.383,0,0,0-2.327-3.782,9.716,9.716,0,0,0-2.187-1.463" transform="translate(-211.886 -120.498)" fill="#ffb6c1"/>
        <path id="Trazado_1075267" data-name="Trazado 1075267" d="M335.77,232.6c-.195,5.953-.35,9.447-.342,15.409a2.851,2.851,0,0,0,.708,2.311,2.449,2.449,0,0,0,1.284.42c.125.016.249.016.374.023a7.826,7.826,0,0,0,1.65-.086,1.834,1.834,0,0,0,1.121-.5,1.987,1.987,0,0,0,.342-1.307c.179-5.767.451-9.128.257-14.895a23.827,23.827,0,0,1-3.121-3.206,12.2,12.2,0,0,1-2.272,1.829" transform="translate(-233.07 -122.216)" fill="#f495a3"/>
        <path id="Trazado_1075268" data-name="Trazado 1075268" d="M317.644,253.52c6.475.3,13.362-.265,15.86-3.082,1.533-1.728.669-5.486,1.51-14.4a3.777,3.777,0,0,1-1.1,1.23,6.052,6.052,0,0,1-2.529.949,12,12,0,0,1-7.533-1.447,16.138,16.138,0,0,1-2.739-1.883c.195,5.766-.078,9.128-.257,14.895a1.987,1.987,0,0,1-.342,1.307,1.834,1.834,0,0,1-1.121.5,7.826,7.826,0,0,1-1.65.086Z" transform="translate(-213.014 -123.13)" fill="#ffa5af"/>
        <path id="Trazado_1075269" data-name="Trazado 1075269" d="M357.1,251.156a2.449,2.449,0,0,1-1.284-.42,2.851,2.851,0,0,1-.708-2.311c-.008-5.961.148-9.455.342-15.409a20.936,20.936,0,0,1-4.84,2.156,11.183,11.183,0,0,1-5.65.638,6.259,6.259,0,0,1-4.156-3.16,57.351,57.351,0,0,0-.872,12.42,7.911,7.911,0,0,0,.926,3.572,6.962,6.962,0,0,0,3.689,2.545,56.666,56.666,0,0,0,12.833,1.837l.093-1.844c-.125-.008-.249-.008-.374-.023" transform="translate(-252.755 -122.633)" fill="#ffa5af"/>
        <path id="Trazado_1075270" data-name="Trazado 1075270" d="M403.97,188.228C382.2,192.1,372.336,212.135,372.9,213.52c3.938,9.681,14.77,23.377,29.868,36.8.179,2.311-.56,6.537-.949,10.848.241-.872.467-1.377.669-1.463,2.724-1.175,12.226-5.128,14.576-9.051,3.043-5.082,4.514-13.8,5.455-19.65,1.728-10.646,2.49-18.475,3.152-20.062l-.163-.07c-5.043-4.288-13.346-14.872-18.124-19.907-1.658-1.751-2.887-2.833-3.409-2.739" transform="translate(-346.647 -112.78)" fill="#ffa5af"/>
        <path id="Trazado_1075271" data-name="Trazado 1075271" d="M239.888,218.954c-.6,8.389,1.051,25.121,6.288,37.408,4.187,9.813,12.872,15.852,16.521,17.689q.058-3.42.125-6.84a5.483,5.483,0,0,1,.35-2.249,5.687,5.687,0,0,1,2.031-2.047,169.2,169.2,0,0,0,21.821-18.529,3.008,3.008,0,0,0,.926-1.354,3.053,3.053,0,0,0-.444-2.008c-5.875-12.047-14.241-22.661-22.591-33.144-.319.218-.646.428-.965.638a132.06,132.06,0,0,1-19.4,10.4c.109-.638.218-1.292.319-1.946a26.241,26.241,0,0,1-4.981,1.977" transform="translate(-105.398 -117.14)" fill="#ffa5af"/>
        <path id="Trazado_1075272" data-name="Trazado 1075272" d="M344.573,222.113c-.039-.288-.07-.584-.093-.856-1.44.187-2.9.311-4.412.389a39.241,39.241,0,0,1-16.342-2.716c-.047.288-.109.607-.163.934-.327,1.782-.739,3.946-.553,4.062a22.015,22.015,0,0,0,9.035,2.957c5.362.654,10.654-.249,12.732-2.14.016-.591-.1-1.626-.2-2.63" transform="translate(-226.916 -119.59)" fill="#f9cbb2"/>
        <path id="Trazado_1075273" data-name="Trazado 1075273" d="M344.587,223.2c.1.96.2,1.93.188,2.494-2.078,1.891-7.37,2.794-12.731,2.14a22.015,22.015,0,0,1-9.035-2.957,3.861,3.861,0,0,1,.107-1.553,55.273,55.273,0,0,0,21.471-.124" transform="translate(-226.915 -120.536)" fill="#f9cbb2"/>
        <g id="Grupo_1201359" data-name="Grupo 1201359" transform="translate(96.201 99.34)" opacity="0.21" style="mix-blend-mode: multiply;isolation: isolate">
          <g id="Grupo_1201099" data-name="Grupo 1201099" transform="translate(0 0)">
            <g id="Grupo_1201098" data-name="Grupo 1201098" clip-path="url(#clip-path-2)">
              <path id="Trazado_1074743" data-name="Trazado 1074743" d="M323.206,222.373c.121-.753.292-1.672.445-2.508.054-.327.117-.646.163-.934a39.241,39.241,0,0,0,16.342,2.716c1.51-.078,2.973-.2,4.412-.389.023.272.055.568.093.856l.014.135a55.243,55.243,0,0,1-21.471.124" transform="translate(-323.206 -218.93)" fill="#8a4a85"/>
            </g>
          </g>
        </g>
        <path id="Trazado_1075274" data-name="Trazado 1075274" d="M292.644,121.821a394.213,394.213,0,0,1-1.559,73.071l-.68,4.83a.278.278,0,1,0,.549.094l.828-4.824a294.235,294.235,0,0,0,2.762-53.7c-.227-6.521-.662-13.034-1.346-19.524a.278.278,0,0,0-.305-.248.281.281,0,0,0-.249.3" transform="translate(-151.53 -97.986)" fill="#b27a4f"/>
        <path id="Trazado_1075275" data-name="Trazado 1075275" d="M305.536,123.03a89.639,89.639,0,0,0,.261,14.11,30.282,30.282,0,0,0,.881,4.658.28.28,0,0,0,.545-.111c-.184-1.543-.317-3.088-.409-4.638-.151-2.693-.274-6.606-.385-9.343-.077-1.563-.157-3.13-.336-4.694a.28.28,0,0,0-.556.018" transform="translate(-175.687 -98.263)" fill="#b27a4f"/>
        <path id="Trazado_1075276" data-name="Trazado 1075276" d="M328.724,119.979c-1.338,6.919-2.221,14.226-.48,21.153a.279.279,0,0,0,.545-.112c-.916-6.978-.009-13.987.488-20.966a.28.28,0,0,0-.552-.075" transform="translate(-214.773 -97.596)" fill="#b27a4f"/>
        <path id="Trazado_1075277" data-name="Trazado 1075277" d="M353.73,119.918c-2.561,6.283-3.127,13.265-2.843,19.99a.28.28,0,0,0,.557,0c.528-6.643,1.08-13.341,2.807-19.794a.28.28,0,0,0-.521-.2" transform="translate(-258.085 -97.595)" fill="#b27a4f"/>
        <path id="Trazado_1075278" data-name="Trazado 1075278" d="M373.287,103.636c-11.356,1.514-18.487,10.461-20.409,21.342a29.26,29.26,0,0,0-.3,10.577.5.5,0,0,0,.412.364,81.074,81.074,0,0,0,16.481.632.278.278,0,0,0-.023-.556c-2.728.061-5.456-.02-8.173-.209s-5.425-.483-8.11-.918l.429.367c-1.214-9.57,2.314-21.408,10.436-27.149a24.261,24.261,0,0,1,9.349-3.9.278.278,0,0,0-.093-.549" transform="translate(-278.501 -94.018)" fill="#b27a4f"/>
        <g id="Grupo_1201360" data-name="Grupo 1201360" transform="translate(103.443 58.092)" opacity="0.59" style="mix-blend-mode: multiply;isolation: isolate">
          <g id="Grupo_1201102" data-name="Grupo 1201102" transform="translate(0 0)">
            <g id="Grupo_1201101" data-name="Grupo 1201101" clip-path="url(#clip-path-3)">
              <path id="Trazado_1074749" data-name="Trazado 1074749" d="M329.787,168.446a4.1,4.1,0,0,1,2.581-2.29,5.744,5.744,0,0,1,3.5.1,4.256,4.256,0,0,1,2.918,3.1,2.836,2.836,0,0,1-1.251,2.946,5.1,5.1,0,0,1-3.741,1.087,4.924,4.924,0,0,1-3.226-1.433,3.418,3.418,0,0,1-.785-3.505" transform="translate(-329.584 -165.927)" fill="#e5919a"/>
            </g>
          </g>
        </g>
        <path id="Trazado_1075279" data-name="Trazado 1075279" d="M340.533,165.585c-4.71-.769-6.729,6.448-1.97,7.691a.281.281,0,0,0,.146-.537c-3.167-1.656-1.622-6.373,1.8-6.6a.282.282,0,0,0,.026-.556" transform="translate(-232.922 -107.746)" fill="#a46d5c"/>
        <path id="Trazado_1075280" data-name="Trazado 1075280" d="M330.672,174.453a1.5,1.5,0,0,1,.6-.914.822.822,0,0,1,.452-.166.322.322,0,0,1,.19.051.29.29,0,0,1,.1.139.66.66,0,0,1-.179.609,1.691,1.691,0,0,1-.5.408.752.752,0,0,1-.321.1.37.37,0,0,1-.345-.23" transform="translate(-220.177 -109.486)" fill="#512f2b"/>
        <path id="Trazado_1075281" data-name="Trazado 1075281" d="M343.021,180.706a15.666,15.666,0,0,1-20.832,1.475,13.4,13.4,0,0,1-2.33-2.326.373.373,0,0,0-.618.411c4.349,7.446,15.421,8.891,21.942,3.489a12.555,12.555,0,0,0,2.419-2.586.372.372,0,0,0-.1-.517.377.377,0,0,0-.482.054" transform="translate(-222.867 -110.892)" fill="#331f10"/>
        <path id="Trazado_1075282" data-name="Trazado 1075282" d="M357.192,164.67a3.638,3.638,0,1,0-3.918,3.754,3.85,3.85,0,0,0,3.918-3.754" transform="translate(-260.363 -106.597)" fill="#231409"/>
        <path id="Trazado_1075283" data-name="Trazado 1075283" d="M349.933,156.711a2.639,2.639,0,0,0,1.224,1.832,3.467,3.467,0,0,0,2.21.437c2.348-.324,3.075,1.9,3.463,2.952a5.524,5.524,0,0,0,1.472,1.552,6.444,6.444,0,0,0-1.73-5.174c-1.583-1.412-3.433-.734-4.515-.963a2.511,2.511,0,0,1-1.45-.961c-.132-.125-.228-.309-.4-.254a.465.465,0,0,0-.273.581" transform="translate(-261.462 -105.66)" fill="#231409"/>
        <path id="Trazado_1075284" data-name="Trazado 1075284" d="M315.757,168.09a3.638,3.638,0,1,0-3.917,3.754,3.85,3.85,0,0,0,3.917-3.754" transform="translate(-186.683 -107.355)" fill="#231409"/>
        <path id="Trazado_1075285" data-name="Trazado 1075285" d="M308.5,160.131a2.641,2.641,0,0,0,1.223,1.832,3.47,3.47,0,0,0,2.211.437c2.348-.324,3.075,1.9,3.463,2.952a5.525,5.525,0,0,0,1.472,1.552,6.444,6.444,0,0,0-1.73-5.174c-1.583-1.412-3.433-.734-4.515-.963a2.511,2.511,0,0,1-1.45-.961c-.132-.125-.228-.309-.4-.255a.464.464,0,0,0-.273.581" transform="translate(-187.784 -106.418)" fill="#231409"/>
        <path id="Trazado_1075286" data-name="Trazado 1075286" d="M308.434,151.832a2.6,2.6,0,0,1,2.479-1.16,5.834,5.834,0,0,1,4.182,1.959,2.552,2.552,0,0,1,.735,2.349,1.641,1.641,0,0,1-1.58,1.106,4.931,4.931,0,0,1-1.852-.755c-.867-.42-1.851-.561-2.707-1s-1.773-1.434-1.258-2.493" transform="translate(-186.628 -104.451)" fill="#8f6b49"/>
        <path id="Trazado_1075287" data-name="Trazado 1075287" d="M360.131,149.082a2.6,2.6,0,0,0-2.431-1.258,5.835,5.835,0,0,0-4.258,1.789,2.555,2.555,0,0,0-.829,2.317,1.642,1.642,0,0,0,1.535,1.168,4.926,4.926,0,0,0,1.881-.68c.883-.385,1.872-.486,2.745-.895s1.828-1.362,1.357-2.441" transform="translate(-265.423 -103.819)" fill="#8f6b49"/>
        <path id="Trazado_1075288" data-name="Trazado 1075288" d="M340.327,237.829a1.457,1.457,0,1,0-1.457,1.457,1.457,1.457,0,0,0,1.457-1.457" transform="translate(-233.711 -123.459)" fill="#d87783"/>
        <path id="Trazado_1075289" data-name="Trazado 1075289" d="M340.327,244.662a1.457,1.457,0,1,0-1.457,1.457,1.457,1.457,0,0,0,1.457-1.457" transform="translate(-233.711 -124.974)" fill="#d87783"/>
        <path id="Trazado_1075290" data-name="Trazado 1075290" d="M340.327,251.495a1.457,1.457,0,1,0-1.457,1.457,1.457,1.457,0,0,0,1.457-1.457" transform="translate(-233.711 -126.49)" fill="#d87783"/>
        <path id="Trazado_1075291" data-name="Trazado 1075291" d="M316.839,264.815c9.661,1.707,26.152,1.858,37.3.983.948,4.627,3.4,15.137-3.871,23.444-6.611,7.55-17.64,7.153-22.794,4.656-4.779-2.314-8.62-6.089-10.206-11.079a31.538,31.538,0,0,1-.425-18" transform="translate(-231.815 -129.767)" fill="#e26464"/>
        <path id="Trazado_1075292" data-name="Trazado 1075292" d="M289,100.252a29.515,29.515,0,0,1,2.607-3.23c.677-.728,1.773-1.461,2.567-.864a1.4,1.4,0,0,1,.279,1.718,3.273,3.273,0,0,1-1.365,1.265A7.428,7.428,0,0,1,289,100.252" transform="translate(-150.337 -92.312)" fill="#ffaf6d"/>
        <path id="Trazado_1075293" data-name="Trazado 1075293" d="M297.87,99.229a11.216,11.216,0,0,0,1.971-4.93,3.889,3.889,0,0,0-.088-1.838,1.71,1.71,0,0,0-1.316-1.173c-1.164-.14-1.911,1.223-2.1,2.381-.343,2.149.07,4.411,1.528,5.56" transform="translate(-161.242 -91.278)" fill="#ffaf6d"/>
        <path id="Trazado_1075294" data-name="Trazado 1075294" d="M339.074,292.365a39.438,39.438,0,0,0,.2-5.719c-.044-.806-.026-1.615-.054-2.423.02-.33-.128-.684-.024-1a.492.492,0,0,1,.942.19,30.734,30.734,0,0,1,.043,4.847c-.023,1.542-.193,4.082-.584,4.771a.31.31,0,0,1-.482-.062c-.08-.142-.034-.305-.039-.6" transform="translate(-234.93 -133.785)" fill="#527747"/>
        <path id="Trazado_1075295" data-name="Trazado 1075295" d="M333.56,276.188a1.692,1.692,0,0,1,2.129-1.315,3.8,3.8,0,0,1,1.044.467,2.806,2.806,0,0,1,.983-3.207,2.017,2.017,0,0,1,2.769.654,3.749,3.749,0,0,1,.59,2.4,3.82,3.82,0,0,1,1.432-.3,1.993,1.993,0,0,1,1.162.436,1.315,1.315,0,0,1,.757,1.672c-.014.036-.033.069-.048.1a1.7,1.7,0,0,1-.181.484,2.875,2.875,0,0,1-1.271,1.267,2.992,2.992,0,0,1,1.2,1.208,1.831,1.831,0,0,1-1.561,2.714,3.314,3.314,0,0,1-2.472-1.108c-.13-.133-.263-.272-.393-.415a3.1,3.1,0,0,1-1.919,2.213,1.758,1.758,0,0,1-1.964-.4,1.162,1.162,0,0,1-.732-.833,1.43,1.43,0,0,1-.049-.385,2.645,2.645,0,0,1,.444-2.181,4,4,0,0,1,.244-.409,4,4,0,0,1-.815-.616,2.472,2.472,0,0,1-1.346-2.458" transform="translate(-234.86 -131.321)" fill="#fff"/>
        <path id="Trazado_1075296" data-name="Trazado 1075296" d="M338.747,278.237a1.719,1.719,0,0,1,2.134-.2,1.417,1.417,0,0,1,.244.185,1.528,1.528,0,0,1,.265,2.282,1.475,1.475,0,0,1-.772.563,1.385,1.385,0,0,1-.28.037,1.68,1.68,0,0,1-1.851-1.349,1.74,1.74,0,0,1,.262-1.522" transform="translate(-235.956 -132.638)" fill="#f5e687"/>
        <path id="Trazado_1075297" data-name="Trazado 1075297" d="M332.995,293.287l.02-.028a.594.594,0,0,1,0-.076,8.277,8.277,0,0,1,2.316-3.825,3.969,3.969,0,0,1,2.543-1.319.88.88,0,0,1,.876,1.1,1.591,1.591,0,0,1-.093.459c-.771,1.641-2.586,2.795-4.257,3.894a2.65,2.65,0,0,1-1.224.539c-.38-.057-.378-.489-.179-.742" transform="translate(-228.613 -134.918)" fill="#527747"/>
        <path id="Trazado_1075298" data-name="Trazado 1075298" d="M340.043,288.209c.612-.764,1.643-.153,2.2.373a11.015,11.015,0,0,1,2.365,3.168c.13.258.244.523.349.793.451.682.821,1.463.02,1.592a3.94,3.94,0,0,1-1.344-.751,15.87,15.87,0,0,1-2.807-2.4c-.631-.739-1.374-1.809-.783-2.775" transform="translate(-240.71 -134.876)" fill="#527747"/>
        <g id="Grupo_1201361" data-name="Grupo 1201361" transform="translate(123.136 65.441)" opacity="0.4" style="mix-blend-mode: multiply;isolation: isolate">
          <g id="Grupo_1201105" data-name="Grupo 1201105" transform="translate(0 0)">
            <g id="Grupo_1201104" data-name="Grupo 1201104" clip-path="url(#clip-path-4)">
              <path id="Trazado_1074771" data-name="Trazado 1074771" d="M291.424,187.673a12.411,12.411,0,0,0,12.514,12.3,12.577,12.577,0,0,0,5.253-1.136c.739-6.879,1.237-14.171,1.5-21.525a12.608,12.608,0,0,0-6.755-1.946,12.411,12.411,0,0,0-12.514,12.3" transform="translate(-291.424 -175.37)" fill="#d67188"/>
            </g>
          </g>
        </g>
        <g id="Grupo_1201362" data-name="Grupo 1201362" transform="translate(74.108 61.519)" opacity="0.4" style="mix-blend-mode: multiply;isolation: isolate">
          <g id="Grupo_1201108" data-name="Grupo 1201108">
            <g id="Grupo_1201107" data-name="Grupo 1201107" clip-path="url(#clip-path-5)">
              <path id="Trazado_1074772" data-name="Trazado 1074772" d="M358.675,194.727a12.678,12.678,0,0,0,2.257.2,12.3,12.3,0,1,0,0-24.6,12.643,12.643,0,0,0-6.467,1.767q-.339,1.027-.584,2.078c-1.634,7.082.6,14.521,4.794,20.552" transform="translate(-353.344 -170.33)" fill="#d67188"/>
            </g>
          </g>
        </g>
      </g>
    </g>
  </g>
</svg>
