<svg xmlns="http://www.w3.org/2000/svg" xmlns:xlink="http://www.w3.org/1999/xlink" width="103" height="103" viewBox="0 0 103 103">
  <defs>
    <filter id="Trazado_978624" x="0" y="0" width="103" height="103" filterUnits="userSpaceOnUse">
      <feOffset dy="3" input="SourceAlpha"/>
      <feGaussianBlur stdDeviation="3" result="blur"/>
      <feFlood flood-opacity="0.161"/>
      <feComposite operator="in" in2="blur"/>
      <feComposite in="SourceGraphic"/>
    </filter>
  </defs>
  <g id="Grupo_1206276" data-name="Grupo 1206276" transform="translate(-160 -1702)">
    <g id="Grupo_1182742" data-name="Grupo 1182742" transform="translate(0 -1528)">
      <g id="Grupo_1183826" data-name="Grupo 1183826" transform="translate(-11 -401)">
        <g id="Grupo_1164359" data-name="Grupo 1164359" transform="translate(180 3637)">
          <g id="Grupo_1144531" data-name="Grupo 1144531">
            <g transform="matrix(1, 0, 0, 1, -9, -6)" filter="url(#Trazado_978624)">
              <g id="Trazado_978624-2" data-name="Trazado 978624" transform="translate(9 6)" fill="#f5fcec">
                <path d="M 42.5 83.5 C 36.96437835693359 83.5 31.59512901306152 82.41617584228516 26.54141235351562 80.27863311767578 C 21.65934181213379 78.21369171142578 17.27447128295898 75.25723266601562 13.50862312316895 71.49137878417969 C 9.742764472961426 67.72553253173828 6.786305904388428 63.34066009521484 4.721364498138428 58.45858764648438 C 2.583823442459106 53.40486907958984 1.5 48.03562164306641 1.5 42.5 C 1.5 36.96437835693359 2.583823442459106 31.59512901306152 4.721364498138428 26.54141235351562 C 6.786305904388428 21.65934181213379 9.742764472961426 17.27447128295898 13.50862312316895 13.50862312316895 C 17.27447128295898 9.742764472961426 21.65934181213379 6.786305904388428 26.54141235351562 4.721364498138428 C 31.59512901306152 2.583823442459106 36.96437835693359 1.5 42.5 1.5 C 48.03562164306641 1.5 53.40486907958984 2.583823442459106 58.45858764648438 4.721364498138428 C 63.34066009521484 6.786305904388428 67.72553253173828 9.742764472961426 71.49137878417969 13.50862312316895 C 75.25723266601562 17.27447128295898 78.21369171142578 21.65934181213379 80.27863311767578 26.54141235351562 C 82.41617584228516 31.59512901306152 83.5 36.96437835693359 83.5 42.5 C 83.5 48.03562164306641 82.41617584228516 53.40486907958984 80.27863311767578 58.45858764648438 C 78.21369171142578 63.34066009521484 75.25723266601562 67.72553253173828 71.49137878417969 71.49137878417969 C 67.72553253173828 75.25723266601562 63.34066009521484 78.21369171142578 58.45858764648438 80.27863311767578 C 53.40486907958984 82.41617584228516 48.03562164306641 83.5 42.5 83.5 Z" stroke="none"/>
                <path d="M 42.5 3 C 37.16621398925781 3 31.99356079101562 4.043960571289062 27.125732421875 6.102882385253906 C 22.42246627807617 8.092185974121094 18.19785308837891 10.94070434570312 14.56928253173828 14.56928253173828 C 10.94070434570312 18.19785308837891 8.092185974121094 22.42246627807617 6.102882385253906 27.125732421875 C 4.043960571289062 31.99356079101562 3 37.16621398925781 3 42.5 C 3 47.83378601074219 4.043960571289062 53.00643920898438 6.102882385253906 57.87425231933594 C 8.092185974121094 62.57753372192383 10.94070434570312 66.80213165283203 14.56928253173828 70.43071746826172 C 18.19786834716797 74.05929565429688 22.42246627807617 76.90781402587891 27.125732421875 78.89711761474609 C 31.99356079101562 80.95603942871094 37.16621398925781 82 42.5 82 C 47.83378601074219 82 53.00642395019531 80.95603942871094 57.87425231933594 78.89711761474609 C 62.57753372192383 76.90781402587891 66.80213165283203 74.05929565429688 70.43071746826172 70.43071746826172 C 74.05929565429688 66.80213165283203 76.90781402587891 62.57753372192383 78.89711761474609 57.87425231933594 C 80.95603942871094 53.00642395019531 82 47.83378601074219 82 42.5 C 82 37.16621398925781 80.95603942871094 31.99356079101562 78.89711761474609 27.125732421875 C 76.90781402587891 22.42246627807617 74.05929565429688 18.19786834716797 70.43071746826172 14.56928253173828 C 66.80213165283203 10.94070434570312 62.57753372192383 8.092185974121094 57.87425231933594 6.102882385253906 C 53.00643920898438 4.043960571289062 47.83378601074219 3 42.5 3 M 42.5 0 C 65.97209167480469 0 85 19.02789306640625 85 42.5 C 85 65.97209167480469 65.97209167480469 85 42.5 85 C 19.02789306640625 85 0 65.97209167480469 0 42.5 C 0 19.02789306640625 19.02789306640625 0 42.5 0 Z" stroke="none" fill="#5a812d"/>
              </g>
            </g>
          </g>
        </g>
      </g>
    </g>
    <g id="escuela" transform="translate(186.499 1721.99)">
      <g id="Grupo_1206257" data-name="Grupo 1206257" transform="translate(3.517 25.84)">
        <path id="Trazado_1052684" data-name="Trazado 1052684" d="M36.009,264.509H78.978v21.484H36.009Z" transform="translate(-36.009 -264.509)" fill="#fae0bd"/>
      </g>
      <g id="Grupo_1206258" data-name="Grupo 1206258" transform="translate(10.353 25.84)">
        <path id="Trazado_1052685" data-name="Trazado 1052685" d="M106.009,264.509h29.3v21.484h-29.3Z" transform="translate(-106.009 -264.509)" fill="#f8c7a5"/>
      </g>
      <g id="Grupo_1206259" data-name="Grupo 1206259" transform="translate(7.423 34.204)">
        <path id="Trazado_1052686" data-name="Trazado 1052686" d="M77.962,356.01h31.25a1.953,1.953,0,0,0,1.953-1.953V352.1a1.953,1.953,0,0,0-1.953-1.953H77.962a1.953,1.953,0,0,0-1.953,1.953v1.953A1.953,1.953,0,0,0,77.962,356.01Z" transform="translate(-76.009 -350.151)" fill="#a0bce7"/>
      </g>
      <g id="Grupo_1206260" data-name="Grupo 1206260" transform="translate(10.353 34.204)">
        <path id="Trazado_1052687" data-name="Trazado 1052687" d="M106.009,350.151h29.3v5.859h-29.3Z" transform="translate(-106.009 -350.151)" fill="#8ea3e2"/>
      </g>
      <g id="Grupo_1206261" data-name="Grupo 1206261" transform="translate(0.734 13.27)">
        <path id="Trazado_1052688" data-name="Trazado 1052688" d="M50.538,135.793H13.016a1.953,1.953,0,0,0-1.869,1.387L7.6,148.9a1.953,1.953,0,0,0,1.869,2.52H54.091a1.953,1.953,0,0,0,1.869-2.52L52.407,137.18a1.953,1.953,0,0,0-1.869-1.387Z" transform="translate(-7.51 -135.793)" fill="#e26e7e"/>
      </g>
      <g id="Grupo_1206262" data-name="Grupo 1206262" transform="translate(25.001 0.742)">
        <path id="Trazado_1052689" data-name="Trazado 1052689" d="M262.845,13.368h-6.836V7.509h6.836a.977.977,0,0,1,.977.977v3.906A.977.977,0,0,1,262.845,13.368Z" transform="translate(-256.009 -7.509)" fill="#f7ef87"/>
      </g>
      <g id="Grupo_1206263" data-name="Grupo 1206263" transform="translate(25.001 0.742)">
        <path id="Trazado_1052690" data-name="Trazado 1052690" d="M259.915,12.392V8.486a.977.977,0,0,1,.977-.977h-4.883v5.859h4.883a.977.977,0,0,1-.977-.977Z" transform="translate(-256.009 -7.509)" fill="#f2d98d"/>
      </g>
      <g id="Grupo_1206264" data-name="Grupo 1206264" transform="translate(14.259 10.92)">
        <path id="Trazado_1052691" data-name="Trazado 1052691" d="M167.493,122.474l-10.742-10.742-10.742,10.742v25.662h21.484Z" transform="translate(-146.009 -111.732)" fill="#fbf1cf"/>
      </g>
      <g id="Grupo_1206265" data-name="Grupo 1206265" transform="translate(14.259 15.803)">
        <path id="Trazado_1052692" data-name="Trazado 1052692" d="M146.009,167.591v25.662h5.859V161.732Z" transform="translate(-146.009 -161.732)" fill="#fae0bd"/>
      </g>
      <g id="Grupo_1206266" data-name="Grupo 1206266" transform="translate(18.165 34.204)">
        <path id="Trazado_1052693" data-name="Trazado 1052693" d="M199.681,363.272H186.009V352.1a1.953,1.953,0,0,1,1.953-1.953h9.766a1.953,1.953,0,0,1,1.953,1.953Z" transform="translate(-186.009 -350.151)" fill="#6e768f"/>
      </g>
      <g id="Grupo_1206267" data-name="Grupo 1206267" transform="translate(18.165 34.204)">
        <path id="Trazado_1052694" data-name="Trazado 1052694" d="M191.868,350.151h-3.906a1.953,1.953,0,0,0-1.953,1.953v11.168h3.906V352.1A1.953,1.953,0,0,1,191.868,350.151Z" transform="translate(-186.009 -350.151)" fill="#565e75"/>
      </g>
      <g id="Grupo_1206269" data-name="Grupo 1206269" transform="translate(11.329 8.555)">
        <g id="Grupo_1206268" data-name="Grupo 1206268">
          <path id="Trazado_1052695" data-name="Trazado 1052695" d="M141.4,103.134a1.947,1.947,0,0,1-1.381-.572L129.681,92.224l-10.338,10.338a1.953,1.953,0,1,1-2.762-2.762L128.3,88.081a1.953,1.953,0,0,1,2.762,0L142.781,99.8a1.953,1.953,0,0,1-1.381,3.334Z" transform="translate(-116.01 -87.509)" fill="#ec9eb0"/>
        </g>
      </g>
      <g id="Grupo_1206270" data-name="Grupo 1206270" transform="translate(11.329 9.851)">
        <path id="Trazado_1052696" data-name="Trazado 1052696" d="M127.323,101.839a2.348,2.348,0,0,1,.253-1.062l-11,11a1.953,1.953,0,0,0,2.762,2.762L129.68,104.2A2.358,2.358,0,0,1,127.323,101.839Z" transform="translate(-116.009 -100.777)" fill="#e68a97"/>
      </g>
      <g id="Grupo_1206271" data-name="Grupo 1206271" transform="translate(20.118 21.083)">
        <circle id="Elipse_14269" data-name="Elipse 14269" cx="4.883" cy="4.883" r="4.883" fill="#a0bce7"/>
      </g>
      <g id="Grupo_1206272" data-name="Grupo 1206272" transform="translate(20.118 21.083)">
        <path id="Trazado_1052697" data-name="Trazado 1052697" d="M208.939,220.676a4.885,4.885,0,0,1,3.418-4.659,4.883,4.883,0,1,0,0,9.318A4.885,4.885,0,0,1,208.939,220.676Z" transform="translate(-206.009 -215.793)" fill="#8ea3e2"/>
      </g>
      <g id="Grupo_1206273" data-name="Grupo 1206273" transform="translate(0.734 45.371)">
        <path id="Trazado_1052698" data-name="Trazado 1052698" d="M54.091,468.415H9.462a1.953,1.953,0,1,1,0-3.906H54.091a1.953,1.953,0,0,1,0,3.906Z" transform="translate(-7.509 -464.509)" fill="#ec9eb0"/>
      </g>
      <g id="Grupo_1206274" data-name="Grupo 1206274" transform="translate(0.734 45.371)">
        <path id="Trazado_1052699" data-name="Trazado 1052699" d="M15.322,466.462a1.953,1.953,0,0,1,1.953-1.953H9.462a1.953,1.953,0,1,0,0,3.906h7.813A1.953,1.953,0,0,1,15.322,466.462Z" transform="translate(-7.509 -464.509)" fill="#e68a97"/>
      </g>
      <g id="Grupo_1206275" data-name="Grupo 1206275" transform="translate(0 0.01)">
        <path id="Trazado_1052700" data-name="Trazado 1052700" d="M249.241,241.711h1.953a.732.732,0,0,0,0-1.465h-1.221v-1.221a.732.732,0,0,0-1.465,0v1.953A.732.732,0,0,0,249.241,241.711Z" transform="translate(-224.241 -215.023)"/>
        <path id="Trazado_1052701" data-name="Trazado 1052701" d="M204.124,219.523a5.615,5.615,0,1,0-5.615-5.615A5.622,5.622,0,0,0,204.124,219.523Zm0-9.766a4.15,4.15,0,1,1-4.15,4.15A4.155,4.155,0,0,1,204.124,209.758Z" transform="translate(-179.123 -187.953)"/>
        <path id="Trazado_1052702" data-name="Trazado 1052702" d="M47.316,44.639h-.1V29.628h.1a2.686,2.686,0,0,0,2.57-3.465L46.332,14.444a2.67,2.67,0,0,0-2.57-1.906H30.829L26.9,8.609a2.67,2.67,0,0,0-1.167-.685v-.59h6.1a1.711,1.711,0,0,0,1.709-1.709V1.719A1.711,1.711,0,0,0,31.837.01H25a.732.732,0,0,0-.732.732V7.924a2.67,2.67,0,0,0-1.167.685l-3.929,3.929H6.24a2.67,2.67,0,0,0-2.57,1.906L.118,26.163a2.686,2.686,0,0,0,2.57,3.465h.1v6.041a.732.732,0,0,0,1.465,0V29.628h9.277v3.844H9.376a2.689,2.689,0,0,0-2.686,2.686V38.11A2.689,2.689,0,0,0,9.376,40.8h4.15v3.844H4.249V38.6a.732.732,0,0,0-1.465,0v6.041h-.1a2.686,2.686,0,0,0,0,5.371H47.316a2.686,2.686,0,0,0,0-5.371ZM25.734,1.475h6.1a.244.244,0,0,1,.244.244V5.625a.244.244,0,0,1-.244.244h-6.1Zm20.02,43.164H36.476V40.8h4.15a2.689,2.689,0,0,0,2.686-2.686V36.157a2.689,2.689,0,0,0-2.686-2.686h-4.15V29.628h9.277Zm-9.277-9.7h4.15a1.222,1.222,0,0,1,1.221,1.221V38.11a1.222,1.222,0,0,1-1.221,1.221h-4.15ZM43.762,14a1.214,1.214,0,0,1,1.168.867l3.552,11.719a1.221,1.221,0,0,1-1.168,1.575H36.476V24.9c.081.007.162.011.244.011a2.686,2.686,0,0,0,1.9-4.584L32.294,14ZM2.688,28.163A1.221,1.221,0,0,1,1.52,26.588L5.072,14.869A1.214,1.214,0,0,1,6.24,14H17.709l-6.325,6.325a2.686,2.686,0,0,0,1.9,4.584c.082,0,.163,0,.244-.011v3.262H2.688ZM9.376,39.331A1.222,1.222,0,0,1,8.155,38.11V36.157a1.222,1.222,0,0,1,1.221-1.221h4.15v4.395ZM14.991,24.3q.1-.081.19-.173L25,14.306l2.543,2.543a.732.732,0,1,0,1.036-1.036l-3.061-3.061a.733.733,0,0,0-1.036,0L14.146,23.09a1.221,1.221,0,1,1-1.726-1.726L24.138,9.645a1.222,1.222,0,0,1,1.726,0L37.583,21.364a1.221,1.221,0,0,1-1.726,1.726l-5.216-5.216A.732.732,0,1,0,29.6,18.91l5.216,5.216c.061.061.125.118.19.173v20.34H32.57V36.157a2.689,2.689,0,0,0-2.686-2.686H20.118a2.689,2.689,0,0,0-2.686,2.686v8.482H14.991ZM18.9,44.639V36.157a1.222,1.222,0,0,1,1.221-1.221h4.15v9.7Zm6.836-9.7h4.15A1.222,1.222,0,0,1,31.1,36.157v8.482H25.734ZM47.316,48.545H2.687a1.221,1.221,0,1,1,0-2.441H47.316a1.221,1.221,0,0,1,0,2.441Z" transform="translate(0 -0.01)"/>
      </g>
    </g>
  </g>
</svg>
