<svg xmlns="http://www.w3.org/2000/svg" xmlns:xlink="http://www.w3.org/1999/xlink" width="400" height="290" viewBox="0 0 400 290">
  <defs>
    <clipPath id="clip-path">
      <rect id="Rect치ngulo_416181" data-name="Rect치ngulo 416181" width="400" height="290" transform="translate(180 1938)" fill="#fff" stroke="#707070" stroke-width="1"/>
    </clipPath>
  </defs>
  <g id="Enmascarar_grupo_1098854" data-name="Enmascarar grupo 1098854" transform="translate(-180 -1938)" clip-path="url(#clip-path)">
    <g id="Grupo_1201241" data-name="Grupo 1201241" transform="translate(-908.557 -68.39)">
      <g id="OBJECTS" transform="translate(1116.452 2010.202)">
        <g id="Grupo_1201184" data-name="Grupo 1201184" transform="translate(7.32 0)">
          <path id="Trazado_1074921" data-name="Trazado 1074921" d="M73.067,44.7c-24.282,23.322-35.428,58.825-31.339,92.244s22.613,64.354,48.54,85.833,58.822,33.781,92.306,37.3c28.471,2.995,58.255-.394,83.4-14.076,36.705-19.972,59.469-60.053,66.464-101.25,3.353-19.748,3.385-40.658-4.389-59.119s-24.482-33.981-44.38-36.283c-21.944-2.538-43.622,10.709-65.455,7.353-14.572-2.24-26.9-11.526-40.142-18.017C144.316,22.134,98.513,20.257,73.067,44.7Z" transform="translate(-23.607 -26.28)" fill="#fefbf2"/>
          <g id="Grupo_1201183" data-name="Grupo 1201183" transform="translate(0 35.937)" opacity="0.8">
            <g id="Grupo_1201168" data-name="Grupo 1201168" transform="translate(31.268 20.635)">
              <g id="Grupo_1201159" data-name="Grupo 1201159" transform="translate(29.143)">
                <path id="Trazado_1074922" data-name="Trazado 1074922" d="M101,185.76a52.032,52.032,0,0,1-1.91-43.384A62.9,62.9,0,0,1,101,185.76Z" transform="translate(-95.255 -142.376)" fill="#d1cd5c"/>
                <path id="Trazado_1074923" data-name="Trazado 1074923" d="M100.267,167.463a199.663,199.663,0,0,1,2.348,26.147" transform="translate(-96.987 -151.046)" fill="none" stroke="#74a847" stroke-linecap="round" stroke-linejoin="round" stroke-miterlimit="10" stroke-width="1"/>
              </g>
              <g id="Grupo_1201160" data-name="Grupo 1201160" transform="translate(0 33.813)">
                <path id="Trazado_1074924" data-name="Trazado 1074924" d="M86.846,204.61a45.777,45.777,0,0,0-36.123-10.029C59.049,203.1,71.873,206.938,86.846,204.61Z" transform="translate(-50.723 -194.044)" fill="#d1cd5c"/>
                <path id="Trazado_1074925" data-name="Trazado 1074925" d="M93.356,207.949q-11.237-3.242-22.695-5.637" transform="translate(-57.613 -196.901)" fill="none" stroke="#74a847" stroke-linecap="round" stroke-linejoin="round" stroke-miterlimit="10" stroke-width="1"/>
              </g>
              <g id="Grupo_1201161" data-name="Grupo 1201161" transform="translate(43.243 16.702)">
                <path id="Trazado_1074926" data-name="Trazado 1074926" d="M120.063,213.9a57.906,57.906,0,0,1,3.341-46A61.984,61.984,0,0,1,120.063,213.9Z" transform="translate(-116.801 -167.898)" fill="#d1cd5c"/>
                <path id="Trazado_1074927" data-name="Trazado 1074927" d="M122.814,197.948a146.836,146.836,0,0,1-1.229,25.71" transform="translate(-118.455 -178.283)" fill="none" stroke="#74a847" stroke-linecap="round" stroke-linejoin="round" stroke-miterlimit="10" stroke-width="1"/>
              </g>
              <g id="Grupo_1201162" data-name="Grupo 1201162" transform="translate(11.163 53.859)">
                <path id="Trazado_1074928" data-name="Trazado 1074928" d="M104.329,235.7a42.525,42.525,0,0,0-36.548-10.246C73.526,234.666,85.609,239.393,104.329,235.7Z" transform="translate(-67.781 -224.676)" fill="#d1cd5c"/>
                <path id="Trazado_1074929" data-name="Trazado 1074929" d="M110.739,238.309a80.647,80.647,0,0,0-24.307-6.683" transform="translate(-74.226 -227.078)" fill="none" stroke="#74a847" stroke-linecap="round" stroke-linejoin="round" stroke-miterlimit="10" stroke-width="1"/>
              </g>
              <g id="Grupo_1201163" data-name="Grupo 1201163" transform="translate(53.967 38.893)">
                <path id="Trazado_1074930" data-name="Trazado 1074930" d="M134.55,243.936a47.03,47.03,0,0,1,10.307-42.129C145.878,215.846,142.329,230.18,134.55,243.936Z" transform="translate(-133.189 -201.807)" fill="#d1cd5c"/>
                <path id="Trazado_1074931" data-name="Trazado 1074931" d="M139.857,227.089q-2.285,12.756-4.571,25.512" transform="translate(-133.914 -210.544)" fill="none" stroke="#74a847" stroke-linecap="round" stroke-linejoin="round" stroke-miterlimit="10" stroke-width="1"/>
              </g>
              <g id="Grupo_1201164" data-name="Grupo 1201164" transform="translate(19.878 72.763)">
                <path id="Trazado_1074932" data-name="Trazado 1074932" d="M117.4,264.35c-3.209-5.9-9.754-9.429-16.391-10.427s-13.408.22-19.911,1.884C88.936,264.809,102.505,268.3,117.4,264.35Z" transform="translate(-81.098 -253.563)" fill="#d1cd5c"/>
                <path id="Trazado_1074933" data-name="Trazado 1074933" d="M123.829,267.524a80.934,80.934,0,0,0-25.1-5.434" transform="translate(-87.191 -256.51)" fill="none" stroke="#74a847" stroke-linecap="round" stroke-linejoin="round" stroke-miterlimit="10" stroke-width="1"/>
              </g>
              <g id="Grupo_1201165" data-name="Grupo 1201165" transform="translate(61.152 59.202)">
                <path id="Trazado_1074934" data-name="Trazado 1074934" d="M144.558,271.261a36.562,36.562,0,0,1,20.509-38.421C162.442,248.342,154.951,262.984,144.558,271.261Z" transform="translate(-144.167 -232.84)" fill="#d1cd5c"/>
                <path id="Trazado_1074935" data-name="Trazado 1074935" d="M155.782,253.684l-11.044,24.658" transform="translate(-144.365 -240.043)" fill="none" stroke="#74a847" stroke-linecap="round" stroke-linejoin="round" stroke-miterlimit="10" stroke-width="1"/>
              </g>
              <g id="Grupo_1201166" data-name="Grupo 1201166" transform="translate(28.59 89.726)">
                <path id="Trazado_1074936" data-name="Trazado 1074936" d="M128.426,291.872A36.685,36.685,0,0,0,94.41,280.1C103.2,289.115,115.071,295.069,128.426,291.872Z" transform="translate(-94.41 -279.483)" fill="#d1cd5c"/>
                <path id="Trazado_1074937" data-name="Trazado 1074937" d="M135.073,294.411a149.518,149.518,0,0,0-22.528-8.347" transform="translate(-100.677 -281.758)" fill="none" stroke="#74a847" stroke-linecap="round" stroke-linejoin="round" stroke-miterlimit="10" stroke-width="1"/>
              </g>
              <g id="Grupo_1201167" data-name="Grupo 1201167" transform="translate(4.062 2.77)">
                <path id="Trazado_1074938" data-name="Trazado 1074938" d="M81.446,178.076A39.673,39.673,0,0,0,57,146.609c-.5,5.724,1.851,11.4,5.318,15.987S70.305,170.831,81.446,178.076Z" transform="translate(-56.93 -146.609)" fill="#d1cd5c"/>
                <path id="Trazado_1074939" data-name="Trazado 1074939" d="M69.642,163.139a237.323,237.323,0,0,1,52.087,94.788" transform="translate(-61.323 -152.321)" fill="none" stroke="#74a847" stroke-linecap="round" stroke-linejoin="round" stroke-miterlimit="10" stroke-width="1"/>
              </g>
            </g>
            <g id="Grupo_1201178" data-name="Grupo 1201178" transform="translate(235.012 121.274)">
              <g id="Grupo_1201169" data-name="Grupo 1201169" transform="translate(45.789)">
                <path id="Trazado_1074940" data-name="Trazado 1074940" d="M432.243,335.026a48.265,48.265,0,0,0,10.586-38.866A58.351,58.351,0,0,0,432.243,335.026Z" transform="translate(-432.026 -296.16)" fill="#d1cd5c"/>
                <path id="Trazado_1074941" data-name="Trazado 1074941" d="M440.242,319.034a185.122,185.122,0,0,0-7.462,23.18" transform="translate(-432.287 -304.065)" fill="none" stroke="#74a847" stroke-linecap="round" stroke-linejoin="round" stroke-miterlimit="10" stroke-width="1"/>
              </g>
              <g id="Grupo_1201170" data-name="Grupo 1201170" transform="translate(44.687 34.894)">
                <path id="Trazado_1074942" data-name="Trazado 1074942" d="M430.343,354.1a42.463,42.463,0,0,1,34.733-1.7C455.805,358.407,443.417,359.265,430.343,354.1Z" transform="translate(-430.343 -349.481)" fill="#d1cd5c"/>
                <path id="Trazado_1074943" data-name="Trazado 1074943" d="M430.719,357.061q10.829-.64,21.687-.467" transform="translate(-430.473 -351.926)" fill="none" stroke="#74a847" stroke-linecap="round" stroke-linejoin="round" stroke-miterlimit="10" stroke-width="1"/>
              </g>
              <g id="Grupo_1201171" data-name="Grupo 1201171" transform="translate(30.028 11.67)">
                <path id="Trazado_1074944" data-name="Trazado 1074944" d="M409.467,356.3a53.713,53.713,0,0,0,6.368-42.306A57.5,57.5,0,0,0,409.467,356.3Z" transform="translate(-407.943 -313.993)" fill="#d1cd5c"/>
                <path id="Trazado_1074945" data-name="Trazado 1074945" d="M414.786,341.884a136.124,136.124,0,0,0-4.137,23.515" transform="translate(-408.878 -323.632)" fill="none" stroke="#74a847" stroke-linecap="round" stroke-linejoin="round" stroke-miterlimit="10" stroke-width="1"/>
              </g>
              <g id="Grupo_1201172" data-name="Grupo 1201172" transform="translate(30.005 50.605)">
                <path id="Trazado_1074946" data-name="Trazado 1074946" d="M407.923,378.587a39.446,39.446,0,0,1,35.163-1.809C436.007,383.94,424.108,385.75,407.923,378.587Z" transform="translate(-407.913 -373.488)" fill="#d1cd5c"/>
                <path id="Trazado_1074947" data-name="Trazado 1074947" d="M407.908,380.761a74.81,74.81,0,0,1,23.359-1.084" transform="translate(-407.908 -375.469)" fill="none" stroke="#74a847" stroke-linecap="round" stroke-linejoin="round" stroke-miterlimit="10" stroke-width="1"/>
              </g>
              <g id="Grupo_1201173" data-name="Grupo 1201173" transform="translate(16.445 28.526)">
                <path id="Trazado_1074948" data-name="Trazado 1074948" d="M390.57,379.975a43.625,43.625,0,0,0-.726-40.225C386.054,352.244,386.339,365.94,390.57,379.975Z" transform="translate(-387.187 -339.75)" fill="#d1cd5c"/>
                <path id="Trazado_1074949" data-name="Trazado 1074949" d="M393.436,364.412q-.536,12.009-1.073,24.019" transform="translate(-388.976 -348.273)" fill="none" stroke="#74a847" stroke-linecap="round" stroke-linejoin="round" stroke-miterlimit="10" stroke-width="1"/>
              </g>
              <g id="Grupo_1201174" data-name="Grupo 1201174" transform="translate(18.191 64.712)">
                <path id="Trazado_1074950" data-name="Trazado 1074950" d="M390.39,401.2c4.108-4.68,10.751-6.54,16.961-6.088s12.088,2.936,17.632,5.77C416.052,407.424,403.062,407.811,390.39,401.2Z" transform="translate(-390.04 -395.044)" fill="#d1cd5c"/>
                <path id="Trazado_1074951" data-name="Trazado 1074951" d="M389.855,404.207a75.059,75.059,0,0,1,23.82.207" transform="translate(-389.855 -397.917)" fill="none" stroke="#74a847" stroke-linecap="round" stroke-linejoin="round" stroke-miterlimit="10" stroke-width="1"/>
              </g>
              <g id="Grupo_1201175" data-name="Grupo 1201175" transform="translate(0 43.551)">
                <path id="Trazado_1074952" data-name="Trazado 1074952" d="M372.874,401.662a33.914,33.914,0,0,0-10.713-38.953C361.37,377.272,365.16,392.051,372.874,401.662Z" transform="translate(-362.058 -362.709)" fill="#d1cd5c"/>
                <path id="Trazado_1074953" data-name="Trazado 1074953" d="M371.069,384.528l4.959,24.567" transform="translate(-365.172 -370.249)" fill="none" stroke="#74a847" stroke-linecap="round" stroke-linejoin="round" stroke-miterlimit="10" stroke-width="1"/>
              </g>
              <g id="Grupo_1201176" data-name="Grupo 1201176" transform="translate(8.538 79.934)">
                <path id="Trazado_1074954" data-name="Trazado 1074954" d="M375.714,424.722a34.028,34.028,0,0,1,33.183-3.706C399.1,427.377,387.145,430.341,375.714,424.722Z" transform="translate(-375.315 -418.304)" fill="#d1cd5c"/>
                <path id="Trazado_1074955" data-name="Trazado 1074955" d="M375.105,426.8a138.763,138.763,0,0,1,22.089-2.953" transform="translate(-375.105 -420.219)" fill="none" stroke="#74a847" stroke-linecap="round" stroke-linejoin="round" stroke-miterlimit="10" stroke-width="1"/>
              </g>
              <g id="Grupo_1201177" data-name="Grupo 1201177" transform="translate(5.974 8.396)">
                <path id="Trazado_1074956" data-name="Trazado 1074956" d="M443.94,332.473a36.8,36.8,0,0,1,28.546-23.483c-.712,5.282-4,9.942-8.076,13.38S455.5,328.191,443.94,332.473Z" transform="translate(-396.328 -308.99)" fill="#d1cd5c"/>
                <path id="Trazado_1074957" data-name="Trazado 1074957" d="M437.669,321.374a220.14,220.14,0,0,0-66.483,75.136" transform="translate(-371.186 -313.27)" fill="none" stroke="#74a847" stroke-linecap="round" stroke-linejoin="round" stroke-miterlimit="10" stroke-width="1"/>
              </g>
            </g>
            <g id="Grupo_1201179" data-name="Grupo 1201179" transform="translate(186.297)">
              <path id="Trazado_1074958" data-name="Trazado 1074958" d="M289.768,289.9c-2.108-30.984-4.2-62.328,1.724-93.681s20.734-63.209,47.009-85.376C334.2,170.034,317.251,229.654,289.768,289.9Z" transform="translate(-287.618 -110.845)" fill="#d1cd5c"/>
              <path id="Trazado_1074959" data-name="Trazado 1074959" d="M321.446,171.083a413.285,413.285,0,0,0-29.738,133.7" transform="translate(-289.031 -131.662)" fill="none" stroke="#74a847" stroke-linecap="round" stroke-linejoin="round" stroke-miterlimit="10" stroke-width="1"/>
            </g>
            <g id="Grupo_1201180" data-name="Grupo 1201180" transform="translate(191.717 37.964)">
              <path id="Trazado_1074960" data-name="Trazado 1074960" d="M295.915,319.013c-.867-66.5,39.074-128.2,97.191-150.156C370.82,219.637,340.179,265.836,295.915,319.013Z" transform="translate(-295.901 -168.857)" fill="#d1cd5c"/>
              <path id="Trazado_1074961" data-name="Trazado 1074961" d="M362.124,217.7a406.687,406.687,0,0,0-65.991,117.322" transform="translate(-295.981 -185.735)" fill="none" stroke="#74a847" stroke-linecap="round" stroke-linejoin="round" stroke-miterlimit="10" stroke-width="1"/>
            </g>
            <g id="Grupo_1201181" data-name="Grupo 1201181" transform="translate(10.526 91.066)">
              <path id="Trazado_1074962" data-name="Trazado 1074962" d="M102.315,356.3c-5.284-25.012-11.418-50.482-24.763-71.474s-35.464-36.9-58.523-34.6C41.231,285.142,66.31,306.911,102.315,356.3Z" transform="translate(-19.029 -250)" fill="#d1cd5c"/>
              <path id="Trazado_1074963" data-name="Trazado 1074963" d="M46.35,266.521c28.264,22.708,50.807,54.091,64.453,89.728" transform="translate(-28.471 -255.709)" fill="none" stroke="#74a847" stroke-linecap="round" stroke-linejoin="round" stroke-miterlimit="10" stroke-width="1"/>
            </g>
            <g id="Grupo_1201182" data-name="Grupo 1201182" transform="translate(0 147.172)">
              <path id="Trazado_1074964" data-name="Trazado 1074964" d="M118.633,419.357c-10.909-23.964-24.888-46.916-44.707-63.095S27.711,331.4,2.944,337.9C32.455,376.092,89.455,382.705,118.633,419.357Z" transform="translate(-2.944 -335.734)" fill="#d1cd5c"/>
              <path id="Trazado_1074965" data-name="Trazado 1074965" d="M42.9,354.794a267.96,267.96,0,0,1,88.472,67.629" transform="translate(-16.753 -342.321)" fill="none" stroke="#74a847" stroke-linecap="round" stroke-linejoin="round" stroke-miterlimit="10" stroke-width="1"/>
            </g>
          </g>
        </g>
        <g id="Grupo_1201213" data-name="Grupo 1201213" transform="translate(15.673 10.452)">
          <g id="Grupo_1201200" data-name="Grupo 1201200" transform="translate(11.989)">
            <path id="Trazado_1074966" data-name="Trazado 1074966" d="M108.535,221.366c-2.275-10.213,1.216-20.831,5.816-30.23s10.391-18.336,13.191-28.418c2.686-9.672,2.471-19.87,2.818-29.9s1.372-20.38,6.208-29.178,14.353-15.7,25.254-15.818A44.376,44.376,0,0,1,229.541,129.4c-.979,10.946-5.993,21.316-6.266,32.3-.18,7.232,1.708,14.333,2.725,21.495,2.321,16.332-.17,33.8-9.313,47.469C180.363,229.726,144.113,225.982,108.535,221.366Z" transform="translate(-62.067 -81.247)" fill="#b84453"/>
            <path id="Trazado_1074967" data-name="Trazado 1074967" d="M282.9,349.638l7.226,42.967-39.452-5.078-.976-27.929Z" transform="translate(-107.337 -166.888)" fill="#eb7563"/>
            <path id="Trazado_1074968" data-name="Trazado 1074968" d="M70.517,315.693s-36.732,50.981-28.759,69.221c7.028,16.078,46.723,11.573,46.723,11.573l.539-17.279-11.125-9.489,8.59-11.7Z" transform="translate(-40.626 -156.056)" fill="#ffa382"/>
            <g id="Grupo_1201187" data-name="Grupo 1201187" transform="translate(17.925 94.227)">
              <path id="Trazado_1074969" data-name="Trazado 1074969" d="M159.016,232.394s-59.189-2.161-92.065,68.278c0,0,16.451,22.52,28.969,36.586L91,382.279l106.1,3.475s-3.027-33.879-2.76-35.612,2.444-11.33,2.444-11.33,27.029-5.856,33.1-15.774C229.887,323.038,225.562,244.093,159.016,232.394Z" transform="translate(-66.951 -223.7)" fill="#49c9a1"/>
              <g id="Grupo_1201185" data-name="Grupo 1201185" transform="translate(59.135)">
                <path id="Trazado_1074970" data-name="Trazado 1074970" d="M220.03,242.257s-12.065,28.557-31.553,26.378c-19.6-2.19-34.679-32.629-34.679-32.629,1.5-.436,15.375-7.258,16.015-7.817a9.874,9.874,0,0,0,.94-2.955v-.007c.579-2.479,1.137-5.6,1.137-5.6l39.833,16.178,7.728,6Z" transform="translate(-153.798 -219.63)" fill="#ffa382"/>
                <path id="Trazado_1074971" data-name="Trazado 1074971" d="M227.4,241.807a33.791,33.791,0,0,1-48.7-16.573v-.007c.579-2.479,1.137-5.6,1.137-5.6l39.833,16.178Z" transform="translate(-161.743 -219.63)" fill="#eb7563"/>
              </g>
              <g id="Grupo_1201186" data-name="Grupo 1201186" transform="translate(29.772 41.967)">
                <path id="Trazado_1074972" data-name="Trazado 1074972" d="M119.807,281.263c2.658,12.26,5.331,24.687,4.77,37.219s-4.736,25.395-13.9,33.959c10.659-7.773,16.1-21.223,16.816-34.4S124.732,291.835,119.807,281.263Z" transform="translate(-110.675 -281.263)" fill="#32a69c"/>
                <path id="Trazado_1074973" data-name="Trazado 1074973" d="M137.835,296.579a75.474,75.474,0,0,1-8.4,42.711c5.432-4.962,8.362-12.192,9.469-19.465S139.459,305.141,137.835,296.579Z" transform="translate(-116.661 -286.15)" fill="#32a69c"/>
                <path id="Trazado_1074974" data-name="Trazado 1074974" d="M257.829,361.774a152.448,152.448,0,0,0,1.108-52.074C264.918,326.567,264.772,345.533,257.829,361.774Z" transform="translate(-157.63 -290.337)" fill="#32a69c"/>
                <path id="Trazado_1074975" data-name="Trazado 1074975" d="M268.81,292.942a139.942,139.942,0,0,1-5.779,42.287c3.567-5.647,5.34-12.879,5.959-20.1S269.152,300.6,268.81,292.942Z" transform="translate(-159.29 -284.99)" fill="#32a69c"/>
                <path id="Trazado_1074976" data-name="Trazado 1074976" d="M203.265,378.911a261.068,261.068,0,0,1-18.558,34.053c5.344-2.871,9.241-7.941,11.794-13.443S200.4,388.046,203.265,378.911Z" transform="translate(-134.298 -312.422)" fill="#32a69c"/>
              </g>
            </g>
            <g id="Grupo_1201199" data-name="Grupo 1201199" transform="translate(64.121 22.091)">
              <path id="Trazado_1074977" data-name="Trazado 1074977" d="M236.15,145.4s-2.3,13.543-5.209,26.215c-2.084,9.09-4.48,17.738-6.571,20.618-.334.463-.674.933-1.028,1.409-4.882,6.646-11.453,14.313-23.662,13.182-5.849-.538-14.292-3.6-22.266-10.391a57.133,57.133,0,0,1-13.652-17.424V179a77.014,77.014,0,0,1-7.544-24.057s6.312-4.528,8.593-9.8a21.612,21.612,0,0,1-3.064,1.083s6.244-4.589,6.775-7.306l-2.805.967s6.646-4.753,7.129-8.525l-3.125.552s12.256-10.615,14.851-18.228c0,0,6.9,11.187,22.525,17.241C216.458,134.567,229.007,133.47,236.15,145.4Z" transform="translate(-141.631 -113.69)" fill="#ffa382"/>
              <g id="Grupo_1201188" data-name="Grupo 1201188" transform="translate(0 37.861)">
                <path id="Trazado_1074978" data-name="Trazado 1074978" d="M152.04,175.225a14.345,14.345,0,0,0-6.373-5.339,8.193,8.193,0,0,0-7.926.963c-3.456,2.756-3.546,8.238-1.934,12.425a20.484,20.484,0,0,0,8.881,10.385,19.52,19.52,0,0,0,13.259,2.183C155.074,189.291,156.135,181.027,152.04,175.225Z" transform="translate(-134.794 -169.294)" fill="#ffa382"/>
                <path id="Trazado_1074979" data-name="Trazado 1074979" d="M146.365,179.465a8.995,8.995,0,0,0-3.695.567,4.646,4.646,0,0,0-2.619,2.557c-.7,1.9.257,4.005,1.489,5.607a16.413,16.413,0,0,0,6.132,4.886c1.854.851,4.211,1.288,5.805.015a4.312,4.312,0,0,0,1.337-4.068,9.027,9.027,0,0,0-1.988-3.975A24.29,24.29,0,0,0,146.365,179.465Z" transform="translate(-136.397 -172.538)" fill="#eb7563"/>
                <path id="Trazado_1074980" data-name="Trazado 1074980" d="M140.066,181.741a5.372,5.372,0,0,1,4.83-2.213,8.822,8.822,0,0,1,4.976,2.261,27.73,27.73,0,0,1,3.76,4.215" transform="translate(-136.477 -172.555)" fill="none" stroke="#c43945" stroke-linecap="round" stroke-linejoin="round" stroke-miterlimit="10" stroke-width="2"/>
              </g>
              <g id="Grupo_1201198" data-name="Grupo 1201198" transform="translate(22.133 20.67)">
                <path id="Trazado_1074981" data-name="Trazado 1074981" d="M204.129,151.782a13.268,13.268,0,0,0-25.3,4.551C184.754,150.575,193.827,148.284,204.129,151.782Z" transform="translate(-170.977 -144.047)" fill="#b84453"/>
                <path id="Trazado_1074982" data-name="Trazado 1074982" d="M268.767,153.905a8.165,8.165,0,0,0-5.548-5.944,10.874,10.874,0,0,0-7.978.939,13.825,13.825,0,0,0-6.221,6.256c3.2-1.6,6.469-1.742,9.778-1.648a11.894,11.894,0,0,1,8.936,3.949C268.06,156.325,268.384,155.193,268.767,153.905Z" transform="translate(-193.376 -145.171)" fill="#b84453"/>
                <path id="Trazado_1074983" data-name="Trazado 1074983" d="M238.76,196.672a12.369,12.369,0,0,0,.524,4.062,4.829,4.829,0,0,1-2.308,5.683l-.044.022" transform="translate(-189.518 -160.839)" fill="none" stroke="#c43945" stroke-linecap="round" stroke-linejoin="round" stroke-miterlimit="10" stroke-width="2"/>
                <path id="Trazado_1074984" data-name="Trazado 1074984" d="M226.719,216.3a15,15,0,0,1-7.883-2.037,9.839,9.839,0,0,0-2.042-1.086,2.294,2.294,0,0,0-2.193.319,2.807,2.807,0,0,0-.692,2.235,9.305,9.305,0,0,0,16.94,5,3.289,3.289,0,0,0,.692-2.875,2.654,2.654,0,0,0-2.1-1.557A15.038,15.038,0,0,0,226.719,216.3Z" transform="translate(-182.17 -166.062)" fill="#fff"/>
                <g id="Grupo_1201191" data-name="Grupo 1201191" transform="translate(10.499 15.919)">
                  <path id="Trazado_1074985" data-name="Trazado 1074985" d="M185.3,180.28c0-5.686,5.291-11.147,10.977-11.147s8.682,3.125,9.684,9.256c1.049,6.411-1.849,11.245-7.535,11.245C192.8,189.635,185.3,185.966,185.3,180.28Z" transform="translate(-183.543 -167.97)" fill="#fff"/>
                  <g id="Grupo_1201189" data-name="Grupo 1201189" transform="translate(11.541 8.742)">
                    <path id="Trazado_1074986" data-name="Trazado 1074986" d="M199.794,185.554c.661-3.529,3.738-5.846,6.872-5.174s5.139,4.077,4.478,7.606-3.738,5.846-6.873,5.174S199.133,189.084,199.794,185.554Z" transform="translate(-199.668 -180.264)" fill="#4f2b36"/>
                    <path id="Trazado_1074987" data-name="Trazado 1074987" d="M203.646,183.669c.856-1.3,2.333-1.8,3.3-1.116s1.058,2.3.2,3.6-2.333,1.8-3.3,1.116S202.79,184.971,203.646,183.669Z" transform="translate(-200.75 -180.896)" fill="#fff"/>
                  </g>
                  <g id="Grupo_1201190" data-name="Grupo 1201190">
                    <path id="Trazado_1074988" data-name="Trazado 1074988" d="M203.286,171.007c-6.258-2.757-13.863-1.227-17.635,4.614a16.257,16.257,0,0,0-2.548,6.372c-1.461-4.962,1.39-10.666,5.946-13.109,4.526-2.495,10.86-1.792,14.237,2.123Z" transform="translate(-182.718 -167.425)" fill="#4f2b36"/>
                  </g>
                </g>
                <g id="Grupo_1201194" data-name="Grupo 1201194" transform="translate(54.05 16.42)">
                  <path id="Trazado_1074989" data-name="Trazado 1074989" d="M248.542,177.528c2.658-5.8,7.041-7.02,10.6-7.154,5.65-.212,3.364,8.1,1.548,12.516-1.9,4.617-5.076,7.958-9.613,6.535C247.678,188.359,246.462,182.065,248.542,177.528Z" transform="translate(-246.947 -168.867)" fill="#fff"/>
                  <g id="Grupo_1201192" data-name="Grupo 1201192" transform="translate(0 8.33)">
                    <path id="Trazado_1074990" data-name="Trazado 1074990" d="M247.32,184.472c1.384-3.3,4.555-4.925,7.084-3.632s3.456,5.014,2.073,8.313-4.555,4.925-7.084,3.632S245.936,187.77,247.32,184.472Z" transform="translate(-246.678 -180.396)" fill="#4f2b36"/>
                    <path id="Trazado_1074991" data-name="Trazado 1074991" d="M251.482,183.166c1.034-1.093,2.416-1.277,3.085-.413s.373,2.452-.661,3.544-2.416,1.277-3.085.413S250.448,184.259,251.482,183.166Z" transform="translate(-247.886 -180.974)" fill="#fff"/>
                  </g>
                  <g id="Grupo_1201193" data-name="Grupo 1201193" transform="translate(2.64)">
                    <path id="Trazado_1074992" data-name="Trazado 1074992" d="M250.555,172.8c1.724-4.651,8.274-5.81,12.286-3.439,1.356.783,2.666,2.319,2.472,3.955a5.775,5.775,0,0,0-3.339-2,16.022,16.022,0,0,0-11.42,1.48Z" transform="translate(-250.555 -168.162)" fill="#4f2b36"/>
                  </g>
                </g>
                <g id="Grupo_1201195" data-name="Grupo 1201195" transform="translate(56.943 37.255)">
                  <path id="Trazado_1074993" data-name="Trazado 1074993" d="M261.162,198.76c-2.084,9.09-4.48,17.738-6.571,20.618-.334.463-.674.933-1.028,1.409a22.973,22.973,0,0,1-2.513-7.667,13.966,13.966,0,0,1,3.146-11.133A10.186,10.186,0,0,1,261.162,198.76Z" transform="translate(-250.926 -198.76)" fill="#eb6563"/>
                  <path id="Trazado_1074994" data-name="Trazado 1074994" d="M258.3,210.437l-1.558,4.117" transform="translate(-252.782 -202.486)" fill="none" stroke="#c43945" stroke-linecap="round" stroke-linejoin="round" stroke-miterlimit="10" stroke-width="2"/>
                </g>
                <g id="Grupo_1201197" data-name="Grupo 1201197" transform="translate(0 37.019)">
                  <path id="Trazado_1074995" data-name="Trazado 1074995" d="M186.657,220.527a17.3,17.3,0,0,1-5.706,2.942A57.133,57.133,0,0,1,167.3,206.044v-.007a12.457,12.457,0,1,1,19.358,14.49Z" transform="translate(-167.299 -198.414)" fill="#eb6563"/>
                  <g id="Grupo_1201196" data-name="Grupo 1201196" transform="translate(8.164 6.178)">
                    <path id="Trazado_1074996" data-name="Trazado 1074996" d="M179.734,212.234l-.445,5.118" transform="translate(-179.289 -209.002)" fill="none" stroke="#c43945" stroke-linecap="round" stroke-linejoin="round" stroke-miterlimit="10" stroke-width="2"/>
                    <path id="Trazado_1074997" data-name="Trazado 1074997" d="M185.895,207.487l1.254,9.69" transform="translate(-181.397 -207.487)" fill="none" stroke="#c43945" stroke-linecap="round" stroke-linejoin="round" stroke-miterlimit="10" stroke-width="2"/>
                    <path id="Trazado_1074998" data-name="Trazado 1074998" d="M193.475,211.581q-.557,2.058-1.113,4.117" transform="translate(-183.46 -208.793)" fill="none" stroke="#c43945" stroke-linecap="round" stroke-linejoin="round" stroke-miterlimit="10" stroke-width="2"/>
                  </g>
                </g>
              </g>
            </g>
          </g>
          <g id="Grupo_1201212" data-name="Grupo 1201212" transform="translate(0 186.327)">
            <g id="Grupo_1201205" data-name="Grupo 1201205" transform="translate(106.366)">
              <g id="Grupo_1201204" data-name="Grupo 1201204">
                <g id="Grupo_1201201" data-name="Grupo 1201201" transform="translate(42.706 20.447)">
                  <path id="Trazado_1074999" data-name="Trazado 1074999" d="M278.473,425.169a16.6,16.6,0,0,1-5.972,2.084c-12.713,1.893-30.552-22.606-30.552-22.606l4.3-19.726s.974.231,2.628.654c8.471,2.165,34.692,9.369,37.995,16.335C290.13,408.786,286.875,420.307,278.473,425.169Z" transform="translate(-241.949 -384.92)" fill="#eb7563"/>
                </g>
                <g id="Grupo_1201203" data-name="Grupo 1201203">
                  <path id="Trazado_1075000" data-name="Trazado 1075000" d="M196.658,377.949a4.39,4.39,0,0,0-3.043.884,29.65,29.65,0,0,0-2.457,2.116,15.585,15.585,0,0,1-7.6,3.562,5.78,5.78,0,0,1-2.4,0,2.588,2.588,0,0,1-1.8-1.477c-.59-1.553.887-3.194,2.214-4.024a7.242,7.242,0,0,0,2.8-3.012c1.183-2.536,1.57-5.007,2.577-6.326,2.283-2.991,6.405-3.755,10.345-4.049a52.93,52.93,0,0,1,13.978-9.576c1.606-.755,3.39-1.443,5.115-1.025a5.476,5.476,0,0,1,3.493,3.1,11.306,11.306,0,0,1,.767,5.44,27.839,27.839,0,0,1,3.02,2.617,19.087,19.087,0,0,1,5.511,12.589,71.623,71.623,0,0,1-.591,13.469,7.906,7.906,0,0,1-5.026,6.388,23.772,23.772,0,0,1-6.881,1.384,4.2,4.2,0,0,1-3.979-2.347,15.736,15.736,0,0,1-.692-1.67,7.865,7.865,0,0,1-4.463-6.52,4.059,4.059,0,0,1-3.751-1.749,4.111,4.111,0,0,1,.05-4.425A14.808,14.808,0,0,1,196.658,377.949Z" transform="translate(-179.23 -354.891)" fill="#ffa382"/>
                  <g id="Grupo_1201202" data-name="Grupo 1201202" transform="translate(25.303 8.238)">
                    <path id="Trazado_1075001" data-name="Trazado 1075001" d="M235.842,368.461q-.158,4.416-.316,8.833c-.044,1.23-.171,2.629-1.149,3.377a2.834,2.834,0,0,1-3.534-.467,7.229,7.229,0,0,1-1.71-3.432,75.433,75.433,0,0,1-1.753-9.781" transform="translate(-219.898 -366.99)" fill="none" stroke="#c43945" stroke-linecap="round" stroke-linejoin="round" stroke-miterlimit="10" stroke-width="2"/>
                    <path id="Trazado_1075002" data-name="Trazado 1075002" d="M222.41,373.885l3.28-.8" transform="translate(-218.312 -368.933)" fill="none" stroke="#c43945" stroke-linecap="round" stroke-linejoin="round" stroke-miterlimit="10" stroke-width="2"/>
                    <path id="Trazado_1075003" data-name="Trazado 1075003" d="M236.793,389.288a53.624,53.624,0,0,1-6.507,7.055,17.973,17.973,0,0,1-8.477,4.277" transform="translate(-218.12 -374.105)" fill="none" stroke="#c43945" stroke-linecap="round" stroke-linejoin="round" stroke-miterlimit="10" stroke-width="2"/>
                    <path id="Trazado_1075004" data-name="Trazado 1075004" d="M224.949,380.914a91.741,91.741,0,0,0-8.558,10.076" transform="translate(-216.391 -371.433)" fill="none" stroke="#c43945" stroke-linecap="round" stroke-linejoin="round" stroke-miterlimit="10" stroke-width="2"/>
                    <path id="Trazado_1075005" data-name="Trazado 1075005" d="M240.952,404.388a24.924,24.924,0,0,1-12.751,6.836" transform="translate(-220.159 -378.923)" fill="none" stroke="#c43945" stroke-linecap="round" stroke-linejoin="round" stroke-miterlimit="10" stroke-width="2"/>
                  </g>
                </g>
              </g>
              <path id="Trazado_1075006" data-name="Trazado 1075006" d="M262.4,388.578a154.319,154.319,0,0,1,22.822,6.624" transform="translate(-205.77 -365.64)" fill="none" stroke="#c43945" stroke-linecap="round" stroke-linejoin="round" stroke-miterlimit="10" stroke-width="2"/>
            </g>
            <g id="Grupo_1201207" data-name="Grupo 1201207" transform="translate(0 20.514)">
              <g id="Grupo_1201206" data-name="Grupo 1201206">
                <path id="Trazado_1075007" data-name="Trazado 1075007" d="M119.435,416.464C107.8,415.129,102.46,418.1,102.46,418.1L23.352,396.043l-.334-.1.824-4.528.143-.79a37.616,37.616,0,0,1,8.559-1.219c13.8-.552,29.218,4.678,34.645,6.714,1.294.483,2.022.79,2.022.79l6.673-5.74Z" transform="translate(-23.018 -386.408)" fill="#b84453"/>
                <path id="Trazado_1075008" data-name="Trazado 1075008" d="M90.581,395.523,90,398.386l57.168,23.852s12.137-18.248,30.625-16.713l-68.016-20.506S93.557,386.595,90.581,395.523Z" transform="translate(-44.39 -385.019)" fill="#ff6e70"/>
              </g>
              <path id="Trazado_1075009" data-name="Trazado 1075009" d="M70.758,399.414c-.729-.007-1.457.1-2.145.143-7.476-3.173-15.266-5.795-23.335-6.659a42.906,42.906,0,0,0-21.925,2.989l-.334-.1.824-4.528a41.5,41.5,0,0,1,8.7-2.009A64.535,64.535,0,0,1,54.954,390.9c4.262,1,8.648,2.4,12.236,5.066A18.536,18.536,0,0,1,70.758,399.414Z" transform="translate(-23.018 -386.251)" fill="#ff6e70"/>
            </g>
            <g id="Grupo_1201211" data-name="Grupo 1201211" transform="translate(0.184 15.309)">
              <g id="Grupo_1201209" data-name="Grupo 1201209" transform="translate(48.899 8.497)">
                <path id="Trazado_1075010" data-name="Trazado 1075010" d="M95.849,412.626a5.245,5.245,0,0,1-.321-4.809c.567-1.574,1.543-2.965,2.255-4.478a6.455,6.455,0,0,0,.588-4.852c-.338-.936-1.03-1.884-.707-2.826.365-1.065,1.806-1.314,2.886-1a6.642,6.642,0,0,1,4.222,5.092,25.543,25.543,0,0,1,.561,6.909c1.352,1.416,2.7,2.657,4.057,4.073" transform="translate(-95.103 -391.348)" fill="#ffa382"/>
                <path id="Trazado_1075011" data-name="Trazado 1075011" d="M95.1,419.324a66.234,66.234,0,0,0,24.874,7.007c10.656.536,22.121-5.609,27.989-15.392.618-1.031,1.179-2.348.56-3.378a2.515,2.515,0,0,0-3.332-.528,9.694,9.694,0,0,0-2.572,2.675,4.928,4.928,0,0,1-2.975,2.1,18.409,18.409,0,0,0,3.132-5.914,6.253,6.253,0,0,0-1.558-6.2,2.758,2.758,0,0,0-.807-3.435,3.734,3.734,0,0,0-3.918.208,13.956,13.956,0,0,0-2.966,2.871,34.323,34.323,0,0,1-18.385,10.771,26.319,26.319,0,0,0,6.264-17.985,3.089,3.089,0,0,0-.243-1.258,2.053,2.053,0,0,0-2.044-1,3.675,3.675,0,0,0-2.107,1.1c-2.235,2.157-2.534,5.585-3.915,8.368a15.275,15.275,0,0,1-6.787,6.458,33.443,33.443,0,0,1-8.786,2.921A25.407,25.407,0,0,0,95.1,419.324Z" transform="translate(-95.103 -389.854)" fill="#ffa382"/>
                <g id="Grupo_1201208" data-name="Grupo 1201208" transform="translate(28.592 13.449)">
                  <path id="Trazado_1075012" data-name="Trazado 1075012" d="M137.094,421.692A26.677,26.677,0,0,0,151.417,409.6" transform="translate(-137.094 -409.605)" fill="none" stroke="#c43945" stroke-linecap="round" stroke-linejoin="round" stroke-miterlimit="10" stroke-width="2"/>
                  <path id="Trazado_1075013" data-name="Trazado 1075013" d="M151.4,427.782a11.937,11.937,0,0,0,5.98-5.157" transform="translate(-141.659 -413.76)" fill="none" stroke="#c43945" stroke-linecap="round" stroke-linejoin="round" stroke-miterlimit="10" stroke-width="2"/>
                </g>
              </g>
              <g id="Grupo_1201210" data-name="Grupo 1201210">
                <path id="Trazado_1075014" data-name="Trazado 1075014" d="M31.579,384.708l-6.226-7.2a78.473,78.473,0,0,1,33.107,5.28c4.89,1.92,10.046,4.862,11.821,9.741A135.114,135.114,0,0,0,31.579,384.708Z" transform="translate(-23.947 -377.374)" fill="#fff"/>
                <path id="Trazado_1075015" data-name="Trazado 1075015" d="M181.831,412.438c-.15-.027-.3-.054-.449-.075-23.607-4.106-46.159-7.531-68.711-10.956-6.36-8.784-16.628-17.3-30.035-15.218a19.378,19.378,0,0,0-13.5,10.125c-13.257-8.144-30.26-9.873-45.635-4.821-.075-2.124-.143-4.249-.218-6.373a55.76,55.76,0,0,1,45.982,6.843c2.043-4.7,6.489-7.967,11.378-9.635.626-.218,1.26-.4,1.9-.565,5.6-1.416,11.487-1.049,17.247-.565,23.389,1.988,47.139,6.1,67.662,17.5C173.361,401.979,179.244,406.194,181.831,412.438Z" transform="translate(-23.288 -378.457)" fill="#ebe0d8"/>
                <path id="Trazado_1075016" data-name="Trazado 1075016" d="M208.711,412.438c-.15-.027-.3-.054-.449-.075-6.128-3.534-13.3-4.787-20.155-5.9q-22.868-3.7-45.744-7.4c-5.25-6.312-11.807-12.413-19.862-15.416a27.961,27.961,0,0,0-14.973-1.321c.626-.218,1.26-.4,1.9-.565,5.6-1.416,11.487-1.049,17.247-.565,23.389,1.988,47.139,6.1,67.662,17.5C200.241,401.979,206.124,406.194,208.711,412.438Z" transform="translate(-50.168 -378.457)" fill="#fff"/>
              </g>
            </g>
          </g>
        </g>
        <g id="Grupo_1201227" data-name="Grupo 1201227" transform="translate(178.767 93.031)">
          <path id="Trazado_1075017" data-name="Trazado 1075017" d="M282.452,381.731,262.541,403.84l8.374,16.269L296.158,405Z" transform="translate(-262.541 -259.707)" fill="#ffa382"/>
          <g id="Grupo_1201216" data-name="Grupo 1201216" transform="translate(15.334 81.066)">
            <path id="Trazado_1075018" data-name="Trazado 1075018" d="M390.541,413.449l-75.547,3.813-3.439-22.2-7.905,1.512c-9.512-5.216-18.589-24.629-18.589-24.629s14.544-15.852,21.959-19.985c2.683-1.5,8.818-2.424,15.858-2.812,12.406-.681,27.652.293,31.894,2.669.531.3,1.055.62,1.58.96C377.229,366.384,390.541,413.449,390.541,413.449Z" transform="translate(-285.061 -330.31)" fill="#ff9e3d"/>
            <path id="Trazado_1075019" data-name="Trazado 1075019" d="M372.19,352.78c-9.56,4.971-18.031,12.215-27.618,17.309-2.295,1.219-5.155,2.308-7.381.967-2.2-1.335-2.594-4.337-2.479-6.9a36.507,36.507,0,0,1,4-15c12.406-.681,27.652.293,31.894,2.669C371.141,352.119,371.665,352.439,372.19,352.78Z" transform="translate(-300.898 -330.31)" fill="#de662a"/>
            <g id="Grupo_1201214" data-name="Grupo 1201214" transform="translate(35.353)">
              <path id="Trazado_1075020" data-name="Trazado 1075020" d="M369.025,341.987s-26,19.018-29.715,15.3c-3.418-3.411.293-12.365.912-13.782.054-.123.082-.191.082-.191L336.981,331.9l20.291-10.316.2.109,7.116,3.772Z" transform="translate(-336.981 -321.58)" fill="#ffa382"/>
              <path id="Trazado_1075021" data-name="Trazado 1075021" d="M357.476,321.689a26.547,26.547,0,0,1-17.254,21.816c.054-.123.082-.191.082-.191L336.981,331.9l20.291-10.316Z" transform="translate(-336.981 -321.58)" fill="#eb7563"/>
            </g>
            <g id="Grupo_1201215" data-name="Grupo 1201215" transform="translate(16.222 29.97)">
              <path id="Trazado_1075022" data-name="Trazado 1075022" d="M318.837,365.6q.725,17.438,3.1,34.754A52.108,52.108,0,0,1,318.837,365.6Z" transform="translate(-311.529 -365.595)" fill="#de662a"/>
              <path id="Trazado_1075023" data-name="Trazado 1075023" d="M309.291,375.366A40.567,40.567,0,0,0,318.743,399C311.549,394.545,307.55,385.454,309.291,375.366Z" transform="translate(-308.886 -368.713)" fill="#de662a"/>
            </g>
          </g>
          <g id="Grupo_1201224" data-name="Grupo 1201224" transform="translate(26.45)">
            <path id="Trazado_1075024" data-name="Trazado 1075024" d="M321.816,245.886a19.861,19.861,0,0,1,9.971-33.853,14.01,14.01,0,0,0-11.407,3.191c3.633-7.21,11.5-11.744,19.531-12.552s16.14,1.744,23.072,5.885,12.822,9.8,19.665,15.926a43.443,43.443,0,0,1,13.122,59.51,25.813,25.813,0,0,0-.492-13.39,27.335,27.335,0,0,1-16.25,23.4q1.15-5.314,2.3-10.628a40.873,40.873,0,0,1-22.448,11.974c-3.305-10.223-6.654-20.544-12.143-29.779S333.352,248.146,321.816,245.886Z" transform="translate(-305.962 -202.524)" fill="#4f2b36"/>
            <path id="Trazado_1075025" data-name="Trazado 1075025" d="M341.988,224.538A31.39,31.39,0,0,0,321.9,245.794a8.9,8.9,0,0,1,1.36-10.184,25.979,25.979,0,0,0-4.773,4.666,14.187,14.187,0,0,0-3.111,8.566,25.736,25.736,0,0,1-1.3,8.454c-1.488,4.075-5,7.728-9.407,7.865a5.057,5.057,0,0,0-1.384.182c-2.664.848-2.082,3.492-.887,6.581a19.385,19.385,0,0,0-.278,5.159,69.187,69.187,0,0,0,13.318-2.043,14.6,14.6,0,0,1-2.555,9.385,16.193,16.193,0,0,1-8.14,5.912,54.825,54.825,0,0,0,3.4,10.523,7.815,7.815,0,0,0,7.261,4.6c11.586-.183,23.7-1.626,31.324-12.989a5.578,5.578,0,0,0,4.115,3.629,12.663,12.663,0,0,0,5.7-.175c4.843-1.027,9.926-3.517,11.648-8.159a9.548,9.548,0,0,0-3.583-10.953,9.052,9.052,0,0,0-11.72,1.8,48.386,48.386,0,0,1,4.61-24.859,27.754,27.754,0,0,0-5.451,12.429,21.822,21.822,0,0,1-4.234-14.967,22.2,22.2,0,0,1,6.992-14.058,23.324,23.324,0,0,0-9.672,17.5A15.86,15.86,0,0,1,332.575,241.2C331.845,234.671,335.8,227.887,341.988,224.538Z" transform="translate(-301.387 -209.549)" fill="#ffa382"/>
            <g id="Grupo_1201223" data-name="Grupo 1201223" transform="translate(14.415 29.567)">
              <path id="Trazado_1075026" data-name="Trazado 1075026" d="M328.34,248.919a9.524,9.524,0,0,1,15.786,10.121C341.255,253.594,335.265,249.941,328.34,248.919Z" transform="translate(-324.402 -245.947)" fill="#4f2b36"/>
              <g id="Grupo_1201219" data-name="Grupo 1201219" transform="translate(0 11.925)">
                <path id="Trazado_1075027" data-name="Trazado 1075027" d="M331.609,264.306c-3.4-.588-6.21,3.243-7.722,7.5a15.483,15.483,0,0,0,.519,9.96c3.992.141,10.922-.711,14.186-2.846C339.06,273.767,337.092,265.256,331.609,264.306Z" transform="translate(-322.789 -263.711)" fill="#fff"/>
                <g id="Grupo_1201217" data-name="Grupo 1201217" transform="translate(0 3.798)">
                  <path id="Trazado_1075028" data-name="Trazado 1075028" d="M323.079,274.417c1.081-3.5,3.487-5.872,5.373-5.29s2.54,3.894,1.459,7.4-3.487,5.872-5.373,5.29S322,277.921,323.079,274.417Z" transform="translate(-322.557 -269.039)" fill="#4f2b36"/>
                  <path id="Trazado_1075029" data-name="Trazado 1075029" d="M325.725,273.007c.826-1.257,2.069-1.9,2.776-1.435s.611,1.86-.216,3.117-2.069,1.9-2.776,1.435S324.9,274.264,325.725,273.007Z" transform="translate(-323.348 -269.799)" fill="#fff"/>
                </g>
                <g id="Grupo_1201218" data-name="Grupo 1201218" transform="translate(3.254)">
                  <path id="Trazado_1075030" data-name="Trazado 1075030" d="M327.336,265.282c3.441-3.346,9.575-1.759,12.06,2.142a11.527,11.527,0,0,1,1.377,9.78,13.722,13.722,0,0,1-1.244,2.971,40.566,40.566,0,0,0-.381-6.078c-.857-5.831-5.674-10.338-11.812-8.816Z" transform="translate(-327.336 -263.46)" fill="#4f2b36"/>
                </g>
              </g>
              <g id="Grupo_1201221" data-name="Grupo 1201221" transform="translate(1.231 28.604)">
                <ellipse id="Elipse_13502" data-name="Elipse 13502" cx="11.234" cy="8.853" rx="11.234" ry="8.853" transform="translate(0 5.026) rotate(-12.926)" fill="#eb6563"/>
                <g id="Grupo_1201220" data-name="Grupo 1201220" transform="translate(6.158 6.907)">
                  <path id="Trazado_1075031" data-name="Trazado 1075031" d="M335.194,302.172l-1.785,4.054" transform="translate(-333.409 -299.399)" fill="none" stroke="#c43945" stroke-linecap="round" stroke-linejoin="round" stroke-miterlimit="10" stroke-width="2"/>
                  <path id="Trazado_1075032" data-name="Trazado 1075032" d="M344,298.1q-.467,4.218-.933,8.437" transform="translate(-336.492 -298.099)" fill="none" stroke="#c43945" stroke-linecap="round" stroke-linejoin="round" stroke-miterlimit="10" stroke-width="2"/>
                  <path id="Trazado_1075033" data-name="Trazado 1075033" d="M350.742,302.9q-.449,1.5-.9,3" transform="translate(-338.653 -299.63)" fill="none" stroke="#c43945" stroke-linecap="round" stroke-linejoin="round" stroke-miterlimit="10" stroke-width="2"/>
                </g>
              </g>
              <g id="Grupo_1201222" data-name="Grupo 1201222" transform="translate(34.767 41.279)">
                <path id="Trazado_1075034" data-name="Trazado 1075034" d="M387.734,310.265a7.909,7.909,0,0,0-13.68,1.771,4.98,4.98,0,0,0-.356,2.858,4.521,4.521,0,0,0,3.069,3.16,8.342,8.342,0,0,0,4.551.007,9.72,9.72,0,0,0,4.839-2.59C387.431,314.125,388.908,311.841,387.734,310.265Z" transform="translate(-373.616 -306.734)" fill="#eb7563"/>
                <path id="Trazado_1075035" data-name="Trazado 1075035" d="M387.87,310.007a7.652,7.652,0,0,0-7.848-3.266,8.709,8.709,0,0,0-6.11,6.5" transform="translate(-373.71 -306.57)" fill="none" stroke="#c43945" stroke-linecap="round" stroke-linejoin="round" stroke-miterlimit="10" stroke-width="2"/>
              </g>
            </g>
          </g>
          <g id="Grupo_1201226" data-name="Grupo 1201226" transform="translate(70.869 99.163)">
            <path id="Trazado_1075036" data-name="Trazado 1075036" d="M418.112,383.392s12.585,21.344,12.009,32.225l-22.635-4.666-4.751-14.428Z" transform="translate(-378.144 -359.4)" fill="#eb7563"/>
            <path id="Trazado_1075037" data-name="Trazado 1075037" d="M366.707,365.03s4.111-16.138,16.612-16.863c12.911-.749,33.924,36.559,33.924,36.559s-15.886,8.843-28.542,13.468C388.7,398.194,372.331,380.345,366.707,365.03Z" transform="translate(-366.648 -348.157)" fill="#ff9e3d"/>
            <g id="Grupo_1201225" data-name="Grupo 1201225" transform="translate(0 21.674)">
              <path id="Trazado_1075038" data-name="Trazado 1075038" d="M371.276,379.988c2.457,11.848,9.859,21.975,17.07,31.691C379.354,404.52,373.254,393.827,371.276,379.988Z" transform="translate(-368.107 -379.988)" fill="#de662a"/>
              <path id="Trazado_1075039" data-name="Trazado 1075039" d="M366.637,388.22a41.641,41.641,0,0,0,15.345,20.8,20.161,20.161,0,0,1-11.4-7.623A21.173,21.173,0,0,1,366.637,388.22Z" transform="translate(-366.621 -382.615)" fill="#de662a"/>
            </g>
          </g>
        </g>
        <rect id="Rect치ngulo_416180" data-name="Rect치ngulo 416180" width="340.455" height="35.629" transform="translate(0 259.559)" fill="#d49950"/>
        <g id="Grupo_1201240" data-name="Grupo 1201240" transform="translate(102.077 212.5)">
          <g id="Grupo_1201230" data-name="Grupo 1201230" transform="translate(0 44.474)">
            <path id="Trazado_1075040" data-name="Trazado 1075040" d="M175.424,457.5l-25.512,5.335V466.1l31.794,3.865v1.109l6.108.594.314-1.151,42.741,4.472,40.437-13-.528-4.229Z" transform="translate(-149.912 -447.828)" fill="#74a847"/>
            <g id="Grupo_1201229" data-name="Grupo 1201229">
              <path id="Trazado_1075041" data-name="Trazado 1075041" d="M167.086,457.177l-16.727,1.512.537,4.145s25.462,2.1,31.895,4.243l.349,1.281,3.45.478.436-1.351s35.057,1.768,43.653,4.306l40.546-12.128.646-3.189Z" transform="translate(-150.055 -447.5)" fill="#ebe0d8"/>
              <g id="Grupo_1201228" data-name="Grupo 1201228">
                <path id="Trazado_1075042" data-name="Trazado 1075042" d="M200.18,461.225a433.749,433.749,0,0,1,48.774-11.454s16-2.528,38.814,4.42L246.847,466A131.784,131.784,0,0,0,200.18,461.225Z" transform="translate(-165.952 -445.218)" fill="#fff"/>
                <path id="Trazado_1075043" data-name="Trazado 1075043" d="M199.809,456.792,184.14,459.3s-17.5-6.329-34.228-4.651l50.233-10.669a60.364,60.364,0,0,1,35.283,5.317Z" transform="translate(-149.912 -443.294)" fill="#fff"/>
              </g>
              <path id="Trazado_1075044" data-name="Trazado 1075044" d="M199.639,461.7A335.7,335.7,0,0,1,247.945,450.1" transform="translate(-165.779 -445.467)" fill="none" stroke="#ebe0d8" stroke-linecap="round" stroke-linejoin="round" stroke-miterlimit="10" stroke-width="1"/>
            </g>
          </g>
          <g id="Grupo_1201232" data-name="Grupo 1201232" transform="translate(97.958 22.77)">
            <g id="Grupo_1201231" data-name="Grupo 1201231" transform="translate(0 5.687)">
              <path id="Trazado_1075045" data-name="Trazado 1075045" d="M338.848,430.191c-6.6-5.976-19.485-10.42-23.94-10.42-5.886,0-18.675,8.482-20.793,13.844a3.744,3.744,0,0,0-.157,2.675,2.264,2.264,0,0,0,2.077,1.37,3,3,0,0,0,3.787,4.6c-.967.773-.376,2.5.754,3a5.208,5.208,0,0,0,3.624-.189,61.883,61.883,0,0,0,8.584-3.4,10.911,10.911,0,0,0-4.775,4.194,2.176,2.176,0,0,0-.427,1.66c.347,1.244,2.15,1.1,3.366.663,5.1-1.83,10.109-3.939,15.125-5.893a22.878,22.878,0,0,0,15.9.13C340.885,438.053,339.8,433.675,338.848,430.191Z" transform="translate(-293.776 -419.771)" fill="#ffa382"/>
              <path id="Trazado_1075046" data-name="Trazado 1075046" d="M298.167,440.956A64.156,64.156,0,0,1,313.88,431.4" transform="translate(-295.177 -423.482)" fill="none" stroke="#c43945" stroke-linecap="round" stroke-linejoin="round" stroke-miterlimit="10" stroke-width="2"/>
              <path id="Trazado_1075047" data-name="Trazado 1075047" d="M302.889,448.488a47.378,47.378,0,0,1,15.3-8.124" transform="translate(-296.684 -426.342)" fill="none" stroke="#c43945" stroke-linecap="round" stroke-linejoin="round" stroke-miterlimit="10" stroke-width="2"/>
              <path id="Trazado_1075048" data-name="Trazado 1075048" d="M320.817,451.466a36.992,36.992,0,0,1,8.238-3.754" transform="translate(-302.404 -428.687)" fill="none" stroke="#c43945" stroke-linecap="round" stroke-linejoin="round" stroke-miterlimit="10" stroke-width="2"/>
            </g>
            <path id="Trazado_1075049" data-name="Trazado 1075049" d="M354.85,427.4c13.456-5.033,26.912-10.065,40.945-15.109a14.3,14.3,0,0,1,16.259,4.641,14.557,14.557,0,0,1,2.154,4.025,15.012,15.012,0,0,1,.351,8.32,11.758,11.758,0,0,1-10.139,8.818,282.24,282.24,0,0,1-45.518,1.639A38.027,38.027,0,0,1,354.85,427.4Z" transform="translate(-313.264 -411.419)" fill="#ffa382"/>
          </g>
          <g id="Grupo_1201239" data-name="Grupo 1201239" transform="translate(31.27)">
            <g id="Grupo_1201238" data-name="Grupo 1201238">
              <g id="Grupo_1201234" data-name="Grupo 1201234" transform="translate(0 21.873)">
                <path id="Trazado_1075050" data-name="Trazado 1075050" d="M230.509,421.114c-4.2-3.607-11.949-7.852-19.4-10.489a9.347,9.347,0,0,0-9.8,2.355,30.466,30.466,0,0,0-5.058,6.938,3.171,3.171,0,0,0,.311,3.586,2.7,2.7,0,0,0,.813.63,23,23,0,0,0,.258,5.366,7.193,7.193,0,0,0,3.195,4.759l.1.07c.036.542.1,1.082.184,1.614a5.831,5.831,0,0,0,4.319,4.64q1.742.457,3.5.87c4.077.964,8.814-.96,10.267-4.666a3.388,3.388,0,0,0,.086-2.169,11.616,11.616,0,0,0,10.187-3.081C232.015,428.864,233.388,423.585,230.509,421.114Z" transform="translate(-195.836 -410.102)" fill="#ffa382"/>
                <g id="Grupo_1201233" data-name="Grupo 1201233" transform="translate(5.624 20.884)">
                  <path id="Trazado_1075051" data-name="Trazado 1075051" d="M204.1,444.773l12.819,1.9c1.431.212,3.172.3,4.022-.865a2.751,2.751,0,0,0-.633-3.466,8.016,8.016,0,0,0-3.475-1.574" transform="translate(-204.096 -440.773)" fill="none" stroke="#c43945" stroke-linecap="round" stroke-linejoin="round" stroke-miterlimit="10" stroke-width="2"/>
                  <path id="Trazado_1075052" data-name="Trazado 1075052" d="M212.6,452.849l7.653-1.533a6.817,6.817,0,0,0,2.877-1.048,2.332,2.332,0,0,0,.874-2.716" transform="translate(-206.809 -442.936)" fill="none" stroke="#c43945" stroke-linecap="round" stroke-linejoin="round" stroke-miterlimit="10" stroke-width="2"/>
                </g>
              </g>
              <g id="Grupo_1201236" data-name="Grupo 1201236" transform="translate(2.668)">
                <path id="Trazado_1075053" data-name="Trazado 1075053" d="M211.01,427.479l-11.255-48.395,5.477-1.105,11.255,48.4Z" transform="translate(-199.755 -377.979)" fill="#ffca75"/>
                <g id="Grupo_1201235" data-name="Grupo 1201235" transform="translate(11.262 48.394)">
                  <path id="Trazado_1075054" data-name="Trazado 1075054" d="M221.771,449.051l-.176,3.837-.3,6.477-2.879-5.3-2.126-3.907Z" transform="translate(-216.294 -449.051)" fill="#ffca75"/>
                  <path id="Trazado_1075055" data-name="Trazado 1075055" d="M222.591,454.686l-.3,6.477-2.88-5.3A6.706,6.706,0,0,1,222.591,454.686Z" transform="translate(-217.29 -450.849)" fill="#4f2b36"/>
                </g>
              </g>
              <g id="Grupo_1201237" data-name="Grupo 1201237" transform="translate(2.162 26.526)">
                <path id="Trazado_1075056" data-name="Trazado 1075056" d="M199.012,429.1a60.746,60.746,0,0,1,4.781,4.68c1.228,1.53,2.34,4.881,3.874,4.881s2.606-1.089,1.61-5.737a16.525,16.525,0,0,0-4.781-7.95" transform="translate(-199.012 -419.499)" fill="#ffa382" stroke="#c43945" stroke-linecap="round" stroke-linejoin="round" stroke-miterlimit="10" stroke-width="2"/>
                <path id="Trazado_1075057" data-name="Trazado 1075057" d="M222.6,416.935s-4.2,1.564-5.309,2.8-1.479,4.646-2.923,7.934c-1.068,2.431-3.068,3.946-2.506,5.488.733,2.007,5.753,2.767,10.238-4.777a9.126,9.126,0,0,0,6.5,3.515" transform="translate(-203.082 -416.935)" fill="#ffa382" stroke="#c43945" stroke-linecap="round" stroke-linejoin="round" stroke-miterlimit="10" stroke-width="2"/>
              </g>
            </g>
            <path id="Trazado_1075058" data-name="Trazado 1075058" d="M234.38,418.485c11.646-1.973,13.187-7.066,21.184-7.066,9.095,0,10.15,13.406,7.148,17.213s-26.134,5.886-26.134,5.886S230.391,419.16,234.38,418.485Z" transform="translate(-207.708 -388.649)" fill="#ffa382"/>
          </g>
        </g>
      </g>
    </g>
  </g>
</svg>
