<svg xmlns="http://www.w3.org/2000/svg" xmlns:xlink="http://www.w3.org/1999/xlink" width="400" height="461" viewBox="0 0 400 461">
  <defs>
    <clipPath id="clip-path">
      <rect id="Rectángulo_417625" data-name="Rectángulo 417625" width="400" height="461" transform="translate(1020 3901)" fill="#fff" stroke="#707070" stroke-width="1"/>
    </clipPath>
  </defs>
  <g id="Enmascarar_grupo_1098860" data-name="Enmascarar grupo 1098860" transform="translate(-1020 -3901)" clip-path="url(#clip-path)">
    <g id="Grupo_1206289" data-name="Grupo 1206289" transform="translate(592.025 3762.725)">
      <path id="Trazado_1052834" data-name="Trazado 1052834" d="M622.974,170.639h-.018c-50.117,0-98.26,26.132-135.556,73.583-37.407,47.6-59.977,111.739-63.55,180.6C420.1,497.4,437.588,566.512,473.1,619.437l42.507.012H756.194c32.9-46.349,52.833-106.955,56.137-170.659,7.592-146.608-73.363-271.263-180.464-277.873-3-.183-5.993-.279-8.893-.279" transform="translate(5.969 -27.065)" fill="#f9ecff"/>
      <g id="Grupo_1206285" data-name="Grupo 1206285" transform="translate(427.975 384.783)">
        <path id="Trazado_1052835" data-name="Trazado 1052835" d="M448.7,432.309a2.843,2.843,0,0,0-2.805,2.805V458.5a2.805,2.805,0,1,0,5.611,0V435.114a2.843,2.843,0,0,0-2.806-2.805" transform="translate(-399.804 -272.706)" fill="#a5333d"/>
        <path id="Trazado_1052836" data-name="Trazado 1052836" d="M466.744,448.8H440.728a9.053,9.053,0,1,0,0,18.106h26.017a9.053,9.053,0,0,0,0-18.106" transform="translate(-405.322 -266.304)" fill="#83282f"/>
        <path id="Trazado_1052837" data-name="Trazado 1052837" d="M454.508,317.335c-.461,0-.916.011-1.372.038-7.593.418-14.895,4.326-21.114,11.3-13.55,15.2-20.854,43.112-19.065,72.834,2.679,44.449,24.042,79.268,48.633,79.268.461,0,.918-.011,1.373-.037,7.592-.418,14.892-4.324,21.114-11.3,13.549-15.2,20.852-43.111,19.062-72.834-2.678-44.45-24.04-79.268-48.632-79.268" transform="translate(-412.691 -317.335)" fill="#e34854"/>
        <path id="Trazado_1052838" data-name="Trazado 1052838" d="M462.235,471.432c21.528-1.234,37.1-35.559,34.746-76.609s-21.736-73.373-43.264-72.14-37.1,35.559-34.746,76.607,21.737,73.374,43.264,72.141" transform="translate(-410.344 -315.272)" fill="#90d8d9"/>
        <path id="Trazado_1052839" data-name="Trazado 1052839" d="M478.338,332.691a.035.035,0,0,0-.017.007l-.943,1.044-9.349,10.372q-18.318,20.319-36.613,40.643l-6.2,6.887-6.2,6.881a135.22,135.22,0,0,0,3.983,23.9l4.865-5.347,4.842-5.368,18.333-20.356,18.285-20.291,9.419-10.461,9.392-10.426a75.384,75.384,0,0,0-9.781-17.473Z" transform="translate(-410.233 -311.374)" fill="#bbe7e7"/>
        <path id="Trazado_1052840" data-name="Trazado 1052840" d="M489.889,353.431a.036.036,0,0,0-.017.007l-2.131,2.361-2.131,2.358-11.973,13.3-23.881,26.511L424.58,425.929a85.238,85.238,0,0,0,5.682,12.146l.179-.143.293-.326,18.22-20.233,18.24-20.252,25.985-28.849a128.14,128.14,0,0,0-3.265-14.821.175.175,0,0,0-.025-.021" transform="translate(-408.076 -303.324)" fill="#bbe7e7"/>
        <path id="Trazado_1052841" data-name="Trazado 1052841" d="M491.522,372.755a.036.036,0,0,0-.017.007l-6.946,7.714L477.6,388.2l-36.575,40.6-8.6,9.549c4.8,6.173,10.07,10.32,15.66,12.342l13.636-15.1,13.637-15.141,15.059-16.723a134.154,134.154,0,0,0,1.3-28.357c-.048-.869-.108-1.731-.173-2.588Z" transform="translate(-405.03 -295.823)" fill="#bbe7e7"/>
      </g>
      <g id="Grupo_1206286" data-name="Grupo 1206286" transform="translate(453.172 143.574)">
        <path id="Trazado_1052842" data-name="Trazado 1052842" d="M611.613,143.574a30.991,30.991,0,0,0-8.061,1.074,28.649,28.649,0,0,0-10.314,5.082,23.673,23.673,0,0,0-7.085,9.148,22.718,22.718,0,0,0-1.46,4.759,22.432,22.432,0,0,0-9.5-2.267,18.153,18.153,0,0,0-2.942.239,17.43,17.43,0,0,0-5.1,1.7,21.543,21.543,0,0,0-4.8,3.4,23.2,23.2,0,0,0-5.952,8.366,18.591,18.591,0,0,0-1.335,6.622,19.928,19.928,0,0,0,1.145,6.842,22.738,22.738,0,0,0,3.363,6.126c.222.3.457.591.7.873a9.227,9.227,0,0,0-1.1.893,12.745,12.745,0,0,0-3.365,5.45,13.594,13.594,0,0,0,1.878,12.131,10.557,10.557,0,0,0,3.665,2.993,53.131,53.131,0,0,0-1.3,5.444,42.539,42.539,0,0,0-.564,10.166,40.172,40.172,0,0,0,1.931,9.949,36.715,36.715,0,0,0,4.47,9.119.973.973,0,0,0,.819.4,1.084,1.084,0,0,0,.659-.215,1.046,1.046,0,0,0,.373-.561c.794.84,1.552,1.753,2.285,2.638.471.568.943,1.135,1.434,1.689a36.223,36.223,0,0,0,4.17,3.944,48.994,48.994,0,0,0,9.5,5.934,105.159,105.159,0,0,0,10.429,4.3c1.377.5,2.762.99,4.145,1.477l1.191.421c1.235.44,2.478.868,3.724,1.274a143.256,143.256,0,0,0,16.139,4.235,123.977,123.977,0,0,0,17.909,2.327c1.827.1,3.638.15,5.383.15a79.674,79.674,0,0,0,12.606-.958,50.484,50.484,0,0,0,16.071-5.224,37.081,37.081,0,0,0,6.776-4.675,34.982,34.982,0,0,0,5.744-6.483,49.169,49.169,0,0,0,4.942-9.319,67.436,67.436,0,0,0,3.287-10.554,59.9,59.9,0,0,0,1.371-9.388,23.835,23.835,0,0,0,6.687-3.694,17.025,17.025,0,0,0,5.031-6.687,19.409,19.409,0,0,0,1.216-4.53,21.5,21.5,0,0,0,.151-4.673,19.726,19.726,0,0,0-1.373-5.872,16.656,16.656,0,0,0-3.083-4.977,13.555,13.555,0,0,0-4.1-3.089,16.777,16.777,0,0,0,1.223-3.7,17.888,17.888,0,0,0,.065-6.622,20.215,20.215,0,0,0-2.172-6.234,19.893,19.893,0,0,0-9.391-8.872,16.589,16.589,0,0,0-3.111-.977,14.559,14.559,0,0,0-3.164-.3,14.239,14.239,0,0,0-3.366.412,20.742,20.742,0,0,0-1.355-5.826,26.2,26.2,0,0,0-5.154-8.154,31.069,31.069,0,0,0-7.764-6.141,25.615,25.615,0,0,0-10-3.19c-.747-.072-1.49-.108-2.207-.108a25.439,25.439,0,0,0-7.819,1.28,29.285,29.285,0,0,0-8.9,4.817,34.08,34.08,0,0,0-2.642,2.274,17.568,17.568,0,0,0-1.241-3.32,18.96,18.96,0,0,0-7.206-7.782,25.039,25.039,0,0,0-10.379-3.4,29.492,29.492,0,0,0-3.184-.168M644.43,277.6l-.129-.015c.26,0,.516.008.776.008l-.647.007" transform="translate(-396.077 -143.574)" fill="#21261f"/>
        <path id="Trazado_1052843" data-name="Trazado 1052843" d="M563.4,205.779c-.06,0-.121,0-.18.006a10.068,10.068,0,0,0-2.643.444,9.16,9.16,0,0,0-2.318,1.087,11.406,11.406,0,0,0-3.547,3.643,19.048,19.048,0,0,0-2.241,5.215A30.547,30.547,0,0,0,551.9,228.9c1.286,8.01,5.368,14.126,10.918,16.36a1.068,1.068,0,0,0,.412.087,1.081,1.081,0,0,0,1.009-.665c.078-.053.153-.1.212-.14a1.814,1.814,0,0,0,.208-.153,29.942,29.942,0,0,0,3.949-4.774,48.358,48.358,0,0,0,3.726-6.52,42.4,42.4,0,0,0,2.74-7.382,32,32,0,0,0,.759-3.668,23.936,23.936,0,0,0,.222-3.673,13.83,13.83,0,0,0-1.535-6.383,12.586,12.586,0,0,0-.88-1.39,11.911,11.911,0,0,0-1.19-1.33,11.363,11.363,0,0,0-2.893-2,14.847,14.847,0,0,0-3.387-1.183,11.659,11.659,0,0,0-2.779-.3" transform="translate(-397.464 -119.428)" fill="#a7524e"/>
        <path id="Trazado_1052844" data-name="Trazado 1052844" d="M611.188,169.134a101.932,101.932,0,0,0-18.049,1.648,91.449,91.449,0,0,0-13.7,3.575,1.013,1.013,0,0,0-.287-.044,1.083,1.083,0,0,0-.923.522,72.342,72.342,0,0,0-5.414,11.293,88.658,88.658,0,0,0-3.426,11.513c-1.388,5.97-2.31,12.131-3.2,18.089-.276,1.849-.552,3.7-.844,5.543-.769,4.852-1.456,8.569-2.228,12.053-.357,1.585-.755,3.161-1.154,4.736l-.207.822c-.375,1.5-.727,2.993-1.052,4.5a94.844,94.844,0,0,0-2.328,18.1,50.739,50.739,0,0,0,2.285,16.977,36.8,36.8,0,0,0,3.52,7.643,35.114,35.114,0,0,0,5.44,6.8,40.3,40.3,0,0,0,7.593,5.75,45.979,45.979,0,0,0,8.647,3.97,54.063,54.063,0,0,0,8.977,2.164,67.22,67.22,0,0,0,7.722.737c-.062.69-.133,1.4-.225,2.1a85.858,85.858,0,0,1-3.758,14.333c-.9,2.755-1.821,5.6-2.558,8.451-1.866,7.259-2.009,13.408-.433,18.8a22.247,22.247,0,0,0,3.162,6.6,21.971,21.971,0,0,0,4.954,4.992,25.077,25.077,0,0,0,13.249,4.492q.949.062,1.9.063a34.6,34.6,0,0,0,13.369-2.851,41.6,41.6,0,0,0,14.9-11.055c7.575-8.712,11.13-19.015,9.753-28.267a18.336,18.336,0,0,0,2.922,1.079.985.985,0,0,0,.269.037,1.079,1.079,0,0,0,1.026-.773,1.068,1.068,0,0,0-.736-1.3,19.9,19.9,0,0,1-2.109-.711c-.15-.06-.193-.076-.236-.1-.5-.226-1.1-.523-1.674-.852-.06-.246-.125-.5-.2-.757a1.05,1.05,0,0,0-1.3-.736.943.943,0,0,0-.429.243,19.579,19.579,0,0,1-3.058-3.1,22.165,22.165,0,0,1-2.656-4.582l-.083-.153.013-.006a31.049,31.049,0,0,1-1.907-7.235l-.036-.167.014,0a43.385,43.385,0,0,1,.06-10.786,1.251,1.251,0,0,0,.022-.147,43.5,43.5,0,0,1,2.91-10.835c.3-.689.646-1.427,1.02-2.147a.959.959,0,0,0,.714.307,43.345,43.345,0,0,0,11.315-1.346,30.42,30.42,0,0,0,5.328-1.974,25.781,25.781,0,0,0,4.845-3.071,24.886,24.886,0,0,0,6.162-7.417,27.492,27.492,0,0,0,2.041-4.584,24.386,24.386,0,0,0,1.1-4.861,18.577,18.577,0,0,0-.037-4.868,16.367,16.367,0,0,0-1.358-4.607,13.094,13.094,0,0,0-2.481-3.631,12.032,12.032,0,0,0-3.084-2.286,14.427,14.427,0,0,0-6.7-1.574q-.383,0-.766.017a16.421,16.421,0,0,0-7.429,2.2l.022-.135.21-.422c1.03-2.056,1.917-3.933,2.711-5.737a67.875,67.875,0,0,0,4.166-12.041,43.755,43.755,0,0,0,.976-6.2,37.794,37.794,0,0,0,.006-5.548,51.356,51.356,0,0,0-1.241-8.353,40.744,40.744,0,0,0-6-13.68,39.765,39.765,0,0,0-4.55-5.5,42.878,42.878,0,0,0-5.412-4.61,52.448,52.448,0,0,0-12.753-6.649,70.49,70.49,0,0,0-14.5-3.563,91.449,91.449,0,0,0-12.8-.89" transform="translate(-394.799 -133.653)" fill="#bc5c58"/>
        <path id="Trazado_1052845" data-name="Trazado 1052845" d="M628.075,248.206c-.335.067-.665.128-1,.189-.979.161-1.963.279-2.947.365a.347.347,0,1,0,.021.694,36.789,36.789,0,0,0,4.138-.569.332.332,0,0,0,.205-.174.346.346,0,0,0,.028-.272.361.361,0,0,0-.174-.211.307.307,0,0,0-.15-.037.564.564,0,0,0-.122.015m-1.016.192c-.018,0-.035.006-.051.01a.421.421,0,0,1,.051-.01" transform="translate(-369.4 -102.966)" fill="#bc5c58"/>
        <path id="Trazado_1052846" data-name="Trazado 1052846" d="M629.443,248.164c-.336.1-.666.2-1,.276s-.655.137-.987.194l.06-.01c-1.627.255-3.269.315-4.907.478a.349.349,0,0,0-.336.358.355.355,0,0,0,.358.336c1.209-.119,2.418-.185,3.622-.31a17.184,17.184,0,0,0,3.4-.661.351.351,0,0,0,.232-.435.356.356,0,0,0-.336-.242.335.335,0,0,0-.1.014" transform="translate(-369.991 -102.981)" fill="#bc5c58"/>
        <path id="Trazado_1052847" data-name="Trazado 1052847" d="M630.251,248.286c-.558.155-1.124.282-1.693.382-2.132.355-4.3.416-6.445.627a.347.347,0,0,0,.021.694c1.378-.136,2.761-.212,4.144-.332a24.2,24.2,0,0,0,4.18-.709.345.345,0,0,0-.108-.675.389.389,0,0,0-.1.013" transform="translate(-370.183 -102.933)" fill="#bc5c58"/>
        <path id="Trazado_1052848" data-name="Trazado 1052848" d="M630.326,248.34a16.063,16.063,0,0,1-1.88.461,29.764,29.764,0,0,1-2.979.293c-1,.054-2.006.065-3.01.125a.383.383,0,0,0,.022.765c1.344-.033,2.683-.082,4.023-.2a17.848,17.848,0,0,0,4.028-.776.348.348,0,0,0-.108-.68.335.335,0,0,0-.1.014" transform="translate(-370.061 -102.913)" fill="#bc5c58"/>
        <path id="Trazado_1052849" data-name="Trazado 1052849" d="M630.911,248.428c-2.847.244-5.694.526-8.557.548a.347.347,0,1,0,.022.694c2.862-.022,5.709-.3,8.557-.548a.348.348,0,0,0,0-.7h-.025" transform="translate(-370.089 -102.874)" fill="#bc5c58"/>
        <path id="Trazado_1052850" data-name="Trazado 1052850" d="M589.314,170.757a91.853,91.853,0,0,0-13.714,3.584.828.828,0,0,0-.276-.054,1.1,1.1,0,0,0-.944.543,70.784,70.784,0,0,0-5.412,11.3c-.254.677-.51,1.366-.752,2.071.405.384.823.748,1.263,1.1a22.681,22.681,0,0,0,2.191,1.524.908.908,0,0,0-.076-.05A26.686,26.686,0,0,0,577.9,193.5a32.334,32.334,0,0,0,8.416,1.231h-.087a30.752,30.752,0,0,0,7.543-.825,23.066,23.066,0,0,0,5.4-2.071c-.006.006-.015.011-.021.017a18.88,18.88,0,0,0,2.527-1.681.316.316,0,0,1,.276-.06.656.656,0,0,1,.071-.065.345.345,0,0,1,.483.081,28.1,28.1,0,0,0,2.3,2.782l-.065-.065a28.459,28.459,0,0,0,2.819,2.593,30.662,30.662,0,0,0,2.978,2.086l-.082-.049a30.989,30.989,0,0,0,3.584,1.877,33.018,33.018,0,0,0,3.552,1.3,27.783,27.783,0,0,0,7.3,1.123c-.032,0-.058-.006-.092-.006a25.141,25.141,0,0,0,3.2-.14,26.712,26.712,0,0,0,3.084-.532c.017-.006.033-.006.05-.011h0c.172-.043.34-.09.511-.135a.379.379,0,0,1,.265.006.371.371,0,0,1,.139.108h.035a.354.354,0,0,1,.341.3q.229,1.6.614,3.155a.008.008,0,0,1,0-.007.058.058,0,0,1,0,.018.008.008,0,0,1,0,.006l0,.006a.005.005,0,0,1,0,0,26.506,26.506,0,0,0,1.027,3.252,25.647,25.647,0,0,0,1.42,3.08c-.006,0-.006-.006-.011-.011a24.8,24.8,0,0,0,1.66,2.608,25.921,25.921,0,0,0,2.038,2.446l-.064-.065a26.347,26.347,0,0,0,2.689,2.456,32.038,32.038,0,0,0,2.95,2.061l-.082-.05a32.4,32.4,0,0,0,4.062,2.1,33.721,33.721,0,0,0,3.851,1.388,35.493,35.493,0,0,0,4.945,1.063,41.746,41.746,0,0,0,4.924.39c-.022,0-.037-.006-.054-.006.326.006.654.007.98.006.1-.375.187-.747.272-1.117a43.847,43.847,0,0,0,.987-6.208,40.074,40.074,0,0,0,.006-5.548,51.618,51.618,0,0,0-1.252-8.366,40.5,40.5,0,0,0-6-13.68,39.894,39.894,0,0,0-4.55-5.51,42.347,42.347,0,0,0-5.417-4.609,52.278,52.278,0,0,0-12.759-6.653A71.075,71.075,0,0,0,620.167,170a92.9,92.9,0,0,0-12.807-.888,103.107,103.107,0,0,0-18.046,1.648m4.534,23.132-.065.017a.265.265,0,0,1,.065-.017m-.076.022h0Zm37.376,7.173h0m1.9,3.438v0Zm29.358,20.736h0Z" transform="translate(-390.973 -133.662)" fill="#a7524e"/>
        <path id="Trazado_1052851" data-name="Trazado 1052851" d="M614.925,194.636h0v-.006l0,.007" transform="translate(-372.843 -123.756)" fill="#a7524e"/>
        <path id="Trazado_1052852" data-name="Trazado 1052852" d="M629.063,208.534c-.017-.006-.028-.006-.043-.011a.116.116,0,0,0,.043.011" transform="translate(-367.371 -118.363)" fill="#a7524e"/>
        <path id="Trazado_1052853" data-name="Trazado 1052853" d="M613.515,192.153h0" transform="translate(-373.39 -124.717)" fill="#a7524e"/>
        <path id="Trazado_1052854" data-name="Trazado 1052854" d="M614.214,264.988a57.234,57.234,0,0,1-11.246,3.9q-2.32.546-4.678.909a33,33,0,0,1-3.912.626c-1.041.1-2.082.162-3.123.162-.175,0-.35,0-.523,0l-.072.536c-.054.5-.108,1.008-.179,1.513a58.487,58.487,0,0,1-1.664,7.613,42.146,42.146,0,0,0,6.523-.949h0c.006,0,.006,0,.011,0a52.018,52.018,0,0,0,12.688-4.735,44.264,44.264,0,0,0,8.991-6.29l.006-.006a.477.477,0,0,0,.054-.049c-.006,0-.006.006-.011.006a32.837,32.837,0,0,0,2.657-2.765A28.8,28.8,0,0,0,622,262.4c-.011.015-.017.032-.028.049a23.978,23.978,0,0,0,1.692-3.166,50.039,50.039,0,0,1-9.446,5.7m2.864,3.232a.043.043,0,0,1-.022.022c.011-.006.017-.017.022-.022" transform="translate(-382.976 -98.66)" fill="#8e4542"/>
        <path id="Trazado_1052855" data-name="Trazado 1052855" d="M593.523,273.7l.076-.017-.076.017" transform="translate(-381.149 -93.069)" fill="#8e4542"/>
        <path id="Trazado_1052856" data-name="Trazado 1052856" d="M609.14,265.758a.005.005,0,0,0,.006-.006.018.018,0,0,1-.006.006" transform="translate(-375.087 -96.149)" fill="#8e4542"/>
        <path id="Trazado_1052857" data-name="Trazado 1052857" d="M609.142,265.756s0,0-.006.005Z" transform="translate(-375.089 -96.147)" fill="#8e4542"/>
        <path id="Trazado_1052858" data-name="Trazado 1052858" d="M593.516,273.7s0,0,0,0a.012.012,0,0,0,.01,0h-.008" transform="translate(-381.152 -93.064)" fill="#8e4542"/>
        <path id="Trazado_1052859" data-name="Trazado 1052859" d="M634.6,226.744a1.016,1.016,0,0,0-.526.575,1.1,1.1,0,0,0,.037.8.514.514,0,0,0,.025.065,17.32,17.32,0,0,1,.621,3.661,22.114,22.114,0,0,1-.569,5.542l.065-.3a28.162,28.162,0,0,1-.965,3.232,24.52,24.52,0,0,1-1.313,3.032c.028-.06.06-.114.087-.174a16.284,16.284,0,0,1-2.223,3.233c.006-.006.01-.012.015-.018A9.587,9.587,0,0,1,628,247.951a.379.379,0,0,0,.407.634,18.285,18.285,0,0,0,2.159-1.616,19.186,19.186,0,0,0,2.034-2.092,20.658,20.658,0,0,0,1.81-2.511,20.2,20.2,0,0,0,1.53-3.069,19.131,19.131,0,0,0,.943-3.151,16.833,16.833,0,0,0,.386-3.036,13.792,13.792,0,0,0-.233-3.053,11.153,11.153,0,0,0-.455-1.546,10.247,10.247,0,0,0-.619-1.279,1.062,1.062,0,0,0-.937-.584,1,1,0,0,0-.429.1" transform="translate(-367.818 -111.328)" fill="#8e4542"/>
        <path id="Trazado_1052860" data-name="Trazado 1052860" d="M639.067,224.384a11.075,11.075,0,0,0-2.625.45,8.788,8.788,0,0,0-2.347,1.1,7.154,7.154,0,0,0-.976.776,5.1,5.1,0,0,0-.472.552c-.125.164-.222.337-.347.5a.9.9,0,0,0-.125.428.9.9,0,0,0,.25.645.883.883,0,0,0,.607.267.921.921,0,0,0,.622-.23c.473-.264.932-.561,1.412-.827a11.789,11.789,0,0,1,1.477-.686,16.633,16.633,0,0,1,3.8-.872,15.049,15.049,0,0,1,3.559.1,12.632,12.632,0,0,1,2.8.836l-.119-.05a8.8,8.8,0,0,1,1.716,1.04,6.9,6.9,0,0,1,1.055,1.092.37.37,0,0,0,.526.01.38.38,0,0,0,.011-.526,11.456,11.456,0,0,0-3.476-2.928,10.829,10.829,0,0,0-1.058-.5c-.416-.185-.845-.341-1.28-.489a15.672,15.672,0,0,0-2.586-.575,11.8,11.8,0,0,0-1.739-.126c-.227,0-.453.006-.679.018" transform="translate(-366.146 -112.213)" fill="#8e4542"/>
        <path id="Trazado_1052861" data-name="Trazado 1052861" d="M609.739,163.06a102.464,102.464,0,0,0-10.316.526,99.084,99.084,0,0,0-15.3,2.771,63.77,63.77,0,0,0-16.625,6.737.78.78,0,0,0-.273-.244,1.115,1.115,0,0,0-.516-.132,1.033,1.033,0,0,0-.286.037,1.111,1.111,0,0,0-.668.566.915.915,0,0,0-.058.737,26.68,26.68,0,0,0,1.824,3.885,24.476,24.476,0,0,0,2.393,3.38,23.871,23.871,0,0,0,6.012,5.111A25.278,25.278,0,0,0,588.857,190q.964,0,1.927-.076A23.812,23.812,0,0,0,601,186.712a22.527,22.527,0,0,0,3.906-2.946,4.352,4.352,0,0,0,.207.618,19.07,19.07,0,0,0,3.809,5.889,25.728,25.728,0,0,0,5.723,4.535,30.687,30.687,0,0,0,6.932,3.016,28.382,28.382,0,0,0,8.053,1.209,20.527,20.527,0,0,0,8.3-1.616c-.061.451-.089.924-.106,1.4A23.045,23.045,0,0,0,638.1,203a22.673,22.673,0,0,0,1.019,4.022,20.863,20.863,0,0,0,4,6.9,18.327,18.327,0,0,0,6.474,4.693,17.221,17.221,0,0,0,5.986,1.34c-.386.85-.744,1.723-1.086,2.6a79.617,79.617,0,0,0-2.864,8.732,39.956,39.956,0,0,0-1.442,8.625,12.493,12.493,0,0,0,1.34,6.959,6.425,6.425,0,0,0,.887,1.24,4.7,4.7,0,0,0,1.234.925,3.106,3.106,0,0,0,1.438.333,3.508,3.508,0,0,0,.943-.126,6.571,6.571,0,0,0,2.424-1.315,15.612,15.612,0,0,0,2.214-2.3,40.587,40.587,0,0,0,3.862-5.95c.886-1.591,1.719-3.248,2.472-4.925a53.421,53.421,0,0,0,4.638-19.391,48.805,48.805,0,0,0-3.194-19.727,44.579,44.579,0,0,0-11.576-16.766,55.415,55.415,0,0,0-16.955-10.4,76.772,76.772,0,0,0-19.828-4.827,93.259,93.259,0,0,0-10.347-.569" transform="translate(-391.97 -136.01)" fill="#21261f"/>
        <path id="Trazado_1052862" data-name="Trazado 1052862" d="M565.453,171.272a.44.44,0,0,0-.267.558,20.726,20.726,0,0,0,4.442,7.212,24.875,24.875,0,0,0,6.794,5.086,27.732,27.732,0,0,0,8.21,2.722,28.953,28.953,0,0,0,8.627.207,23.412,23.412,0,0,0,5.282-1.323,25.443,25.443,0,0,0,3.253-1.562,31.859,31.859,0,0,0,3.612-2.381.9.9,0,0,0-1.019-1.492,37.716,37.716,0,0,1-4.2,2.638c.032-.015.061-.032.093-.044-.043.019-.083.04-.125.061l-.087.047c.025-.014.049-.028.075-.04a25.764,25.764,0,0,1-5.936,2.063c.075-.017.157-.039.233-.054a28.643,28.643,0,0,1-7.168.6l.064,0-.1-.007-.114,0h.053a28.974,28.974,0,0,1-7.137-1.351,31.19,31.19,0,0,1-3.066-1.2,23.526,23.526,0,0,1-3.14-1.757l.017.011a22.521,22.521,0,0,1-4.155-3.579c.028.026.056.06.082.086a20.143,20.143,0,0,1-2.819-4.083l.049.1a21.027,21.027,0,0,1-.987-2.25.444.444,0,0,0-.415-.291.4.4,0,0,0-.143.026m8.419,10.014.072.05-.072-.05m6.24,2.957.079.026-.079-.026m7.117,1.326.039,0c-.033,0-.067-.006-.1-.006l.061,0m12.91-2.608.012-.007.032-.017c-.015.007-.029.015-.044.024" transform="translate(-392.158 -132.833)" fill="#191d17"/>
        <path id="Trazado_1052863" data-name="Trazado 1052863" d="M617.521,186.769a1.749,1.749,0,0,0-.727,1.047,6.689,6.689,0,0,0-.249,1.42,15.848,15.848,0,0,0-.054,1.7,22.048,22.048,0,0,0,.373,3.226,22.809,22.809,0,0,0,1.253,4.771,19.426,19.426,0,0,0,4.836,7.012,21.786,21.786,0,0,0,3.4,2.483,20.749,20.749,0,0,0,3.655,1.752,27.8,27.8,0,0,0,4.067,1.177,24.8,24.8,0,0,0,4.191.466,25.915,25.915,0,0,0,13-3.168.439.439,0,0,0,.136-.612.451.451,0,0,0-.612-.136c-.278.154-.558.292-.837.43a20.3,20.3,0,0,1-4.545,1.483l.024,0c-.019,0-.04.008-.061.011l-.079.017a.363.363,0,0,1,.042-.01,22.8,22.8,0,0,1-3.014.357,27.125,27.125,0,0,1-3.1-.033,26.583,26.583,0,0,1-6.745-1.469l.276.1a23.985,23.985,0,0,1-5.217-2.724,20.988,20.988,0,0,1-3.583-3.337,16.711,16.711,0,0,1-3.694-7.836,22.372,22.372,0,0,1-.308-3.134c-.011-.586.006-1.172.021-1.752.028-.645.1-1.285.11-1.925a1.66,1.66,0,0,0-1.308-1.539,1.663,1.663,0,0,0-1.252.228M639,210.146l.222.015-.222-.015m6.333-.308a.258.258,0,0,0,.037-.007l.037-.007-.075.014" transform="translate(-372.236 -126.91)" fill="#191d17"/>
        <path id="Trazado_1052864" data-name="Trazado 1052864" d="M626.726,154.38a17.794,17.794,0,0,1,2.407.845c-.032-.01-.06-.026-.092-.037a16.327,16.327,0,0,1,4.083,2.532.214.214,0,0,0-.025-.024,18.293,18.293,0,0,1,2.851,3.046,17.912,17.912,0,0,1,1.991,3.593,16.693,16.693,0,0,1,.968,3.584,20.178,20.178,0,0,1-.105,4.682,19.809,19.809,0,0,1-.744,2.976,1.764,1.764,0,0,0,2.543,2.032,1.84,1.84,0,0,0,.841-1.056,17.39,17.39,0,0,0,.948-4.019,13.324,13.324,0,0,0-.174-4.045,17.534,17.534,0,0,0-1.1-3.525,15.914,15.914,0,0,0-1.8-3.189,18.532,18.532,0,0,0-2.413-2.694,22.4,22.4,0,0,0-2.987-2.3,23.646,23.646,0,0,0-3.4-1.795,25.577,25.577,0,0,0-3.6-1.284.39.39,0,0,0-.1-.015.355.355,0,0,0-.095.693" transform="translate(-368.357 -139.649)" fill="#191d17"/>
        <path id="Trazado_1052865" data-name="Trazado 1052865" d="M649.228,172.209a.436.436,0,0,0,.142.6,8.235,8.235,0,0,1,1.022.659,7.667,7.667,0,0,1,1.191,1.265.052.052,0,0,0-.006-.01,8.941,8.941,0,0,1,.944,1.678,12.585,12.585,0,0,1,.708,2.624,12.211,12.211,0,0,1-.029,2.865c-.021.115-.042.232-.061.348a1.011,1.011,0,0,0,.08.726.952.952,0,0,0,.569.451.936.936,0,0,0,.722-.082.889.889,0,0,0,.455-.569,10.714,10.714,0,0,0,.157-1.545,9.841,9.841,0,0,0-.1-1.552,10.811,10.811,0,0,0-.933-3.09,9.131,9.131,0,0,0-.765-1.317,11.065,11.065,0,0,0-1.024-1.3,8.536,8.536,0,0,0-1.062-.965,9.8,9.8,0,0,0-1.41-.933.508.508,0,0,0-.229-.057.425.425,0,0,0-.368.2m1.21,1.291.037.028a.27.27,0,0,1-.037-.028m2.781,5.428c0,.029.006.058.01.087,0-.029-.008-.058-.01-.087m.011.1.017.112c-.007-.037-.013-.075-.017-.112" transform="translate(-359.551 -132.538)" fill="#191d17"/>
        <path id="Trazado_1052866" data-name="Trazado 1052866" d="M650.01,204.321a.54.54,0,0,0-.211.726c.1.211.2.426.286.641a9.207,9.207,0,0,1,.443,1.9,13.692,13.692,0,0,1-.142,3.069,14.968,14.968,0,0,1-.954,3.3,19.727,19.727,0,0,1-2.4,4.04c-.305.372-.622.732-.934,1.1a1.392,1.392,0,0,0-.412.937,1.324,1.324,0,0,0,1.306,1.34,1.358,1.358,0,0,0,.927-.364,10.033,10.033,0,0,0,1.465-1.648,12.163,12.163,0,0,0,1.117-1.817,16.929,16.929,0,0,0,.894-2.147,15.575,15.575,0,0,0,.575-2.342,13.468,13.468,0,0,0,.108-4.409,13.211,13.211,0,0,0-1.34-4.116.53.53,0,0,0-.47-.276.518.518,0,0,0-.255.065" transform="translate(-360.903 -120.019)" fill="#191d17"/>
        <path id="Trazado_1052867" data-name="Trazado 1052867" d="M659.078,193.046a.514.514,0,0,0-.319.233.56.56,0,0,0-.065.407c.043.272.078.54.112.807a12.539,12.539,0,0,1,.071,1.313,8.861,8.861,0,0,1-.082,1.229,7.373,7.373,0,0,1-.421,1.526,6.529,6.529,0,0,1-.69,1.151.687.687,0,0,0,.222.938.7.7,0,0,0,.938-.229,7.124,7.124,0,0,0,.771-1.577,7.412,7.412,0,0,0,.336-1.676,9.514,9.514,0,0,0,0-1.8,19.373,19.373,0,0,0-.233-1.937.514.514,0,0,0-.521-.4.477.477,0,0,0-.119.014" transform="translate(-356.285 -124.376)" fill="#191d17"/>
        <path id="Trazado_1052868" data-name="Trazado 1052868" d="M625.239,188.183a.4.4,0,0,0-.179.53,19.954,19.954,0,0,0,2.853,4.918,17.066,17.066,0,0,0,4.267,3.78,20.166,20.166,0,0,0,2.37,1.248,13.84,13.84,0,0,0,2.7.894,16.312,16.312,0,0,0,6.237.125,1.629,1.629,0,0,0,.59-2.95,1.542,1.542,0,0,0-1.224-.244,16.05,16.05,0,0,1-3.611.77,16.406,16.406,0,0,1-3.73-.3,13.008,13.008,0,0,1-2.658-.937,15.177,15.177,0,0,1-2.9-1.917l.035.028a17.208,17.208,0,0,1-2.835-3.187,15.626,15.626,0,0,1-1.378-2.576.386.386,0,0,0-.359-.219.37.37,0,0,0-.172.04m7.461,7.76c.022.008.043.019.064.029l-.064-.029m6.773,1.3c-.036,0-.075,0-.111.006l.111-.006" transform="translate(-368.922 -126.274)" fill="#191d17"/>
        <path id="Trazado_1052869" data-name="Trazado 1052869" d="M515.616,249.253a35.926,35.926,0,0,0-1.41,5.222l-6.083,1.577-28.283,7.353a51.107,51.107,0,0,0,7.622,17.46,115.574,115.574,0,0,0,13.095,15.969,1.011,1.011,0,0,0,.739.3,1.088,1.088,0,0,0,.758-.3,1.07,1.07,0,0,0,0-1.5l-1.5-1.588c.38.049.776.075,1.177.092.179.005.358.011.537.011.655,0,1.312-.033,1.963-.071a38.131,38.131,0,0,0,4.62-.547,23.771,23.771,0,0,0,8.2-2.983,14.659,14.659,0,0,0,7.1-10.454,24.773,24.773,0,0,0,.282-3.6,59.9,59.9,0,0,0-.357-7.06c-.278-2.7-.7-5.53-1.254-8.421a73.309,73.309,0,0,0-5.092-16.576c-.762,1.612-1.473,3.323-2.12,5.107" transform="translate(-425.277 -104.536)" fill="#bc5c58"/>
        <path id="Trazado_1052870" data-name="Trazado 1052870" d="M515.846,237.123a10.287,10.287,0,0,0-2.6,2.066,21.58,21.58,0,0,0-2.349,2.994c-.644.97-1.278,2.054-2,3.415a56.163,56.163,0,0,0-2.9,6.67,35.861,35.861,0,0,0-1.4,5.192l25.946-6.744-7.395,1.91a54.43,54.43,0,0,0,.829-5.818,21.676,21.676,0,0,0,.044-3.683,11.132,11.132,0,0,0-.646-3.221,5.672,5.672,0,0,0-1.681-2.418,4.945,4.945,0,0,0-2.912-1.1c-.086-.006-.174-.011-.26-.011a5.8,5.8,0,0,0-2.679.743" transform="translate(-415.666 -107.55)" fill="#f1f3f8"/>
        <path id="Trazado_1052871" data-name="Trazado 1052871" d="M516.037,237.123a10.286,10.286,0,0,0-2.6,2.066,21.589,21.589,0,0,0-2.349,2.994c-.644.97-1.278,2.054-2,3.415a56.163,56.163,0,0,0-2.9,6.67,35.806,35.806,0,0,0-1.409,5.222l-.014,0c-.183,1-.332,2.024-.448,3.093a44.856,44.856,0,0,0,.847,13.92,52.631,52.631,0,0,0,4.788,13.3,1.015,1.015,0,0,0,.916.521,1.033,1.033,0,0,0,.976-.668,7.275,7.275,0,0,0,3.769,1.188,5.327,5.327,0,0,0,1.47-.207,5.5,5.5,0,0,0,3.026-2.478,9.532,9.532,0,0,0,.959-2.25,15.752,15.752,0,0,0,.515-2.435,52.759,52.759,0,0,0,.174-10.091l-.028-.575-.032-.77a56.384,56.384,0,0,1,.1-9.8c.119-.8.287-1.588.461-2.379l.168-.765.543-2.478c.129-.615.267-1.287.4-2l-.033.008a54.447,54.447,0,0,0,.829-5.818,21.676,21.676,0,0,0,.044-3.683,11.128,11.128,0,0,0-.646-3.221,5.671,5.671,0,0,0-1.681-2.418,4.944,4.944,0,0,0-2.912-1.1c-.086-.006-.174-.011-.26-.011a5.8,5.8,0,0,0-2.679.743" transform="translate(-415.857 -107.55)" fill="#bc5c58"/>
        <path id="Trazado_1052872" data-name="Trazado 1052872" d="M523.831,268.634h.011c-.017,0-.028.006-.039.006a.146.146,0,0,1-.049.011.005.005,0,0,1-.006.006,82.151,82.151,0,0,0-19.981,7.868c.005,0,.011-.006.017-.006a72.412,72.412,0,0,0-12.766,8.969c2.608,6.913,5.054,14.011,7.418,20.882,3.177,9.217,6.463,18.755,10.178,27.958,1.2,2.989,2.495,5.993,3.741,8.9l1.161,2.711c1.573,3.672,3.282,7.614,5.151,11.566,1.86,3.927,3.856,7.685,5.922,11.165,2.082,3.5,4.381,6.914,6.355,9.793q1.293,1.878,2.586,3.752c2.181,3.146,4.431,6.4,6.529,9.674a96.643,96.643,0,0,1,7.745,14.4l-.076-.26a112.358,112.358,0,0,1,4.913,14.9,141.406,141.406,0,0,1,2.944,15.466c1.388,10.426,1.887,21.1,2.37,31.434.265,5.634.537,11.458.95,17.173.308,4.3.694,8.264,1.17,12.12.228,1.864.489,3.719.776,5.579.325,2.136.634,3.769.993,5.3a38.789,38.789,0,0,0,6.87,14.83,34.561,34.561,0,0,0,5.135,5.342,39.158,39.158,0,0,0,6.036,4.11,55.55,55.55,0,0,0,14.223,5.276,111.29,111.29,0,0,0,15.992,2.418c5.5.5,11.1.732,16.522.954,17.5.716,34.622,1.377,51.849,1.595q5.67.073,11.35.075c5.228,0,10.4-.049,15.352-.151,4.213-.082,8.568-.211,13.3-.407,4.295-.173,8.469-.418,13.095-.694,1.789-.1,3.584-.19,5.375-.276,3.475-.168,7.07-.347,10.594-.677,2.711-.25,5.331-.614,7.782-1.069,1.263-.233,2.6-.537,4.066-.933.586-.151,1.172-.33,1.752-.51l.261-.082,1.079-.347a1.026,1.026,0,0,0,.819.407.93.93,0,0,0,.271-.038,1.094,1.094,0,0,0,.662-.543.944.944,0,0,0,.075-.754c-5.275-16.175-9.613-32.79-13.512-48.341q-1.528-6.076-3.036-12.167l-.418-1.687c-.857-3.411-1.709-6.821-2.506-10.254-1.388-5.932-2.668-12-3.9-17.861l-1.22-5.748c-1.595-7.456-3.373-15.47-5.553-23.528-1.058-3.92-2.218-7.8-3.444-11.534-1.176-3.579-2.51-7.2-4.077-11.078-4.153-10.271-9.236-20.313-14.154-30.025-1.989-3.931-4.051-8-6.019-12.027-2.635-5.4-4.868-10.271-6.821-14.9-1.853-4.435-3.611-9.1-5.206-13.822-1.431-4.224-2.857-8.909-4.364-14.326-2.289-8.242-4.295-16.707-6.23-24.89l-1-4.219a1.043,1.043,0,0,0-1.025-.769,1.206,1.206,0,0,0-.7-.559,1.227,1.227,0,0,0-.276-.037,1.084,1.084,0,0,0-1.026.776,31.856,31.856,0,0,1-1.176,3.3,37.666,37.666,0,0,1-4.625,7.71,47.161,47.161,0,0,1-3.552,4.1,34.8,34.8,0,0,1-3.286,2.912,35.8,35.8,0,0,1-7.461,4.344l-.179.082a34.775,34.775,0,0,1-8.1,2.217l-.211.049v.011a38.683,38.683,0,0,1-4,.222,30.605,30.605,0,0,1-3.867-.243,27.48,27.48,0,0,1-6.767-1.855,24.093,24.093,0,0,1-9.667-7.538,29.75,29.75,0,0,1-3.237-5.39.925.925,0,0,0-.716-.5c-1.7,2.177-3.334,4.4-4.964,6.633-6.315,9.5-12.4,19.241-18.31,28.721q-3.384,5.416-6.777,10.822c-3.3,5.244-6.019,9.484-8.552,13.346a104.149,104.149,0,0,0-9-16.393,202.841,202.841,0,0,0-13.02-17.233c-2.749-3.323-5.6-6.659-8.361-9.885-4.707-5.5-9.566-11.182-14.066-17.005a135.769,135.769,0,0,1-13.1-19.983c-1,.2-2.007.423-3,.662" transform="translate(-420.938 -95.287)" fill="#779986"/>
        <path id="Trazado_1052873" data-name="Trazado 1052873" d="M514.61,268.465l.031-.008a.206.206,0,0,0,.028-.007l-.058.015" transform="translate(-411.78 -95.102)" fill="#779986"/>
        <path id="Trazado_1052874" data-name="Trazado 1052874" d="M514.594,268.466l.01,0h0l-.011,0" transform="translate(-411.787 -95.097)" fill="#779986"/>
        <path id="Trazado_1052875" data-name="Trazado 1052875" d="M514.594,268.465" transform="translate(-411.787 -95.096)" fill="#779986"/>
        <path id="Trazado_1052876" data-name="Trazado 1052876" d="M514.594,268.465" transform="translate(-411.787 -95.096)" fill="#779986"/>
        <path id="Trazado_1052877" data-name="Trazado 1052877" d="M663.061,353.275a1.041,1.041,0,1,0,1.041-1.041,1.049,1.049,0,0,0-1.041,1.041" transform="translate(-354.157 -62.58)" fill="#70917e"/>
        <path id="Trazado_1052878" data-name="Trazado 1052878" d="M638.774,306.824q-.358,8.914-.065,17.835.3,9.222,1.149,18.42.822,8.914,2.022,17.787v-.017q.669,4.97,1.433,9.923c1.323,8.622,2.825,17.217,4.4,25.8q.61,3.3,1.22,6.6c.391,2.1.793,4.209,1.155,6.318.754,4.37,1.421,8.758,1.964,13.161A222.371,222.371,0,0,1,653.81,450.1c-.006,2.386-.043,4.771-.142,7.152-.086,2.164-.189,4.327-.362,6.486a117.707,117.707,0,0,1-1.61,12.206,119.027,119.027,0,0,1-2.967,12.325,121.918,121.918,0,0,1-4.262,11.967c-.8,1.914-1.627,3.812-2.522,5.683-.754,1.588-1.539,3.166-2.336,4.734-1.541,3.058-3.108,6.1-4.761,9.1s-3.361,5.954-5.2,8.83q3.182.025,6.363.025c5.183,0,10.352-.054,15.35-.153,4.5-.092,8.845-.228,13.307-.407,4.278-.179,8.291-.412,13.1-.694,1.73-.1,3.47-.189,5.206-.276,3.726-.174,7.282-.358,10.764-.677,2.689-.255,5.308-.614,7.781-1.074,1.259-.228,2.593-.536,4.073-.937.586-.153,1.172-.332,1.752-.511l.26-.081,1.079-.347a.97.97,0,0,0,.809.418.774.774,0,0,0,.282-.05,1.1,1.1,0,0,0,.677-.552.953.953,0,0,0,.076-.776c-5.271-16.158-9.609-32.784-13.514-48.341q-1.383-5.505-2.754-11.035l-.282-1.133-.418-1.687c-.862-3.444-1.7-6.816-2.506-10.254-1.4-6.025-2.732-12.3-3.9-17.845l-1.22-5.765c-1.6-7.473-3.384-15.492-5.558-23.528-1.036-3.845-2.2-7.722-3.444-11.534-1.176-3.584-2.51-7.212-4.077-11.078-4.159-10.286-9.219-20.276-14.109-29.933-2.034-4.023-4.094-8.1-6.062-12.119-2.679-5.487-4.909-10.357-6.821-14.9-1.86-4.435-3.612-9.087-5.206-13.822-.576-1.7-1.156-3.5-1.746-5.4-.048.9-.093,1.8-.13,2.706" transform="translate(-367.128 -81.257)" fill="#70917e"/>
        <path id="Trazado_1052879" data-name="Trazado 1052879" d="M627.177,276.056a1.056,1.056,0,0,0,.467,1.4q.666.325,1.334.634a1.042,1.042,0,0,0,.927-1.866q-.674-.308-1.334-.64a1.02,1.02,0,0,0-.451-.1,1.054,1.054,0,0,0-.943.575" transform="translate(-368.128 -92.373)" fill="#779986"/>
        <path id="Trazado_1052880" data-name="Trazado 1052880" d="M627.3,276.163a1.051,1.051,0,0,0,.472,1.394c.532.293,1.068.569,1.616.83a1.041,1.041,0,1,0,.922-1.866c-.548-.261-1.084-.537-1.616-.83a.909.909,0,0,0-.444-.114,1.083,1.083,0,0,0-.95.586" transform="translate(-368.079 -92.335)" fill="#779986"/>
        <path id="Trazado_1052881" data-name="Trazado 1052881" d="M627.16,275.958a1.057,1.057,0,0,0,.472,1.394c.661.353,1.317.716,1.963,1.1a1.044,1.044,0,0,0,1.394-.472,1.056,1.056,0,0,0-.472-1.394c-.646-.379-1.3-.743-1.963-1.1a.929.929,0,0,0-.446-.11,1.075,1.075,0,0,0-.948.582" transform="translate(-368.133 -92.413)" fill="#779986"/>
        <path id="Trazado_1052882" data-name="Trazado 1052882" d="M642.833,275.692c-.151.487-.33.966-.522,1.442-.437,1.015-.943,2-1.437,2.982-.422.836-.84,1.664-1.3,2.478a40.2,40.2,0,0,1-3.112,4.674c.039-.051.079-.1.119-.151a39.169,39.169,0,0,1-6.746,6.778A35.244,35.244,0,0,1,622.5,298.2a.3.3,0,0,0,.054-.024,32.283,32.283,0,0,1-7.874,2.2,28.581,28.581,0,0,1-7.263.018,26.745,26.745,0,0,1-6.3-1.723.069.069,0,0,0,.018.007,27.145,27.145,0,0,1-5.7-3.323,29.91,29.91,0,0,1-5.156-5.182,34.091,34.091,0,0,1-2.905-4.557,1.043,1.043,0,0,0-1.8,1.052,33.325,33.325,0,0,0,6,8.085,28.237,28.237,0,0,0,7.819,5.422,27.683,27.683,0,0,0,9.277,2.435,29.961,29.961,0,0,0,10.086-.938,35.6,35.6,0,0,0,15.758-9.1,40.6,40.6,0,0,0,5.786-7.148,42.63,42.63,0,0,0,2.265-4.028,35.686,35.686,0,0,0,2.284-5.151,1.05,1.05,0,0,0-.727-1.28,1.045,1.045,0,0,0-1.284.727m-.575,1.571c-.014.032-.026.062-.039.093.013-.03.025-.061.039-.093m-19.883,20.993-.072.031c.024-.011.049-.021.072-.031m-21.5.318c.025.011.049.021.075.031a.711.711,0,0,1-.075-.031" transform="translate(-384.29 -92.588)" fill="#597365"/>
        <path id="Trazado_1052883" data-name="Trazado 1052883" d="M613.921,402.843h0" transform="translate(-373.231 -42.936)" fill="#779986"/>
        <path id="Trazado_1052884" data-name="Trazado 1052884" d="M613.91,402.849h.008s0,0,.007,0l-.015.006" transform="translate(-373.236 -42.935)" fill="#779986"/>
        <path id="Trazado_1052885" data-name="Trazado 1052885" d="M538.822,153.14a3.347,3.347,0,0,0-.943.13q-30.646,7.954-61.3,15.929l-.39.105-24.938,6.479-8.03,2.093a3.654,3.654,0,0,0-2.69,3.609,3.618,3.618,0,0,0,.132.909l2.549,9.8,2.549,9.81,4.251,16.365,3.146,12.1,4.506,17.32L462.134,265l.06.153,5.362,20.685,3.974,15.282a3.65,3.65,0,0,0,3.581,2.688,3.872,3.872,0,0,0,.936-.125l47.328-12.3,6.084-1.578a35.737,35.737,0,0,1,1.413-5.225,55.954,55.954,0,0,1,2.9-6.669,38.376,38.376,0,0,1,2-3.415,21.5,21.5,0,0,1,2.346-3,10.27,10.27,0,0,1,2.6-2.064,5.782,5.782,0,0,1,2.679-.747c.085,0,.172.006.258.011a4.986,4.986,0,0,1,2.915,1.1,5.659,5.659,0,0,1,1.677,2.418,11.141,11.141,0,0,1,.65,3.222,22.247,22.247,0,0,1-.043,3.68,54.624,54.624,0,0,1-.829,5.816l22.683-5.855a3.5,3.5,0,0,0,2.2-1.737,3.78,3.78,0,0,0,.359-2.787L547.7,176.19l-5.3-20.367a3.644,3.644,0,0,0-3.576-2.683" transform="translate(-440.534 -139.861)" fill="#90d8d9"/>
        <path id="Trazado_1052886" data-name="Trazado 1052886" d="M572.541,231.367c-1.185-.01-2.125-2.661-2.1-5.916s1.018-5.887,2.2-5.877,2.124,2.662,2.095,5.918-1.016,5.887-2.2,5.876" transform="translate(-390.107 -114.074)" fill="#21261f"/>
        <path id="Trazado_1052887" data-name="Trazado 1052887" d="M600.911,238.852c-.31.33-.63.646-.959.951a21.519,21.519,0,0,1-2.282,1.837,22.886,22.886,0,0,1-5.176,2.718,21.922,21.922,0,0,1-2.747.826,21.105,21.105,0,0,1-2.935.437,16.074,16.074,0,0,1-2.808-.007c-.427-.044-.854-.094-1.281-.171-1.284.283-2.582.514-3.885.7a1,1,0,0,0,.055.332,21.894,21.894,0,0,0,5.165,8.232,15.91,15.91,0,0,0,3.956,2.871c.176.089.355.174.536.253a6.908,6.908,0,0,1,.562-.83,9.846,9.846,0,0,1,1.517-1.534,16.724,16.724,0,0,1,4.338-2.436c.393-.151.8-.294,1.2-.43a27.515,27.515,0,0,1,3.724-.98,26.178,26.178,0,0,1,3.558-.426q.316-.793.579-1.673a17.9,17.9,0,0,0,.718-5.168,21.268,21.268,0,0,0-.243-2.806,23.544,23.544,0,0,0-.733-3.443,1.144,1.144,0,0,0-.405-.584c-.811.461-1.627.905-2.457,1.33" transform="translate(-386.85 -107.107)" fill="#21261f"/>
        <path id="Trazado_1052888" data-name="Trazado 1052888" d="M598.632,239.461a78.115,78.115,0,0,1-7.334,3.1c-.586.217-1.176.422-1.774.623a66.571,66.571,0,0,1-8.941,2.379l.154.057a13.116,13.116,0,0,0,1.775.482,16.767,16.767,0,0,0,1.7.222l-.1,0a17.131,17.131,0,0,0,2.311,0c.715-.058,1.423-.153,2.134-.279l-.1.015a20.863,20.863,0,0,0,2.873-.768,24.573,24.573,0,0,0,2.5-1.045h-.006a23.723,23.723,0,0,0,5.1-3.4l-.028.028a19.679,19.679,0,0,0,1.717-1.7c.244-.278.49-.555.719-.845.108-.139.215-.28.321-.423-1.019.557-2.034,1.079-3.029,1.551" transform="translate(-386.172 -106.956)" fill="#fefefe"/>
        <path id="Trazado_1052889" data-name="Trazado 1052889" d="M594.05,247.5a21.563,21.563,0,0,0-2.356.963,17.659,17.659,0,0,0-3.792,2.5,11.7,11.7,0,0,0-1.791,2.017,8.1,8.1,0,0,0-.618,1.134,11.744,11.744,0,0,0,4.661,1.259,11.093,11.093,0,0,0,2.476-.15,7.781,7.781,0,0,0,1.292-.322,12.347,12.347,0,0,0,1.38-.566,10.487,10.487,0,0,0,2.085-1.444,10.609,10.609,0,0,0,1.834-2.059,15.482,15.482,0,0,0,1.992-3.926,6.019,6.019,0,0,0-1.387-.26,13.957,13.957,0,0,0-3.506.24,19.584,19.584,0,0,0-2.271.608" transform="translate(-384.266 -103.574)" fill="#f68677"/>
        <path id="Trazado_1052890" data-name="Trazado 1052890" d="M601.811,232.509c1.334.075,2.575-2.676,2.771-6.141s-.727-6.338-2.062-6.413-2.576,2.676-2.772,6.14.727,6.34,2.063,6.415" transform="translate(-378.743 -113.927)" fill="#21261f"/>
        <path id="Trazado_1052891" data-name="Trazado 1052891" d="M590.91,210.038a.381.381,0,0,0-.326.192c-.489.9-.933,1.806-1.378,2.724-.726,1.485-1.42,2.993-2.1,4.506-1.434,3.193-3.282,7.429-4.843,11.887a62.265,62.265,0,0,0-1.853,6.216,31.725,31.725,0,0,0-.89,5.761c-.142,2.769.294,6.387,3.173,7.9a6.588,6.588,0,0,0,2.787.7l.294.006a12.622,12.622,0,0,0,3.066-.483,1.13,1.13,0,0,0,.7-.537,1.2,1.2,0,0,0-1.037-1.812,1.225,1.225,0,0,0-.308.044c-.389.093-.774.157-1.17.211a9.45,9.45,0,0,1-1.234.082,6.53,6.53,0,0,1-.8-.044,4.555,4.555,0,0,1-1.015-.264,4.452,4.452,0,0,1-.654-.379,5.009,5.009,0,0,1-.583-.593,5.379,5.379,0,0,1-.525-.909,8.532,8.532,0,0,1-.5-1.942,21.721,21.721,0,0,1,.151-5.462,65.641,65.641,0,0,1,2.349-10.024c.965-3.161,2.152-6.429,3.523-9.71.618-1.459,1.323-3.041,2.054-4.614.412-.868.9-1.892,1.437-2.879a.372.372,0,0,0-.135-.511.345.345,0,0,0-.186-.057" transform="translate(-386.594 -117.775)" fill="#8e4542"/>
        <path id="Trazado_1052892" data-name="Trazado 1052892" d="M579.9,197.792a19.975,19.975,0,0,0-5.523.836c-5.764,1.684-9.776,5.372-8.947,8.221.529,1.82,3,2.95,6.451,2.95a19.962,19.962,0,0,0,5.518-.836,17.9,17.9,0,0,0,6.946-3.663c1.7-1.556,2.408-3.175,2-4.557-.53-1.82-3-2.95-6.445-2.95" transform="translate(-392.097 -122.529)" fill="#21261f"/>
        <path id="Trazado_1052893" data-name="Trazado 1052893" d="M605.439,199.33c-3.068,0-5.185.954-5.811,2.617-.533,1.413.082,3.164,1.732,4.928a18.7,18.7,0,0,0,6.98,4.4,19.934,19.934,0,0,0,6.887,1.362c3.065,0,5.182-.956,5.808-2.622,1.1-2.915-2.808-7.1-8.709-9.323a19.936,19.936,0,0,0-6.887-1.362" transform="translate(-378.852 -121.932)" fill="#21261f"/>
        <text id="E" transform="translate(45.524 117.159) rotate(-13.775)" fill="#fff" font-size="95" font-family="SegoeUI, Segoe UI"><tspan x="0" y="0">E</tspan></text>
      </g>
      <g id="Grupo_1206287" data-name="Grupo 1206287" transform="translate(499.88 326.528)">
        <path id="Trazado_1052894" data-name="Trazado 1052894" d="M608.245,275.37a24.028,24.028,0,0,0-8.9,1.634,18.828,18.828,0,0,0-4.375,2.421,17.673,17.673,0,0,0-1.953,1.688,18.557,18.557,0,0,0-1.308,1.5,9.364,9.364,0,0,0-1.558-1.656,11.183,11.183,0,0,0-3.529-2.009,9.3,9.3,0,0,0-3.051-.5,9.9,9.9,0,0,0-1,.049,13.809,13.809,0,0,0-7.615,3.54,19.238,19.238,0,0,0-4.466,6.115,26.632,26.632,0,0,0-2.339,7.71,27.785,27.785,0,0,0,.484,10.992.968.968,0,0,0-.2.576,37.132,37.132,0,0,0,1.412,10.9,50.834,50.834,0,0,0,4.131,10,137.106,137.106,0,0,0,9.09,14.209l.38.541c.812,1.161,1.626,2.321,2.429,3.491.78,1.138,1.6,2.359,2.385,3.606.326.526.651,1.056.966,1.588l.183.3c.38.629.759,1.258,1.151,1.881a35.157,35.157,0,0,0,2.549,3.6,18.83,18.83,0,0,0,3.429,3.214.95.95,0,0,0,.536.154,1.88,1.88,0,0,0,.311-.038,1.065,1.065,0,0,0,.391-.21,16.041,16.041,0,0,0,5.555,3.239,14.409,14.409,0,0,0,4.625.74c.466,0,.938-.022,1.4-.06a18.145,18.145,0,0,0,5.948-1.671,20.8,20.8,0,0,0,5.1-3.43,22.293,22.293,0,0,0,3.983-4.759,17.938,17.938,0,0,0,2.871-11.552,16.585,16.585,0,0,0-.451-2.281,10.959,10.959,0,0,0,3.4-1.323,13.327,13.327,0,0,0,5.889-7.925,16.8,16.8,0,0,0,.652-5.1,18,18,0,0,0-.869-5.186,16.876,16.876,0,0,0-2.371-4.749,16.139,16.139,0,0,0-4.012-3.9,12.94,12.94,0,0,0-1.638-.965A22.483,22.483,0,0,0,630.175,308a32.827,32.827,0,0,0,1.508-3.375,24.611,24.611,0,0,0,1.5-6.244,19.524,19.524,0,0,0-.233-5.622,18.81,18.81,0,0,0-4.695-9.138,24.372,24.372,0,0,0-8.447-5.848,29.461,29.461,0,0,0-10.428-2.377c-.379-.017-.759-.022-1.138-.022" transform="translate(-437.831 -275.37)" fill="#fea50c"/>
        <path id="Trazado_1052895" data-name="Trazado 1052895" d="M611.863,278.5a16.706,16.706,0,0,1,2.375,3.774,17.875,17.875,0,0,1,.83,2.2,18.783,18.783,0,0,1,.53,2.325,18.277,18.277,0,0,1,.164,4.984,15.928,15.928,0,0,1-.418,2.3,15.648,15.648,0,0,1-.688,2.078,18.052,18.052,0,0,1-.981,2.028,20.235,20.235,0,0,1-1.183,1.827,25.377,25.377,0,0,1-2.987,3.405,49.183,49.183,0,0,1-6.9,5.385,13.785,13.785,0,0,1,5.76,2.689,14.922,14.922,0,0,1,4.219,5.342,14.624,14.624,0,0,1,1.426,5.6,10.943,10.943,0,0,1-1.058,5.3,8.914,8.914,0,0,1-1.528,2.185,9.2,9.2,0,0,1-2.245,1.707,11.43,11.43,0,0,1-2.978,1.091,16.787,16.787,0,0,1-2.694.325,18.048,18.048,0,0,1,5.324,6.517,14.66,14.66,0,0,1,1.308,4.366,11.9,11.9,0,0,1,.065,2.444,11.063,11.063,0,0,1-.369,2.153,11.88,11.88,0,0,1-.905,2.284,12.61,12.61,0,0,1-1.328,2,15.15,15.15,0,0,1-2.755,2.651,15.775,15.775,0,0,1-3.226,1.834,18.382,18.382,0,0,1-3.661,1.1,27.5,27.5,0,0,1-8.057.233c-1.093-.119-2.179-.285-3.259-.489a20.213,20.213,0,0,0,2.592,2.261,1.011,1.011,0,0,0,.554.168,1.9,1.9,0,0,0,.314-.038,1.164,1.164,0,0,0,.412-.222,15.322,15.322,0,0,0,5.526,3.241,14.409,14.409,0,0,0,4.631.75c.466,0,.937-.022,1.4-.06a18.409,18.409,0,0,0,5.954-1.681,20.868,20.868,0,0,0,5.114-3.433,22.5,22.5,0,0,0,3.985-4.767A17.873,17.873,0,0,0,620,342.8a14.638,14.638,0,0,0-.455-2.288,10.026,10.026,0,0,0,3.39-1.291,13.366,13.366,0,0,0,5.9-7.939,16.782,16.782,0,0,0,.655-5.107,17.534,17.534,0,0,0-.873-5.195,16.764,16.764,0,0,0-2.375-4.75,16,16,0,0,0-4.017-3.916,11.427,11.427,0,0,0-1.644-.965,19.719,19.719,0,0,0,2.321-3.709,32.436,32.436,0,0,0,1.508-3.377,24.725,24.725,0,0,0,1.508-6.252,19.478,19.478,0,0,0-.233-5.623,18.881,18.881,0,0,0-4.7-9.159,24.392,24.392,0,0,0-8.458-5.851,29.755,29.755,0,0,0-2.883-1.069,15.688,15.688,0,0,1,2.227,2.192" transform="translate(-430.53 -275.004)" fill="#f19702"/>
        <path id="Trazado_1052896" data-name="Trazado 1052896" d="M600.8,319.874h0" transform="translate(-425.033 -258.096)" fill="#f19702"/>
        <path id="Trazado_1052897" data-name="Trazado 1052897" d="M564.192,291.773c-3.276,0-6.667.171-10.077.509a91.346,91.346,0,0,0-20.25,4.4,76.1,76.1,0,0,0-18.353,9.119,65.192,65.192,0,0,0-7.968,6.394c-1.166,1.1-2.357,2.313-3.64,3.72a48.333,48.333,0,0,0-3.579,4.409,35.491,35.491,0,0,0-5.169,10.307,30.052,30.052,0,0,0-1.112,5.479,27.256,27.256,0,0,0,.021,5.567,27.78,27.78,0,0,0,3.744,11.051,37.533,37.533,0,0,0,5.647,6.9l.8.825a39.886,39.886,0,0,1,4.656,5.589,15.191,15.191,0,0,1,1.473,3.076l.056.214.043.16.049.174.049.185a1.135,1.135,0,0,0,.461.7.887.887,0,0,0,.435.77l.336.217.168.108a4.213,4.213,0,0,0,.429.244l.2.1c.45.244.894.5,1.334.754.948.548,1.881,1.129,2.8,1.72,1.531.984,3.165,2.117,5.142,3.566,1.849,1.36,3.67,2.765,5.487,4.17l.493.379c1.33,1.026,2.657,2.052,4,3.053,1.809,1.355,3.375,2.465,4.93,3.494,1.423.945,2.971,1.882,4.735,2.868a79.447,79.447,0,0,0,32.437,9.823c1.842.133,3.62.2,5.283.2a62.977,62.977,0,0,0,17.03-2.282,47.881,47.881,0,0,0,9.216-3.63,43.12,43.12,0,0,0,7.638-5.114,42.681,42.681,0,0,0,6.14-6.4,45.238,45.238,0,0,0,4.675-7.457,53.27,53.27,0,0,0,5.11-17.052,66.511,66.511,0,0,0-.233-18.522,63.837,63.837,0,0,0-2.11-9.453,53.8,53.8,0,0,0-3.83-9.27,55.116,55.116,0,0,0-5.386-8.248,56.21,56.21,0,0,0-6.719-7.1,58.839,58.839,0,0,0-16.582-10.368,60.843,60.843,0,0,0-9.442-3.076,81.221,81.221,0,0,0-10.011-1.687,98.148,98.148,0,0,0-10.549-.575" transform="translate(-466.523 -269.003)" fill="#fea50c"/>
        <path id="Trazado_1052898" data-name="Trazado 1052898" d="M556.309,292.93q1.878.375,3.709.922c1.008.3,2,.634,2.982,1.009.233.075.472.157.705.237.119.039.233.071.353.11a40.565,40.565,0,0,1,4.306,1.556c.471.2.932.418,1.394.645q1.618.7,3.2,1.506c1.226.63,2.418,1.319,3.6,2.034a67.829,67.829,0,0,1,6.648,4.636l-.211-.162a61.526,61.526,0,0,1,11.126,11.42l-.015-.017c.006.011.015.021.021.032,0-.006-.006-.011-.006-.015s.006.01.011.021l.011.011c-.006,0-.006-.006-.011-.006.022.028.039.049.06.076v-.006c.017.026.037.049.054.076-.017-.022-.037-.05-.054-.071a55.69,55.69,0,0,1,3.623,5.65,54.32,54.32,0,0,1,3.172,6.741.359.359,0,0,1,.026.069v.006a.613.613,0,0,0,.028.071v-.006a.279.279,0,0,0,.015.043,53.967,53.967,0,0,1,3.205,13.346c0-.017-.006-.039-.006-.06.006.06.017.119.022.185-.006-.044-.011-.082-.017-.125.006.049.011.1.017.14v0a69.641,69.641,0,0,1-.44,17.222c.006-.054.017-.108.022-.162-.375,2.549-.9,5.071-1.5,7.57-.04.168-.083.333-.125.5-.475,2.243-1.033,4.47-1.635,6.683.589-1.294,1.119-2.621,1.619-3.955s.966-2.674,1.438-4.013l.585-2.082c.06-.265.119-.537.179-.808a79.044,79.044,0,0,0,1.606-11.822,59.516,59.516,0,0,0-3.205-23.495,49.2,49.2,0,0,0-5.06-10.178,57.652,57.652,0,0,0-6.8-8.562,59.1,59.1,0,0,0-8.329-7.2,54.257,54.257,0,0,0-4.6-2.955c-1.573-.9-3.205-1.707-4.853-2.456q-1.659-.758-3.362-1.4c-1.313-.494-2.653-.907-4.008-1.274-1.633-.434-3.28-.8-4.929-1.166-1.508-.244-3.026-.45-4.544-.634a.432.432,0,0,0-.017.114" transform="translate(-442.303 -268.598)" fill="#d88500"/>
        <path id="Trazado_1052899" data-name="Trazado 1052899" d="M588.526,319.264a.025.025,0,0,0,0-.01.012.012,0,0,0,0,.01" transform="translate(-429.798 -258.336)" fill="#d88500"/>
        <path id="Trazado_1052900" data-name="Trazado 1052900" d="M588.524,319.262c0-.01-.007-.019-.01-.029a.124.124,0,0,0,.01.029" transform="translate(-429.802 -258.344)" fill="#d88500"/>
        <path id="Trazado_1052901" data-name="Trazado 1052901" d="M583.524,310.125a.388.388,0,0,0-.028-.035c.011.013.018.024.028.035" transform="translate(-431.75 -261.893)" fill="#d88500"/>
        <path id="Trazado_1052902" data-name="Trazado 1052902" d="M583.54,310.15l0-.006,0,0,.007.01" transform="translate(-431.735 -261.874)" fill="#d88500"/>
        <path id="Trazado_1052903" data-name="Trazado 1052903" d="M588.484,319.153l-.008-.022s0,0,0-.006.006.022.011.028" transform="translate(-429.818 -258.386)" fill="#d88500"/>
        <path id="Trazado_1052904" data-name="Trazado 1052904" d="M588.5,319.191c0-.015-.01-.031-.015-.046a.44.44,0,0,0,.015.046" transform="translate(-429.815 -258.378)" fill="#d88500"/>
        <path id="Trazado_1052905" data-name="Trazado 1052905" d="M588.492,319.181h0v0" transform="translate(-429.81 -258.365)" fill="#d88500"/>
        <path id="Trazado_1052906" data-name="Trazado 1052906" d="M552.754,380.825a15.429,15.429,0,0,0-7.679,1.977,17.774,17.774,0,0,0-2.2,1.491,19.5,19.5,0,0,0-3.522,3.658,20.872,20.872,0,0,0-1.374,2.035.855.855,0,0,0-.26-.583,1.059,1.059,0,0,0-1.494,0,1.032,1.032,0,0,0-.308.75,20.489,20.489,0,0,1,.022,4.875,12.536,12.536,0,0,1-2.525,6.122,18.892,18.892,0,0,1-3.18,3.109,55.134,55.134,0,0,1-6.637,4.1c-1.252.694-2.546,1.412-3.784,2.171a27.688,27.688,0,0,0-4.871,3.668,14.988,14.988,0,0,0-3.458,5.06,15.948,15.948,0,0,0-1.128,6.148,14.433,14.433,0,0,0,.276,2.692,11.032,11.032,0,0,0,.761,2.346,9.815,9.815,0,0,0,2.661,3.54,13.885,13.885,0,0,0,4.212,2.395,22.282,22.282,0,0,0,5.165,1.161,33.06,33.06,0,0,0,4.015.228c.6,0,1.2-.014,1.8-.037a65.34,65.34,0,0,0,13.153-2.018,87.93,87.93,0,0,0,13.058-4.375,61.064,61.064,0,0,0,10.631-5.614,29.97,29.97,0,0,0,3.624-2.849,17.429,17.429,0,0,0,2.947-3.587.548.548,0,0,0,.187.028,1.09,1.09,0,0,0,.93-.526,1.07,1.07,0,0,0-.373-1.445,1.778,1.778,0,0,0-.528-.537.989.989,0,0,0-.484-.139c-.219-.16-.447-.322-.669-.49a21.038,21.038,0,0,1-3.5-3.468,20.6,20.6,0,0,1-2.388-4.081l-.079-.133.014-.006a24.269,24.269,0,0,1-1.5-5.626,34.288,34.288,0,0,1,.1-8.948c.1-.673.205-1.34.33-2.007a.644.644,0,0,0,.082-.222c.043-.248.082-.5.108-.759a58.607,58.607,0,0,1,1.773-6.542.951.951,0,0,0-.075-.754,1.108,1.108,0,0,0-.661-.543.938.938,0,0,0-.275-.039,1.1,1.1,0,0,0-1.022.773c-.244.733-.478,1.477-.694,2.214a7.5,7.5,0,0,0-1.288-1.714,10.384,10.384,0,0,0-3.129-2.1,15.243,15.243,0,0,0-3.826-1.145,18.066,18.066,0,0,0-2.947-.25" transform="translate(-460.139 -234.436)" fill="#febe86"/>
        <path id="Trazado_1052907" data-name="Trazado 1052907" d="M541.143,381.752a14.023,14.023,0,0,0-2.256,1.036,17.452,17.452,0,0,0-2.2,1.491,19.71,19.71,0,0,0-3.53,3.661,20.888,20.888,0,0,0-1.373,2.045.643.643,0,0,0-.217-.6,1.095,1.095,0,0,0-1.534,0,1.077,1.077,0,0,0-.315.77,20.666,20.666,0,0,1,.022,4.879,14.332,14.332,0,0,1-.938,3.433,14.123,14.123,0,0,1-1.584,2.668c-.3.375-.614.74-.954,1.1.571.024,1.143.033,1.713.033a41.276,41.276,0,0,0,5.364-.362,40.341,40.341,0,0,0,5.075-1.036c-.006,0-.017,0-.028.01a38.472,38.472,0,0,0,4.674-1.616,39.9,39.9,0,0,0,4.388-2.19h0l-.018.01a.045.045,0,0,1,.018-.01,40.67,40.67,0,0,0,4.32-2.918,45.174,45.174,0,0,0,3.872-3.4,45.949,45.949,0,0,0,4.073-4.652c.158-.207.312-.415.468-.623q.166-.537.346-1.08a.931.931,0,0,0-.082-.775,1.14,1.14,0,0,0-.672-.559,1.059,1.059,0,0,0-.287-.043,1.125,1.125,0,0,0-1.041.791c-.244.733-.477,1.476-.694,2.213a6.34,6.34,0,0,0-1.248-1.724,10.247,10.247,0,0,0-3.14-2.1,15.341,15.341,0,0,0-3.827-1.155,18.46,18.46,0,0,0-2.955-.248,15.625,15.625,0,0,0-5.433.948m6.284,15.335c-.017.011-.037.022-.054.032.017-.01.038-.021.054-.032" transform="translate(-453.965 -234.444)" fill="#d79d70"/>
        <path id="Trazado_1052908" data-name="Trazado 1052908" d="M539.8,311.566c-1.155,0-2.31.032-3.433.092-1.587.093-3.116.255-4.546.483a28.245,28.245,0,0,0-11.865,4.471.935.935,0,0,0-.7-.361l-.229.006a1.407,1.407,0,0,0-.561.262,20.279,20.279,0,0,0-5.9,6.4,30.025,30.025,0,0,0-3.2,8.229c-1.3,5.5-1.578,11.011-1.789,17.127l-.054,1.616-.005.218c-.062,1.917-.14,4.3-.3,6.577a53.076,53.076,0,0,1-.922,7.47,33.049,33.049,0,0,1-.873,3.2c-.756,2.293-1.741,4.55-2.692,6.733-1.781,4.066-3.593,8.2-4.07,12.667a25.525,25.525,0,0,0,1.2,10.515,28.214,28.214,0,0,0,4.872,8.87,42.1,42.1,0,0,0,16.04,11.733,57.943,57.943,0,0,0,14.959,4.088,72.085,72.085,0,0,0,10.179.723c2.2,0,4.439-.1,6.644-.305,1.526-.139,3.051-.329,4.535-.564a61.444,61.444,0,0,0,11.91-3.1,43.789,43.789,0,0,0,13.843-8.148,34.293,34.293,0,0,0,5.278-5.923q.6-.854,1.123-1.741a15.078,15.078,0,0,0,2.6.212,18.936,18.936,0,0,0,2.926-.229,22.623,22.623,0,0,0,4.9-1.394,21.9,21.9,0,0,0,9.023-6.667,15.525,15.525,0,0,0,3.272-7.241,15.884,15.884,0,0,0,.168-2.145,16.347,16.347,0,0,0-.162-2.03,10.8,10.8,0,0,0-4.836-7.715,11.684,11.684,0,0,0-4.252-1.716,13.97,13.97,0,0,0-2.475-.233,12.553,12.553,0,0,0-1.878.146l-.391.071a13.137,13.137,0,0,0-4.277,1.673l.161-.652.521-1.484.13-.385.1-.276c.212-.614.429-1.231.645-1.843l.776-2.127.774-2.131a63.4,63.4,0,0,0,3.1-10.718,29.819,29.819,0,0,0-.054-11.327,28.162,28.162,0,0,0-1.453-4.834,29.465,29.465,0,0,0-2.209-4.313,31.992,31.992,0,0,0-6.157-7.16,46.83,46.83,0,0,0-7.856-5.5,74.423,74.423,0,0,0-8.855-4.207,104.406,104.406,0,0,0-17.166-5.239,80.2,80.2,0,0,0-16.525-1.877" transform="translate(-464.726 -261.32)" fill="#febe86"/>
        <path id="Trazado_1052909" data-name="Trazado 1052909" d="M533.637,311.635c-1.589.092-3.118.255-4.549.483a28.389,28.389,0,0,0-11.876,4.478.878.878,0,0,0-.683-.368l-.228.006a1.537,1.537,0,0,0-.575.271,20.182,20.182,0,0,0-5.911,6.409,29.755,29.755,0,0,0-3.205,8.232,55.842,55.842,0,0,0-1.024,5.7c.119-.006.239-.017.358-.026a30.394,30.394,0,0,0,3.536-.537l-.093.017a25.63,25.63,0,0,0,3.075-.873,24.964,24.964,0,0,0,2.907-1.254c-.022.017-.048.028-.076.044a21.591,21.591,0,0,0,2.229-1.319,21.932,21.932,0,0,0,2.028-1.577c-.022.015-.044.037-.065.054a18.485,18.485,0,0,0,1.675-1.7,19.83,19.83,0,0,0,1.29-1.719l.011-.011c0-.006.006-.006.006-.011s.011-.017.017-.026c.125-.185.239-.375.358-.569a.356.356,0,0,1,.194-.174.265.265,0,0,1,.114-.022h.011a.378.378,0,0,1,.228-.341.291.291,0,0,1,.119-.022.359.359,0,0,1,.147.033.349.349,0,0,1,.183.189c.14.279.275.554.423.826h0l.006.01.017.032c-.006-.006-.006-.01-.011-.015a38.422,38.422,0,0,0,5.558,7.639,41.291,41.291,0,0,0,8.329,6.9l-.082-.049a32.891,32.891,0,0,0,3.607,1.952,29.653,29.653,0,0,0,3.741,1.421c-.032-.006-.06-.017-.092-.022a24.217,24.217,0,0,0,2.907.672,21.155,21.155,0,0,0,2.928.278h-.087a19.274,19.274,0,0,0,2.37-.1,17.615,17.615,0,0,0,2.326-.407,17,17,0,0,0,2.088-.661q.96-.383,1.886-.862c.673-.369,1.334-.765,1.98-1.2a.409.409,0,0,1,.169-.06.353.353,0,0,1,.222-.308.306.306,0,0,1,.124-.022.351.351,0,0,1,.326.222c.879,2.25,1.7,4.528,2.592,6.773a58.967,58.967,0,0,0,2.751,6.127l.008.017-.008-.017a.032.032,0,0,0-.008-.01,30.782,30.782,0,0,0,1.9,3.128,28.071,28.071,0,0,0,2.256,2.8L572,362.01a25.652,25.652,0,0,0,2.472,2.332,30.733,30.733,0,0,0,2.982,2.136l-.081-.049a30.018,30.018,0,0,0,3.806,2.011,31.034,31.034,0,0,0,3.372,1.236h0l-.007,0s0,0,.007,0a37.152,37.152,0,0,0,8.148,1.4c.007-.021.015-.042.022-.064l.775-2.125.776-2.131a62.825,62.825,0,0,0,3.1-10.726,30.02,30.02,0,0,0-.054-11.339,28.647,28.647,0,0,0-1.459-4.831,29.539,29.539,0,0,0-2.213-4.316,31.626,31.626,0,0,0-6.159-7.169,46.759,46.759,0,0,0-7.863-5.5,73.639,73.639,0,0,0-8.855-4.209,104.931,104.931,0,0,0-17.167-5.249,80.956,80.956,0,0,0-16.533-1.875c-1.155,0-2.31.032-3.433.092" transform="translate(-461.991 -261.329)" fill="#f2b37e"/>
        <path id="Trazado_1052910" data-name="Trazado 1052910" d="M519.045,323.283a.024.024,0,0,1-.006-.01.015.015,0,0,0,.006.01" transform="translate(-456.77 -256.776)" fill="#f2b37e"/>
        <path id="Trazado_1052911" data-name="Trazado 1052911" d="M517.759,323.333v.011l-.011.014.011-.014c0-.006.006-.011.011-.017s-.006.006-.011.006" transform="translate(-457.271 -256.755)" fill="#f2b37e"/>
        <path id="Trazado_1052912" data-name="Trazado 1052912" d="M517.747,323.35Z" transform="translate(-457.271 -256.746)" fill="#f2b37e"/>
        <path id="Trazado_1052913" data-name="Trazado 1052913" d="M517.743,323.361l0,.006.007-.011,0,.006" transform="translate(-457.274 -256.744)" fill="#f2b37e"/>
        <path id="Trazado_1052914" data-name="Trazado 1052914" d="M517.739,323.37c0,.007-.007.014-.01.019l.015-.028s0,.006-.005.008" transform="translate(-457.278 -256.741)" fill="#f2b37e"/>
        <path id="Trazado_1052915" data-name="Trazado 1052915" d="M517.731,320.556a1.049,1.049,0,0,0-.6,1.345,36.175,36.175,0,0,0,4.344,7.256,45.374,45.374,0,0,0,6.392,6.788,38.278,38.278,0,0,0,7.777,5.254,25.569,25.569,0,0,0,8.486,2.647,18.559,18.559,0,0,0,7.782-.727,17.693,17.693,0,0,0,3.644-1.681,16.9,16.9,0,0,0,3.638-2.851,1.037,1.037,0,0,0-.912-1.7,1.081,1.081,0,0,0-.694.369c-.112.117-.225.232-.34.346a18.661,18.661,0,0,1-3.466,2.465,16.77,16.77,0,0,1-3.724,1.416,17.509,17.509,0,0,1-4.008.416,21.458,21.458,0,0,1-5.336-.882c.092.022.179.05.271.076a29.8,29.8,0,0,1-6.853-3.111l.032.021-.037-.025c-.067-.039-.135-.081-.2-.122l.169.1a41.837,41.837,0,0,1-8.275-6.869l.183.2a40.138,40.138,0,0,1-5.986-8.2q-.5-.947-.938-1.935a1.09,1.09,0,0,0-.981-.669,1.065,1.065,0,0,0-.364.067m16.393,17.426.006,0-.037-.025Z" transform="translate(-457.539 -257.856)" fill="#f2b37e"/>
        <path id="Trazado_1052916" data-name="Trazado 1052916" d="M568.935,360.251a.835.835,0,0,0-.168,1.16,5.054,5.054,0,0,1,.3.458,8.876,8.876,0,0,1,.777,1.992,14,14,0,0,1,.323,3.411v-.211a19.684,19.684,0,0,1-.7,4.831c0-.008,0-.018.007-.026,0,.015-.008.03-.012.047-.01.033-.019.069-.031.1,0-.014.007-.029.011-.043a13.2,13.2,0,0,1-1.258,2.9c.012-.024.025-.047.04-.072a8.85,8.85,0,0,1-1.123,1.445,6.418,6.418,0,0,1-.691.584.444.444,0,1,0,.532.711,10.317,10.317,0,0,0,2.711-3.226,16.643,16.643,0,0,0,1.789-4.784,15.038,15.038,0,0,0,.244-4.928,10.8,10.8,0,0,0-.537-2.306,6.956,6.956,0,0,0-1.051-1.881.856.856,0,0,0-.67-.325.815.815,0,0,0-.49.163m.873,3.465c.006.019.008.042.014.064-.006-.022-.008-.044-.014-.064M568.222,374.8l.019-.03c-.007.01-.013.019-.019.03m1.217-2.823c.006-.021.013-.04.019-.061a.115.115,0,0,1,.006-.021.723.723,0,0,0-.025.082" transform="translate(-438.451 -242.485)" fill="#d79d70"/>
        <path id="Trazado_1052917" data-name="Trazado 1052917" d="M571.234,359.271a8.992,8.992,0,0,0-3.118,1.106.7.7,0,0,0-.336.4.672.672,0,0,0,.95.787,10.262,10.262,0,0,1,1.6-.744l-.026.01a13.63,13.63,0,0,1,3.155-.682l-.136.017c.494-.039.981-.054,1.476-.044a11.734,11.734,0,0,1,1.442.147l-.114-.017a9.294,9.294,0,0,1,2.179.64h0a6.745,6.745,0,0,1,1.313.813.929.929,0,0,1-.075-.065,6.165,6.165,0,0,1,.575.554.372.372,0,0,0,.547-.505,9.068,9.068,0,0,0-5.829-2.532,13.147,13.147,0,0,0-1.344-.068,14.463,14.463,0,0,0-2.257.182m-.965,1.573c-.032.011-.064.024-.1.032Z" transform="translate(-437.86 -242.873)" fill="#d79d70"/>
        <path id="Trazado_1052918" data-name="Trazado 1052918" d="M537.893,400.406a.028.028,0,0,0-.019.019l-.205.053c-2.242.707-4.423,1.548-6.444,2.353a131.106,131.106,0,0,0-13.754,6.924c-1.657.975-3.13,1.88-4.5,2.768-1.714,1.1-3.065,2.017-4.253,2.873s-2.345,1.724-3.432,2.608c-.841.755-1.671,1.514-2.474,2.295a85.7,85.7,0,0,0-12.371,15.093,101.366,101.366,0,0,0-9.614,19.465,111.662,111.662,0,0,0-4.557,15.162,87.726,87.726,0,0,0-2.086,15.588,1.111,1.111,0,0,0,.747,1.1.956.956,0,0,0,.568.326c11.047,1.034,22.851,1.5,38.266,1.5,6.2,0,12.81-.076,18.123-.139l1.091-.012,5.081-.06c4.457-.043,8.924-.08,13.387-.08h2.271c5.525.01,11.025.125,15.677.237l8.34.212,2.136.049c7.187.179,14.3.358,21.419.493,6.928.125,12.4.2,17.233.223,1.806.01,3.524.021,5.249.021,1.106,0,2.22-.006,3.326-.017,1.377-.01,2.76-.032,4.137-.054,1.56-.022,3.093-.043,4.62-.054a12.82,12.82,0,0,0,.219-1.916l.011-.185a93.764,93.764,0,0,0-2.576-23.207,81.269,81.269,0,0,0-3.715-11.483,77.917,77.917,0,0,0-5.456-10.846,89.159,89.159,0,0,0-14.887-18.206,121.177,121.177,0,0,0-14.931-12.148l-1.036-.668-1.035-.666-1.08-.615c-1.315-.743-2.625-1.485-3.92-2.256l-.375-.194-.726-.387-.722-.383c-.6-.282-1.211-.547-1.83-.791-.4-.158-.808-.31-1.219-.45a.559.559,0,0,0-.168.133,37.178,37.178,0,0,1-6.175,6.283,50.115,50.115,0,0,1-10.614,6.413l-.132.075a35.5,35.5,0,0,1-13.755,2.743c-1.133,0-2.224-.051-3.24-.151a24.574,24.574,0,0,1-6.049-1.366,16.325,16.325,0,0,1-3.559-1.907,11.607,11.607,0,0,1-1.868-1.809,10.059,10.059,0,0,1-1.174-1.943,10.354,10.354,0,0,1-.568-1.988,11.7,11.7,0,0,1-.069-2.81,18.143,18.143,0,0,1,1.012-4.128c.33-.838.7-1.653,1.123-2.493l.319-.847.261-.705Z" transform="translate(-474.182 -226.836)" fill="#ab4991"/>
        <path id="Trazado_1052919" data-name="Trazado 1052919" d="M558.559,440.524a43.472,43.472,0,0,1,.3,5.933,54.966,54.966,0,0,1-.45,5.965,69.471,69.471,0,0,1-2.636,11.686c-1.1,3.5-2.4,6.935-3.828,10.313q6.649.169,13.24.321a113.166,113.166,0,0,0-.952-15.075v.022a88.31,88.31,0,0,0-2.093-10.628,75.658,75.658,0,0,0-3.411-10.081l.033.082q-.331-.781-.679-1.555.3,1.5.477,3.018m5.672,19.164c.006.022.006.049.011.071a.319.319,0,0,1-.011-.071" transform="translate(-443.997 -212.435)" fill="#9b4283"/>
        <path id="Trazado_1052920" data-name="Trazado 1052920" d="M552.283,403.78q-.252.333-.516.664a26.284,26.284,0,0,1,3.862,2.053,52.873,52.873,0,0,1,6.838,5.293c1.356,1.215,2.674,2.467,3.974,3.736.623.607,1.248,1.22,1.866,1.827.64.629,1.28,1.259,1.9,1.9a69.634,69.634,0,0,1,7.191,8.872,84.631,84.631,0,0,1,5.818,9.9c1.72,3.416,3.243,6.924,4.614,10.488.771,1.989,1.481,4,2.1,6.034.629,2.056,1.194,4.133,1.681,6.226a126.786,126.786,0,0,1,2.234,12.509c.646,4.967,1.063,9.957,1.391,14.952.583,0,1.167-.007,1.749-.012,1.377-.011,2.761-.032,4.138-.054,1.631-.028,3.129-.043,4.62-.054a10.892,10.892,0,0,0,.239-1.914l.021-.217a94.019,94.019,0,0,0-2.581-23.22,81.778,81.778,0,0,0-3.72-11.484,77.31,77.31,0,0,0-5.454-10.846,89.485,89.485,0,0,0-14.891-18.22,120.788,120.788,0,0,0-14.934-12.146l-1.041-.666-1.036-.668-1.079-.612c-1.313-.743-2.625-1.485-3.92-2.256l-.375-.2-.726-.385-.722-.385c-.6-.283-1.209-.548-1.827-.793-.407-.157-.814-.308-1.226-.45a.447.447,0,0,0-.185.12" transform="translate(-444.066 -225.572)" fill="#9b4283"/>
        <path id="Trazado_1052921" data-name="Trazado 1052921" d="M520.767,399.747a1.114,1.114,0,0,0-1.016.745c-2.143,5.493-2.4,9.971-.776,13.686a11.163,11.163,0,0,0,3.383,4.241,15.108,15.108,0,0,0,5,2.492,25.182,25.182,0,0,0,6.152,1.009c.487.021.981.032,1.476.032a38.258,38.258,0,0,0,5.278-.385,41.677,41.677,0,0,0,6.694-1.508,39.045,39.045,0,0,0,6.336-2.561,38.394,38.394,0,0,0,6.026-3.959,32.442,32.442,0,0,0,7.421-7.736,1.039,1.039,0,0,0,.15-.793,1.085,1.085,0,0,0-.457-.684,1.074,1.074,0,0,0-1.478.312,24.887,24.887,0,0,1-1.967,2.59l.215-.165a44.923,44.923,0,0,1-7.625,6.594,33.763,33.763,0,0,1-7.421,3.756l-.237.093a41.762,41.762,0,0,1-9.718,2.163c-1.069.092-2.127.14-3.144.14a28.389,28.389,0,0,1-4.781-.39,18.589,18.589,0,0,1-4.378-1.338,12.782,12.782,0,0,1-2.681-1.712,10.711,10.711,0,0,1-1.516-1.684,10.2,10.2,0,0,1-1.023-1.982,12.017,12.017,0,0,1-.569-2.556,16.535,16.535,0,0,1,.218-4.035,27.024,27.024,0,0,1,1.456-4.958.951.951,0,0,0-.038-.765,1.121,1.121,0,0,0-.648-.583,1,1,0,0,0-.329-.06" transform="translate(-457.202 -227.091)" fill="#85386f"/>
        <path id="Trazado_1052922" data-name="Trazado 1052922" d="M555.522,434.423a.552.552,0,0,0-.451.251.426.426,0,0,0-.006.441,47.29,47.29,0,0,1,2.157,5.063c3.134,9,4.034,18.589,4.63,26.871l.039-.222q.121,2.838.237,5.683l.071,1.557.069,1.555c.011.168.022.336.039.5a1.91,1.91,0,0,0,.443.881,1.915,1.915,0,0,0,3.354-1.152c.037-1.467,0-3.079-.114-4.931-.138-2.063-.3-3.888-.5-5.576a82.277,82.277,0,0,0-2.057-10.694,99.293,99.293,0,0,0-7.51-19.969.446.446,0,0,0-.4-.262" transform="translate(-442.808 -213.631)" fill="#85386f"/>
        <path id="Trazado_1052923" data-name="Trazado 1052923" d="M507.569,422.8a.348.348,0,0,0-.321.187c-2.018,3.208-4.17,6.684-6.242,10.345-2.031,3.588-3.855,7.193-5.417,10.717a108.358,108.358,0,0,0-4.28,11.221A103.248,103.248,0,0,0,488.328,467a70.714,70.714,0,0,0-1.183,11.108,1.751,1.751,0,0,0,.4,1.2,1.725,1.725,0,0,0,1.165.6,1.781,1.781,0,0,0,1.208-.394,1.7,1.7,0,0,0,.6-1.176c0-2.742.158-5.678.482-8.973a78.824,78.824,0,0,1,1.328-8.751,101.08,101.08,0,0,1,4.16-13.95A134.828,134.828,0,0,1,502.6,432.9l.6-1.161c1.444-2.8,3.071-5.672,4.706-8.316a.4.4,0,0,0-.09-.55.48.48,0,0,0-.247-.079" transform="translate(-469.15 -218.145)" fill="#85386f"/>
        <path id="Trazado_1052924" data-name="Trazado 1052924" d="M549.54,305.584c-2.134,0-4.389.1-6.7.3a62.773,62.773,0,0,0-19.487,4.8,53.066,53.066,0,0,0-8.716,4.745,51.571,51.571,0,0,0-7.747,6.429,53.469,53.469,0,0,0-6.909,8.72,1.01,1.01,0,0,0-.056.815,1.177,1.177,0,0,0,.1.214,1.071,1.071,0,0,0,.833,1,17.526,17.526,0,0,0,4.027.466,20.846,20.846,0,0,0,3.347-.293,26.392,26.392,0,0,0,7.471-2.583,34.363,34.363,0,0,0,6.472-4.289,39.228,39.228,0,0,0,4.729-4.643c3.2,4.709,7.228,10.089,12.627,14.279a32.2,32.2,0,0,0,9.266,5.072,25.372,25.372,0,0,0,4.953,1.22,21.478,21.478,0,0,0,2.589.162c.618,0,1.31-.033,2.056-.1a16.683,16.683,0,0,0,8.434-3.255,16.423,16.423,0,0,0,1.807-1.645l.024.512.105.539c.9,4.617,1.953,9.059,3.133,13.206a91.335,91.335,0,0,0,4.941,13.6,35.7,35.7,0,0,0,6.987,10.643,14.086,14.086,0,0,0,4.306,2.937,10.1,10.1,0,0,0,3.958.819c.341,0,.684-.021,1.026-.054a12.51,12.51,0,0,0,6.162-2.5,16.193,16.193,0,0,0,4.43-5.471,27.372,27.372,0,0,0,2.446-7.1,43.114,43.114,0,0,0,.879-7.757,47.181,47.181,0,0,0-.319-7.187c-.128-1.011-.3-2.064-.537-3.222a29.64,29.64,0,0,0-.848-3.071,51.379,51.379,0,0,0-9.524-17.038,55.18,55.18,0,0,0-14.769-12.181,61.044,61.044,0,0,0-18.093-6.763,66.307,66.307,0,0,0-13.4-1.328" transform="translate(-464.213 -263.642)" fill="#fea50c"/>
        <path id="Trazado_1052925" data-name="Trazado 1052925" d="M521.4,311.8a.376.376,0,0,0-.183.5c.845,1.481,1.75,2.918,2.737,4.306a46.736,46.736,0,0,0,3.308,4.083,43.468,43.468,0,0,0,3.709,3.655,33.048,33.048,0,0,0,4.142,3.118,30.467,30.467,0,0,0,4.593,2.375,27.159,27.159,0,0,0,4.956,1.464,23.554,23.554,0,0,0,5.081.45,23.248,23.248,0,0,0,5.4-.711c.629-.168,1.247-.368,1.855-.586a1.454,1.454,0,0,0,.791-.877,1.524,1.524,0,0,0-.933-1.937l-.385-.082a1.567,1.567,0,0,0-.765.142c-.051.015-.1.031-.153.049a27.125,27.125,0,0,1-6.468,1.256,24.472,24.472,0,0,1-5.708-.465,29.67,29.67,0,0,1-6.554-2.327,35.421,35.421,0,0,1-7.477-5.042.069.069,0,0,1,.01.01,39.628,39.628,0,0,1-6.544-7.7c.022.026.037.06.06.086-.336-.521-.662-1.052-.97-1.588a.409.409,0,0,0-.348-.219.345.345,0,0,0-.157.035m8,9.422c.024.021.044.039.067.061-.024-.021-.044-.039-.067-.061" transform="translate(-455.942 -261.244)" fill="#f19702"/>
        <path id="Trazado_1052926" data-name="Trazado 1052926" d="M530.926,314.725a.345.345,0,0,0-.039.487q.781.764,1.627,1.453a17.428,17.428,0,0,0,1.9,1.34,22.586,22.586,0,0,0,4.164,2.011,25.388,25.388,0,0,0,4.512,1.183c.765.129,1.546.205,2.321.265a18.644,18.644,0,0,0,2.278.037c.076,0,.146,0,.222-.01a.874.874,0,0,0,.4-.19.851.851,0,0,0,.3-.586.862.862,0,0,0-1-.905,18.919,18.919,0,0,1-2.06.233c.065,0,.125-.006.19-.006a19.675,19.675,0,0,1-4.756-.38,22.064,22.064,0,0,1-5.182-1.828,19.75,19.75,0,0,1-4-2.7c-.13-.121-.262-.243-.393-.371a.4.4,0,0,0-.272-.118.331.331,0,0,0-.215.08m.915.44.029.026-.029-.026" transform="translate(-452.203 -260.125)" fill="#f19702"/>
        <path id="Trazado_1052927" data-name="Trazado 1052927" d="M526.737,316.52a28.8,28.8,0,0,1-5.336,4.832c.015-.011.031-.022.043-.033q-1.047.748-2.146,1.42c-.744.461-1.508.879-2.267,1.308s-1.556.813-2.358,1.181-1.643.726-2.483,1.047a37.32,37.32,0,0,1-3.731,1.183,26.075,26.075,0,0,1-3.663.65q-.941.079-1.889.087c-.716.011-1.442.006-2.164-.049a1.216,1.216,0,0,0-.931,2.045,1.313,1.313,0,0,0,.829.379c.591.076,1.172.142,1.763.162a16.22,16.22,0,0,0,1.8-.065,25.306,25.306,0,0,0,3.779-.6,29.14,29.14,0,0,0,3.752-1.166,31.767,31.767,0,0,0,3.753-1.714c.58-.314,1.144-.65,1.707-.991s1.129-.689,1.664-1.063c1.129-.786,2.207-1.644,3.254-2.526a41.677,41.677,0,0,0,5.26-5.424.472.472,0,0,0,.017-.65.5.5,0,0,0-.355-.144.378.378,0,0,0-.3.128" transform="translate(-464.361 -259.447)" fill="#f19702"/>
        <path id="Trazado_1052928" data-name="Trazado 1052928" d="M575.187,308.522a.494.494,0,0,0,.06.689,28.107,28.107,0,0,1,3.877,3.444c-.028-.033-.06-.065-.092-.1a29.559,29.559,0,0,1,4.316,6.073c0-.007-.007-.011-.01-.018a34.743,34.743,0,0,1,1.782,4.037,37.09,37.09,0,0,1,1.244,4.33,43.8,43.8,0,0,1,.887,6.218,56.646,56.646,0,0,1,.147,6.422,60.626,60.626,0,0,1-1.063,8.126,73.266,73.266,0,0,1-1.948,8.043,55.29,55.29,0,0,1-2.314,6c-.455,1.009-.95,2-1.47,2.972-.254.472-.515.948-.78,1.42-.251.453-.48.92-.745,1.369-.035.054-.067.107-.1.161a1.966,1.966,0,0,0-.178,1.03,2,2,0,0,0,2.18,1.806,1.892,1.892,0,0,0,1.355-.716c.179-.26.4-.5.586-.748s.38-.515.559-.78c.466-.694.905-1.41,1.323-2.132a41.11,41.11,0,0,0,1.9-3.708,51.5,51.5,0,0,0,2.972-8.552,44.294,44.294,0,0,0,1.338-9.158,61.112,61.112,0,0,0-.271-8.861,44.358,44.358,0,0,0-1.7-8.1c-.379-1.269-.823-2.511-1.317-3.741a34.978,34.978,0,0,0-1.692-3.618c-.618-1.144-1.263-2.267-1.973-3.351a33.951,33.951,0,0,0-2.332-3.123,33.08,33.08,0,0,0-5.857-5.493.549.549,0,0,0-.322-.107.464.464,0,0,0-.367.172" transform="translate(-435.018 -262.568)" fill="#f19702"/>
        <path id="Trazado_1052929" data-name="Trazado 1052929" d="M578.025,323.4a.355.355,0,0,0-.207.451c.156.5.292,1,.412,1.508a26.246,26.246,0,0,1,.579,6.655.038.038,0,0,1,0-.013c0,.015,0,.029,0,.044,0,.031,0,.061,0,.09v-.031a36.647,36.647,0,0,1-.5,4.4c-.125.705-.293,1.4-.461,2.1s-.373,1.419-.59,2.124l0-.015a43.448,43.448,0,0,1-1.664,4.36.934.934,0,0,0,.45,1.224.924.924,0,0,0,1.226-.444,37.488,37.488,0,0,0,2.456-11.046,33.52,33.52,0,0,0-.092-5.612,28.229,28.229,0,0,0-1.16-5.6.337.337,0,0,0-.328-.222.33.33,0,0,0-.117.021m.78,8.705c0-.019,0-.039,0-.06s0-.022,0-.032c0,.029,0,.061,0,.092" transform="translate(-434.849 -256.734)" fill="#f19702"/>
        <path id="Trazado_1052930" data-name="Trazado 1052930" d="M582.521,281.366a20.473,20.473,0,0,0-4.463,3.405,16.815,16.815,0,0,0-1.778,2.142,20.032,20.032,0,0,0-1.539,2.554,18.837,18.837,0,0,0-1.806,5.455,17.154,17.154,0,0,0-.207,2.982,15.037,15.037,0,0,0,.358,2.987,1.105,1.105,0,0,0,.58.651,1.141,1.141,0,0,0,.868.06,1.172,1.172,0,0,0,.657-.58,1.208,1.208,0,0,0,.054-.868c-.117-.39-.214-.776-.3-1.174a15.01,15.01,0,0,1-.215-3.565c0,.082-.006.162-.011.244a17.852,17.852,0,0,1,.851-4.287,19.7,19.7,0,0,1,2.131-4.221l-.024.032a18.854,18.854,0,0,1,3.033-3.486l-.1.081a14.7,14.7,0,0,1,2.386-1.7.429.429,0,0,0,.119-.6.409.409,0,0,0-.347-.186.526.526,0,0,0-.25.067" transform="translate(-435.931 -273.069)" fill="#f19702"/>
        <path id="Trazado_1052931" data-name="Trazado 1052931" d="M583.037,289.173a16.218,16.218,0,0,0-2.965,5.351,19.8,19.8,0,0,0-.89,6.22.816.816,0,0,0,1.627-.119,15.63,15.63,0,0,1-.144-2.857c0,.031,0,.061-.007.092,0-.043.005-.087.008-.13,0-.012,0-.025,0-.038v.025a16.852,16.852,0,0,1,.772-3.966l-.012.031c0-.011.01-.025.014-.039.011-.029.021-.06.029-.09a.482.482,0,0,1-.018.061,13.787,13.787,0,0,1,1.494-2.957c-.022.032-.043.069-.065.1.261-.38.537-.737.83-1.09a.452.452,0,0,0-.039-.634.458.458,0,0,0-.3-.111.431.431,0,0,0-.332.149m-2.371,8.557c0,.014,0,.026,0,.039,0-.017,0-.035,0-.051a.033.033,0,0,0,0,.012m.775-3.987s0,.006,0,.008l.013-.037a.277.277,0,0,1-.011.029" transform="translate(-433.424 -270.07)" fill="#f19702"/>
        <path id="Trazado_1052932" data-name="Trazado 1052932" d="M540.066,361.853c-1.216-.083-2.014-2.858-1.784-6.191s1.4-5.97,2.618-5.887,2.013,2.858,1.784,6.191-1.4,5.971-2.618,5.887" transform="translate(-449.315 -246.49)" fill="#21261f"/>
        <path id="Trazado_1052933" data-name="Trazado 1052933" d="M512.558,358.668c-1.123-.078-1.863-2.642-1.649-5.725s1.3-5.524,2.421-5.446,1.862,2.643,1.649,5.726-1.3,5.523-2.421,5.444" transform="translate(-459.94 -247.373)" fill="#21261f"/>
        <path id="Trazado_1052934" data-name="Trazado 1052934" d="M537.965,364.657c-.364.2-.732.375-1.106.543a19.684,19.684,0,0,1-2.506.922,20.888,20.888,0,0,1-5.265.84,20.011,20.011,0,0,1-2.612-.086,19.424,19.424,0,0,1-2.663-.478,14.71,14.71,0,0,1-2.424-.825c-.358-.162-.711-.33-1.058-.521-1.194-.131-2.381-.31-3.563-.526a.988.988,0,0,0-.049.3,19.964,19.964,0,0,0,2.067,8.616,14.482,14.482,0,0,0,2.581,3.633c.128.128.258.254.39.375a5.848,5.848,0,0,1,.727-.554,8.929,8.929,0,0,1,1.756-.883,15.2,15.2,0,0,1,4.457-.841c.386-.017.776-.022,1.166-.022a25.245,25.245,0,0,1,3.5.239,23.723,23.723,0,0,1,3.2.669q.506-.593.987-1.276a16.341,16.341,0,0,0,2.125-4.257,19.679,19.679,0,0,0,.608-2.493,21.514,21.514,0,0,0,.368-3.189,1.032,1.032,0,0,0-.178-.623q-1.253.244-2.511.433" transform="translate(-457.67 -240.88)" fill="#21261f"/>
        <path id="Trazado_1052935" data-name="Trazado 1052935" d="M535.728,364.8a71.708,71.708,0,0,1-7.239.543c-.569.015-1.138.021-1.713.021a60.557,60.557,0,0,1-8.419-.55l.117.094a12.12,12.12,0,0,0,1.394.933,14.966,14.966,0,0,0,1.4.689l-.082-.032a15.571,15.571,0,0,0,2,.677c.634.157,1.274.282,1.926.379l-.093-.015a19.011,19.011,0,0,0,2.705.174,22.151,22.151,0,0,0,2.468-.174h-.006a21.712,21.712,0,0,0,5.4-1.448l-.033.015a18,18,0,0,0,1.979-.97c.293-.168.586-.336.868-.521.135-.089.268-.18.4-.272-1.045.185-2.071.339-3.069.457" transform="translate(-457.035 -240.834)" fill="#fefefe"/>
        <path id="Trazado_1052936" data-name="Trazado 1052936" d="M529.414,371.219a19.456,19.456,0,0,0-2.317.146,16.143,16.143,0,0,0-4.006,1.059,10.556,10.556,0,0,0-2.134,1.222,7.325,7.325,0,0,0-.865.8,10.705,10.705,0,0,0,3.661,2.447,10.123,10.123,0,0,0,2.182.591,7.119,7.119,0,0,0,1.212.1,11.354,11.354,0,0,0,1.358-.086,9.443,9.443,0,0,0,2.22-.64,9.734,9.734,0,0,0,2.185-1.244,14.165,14.165,0,0,0,2.865-2.811,5.416,5.416,0,0,0-1.123-.629,12.72,12.72,0,0,0-3.1-.815,17.665,17.665,0,0,0-2.138-.136" transform="translate(-456.36 -238.165)" fill="#f68677"/>
        <path id="Trazado_1052937" data-name="Trazado 1052937" d="M518.331,330.573a13.7,13.7,0,0,0-5.07,1.226c-2.6,1.113-4.7,2.719-5.208,4a1.212,1.212,0,0,0-.043.948c.23.548.987.85,2.134.85a13.752,13.752,0,0,0,5.071-1.227c2.608-1.113,4.7-2.718,5.213-3.992a1.225,1.225,0,0,0,.037-.955c-.23-.546-.988-.848-2.133-.848" transform="translate(-461.081 -253.942)" fill="#fea50c"/>
        <path id="Trazado_1052938" data-name="Trazado 1052938" d="M541.108,332.417c-1.966,0-3.222.48-3.445,1.316a1.307,1.307,0,0,0,.185,1.03c.745,1.31,3.257,2.74,6.25,3.559a17.109,17.109,0,0,0,4.43.657c1.966,0,3.221-.48,3.445-1.319a1.3,1.3,0,0,0-.186-1.029c-.744-1.309-3.255-2.74-6.25-3.558a17.046,17.046,0,0,0-4.428-.657" transform="translate(-449.556 -253.226)" fill="#fea50c"/>
        <path id="Trazado_1052939" data-name="Trazado 1052939" d="M523.533,355.65h-.25a6.986,6.986,0,0,0-1.32.125,4.206,4.206,0,0,0-1.778.85,3.89,3.89,0,0,0-1.088,1.53,5.221,5.221,0,0,0-.343,2.06.655.655,0,0,0,.161.432.584.584,0,0,0,.405.194.634.634,0,0,0,.437-.161.662.662,0,0,0,.183-.4c.017-.136.037-.271.06-.407a5.541,5.541,0,0,1,.375-1.265,3.3,3.3,0,0,1,.414-.643,4.21,4.21,0,0,1,.547-.5,3.889,3.889,0,0,1,.684-.341,5.512,5.512,0,0,1,1.184-.236c.135-.011.271-.017.405-.017a7.278,7.278,0,0,1,1.3.114,10.889,10.889,0,0,1,2.376.752,8.947,8.947,0,0,1,1.809,1.13,7.4,7.4,0,0,1,.545.511.442.442,0,0,0,.622.021.446.446,0,0,0,.129-.308.42.42,0,0,0-.107-.307,10.458,10.458,0,0,0-3.023-2.114,10.63,10.63,0,0,0-3.727-1.02Z" transform="translate(-456.881 -244.208)" fill="#c08c64"/>
      </g>
      <g id="Grupo_1206288" data-name="Grupo 1206288" transform="translate(619.581 326.878)">
        <path id="Trazado_1052940" data-name="Trazado 1052940" d="M581.115,411.642c-.3,0-.6.006-.9.011a19.591,19.591,0,0,0-3.711.4,8.075,8.075,0,0,0-3.043,1.272,4.335,4.335,0,0,0-1,1.011,4.045,4.045,0,0,0-.641,1.573,4.122,4.122,0,0,0,.185,2.3,3.822,3.822,0,0,0,1.36,1.649,6.625,6.625,0,0,0,2.075.956,56.743,56.743,0,0,0-6.6,4.824,39.3,39.3,0,0,0-4.948,5.05,27.753,27.753,0,0,0-1.855,2.528,12.251,12.251,0,0,0-1.324,2.563,4.161,4.161,0,0,0-.192,2.557,2.7,2.7,0,0,0,1.645,1.717,4.7,4.7,0,0,0,1.758.326,5.841,5.841,0,0,0,.6-.032,10.7,10.7,0,0,0-.909,1.677,16.348,16.348,0,0,0-.75,2.128,9.154,9.154,0,0,0-.347,1.7,3.519,3.519,0,0,0,.6,2.586,2.754,2.754,0,0,0,1.8.965,3.505,3.505,0,0,0,.537.039,7.6,7.6,0,0,0,1.707-.251,14.186,14.186,0,0,0,2.295-.813c.908-.387,1.786-.847,2.539-1.248.185-.1.364-.2.548-.3a9.928,9.928,0,0,0-1.238,1.689,15.72,15.72,0,0,0-1.123,2.207,16.681,16.681,0,0,0-.837,2.774,10.114,10.114,0,0,0-.233,2.216,3.911,3.911,0,0,0,.391,1.682,2.862,2.862,0,0,0,1,1.149,3.5,3.5,0,0,0,1.556.518c.175.017.348.028.516.028a10.316,10.316,0,0,0,3.019-.576,36.6,36.6,0,0,0,3.454-1.34c.6-.261,1.211-.515,1.819-.754a55.067,55.067,0,0,1,7.195-2.245c4.26-1.012,8.594-1.612,12.785-2.193a55.087,55.087,0,0,0,9.316-1.939,23.063,23.063,0,0,0,4.391-1.948,14.151,14.151,0,0,0,3.593-2.926,13.409,13.409,0,0,0,3.057-9.287,16.465,16.465,0,0,0-1.873-6.892,26.641,26.641,0,0,0-4.5-6.343,39.14,39.14,0,0,0-5.811-5.077,40.9,40.9,0,0,0-4.6-2.843.884.884,0,0,0-.415-.262l-.211-.04.007-.012c-.362-.185-.726-.358-1.09-.526a1.08,1.08,0,0,0-.44-.093,1.221,1.221,0,0,0-.489.11,89.939,89.939,0,0,0-10.887-1.52l-.936-.082c-.951-.085-1.9-.168-2.849-.271-1.058-.108-2.12-.211-3.183-.282-.991-.068-1.946-.1-2.837-.1" transform="translate(-560.411 -222.824)" fill="#bc5c58"/>
        <path id="Trazado_1052941" data-name="Trazado 1052941" d="M589.572,430.128a48.558,48.558,0,0,0-10.3,3.314c-.825.368-1.633.765-2.44,1.17s-1.6.852-2.39,1.291c-1.666.922-3.293,1.92-4.935,2.9a.364.364,0,0,0-.174.461.35.35,0,0,0,.461.174c1.351-.8,2.749-1.524,4.164-2.2s2.847-1.274,4.295-1.86a91,91,0,0,1,8.844-3.079c-.071.015-.136.037-.2.054.961-.278,1.925-.532,2.9-.793a.775.775,0,0,0,.472-.287.752.752,0,0,0,.131-.536.743.743,0,0,0-.705-.615.578.578,0,0,0-.119.012" transform="translate(-556.959 -215.653)" fill="#8e4542"/>
        <path id="Trazado_1052942" data-name="Trazado 1052942" d="M584.68,422.448a25.666,25.666,0,0,0-5.851,1.886,44.825,44.825,0,0,0-5.314,2.967c-.857.537-1.681,1.133-2.506,1.724s-1.631,1.215-2.435,1.849-1.6,1.259-2.39,1.914c-.847.7-1.681,1.416-2.522,2.121a.345.345,0,0,0-.049.487.35.35,0,0,0,.489.054c1.024-.857,2.088-1.664,3.161-2.461q1.707-1.262,3.524-2.381c-.043.026-.086.054-.13.076,1.134-.69,2.278-1.356,3.455-1.974.553-.293,1.1-.591,1.664-.862.634-.31,1.28-.591,1.925-.868q1.83-.8,3.7-1.508c1.252-.472,2.515-.9,3.779-1.34a.9.9,0,0,0,.353-.287.862.862,0,0,0,.162-.657.9.9,0,0,0-.869-.755.83.83,0,0,0-.144.013" transform="translate(-559.199 -218.635)" fill="#8e4542"/>
        <path id="Trazado_1052943" data-name="Trazado 1052943" d="M585.481,415.224c-2.375.33-4.739.765-7.071,1.323-1.116.266-2.222.569-3.318.916-1.145.358-2.272.782-3.373,1.248a.343.343,0,0,0-.179.455.356.356,0,0,0,.461.179,24.2,24.2,0,0,1,2.429-.868s-.006,0-.007,0a42.177,42.177,0,0,1,5.408-1.13c1.946-.293,3.909-.5,5.851-.825a.658.658,0,0,0-.2-1.3" transform="translate(-556.103 -221.436)" fill="#8e4542"/>
        <path id="Trazado_1052944" data-name="Trazado 1052944" d="M643.426,276.026c-.017.049-.028.092-.043.142-.222.618-.466,1.224-.743,1.821a.154.154,0,0,0-.022.038q-.277.677-.6,1.334c-.115.228-.233.455-.351.683a163.364,163.364,0,0,0,.189,27.233A209.688,209.688,0,0,0,646.7,336.6c4.67,19.976,11.859,39.774,18.2,57.245l1.377,3.791,2.754,7.613c.575,1.584,1.149,3.161,1.724,4.745.879,2.4,1.757,4.8,2.608,7.223a135.139,135.139,0,0,1,6.519,24.017c-9.376,1.013-18.854,2.435-28.159,4.208q-11.707,2.228-23.257,5.271-2.5.739-5.006,1.519c-.006.006-.006.006-.011.006s-.006,0-.01.006c-.022,0-.039.01-.06.015a.4.4,0,0,1,.06-.015l-.065.015h.006q-5,1.578-9.941,3.3c-1.648.58-3.3,1.155-4.934,1.778s-3.237,1.291-4.827,2c-4.864,2.153-9.587,4.609-14.315,7.049a19.32,19.32,0,0,1,2.131,1.41,22.485,22.485,0,0,1,3.73,3.763,30.011,30.011,0,0,1,3.482,6.062,41.127,41.127,0,0,1,2.76,10.4l0-.282a45.887,45.887,0,0,1,.037,11.333,14.368,14.368,0,0,1-.808,3.237.884.884,0,0,0,0,.543c13.512,1.317,27,2.781,40.522,4,.336.017.673.039,1.009.054,5.558.272,10.688.4,15.665.4a223.98,223.98,0,0,0,25.128-1.317,157.915,157.915,0,0,0,19.531-3.405c3.129-.759,6.307-1.67,9.456-2.7a81.573,81.573,0,0,0,7.868-3,56.006,56.006,0,0,0,12.077-7.375,52.807,52.807,0,0,0,9.272-9.592,68.47,68.47,0,0,0,11.236-24.092,97.9,97.9,0,0,0,2.5-13.648,129.984,129.984,0,0,0,.834-14.143A171.026,171.026,0,0,0,753.514,400c-.673-4.278-1.513-8.661-2.506-13.025-1.263-5.612-2.705-11.154-4.295-16.479A157.6,157.6,0,0,0,734.4,340.1a105.218,105.218,0,0,0-18.985-25.339,95.281,95.281,0,0,0-12.639-10.3c-2.245-1.539-4.614-3.015-7.25-4.512-2.737-1.539-5.607-2.944-8.383-4.294l-.3-.153c-12.677-6.193-26.282-12.466-41.585-19.173l-.84-.364-.8-.35c-.065.135-.13.268-.2.4" transform="translate(-549.173 -275.622)" fill="#779986"/>
        <path id="Trazado_1052945" data-name="Trazado 1052945" d="M670.857,295.507l-.006-.006c1.48.97,2.961,1.931,4.457,2.873,1.172.739,2.343,1.481,3.5,2.246q3.473,2.284,6.816,4.754A132.813,132.813,0,0,1,697.9,315.646a121.692,121.692,0,0,1,10.4,11.154,117.616,117.616,0,0,1,8.751,12.163,125.194,125.194,0,0,1,7.571,13.968,142.344,142.344,0,0,1,6.089,15.525,171.335,171.335,0,0,1,4.556,16.793c1.1,5.038,1.978,10.12,2.586,15.238a135.266,135.266,0,0,1,.993,15.813,110.692,110.692,0,0,1-.993,15.438c-.358,2.554-.8,5.1-1.371,7.618-.565,2.489-1.231,4.956-2.018,7.385a70.033,70.033,0,0,1-2.618,6.909,67.58,67.58,0,0,1-3.422,6.756,61.335,61.335,0,0,1-14.809,17.216,67.224,67.224,0,0,1-6.969,4.849,86.811,86.811,0,0,1-8.546,4.566,89.833,89.833,0,0,1-9.04,3.622c-3.03,1.019-6.111,1.909-9.234,2.635-3.01.7-6.045,1.291-9.1,1.752a159.6,159.6,0,0,1-19.168,1.644c-6.485.189-12.982.1-19.468-.108-11.158-.355-22.306-1.019-33.469-1.08q-.081,1.718-.292,3.373a14.013,14.013,0,0,1-.8,3.226.924.924,0,0,0,0,.569q7.931.8,15.807,1.6c7.661.78,16.343,1.659,24.737,2.424l.509.021.5.028c5.623.271,10.749.4,15.667.4a225.209,225.209,0,0,0,25.127-1.317,158.411,158.411,0,0,0,19.537-3.411c3.123-.759,6.307-1.67,9.458-2.7a81.8,81.8,0,0,0,7.874-3,56.064,56.064,0,0,0,12.081-7.379,53.067,53.067,0,0,0,9.279-9.592,68.533,68.533,0,0,0,11.234-24.1,96.968,96.968,0,0,0,2.506-13.653,130.928,130.928,0,0,0,.836-14.148,171.283,171.283,0,0,0-2.278-28.034c-.668-4.262-1.513-8.644-2.506-13.031-1.29-5.71-2.737-11.251-4.3-16.479A157.042,157.042,0,0,0,731.28,339.9a105.05,105.05,0,0,0-18.989-25.349,95.135,95.135,0,0,0-12.646-10.3c-2.293-1.573-4.663-3.048-7.249-4.512s-5.222-2.755-8.383-4.295l-.3-.151c-12.716-6.215-26.315-12.484-41.585-19.175l-.033-.015c9.685,6.32,19.1,13.058,28.767,19.4" transform="translate(-546.026 -275.434)" fill="#70917e"/>
        <path id="Trazado_1052946" data-name="Trazado 1052946" d="M658.58,347.046a.374.374,0,0,0-.332.54c1.648,4.628,3.37,9.256,4.988,13.567l.125.341.175.465c1.6,4.267,3.259,8.679,4.782,13.053,1.221,3.518,2.154,6.322,3.015,9.061.988,3.166,1.928,6.386,2.792,9.57.435,1.612.836,3.227,1.236,4.849l.454,1.793.262,1.031.548,2.12a90.358,90.358,0,0,1,2.081,9.906c-4.134.167-8.049.451-11.949.851-4.6.469-8.818,1.016-12.895,1.67-4.439.72-8.809,1.548-12.989,2.463a194.673,194.673,0,0,0-24.994,7.355c-4.621,1.691-9.141,3.563-13.433,5.562a134.557,134.557,0,0,0-12.965,6.789,1,1,0,0,0-.429.546l.173.118a6.268,6.268,0,0,1,1.22.662l.351.264a.717.717,0,0,1,.119.087l.24-.114c1.959-1,4.4-2.253,6.916-3.469a201.158,201.158,0,0,1,23.521-9.428c3.68-1.216,7.746-2.436,12.428-3.731,4.634-1.267,8.833-2.322,12.84-3.226,3.153-.718,6.254-1.358,9.216-1.9.212-.043.418-.081.623-.119l.142-.021a218.183,218.183,0,0,1,25.523-3.069c4.542-.266,9.123-.4,13.614-.4,4.235,0,8.457.117,12.548.347q3.182.177,6.361.45c1.23.108,2.564.233,3.9.373.253,0,.414-.105.454-.293a.4.4,0,0,0-.071-.325.328.328,0,0,0-.222-.142c-9.564-1-18.145-1.528-26.229-1.6-.788-.006-1.58-.011-2.371-.011-3.057,0-6.222.064-9.4.19a.439.439,0,0,0,.015-.248c-.365-2.116-.813-4.266-1.373-6.573-.5-2.11-1.084-4.244-1.646-6.306l-.057-.205-.536-1.98-.112-.421c-.358-1.334-.715-2.665-1.1-4-.576-2-1.238-4.11-1.968-6.273-1.259-3.743-2.732-7.757-4.506-12.278q-2.392-6.126-4.838-12.228c-1.93-4.838-3.978-10.059-5.9-15.453a.355.355,0,0,0-.339-.2" transform="translate(-549.294 -247.898)" fill="#597365"/>
        <path id="Trazado_1052947" data-name="Trazado 1052947" d="M737.387,423.094a.068.068,0,0,0-.021.01,39.446,39.446,0,0,1-3.172,3.633,34.475,34.475,0,0,1-2.563,2.385c-.483.4-.977.791-1.481,1.16-.8.705-1.61,1.388-2.418,2.023a62.422,62.422,0,0,1-13.916,7.986,92.921,92.921,0,0,1-12.382,4.055c-1.991.507-4.107.962-6.473,1.392-2.232.415-4.413.768-6.485,1.047l-.164.022c-5.97.765-12.346,1.247-19.492,1.476-2.492.082-4.931.124-7.249.124q-2.513,0-5.031-.065c-4.292-.108-8.747-.347-13.622-.732-7.278-.564-14.77-1.381-21.379-2.1l-1.383-.153c-3.623-.39-7.511-.8-11.411-1.161-1.909-.173-3.812-.33-5.721-.466l-.412-.026c-1.539-.111-3.069-.222-4.584-.228l-.169.707-.061.269c-.108.493-.233.976-.361,1.463,1.093.147,2.157.283,3.223.418,1.147.142,2.285.282,3.424.4l6.81.733,2.675.289q5.457.587,10.9,1.165c8.085.851,17.631,1.771,27.136,2.143,2.57.1,5.2.146,7.82.146,5.131,0,10.375-.2,15.585-.582a154.022,154.022,0,0,0,19.9-2.754c1.43-.3,2.982-.671,4.888-1.16,1.756-.451,3.33-.9,4.817-1.367a84.875,84.875,0,0,0,9.474-3.584,62.539,62.539,0,0,0,16.33-10.522,54.714,54.714,0,0,0,7.024-7.708.356.356,0,0,0-.026-.422Z" transform="translate(-546.039 -218.379)" fill="#597365"/>
      </g>
      <path id="Trazado_1052948" data-name="Trazado 1052948" d="M701.266,458.85H416.245c-4.508,0-8.27,4.1-8.27,9.023s3.762,9.023,8.27,9.023H799.7c4.508,0,8.27-4.1,8.27-9.023s-3.762-9.023-8.27-9.023Z" transform="translate(20 122.379)" fill="#313a30"/>
    </g>
  </g>
</svg>
