<svg xmlns="http://www.w3.org/2000/svg" xmlns:xlink="http://www.w3.org/1999/xlink" width="93.934" height="93.934" viewBox="0 0 93.934 93.934">
  <defs>
    <filter id="Trazado_982547" x="0" y="0" width="93.934" height="93.934" filterUnits="userSpaceOnUse">
      <feOffset dy="3" input="SourceAlpha"/>
      <feGaussianBlur stdDeviation="3" result="blur"/>
      <feFlood flood-opacity="0.161"/>
      <feComposite operator="in" in2="blur"/>
      <feComposite in="SourceGraphic"/>
    </filter>
  </defs>
  <g id="Grupo_1206327" data-name="Grupo 1206327" transform="translate(-819 -4614.033)">
    <g id="Grupo_1183816" data-name="Grupo 1183816" transform="translate(828 4620.033)">
      <g id="Grupo_1181939" data-name="Grupo 1181939">
        <g id="Grupo_1175133" data-name="Grupo 1175133">
          <g id="Grupo_1167337" data-name="Grupo 1167337">
            <g id="Grupo_1166720" data-name="Grupo 1166720">
              <g id="Grupo_1164305" data-name="Grupo 1164305">
                <g id="Grupo_1163948" data-name="Grupo 1163948">
                  <g id="Grupo_1158168" data-name="Grupo 1158168">
                    <g id="Grupo_1152576" data-name="Grupo 1152576">
                      <g id="Grupo_1148633" data-name="Grupo 1148633">
                        <g id="Grupo_1148525" data-name="Grupo 1148525">
                          <g transform="matrix(1, 0, 0, 1, -9, -6)" filter="url(#Trazado_982547)">
                            <g id="Trazado_982547-2" data-name="Trazado 982547" transform="translate(9 6)" fill="#eaf9f8">
                              <path d="M 37.966796875 74.43359375 C 33.04315185546875 74.43359375 28.26757431030273 73.46962738037109 23.77274131774902 71.56847381591797 C 19.43047523498535 69.73184967041016 15.53040790557861 67.10224914550781 12.18087482452393 63.75271987915039 C 8.831341743469238 60.4031867980957 6.201741218566895 56.50312042236328 4.365118980407715 52.16086196899414 C 2.463963508605957 47.66601943969727 1.499996900558472 42.89044189453125 1.499996900558472 37.966796875 C 1.499996900558472 33.04315185546875 2.463963508605957 28.26757431030273 4.365118980407715 23.77274131774902 C 6.201741218566895 19.43047523498535 8.831341743469238 15.53040790557861 12.18087482452393 12.18087482452393 C 15.53040790557861 8.831341743469238 19.43047523498535 6.201741218566895 23.77274131774902 4.365118980407715 C 28.26757431030273 2.463963508605957 33.04315185546875 1.499996900558472 37.966796875 1.499996900558472 C 42.89044189453125 1.499996900558472 47.66601943969727 2.463963508605957 52.16086196899414 4.365118980407715 C 56.50312042236328 6.201741218566895 60.4031867980957 8.831341743469238 63.75271987915039 12.18087482452393 C 67.10224914550781 15.53040790557861 69.73184967041016 19.43047523498535 71.56847381591797 23.77274131774902 C 73.46962738037109 28.26757431030273 74.43359375 33.04315185546875 74.43359375 37.966796875 C 74.43359375 42.89044189453125 73.46962738037109 47.66601943969727 71.56847381591797 52.16086196899414 C 69.73184967041016 56.50313186645508 67.10224914550781 60.4031867980957 63.75271987915039 63.75271987915039 C 60.4031867980957 67.10224914550781 56.50313186645508 69.73184967041016 52.16086196899414 71.56847381591797 C 47.66601943969727 73.46962738037109 42.89044189453125 74.43359375 37.966796875 74.43359375 Z" stroke="none"/>
                              <path d="M 37.966796875 3 C 33.2449836730957 3 28.66600799560547 3.924095153808594 24.35705947875977 5.746635437011719 C 20.19359588623047 7.507637023925781 16.45379638671875 10.02928161621094 13.24153518676758 13.24153518676758 C 10.02927398681641 16.45379638671875 7.507621765136719 20.19359588623047 5.746635437011719 24.35705947875977 C 3.924095153808594 28.66600799560547 3 33.2449836730957 3 37.966796875 C 3 42.6886100769043 3.924095153808594 47.26758575439453 5.746635437011719 51.57653427124023 C 7.507621765136719 55.73999786376953 10.02927398681641 59.47979736328125 13.24153518676758 62.69205856323242 C 16.45379638671875 65.90431976318359 20.19359588623047 68.42597198486328 24.35705947875977 70.18695831298828 C 28.66600799560547 72.00949859619141 33.2449836730957 72.93359375 37.966796875 72.93359375 C 42.6886100769043 72.93359375 47.26758575439453 72.00949859619141 51.57653427124023 70.18695831298828 C 55.73999786376953 68.42597198486328 59.47979736328125 65.90431976318359 62.69205856323242 62.69205856323242 C 65.90431976318359 59.47979736328125 68.42597198486328 55.73999786376953 70.18695831298828 51.57653427124023 C 72.00949859619141 47.26758575439453 72.93359375 42.6886100769043 72.93359375 37.966796875 C 72.93359375 33.2449836730957 72.00949859619141 28.66600799560547 70.18695831298828 24.35705947875977 C 68.42597198486328 20.19359588623047 65.90431976318359 16.45379638671875 62.69205856323242 13.24153518676758 C 59.47979736328125 10.02928161621094 55.73999786376953 7.507637023925781 51.57653427124023 5.746635437011719 C 47.26758575439453 3.924095153808594 42.6886100769043 3 37.966796875 3 M 37.966796875 0 C 58.93528366088867 0 75.93359375 16.99832153320312 75.93359375 37.966796875 C 75.93359375 58.93528366088867 58.93528366088867 75.93359375 37.966796875 75.93359375 C 16.99831008911133 75.93359375 0 58.93528366088867 0 37.966796875 C 0 16.99832153320312 16.99831008911133 0 37.966796875 0 Z" stroke="none" fill="#1f7069"/>
                            </g>
                          </g>
                        </g>
                      </g>
                    </g>
                  </g>
                </g>
              </g>
            </g>
          </g>
        </g>
      </g>
    </g>
    <g id="Fill_Outline" data-name="Fill Outline" transform="translate(839.334 4631.748)">
      <g id="Color" transform="translate(4.808 2.809)">
        <rect id="Rect치ngulo_417626" data-name="Rect치ngulo 417626" width="21.016" height="3.233" rx="1.617" transform="translate(3.233 32.333)" fill="#e9f1f2"/>
        <rect id="Rect치ngulo_417627" data-name="Rect치ngulo 417627" width="21.016" height="3.233" rx="1.617" transform="translate(3.233 35.566)" fill="#e9f1f2"/>
        <path id="Trazado_1053010" data-name="Trazado 1053010" d="M12,51H28.166a8.083,8.083,0,0,1-8.083,8.083h0A8.083,8.083,0,0,1,12,51Z" transform="translate(-6.342 -12.201)" fill="#d0d8da"/>
        <path id="Trazado_1053011" data-name="Trazado 1053011" d="M30.083,24.217a2.425,2.425,0,1,0-3.233,0v.63H22V29.7h.63a2.425,2.425,0,1,1,0,3.233H22v5.658h8.083V35.942a13.708,13.708,0,0,0,5.658-11.1H30.083Z" transform="translate(-8.259 -6.256)" fill="#48cae4"/>
        <path id="Trazado_1053012" data-name="Trazado 1053012" d="M10.658,23.371a2.425,2.425,0,1,0,3.233,0v-.63h4.85v-4.85h-.63a2.425,2.425,0,1,1,0-3.233h.63V9A13.741,13.741,0,0,0,5,22.741h5.658Z" transform="translate(-5 -4.15)" fill="#ffd000"/>
        <path id="Trazado_1053013" data-name="Trazado 1053013" d="M19.371,34.083a2.425,2.425,0,1,0,0-3.233h-.63V26h-4.85v.63a2.425,2.425,0,1,1-3.233,0V26H5a13.707,13.707,0,0,0,5.658,11.095v2.647h8.083V34.083Z" transform="translate(-5 -7.409)" fill="#ff7373"/>
        <path id="Trazado_1053014" data-name="Trazado 1053014" d="M32.82,3,31.352,8.465,30.744,8.3a2.425,2.425,0,1,0-.834,3.123l.608.162-1.255,4.686,4.684,1.255.162-.608a2.425,2.425,0,1,1,3.123.837l-.162.608,5.466,1.465A13.741,13.741,0,0,0,32.82,3Z" transform="translate(-9.055 -3)" fill="#ff7373"/>
        <path id="Trazado_1053015" data-name="Trazado 1053015" d="M30.016,44.617A1.629,1.629,0,0,1,28.4,46.233H10.617a1.617,1.617,0,1,1,0-3.233,1.622,1.622,0,0,0,1.617,1.617Z" transform="translate(-5.767 -10.667)" fill="#d0d8da"/>
        <path id="Trazado_1053016" data-name="Trazado 1053016" d="M30.016,48.617A1.629,1.629,0,0,1,28.4,50.233H10.617a1.617,1.617,0,0,1,0-3.233,1.621,1.621,0,0,0,1.617,1.617Z" transform="translate(-5.767 -11.434)" fill="#d0d8da"/>
        <path id="Trazado_1053017" data-name="Trazado 1053017" d="M28.166,51A8.122,8.122,0,0,1,28,52.617h-5.5a7.281,7.281,0,0,0-6.935,5.092A8.083,8.083,0,0,1,12,51Z" transform="translate(-6.342 -12.201)" fill="#93999a"/>
        <path id="Trazado_1053018" data-name="Trazado 1053018" d="M33.68,34.93a13.835,13.835,0,0,1-3.6,3.88v2.643H22V35.795h.63a2.407,2.407,0,0,0,3.718-.145,15.278,15.278,0,0,0,2.118.145A15.889,15.889,0,0,0,33.68,34.93Z" transform="translate(-8.259 -9.12)" fill="#00b4d8"/>
        <path id="Trazado_1053019" data-name="Trazado 1053019" d="M14.263,27.486A2.425,2.425,0,0,1,9.85,26.1a2.4,2.4,0,0,1,.808-1.794v-.63H5A13.716,13.716,0,0,1,9.131,13.85c-.057.566-.089,1.148-.089,1.738a16.112,16.112,0,0,0,5.222,11.9Z" transform="translate(-5 -5.08)" fill="#ffb700"/>
        <path id="Trazado_1053020" data-name="Trazado 1053020" d="M23.09,33.938a2.407,2.407,0,0,1-3.718.146h-.63v5.658H10.658V37.1A13.711,13.711,0,0,1,5,26h5.658v.63a2.421,2.421,0,1,0,3.605,3.185,16.086,16.086,0,0,0,8.827,4.122Z" transform="translate(-5 -7.409)" fill="#ef5350"/>
        <path id="Trazado_1053021" data-name="Trazado 1053021" d="M43,15.788a13.6,13.6,0,0,1-.461,4.042l-5.464-1.463.162-.606a2.425,2.425,0,1,0-3.128-.841l-.162.606-4.68-1.253,1.253-4.68-.606-.17a2.425,2.425,0,1,1,.833-3.12l.606.162L32.819,3c.186.048.372.105.55.17A14.954,14.954,0,0,0,43,15.788Z" transform="translate(-9.054 -3)" fill="#ef5350"/>
        <path id="Trazado_1053022" data-name="Trazado 1053022" d="M49.783,50.114V45.669H47.961a7.443,7.443,0,0,0-.5-1.2l1.293-1.293-3.144-3.144-1.293,1.293a7.442,7.442,0,0,0-1.2-.5V39H38.669v1.822a7.443,7.443,0,0,0-1.2.5l-1.293-1.293-3.144,3.144,1.293,1.293a7.442,7.442,0,0,0-.5,1.2H32v4.446h1.822a7.442,7.442,0,0,0,.5,1.2l-1.293,1.293,3.144,3.144,1.293-1.293a7.442,7.442,0,0,0,1.2.5v1.822h4.446V54.961a7.442,7.442,0,0,0,1.2-.5l1.293,1.293,3.144-3.144-1.293-1.293a7.443,7.443,0,0,0,.5-1.2Zm-8.892,1.819a4.042,4.042,0,1,1,4.042-4.042A4.042,4.042,0,0,1,40.892,51.933Z" transform="translate(-10.175 -9.9)" fill="#ffea00"/>
        <path id="Trazado_1053023" data-name="Trazado 1053023" d="M48.247,52.348a8.989,8.989,0,0,1-7.065-.186,1.757,1.757,0,0,1-.291.016,4.042,4.042,0,0,1-4.042-4.042,1.757,1.757,0,0,1,.016-.291,9.2,9.2,0,0,1-.824-3.751,8.863,8.863,0,0,1,.639-3.314l-.5-.5-3.144,3.144,1.293,1.285a7.913,7.913,0,0,0-.509,1.2H32V50.36h1.819a7.912,7.912,0,0,0,.509,1.2l-1.293,1.285,3.144,3.144L37.464,54.7a7.912,7.912,0,0,0,1.2.509v1.819h4.446V55.21a7.913,7.913,0,0,0,1.2-.509L45.6,55.994l3.144-3.144Z" transform="translate(-10.175 -10.146)" fill="#ffd000"/>
        <path id="Trazado_1053024" data-name="Trazado 1053024" d="M41.658,43a5.654,5.654,0,1,0,4,1.656,5.658,5.658,0,0,0-4-1.656Zm0,9.7A4.042,4.042,0,1,1,45.7,48.658,4.042,4.042,0,0,1,41.658,52.7Z" transform="translate(-10.942 -10.667)" fill="#ffb700"/>
        <path id="Trazado_1053025" data-name="Trazado 1053025" d="M44.665,54.072a5.549,5.549,0,0,1-3.007.873A5.658,5.658,0,0,1,36,49.287a5.549,5.549,0,0,1,.873-3.007A8.745,8.745,0,0,0,37.633,49a1.757,1.757,0,0,0-.016.291,4.042,4.042,0,0,0,4.042,4.042,1.757,1.757,0,0,0,.291-.016A8.745,8.745,0,0,0,44.665,54.072Z" transform="translate(-10.942 -11.296)" fill="#ffa200"/>
        <path id="Trazado_1053026" data-name="Trazado 1053026" d="M54.258,31.467a4.9,4.9,0,0,0-.081-.884l1.643-.949-1.617-2.8-1.643.949a4.835,4.835,0,0,0-1.536-.883V25H47.792v1.9a4.839,4.839,0,0,0-1.532.883l-1.643-.949L43,29.633l1.643.949a4.649,4.649,0,0,0,0,1.769L43,33.3l1.617,2.8,1.643-.949a4.84,4.84,0,0,0,1.532.883v1.9h3.233v-1.9a4.835,4.835,0,0,0,1.536-.883L54.2,36.1l1.617-2.8-1.643-.949a4.9,4.9,0,0,0,.081-.884Zm-4.85,1.617a1.617,1.617,0,1,1,1.617-1.617A1.617,1.617,0,0,1,49.408,33.083Z" transform="translate(-12.284 -7.217)" fill="#ffea00"/>
        <path id="Trazado_1053027" data-name="Trazado 1053027" d="M55.335,33.454a7.188,7.188,0,0,1-3.443.873,7.267,7.267,0,0,1-7.267-7.057h-.008L43,30.067l1.641.954a4.843,4.843,0,0,0,0,1.762L43,33.737l1.617,2.8,1.641-.946a5,5,0,0,0,1.536.881v1.9h3.233v-1.9a4.871,4.871,0,0,0,1.528-.881l1.649.946,1.617-2.8Z" transform="translate(-12.284 -7.652)" fill="#ffd000"/>
        <path id="Trazado_1053028" data-name="Trazado 1053028" d="M50.233,29a3.233,3.233,0,1,0,3.233,3.233A3.233,3.233,0,0,0,50.233,29Zm-.057,4.85a1.617,1.617,0,1,1,1.617-1.617A1.617,1.617,0,0,1,50.177,33.85Z" transform="translate(-13.05 -7.984)" fill="#ffb700"/>
        <path id="Trazado_1053029" data-name="Trazado 1053029" d="M47.026,32.684c-.007.086-.026.168-.026.255a3.22,3.22,0,0,0,5.369,2.41,7.243,7.243,0,0,1-5.343-2.666Z" transform="translate(-13.05 -8.69)" fill="#ffa200"/>
      </g>
      <g id="Outline_copy" data-name="Outline copy" transform="translate(4 2.004)">
        <path id="Trazado_1053030" data-name="Trazado 1053030" d="M50.5,34.85a2.425,2.425,0,1,0-2.425-2.425A2.425,2.425,0,0,0,50.5,34.85Zm0-3.233a.808.808,0,1,1-.808.808A.808.808,0,0,1,50.5,31.617Z" transform="translate(-12.448 -7.37)" fill="#323232"/>
        <path id="Trazado_1053031" data-name="Trazado 1053031" d="M48.862,28.19l-1.174-.677c.013-.153.019-.3.019-.455s-.006-.3-.019-.455l1.174-.676a.808.808,0,0,0,.3-1.1l-1.617-2.8a.808.808,0,0,0-1.1-.3l-1.176.679a5.62,5.62,0,0,0-.786-.453V20.592a.808.808,0,0,0-.808-.808H40.433a.808.808,0,0,0-.808.808v1.359a5.5,5.5,0,0,0-.787.453l-1.176-.679a.808.808,0,0,0-1.1.3l-1.617,2.8a.808.808,0,0,0,.3,1.1l1.174.677c-.014.154-.02.306-.02.455s.006.3.02.455l-1.174.677a.809.809,0,1,0,.808,1.4l1.643-.948a.808.808,0,0,0,.39-.846,3.916,3.916,0,0,1,0-1.478.808.808,0,0,0-.39-.846l-.943-.544.808-1.4.943.545a.808.808,0,0,0,.93-.086,4.042,4.042,0,0,1,1.276-.736.808.808,0,0,0,.538-.761V21.4h1.617v1.09a.808.808,0,0,0,.538.761,4.016,4.016,0,0,1,1.276.736.808.808,0,0,0,.93.086l.943-.545.808,1.4-.943.544a.808.808,0,0,0-.391.846,3.873,3.873,0,0,1,0,1.478.808.808,0,0,0,.391.846l.943.544-.808,1.4-.943-.545a.808.808,0,0,0-.93.086,4.016,4.016,0,0,1-1.276.736.808.808,0,0,0-.538.761v1.09H41.241v-1.09a.808.808,0,1,0-1.617,0v.787l-.844.843c-.074-.033-.15-.065-.225-.095V31.909a.808.808,0,0,0-.808-.808H33.3a.808.808,0,0,0-.808.808v1.254c-.075.03-.15.061-.225.095l-.889-.889a.808.808,0,0,0-1.143,0l-2.075,2.075a2.433,2.433,0,0,0-.72-.109V32.9A14.6,14.6,0,0,0,33.1,21.4a.808.808,0,0,0-.808-.808H27.808A3.2,3.2,0,0,0,28,17.719l1.493.4a.808.808,0,0,0,.99-.571l.162-.608a.808.808,0,0,0-.1-.647,1.617,1.617,0,1,1,2.077.557.808.808,0,0,0-.413.511l-.162.608a.808.808,0,0,0,.571.99l5.465,1.464a.787.787,0,0,0,.21.027.808.808,0,0,0,.78-.6A14.522,14.522,0,0,0,38.016,9.592a.808.808,0,1,0-1.446.723,12.924,12.924,0,0,1,1.119,8.331L34.164,17.7a3.2,3.2,0,0,0,.844-1.447,3.232,3.232,0,1,0-6.238,0L26,15.513l1.046-3.9a.808.808,0,0,0-.571-.99l-.608-.162a.8.8,0,0,0-.647.1,1.612,1.612,0,1,1-.458-2.91,1.593,1.593,0,0,1,1.014.833.808.808,0,0,0,.51.412l.608.162a.808.808,0,0,0,.991-.571l1.252-4.661A12.845,12.845,0,0,1,34.906,7.76a.809.809,0,0,0,1.238-1.04,14.451,14.451,0,0,0-7.362-4.688.808.808,0,0,0-.989.571L26.628,6.932a3.233,3.233,0,1,0-1.445,5.394l-.943,3.522a3.21,3.21,0,0,0-2.015,4.745H19.358V16.551a.808.808,0,0,0-.808-.808h-.629a.808.808,0,0,0-.6.267,1.6,1.6,0,0,1-1.2.542,1.617,1.617,0,0,1,0-3.233,1.6,1.6,0,0,1,1.2.542.808.808,0,0,0,.6.267h.629a.808.808,0,0,0,.808-.808V7.659a.808.808,0,0,0-.808-.808,14.542,14.542,0,0,0-9.469,3.516.808.808,0,0,0,1.051,1.226,12.937,12.937,0,0,1,7.61-3.1v3.65a3.2,3.2,0,0,0-1.617-.441,3.233,3.233,0,1,0,0,6.467,3.2,3.2,0,0,0,1.617-.441v2.866H13.7a.808.808,0,0,0-.808.808v.629a.808.808,0,0,0,.267.6,1.6,1.6,0,0,1,.542,1.2,1.617,1.617,0,1,1-3.233,0,1.6,1.6,0,0,1,.542-1.2.808.808,0,0,0,.267-.6V21.4a.808.808,0,0,0-.808-.808H5.642a12.831,12.831,0,0,1,2.432-6.754.808.808,0,1,0-1.31-.947A14.441,14.441,0,0,0,4,21.4,14.6,14.6,0,0,0,9.658,32.9v1.434a2.414,2.414,0,0,0-1.794,4.042,2.414,2.414,0,0,0,1.794,4.042H23.4a.808.808,0,1,0,0-1.617H9.658a.808.808,0,0,1,0-1.617H23.4a.808.808,0,1,0,0-1.617H9.658a.808.808,0,0,1,0-1.617H26.884a.792.792,0,0,0,.21.706l.889.889c-.033.074-.065.15-.095.225H26.633a.808.808,0,0,0-.808.808v3.03a7.275,7.275,0,0,1-13.94,2.91.808.808,0,1,0-1.481.647,8.881,8.881,0,0,0,16.744-1.334h.74c.03.075.061.15.095.225l-.889.889a.808.808,0,0,0,0,1.143l3.144,3.144a.808.808,0,0,0,1.143,0l.889-.889c.074.033.15.065.225.095v1.255a.808.808,0,0,0,.808.808h1.415a.808.808,0,1,0,0-1.617H34.11V47.87a.808.808,0,0,0-.566-.771,6.561,6.561,0,0,1-1.069-.447.8.8,0,0,0-.946.145l-.721.72-2-2,.72-.721a.808.808,0,0,0,.145-.946,6.561,6.561,0,0,1-.447-1.069.808.808,0,0,0-.771-.566H27.441V39.385h1.014a.808.808,0,0,0,.771-.566,6.561,6.561,0,0,1,.447-1.069.808.808,0,0,0-.145-.946l-.72-.721,2-2,.721.72a.808.808,0,0,0,.946.145,6.561,6.561,0,0,1,1.069-.447.808.808,0,0,0,.566-.771V32.717H36.94v1.014a.808.808,0,0,0,.566.771,6.561,6.561,0,0,1,1.069.447.808.808,0,0,0,.946-.145l.721-.72,2,2-.72.721a.808.808,0,0,0-.145.946,6.561,6.561,0,0,1,.447,1.069.808.808,0,0,0,.771.566h1.012v2.829H42.594a.808.808,0,0,0-.771.566,6.561,6.561,0,0,1-.447,1.069.808.808,0,0,0,.145.946l.72.721-2,2-.721-.72a.808.808,0,0,0-.946-.145A6.562,6.562,0,0,1,37.5,47.1a.808.808,0,0,0-.566.771v1.82a.808.808,0,0,0,1.617,0V48.438c.075-.03.15-.061.225-.095l.889.889a.808.808,0,0,0,1.143,0l3.144-3.144a.808.808,0,0,0,0-1.143l-.889-.889c.033-.074.065-.15.095-.225h1.255a.808.808,0,0,0,.808-.808V38.578a.808.808,0,0,0-.808-.808H43.162c-.03-.075-.061-.15-.095-.225l.889-.889a.808.808,0,0,0,0-1.143l-1.181-1.179h.889a.808.808,0,0,0,.808-.808V32.167a5.619,5.619,0,0,0,.786-.453l1.176.679a.817.817,0,0,0,.614.081.808.808,0,0,0,.491-.377l1.617-2.8a.808.808,0,0,0-.3-1.107Zm-29.5,6.143V30.659a3.2,3.2,0,0,0,1.617.441,3.233,3.233,0,0,0,0-6.467,3.2,3.2,0,0,0-1.617.441v-.441a.808.808,0,1,0-1.617,0V26.25a.808.808,0,0,0,.808.808h.629a.808.808,0,0,0,.6-.267,1.6,1.6,0,0,1,1.2-.542,1.617,1.617,0,0,1,0,3.233,1.6,1.6,0,0,1-1.2-.542.808.808,0,0,0-.6-.267H18.55a.808.808,0,0,0-.808.808v4.85H11.275V32.5a.808.808,0,0,0-.331-.653,12.991,12.991,0,0,1-5.3-9.634H9.291a3.2,3.2,0,0,0-.441,1.617,3.233,3.233,0,1,0,6.467,0,3.2,3.2,0,0,0-.441-1.617H23.4a.808.808,0,0,0,.808-.808v-.629a.808.808,0,0,0-.267-.6,1.6,1.6,0,0,1-.542-1.2,1.617,1.617,0,1,1,3.233,0,1.6,1.6,0,0,1-.542,1.2.808.808,0,0,0-.267.6V21.4a.808.808,0,0,0,.808.808h4.824a12.992,12.992,0,0,1-5.3,9.634.808.808,0,0,0-.331.653v1.837Z" transform="translate(-4 -2.004)" fill="#323232"/>
        <path id="Trazado_1053032" data-name="Trazado 1053032" d="M41.836,45.617a3.218,3.218,0,0,1,1.174.23.808.808,0,1,0,.591-1.5,4.879,4.879,0,1,0,2.743,2.743.808.808,0,1,0-1.5.591,3.228,3.228,0,1,1-3-2.059Z" transform="translate(-10.312 -10.053)" fill="#323232"/>
      </g>
    </g>
  </g>
</svg>
