<svg xmlns="http://www.w3.org/2000/svg" xmlns:xlink="http://www.w3.org/1999/xlink" width="93.934" height="93.934" viewBox="0 0 93.934 93.934">
  <defs>
    <filter id="Trazado_982547" x="0" y="0" width="93.934" height="93.934" filterUnits="userSpaceOnUse">
      <feOffset dy="3" input="SourceAlpha"/>
      <feGaussianBlur stdDeviation="3" result="blur"/>
      <feFlood flood-opacity="0.161"/>
      <feComposite operator="in" in2="blur"/>
      <feComposite in="SourceGraphic"/>
    </filter>
  </defs>
  <g id="Grupo_1206332" data-name="Grupo 1206332" transform="translate(-189 -4755.033)">
    <g id="Grupo_1183817" data-name="Grupo 1183817" transform="translate(0 4408.973)">
      <g id="Grupo_1181939" data-name="Grupo 1181939" transform="translate(0 -388.939)">
        <g id="Grupo_1175133" data-name="Grupo 1175133" transform="translate(-0.033 -1251)">
          <g id="Grupo_1167337" data-name="Grupo 1167337" transform="translate(198.033 1992)">
            <g id="Grupo_1166720" data-name="Grupo 1166720">
              <g id="Grupo_1164305" data-name="Grupo 1164305">
                <g id="Grupo_1163948" data-name="Grupo 1163948">
                  <g id="Grupo_1158168" data-name="Grupo 1158168">
                    <g id="Grupo_1152576" data-name="Grupo 1152576">
                      <g id="Grupo_1148633" data-name="Grupo 1148633">
                        <g id="Grupo_1148525" data-name="Grupo 1148525">
                          <g transform="matrix(1, 0, 0, 1, -9, -6)" filter="url(#Trazado_982547)">
                            <g id="Trazado_982547-2" data-name="Trazado 982547" transform="translate(9 6)" fill="#eaf9f8">
                              <path d="M 37.966796875 74.43359375 C 33.04315185546875 74.43359375 28.26757431030273 73.46962738037109 23.77274131774902 71.56847381591797 C 19.43047523498535 69.73184967041016 15.53040790557861 67.10224914550781 12.18087482452393 63.75271987915039 C 8.831341743469238 60.4031867980957 6.201741218566895 56.50312042236328 4.365118980407715 52.16086196899414 C 2.463963508605957 47.66601943969727 1.499996900558472 42.89044189453125 1.499996900558472 37.966796875 C 1.499996900558472 33.04315185546875 2.463963508605957 28.26757431030273 4.365118980407715 23.77274131774902 C 6.201741218566895 19.43047523498535 8.831341743469238 15.53040790557861 12.18087482452393 12.18087482452393 C 15.53040790557861 8.831341743469238 19.43047523498535 6.201741218566895 23.77274131774902 4.365118980407715 C 28.26757431030273 2.463963508605957 33.04315185546875 1.499996900558472 37.966796875 1.499996900558472 C 42.89044189453125 1.499996900558472 47.66601943969727 2.463963508605957 52.16086196899414 4.365118980407715 C 56.50312042236328 6.201741218566895 60.4031867980957 8.831341743469238 63.75271987915039 12.18087482452393 C 67.10224914550781 15.53040790557861 69.73184967041016 19.43047523498535 71.56847381591797 23.77274131774902 C 73.46962738037109 28.26757431030273 74.43359375 33.04315185546875 74.43359375 37.966796875 C 74.43359375 42.89044189453125 73.46962738037109 47.66601943969727 71.56847381591797 52.16086196899414 C 69.73184967041016 56.50313186645508 67.10224914550781 60.4031867980957 63.75271987915039 63.75271987915039 C 60.4031867980957 67.10224914550781 56.50313186645508 69.73184967041016 52.16086196899414 71.56847381591797 C 47.66601943969727 73.46962738037109 42.89044189453125 74.43359375 37.966796875 74.43359375 Z" stroke="none"/>
                              <path d="M 37.966796875 3 C 33.2449836730957 3 28.66600799560547 3.924095153808594 24.35705947875977 5.746635437011719 C 20.19359588623047 7.507637023925781 16.45379638671875 10.02928161621094 13.24153518676758 13.24153518676758 C 10.02927398681641 16.45379638671875 7.507621765136719 20.19359588623047 5.746635437011719 24.35705947875977 C 3.924095153808594 28.66600799560547 3 33.2449836730957 3 37.966796875 C 3 42.6886100769043 3.924095153808594 47.26758575439453 5.746635437011719 51.57653427124023 C 7.507621765136719 55.73999786376953 10.02927398681641 59.47979736328125 13.24153518676758 62.69205856323242 C 16.45379638671875 65.90431976318359 20.19359588623047 68.42597198486328 24.35705947875977 70.18695831298828 C 28.66600799560547 72.00949859619141 33.2449836730957 72.93359375 37.966796875 72.93359375 C 42.6886100769043 72.93359375 47.26758575439453 72.00949859619141 51.57653427124023 70.18695831298828 C 55.73999786376953 68.42597198486328 59.47979736328125 65.90431976318359 62.69205856323242 62.69205856323242 C 65.90431976318359 59.47979736328125 68.42597198486328 55.73999786376953 70.18695831298828 51.57653427124023 C 72.00949859619141 47.26758575439453 72.93359375 42.6886100769043 72.93359375 37.966796875 C 72.93359375 33.2449836730957 72.00949859619141 28.66600799560547 70.18695831298828 24.35705947875977 C 68.42597198486328 20.19359588623047 65.90431976318359 16.45379638671875 62.69205856323242 13.24153518676758 C 59.47979736328125 10.02928161621094 55.73999786376953 7.507637023925781 51.57653427124023 5.746635437011719 C 47.26758575439453 3.924095153808594 42.6886100769043 3 37.966796875 3 M 37.966796875 0 C 58.93528366088867 0 75.93359375 16.99832153320312 75.93359375 37.966796875 C 75.93359375 58.93528366088867 58.93528366088867 75.93359375 37.966796875 75.93359375 C 16.99831008911133 75.93359375 0 58.93528366088867 0 37.966796875 C 0 16.99832153320312 16.99831008911133 0 37.966796875 0 Z" stroke="none" fill="#1f7069"/>
                            </g>
                          </g>
                        </g>
                      </g>
                    </g>
                  </g>
                </g>
              </g>
            </g>
          </g>
        </g>
      </g>
    </g>
    <g id="depresion" transform="translate(211.257 4774.288)">
      <g id="Grupo_1206330" data-name="Grupo 1206330" transform="translate(0.724 0.725)">
        <path id="Trazado_1053033" data-name="Trazado 1053033" d="M55.47,90.706a3.691,3.691,0,0,1-3.705,3.705H11.2A3.691,3.691,0,0,1,7.5,90.706a3.634,3.634,0,0,1,3.634-3.563,1.541,1.541,0,0,0,1.742-.967,5.091,5.091,0,0,1,4.8-3.394,5.476,5.476,0,0,1,4.362,2.181h18.9A5.476,5.476,0,0,1,45.3,82.781a5.091,5.091,0,0,1,4.8,3.394c.34.965,1.141.967,1.742.967A3.634,3.634,0,0,1,55.47,90.706Z" transform="translate(-7.499 -75.513)" fill="#5ad6ff"/>
        <path id="Trazado_1053034" data-name="Trazado 1053034" d="M30.068,85.218v9.193H11.2A3.691,3.691,0,0,1,7.5,90.706a3.634,3.634,0,0,1,3.634-3.563,1.541,1.541,0,0,0,1.742-.967,5.091,5.091,0,0,1,4.8-3.394,5.476,5.476,0,0,1,4.362,2.181h8.006Z" transform="translate(-7.499 -75.513)" fill="#00c5fd"/>
        <path id="Trazado_1053035" data-name="Trazado 1053035" d="M122.3,169.741a3.676,3.676,0,0,1-3.7,3.6H94.013a3.676,3.676,0,0,1-3.7-3.6,3.634,3.634,0,0,1,2.089-3.32,1.446,1.446,0,0,0,.821-1.244,3.671,3.671,0,0,1,2.894-3.4,1.443,1.443,0,0,0,1.048-.809,3.637,3.637,0,0,1,5.049-1.729,1.373,1.373,0,0,0,.642.166,1.457,1.457,0,0,0,1-.382,3.636,3.636,0,0,1,4.891,0,1.437,1.437,0,0,0,1.645.216,3.637,3.637,0,0,1,5.049,1.729,1.448,1.448,0,0,0,1.049.81,3.672,3.672,0,0,1,2.894,3.4,1.442,1.442,0,0,0,.821,1.243,3.636,3.636,0,0,1,2.088,3.32Z" transform="translate(-82.32 -143.544)" fill="#7888af"/>
        <path id="Trazado_1053036" data-name="Trazado 1053036" d="M99.3,180.149H94.013a3.676,3.676,0,0,1-3.7-3.6,3.634,3.634,0,0,1,2.089-3.32,1.446,1.446,0,0,0,.821-1.244,3.671,3.671,0,0,1,2.894-3.4,1.443,1.443,0,0,0,1.048-.809,3.637,3.637,0,0,1,5.049-1.729,1.373,1.373,0,0,0,.642.166A28.055,28.055,0,0,0,99.3,180.149Z" transform="translate(-82.32 -150.348)" fill="#5972a5"/>
        <path id="Trazado_1053037" data-name="Trazado 1053037" d="M91.512,306.952H85.7a2.907,2.907,0,0,1,0-5.815h5.815Z" transform="translate(-75.522 -272.789)" fill="#ffbbae"/>
        <path id="Trazado_1053038" data-name="Trazado 1053038" d="M338.79,306.952H344.6a2.907,2.907,0,0,0,0-5.815H338.79Z" transform="translate(-306.808 -272.789)" fill="#ffcbbe"/>
        <path id="Trazado_1053039" data-name="Trazado 1053039" d="M164.832,379.8v.733a1.448,1.448,0,0,1-1.448,1.448h-18.91a1.448,1.448,0,0,1-1.448-1.448V379.8a10.9,10.9,0,0,1,21.806,0Z" transform="translate(-129.943 -334.012)" fill="#60daa8"/>
        <path id="Trazado_1053040" data-name="Trazado 1053040" d="M152.512,378.405a3.783,3.783,0,0,0-.178,4.438h-7.86a1.448,1.448,0,0,1-1.448-1.448v-.733a10.9,10.9,0,0,1,9.486-10.811Z" transform="translate(-129.943 -334.87)" fill="#00ce8e"/>
        <path id="Trazado_1053041" data-name="Trazado 1053041" d="M148.952,247.891a13.09,13.09,0,0,1-14.5,13.007l-7.739-3.663h0a13.059,13.059,0,0,1-3.415-5.71l-.26-5.815a1.47,1.47,0,0,1,1.279-.807,4.087,4.087,0,0,0,3.558-2.1,6,6,0,0,1,1.585-1.745c2.227-1.651,5.268-1.577,6.41-.435,1.454-1.454,5.981-1.176,8,2.181a4.087,4.087,0,0,0,3.558,2.1,1.459,1.459,0,0,1,1.417,1.259A13.255,13.255,0,0,1,148.952,247.891Z" transform="translate(-111.883 -217.363)" fill="#ffddcf"/>
        <path id="Trazado_1053042" data-name="Trazado 1053042" d="M132.1,272.781a13.083,13.083,0,0,1-11.666-13.007,13.251,13.251,0,0,1,.113-1.728,1.459,1.459,0,0,1,1.417-1.259,4.087,4.087,0,0,0,3.558-2.1,6,6,0,0,1,1.585-1.745A21.856,21.856,0,0,0,132.1,272.781Z" transform="translate(-109.533 -229.246)" fill="#ffcbbe"/>
        <path id="Trazado_1053043" data-name="Trazado 1053043" d="M197.115,82.837l-7.7,7.7a1.448,1.448,0,0,0,1.024,2.472h2.79a1.448,1.448,0,0,1,1.428,1.686l-.754,4.523a.724.724,0,0,0,1.259.6l6.4-7.311a1.448,1.448,0,0,0-1.09-2.4h-3.018a1.448,1.448,0,0,1-1.417-1.748l1.179-5.574" transform="translate(-171.464 -75.515)" fill="#eedb00"/>
        <path id="Trazado_1053044" data-name="Trazado 1053044" d="M151.955,15.452a3.7,3.7,0,0,1-3.7,3.669H131.675a3.691,3.691,0,0,1-3.705-3.705,3.634,3.634,0,0,1,3.634-3.563c.095,0,.188,0,.28.011a1.447,1.447,0,0,0,1.462-.978,5.086,5.086,0,0,1,8.31-1.99,1.447,1.447,0,0,0,1.5.324,4.367,4.367,0,0,1,5.41,2.1,1.422,1.422,0,0,0,.846.7A3.635,3.635,0,0,1,151.955,15.452Z" transform="translate(-116.339 -7.492)" fill="#a4e7ff"/>
        <path id="Trazado_1053045" data-name="Trazado 1053045" d="M138.923,19.121h-7.248a3.691,3.691,0,0,1-3.705-3.705,3.634,3.634,0,0,1,3.634-3.563c.095,0,.188,0,.28.011a1.447,1.447,0,0,0,1.462-.978,5.094,5.094,0,0,1,6.02-3.247C138.428,9.282,136.034,14.347,138.923,19.121Z" transform="translate(-116.339 -7.491)" fill="#5ad6ff"/>
        <g id="Grupo_1206329" data-name="Grupo 1206329" transform="translate(13.472 30.296)">
          <g id="Grupo_1206328" data-name="Grupo 1206328">
            <ellipse id="Elipse_14278" data-name="Elipse 14278" cx="2.834" cy="2.257" rx="2.834" ry="2.257" fill="#ffa1ac"/>
            <ellipse id="Elipse_14279" data-name="Elipse 14279" cx="2.834" cy="2.257" rx="2.834" ry="2.257" transform="translate(15.36)" fill="#ffa1ac"/>
          </g>
        </g>
      </g>
      <g id="Grupo_1206331" data-name="Grupo 1206331" transform="translate(0 0.002)">
        <path id="Trazado_1053046" data-name="Trazado 1053046" d="M48,12.767a4.331,4.331,0,0,0-3.271-1.124.723.723,0,0,1-.723-.5A5.825,5.825,0,0,0,36.889,7.5a4.344,4.344,0,0,0-2.873-2.932.7.7,0,0,1-.419-.344,5.089,5.089,0,0,0-6.308-2.443.728.728,0,0,1-.75-.17,5.818,5.818,0,0,0-9.492,2.273.725.725,0,0,1-.726.5,4.356,4.356,0,0,0-4.47,2.972,5.818,5.818,0,0,0-6.434,3.8.723.723,0,0,1-.725.5,4.342,4.342,0,0,0-3.446,7.363,4.488,4.488,0,0,0,3.184,1.341h7.064a4.323,4.323,0,0,0-.589,1.977.72.72,0,0,1-.405.623,4.34,4.34,0,0,0-1.865,6.2A3.629,3.629,0,0,0,10.9,35.612h.707c.105.317.221.631.35.94A.724.724,0,0,0,13.293,36a12.4,12.4,0,0,1-.836-6.376.734.734,0,0,1,.72-.63,4.817,4.817,0,0,0,4.158-2.452,5.65,5.65,0,0,1,5.18-2.65l-.071.425A1.447,1.447,0,0,0,24.963,25.5L26.3,23.978a5.622,5.622,0,0,1,5.786,2.559,4.818,4.818,0,0,0,4.159,2.452.734.734,0,0,1,.719.63,12.361,12.361,0,0,1-22.068,9.144.724.724,0,0,0-1.15.88q.425.556.9,1.059a11.581,11.581,0,0,0-1.559,5.815v.733a2.175,2.175,0,0,0,2.172,2.172h18.91a2.175,2.175,0,0,0,2.172-2.172v-.733a11.586,11.586,0,0,0-1.56-5.817,13.773,13.773,0,0,0,3.032-5.088h.712a3.63,3.63,0,0,0,2.266-6.467,4.344,4.344,0,0,0-1.865-6.2.716.716,0,0,1-.406-.621,4.318,4.318,0,0,0-.589-1.979h2.625a.724.724,0,0,0,0-1.448H36.574a4.243,4.243,0,0,0-1.531-.646.729.729,0,0,1-.532-.393,4.38,4.38,0,0,0-3.137-2.511,2.147,2.147,0,0,0-1.649-.758H26.707A.723.723,0,0,1,26,13.717l.135-.638h6.5a4.427,4.427,0,0,0,4.418-4.122,4.382,4.382,0,0,1,5.581,2.671,2.171,2.171,0,0,0,2.2,1.459,2.894,2.894,0,0,1,2.305,4.9,3.031,3.031,0,0,1-2.15.907h-1.06a.724.724,0,1,0,0,1.448h1.06a4.487,4.487,0,0,0,3.184-1.341A4.321,4.321,0,0,0,48,12.767ZM34.889,47.25a.725.725,0,0,1-.724.724H15.255a.725.725,0,0,1-.724-.724v-.733a10.142,10.142,0,0,1,1.19-4.777A13.812,13.812,0,0,0,33.7,41.733a10.146,10.146,0,0,1,1.193,4.784ZM10.9,34.163a2.185,2.185,0,1,1,.08-4.368,13.918,13.918,0,0,0,.233,4.368Zm5.195-8.37a3.348,3.348,0,0,1-2.958,1.749,2.194,2.194,0,0,0-1.649.806,5.388,5.388,0,0,0-1.56.131,2.9,2.9,0,0,1,1.189-4.222,2.165,2.165,0,0,0,1.235-1.866,2.936,2.936,0,0,1,2.314-2.72,2.171,2.171,0,0,0,1.567-1.226,2.923,2.923,0,0,1,1.305-1.394,2.157,2.157,0,0,0,2.156,1.895h2.79a.724.724,0,0,1,.715.843l-.445,2.667A7.093,7.093,0,0,0,16.094,25.793Zm22.426,8.37H38.2a13.862,13.862,0,0,0,.237-4.368,2.185,2.185,0,1,1,.079,4.368ZM33.187,18.447a2.178,2.178,0,0,0,1.567,1.225,2.935,2.935,0,0,1,2.315,2.719A2.161,2.161,0,0,0,38.3,24.257a2.893,2.893,0,0,1,1.187,4.222,5.378,5.378,0,0,0-1.559-.132,2.193,2.193,0,0,0-1.648-.806,3.348,3.348,0,0,1-2.958-1.75,7.054,7.054,0,0,0-5.676-3.36l3.71-4.239a2.166,2.166,0,0,0,.518-1.144A2.924,2.924,0,0,1,33.187,18.447Zm-6.48-2.408h3.018a.7.7,0,0,1,.619.348.706.706,0,0,1-.076.855L23.874,24.55l.754-4.522A2.173,2.173,0,0,0,22.485,17.5h-2.79a.724.724,0,0,1-.512-1.235l3.184-3.184h2.288l-.072.338a2.171,2.171,0,0,0,2.124,2.622Zm8.065-5.3a3.026,3.026,0,0,1-2.134.9L16.02,11.622a3.222,3.222,0,0,1-.637-.07.724.724,0,1,0-.331,1.41,4.406,4.406,0,0,0,1.007.117h4.259l-2.26,2.267a4.382,4.382,0,0,0-3.15,2.513.723.723,0,0,1-.53.393,4.24,4.24,0,0,0-1.533.647H4.429a3.031,3.031,0,0,1-2.15-.907A2.87,2.87,0,0,1,2.4,13.838a2.9,2.9,0,0,1,2.185-.75,2.171,2.171,0,0,0,2.2-1.459,4.376,4.376,0,0,1,4.846-2.851,4.278,4.278,0,0,0,.322,1.562.724.724,0,0,0,1.339-.551,2.9,2.9,0,0,1,2.924-3.97,2.173,2.173,0,0,0,2.2-1.459,4.369,4.369,0,0,1,7.127-1.707,2.183,2.183,0,0,0,2.258.479A3.64,3.64,0,0,1,32.309,4.88a2.135,2.135,0,0,0,1.272,1.064,2.884,2.884,0,0,1,1.19,4.79Z" transform="translate(0 -0.002)"/>
        <path id="Trazado_1053047" data-name="Trazado 1053047" d="M206.92,30.108a3.636,3.636,0,0,0-3.631,3.631.724.724,0,1,0,1.448,0,2.186,2.186,0,0,1,2.183-2.183.724.724,0,1,0,0-1.448Z" transform="translate(-183.663 -27.202)"/>
        <path id="Trazado_1053048" data-name="Trazado 1053048" d="M276.67,81.734a2.186,2.186,0,0,1-3.088,0,.724.724,0,1,0-1.024,1.024,3.636,3.636,0,0,0,5.136,0,.724.724,0,0,0-1.024-1.024Z" transform="translate(-246.055 -73.652)"/>
        <path id="Trazado_1053049" data-name="Trazado 1053049" d="M222.689,331.3a.723.723,0,0,0,.6-.311,2.25,2.25,0,0,1,3.926,0,.724.724,0,0,0,1.189-.827,3.691,3.691,0,0,0-6.3,0A.725.725,0,0,0,222.689,331.3Z" transform="translate(-200.537 -296.693)"/>
        <path id="Trazado_1053050" data-name="Trazado 1053050" d="M171.359,309.9a.724.724,0,0,0-1.092-.951,1.455,1.455,0,0,1-2.2,0,.724.724,0,0,0-1.092.951A2.905,2.905,0,0,0,171.359,309.9Z" transform="translate(-150.697 -278.896)"/>
        <path id="Trazado_1053051" data-name="Trazado 1053051" d="M300.614,309.9a.724.724,0,1,0-1.092-.951,1.455,1.455,0,0,1-2.2,0,.724.724,0,1,0-1.092.951A2.9,2.9,0,0,0,300.614,309.9Z" transform="translate(-267.474 -278.896)"/>
      </g>
    </g>
  </g>
</svg>
