<svg xmlns="http://www.w3.org/2000/svg" xmlns:xlink="http://www.w3.org/1999/xlink" width="93.934" height="93.934" viewBox="0 0 93.934 93.934">
  <defs>
    <filter id="Trazado_982547" x="0" y="0" width="93.934" height="93.934" filterUnits="userSpaceOnUse">
      <feOffset dy="3" input="SourceAlpha"/>
      <feGaussianBlur stdDeviation="3" result="blur"/>
      <feFlood flood-opacity="0.161"/>
      <feComposite operator="in" in2="blur"/>
      <feComposite in="SourceGraphic"/>
    </filter>
  </defs>
  <g id="Grupo_1206336" data-name="Grupo 1206336" transform="translate(-819 -4755.033)">
    <g id="Grupo_1183818" data-name="Grupo 1183818" transform="translate(828 4761.033)">
      <g id="Grupo_1181939" data-name="Grupo 1181939">
        <g id="Grupo_1175133" data-name="Grupo 1175133">
          <g id="Grupo_1167337" data-name="Grupo 1167337">
            <g id="Grupo_1166720" data-name="Grupo 1166720">
              <g id="Grupo_1164305" data-name="Grupo 1164305">
                <g id="Grupo_1163948" data-name="Grupo 1163948">
                  <g id="Grupo_1158168" data-name="Grupo 1158168">
                    <g id="Grupo_1152576" data-name="Grupo 1152576">
                      <g id="Grupo_1148633" data-name="Grupo 1148633">
                        <g id="Grupo_1148525" data-name="Grupo 1148525">
                          <g transform="matrix(1, 0, 0, 1, -9, -6)" filter="url(#Trazado_982547)">
                            <g id="Trazado_982547-2" data-name="Trazado 982547" transform="translate(9 6)" fill="#eaf9f8">
                              <path d="M 37.966796875 74.43359375 C 33.04315185546875 74.43359375 28.26757431030273 73.46962738037109 23.77274131774902 71.56847381591797 C 19.43047523498535 69.73184967041016 15.53040790557861 67.10224914550781 12.18087482452393 63.75271987915039 C 8.831341743469238 60.4031867980957 6.201741218566895 56.50312042236328 4.365118980407715 52.16086196899414 C 2.463963508605957 47.66601943969727 1.499996900558472 42.89044189453125 1.499996900558472 37.966796875 C 1.499996900558472 33.04315185546875 2.463963508605957 28.26757431030273 4.365118980407715 23.77274131774902 C 6.201741218566895 19.43047523498535 8.831341743469238 15.53040790557861 12.18087482452393 12.18087482452393 C 15.53040790557861 8.831341743469238 19.43047523498535 6.201741218566895 23.77274131774902 4.365118980407715 C 28.26757431030273 2.463963508605957 33.04315185546875 1.499996900558472 37.966796875 1.499996900558472 C 42.89044189453125 1.499996900558472 47.66601943969727 2.463963508605957 52.16086196899414 4.365118980407715 C 56.50312042236328 6.201741218566895 60.4031867980957 8.831341743469238 63.75271987915039 12.18087482452393 C 67.10224914550781 15.53040790557861 69.73184967041016 19.43047523498535 71.56847381591797 23.77274131774902 C 73.46962738037109 28.26757431030273 74.43359375 33.04315185546875 74.43359375 37.966796875 C 74.43359375 42.89044189453125 73.46962738037109 47.66601943969727 71.56847381591797 52.16086196899414 C 69.73184967041016 56.50313186645508 67.10224914550781 60.4031867980957 63.75271987915039 63.75271987915039 C 60.4031867980957 67.10224914550781 56.50313186645508 69.73184967041016 52.16086196899414 71.56847381591797 C 47.66601943969727 73.46962738037109 42.89044189453125 74.43359375 37.966796875 74.43359375 Z" stroke="none"/>
                              <path d="M 37.966796875 3 C 33.2449836730957 3 28.66600799560547 3.924095153808594 24.35705947875977 5.746635437011719 C 20.19359588623047 7.507637023925781 16.45379638671875 10.02928161621094 13.24153518676758 13.24153518676758 C 10.02927398681641 16.45379638671875 7.507621765136719 20.19359588623047 5.746635437011719 24.35705947875977 C 3.924095153808594 28.66600799560547 3 33.2449836730957 3 37.966796875 C 3 42.6886100769043 3.924095153808594 47.26758575439453 5.746635437011719 51.57653427124023 C 7.507621765136719 55.73999786376953 10.02927398681641 59.47979736328125 13.24153518676758 62.69205856323242 C 16.45379638671875 65.90431976318359 20.19359588623047 68.42597198486328 24.35705947875977 70.18695831298828 C 28.66600799560547 72.00949859619141 33.2449836730957 72.93359375 37.966796875 72.93359375 C 42.6886100769043 72.93359375 47.26758575439453 72.00949859619141 51.57653427124023 70.18695831298828 C 55.73999786376953 68.42597198486328 59.47979736328125 65.90431976318359 62.69205856323242 62.69205856323242 C 65.90431976318359 59.47979736328125 68.42597198486328 55.73999786376953 70.18695831298828 51.57653427124023 C 72.00949859619141 47.26758575439453 72.93359375 42.6886100769043 72.93359375 37.966796875 C 72.93359375 33.2449836730957 72.00949859619141 28.66600799560547 70.18695831298828 24.35705947875977 C 68.42597198486328 20.19359588623047 65.90431976318359 16.45379638671875 62.69205856323242 13.24153518676758 C 59.47979736328125 10.02928161621094 55.73999786376953 7.507637023925781 51.57653427124023 5.746635437011719 C 47.26758575439453 3.924095153808594 42.6886100769043 3 37.966796875 3 M 37.966796875 0 C 58.93528366088867 0 75.93359375 16.99832153320312 75.93359375 37.966796875 C 75.93359375 58.93528366088867 58.93528366088867 75.93359375 37.966796875 75.93359375 C 16.99831008911133 75.93359375 0 58.93528366088867 0 37.966796875 C 0 16.99832153320312 16.99831008911133 0 37.966796875 0 Z" stroke="none" fill="#1f7069"/>
                            </g>
                          </g>
                        </g>
                      </g>
                    </g>
                  </g>
                </g>
              </g>
            </g>
          </g>
        </g>
      </g>
    </g>
    <g id="aprendizaje-electronico_1_" data-name="aprendizaje-electronico (1)" transform="translate(835 4765)">
      <g id="Grupo_1206334" data-name="Grupo 1206334" transform="translate(8.742 8.742)">
        <g id="Grupo_1206333" data-name="Grupo 1206333" transform="translate(0 0)">
          <path id="Trazado_1053052" data-name="Trazado 1053052" d="M60.516,106.226v23H16v-23A2.226,2.226,0,0,1,18.226,104H58.29a2.226,2.226,0,0,1,2.226,2.226Z" transform="translate(-16 -95.839)" fill="#83d8f4"/>
          <path id="Trazado_1053053" data-name="Trazado 1053053" d="M60.516,376v2.226a2.226,2.226,0,0,1-2.226,2.226H18.226A2.226,2.226,0,0,1,16,378.226V376Z" transform="translate(-16 -342.613)" fill="#e0e0e2"/>
          <path id="Trazado_1053054" data-name="Trazado 1053054" d="M210.387,428.452H200L201.484,424H208.9Z" transform="translate(-182.935 -386.161)" fill="#57565c"/>
          <path id="Trazado_1053055" data-name="Trazado 1053055" d="M168,472h16.323v2.226H168Z" transform="translate(-153.903 -429.71)" fill="#e0e0e2"/>
          <path id="Trazado_1053056" data-name="Trazado 1053056" d="M190.839,80v8.9A19.29,19.29,0,0,1,176,88.9V80" transform="translate(-161.161 -74.065)" fill="#2d2d30"/>
          <circle id="Elipse_14280" data-name="Elipse 14280" cx="1.5" cy="1.5" r="1.5" transform="translate(30.258 16.258)" fill="#ffda44"/>
          <path id="Trazado_1053057" data-name="Trazado 1053057" d="M147.129,24.9,136,20.452,147.129,16l11.129,4.452Z" transform="translate(-124.871 -16)" fill="#3e3d42"/>
        </g>
        <path id="Trazado_1053058" data-name="Trazado 1053058" d="M80,248H94.839v8.9H80Z" transform="translate(-74.065 -226.484)" fill="#ffda44"/>
      </g>
      <g id="Grupo_1206335" data-name="Grupo 1206335" transform="translate(8 8)">
        <path id="Trazado_1053059" data-name="Trazado 1053059" d="M51.032,16.161H41.387V14.29l1.017-.407a.742.742,0,0,0,0-1.378L31.275,8.053a.744.744,0,0,0-.551,0L19.6,12.5a.742.742,0,0,0,0,1.378l3.243,1.3v.981H10.968A2.971,2.971,0,0,0,8,19.129V44.355a2.971,2.971,0,0,0,2.968,2.968H26.261l-.99,2.968H22.839a.742.742,0,0,0-.742.742v2.226a.742.742,0,0,0,.742.742H39.161a.742.742,0,0,0,.742-.742V51.032a.742.742,0,0,0-.742-.742H36.729l-.99-2.968H51.032A2.971,2.971,0,0,0,54,44.355V19.129A2.971,2.971,0,0,0,51.032,16.161ZM41.387,26.548a.742.742,0,1,1-.742-.742A.742.742,0,0,1,41.387,26.548ZM21.869,13.194,31,9.541l9.131,3.652L31,16.846ZM39.9,14.883v1.278h-.742V15.18Zm-2.226.89v7.3a18.577,18.577,0,0,1-13.355,0v-7.3l6.4,2.561a.744.744,0,0,0,.551,0Zm.742,36v.742H23.581v-.742ZM26.836,50.29l.99-2.968h6.349l.99,2.968Zm25.68-5.935a1.486,1.486,0,0,1-1.484,1.484H10.968a1.486,1.486,0,0,1-1.484-1.484V42.871H52.516Zm0-2.968H9.484V19.129a1.486,1.486,0,0,1,1.484-1.484H22.839v5.935a.742.742,0,0,0,.466.689,20.1,20.1,0,0,0,15.39,0,.742.742,0,0,0,.466-.689V17.645H39.9v6.677a.784.784,0,0,0,.011.124,2.226,2.226,0,1,0,1.462,0,.784.784,0,0,0,.011-.124V17.645h9.645a1.486,1.486,0,0,1,1.484,1.484Z" transform="translate(-8 -8)"/>
        <path id="Trazado_1053060" data-name="Trazado 1053060" d="M45.194,392H40.742a.742.742,0,0,0,0,1.484h4.452a.742.742,0,0,0,0-1.484Z" transform="translate(-37.032 -356.387)"/>
        <path id="Trazado_1053061" data-name="Trazado 1053061" d="M113.484,392h-.742a.742.742,0,0,0,0,1.484h.742a.742.742,0,0,0,0-1.484Z" transform="translate(-102.355 -356.387)"/>
        <path id="Trazado_1053062" data-name="Trazado 1053062" d="M72.742,250.387H87.581a.742.742,0,0,0,.742-.742v-8.9a.742.742,0,0,0-.742-.742H72.742a.742.742,0,0,0-.742.742v8.9A.742.742,0,0,0,72.742,250.387Zm.742-8.9H86.839V248.9H73.484Z" transform="translate(-66.065 -218.484)"/>
        <path id="Trazado_1053063" data-name="Trazado 1053063" d="M72.742,217.484h5.935a.742.742,0,1,0,0-1.484H72.742a.742.742,0,1,0,0,1.484Z" transform="translate(-66.065 -196.71)"/>
        <path id="Trazado_1053064" data-name="Trazado 1053064" d="M72.742,193.484h2.226a.742.742,0,0,0,0-1.484H72.742a.742.742,0,1,0,0,1.484Z" transform="translate(-66.065 -174.935)"/>
        <path id="Trazado_1053065" data-name="Trazado 1053065" d="M264.742,241.484h14.839a.742.742,0,0,0,0-1.484H264.742a.742.742,0,1,0,0,1.484Z" transform="translate(-240.258 -218.484)"/>
        <path id="Trazado_1053066" data-name="Trazado 1053066" d="M264.742,265.484h14.839a.742.742,0,0,0,0-1.484H264.742a.742.742,0,0,0,0,1.484Z" transform="translate(-240.258 -240.258)"/>
        <path id="Trazado_1053067" data-name="Trazado 1053067" d="M264.742,289.484H276.52a.742.742,0,0,0,0-1.484H264.742a.742.742,0,1,0,0,1.484Z" transform="translate(-240.258 -262.032)"/>
        <path id="Trazado_1053068" data-name="Trazado 1053068" d="M417.484,288h-.742a.742.742,0,0,0,0,1.484h.742a.742.742,0,1,0,0-1.484Z" transform="translate(-378.161 -262.032)"/>
        <path id="Trazado_1053069" data-name="Trazado 1053069" d="M264.742,313.484h14.839a.742.742,0,0,0,0-1.484H264.742a.742.742,0,1,0,0,1.484Z" transform="translate(-240.258 -283.806)"/>
        <path id="Trazado_1053070" data-name="Trazado 1053070" d="M264.742,337.484H276.52a.742.742,0,0,0,0-1.484H264.742a.742.742,0,0,0,0,1.484Z" transform="translate(-240.258 -305.581)"/>
        <path id="Trazado_1053071" data-name="Trazado 1053071" d="M417.484,336h-.742a.742.742,0,0,0,0,1.484h.742a.742.742,0,0,0,0-1.484Z" transform="translate(-378.161 -305.581)"/>
      </g>
    </g>
  </g>
</svg>
