<svg xmlns="http://www.w3.org/2000/svg" width="98.106" height="109.424" viewBox="0 0 98.106 109.424">
  <g id="Grupo_1206339" data-name="Grupo 1206339" transform="translate(-175.827 -4903)">
    <rect id="Rectángulo_417629" data-name="Rectángulo 417629" width="85.173" height="109.424" rx="12" transform="translate(179.827 4903)" fill="#cf50ff"/>
    <g id="libros" transform="translate(106.699 4833.31)">
      <path id="Trazado_1053072" data-name="Trazado 1053072" d="M167.032,134.762c-.026-.078-.056-.156-.088-.231-3.922-10.333-8.114-20.754-12.169-30.831q-2.224-5.526-4.437-11.054-2.025-5.073-4.071-10.137c-.132-.324-.259-.653-.387-.982a26.648,26.648,0,0,0-1.384-3.15c-1.46-2.686-4.635-2.686-5.678-2.686-.421,0-.837.016-1.228.032-.263.011-.514.021-.744.023a270.9,270.9,0,0,0-35.984,2.4c-4.419.625-11.1,1.569-14.188,7.478a13.557,13.557,0,0,0-1.018,10.574,63.238,63.238,0,0,0-5.886,2.374c-.805.357-1.6.708-2.374,1.033a13.741,13.741,0,0,0-6.63,5.19c-3.718,5.632-.261,12.453,2.027,16.967l.28.554c1.317,2.61,2.636,5.28,3.911,7.861l.46.931a2.745,2.745,0,0,0,.27.545c1.917,3.877,3.806,7.678,5.813,11.519,1.782,3.409,3.7,6.8,5.549,10.081,1.993,3.529,4.053,7.179,5.929,10.821,1.689,3.278,4.241,8.231,9.857,8.231h0a11.225,11.225,0,0,0,2.563-.315c4.993-1.178,10.3-2.463,15.418-4.091,5.038-1.6,10.122-3.315,15.038-4.973,3.655-1.232,7.435-2.507,11.159-3.722q.508-.166,1.018-.327a2.839,2.839,0,0,0,1.988-2.379c0-.01.01-.08.013-.106a2.9,2.9,0,0,0-.271-1.566c-.9-1.88,1.185-4.839,3.142-6.4,1.661-.3,3.058-.6,4.357-.944a2.8,2.8,0,0,0,2.073-2.24,2.869,2.869,0,0,0-.294-1.937,1.727,1.727,0,0,1,.22-.994,8.166,8.166,0,0,1,3.558-3.712l.074-.025a2.875,2.875,0,0,0,.538-.181,2.838,2.838,0,0,0,1.51-1.391,2.779,2.779,0,0,0,.077-2.212Z" transform="translate(0)" fill="#fff"/>
      <g id="Grupo_1206338" data-name="Grupo 1206338" transform="translate(71.354 77.92)">
        <path id="Trazado_1053073" data-name="Trazado 1053073" d="M182.255,152.851a.627.627,0,0,0-.042-.111c-5.33-14.047-11.044-27.962-16.616-41.914q-2.024-5.067-4.067-10.126a37.93,37.93,0,0,0-1.664-3.905c-1.046-1.925-3.91-1.483-5.671-1.467A272.547,272.547,0,0,0,118.5,97.7c-4.808.68-10.075,1.62-12.525,6.3a11.582,11.582,0,0,0-.588,9.79c.139.426.287.85.43,1.275-3.452.769-6.993,2.582-10.234,3.938a11.637,11.637,0,0,0-5.63,4.362c-3.136,4.75.243,10.938,2.437,15.288,1.5,2.978,2.976,5.97,4.454,8.96a.526.526,0,0,0,.118.239c1.924,3.892,3.856,7.78,5.867,11.63,3.683,7.048,7.845,13.848,11.484,20.914,2.248,4.364,4.517,8.043,9.927,6.767,5.108-1.2,10.248-2.455,15.254-4.046,8.764-2.784,17.439-5.837,26.18-8.689q.518-.169,1.036-.333a.622.622,0,0,0,.45-.544c0-.01,0-.019,0-.029s0-.008,0-.012a.67.67,0,0,0-.064-.378c-1.591-3.322,1.508-7.434,4.046-9.327a.721.721,0,0,0,.133-.131c1.611-.274,3.206-.592,4.757-1a.587.587,0,0,0,.456-.5.628.628,0,0,0-.064-.46c-1.394-2.58,2.727-7.138,5.048-7.885a.769.769,0,0,0,.137-.059l.038,0a.7.7,0,0,0,.258-.078.546.546,0,0,0,.374-.752Z" transform="translate(-88.683 -95.273)" fill="#68182b"/>
        <path id="Trazado_1053074" data-name="Trazado 1053074" d="M241.523,151.311a8.556,8.556,0,0,1,3.29-3.4c2.074,5.509,4.222,10.994,6.388,16.476a10.79,10.79,0,0,0-6.261,6.357c-1.131-2.991-2.251-5.987-3.311-9C240.354,158.11,239.621,154.944,241.523,151.311Z" transform="translate(-223.096 -141.916)" fill="#ff801d"/>
        <path id="Trazado_1053075" data-name="Trazado 1053075" d="M338.165,434.247c-1.916-.643-3-2.191-3.953-4.469-1.344-3.219-2.509-6.525-3.77-9.778q-3.143-8.109-6.279-16.222a.707.707,0,0,0,.017-.14,8.106,8.106,0,0,1,5.949-7.409c3.945,10,7.815,20.026,11.264,30.192a9.989,9.989,0,0,0-2.327,1.815A5.4,5.4,0,0,0,338.165,434.247Z" transform="translate(-297.355 -361.967)" fill="#ff801d"/>
        <path id="Trazado_1053076" data-name="Trazado 1053076" d="M292.031,319.105q-1.535-3.993-3.056-7.992c-.31-3.081,2.825-6.78,5.769-7.7q1.848,4.67,3.7,9.341A9.547,9.547,0,0,0,292.031,319.105Z" transform="translate(-266.154 -279.714)" fill="#b1d045"/>
        <path id="Trazado_1053077" data-name="Trazado 1053077" d="M137.714,284.286c3.307-1.512,7.17-3.374,10.751-4.151,2.355,6.848,5.087,13.585,7.687,20.336,3.166,8.221,6.383,16.421,9.532,24.648,1.3,3.408,2.491,7.118,6.536,7.777,2.473.4,5.151-.143,7.6-.457,7.743-.993,15.458-2.217,23.169-3.435,1-.158,2.015-.3,3.035-.437-8.4,2.64-16.858,5.123-25.286,7.667-4.32,1.3-8.638,2.613-12.967,3.89a6.22,6.22,0,0,0-.806.3c-10.181-18.473-20.054-37.168-30.634-55.414A13.63,13.63,0,0,1,137.714,284.286Z" transform="translate(-130.909 -259.089)" fill="#0f8"/>
        <path id="Trazado_1053078" data-name="Trazado 1053078" d="M107.68,351.846c-2.55-5.337-7.336-11.576-6.478-17.754a6.985,6.985,0,0,1,2.826-4.569q4.443,7.663,8.74,15.419a11.667,11.667,0,0,0-4.65,7.808C107.973,352.448,107.825,352.149,107.68,351.846Z" transform="translate(-99.687 -302.855)" fill="#00ebed"/>
        <path id="Trazado_1053079" data-name="Trazado 1053079" d="M171.852,483.85c.253-3.39,1.4-6.807,4.249-8.8q2.06,3.711,4.1,7.432a10.858,10.858,0,0,0-5.056,8.025Q173.471,487.189,171.852,483.85Z" transform="translate(-162.384 -431.814)" fill="#fac135"/>
        <path id="Trazado_1053080" data-name="Trazado 1053080" d="M224.635,585.276c-4.876-8.463-9.578-17.069-14.035-25.785a.686.686,0,0,0,.035-.2c.063-3.714,1.395-6.868,4.536-8.859,5.505,10.048,10.942,20.137,16.467,30.162-2.868,1.923-5.179,5.864-3.261,8.5C226.879,588.518,225.744,587.2,224.635,585.276Z" transform="translate(-196.72 -498.615)" fill="#00ebed"/>
        <g id="Grupo_1206337" data-name="Grupo 1206337" transform="translate(32.194 58.815)">
          <path id="Trazado_1053081" data-name="Trazado 1053081" d="M371.575,762.836c2.21-.846,4.633-1.349,6.89-2.007q7.753-2.259,15.514-4.5c7.382-2.133,14.8-4.174,22.155-6.39a6.925,6.925,0,0,0-.146,1.486c-7.448,1.865-14.788,4.446-22.136,6.653q-7.688,2.309-15.379,4.607c-2.2.654-4.478,1.571-6.746,2.022a2.635,2.635,0,0,1-.152-1.875Z" transform="translate(-371.473 -734.227)" fill="#efefef"/>
          <path id="Trazado_1053082" data-name="Trazado 1053082" d="M400.331,778.273c-3.225,1.061-6.453,2.191-9.752,3.006-3.109.768-6.244,1.428-9.321,2.319a9.625,9.625,0,0,1-1.915.365,4.352,4.352,0,0,1-1.11-.788c2.168-.471,4.343-1.338,6.44-1.963q7.692-2.293,15.378-4.607c7.3-2.191,14.592-4.752,21.99-6.614a5.878,5.878,0,0,0,.223.974C414.923,773.305,407.65,775.865,400.331,778.273Z" transform="translate(-377.463 -751.993)" fill="#efefef"/>
          <path id="Trazado_1053083" data-name="Trazado 1053083" d="M420.138,729.811c-7.5,2.267-15.071,4.347-22.6,6.523q-7.759,2.241-15.514,4.5c-2.056.6-4.253,1.068-6.3,1.787a8.21,8.21,0,0,1,1.317-1.8c14.462-4.6,29.327-7.919,43.773-12.584A10.081,10.081,0,0,0,420.138,729.811Z" transform="translate(-375.239 -714.986)" fill="#efefef"/>
          <path id="Trazado_1053084" data-name="Trazado 1053084" d="M442.6,706.54c-14.165,4.629-28.75,7.916-42.974,12.338a9.451,9.451,0,0,1,1.5-.954,25.282,25.282,0,0,1,3.927-1.2q6.942-2.078,13.876-4.18c8.318-2.517,16.663-4.977,24.937-7.638A14.273,14.273,0,0,0,442.6,706.54Z" transform="translate(-396.419 -694.316)" fill="#efefef"/>
          <path id="Trazado_1053085" data-name="Trazado 1053085" d="M483.139,670.537c-8.1,1.274-16.206,2.619-24.355,3.513-.855.094-1.716.19-2.577.2-.032,0-.061,0-.092,0a2.391,2.391,0,0,1-1.451-1.687c2.015-.146,4.053-.548,6.044-.809q7.253-.948,14.5-1.91c7.991-1.056,15.978-2.161,23.977-3.154a4.072,4.072,0,0,0,.12,1.255C494.073,669.249,488.445,669.7,483.139,670.537Z" transform="translate(-445.193 -660.451)" fill="#efefef"/>
          <path id="Trazado_1053086" data-name="Trazado 1053086" d="M498.666,648.935c-7.9.979-15.783,2.071-23.672,3.113q-7.306.965-14.612,1.925c-2.118.277-4.287.708-6.429.854a4.96,4.96,0,0,1,.366-1.717q22.4-2.8,44.8-5.553A7.068,7.068,0,0,0,498.666,648.935Z" transform="translate(-444.563 -643.497)" fill="#efefef"/>
          <path id="Trazado_1053087" data-name="Trazado 1053087" d="M505.526,630.441Q483.111,633.189,460.7,636c.01-.017.019-.036.03-.053a4.638,4.638,0,0,1,1.18-1.3c8.163-1.43,16.492-2.167,24.716-3.143,6.548-.777,13.212-1.264,19.733-2.308a11.2,11.2,0,0,0-.835,1.253Z" transform="translate(-450.544 -627.22)" fill="#efefef"/>
          <path id="Trazado_1053088" data-name="Trazado 1053088" d="M533.056,612.953c-7.043,1.192-14.268,1.694-21.358,2.537-7.229.859-14.538,1.533-21.739,2.68a23.7,23.7,0,0,1,2.79-.848,125.251,125.251,0,0,1,16.2-2.582c8.4-.993,16.8-1.963,25.208-2.841A12.378,12.378,0,0,0,533.056,612.953Z" transform="translate(-476.47 -611.898)" fill="#efefef"/>
        </g>
        <path id="Trazado_1053089" data-name="Trazado 1053089" d="M351.649,144.922q-5.251-13.251-10.538-26.488-1.741-4.347-3.505-8.684c-.921-2.278-1.883-2.594-4.307-2.572-1.966.018-3.933.042-5.9.09-3.528.086-7.055.209-10.578.406-5.578.31-11.154.738-16.7,1.422-3.3.408-7.287.659-10.467,2.1,7.335,19.514,15.621,38.737,22.335,58.477,3.248-1.465,7.239-1.843,10.487-2.333,12.063-1.822,24.22-3.019,36.354-4.247C356.512,157.011,354.048,150.976,351.649,144.922Zm-9.491-6.47c-1.048,1.669-3.386,1.682-5.174,1.858l-21.461,2.105c-2.444.24-5.174.709-6.651-1.768-1.678-2.814-2.657-6.148-3.883-9.177-.874-2.16-2.477-4.668-1.912-7.078.561-2.39,3.877-2.419,5.807-2.587L320.51,120.8l9.372-.814c3.743-.325,5.885.231,7.4,3.829a.7.7,0,0,1,.023.074.78.78,0,0,1,.043.083c1.213,3.031,2.419,6.064,3.677,9.076C341.589,134.385,343.116,136.927,342.158,138.452Z" transform="translate(-266.776 -105.822)" fill="#fac135"/>
        <path id="Trazado_1053090" data-name="Trazado 1053090" d="M455,262.607a8.4,8.4,0,0,1-1.707.336l-8.9.873-11.906,1.168-2.77.272c-2.526.248-3.956.049-5.186-2.411-1.6-3.2-2.72-6.738-4.067-10.054a8.921,8.921,0,0,1-.831-3.246c2.22-.778,4.953-.632,7.215-.828l11.933-1.036c2.408-.209,4.817-.494,7.236-.511,3.418-.025,4.071,3,5.155,5.7,1.264,3.152,3.041,6.405,3.882,9.712C455.04,262.591,455.025,262.6,455,262.607Z" transform="translate(-381.959 -229.876)" fill="#b1d045"/>
        <path id="Trazado_1053091" data-name="Trazado 1053091" d="M457.085,247.294c-.86-3.24-2.591-6.43-3.831-9.519-.81-2.018-1.47-4.961-3.666-5.942s-5.844-.143-8.213.062l-13.2,1.146c-2.233.194-4.814.1-7.047.739.292-.709.991-1.215,2.366-1.334l9.372-.814,11.626-1.009,2.245-.2c3.072-.267,4.65.246,5.9,3.149,1.309,3.271,2.62,6.541,3.978,9.793C457.108,244.576,458.1,246.355,457.085,247.294Z" transform="translate(-383.277 -214.988)" fill="#fbf199"/>
        <path id="Trazado_1053092" data-name="Trazado 1053092" d="M696.415,277.741c1.016-.94.023-2.719-.48-3.923-.945-2.264-1.865-4.538-2.78-6.814a14.381,14.381,0,0,0-1.954-2.279c.578,1.145.961,2.445,1.383,3.5C693.824,271.311,695.555,274.5,696.415,277.741Z" transform="translate(-622.607 -245.435)" fill="#f3af79"/>
        <path id="Trazado_1053093" data-name="Trazado 1053093" d="M186.447,525.564a10.858,10.858,0,0,1,5.056-8.025c-.536-.977-1.078-1.951-1.616-2.928a13.25,13.25,0,0,0-5.283,7.257Q185.518,523.719,186.447,525.564Z" transform="translate(-173.684 -466.871)" fill="#ee9e2b"/>
        <path id="Trazado_1053094" data-name="Trazado 1053094" d="M352.892,169.619c.509,3.358.689,6.9-.786,9.485-1.913,3.352-8.689,3.435-11.969,3.748-5.552.529-11.016,1.551-16.612,1.592-5.576.041-9.645-1.548-12.548-6.441-2.877-4.849-4.85-10.353-6.907-15.578-2.28-5.792-4.563-11.572-6.454-17.506-.829-2.6-1.484-5.253-2.329-7.847a24.3,24.3,0,0,1-1.479-5.541,18.778,18.778,0,0,0-4.15,1.249c7.335,19.514,15.621,38.737,22.335,58.477,3.248-1.465,7.239-1.843,10.487-2.333,12.063-1.822,24.22-3.019,36.354-4.247C356.912,179.637,354.893,174.63,352.892,169.619Z" transform="translate(-266.778 -127.403)" fill="#ee9e2b"/>
        <path id="Trazado_1053095" data-name="Trazado 1053095" d="M242.581,164.158a8.133,8.133,0,0,0-1.057,1.554c-1.9,3.632-1.17,6.8.106,10.425,1.061,3.017,2.181,6.013,3.311,9a9.722,9.722,0,0,1,1.347-2.553C244.071,176.69,242.034,170.356,242.581,164.158Z" transform="translate(-223.097 -156.316)" fill="#ef6200"/>
        <path id="Trazado_1053096" data-name="Trazado 1053096" d="M336.315,459.4c-2.113-2.45-3.244-5.776-4.317-8.769-2.273-6.341-4.555-12.684-6.9-19a7.408,7.408,0,0,0-.918,3.378.723.723,0,0,1-.017.14q3.128,8.115,6.279,16.222c1.26,3.253,2.426,6.559,3.77,9.778.951,2.278,2.038,3.826,3.953,4.469a5.171,5.171,0,0,1-.039-4.573,9.942,9.942,0,0,1-1.811-1.643Z" transform="translate(-297.355 -393.338)" fill="#ef6200"/>
        <path id="Trazado_1053097" data-name="Trazado 1053097" d="M107.787,361.441c-1.588-3.115-3.155-6.246-4.5-9.477a12.684,12.684,0,0,1-1.064-5.719,6.324,6.324,0,0,0-1.024,2.665c-.858,6.178,3.928,12.417,6.478,17.754.144.3.293.6.438.9a14.986,14.986,0,0,1,1.037-3.389C108.7,363.266,108.25,362.351,107.787,361.441Z" transform="translate(-99.687 -317.674)" fill="#00afb3"/>
        <path id="Trazado_1053098" data-name="Trazado 1053098" d="M228.377,628.624a4.242,4.242,0,0,1-.322-4.121c-2.334-1.724-3.731-4.686-5.186-7.1-3.517-5.847-6.612-11.943-9.583-18.082q-1.034-2.138-2.057-4.279a12.9,12.9,0,0,0-.595,3.781.687.687,0,0,1-.035.2c4.457,8.716,9.159,17.322,14.035,25.785C225.744,626.727,226.879,628.045,228.377,628.624Z" transform="translate(-196.72 -538.142)" fill="#00afb3"/>
        <path id="Trazado_1053099" data-name="Trazado 1053099" d="M309.884,356.073a11.76,11.76,0,0,0-6.525,5.943q.719,1.88,1.437,3.758a9.547,9.547,0,0,1,6.413-6.356Q310.548,357.745,309.884,356.073Z" transform="translate(-278.919 -326.382)" fill="#abab38"/>
        <path id="Trazado_1053100" data-name="Trazado 1053100" d="M453.487,285.146a8.4,8.4,0,0,0,1.707-.336c.021-.007.035-.015.055-.022a54.749,54.749,0,0,0-3.216-8.137c.336,2.1.476,4.691-.8,5.631-1.255.924-3.24.908-4.725,1.026-2.384.189-4.761.452-7.147.626-4.489.328-10.411,1.36-13.826-2.248-2.468-2.607-3.909-6.278-5.682-9.462a10.642,10.642,0,0,0,.807,2.769c1.348,3.316,2.467,6.854,4.067,10.054,1.23,2.46,2.66,2.659,5.186,2.411l2.77-.272,11.906-1.168Z" transform="translate(-382.148 -252.08)" fill="#abab38"/>
        <path id="Trazado_1053101" data-name="Trazado 1053101" d="M279.792,348.213c-2.451.314-5.129.86-7.6.457-4.045-.659-5.231-4.369-6.536-7.777-3.15-8.227-6.367-16.427-9.532-24.648-2.342-6.083-4.79-12.157-6.975-18.309A51.673,51.673,0,0,0,251,306c1.107,4.167,2.471,8.259,3.869,12.335,2.75,8.02,6.16,15.782,9.218,23.682,2.774,7.163,2.727,8.92,9.726,8.482,7.895-.5,19.6-3.6,27.413-4.779.2-.031.406-.059.608-.088,1.389-.428,2.778-.854,4.164-1.29-1.02.138-2.035.279-3.035.437C295.25,346,287.535,347.219,279.792,348.213Z" transform="translate(-230.878 -274.864)" fill="#50a46e"/>
        <path id="Trazado_1053102" data-name="Trazado 1053102" d="M500.614,270.2c-.226-1.378-.369-3.248-2.953-3.757-3.888-.766-10.092-.255-14.23.558-3.6.708-6.583,3.141-3.476,6.306,2.032,2.07,5.181,1.9,7.887,1.908a50.062,50.062,0,0,0,9.488-.567c2.438-.487,3.7-1.949,3.286-4.447Z" transform="translate(-434.258 -246.621)" fill="#d7e338"/>
        <path id="Trazado_1053103" data-name="Trazado 1053103" d="M414.418,754.4c-6.795,2.02-13.63,3.916-20.439,5.883q-7.759,2.242-15.514,4.5c-2.256.658-4.68,1.161-6.89,2.007a2.636,2.636,0,0,0,.152,1.875C374,768.206,414.344,754.863,414.418,754.4Z" transform="translate(-339.278 -679.358)" fill="#d5d5d5"/>
        <path id="Trazado_1053104" data-name="Trazado 1053104" d="M420.293,774.031c-6.8,1.81-13.517,4.136-20.241,6.154q-7.688,2.309-15.378,4.607c-2.1.626-4.272,1.492-6.44,1.963a4.357,4.357,0,0,0,1.11.788C379.931,787.5,420.31,774.4,420.293,774.031Z" transform="translate(-345.269 -696.757)" fill="#d5d5d5"/>
        <path id="Trazado_1053105" data-name="Trazado 1053105" d="M377.041,745.633a8.207,8.207,0,0,0-1.317,1.8c2.046-.719,42.93-13.284,43.135-13.768-13.83,4.344-28.008,7.575-41.819,11.965Z" transform="translate(-343.046 -660.99)" fill="#d5d5d5"/>
        <path id="Trazado_1053106" data-name="Trazado 1053106" d="M418.924,718.14q-6.935,2.1-13.876,4.181a25.263,25.263,0,0,0-3.927,1.2,9.437,9.437,0,0,0-1.5.954c13.527-4.206,41.544-12.746,41.96-13.255C434.056,713.607,426.481,715.854,418.924,718.14Z" transform="translate(-364.225 -641.098)" fill="#d5d5d5"/>
        <path id="Trazado_1053107" data-name="Trazado 1053107" d="M498.806,667.76c-7.678.963-15.346,2.019-23.018,3.032q-7.251.958-14.5,1.91c-1.991.26-4.03.663-6.044.809a2.391,2.391,0,0,0,1.451,1.687c.031,0,.06,0,.093,0C457.645,675.189,498.877,668.208,498.806,667.76Z" transform="translate(-413.51 -602.585)" fill="#d5d5d5"/>
        <path id="Trazado_1053108" data-name="Trazado 1053108" d="M509.53,617.369a125.23,125.23,0,0,0-16.2,2.583,23.676,23.676,0,0,0-2.79.848c7.2-1.147,40.761-5.578,41.044-5.934Q520.546,616.047,509.53,617.369Z" transform="translate(-444.787 -555.713)" fill="#d5d5d5"/>
        <path id="Trazado_1053109" data-name="Trazado 1053109" d="M487.2,634.275c-8.224.976-16.553,1.713-24.716,3.143a4.642,4.642,0,0,0-1.18,1.3c-.01.017-.019.036-.029.053,14.317-1.787,43.141-6.084,43.274-6.451C498.8,633.133,492.956,633.591,487.2,634.275Z" transform="translate(-418.86 -571.183)" fill="#d5d5d5"/>
        <path id="Trazado_1053110" data-name="Trazado 1053110" d="M454.9,654.618a4.962,4.962,0,0,0-.366,1.717c2.142-.147,43.552-6.634,43.6-7.077Q476.509,651.912,454.9,654.618Z" transform="translate(-412.88 -586.189)" fill="#d5d5d5"/>
        <path id="Trazado_1053111" data-name="Trazado 1053111" d="M194.118,396.366c-1.941-3.532-3.879-7.065-5.851-10.579-1.365-2.433-2.663-4.955-4.259-7.246-.034-.05-.13-.02-.1.044.988,2.439,2.333,4.737,3.553,7.064,1.906,3.635,3.9,7.227,5.873,10.824,2.915,5.305,5.655,10.836,9.112,15.819a.074.074,0,0,0,.127-.074C199.923,406.842,197,401.615,194.118,396.366Z" transform="translate(-173.06 -346.269)" fill="#68182b"/>
        <path id="Trazado_1053112" data-name="Trazado 1053112" d="M350.223,681.6a3.015,3.015,0,0,0-.49-.717.04.04,0,0,0-.065.017,1.08,1.08,0,0,0,.169.795,4.562,4.562,0,0,0,.3.492,1.814,1.814,0,0,0,.387.329.047.047,0,0,0,.079-.046,2.325,2.325,0,0,0-.083-.371A4.258,4.258,0,0,0,350.223,681.6Z" transform="translate(-319.931 -614.201)" fill="#68182b"/>
        <path id="Trazado_1053113" data-name="Trazado 1053113" d="M358.485,269.811a50.4,50.4,0,0,0-2.7-6.17c-.014-.026-.06-.008-.049.021.848,2.048,1.505,4.2,2.251,6.288q1.981,5.543,3.972,11.083c2.231,6.195,4.5,12.363,6.908,18.488.032.082.162.05.134-.037-1.978-6.266-4.118-12.461-6.362-18.638-1.342-3.693-2.707-7.38-4.149-11.035Z" transform="translate(-325.327 -244.462)" fill="#68182b"/>
        <path id="Trazado_1053114" data-name="Trazado 1053114" d="M581.081,207.064c1.295-.154,2.6-.2,3.879-.443a.076.076,0,0,0,0-.145,15.907,15.907,0,0,0-7.7.818.043.043,0,0,0,.011.085A20.957,20.957,0,0,0,581.081,207.064Z" transform="translate(-521.611 -193.648)" fill="#68182b"/>
        <path id="Trazado_1053115" data-name="Trazado 1053115" d="M650.186,206.432a.73.73,0,0,0,.613-.16.091.091,0,0,0,0-.127.891.891,0,0,0-1.162.1.057.057,0,0,0,.009.069A.849.849,0,0,0,650.186,206.432Z" transform="translate(-585.768 -193.373)" fill="#68182b"/>
        <path id="Trazado_1053116" data-name="Trazado 1053116" d="M661.422,590.63a56.169,56.169,0,0,0-9.17.759c-3.3.472-6.677.908-9.911,1.71a.039.039,0,0,0,.01.077,72.66,72.66,0,0,0,9.071-1.014c3.342-.456,6.688-.869,10.022-1.371C661.538,590.776,661.511,590.631,661.422,590.63Z" transform="translate(-579.284 -534.229)" fill="#68182b"/>
        <path id="Trazado_1053117" data-name="Trazado 1053117" d="M818.1,587.094c-.494.018-1.324-.137-1.695.292a.081.081,0,0,0,.016.125c.491.353,1.293.056,1.722-.257.064-.046.049-.164-.044-.16Z" transform="translate(-733.533 -531.091)" fill="#68182b"/>
      </g>
    </g>
  </g>
</svg>
