<svg xmlns="http://www.w3.org/2000/svg" xmlns:xlink="http://www.w3.org/1999/xlink" width="103" height="103" viewBox="0 0 103 103">
  <defs>
    <filter id="Trazado_978624" x="0" y="0" width="103" height="103" filterUnits="userSpaceOnUse">
      <feOffset dy="3" input="SourceAlpha"/>
      <feGaussianBlur stdDeviation="3" result="blur"/>
      <feFlood flood-opacity="0.161"/>
      <feComposite operator="in" in2="blur"/>
      <feComposite in="SourceGraphic"/>
    </filter>
  </defs>
  <g id="Grupo_1206189" data-name="Grupo 1206189" transform="translate(-191 -295)">
    <g id="Grupo_1182731" data-name="Grupo 1182731" transform="translate(0 -18)">
      <g id="Grupo_1179559" data-name="Grupo 1179559" transform="translate(200 319)">
        <g id="Grupo_1144531" data-name="Grupo 1144531">
          <g transform="matrix(1, 0, 0, 1, -9, -6)" filter="url(#Trazado_978624)">
            <g id="Trazado_978624-2" data-name="Trazado 978624" transform="translate(9 6)" fill="#f5fcec">
              <path d="M 42.5 83.5 C 36.96437835693359 83.5 31.59512901306152 82.41617584228516 26.54141235351562 80.27863311767578 C 21.65934181213379 78.21369171142578 17.27447128295898 75.25723266601562 13.50862312316895 71.49137878417969 C 9.742764472961426 67.72553253173828 6.786305904388428 63.34066009521484 4.721364498138428 58.45858764648438 C 2.583823442459106 53.40486907958984 1.5 48.03562164306641 1.5 42.5 C 1.5 36.96437835693359 2.583823442459106 31.59512901306152 4.721364498138428 26.54141235351562 C 6.786305904388428 21.65934181213379 9.742764472961426 17.27447128295898 13.50862312316895 13.50862312316895 C 17.27447128295898 9.742764472961426 21.65934181213379 6.786305904388428 26.54141235351562 4.721364498138428 C 31.59512901306152 2.583823442459106 36.96437835693359 1.5 42.5 1.5 C 48.03562164306641 1.5 53.40486907958984 2.583823442459106 58.45858764648438 4.721364498138428 C 63.34066009521484 6.786305904388428 67.72553253173828 9.742764472961426 71.49137878417969 13.50862312316895 C 75.25723266601562 17.27447128295898 78.21369171142578 21.65934181213379 80.27863311767578 26.54141235351562 C 82.41617584228516 31.59512901306152 83.5 36.96437835693359 83.5 42.5 C 83.5 48.03562164306641 82.41617584228516 53.40486907958984 80.27863311767578 58.45858764648438 C 78.21369171142578 63.34066009521484 75.25723266601562 67.72553253173828 71.49137878417969 71.49137878417969 C 67.72553253173828 75.25723266601562 63.34066009521484 78.21369171142578 58.45858764648438 80.27863311767578 C 53.40486907958984 82.41617584228516 48.03562164306641 83.5 42.5 83.5 Z" stroke="none"/>
              <path d="M 42.5 3 C 37.16621398925781 3 31.99356079101562 4.043960571289062 27.125732421875 6.102882385253906 C 22.42246627807617 8.092185974121094 18.19785308837891 10.94070434570312 14.56928253173828 14.56928253173828 C 10.94070434570312 18.19785308837891 8.092185974121094 22.42246627807617 6.102882385253906 27.125732421875 C 4.043960571289062 31.99356079101562 3 37.16621398925781 3 42.5 C 3 47.83378601074219 4.043960571289062 53.00643920898438 6.102882385253906 57.87425231933594 C 8.092185974121094 62.57753372192383 10.94070434570312 66.80213165283203 14.56928253173828 70.43071746826172 C 18.19786834716797 74.05929565429688 22.42246627807617 76.90781402587891 27.125732421875 78.89711761474609 C 31.99356079101562 80.95603942871094 37.16621398925781 82 42.5 82 C 47.83378601074219 82 53.00642395019531 80.95603942871094 57.87425231933594 78.89711761474609 C 62.57753372192383 76.90781402587891 66.80213165283203 74.05929565429688 70.43071746826172 70.43071746826172 C 74.05929565429688 66.80213165283203 76.90781402587891 62.57753372192383 78.89711761474609 57.87425231933594 C 80.95603942871094 53.00642395019531 82 47.83378601074219 82 42.5 C 82 37.16621398925781 80.95603942871094 31.99356079101562 78.89711761474609 27.125732421875 C 76.90781402587891 22.42246627807617 74.05929565429688 18.19786834716797 70.43071746826172 14.56928253173828 C 66.80213165283203 10.94070434570312 62.57753372192383 8.092185974121094 57.87425231933594 6.102882385253906 C 53.00643920898438 4.043960571289062 47.83378601074219 3 42.5 3 M 42.5 0 C 65.97209167480469 0 85 19.02789306640625 85 42.5 C 85 65.97209167480469 65.97209167480469 85 42.5 85 C 19.02789306640625 85 0 65.97209167480469 0 42.5 C 0 19.02789306640625 19.02789306640625 0 42.5 0 Z" stroke="none" fill="#5a812d"/>
            </g>
          </g>
        </g>
      </g>
    </g>
    <g id="nino_3_" data-name="nino (3)" transform="translate(184.115 312.868)">
      <g id="Grupo_1206187" data-name="Grupo 1206187" transform="translate(32.422 0.897)">
        <path id="Trazado_1052537" data-name="Trazado 1052537" d="M95.781,366.593S88.3,368.378,88.3,379.2h9.846V372.34Z" transform="translate(-82.403 -323.625)" fill="#475066"/>
        <path id="Trazado_1052538" data-name="Trazado 1052538" d="M343.509,365.348s7.756,1.934,7.756,12.754h-9.846V365.5Z" transform="translate(-305.235 -322.528)" fill="#475066"/>
        <path id="Trazado_1052539" data-name="Trazado 1052539" d="M47.582,32.439a24.939,24.939,0,0,1,49.878,0Z" transform="translate(-46.558 -7.5)" fill="#d3918a"/>
        <path id="Trazado_1052540" data-name="Trazado 1052540" d="M58.884,32.071c0-8.739,4.155-17.948,10.786-23.2A24.974,24.974,0,0,0,47.582,33.645H58.937C58.9,33.124,58.884,32.6,58.884,32.071Z" transform="translate(-46.558 -8.706)" fill="#cb827c"/>
        <circle id="Elipse_14255" data-name="Elipse 14255" cx="5.896" cy="5.896" r="5.896" transform="translate(40.134 19.175)" fill="#ffbe9c"/>
        <path id="Trazado_1052541" data-name="Trazado 1052541" d="M126.271,96.985a1.862,1.862,0,0,0-2.186-.494,6.341,6.341,0,0,1-2.639.563,6.079,6.079,0,0,1-3.887-1.342,1.877,1.877,0,0,0-2.4,0,6.3,6.3,0,0,1-7.773,0,1.877,1.877,0,0,0-2.4,0,6.079,6.079,0,0,1-3.886,1.342,6.342,6.342,0,0,1-2.638-.563,1.865,1.865,0,0,0-2.19.5,19.672,19.672,0,1,0,30,0Z" transform="translate(-85.309 -84.774)" fill="#ffd3bc"/>
        <path id="Trazado_1052542" data-name="Trazado 1052542" d="M64.176,137.078A23.971,23.971,0,0,1,51.351,115.85a30.923,30.923,0,0,1,2.184-11.212,6.162,6.162,0,0,1-1.359-.436,1.865,1.865,0,0,0-2.19.5,19.632,19.632,0,0,0-3.849,7.086A5.9,5.9,0,1,0,46.2,123.31,19.61,19.61,0,0,0,64.176,137.078Z" transform="translate(-39.025 -92.485)" fill="#ffbe9c"/>
        <ellipse id="Elipse_14256" data-name="Elipse 14256" cx="4.074" cy="3.244" rx="4.074" ry="3.244" transform="translate(10.848 27.075)" fill="#fd8b9b"/>
        <ellipse id="Elipse_14257" data-name="Elipse 14257" cx="4.074" cy="3.244" rx="4.074" ry="3.244" transform="translate(32.93 27.075)" fill="#fd8b9b"/>
        <ellipse id="Elipse_14258" data-name="Elipse 14258" cx="2.162" cy="2.42" rx="2.162" ry="2.42" transform="translate(23.8 25.407)" fill="#303646"/>
        <path id="Trazado_1052543" data-name="Trazado 1052543" d="M191.021,296.506v-1.286a2.446,2.446,0,0,0-3.283-2.3c-.949.345-2.194.8-3.838,1.39a9.452,9.452,0,0,1-6.434,0L173.859,293a2.446,2.446,0,0,0-3.28,2.3v7.8h20.442v-6.593Z" transform="translate(-154.837 -258.636)" fill="#ecebfd"/>
        <path id="Trazado_1052544" data-name="Trazado 1052544" d="M163.413,326.935a9.436,9.436,0,0,1-3.333-.564l-6.763-2.454a1.856,1.856,0,0,0-2.489,1.745v11.322a3.938,3.938,0,0,0,2.6,3.7l6.657,2.415a9.437,9.437,0,0,0,3.333.564l6.177-10.325Z" transform="translate(-137.45 -285.956)" fill="#7ce0fd"/>
        <path id="Trazado_1052545" data-name="Trazado 1052545" d="M265.866,323.917l-6.765,2.454a9.4,9.4,0,0,1-3.1.564v16.73a9.4,9.4,0,0,0,3.1-.564l6.658-2.415a3.938,3.938,0,0,0,2.6-3.7V325.661A1.856,1.856,0,0,0,265.866,323.917Z" transform="translate(-230.037 -285.955)" fill="#2ecdf9"/>
        <path id="Trazado_1052546" data-name="Trazado 1052546" d="M329.126,439.367h5.306a3.9,3.9,0,0,1,0,7.794h-5.306a3.9,3.9,0,1,1,0-7.794Z" transform="translate(-290.982 -387.691)" fill="#ffd3bc"/>
        <path id="Trazado_1052547" data-name="Trazado 1052547" d="M176.432,294.537l-2.572-.933a2.446,2.446,0,0,0-3.28,2.3v7.8h3.308C174.09,299.653,174.868,296.666,176.432,294.537Z" transform="translate(-154.838 -259.238)" fill="#d1d1fd"/>
        <path id="Trazado_1052548" data-name="Trazado 1052548" d="M156.446,332.708a29.793,29.793,0,0,1,.759-7.38l-3.888-1.411a1.856,1.856,0,0,0-2.489,1.745v11.322a3.938,3.938,0,0,0,2.6,3.7l6.657,2.415c.1.037.2.07.305.1A15.891,15.891,0,0,1,156.446,332.708Z" transform="translate(-137.45 -285.956)" fill="#2ecdf9"/>
        <path id="Trazado_1052549" data-name="Trazado 1052549" d="M86.5,439.367H81.191a3.9,3.9,0,1,0,0,7.794H86.5a3.9,3.9,0,0,0,0-7.794Z" transform="translate(-72.715 -387.691)" fill="#ffd3bc"/>
        <g id="Grupo_1206186" data-name="Grupo 1206186" transform="translate(4.579 51.786)">
          <path id="Trazado_1052550" data-name="Trazado 1052550" d="M87.575,445.372a7.782,7.782,0,0,1-7.3-5.09,3.9,3.9,0,0,0,.917,7.684H86.5a3.9,3.9,0,0,0,3.813-3.09,7.758,7.758,0,0,1-2.735.5Z" transform="translate(-77.294 -440.282)" fill="#ffbe9c"/>
          <path id="Trazado_1052551" data-name="Trazado 1052551" d="M335.509,445.372a7.782,7.782,0,0,1-7.3-5.09,3.9,3.9,0,0,0,.917,7.684h5.306a3.9,3.9,0,0,0,3.813-3.09A7.757,7.757,0,0,1,335.509,445.372Z" transform="translate(-295.561 -440.282)" fill="#ffbe9c"/>
        </g>
      </g>
      <g id="Grupo_1206188" data-name="Grupo 1206188" transform="translate(31.525 0)">
        <path id="Trazado_1052552" data-name="Trazado 1052552" d="M162.818,210.836a.9.9,0,0,0,.9-.9v-1.58a.9.9,0,0,0-1.795,0v1.58A.9.9,0,0,0,162.818,210.836Z" transform="translate(-146.318 -182.637)"/>
        <path id="Trazado_1052553" data-name="Trazado 1052553" d="M233.488,218.964a3.328,3.328,0,1,0-3.06-3.317A3.2,3.2,0,0,0,233.488,218.964Zm0-4.84a1.549,1.549,0,1,1-1.265,1.522A1.413,1.413,0,0,1,233.488,214.124Z" transform="translate(-206.628 -186.922)"/>
        <path id="Trazado_1052554" data-name="Trazado 1052554" d="M335.976,210.836a.9.9,0,0,0,.9-.9v-1.58a.9.9,0,1,0-1.795,0v1.58A.9.9,0,0,0,335.976,210.836Z" transform="translate(-298.756 -182.637)"/>
        <path id="Trazado_1052555" data-name="Trazado 1052555" d="M38.318,32.762a6.73,6.73,0,0,0,.674-.035A20.461,20.461,0,0,0,44.9,41.4V43.22A10.388,10.388,0,0,0,42.074,44.9a12.9,12.9,0,0,0-4.356,7.989A4.791,4.791,0,0,0,40.9,61.265H46.2a4.8,4.8,0,0,0,4.685-3.778l3.858,1.4a10.347,10.347,0,0,0,7.045,0l4.072-1.477a4.8,4.8,0,0,0,4.7,3.856h5.306a4.791,4.791,0,0,0,3.177-8.38,14.765,14.765,0,0,0-1.6-4.659.9.9,0,0,0-1.567.875,12.182,12.182,0,0,1,1.091,2.7,5.149,5.149,0,0,0-1.1-.126H71.637V45.119a8.31,8.31,0,0,1,2.214,1.419.9.9,0,0,0,1.2-1.336A10.144,10.144,0,0,0,71.637,43.2v-1.63a20.516,20.516,0,0,0,6.136-8.84,6.788,6.788,0,0,0,6.154-10.774A25.82,25.82,0,0,0,43.735,4.567a.9.9,0,0,0,1.02,1.477A24.051,24.051,0,0,1,81.709,20a6.8,6.8,0,0,0-3.849-.8,20.424,20.424,0,0,0-3.792-6.674,2.768,2.768,0,0,0-3.244-.729,5.44,5.44,0,0,1-5.577-.653,2.774,2.774,0,0,0-3.549,0,5.4,5.4,0,0,1-6.625,0,2.776,2.776,0,0,0-3.549,0,5.44,5.44,0,0,1-5.577.653,2.767,2.767,0,0,0-3.248.733A20.422,20.422,0,0,0,38.91,19.2a6.861,6.861,0,0,0-3.847.8A24.158,24.158,0,0,1,42.041,8.224a.9.9,0,1,0-1.222-1.315,25.908,25.908,0,0,0-7.975,15.043,6.789,6.789,0,0,0,5.475,10.81Zm40.057-11.79a5,5,0,1,1-.064,9.993,20.73,20.73,0,0,0,.064-9.993ZM44.9,45.171v6.505h-4a5.2,5.2,0,0,0-1.1.127A10,10,0,0,1,44.9,45.171Zm1.3,14.3H40.9a3,3,0,1,1,0-6H46.2A3,3,0,0,1,49.2,56.3v0A3,3,0,0,1,46.2,59.47Zm11.283-1.8a8.527,8.527,0,0,1-2.129-.475l-4.441-1.611A4.8,4.8,0,0,0,46.7,51.7V40.6a.96.96,0,0,1,1.284-.9h0l6.764,2.454a10.477,10.477,0,0,0,2.741.589Zm-2.13-17.206-6.3-2.284v-.621a1.547,1.547,0,0,1,2.077-1.456l3.609,1.309a10.337,10.337,0,0,0,7.044,0c1.644-.593,2.891-1.045,3.84-1.391a1.548,1.548,0,0,1,2.078,1.456V38.1L61.18,40.469A8.548,8.548,0,0,1,55.358,40.468ZM65.871,55.5,61.18,57.2a8.5,8.5,0,0,1-1.9.451V42.725a10.472,10.472,0,0,0,2.51-.569L68.557,39.7h0a.959.959,0,0,1,1.281.9V51.731A4.806,4.806,0,0,0,65.871,55.5Zm10-2.026a3,3,0,1,1,0,6H70.566a3,3,0,1,1,0-6Zm-31.8-39.779A.967.967,0,0,1,45.2,13.43a7.232,7.232,0,0,0,7.472-.905.979.979,0,0,1,1.253,0,7.193,7.193,0,0,0,8.921,0,.979.979,0,0,1,1.253,0,7.23,7.23,0,0,0,7.473.905.963.963,0,0,1,1.129.259A18.774,18.774,0,0,1,71.362,39.4,2.775,2.775,0,0,0,69.5,37.92v-.438a3.346,3.346,0,0,0-4.487-3.143c-.948.345-2.193.8-3.837,1.39a8.545,8.545,0,0,1-5.822,0l-3.608-1.309a3.346,3.346,0,0,0-4.484,3.144v.312a2.791,2.791,0,0,0-2.024,1.4,18.814,18.814,0,0,1-1.175-25.581ZM38.4,20.971a20.805,20.805,0,0,0,.06,9.993,5,5,0,1,1-.06-9.993Z" transform="translate(-31.525 0)"/>
      </g>
    </g>
  </g>
</svg>
