<svg xmlns="http://www.w3.org/2000/svg" xmlns:xlink="http://www.w3.org/1999/xlink" width="113" height="113" viewBox="0 0 113 113">
  <defs>
    <filter id="Trazado_982547" x="0" y="0" width="113" height="113" filterUnits="userSpaceOnUse">
      <feOffset dy="3" input="SourceAlpha"/>
      <feGaussianBlur stdDeviation="3" result="blur"/>
      <feFlood flood-opacity="0.161"/>
      <feComposite operator="in" in2="blur"/>
      <feComposite in="SourceGraphic"/>
    </filter>
  </defs>
  <g id="Grupo_1206427" data-name="Grupo 1206427" transform="translate(-587 -7245)">
    <g id="Grupo_1185084" data-name="Grupo 1185084" transform="translate(0 1906.386)">
      <g id="Grupo_1181936" data-name="Grupo 1181936" transform="translate(0 2335.614)">
        <g id="Grupo_1175140" data-name="Grupo 1175140" transform="translate(0.5 395.985)">
          <g id="Grupo_1173989" data-name="Grupo 1173989" transform="translate(595.5 2613.015)">
            <g id="Grupo_1172010" data-name="Grupo 1172010">
              <g id="Grupo_1171046" data-name="Grupo 1171046">
                <g id="Grupo_1148525" data-name="Grupo 1148525">
                  <g transform="matrix(1, 0, 0, 1, -9, -6)" filter="url(#Trazado_982547)">
                    <g id="Trazado_982547-2" data-name="Trazado 982547" transform="translate(9 6)" fill="#eaf9f8">
                      <path d="M 47.5 93.5 C 41.28937149047852 93.5 35.26533508300781 92.28397369384766 29.59518623352051 89.88570404052734 C 24.11771965026855 87.56893157958984 19.19813346862793 84.25196075439453 14.97309303283691 80.02691650390625 C 10.74804019927979 75.80186462402344 7.431066513061523 70.88229370117188 5.114293098449707 65.40481567382812 C 2.716026782989502 59.73468017578125 1.5 53.71062850952148 1.5 47.5 C 1.5 41.28937149047852 2.716026782989502 35.26533508300781 5.114293098449707 29.59518623352051 C 7.431066513061523 24.11771965026855 10.74804019927979 19.19813346862793 14.97309303283691 14.97309303283691 C 19.19813346862793 10.74804019927979 24.11771965026855 7.431066513061523 29.59518623352051 5.114293098449707 C 35.26533508300781 2.716026782989502 41.28937149047852 1.5 47.5 1.5 C 53.71062850952148 1.5 59.73468017578125 2.716026782989502 65.40481567382812 5.114293098449707 C 70.88229370117188 7.431066513061523 75.80186462402344 10.74804019927979 80.02691650390625 14.97309303283691 C 84.25196075439453 19.19813346862793 87.56893157958984 24.11771965026855 89.88570404052734 29.59518623352051 C 92.28397369384766 35.26533508300781 93.5 41.28937149047852 93.5 47.5 C 93.5 53.71062850952148 92.28397369384766 59.73468017578125 89.88570404052734 65.40481567382812 C 87.56893157958984 70.88229370117188 84.25196075439453 75.80186462402344 80.02691650390625 80.02691650390625 C 75.80186462402344 84.25196075439453 70.88229370117188 87.56893157958984 65.40481567382812 89.88570404052734 C 59.73468017578125 92.28397369384766 53.71062850952148 93.5 47.5 93.5 Z" stroke="none"/>
                      <path d="M 47.5 3 C 41.49121475219727 3 35.66376876831055 4.176155090332031 30.17950439453125 6.495796203613281 C 24.88084411621094 8.736953735351562 20.12152099609375 11.94598388671875 16.03375244140625 16.03375244140625 C 11.94598388671875 20.12152099609375 8.736953735351562 24.88084411621094 6.495796203613281 30.17950439453125 C 4.176155090332031 35.66376876831055 3 41.49121475219727 3 47.5 C 3 53.50878524780273 4.176155090332031 59.33623123168945 6.495796203613281 64.82049560546875 C 8.736953735351562 70.11915588378906 11.94598388671875 74.87847900390625 16.03375244140625 78.96624755859375 C 20.12152099609375 83.05401611328125 24.88084411621094 86.26304626464844 30.17950439453125 88.50419616699219 C 35.66376876831055 90.82384490966797 41.49121475219727 92 47.5 92 C 53.50878524780273 92 59.33623123168945 90.82384490966797 64.82049560546875 88.50419616699219 C 70.11915588378906 86.26304626464844 74.87847900390625 83.05401611328125 78.96624755859375 78.96624755859375 C 83.05401611328125 74.87847900390625 86.26304626464844 70.11915588378906 88.50419616699219 64.82049560546875 C 90.82384490966797 59.33623123168945 92 53.50878524780273 92 47.5 C 92 41.49121475219727 90.82384490966797 35.66376876831055 88.50419616699219 30.17950439453125 C 86.26304626464844 24.88084411621094 83.05401611328125 20.12152099609375 78.96624755859375 16.03375244140625 C 74.87847900390625 11.94598388671875 70.11915588378906 8.736953735351562 64.82049560546875 6.495796203613281 C 59.33623123168945 4.176155090332031 53.50878524780273 3 47.5 3 M 47.5 0 C 73.7335205078125 0 95 21.2664794921875 95 47.5 C 95 73.7335205078125 73.7335205078125 95 47.5 95 C 21.2664794921875 95 0 73.7335205078125 0 47.5 C 0 21.2664794921875 21.2664794921875 0 47.5 0 Z" stroke="none" fill="#1f7069"/>
                    </g>
                  </g>
                </g>
              </g>
            </g>
          </g>
        </g>
      </g>
    </g>
    <g id="chat_2_" data-name="chat (2)" transform="translate(613 7268)">
      <path id="Trazado_1075187" data-name="Trazado 1075187" d="M271.608,36.137c-8.09,0-14.647,4.276-14.647,12.526a14.649,14.649,0,1,0,29.293,0C286.253,40.413,279.7,36.137,271.608,36.137Zm0,0" transform="translate(-225.993 -31.782)" fill="#fbc4ac"/>
      <path id="Trazado_1075188" data-name="Trazado 1075188" d="M259.857,31.073a14.83,14.83,0,0,1,13.2-14.864q-.713-.071-1.446-.072a14.939,14.939,0,0,0,0,29.872q.732,0,1.446-.072a14.829,14.829,0,0,1-13.2-14.864Zm0,0" transform="translate(-225.997 -14.192)" fill="#e3b098"/>
      <path id="Trazado_1075189" data-name="Trazado 1075189" d="M430.17,171.382H428.1a.9.9,0,0,1,0-1.808h2.068a.9.9,0,1,1,0,1.808Zm0,0" transform="translate(-375.715 -149.138)" fill="#f98084"/>
      <path id="Trazado_1075190" data-name="Trazado 1075190" d="M300.6,171.382h-2.068a.9.9,0,0,1,0-1.808H300.6a.9.9,0,1,1,0,1.808Zm0,0" transform="translate(-261.764 -149.138)" fill="#f98084"/>
      <path id="Trazado_1075191" data-name="Trazado 1075191" d="M285.553,18.9C284.547,6.66,279.609,8.545,271.608,8.545c-6.049,0-8.954-.605-10.192-.991a1.06,1.06,0,0,0-1.263.53c-.988,1.939-3.192,7.184-3.192,15.4,0,0,3.5-6.308,14.647-6.308,5.184,0,4.75,1.731,13.945,1.731Zm0,0" transform="translate(-225.993 -6.601)" fill="#c86d5c"/>
      <path id="Trazado_1075192" data-name="Trazado 1075192" d="M263.045,8.084a1.074,1.074,0,0,1,.078-.127,14.626,14.626,0,0,1-1.707-.4,1.06,1.06,0,0,0-1.263.53c-.988,1.939-3.192,7.184-3.192,15.4a10.614,10.614,0,0,1,3-3.05,32.488,32.488,0,0,1,3.087-12.348Zm0,0" transform="translate(-225.993 -6.601)" fill="#ad4f3d"/>
      <path id="Trazado_1075193" data-name="Trazado 1075193" d="M7.59,375.762v9.628a4.708,4.708,0,0,0,4.188,4.679l6.921.77Zm0,0" transform="translate(-6.675 -330.478)" fill="#3a484a"/>
      <path id="Trazado_1075194" data-name="Trazado 1075194" d="M169.406,375.762v9.628a4.708,4.708,0,0,1-4.188,4.679l-6.921.77Zm0,0" transform="translate(-139.22 -330.478)" fill="#3a484a"/>
      <path id="Trazado_1075195" data-name="Trazado 1075195" d="M36.783,293.238h0l-14.96-11.31L7.513,293.239h0c-.007.193-.011.385-.011.578a14.793,14.793,0,0,0,14.646,14.937,14.793,14.793,0,0,0,14.646-14.937c0-.193,0-.386-.01-.578Zm0,0" transform="translate(-6.597 -247.954)" fill="#fbc4ac"/>
      <path id="Trazado_1075196" data-name="Trazado 1075196" d="M9.934,371.813a15.216,15.216,0,0,1-2.422.477h0c-.007.192-.011.384-.011.578A14.793,14.793,0,0,0,22.146,387.8c.418,0,.831-.019,1.24-.054-7.273-.665-13.05-7.472-13.453-15.936Zm0,0" transform="translate(-6.596 -327.005)" fill="#e3b098"/>
      <path id="Trazado_1075197" data-name="Trazado 1075197" d="M51.143,411.867H49.076a.9.9,0,0,1,0-1.808h2.068a.9.9,0,0,1,0,1.808Zm0,0" transform="translate(-42.366 -360.642)" fill="#f98084"/>
      <path id="Trazado_1075198" data-name="Trazado 1075198" d="M180.71,411.867h-2.068a.9.9,0,0,1,0-1.808h2.068a.9.9,0,0,1,0,1.808Zm0,0" transform="translate(-156.319 -360.642)" fill="#f98084"/>
      <path id="Trazado_1075199" data-name="Trazado 1075199" d="M7.59,270.983h0c7.86-.87,14.634-8.462,14.634-8.462S29,270.115,36.86,270.984h0a14.78,14.78,0,0,0-14.636-14.358A14.779,14.779,0,0,0,7.59,270.983Zm0,0" transform="translate(-6.675 -225.698)" fill="#3a484a"/>
      <path id="Trazado_1075200" data-name="Trazado 1075200" d="M23.491,256.681c-.417-.036-.839-.056-1.265-.056A14.78,14.78,0,0,0,7.59,270.983h0a13.669,13.669,0,0,0,2.422-.477,14.965,14.965,0,0,1,13.478-13.826Zm0,0" transform="translate(-6.675 -225.699)" fill="#323e40"/>
      <path id="Trazado_1075201" data-name="Trazado 1075201" d="M31.217,67.938V58.91a5.84,5.84,0,0,0-5.84-5.84H13.34A5.84,5.84,0,0,0,7.5,58.91v8.25A5.84,5.84,0,0,0,13.34,73H34.014Zm0,0" transform="translate(-6.596 -46.675)" fill="#58b78c"/>
      <path id="Trazado_1075202" data-name="Trazado 1075202" d="M282.816,312.743v-9.029a5.84,5.84,0,0,1,5.84-5.84h12.037a5.84,5.84,0,0,1,5.84,5.84v8.25a5.84,5.84,0,0,1-5.84,5.84H280.019Zm0,0" transform="translate(-246.273 -261.977)" fill="#f2c42c"/>
      <path id="Trazado_1075203" data-name="Trazado 1075203" d="M436.681,141.795a.9.9,0,0,0,.9-.9v-1.518a.9.9,0,1,0-1.808,0v1.518A.9.9,0,0,0,436.681,141.795Zm0,0" transform="translate(-383.26 -121.782)"/>
      <path id="Trazado_1075204" data-name="Trazado 1075204" d="M307.111,141.795a.9.9,0,0,0,.9-.9v-1.518a.9.9,0,1,0-1.808,0v1.518A.9.9,0,0,0,307.111,141.795Zm0,0" transform="translate(-269.305 -121.782)"/>
      <path id="Trazado_1075205" data-name="Trazado 1075205" d="M363.7,163.964a.9.9,0,0,0-1.275.086.984.984,0,0,1-1.432,0,.9.9,0,0,0-1.361,1.19,2.791,2.791,0,0,0,4.154,0,.9.9,0,0,0-.086-1.276Zm0,0" transform="translate(-316.093 -144.008)"/>
      <path id="Trazado_1075206" data-name="Trazado 1075206" d="M57.654,382.275a.9.9,0,0,0,.9-.9v-1.518a.9.9,0,1,0-1.808,0v1.518A.9.9,0,0,0,57.654,382.275Zm0,0" transform="translate(-49.911 -333.281)"/>
      <path id="Trazado_1075207" data-name="Trazado 1075207" d="M187.22,382.275a.9.9,0,0,0,.9-.9v-1.518a.9.9,0,1,0-1.808,0v1.518A.9.9,0,0,0,187.22,382.275Zm0,0" transform="translate(-163.862 -333.281)"/>
      <path id="Trazado_1075208" data-name="Trazado 1075208" d="M111.53,404.533a.9.9,0,0,0-1.361,1.19,2.79,2.79,0,0,0,4.154,0,.9.9,0,0,0-1.361-1.19.984.984,0,0,1-1.432,0Zm0,0" transform="translate(-96.696 -355.509)"/>
      <path id="Trazado_1075209" data-name="Trazado 1075209" d="M6.744,67.312H27.418a.913.913,0,0,0,.791-1.341l-2.684-4.857v-8.8a6.751,6.751,0,0,0-6.744-6.744H6.744A6.751,6.751,0,0,0,0,52.318v8.25a6.752,6.752,0,0,0,6.744,6.744ZM1.808,52.318a4.941,4.941,0,0,1,4.936-4.936H18.781a4.941,4.941,0,0,1,4.936,4.936v9.028a.9.9,0,0,0,.113.437L25.886,65.5H6.744a4.942,4.942,0,0,1-4.936-4.936Zm0,0" transform="translate(0 -40.082)"/>
      <path id="Trazado_1075210" data-name="Trazado 1075210" d="M46.994,95.839H59.6a.9.9,0,0,0,0-1.808H46.994a.9.9,0,0,0,0,1.808Zm0,0" transform="translate(-40.535 -82.699)"/>
      <path id="Trazado_1075211" data-name="Trazado 1075211" d="M46.994,130.07H59.6a.9.9,0,0,0,0-1.808H46.994a.9.9,0,0,0,0,1.808Zm0,0" transform="translate(-40.535 -112.805)"/>
      <path id="Trazado_1075212" data-name="Trazado 1075212" d="M46.994,164.3h7.863a.9.9,0,1,0,0-1.808H46.994a.9.9,0,1,0,0,1.808Zm0,0" transform="translate(-40.535 -142.91)"/>
      <path id="Trazado_1075213" data-name="Trazado 1075213" d="M273.448,312.113h20.674a6.751,6.751,0,0,0,6.744-6.744v-8.25a6.751,6.751,0,0,0-6.744-6.744H282.084a6.752,6.752,0,0,0-6.744,6.744v8.8l-2.684,4.858a.913.913,0,0,0,.791,1.341Zm3.588-5.528a.905.905,0,0,0,.113-.437v-9.028a4.941,4.941,0,0,1,4.936-4.936h12.037a4.941,4.941,0,0,1,4.936,4.936v8.25a4.942,4.942,0,0,1-4.936,4.936H274.98Zm0,0" transform="translate(-239.701 -255.381)"/>
      <path id="Trazado_1075214" data-name="Trazado 1075214" d="M342.72,340.644h12.608a.9.9,0,1,0,0-1.808H342.72a.9.9,0,0,0,0,1.808Zm0,0" transform="translate(-300.622 -298.002)"/>
      <path id="Trazado_1075215" data-name="Trazado 1075215" d="M356.233,373.967a.9.9,0,0,0-.9-.9H342.721a.9.9,0,0,0,0,1.808h12.608A.9.9,0,0,0,356.233,373.967Zm0,0" transform="translate(-300.623 -328.104)"/>
      <path id="Trazado_1075216" data-name="Trazado 1075216" d="M390.862,408.2a.9.9,0,0,0-.9-.9H382.1a.9.9,0,0,0,0,1.808h7.863a.9.9,0,0,0,.9-.9Zm0,0" transform="translate(-335.253 -358.209)"/>
      <path id="Trazado_1075217" data-name="Trazado 1075217" d="M265.011,32.721a15.715,15.715,0,0,0,15.55-15.84,16.109,16.109,0,0,0-.712-4.742C279.4,6.846,278.2,3.8,275.954,2.255,273.834.8,271.044.886,267.812.985c-.9.027-1.825.056-2.8.056-5.982,0-8.784-.6-9.922-.951a1.961,1.961,0,0,0-2.338.983,27.437,27.437,0,0,0-1.98,5.319.9.9,0,0,0,1.746.468,25.629,25.629,0,0,1,1.844-4.966.155.155,0,0,1,.188-.078c1.51.471,4.55,1.032,10.461,1.032,1,0,1.946-.029,2.857-.056,3.035-.093,5.431-.166,7.064.954s2.591,3.552,3.03,7.647a37.419,37.419,0,0,1-4.075-.237,28.837,28.837,0,0,1-3.87-.773,16.827,16.827,0,0,0-5.006-.713,25.658,25.658,0,0,0-6.2.721,18.266,18.266,0,0,0-4.949,2.018,14.713,14.713,0,0,0-2.492,1.87l-.031.029a39.689,39.689,0,0,1,.441-4.018A.9.9,0,0,0,250,10a43.028,43.028,0,0,0-.54,6.884,15.715,15.715,0,0,0,15.551,15.84Zm0-1.808a13.9,13.9,0,0,1-13.74-13.776c0-.008.02-.029.024-.036a11.012,11.012,0,0,1,3.295-3,19.708,19.708,0,0,1,12.262-2.529c2.026.224,3.959.969,5.976,1.267a39.343,39.343,0,0,0,5.294.367l.154,0a14.33,14.33,0,0,1,.477,3.677,13.906,13.906,0,0,1-13.742,14.032Zm0,0" transform="translate(-219.397 0)"/>
      <path id="Trazado_1075218" data-name="Trazado 1075218" d="M.015,274.015a5.606,5.606,0,0,0,4.992,5.578l6.874.764a15.295,15.295,0,0,0,7.347,0l6.874-.764a5.606,5.606,0,0,0,4.992-5.578v-8.494c0-.39.014-.778,0-1.168a15.887,15.887,0,0,0-4.736-10.782,15.364,15.364,0,0,0-23.142,1.755.9.9,0,0,0,1.443,1.088,13.556,13.556,0,0,1,20.43-1.554,14.064,14.064,0,0,1,4.115,8.465q-.333-.064-.661-.145a21.945,21.945,0,0,1-7.3-3.517l-.007,0a34.481,34.481,0,0,1-3.96-3.273c-.292-.281-.579-.566-.858-.86a1.449,1.449,0,0,0-.58-.458.883.883,0,0,0-.563,0,1.806,1.806,0,0,0-.661.543c-.553.578-1.134,1.129-1.731,1.659a34.36,34.36,0,0,1-3.033,2.411,21.025,21.025,0,0,1-7.943,3.643,14.123,14.123,0,0,1,1.055-3.982.9.9,0,1,0-1.661-.713,15.972,15.972,0,0,0-1.284,5.724c-.015.389-.014.779,0,1.168Zm6.654,3.944L5.207,277.8a3.8,3.8,0,0,1-3.384-3.781V272.41A16,16,0,0,0,3.526,275a15.7,15.7,0,0,0,2.926,2.8c.045.033.189.14.217.159Zm22.617-3.944A3.8,3.8,0,0,1,25.9,277.8l-1.462.162.219-.161A15.687,15.687,0,0,0,27.583,275a15.986,15.986,0,0,0,1.7-2.593ZM15.744,257.427a29.624,29.624,0,0,0,10.068,6.789,17.866,17.866,0,0,0,3.483.961c0,.1,0,.194-.008.29a.064.064,0,0,1,0,.009A14.177,14.177,0,0,1,24.3,275.784l-.014.011a13.495,13.495,0,0,1-17.47-.012,14.178,14.178,0,0,1-4.99-10.307.053.053,0,0,1,0-.009c0-.1-.006-.194-.008-.29.083-.014.165-.031.248-.046a19,19,0,0,0,2.533-.662,24.328,24.328,0,0,0,6.211-3.238l.005,0a34.049,34.049,0,0,0,4.743-3.99l.19.189Zm0,0" transform="translate(-0.004 -219.102)"/>
    </g>
  </g>
</svg>
