<svg xmlns="http://www.w3.org/2000/svg" xmlns:xlink="http://www.w3.org/1999/xlink" width="113" height="113" viewBox="0 0 113 113">
  <defs>
    <filter id="Trazado_982547" x="0" y="0" width="113" height="113" filterUnits="userSpaceOnUse">
      <feOffset dy="3" input="SourceAlpha"/>
      <feGaussianBlur stdDeviation="3" result="blur"/>
      <feFlood flood-opacity="0.161"/>
      <feComposite operator="in" in2="blur"/>
      <feComposite in="SourceGraphic"/>
    </filter>
  </defs>
  <g id="Grupo_1206432" data-name="Grupo 1206432" transform="translate(-901 -7244.852)">
    <g id="Grupo_1185085" data-name="Grupo 1185085" transform="translate(0 1906.237)">
      <g id="Grupo_1181937" data-name="Grupo 1181937" transform="translate(0 2335.614)">
        <g id="Grupo_1175138" data-name="Grupo 1175138" transform="translate(910 3009)">
          <g id="Grupo_1172010" data-name="Grupo 1172010">
            <g id="Grupo_1171046" data-name="Grupo 1171046">
              <g id="Grupo_1148525" data-name="Grupo 1148525">
                <g transform="matrix(1, 0, 0, 1, -9, -6)" filter="url(#Trazado_982547)">
                  <g id="Trazado_982547-2" data-name="Trazado 982547" transform="translate(9 6)" fill="#eaf9f8">
                    <path d="M 47.5 93.5 C 41.28937149047852 93.5 35.26533508300781 92.28397369384766 29.59518623352051 89.88570404052734 C 24.11771965026855 87.56893157958984 19.19813346862793 84.25196075439453 14.97309303283691 80.02691650390625 C 10.74804019927979 75.80186462402344 7.431066513061523 70.88229370117188 5.114293098449707 65.40481567382812 C 2.716026782989502 59.73468017578125 1.5 53.71062850952148 1.5 47.5 C 1.5 41.28937149047852 2.716026782989502 35.26533508300781 5.114293098449707 29.59518623352051 C 7.431066513061523 24.11771965026855 10.74804019927979 19.19813346862793 14.97309303283691 14.97309303283691 C 19.19813346862793 10.74804019927979 24.11771965026855 7.431066513061523 29.59518623352051 5.114293098449707 C 35.26533508300781 2.716026782989502 41.28937149047852 1.5 47.5 1.5 C 53.71062850952148 1.5 59.73468017578125 2.716026782989502 65.40481567382812 5.114293098449707 C 70.88229370117188 7.431066513061523 75.80186462402344 10.74804019927979 80.02691650390625 14.97309303283691 C 84.25196075439453 19.19813346862793 87.56893157958984 24.11771965026855 89.88570404052734 29.59518623352051 C 92.28397369384766 35.26533508300781 93.5 41.28937149047852 93.5 47.5 C 93.5 53.71062850952148 92.28397369384766 59.73468017578125 89.88570404052734 65.40481567382812 C 87.56893157958984 70.88229370117188 84.25196075439453 75.80186462402344 80.02691650390625 80.02691650390625 C 75.80186462402344 84.25196075439453 70.88229370117188 87.56893157958984 65.40481567382812 89.88570404052734 C 59.73468017578125 92.28397369384766 53.71062850952148 93.5 47.5 93.5 Z" stroke="none"/>
                    <path d="M 47.5 3 C 41.49121475219727 3 35.66376876831055 4.176155090332031 30.17950439453125 6.495796203613281 C 24.88084411621094 8.736953735351562 20.12152099609375 11.94598388671875 16.03375244140625 16.03375244140625 C 11.94598388671875 20.12152099609375 8.736953735351562 24.88084411621094 6.495796203613281 30.17950439453125 C 4.176155090332031 35.66376876831055 3 41.49121475219727 3 47.5 C 3 53.50878524780273 4.176155090332031 59.33623123168945 6.495796203613281 64.82049560546875 C 8.736953735351562 70.11915588378906 11.94598388671875 74.87847900390625 16.03375244140625 78.96624755859375 C 20.12152099609375 83.05401611328125 24.88084411621094 86.26304626464844 30.17950439453125 88.50419616699219 C 35.66376876831055 90.82384490966797 41.49121475219727 92 47.5 92 C 53.50878524780273 92 59.33623123168945 90.82384490966797 64.82049560546875 88.50419616699219 C 70.11915588378906 86.26304626464844 74.87847900390625 83.05401611328125 78.96624755859375 78.96624755859375 C 83.05401611328125 74.87847900390625 86.26304626464844 70.11915588378906 88.50419616699219 64.82049560546875 C 90.82384490966797 59.33623123168945 92 53.50878524780273 92 47.5 C 92 41.49121475219727 90.82384490966797 35.66376876831055 88.50419616699219 30.17950439453125 C 86.26304626464844 24.88084411621094 83.05401611328125 20.12152099609375 78.96624755859375 16.03375244140625 C 74.87847900390625 11.94598388671875 70.11915588378906 8.736953735351562 64.82049560546875 6.495796203613281 C 59.33623123168945 4.176155090332031 53.50878524780273 3 47.5 3 M 47.5 0 C 73.7335205078125 0 95 21.2664794921875 95 47.5 C 95 73.7335205078125 73.7335205078125 95 47.5 95 C 21.2664794921875 95 0 73.7335205078125 0 47.5 C 0 21.2664794921875 21.2664794921875 0 47.5 0 Z" stroke="none" fill="#1f7069"/>
                  </g>
                </g>
              </g>
            </g>
          </g>
        </g>
      </g>
    </g>
    <g id="maestro_1_" data-name="maestro (1)" transform="translate(926.186 7267.671)">
      <g id="Grupo_1206430" data-name="Grupo 1206430" transform="translate(1.618 0.899)">
        <path id="Trazado_1075219" data-name="Trazado 1075219" d="M168.2,123.793h32.478a4.117,4.117,0,0,0,4.117-4.117V82.851a4.117,4.117,0,0,0-4.117-4.117H168.2a4.117,4.117,0,0,0-4.117,4.117v36.826A4.117,4.117,0,0,0,168.2,123.793Z" transform="translate(-145.404 -70.197)" fill="#e49280"/>
        <path id="Trazado_1075220" data-name="Trazado 1075220" d="M0,0H36.434V37.01H0Z" transform="translate(18.186 49.284) rotate(-90)" fill="#97da7b"/>
        <g id="Grupo_1206429" data-name="Grupo 1206429">
          <path id="Trazado_1075221" data-name="Trazado 1075221" d="M79.883,366.133H77.12A10.122,10.122,0,0,0,67,376.255v5.664a.8.8,0,0,0,.8.8H89.207a.8.8,0,0,0,.8-.8v-5.664A10.122,10.122,0,0,0,79.883,366.133Z" transform="translate(-59.954 -323.152)" fill="#2ed1e2"/>
          <path id="Trazado_1075222" data-name="Trazado 1075222" d="M81.649,366.288a10.125,10.125,0,0,0-8.356,9.968v6.461H67.8a.8.8,0,0,1-.8-.8v-5.664A10.122,10.122,0,0,1,77.12,366.134h2.763a10.191,10.191,0,0,1,1.766.154Z" transform="translate(-59.954 -323.153)" fill="#02c7dd"/>
          <path id="Trazado_1075223" data-name="Trazado 1075223" d="M131.142,373.127a4.61,4.61,0,0,0,7.632,0l-3.816-6.994Z" transform="translate(-116.41 -323.152)" fill="#cbe5e8"/>
          <path id="Trazado_1075224" data-name="Trazado 1075224" d="M65.707,31.437v-8.6a15.333,15.333,0,0,0-30.666,0v8.6Z" transform="translate(-31.826 -7.5)" fill="#596c76"/>
          <path id="Trazado_1075225" data-name="Trazado 1075225" d="M54.982,8.2A15.347,15.347,0,0,0,44.256,22.833v8.6H35.041v-8.6A15.347,15.347,0,0,1,54.982,8.2Z" transform="translate(-31.826 -7.5)" fill="#465a61"/>
          <path id="Trazado_1075226" data-name="Trazado 1075226" d="M38.989,176.558a4.331,4.331,0,0,1,6.155,5.048c-.665,2.3-3.465,5-5.763,4.337a2.571,2.571,0,0,1-.5-.2H14.648a2.563,2.563,0,0,1-.5.2c-2.3.665-5.1-2.04-5.762-4.337a4.33,4.33,0,0,1,6.154-5.048Z" transform="translate(-8.219 -155.868)" fill="#ffcebf"/>
          <path id="Trazado_1075227" data-name="Trazado 1075227" d="M121.018,366.133l1.591.354a2,2,0,0,1,1.523,2.343l-.742,3.677a.984.984,0,0,1-1.517.62l-3.819-2.585-3.819,2.585a.984.984,0,0,1-1.517-.62l-.742-3.677a2,2,0,0,1,1.523-2.343l1.591-.354Z" transform="translate(-99.507 -323.152)" fill="#deecf1"/>
          <path id="Trazado_1075228" data-name="Trazado 1075228" d="M144.183,312.72v6.4l-2.963,4.409-.757-1.126-2.206-3.283v-6.4Z" transform="translate(-122.672 -276.141)" fill="#ffdfcf"/>
          <path id="Trazado_1075229" data-name="Trazado 1075229" d="M85.449,140.2V150.5a12.221,12.221,0,1,1-24.443,0V140.2q0-.536.047-1.062a5.173,5.173,0,0,0,7.75-1.28,5.174,5.174,0,0,0,8.848,0,5.173,5.173,0,0,0,7.75,1.28Q85.449,139.663,85.449,140.2Z" transform="translate(-54.68 -122.235)" fill="#ffdfcf"/>
          <g id="Grupo_1206428" data-name="Grupo 1206428" transform="translate(6.326 16.902)">
            <path id="Trazado_1075230" data-name="Trazado 1075230" d="M76.242,171.749A12.233,12.233,0,0,1,61.007,159.9V149.6q0-.536.047-1.062a5.171,5.171,0,0,0,5.995.47c-.01.2-.015.393-.015.592V159.9A12.225,12.225,0,0,0,76.242,171.749Z" transform="translate(-61.007 -148.534)" fill="#ffcebf"/>
            <path id="Trazado_1075231" data-name="Trazado 1075231" d="M140.462,327.37v7.053l-2.206-3.283v-4.765Z" transform="translate(-128.998 -305.061)" fill="#ffcebf"/>
          </g>
        </g>
        <path id="Trazado_1075232" data-name="Trazado 1075232" d="M245.933,444.43h-1.105a3.047,3.047,0,0,0-3.047,3.047v1.105a3.047,3.047,0,0,0,3.047,3.047h1.105a3.047,3.047,0,0,0,3.047-3.047v-1.105A3.047,3.047,0,0,0,245.933,444.43Z" transform="translate(-213.79 -392.066)" fill="#ffdfcf"/>
        <path id="Trazado_1075233" data-name="Trazado 1075233" d="M246.7,451.528a3.051,3.051,0,0,1-.767.1h-1.1a3.047,3.047,0,0,1-3.048-3.046v-1.106a3.047,3.047,0,0,1,3.048-3.047h1.1a3.051,3.051,0,0,1,.767.1,3.048,3.048,0,0,0-2.279,2.949v1.106a3.048,3.048,0,0,0,2.279,2.949Z" transform="translate(-213.79 -392.062)" fill="#ffcebf"/>
      </g>
      <g id="Grupo_1206431" data-name="Grupo 1206431" transform="translate(0.719)">
        <path id="Trazado_1075234" data-name="Trazado 1075234" d="M56.892,8.537H34.454A16.23,16.23,0,0,0,10.36,3.3a.9.9,0,1,0,1.087,1.432A14.3,14.3,0,0,1,20.166,1.8,14.451,14.451,0,0,1,34.6,16.232v3.975a5.19,5.19,0,0,0-1.314.113V18.863c0-.387-.017-.771-.05-1.142a.9.9,0,0,0-1.474-.608,4.274,4.274,0,0,1-6.4-1.058.9.9,0,0,0-.768-.432h0a.9.9,0,0,0-.768.432,4.275,4.275,0,0,1-7.312,0,.9.9,0,0,0-.768-.432h0a.9.9,0,0,0-.768.432,4.274,4.274,0,0,1-6.4,1.058.9.9,0,0,0-1.474.608c-.033.37-.05.755-.05,1.142V20.32a5.191,5.191,0,0,0-1.314-.113V16.232a14.3,14.3,0,0,1,2.93-8.718A.9.9,0,0,0,7.229,6.427a16.085,16.085,0,0,0-3.3,9.805v4.376A5.238,5.238,0,0,0,.925,26.887,7.959,7.959,0,0,0,3.487,30.61a5.331,5.331,0,0,0,3.322,1.366,3.644,3.644,0,0,0,.532-.04A13.168,13.168,0,0,0,16.3,41.708v1.45l-.888.2A2.86,2.86,0,0,0,14.144,44a11.041,11.041,0,0,0-6.38,10v5.664a1.7,1.7,0,0,0,1.7,1.7H21.884a.9.9,0,1,0,0-1.8H9.562V54a9.244,9.244,0,0,1,3.63-7.333c0,.029.009.058.015.087l.742,3.677a1.873,1.873,0,0,0,2.082,1.495,5.507,5.507,0,0,0,8.269,0,1.882,1.882,0,0,0,2.082-1.5l.742-3.677c.006-.03.011-.061.016-.091a9.173,9.173,0,0,1,3.563,6.22,3.947,3.947,0,0,0-1.993,3.426v1.105a3.922,3.922,0,0,0,.639,2.148h-3.27a.9.9,0,1,0,0,1.8h7.683a3.95,3.95,0,0,0,3.946-3.946V56.31a3.94,3.94,0,0,0-.108-.916H56.892a5.021,5.021,0,0,0,5.016-5.016V13.552a5.021,5.021,0,0,0-5.016-5.016Zm-21.557,13.6a3.437,3.437,0,0,1,2.344,4.25A6.192,6.192,0,0,1,35.7,29.222a3.341,3.341,0,0,1-2.454.934c.016-.208.037-2.433.037-2.433A2.091,2.091,0,0,1,34.832,25.7a.9.9,0,1,0-.465-1.736,3.865,3.865,0,0,0-1.081.477V22.181a3.421,3.421,0,0,1,2.05-.045ZM4.629,29.221a6.192,6.192,0,0,1-1.977-2.834,3.432,3.432,0,0,1,4.394-4.206v2.264a3.865,3.865,0,0,0-1.081-.477A.9.9,0,0,0,5.5,25.7a2.091,2.091,0,0,1,1.546,2.018s.021,2.225.037,2.433a3.341,3.341,0,0,1-2.454-.934Zm4.215-.053V19.384A6.075,6.075,0,0,0,15.741,18a6.081,6.081,0,0,0,8.849,0,6.075,6.075,0,0,0,6.9,1.382v9.784a11.322,11.322,0,1,1-22.645,0Zm11.322,13.12a13.163,13.163,0,0,0,2.065-.163v1.48l-2.065,3.072L18.1,43.606v-1.48A13.164,13.164,0,0,0,20.166,42.289Zm-5.2,4.11a1.1,1.1,0,0,1,.837-1.288l.992-.221,2.121,3.157L15.843,50.13a.085.085,0,0,1-.132-.054Zm2.72,4.652,2.476-1.676,2.476,1.677a3.71,3.71,0,0,1-4.953,0ZM25.362,46.4l-.742,3.677a.085.085,0,0,1-.132.054l-3.077-2.083,2.121-3.157.992.221a1.1,1.1,0,0,1,.837,1.288Zm6.816,4.683h2.563l-.384,1.327a3.956,3.956,0,0,0-.6-.045H32.657c-.07,0-.14,0-.209.006a11.019,11.019,0,0,0-.269-1.288Zm3.731,6.333a2.151,2.151,0,0,1-2.148,2.148H32.657a2.151,2.151,0,0,1-2.148-2.148V56.31a2.151,2.151,0,0,1,2.148-2.148h1.105A2.151,2.151,0,0,1,35.91,56.31Zm24.2-7.037A3.221,3.221,0,0,1,56.892,53.6H36.622a3.98,3.98,0,0,0-.589-.51l.579-2h20.2a.9.9,0,0,0,.9-.9V39.576a.9.9,0,0,0-1.8,0v9.709H37.132l4.779-16.537a.9.9,0,0,0-1.727-.5L35.261,49.284H31.515A10.994,10.994,0,0,0,26.187,44a2.862,2.862,0,0,0-1.272-.648l-.888-.2v-1.45a13.168,13.168,0,0,0,8.963-9.772,3.626,3.626,0,0,0,.531.04,5.332,5.332,0,0,0,3.322-1.366,7.959,7.959,0,0,0,2.562-3.724A5.238,5.238,0,0,0,36.4,20.608V16.232q0-.8-.077-1.584h19.6V35.381a.9.9,0,0,0,1.8,0V13.749a.9.9,0,0,0-.9-.9H36.042a16.088,16.088,0,0,0-.754-2.516h21.6a3.222,3.222,0,0,1,3.218,3.218Z" transform="translate(-0.719)"/>
        <path id="Trazado_1075235" data-name="Trazado 1075235" d="M118.031,191v-1.585a.9.9,0,0,0-1.8,0V191a.9.9,0,0,0,1.8,0Z" transform="translate(-102.389 -165.922)"/>
        <path id="Trazado_1075236" data-name="Trazado 1075236" d="M195.63,191.9a.9.9,0,0,0,.9-.9v-1.585a.9.9,0,1,0-1.8,0V191A.9.9,0,0,0,195.63,191.9Z" transform="translate(-171.479 -165.922)"/>
        <path id="Trazado_1075237" data-name="Trazado 1075237" d="M136.9,257.568a.9.9,0,0,0-1.271-1.271,3.589,3.589,0,0,1-5.07,0,.9.9,0,0,0-1.271,1.271,5.389,5.389,0,0,0,7.612,0Z" transform="translate(-113.649 -225.349)"/>
      </g>
    </g>
  </g>
</svg>
