<svg xmlns="http://www.w3.org/2000/svg" xmlns:xlink="http://www.w3.org/1999/xlink" width="113" height="113" viewBox="0 0 113 113">
  <defs>
    <filter id="Trazado_982547" x="0" y="0" width="113" height="113" filterUnits="userSpaceOnUse">
      <feOffset dy="3" input="SourceAlpha"/>
      <feGaussianBlur stdDeviation="3" result="blur"/>
      <feFlood flood-opacity="0.161"/>
      <feComposite operator="in" in2="blur"/>
      <feComposite in="SourceGraphic"/>
    </filter>
  </defs>
  <g id="Grupo_1206436" data-name="Grupo 1206436" transform="translate(-1217 -7244.852)">
    <g id="Grupo_1185086" data-name="Grupo 1185086" transform="translate(0 1906.237)">
      <g id="Grupo_1181938" data-name="Grupo 1181938" transform="translate(0 2335.614)">
        <g id="Grupo_1175139" data-name="Grupo 1175139" transform="translate(1226 3009)">
          <g id="Grupo_1172010" data-name="Grupo 1172010">
            <g id="Grupo_1171046" data-name="Grupo 1171046">
              <g id="Grupo_1148525" data-name="Grupo 1148525">
                <g transform="matrix(1, 0, 0, 1, -9, -6)" filter="url(#Trazado_982547)">
                  <g id="Trazado_982547-2" data-name="Trazado 982547" transform="translate(9 6)" fill="#eaf9f8">
                    <path d="M 47.5 93.5 C 41.28937149047852 93.5 35.26533508300781 92.28397369384766 29.59518623352051 89.88570404052734 C 24.11771965026855 87.56893157958984 19.19813346862793 84.25196075439453 14.97309303283691 80.02691650390625 C 10.74804019927979 75.80186462402344 7.431066513061523 70.88229370117188 5.114293098449707 65.40481567382812 C 2.716026782989502 59.73468017578125 1.5 53.71062850952148 1.5 47.5 C 1.5 41.28937149047852 2.716026782989502 35.26533508300781 5.114293098449707 29.59518623352051 C 7.431066513061523 24.11771965026855 10.74804019927979 19.19813346862793 14.97309303283691 14.97309303283691 C 19.19813346862793 10.74804019927979 24.11771965026855 7.431066513061523 29.59518623352051 5.114293098449707 C 35.26533508300781 2.716026782989502 41.28937149047852 1.5 47.5 1.5 C 53.71062850952148 1.5 59.73468017578125 2.716026782989502 65.40481567382812 5.114293098449707 C 70.88229370117188 7.431066513061523 75.80186462402344 10.74804019927979 80.02691650390625 14.97309303283691 C 84.25196075439453 19.19813346862793 87.56893157958984 24.11771965026855 89.88570404052734 29.59518623352051 C 92.28397369384766 35.26533508300781 93.5 41.28937149047852 93.5 47.5 C 93.5 53.71062850952148 92.28397369384766 59.73468017578125 89.88570404052734 65.40481567382812 C 87.56893157958984 70.88229370117188 84.25196075439453 75.80186462402344 80.02691650390625 80.02691650390625 C 75.80186462402344 84.25196075439453 70.88229370117188 87.56893157958984 65.40481567382812 89.88570404052734 C 59.73468017578125 92.28397369384766 53.71062850952148 93.5 47.5 93.5 Z" stroke="none"/>
                    <path d="M 47.5 3 C 41.49121475219727 3 35.66376876831055 4.176155090332031 30.17950439453125 6.495796203613281 C 24.88084411621094 8.736953735351562 20.12152099609375 11.94598388671875 16.03375244140625 16.03375244140625 C 11.94598388671875 20.12152099609375 8.736953735351562 24.88084411621094 6.495796203613281 30.17950439453125 C 4.176155090332031 35.66376876831055 3 41.49121475219727 3 47.5 C 3 53.50878524780273 4.176155090332031 59.33623123168945 6.495796203613281 64.82049560546875 C 8.736953735351562 70.11915588378906 11.94598388671875 74.87847900390625 16.03375244140625 78.96624755859375 C 20.12152099609375 83.05401611328125 24.88084411621094 86.26304626464844 30.17950439453125 88.50419616699219 C 35.66376876831055 90.82384490966797 41.49121475219727 92 47.5 92 C 53.50878524780273 92 59.33623123168945 90.82384490966797 64.82049560546875 88.50419616699219 C 70.11915588378906 86.26304626464844 74.87847900390625 83.05401611328125 78.96624755859375 78.96624755859375 C 83.05401611328125 74.87847900390625 86.26304626464844 70.11915588378906 88.50419616699219 64.82049560546875 C 90.82384490966797 59.33623123168945 92 53.50878524780273 92 47.5 C 92 41.49121475219727 90.82384490966797 35.66376876831055 88.50419616699219 30.17950439453125 C 86.26304626464844 24.88084411621094 83.05401611328125 20.12152099609375 78.96624755859375 16.03375244140625 C 74.87847900390625 11.94598388671875 70.11915588378906 8.736953735351562 64.82049560546875 6.495796203613281 C 59.33623123168945 4.176155090332031 53.50878524780273 3 47.5 3 M 47.5 0 C 73.7335205078125 0 95 21.2664794921875 95 47.5 C 95 73.7335205078125 73.7335205078125 95 47.5 95 C 21.2664794921875 95 0 73.7335205078125 0 47.5 C 0 21.2664794921875 21.2664794921875 0 47.5 0 Z" stroke="none" fill="#1f7069"/>
                  </g>
                </g>
              </g>
            </g>
          </g>
        </g>
      </g>
    </g>
    <g id="trabajo-en-equipo_1_" data-name="trabajo-en-equipo (1)" transform="translate(1226.31 7266.168)">
      <g id="Grupo_1206435" data-name="Grupo 1206435" transform="translate(17.538 0.946)">
        <g id="Grupo_1206434" data-name="Grupo 1206434" transform="translate(18.537 45.506)">
          <g id="Grupo_1206433" data-name="Grupo 1206433">
            <path id="Trazado_1075238" data-name="Trazado 1075238" d="M195.31,368.14v1.239a6.823,6.823,0,0,1-3.478,5.946v3.34H177.214V375.35A12.334,12.334,0,0,1,171,369.2Z" transform="translate(-171 -368.14)" fill="#ffd4bd"/>
          </g>
        </g>
        <path id="Trazado_1075239" data-name="Trazado 1075239" d="M159.045,340.638l1.508,3.837s11.622-.009,11.794-.026l0-.005a5.461,5.461,0,0,0,1.7,1.253,5.677,5.677,0,0,0,4.37.252l6.454-2.535v-3.57Z" transform="translate(-142.016 -297.908)" fill="#ffbf9d"/>
        <path id="Trazado_1075240" data-name="Trazado 1075240" d="M97.3,200.626H84.29a6.816,6.816,0,0,1-5.944-3.478H74.71V182.531h3.61a13.053,13.053,0,0,1,3.313-4.421L97.3,198.845Z" transform="translate(-68.323 -156.582)" fill="#db9e82"/>
        <path id="Trazado_1075241" data-name="Trazado 1075241" d="M149.6,82.773a2.561,2.561,0,0,1-.024-.357V68.573a6.82,6.82,0,0,1,3.478-5.946V59.12h14.617V62.6a12.318,12.318,0,0,1,6.214,6.149Z" transform="translate(-133.746 -52.607)" fill="#fed2a4"/>
        <path id="Trazado_1075242" data-name="Trazado 1075242" d="M174.768,146.33a3.19,3.19,0,0,1-3.77-1.353v6.356l-15.94.437v-2.632a2.656,2.656,0,0,1-5.287.333,5.213,5.213,0,0,1,2.77-2.95,5.2,5.2,0,0,1,4.91-5.755,5.188,5.188,0,0,1,5.178-5.316h11.427l2.681,6.818A3.189,3.189,0,0,1,174.768,146.33Z" transform="translate(-133.912 -119.305)" fill="#ffbd86"/>
        <path id="Trazado_1075243" data-name="Trazado 1075243" d="M97.3,200.626H84.29a6.816,6.816,0,0,1-5.944-3.478H74.71V182.531h3.61a13.053,13.053,0,0,1,3.313-4.421L97.3,198.845Z" transform="translate(-68.323 -156.582)" fill="#db9e82"/>
        <path id="Trazado_1075244" data-name="Trazado 1075244" d="M132.351,164.11a8.676,8.676,0,0,0-2.771,1.767v8.281a7.144,7.144,0,0,0,5.316,6.883,5.2,5.2,0,0,0,5.148,5.753h5.032a5.4,5.4,0,0,0,.165,1.6h.837a2.655,2.655,0,0,0,2.656-2.656c0-.729,1.322-1.87,1.322-1.87Z" transform="translate(-116.269 -144.349)" fill="#c8866a"/>
        <path id="Trazado_1075245" data-name="Trazado 1075245" d="M149.6,82.773a2.561,2.561,0,0,1-.024-.357V68.573a6.82,6.82,0,0,1,3.478-5.946V59.12h14.617V62.6a12.318,12.318,0,0,1,6.214,6.149Z" transform="translate(-133.746 -52.607)" fill="#fed2a4"/>
        <path id="Trazado_1075246" data-name="Trazado 1075246" d="M152.4,151.77a2.658,2.658,0,0,1-2.632-2.3,5.213,5.213,0,0,1,2.77-2.95,5.2,5.2,0,0,1,4.91-5.755,5.188,5.188,0,0,1,5.178-5.316h11.427l1.3,3.306Z" transform="translate(-133.912 -119.305)" fill="#ffbd86"/>
        <path id="Trazado_1075247" data-name="Trazado 1075247" d="M197.691,158.926a6.818,6.818,0,0,0-5.945-3.477H177.9a2.656,2.656,0,0,0-.024,5.311h-4.917a2.656,2.656,0,0,0,0,5.312l.04.006h-3.094a2.656,2.656,0,0,0,0,5.312h3.01a2.655,2.655,0,0,0,.044,5.31h9.076a3.191,3.191,0,0,0,2.712,5.738l6.881-2.706a12.39,12.39,0,0,0,6.084-6.189h3.326V158.926Z" transform="translate(-149.188 -136.781)" fill="#ffddcf"/>
        <path id="Trazado_1075248" data-name="Trazado 1075248" d="M253.858,448.005v2.809a2.305,2.305,0,0,1-2.305,2.305h-9.679a4.57,4.57,0,0,1-.437-7.419h10.116A2.305,2.305,0,0,1,253.858,448.005Z" transform="translate(-212.524 -390.408)" fill="#fd7a6e"/>
        <path id="Trazado_1075249" data-name="Trazado 1075249" d="M48.484,201.537v13.937a2.3,2.3,0,0,1-1.262,2.055c-4.692-3.758-5.179-13.972-.019-18.059A2.305,2.305,0,0,1,48.484,201.537Z" transform="translate(-41.065 -175.247)" fill="#f9ee80"/>
        <path id="Trazado_1075250" data-name="Trazado 1075250" d="M214.171,9.805v2.809a2.306,2.306,0,0,1-2.307,2.305h-9.3c-2.836-2.068-2.592-5.96.077-7.419h9.219A2.306,2.306,0,0,1,214.171,9.805Z" transform="translate(-178.277 -7.5)" fill="#9cda82"/>
        <path id="Trazado_1075251" data-name="Trazado 1075251" d="M450.326,170.277v13.937a2.307,2.307,0,0,1-1.692,2.223c-4.976-3.818-4.978-14.662-.019-18.387a2.3,2.3,0,0,1,1.711,2.227Z" transform="translate(-391.801 -147.792)" fill="#5ad6ff"/>
        <path id="Trazado_1075252" data-name="Trazado 1075252" d="M30.248,215.869a2.286,2.286,0,0,1-1.044.25H26.4a2.305,2.305,0,0,1-2.305-2.305V199.877A2.306,2.306,0,0,1,26.4,197.57H29.2a2.31,2.31,0,0,1,1.025.24C26.509,202.993,26.706,210.745,30.248,215.869Z" transform="translate(-24.09 -173.587)" fill="#f9d171"/>
        <path id="Trazado_1075253" data-name="Trazado 1075253" d="M211.243,453.119h-4.257a2.305,2.305,0,0,1-2.305-2.305v-2.809a2.305,2.305,0,0,1,2.305-2.305h3.821A6.384,6.384,0,0,0,211.243,453.119Z" transform="translate(-181.893 -390.408)" fill="#f85647"/>
        <path id="Trazado_1075254" data-name="Trazado 1075254" d="M168.506,14.919h-4.64a2.306,2.306,0,0,1-2.307-2.305V9.805A2.306,2.306,0,0,1,163.867,7.5h4.717A6.349,6.349,0,0,0,168.506,14.919Z" transform="translate(-144.214 -7.5)" fill="#55d47b"/>
        <path id="Trazado_1075255" data-name="Trazado 1075255" d="M434.837,185.9a2.29,2.29,0,0,1-.613.083h-2.809a2.306,2.306,0,0,1-2.305-2.307V169.735a2.305,2.305,0,0,1,2.305-2.305h2.809a2.251,2.251,0,0,1,.594.078C430.937,172.747,431.145,180.721,434.837,185.9Z" transform="translate(-378.004 -147.25)" fill="#00c5fd"/>
      </g>
      <path id="Trazado_1075256" data-name="Trazado 1075256" d="M76.063,26.32a.946.946,0,0,0,.946-.946V23.432a3.256,3.256,0,0,0-3.252-3.252H70.949a3.257,3.257,0,0,0-2.986,1.965H66.57A7.785,7.785,0,0,0,60.1,18.668h-.778l-.778-1.977a13.369,13.369,0,0,0-6.128-6.346v-1.3A3.257,3.257,0,0,0,54.378,6.06V3.252A3.255,3.255,0,0,0,51.127,0H37.19a3.256,3.256,0,0,0-3.252,3.252V6.06A3.257,3.257,0,0,0,35.9,9.046v1.393a7.785,7.785,0,0,0-3.477,6.475V20.2a14.027,14.027,0,0,0-5.49,5.752h-1.3a3.257,3.257,0,0,0-2.986-1.965H19.844a3.256,3.256,0,0,0-3.252,3.252V41.172a3.256,3.256,0,0,0,3.252,3.252h2.808a3.257,3.257,0,0,0,2.986-1.965h1.393a7.785,7.785,0,0,0,6.475,3.477h.933c1.146,3.111,2.251,5.7,6.905,8.324v1.3a3.256,3.256,0,0,0-1.965,2.986v2.808A3.256,3.256,0,0,0,42.63,64.6h2.48a.946.946,0,0,0,0-1.893H42.63a1.361,1.361,0,0,1-1.359-1.359V58.544a1.361,1.361,0,0,1,1.359-1.359H56.567a1.361,1.361,0,0,1,1.359,1.359v2.808a1.361,1.361,0,0,1-1.359,1.359H49.526a.946.946,0,0,0,0,1.893h7.041a3.256,3.256,0,0,0,3.252-3.252V58.544a3.257,3.257,0,0,0-1.965-2.986V54.166a7.785,7.785,0,0,0,3.477-6.475V44.314a14.291,14.291,0,0,0,5.334-5.659h1.3a3.257,3.257,0,0,0,2.986,1.965h2.808a3.256,3.256,0,0,0,3.252-3.252V29.79a.946.946,0,1,0-1.893,0v7.579a1.361,1.361,0,0,1-1.359,1.359H70.949a1.361,1.361,0,0,1-1.359-1.359V23.432a1.361,1.361,0,0,1,1.359-1.359h2.808a1.361,1.361,0,0,1,1.359,1.359v1.942a.946.946,0,0,0,.946.946ZM35.831,3.252A1.361,1.361,0,0,1,37.19,1.893H51.127a1.361,1.361,0,0,1,1.359,1.359V6.06a1.361,1.361,0,0,1-1.359,1.359H37.19A1.361,1.361,0,0,1,35.831,6.06V3.252ZM34.319,16.913a5.89,5.89,0,0,1,3-5.121.946.946,0,0,0,.482-.824V9.312H50.521v1.631a.946.946,0,0,0,.564.866,11.32,11.32,0,0,1,5.712,5.62l.488,1.24H46.254a3.6,3.6,0,0,0-3.171,5.311h-1.77a3.581,3.581,0,0,0-1.683.419V22.9a.946.946,0,1,0-1.893,0c0,.228.013,4.589-.027,4.684a3.58,3.58,0,0,0,.437,1.719,3.608,3.608,0,0,0-3.357,2.626,1.7,1.7,0,0,1-.472-1.172V16.913ZM24.012,41.172a1.361,1.361,0,0,1-1.359,1.359H19.844a1.361,1.361,0,0,1-1.359-1.359V27.236a1.361,1.361,0,0,1,1.359-1.359h2.808a1.361,1.361,0,0,1,1.359,1.359V41.172Zm4.373-.124a.946.946,0,0,0-.824-.482H25.9V27.842h1.631a.946.946,0,0,0,.866-.564,12.326,12.326,0,0,1,4.026-4.847v8.324a3.622,3.622,0,0,0,2.461,3.413A3.608,3.608,0,0,0,38.143,36.5a3.6,3.6,0,0,0,3.17,5.313h7.009a4.175,4.175,0,0,0-.391,2.126,1.686,1.686,0,0,1-.585.1H33.505a5.889,5.889,0,0,1-5.121-3ZM56.442,52.812a.946.946,0,0,0-.482.824v1.656H43.236V53.661a.946.946,0,0,0-.564-.866c-4.261-2.175-5.326-4.484-6.2-6.86H47.347a3.581,3.581,0,0,0,1.17-.195,4.137,4.137,0,0,0,4.931,1.744l5.991-2.356v2.562a5.89,5.89,0,0,1-3,5.121Zm9.624-16.049a.946.946,0,0,0-.866.564,11.32,11.32,0,0,1-5.62,5.712l-6.807,2.677a2.244,2.244,0,0,1-2.09-3.9h4.36a.946.946,0,1,0,0-1.893H41.313a1.709,1.709,0,0,1-.046-3.417H51a.946.946,0,1,0,0-1.893H38.259a1.71,1.71,0,1,1,0-3.42H51A.946.946,0,1,0,51,29.3c-.148-.006-9.548.012-9.689-.006a1.71,1.71,0,1,1,0-3.42H52.1a.946.946,0,1,0,0-1.893H46.23a1.709,1.709,0,0,1,.024-3.418H60.1a5.889,5.889,0,0,1,5.121,3,.946.946,0,0,0,.824.482H67.7V36.763H66.066Z" transform="translate(0 0)"/>
    </g>
  </g>
</svg>
