<svg xmlns="http://www.w3.org/2000/svg" xmlns:xlink="http://www.w3.org/1999/xlink" width="400" height="282" viewBox="0 0 400 282">
  <defs>
    <clipPath id="clip-path">
      <rect id="Rect치ngulo_417623" data-name="Rect치ngulo 417623" width="400" height="282" transform="translate(180 775)" fill="#fff" stroke="#707070" stroke-width="1"/>
    </clipPath>
    <filter id="Elipse_14259" x="48.396" y="87.26" width="81.287" height="81.287" filterUnits="userSpaceOnUse">
      <feOffset dy="3" input="SourceAlpha"/>
      <feGaussianBlur stdDeviation="3" result="blur"/>
      <feFlood flood-opacity="0.161"/>
      <feComposite operator="in" in2="blur"/>
      <feComposite in="SourceGraphic"/>
    </filter>
    <filter id="Elipse_14260" x="89.175" y="20.397" width="81.287" height="81.287" filterUnits="userSpaceOnUse">
      <feOffset dy="3" input="SourceAlpha"/>
      <feGaussianBlur stdDeviation="3" result="blur-2"/>
      <feFlood flood-opacity="0.161"/>
      <feComposite operator="in" in2="blur-2"/>
      <feComposite in="SourceGraphic"/>
    </filter>
    <filter id="Elipse_14261" x="168.729" y="-3.495" width="81.287" height="81.287" filterUnits="userSpaceOnUse">
      <feOffset dy="3" input="SourceAlpha"/>
      <feGaussianBlur stdDeviation="3" result="blur-3"/>
      <feFlood flood-opacity="0.161"/>
      <feComposite operator="in" in2="blur-3"/>
      <feComposite in="SourceGraphic"/>
    </filter>
    <filter id="Trazado_1052658" x="255.036" y="15.994" width="81.287" height="81.287" filterUnits="userSpaceOnUse">
      <feOffset dy="3" input="SourceAlpha"/>
      <feGaussianBlur stdDeviation="3" result="blur-4"/>
      <feFlood flood-opacity="0.161"/>
      <feComposite operator="in" in2="blur-4"/>
      <feComposite in="SourceGraphic"/>
    </filter>
    <filter id="Elipse_14263" x="302.702" y="88.547" width="81.287" height="81.287" filterUnits="userSpaceOnUse">
      <feOffset dy="3" input="SourceAlpha"/>
      <feGaussianBlur stdDeviation="3" result="blur-5"/>
      <feFlood flood-opacity="0.161"/>
      <feComposite operator="in" in2="blur-5"/>
      <feComposite in="SourceGraphic"/>
    </filter>
    <clipPath id="clip-path-2">
      <rect id="Rect치ngulo_417621" data-name="Rect치ngulo 417621" width="381" height="381" transform="translate(0.118 0.118)"/>
    </clipPath>
  </defs>
  <g id="Enmascarar_grupo_1098858" data-name="Enmascarar grupo 1098858" transform="translate(-180 -775)" clip-path="url(#clip-path)">
    <g id="Grupo_1206250" data-name="Grupo 1206250" transform="translate(0 1)">
      <circle id="Elipse_14266" data-name="Elipse 14266" cx="161.5" cy="161.5" r="161.5" transform="translate(228 865)" fill="#f9ecff" opacity="0.7"/>
      <g id="Grupo_1206249" data-name="Grupo 1206249" transform="translate(2634.882 -514.118)">
        <g id="OBJECTS" transform="translate(-2436 1251)">
          <g id="Grupo_1206195" data-name="Grupo 1206195" transform="translate(22.513 13.623)">
            <g id="Grupo_1206190" data-name="Grupo 1206190" transform="translate(16 116.755)">
              <g transform="matrix(1, 0, 0, 1, -57.4, -93.26)" filter="url(#Elipse_14259)">
                <ellipse id="Elipse_14259-2" data-name="Elipse 14259" cx="31.644" cy="31.644" rx="31.644" ry="31.644" transform="translate(57.4 93.26)" fill="#f9ecff"/>
              </g>
              <path id="Trazado_1052556" data-name="Trazado 1052556" d="M96.441,216.935l21.79,9.267L103.7,207.354Z" transform="translate(-48.25 -161.628)" fill="#f9ecff"/>
            </g>
            <g id="Grupo_1206191" data-name="Grupo 1206191" transform="translate(56.78 49.892)">
              <g transform="matrix(1, 0, 0, 1, -98.18, -26.4)" filter="url(#Elipse_14260)">
                <ellipse id="Elipse_14260-2" data-name="Elipse 14260" cx="31.644" cy="31.644" rx="31.644" ry="31.644" transform="translate(98.18 26.4)" fill="#f9ecff"/>
              </g>
              <path id="Trazado_1052557" data-name="Trazado 1052557" d="M150.729,127.567l19.125,13.961-9.881-21.648Z" transform="translate(-104.215 -70.297)" fill="#f9ecff"/>
            </g>
            <g id="Grupo_1206192" data-name="Grupo 1206192" transform="translate(136.333 26)">
              <g transform="matrix(1, 0, 0, 1, -177.73, -2.5)" filter="url(#Elipse_14261)">
                <ellipse id="Elipse_14261-2" data-name="Elipse 14261" cx="31.644" cy="31.644" rx="31.644" ry="31.644" transform="translate(177.73 2.5)" fill="#f9ecff"/>
              </g>
              <path id="Trazado_1052558" data-name="Trazado 1052558" d="M235.411,94.919l3.794,23.372,8.185-22.345Z" transform="translate(-207.456 -39.423)" fill="#f9ecff"/>
            </g>
            <g id="Grupo_1206193" data-name="Grupo 1206193" transform="translate(222.641 45.489)">
              <g transform="matrix(1, 0, 0, 1, -264.04, -21.99)" filter="url(#Trazado_1052658)">
                <path id="Trazado_1052658-2" data-name="Trazado 1052658" d="M31.644,0A31.644,31.644,0,1,1,0,31.644,31.644,31.644,0,0,1,31.644,0Z" transform="translate(264.04 21.99)" fill="#f9ecff"/>
              </g>
              <path id="Trazado_1052559" data-name="Trazado 1052559" d="M340.845,118.272l-6.369,22.806,16.81-16.843Z" transform="translate(-321.473 -65.444)" fill="#f9ecff"/>
            </g>
            <g id="Grupo_1206194" data-name="Grupo 1206194" transform="translate(254.284 118.042)">
              <g transform="matrix(1, 0, 0, 1, -295.68, -94.55)" filter="url(#Elipse_14263)">
                <ellipse id="Elipse_14263-2" data-name="Elipse 14263" cx="31.644" cy="31.644" rx="31.644" ry="31.644" transform="translate(311.7 94.55)" fill="#f9ecff"/>
              </g>
              <path id="Trazado_1052560" data-name="Trazado 1052560" d="M378.936,194.59l-18.58,14.677,23.506-3.709Z" transform="translate(-360.356 -159.345)" fill="#f9ecff"/>
            </g>
          </g>
          <g id="Grupo_1206221" data-name="Grupo 1206221">
            <g id="Grupo_1206220" data-name="Grupo 1206220" opacity="0.812" clip-path="url(#clip-path-2)">
              <g id="Grupo_1206197" data-name="Grupo 1206197" transform="translate(75.866 275.046)">
                <path id="Trazado_1052561" data-name="Trazado 1052561" d="M119.816,425.34c-4.458-2.477-9.095-5.118-11.86-9.4s-2.906-10.727,1.083-13.9c-3.814-2.573-7.541-5.8-8.882-10.2s.733-10.084,5.2-11.164c-3.1-3.421-6.416-7.511-5.744-12.078.825-5.6,7.63-8.637,13.181-7.516s10.024,5.1,14.2,8.917c3.752-4.352,11.263-3.294,15.338.757s5.5,10.014,6.359,15.7c5.737-3.394,13.632.292,16.815,6.149s2.781,12.981,1.6,19.542c2.379-2.489,6.786-1.9,9.292.464s3.484,5.915,3.926,9.329c2.162,16.747-5.921,32.987-15.466,48.154A121.23,121.23,0,0,1,123.34,447.3c-3.578-3.007-7.122-6.442-8.464-10.919S115.245,426.2,119.816,425.34Z" transform="translate(-99.531 -360.841)" fill="#74a847"/>
                <g id="Grupo_1206196" data-name="Grupo 1206196" transform="translate(15.543 17.461)">
                  <path id="Trazado_1052562" data-name="Trazado 1052562" d="M170.494,479.294c-4.508-35.221-22.8-69.79-50.572-95.545" transform="translate(-119.922 -383.749)" fill="none" stroke="#d1cd5c" stroke-linecap="round" stroke-linejoin="round" stroke-miterlimit="10" stroke-width="1"/>
                  <path id="Trazado_1052563" data-name="Trazado 1052563" d="M122.6,400.334a67.183,67.183,0,0,1,18,6.17,49.823,49.823,0,0,0-1.366-20.407" transform="translate(-120.558 -384.307)" fill="none" stroke="#d1cd5c" stroke-linecap="round" stroke-linejoin="round" stroke-miterlimit="10" stroke-width="1"/>
                  <path id="Trazado_1052564" data-name="Trazado 1052564" d="M136.275,432.8a112.846,112.846,0,0,1,25.409,11.749,60.563,60.563,0,0,0,4.06-26.039" transform="translate(-123.81 -392.014)" fill="none" stroke="#d1cd5c" stroke-linecap="round" stroke-linejoin="round" stroke-miterlimit="10" stroke-width="1"/>
                  <path id="Trazado_1052565" data-name="Trazado 1052565" d="M147.371,462.491a106.356,106.356,0,0,1,25.754,13.468,51.933,51.933,0,0,0,8.417-26.992" transform="translate(-126.448 -399.255)" fill="none" stroke="#d1cd5c" stroke-linecap="round" stroke-linejoin="round" stroke-miterlimit="10" stroke-width="1"/>
                </g>
              </g>
              <g id="Grupo_1206207" data-name="Grupo 1206207" transform="translate(8.792 331.502)">
                <g id="Grupo_1206198" data-name="Grupo 1206198" transform="translate(32.14 3.482)">
                  <path id="Trazado_1052566" data-name="Trazado 1052566" d="M72.723,466.869A38.236,38.236,0,0,1,56.44,453.2a15.3,15.3,0,0,1-2.637-5.964,7.05,7.05,0,0,1,1.708-6.093c2-1.98,5.342-2.092,7.883-.876a14.871,14.871,0,0,1,5.883,5.906A26.113,26.113,0,0,1,72.723,466.869Z" transform="translate(-53.7 -439.476)" fill="#d1cd5c"/>
                  <path id="Trazado_1052567" data-name="Trazado 1052567" d="M74.855,469.38a156.661,156.661,0,0,0-10.906-18.269" transform="translate(-56.137 -442.242)" fill="none" stroke="#74a847" stroke-linecap="round" stroke-linejoin="round" stroke-miterlimit="10" stroke-width="1"/>
                </g>
                <g id="Grupo_1206199" data-name="Grupo 1206199" transform="translate(54.467)">
                  <path id="Trazado_1052568" data-name="Trazado 1052568" d="M96.843,468.967a45.131,45.131,0,0,1-13.316-23.084,13.371,13.371,0,0,1-.169-6.74c.654-2.177,2.521-4.131,4.792-4.23,2.872-.127,5.038,2.531,6.416,5.054A34.862,34.862,0,0,1,96.843,468.967Z" transform="translate(-82.991 -434.907)" fill="#d1cd5c"/>
                  <path id="Trazado_1052569" data-name="Trazado 1052569" d="M99.214,472.134a144,144,0,0,0-6.547-22.186" transform="translate(-85.291 -438.483)" fill="none" stroke="#74a847" stroke-linecap="round" stroke-linejoin="round" stroke-miterlimit="10" stroke-width="1"/>
                </g>
                <g id="Grupo_1206200" data-name="Grupo 1206200" transform="translate(75.092 4.125)">
                  <path id="Trazado_1052570" data-name="Trazado 1052570" d="M118.492,476.147a24.49,24.49,0,0,1-6.608-11.6,62.2,62.2,0,0,1-1.764-13.383,17.115,17.115,0,0,1,.557-6.612,6.063,6.063,0,0,1,4.727-4.21,5.847,5.847,0,0,1,4.99,2.432,13.414,13.414,0,0,1,2.217,5.3C124.528,456.365,123.686,465.265,118.492,476.147Z" transform="translate(-110.05 -440.319)" fill="#d1cd5c"/>
                  <path id="Trazado_1052571" data-name="Trazado 1052571" d="M120.043,479.14q-1.243-11.66-2.486-23.32" transform="translate(-111.835 -444.004)" fill="none" stroke="#74a847" stroke-linecap="round" stroke-linejoin="round" stroke-miterlimit="10" stroke-width="1"/>
                </g>
                <g id="Grupo_1206201" data-name="Grupo 1206201" transform="translate(24.231 31.123)">
                  <path id="Trazado_1052572" data-name="Trazado 1052572" d="M74.07,476a43.088,43.088,0,0,0-25.3,5,12.426,12.426,0,0,0-4.349,3.48,5.215,5.215,0,0,0-.628,5.3c1.025,1.929,3.431,2.665,5.613,2.768,4.967.236,9.821-1.858,13.791-4.855S70.386,480.836,74.07,476Z" transform="translate(-43.324 -475.739)" fill="#d1cd5c"/>
                  <path id="Trazado_1052573" data-name="Trazado 1052573" d="M54.875,486.65l21.075-9.739" transform="translate(-46.07 -476.017)" fill="none" stroke="#74a847" stroke-linecap="round" stroke-linejoin="round" stroke-miterlimit="10" stroke-width="1"/>
                </g>
                <g id="Grupo_1206202" data-name="Grupo 1206202" transform="translate(46.28 35.946)">
                  <path id="Trazado_1052574" data-name="Trazado 1052574" d="M102.473,482.224c-4.947-.213-9.946-.359-14.8.595s-9.626,3.108-12.883,6.836c-1.96,2.244-3.331,5.506-2.015,8.18,1.118,2.271,3.9,3.348,6.426,3.121a15.172,15.172,0,0,0,6.92-2.927C91.576,494.346,96.287,489.561,102.473,482.224Z" transform="translate(-72.251 -482.066)" fill="#d1cd5c"/>
                  <path id="Trazado_1052575" data-name="Trazado 1052575" d="M82.669,494.507l20.75-10.68" transform="translate(-74.728 -482.485)" fill="none" stroke="#74a847" stroke-linecap="round" stroke-linejoin="round" stroke-miterlimit="10" stroke-width="1"/>
                </g>
                <g id="Grupo_1206203" data-name="Grupo 1206203" transform="translate(63.81 42.25)">
                  <path id="Trazado_1052576" data-name="Trazado 1052576" d="M122.336,490.338a33.794,33.794,0,0,0-23.165,9,13.339,13.339,0,0,0-3.358,4.407,5.563,5.563,0,0,0,5.762,8.085,13.434,13.434,0,0,0,6.13-2.2C114.05,505.818,119.091,499.874,122.336,490.338Z" transform="translate(-95.248 -490.337)" fill="#d1cd5c"/>
                  <path id="Trazado_1052577" data-name="Trazado 1052577" d="M106.7,504.853a109.618,109.618,0,0,0,18.257-13.5" transform="translate(-97.972 -490.577)" fill="none" stroke="#74a847" stroke-linecap="round" stroke-linejoin="round" stroke-miterlimit="10" stroke-width="1"/>
                </g>
                <g id="Grupo_1206204" data-name="Grupo 1206204" transform="translate(92.316 10.975)">
                  <path id="Trazado_1052578" data-name="Trazado 1052578" d="M136.813,481.875a51.7,51.7,0,0,1-4.108-22.769c.139-2.9.638-6.019,2.714-8.042a6.144,6.144,0,0,1,6.54-1.318,7.126,7.126,0,0,1,3.716,4.382,15.282,15.282,0,0,1,.517,5.859A35.557,35.557,0,0,1,136.813,481.875Z" transform="translate(-132.647 -449.306)" fill="#d1cd5c"/>
                  <path id="Trazado_1052579" data-name="Trazado 1052579" d="M138.722,486.227q1-12.616,2.006-25.232" transform="translate(-134.091 -452.085)" fill="none" stroke="#74a847" stroke-linecap="round" stroke-linejoin="round" stroke-miterlimit="10" stroke-width="1"/>
                </g>
                <g id="Grupo_1206205" data-name="Grupo 1206205" transform="translate(82.534 49.793)">
                  <path id="Trazado_1052580" data-name="Trazado 1052580" d="M143.362,500.285a26.3,26.3,0,0,0-20.2,7.7,12,12,0,0,0-2.995,4.467,5.847,5.847,0,0,0,.563,5.195c1.433,2,4.32,2.515,6.675,1.8a15.03,15.03,0,0,0,6.014-4.147A42.831,42.831,0,0,0,143.362,500.285Z" transform="translate(-119.814 -500.232)" fill="#d1cd5c"/>
                  <path id="Trazado_1052581" data-name="Trazado 1052581" d="M145.344,500.87a90.131,90.131,0,0,0-16.359,12.347" transform="translate(-121.994 -500.384)" fill="none" stroke="#74a847" stroke-linecap="round" stroke-linejoin="round" stroke-miterlimit="10" stroke-width="1"/>
                </g>
                <g id="Grupo_1206206" data-name="Grupo 1206206" transform="translate(0 20.311)">
                  <path id="Trazado_1052582" data-name="Trazado 1052582" d="M54.021,470.6a37.943,37.943,0,0,0-34.836-7.619,13.284,13.284,0,0,0-5.644,2.895,5.9,5.9,0,0,0-1.8,5.811c.87,2.725,4,3.96,6.82,4.47C28.733,478,39.089,475.052,54.021,470.6Z" transform="translate(-11.534 -461.555)" fill="#d1cd5c"/>
                  <path id="Trazado_1052583" data-name="Trazado 1052583" d="M136.268,503.526C108.116,481.884,70.7,470.479,32.862,472" transform="translate(-16.605 -464.007)" fill="none" stroke="#74a847" stroke-linecap="round" stroke-linejoin="round" stroke-miterlimit="10" stroke-width="1"/>
                </g>
              </g>
              <g id="Grupo_1206209" data-name="Grupo 1206209" transform="translate(249.507 327.535)">
                <path id="Trazado_1052584" data-name="Trazado 1052584" d="M394.248,486.638c5.035.8,10.315,1.586,15.134-.078s8.907-6.647,7.728-11.608c4.589.33,9.515.088,13.287-2.547s5.647-8.387,2.8-12c4.55-.779,9.684-1.95,11.973-5.958,2.809-4.918-.673-11.505-5.733-14.049s-11.032-2.177-16.679-1.751c-.267-5.74-6.829-9.543-12.535-8.87s-10.508,4.485-14.691,8.425c-2.419-6.211-10.906-8.183-17.025-5.539s-10.2,8.5-13.322,14.387c-.335-3.426-4.169-5.68-7.6-5.37s-6.392,2.5-8.846,4.918c-12.037,11.843-15.7,29.609-17.55,47.435a121.249,121.249,0,0,0,46.736,7.71c4.671-.158,9.581-.673,13.4-3.368S397.314,490.135,394.248,486.638Z" transform="translate(-328.251 -429.703)" fill="#d1cd5c"/>
                <g id="Grupo_1206208" data-name="Grupo 1206208" transform="translate(0 12.732)">
                  <path id="Trazado_1052585" data-name="Trazado 1052585" d="M327.336,503.648c25.285-24.931,61.015-40.839,98.758-43.967" transform="translate(-327.336 -449.563)" fill="none" stroke="#74a847" stroke-linecap="round" stroke-linejoin="round" stroke-miterlimit="10" stroke-width="1"/>
                  <path id="Trazado_1052586" data-name="Trazado 1052586" d="M436.211,467.877a67.174,67.174,0,0,0-17.974-6.256,49.816,49.816,0,0,1,13.67-15.214" transform="translate(-348.949 -446.407)" fill="none" stroke="#74a847" stroke-linecap="round" stroke-linejoin="round" stroke-miterlimit="10" stroke-width="1"/>
                  <path id="Trazado_1052587" data-name="Trazado 1052587" d="M402.511,482.511a112.822,112.822,0,0,0-27.244-6.436,60.567,60.567,0,0,1,12.876-22.994" transform="translate(-338.732 -447.994)" fill="none" stroke="#74a847" stroke-linecap="round" stroke-linejoin="round" stroke-miterlimit="10" stroke-width="1"/>
                  <path id="Trazado_1052588" data-name="Trazado 1052588" d="M375.188,498.12a106.346,106.346,0,0,0-28.575-5.3,51.937,51.937,0,0,1,10.036-26.433" transform="translate(-331.919 -451.158)" fill="none" stroke="#74a847" stroke-linecap="round" stroke-linejoin="round" stroke-miterlimit="10" stroke-width="1"/>
                </g>
              </g>
              <g id="Grupo_1206219" data-name="Grupo 1206219" transform="translate(216.049 278.79)">
                <g id="Grupo_1206210" data-name="Grupo 1206210" transform="translate(41.75 4.808)">
                  <path id="Trazado_1052589" data-name="Trazado 1052589" d="M348.682,402.926a38.236,38.236,0,0,0,4.139-20.854,15.307,15.307,0,0,0-1.678-6.3A7.053,7.053,0,0,0,346,372.088c-2.8-.29-5.475,1.713-6.7,4.253a14.879,14.879,0,0,0-.89,8.289A26.111,26.111,0,0,0,348.682,402.926Z" transform="translate(-338.215 -372.06)" fill="#74a847"/>
                  <path id="Trazado_1052590" data-name="Trazado 1052590" d="M351.133,405.47A156.666,156.666,0,0,1,348.2,384.4" transform="translate(-340.589 -374.993)" fill="none" stroke="#d1cd5c" stroke-linecap="round" stroke-linejoin="round" stroke-miterlimit="10" stroke-width="1"/>
                </g>
                <g id="Grupo_1206211" data-name="Grupo 1206211" transform="translate(24.189 16.046)">
                  <path id="Trazado_1052591" data-name="Trazado 1052591" d="M331.819,419.655a45.132,45.132,0,0,0-4.067-26.338,13.367,13.367,0,0,0-4.088-5.362c-1.873-1.288-4.551-1.643-6.385-.3-2.319,1.7-2.344,5.128-1.839,7.958A34.856,34.856,0,0,0,331.819,419.655Z" transform="translate(-315.176 -386.803)" fill="#74a847"/>
                  <path id="Trazado_1052592" data-name="Trazado 1052592" d="M333.863,422.866a143.971,143.971,0,0,1-8.784-21.4" transform="translate(-317.53 -390.29)" fill="none" stroke="#d1cd5c" stroke-linecap="round" stroke-linejoin="round" stroke-miterlimit="10" stroke-width="1"/>
                </g>
                <g id="Grupo_1206212" data-name="Grupo 1206212" transform="translate(10.279 32.414)">
                  <path id="Trazado_1052593" data-name="Trazado 1052593" d="M319.3,438.882a24.485,24.485,0,0,0-2.11-13.184,62.227,62.227,0,0,0-7-11.54,17.107,17.107,0,0,0-4.574-4.807,6.063,6.063,0,0,0-6.322-.323,5.849,5.849,0,0,0-2.369,5.02,13.417,13.417,0,0,0,1.592,5.525C302.214,427.234,308.443,433.647,319.3,438.882Z" transform="translate(-296.926 -408.277)" fill="#74a847"/>
                  <path id="Trazado_1052594" data-name="Trazado 1052594" d="M322.006,441.369l-12.66-19.741" transform="translate(-299.879 -411.451)" fill="none" stroke="#d1cd5c" stroke-linecap="round" stroke-linejoin="round" stroke-miterlimit="10" stroke-width="1"/>
                </g>
                <g id="Grupo_1206213" data-name="Grupo 1206213" transform="translate(49.56 26.195)">
                  <path id="Trazado_1052595" data-name="Trazado 1052595" d="M348.46,412.38a43.086,43.086,0,0,1,22.859-11.935,12.405,12.405,0,0,1,5.57-.008,5.213,5.213,0,0,1,3.808,3.741c.408,2.146-1.008,4.226-2.644,5.673-3.727,3.294-8.822,4.7-13.793,4.848S354.363,413.846,348.46,412.38Z" transform="translate(-348.46 -400.119)" fill="#74a847"/>
                  <path id="Trazado_1052596" data-name="Trazado 1052596" d="M372.4,408.8l-22.531,5.6" transform="translate(-348.795 -402.182)" fill="none" stroke="#d1cd5c" stroke-linecap="round" stroke-linejoin="round" stroke-miterlimit="10" stroke-width="1"/>
                </g>
                <g id="Grupo_1206214" data-name="Grupo 1206214" transform="translate(35.731 43.805)">
                  <path id="Trazado_1052597" data-name="Trazado 1052597" d="M330.318,435.03c3.724-3.263,7.532-6.507,11.917-8.8s9.452-3.6,14.325-2.734c2.934.523,6.045,2.208,6.692,5.117.55,2.472-.949,5.055-3.058,6.457a15.181,15.181,0,0,1-7.229,2.05C346.4,437.662,339.735,436.88,330.318,435.03Z" transform="translate(-330.318 -423.221)" fill="#74a847"/>
                  <path id="Trazado_1052598" data-name="Trazado 1052598" d="M355.723,432.553l-22.867,4.662" transform="translate(-330.921 -425.44)" fill="none" stroke="#d1cd5c" stroke-linecap="round" stroke-linejoin="round" stroke-miterlimit="10" stroke-width="1"/>
                </g>
                <g id="Grupo_1206215" data-name="Grupo 1206215" transform="translate(28.354 61.848)">
                  <path id="Trazado_1052599" data-name="Trazado 1052599" d="M320.64,454.465a33.793,33.793,0,0,1,23.7-7.481,13.344,13.344,0,0,1,5.378,1.334,5.562,5.562,0,0,1,.568,9.912,13.43,13.43,0,0,1-6.159,2.12C336.792,461.349,329.14,459.869,320.64,454.465Z" transform="translate(-320.64 -446.893)" fill="#74a847"/>
                  <path id="Trazado_1052600" data-name="Trazado 1052600" d="M344.066,456.352a109.628,109.628,0,0,1-22.691.9" transform="translate(-320.815 -449.142)" fill="none" stroke="#d1cd5c" stroke-linecap="round" stroke-linejoin="round" stroke-miterlimit="10" stroke-width="1"/>
                </g>
                <g id="Grupo_1206216" data-name="Grupo 1206216" transform="translate(0 48.999)">
                  <path id="Trazado_1052601" data-name="Trazado 1052601" d="M308.25,454.962A51.7,51.7,0,0,0,297.2,434.635c-1.922-2.171-4.265-4.294-7.151-4.573a6.143,6.143,0,0,0-5.925,3.066,7.128,7.128,0,0,0-.155,5.743,15.262,15.262,0,0,0,3.265,4.892A35.556,35.556,0,0,0,308.25,454.962Z" transform="translate(-283.441 -430.035)" fill="#74a847"/>
                  <path id="Trazado_1052602" data-name="Trazado 1052602" d="M311.389,458.98l-17.361-18.419" transform="translate(-285.958 -432.538)" fill="none" stroke="#d1cd5c" stroke-linecap="round" stroke-linejoin="round" stroke-miterlimit="10" stroke-width="1"/>
                </g>
                <g id="Grupo_1206217" data-name="Grupo 1206217" transform="translate(21.267 78.034)">
                  <path id="Trazado_1052603" data-name="Trazado 1052603" d="M311.342,474.942a26.305,26.305,0,0,1,20.573-6.643,12,12,0,0,1,5.132,1.608,5.846,5.846,0,0,1,2.813,4.4c.136,2.457-1.794,4.665-4.077,5.583a15.027,15.027,0,0,1-7.285.531A42.821,42.821,0,0,1,311.342,474.942Z" transform="translate(-311.342 -468.128)" fill="#74a847"/>
                  <path id="Trazado_1052604" data-name="Trazado 1052604" d="M311.9,477.058a90.127,90.127,0,0,1,20.487-.613" transform="translate(-311.475 -470.03)" fill="none" stroke="#d1cd5c" stroke-linecap="round" stroke-linejoin="round" stroke-miterlimit="10" stroke-width="1"/>
                </g>
                <g id="Grupo_1206218" data-name="Grupo 1206218" transform="translate(16.928)">
                  <path id="Trazado_1052605" data-name="Trazado 1052605" d="M359.578,394.813a37.945,37.945,0,0,1,22.395-27.75,13.281,13.281,0,0,1,6.214-1.275,5.9,5.9,0,0,1,5.038,3.407c1.027,2.67-.644,5.6-2.52,7.755C383.928,384.75,374.007,388.933,359.578,394.813Z" transform="translate(-318.472 -365.753)" fill="#74a847"/>
                  <path id="Trazado_1052606" data-name="Trazado 1052606" d="M305.65,470.575c8.4-34.5,30.438-66.815,60.9-89.316" transform="translate(-305.65 -369.439)" fill="none" stroke="#d1cd5c" stroke-linecap="round" stroke-linejoin="round" stroke-miterlimit="10" stroke-width="1"/>
                </g>
              </g>
            </g>
          </g>
          <g id="Grupo_1206247" data-name="Grupo 1206247">
            <g id="Grupo_1206246" data-name="Grupo 1206246" clip-path="url(#clip-path-2)">
              <path id="Trazado_1052607" data-name="Trazado 1052607" d="M205.379,359.061c-14.468-3.663-28.45-11.388-36.718-23.812s-9.627-29.983-.842-42.049c2.761-3.791,6.624-7.716,5.813-12.336-.726-4.131-5.006-6.808-6.173-10.835-1.244-4.289,1.389-8.749,4.506-11.947s6.912-5.911,8.929-9.9c3.579-7.07.487-15.489-1.908-23.043-3.528-11.129-5.423-23.264-1.993-34.423s13.3-20.929,25.49-21.244c15.352-13.6,39.613-15.943,57.286-5.54s27.4,32.753,22.96,52.775c-1.213,5.475-3.361,10.719-4.425,16.225s-.917,11.569,2.149,16.265c4.839,7.41,16.011,10.223,18.033,18.839,1.2,5.125-1.487,10.327-4.528,14.624s-6.635,8.508-7.606,13.682c-1.88,10.013,6.594,19.09,7.567,29.232.6,6.239-1.77,12.525-5.6,17.483s-9.038,8.7-14.531,11.722C255.12,365.036,232.589,365.949,205.379,359.061Z" transform="translate(-38.475 -37.439)" fill="#b84453"/>
              <g id="Grupo_1206228" data-name="Grupo 1206228" transform="translate(64.862 170.989)">
                <g id="Grupo_1206224" data-name="Grupo 1206224" transform="translate(173.036)">
                  <g id="Grupo_1206222" data-name="Grupo 1206222" transform="translate(43.548)">
                    <path id="Trazado_1052608" data-name="Trazado 1052608" d="M374.926,279.349s-6.336-16.111-5.634-20.009,3.82-8.569,3.82-8.569-2.153-25.179,2.638-26.378c5.82-1.457,7.846,20.963,7.846,20.963s21.2,5.442,20.431,14.12-7.944,19.734-12.25,23.27Z" transform="translate(-369.237 -224.326)" fill="#ffa382"/>
                    <path id="Trazado_1052609" data-name="Trazado 1052609" d="M375.768,256.381s2.9-4.108,5-4.548c1.531-.321,2.569.992,2.482,2.789s-2.069,9.321-2.069,9.321a18,18,0,0,1,4.977,13.91" transform="translate(-370.79 -230.854)" fill="none" stroke="#c43945" stroke-linecap="round" stroke-linejoin="round" stroke-miterlimit="10" stroke-width="1"/>
                    <path id="Trazado_1052610" data-name="Trazado 1052610" d="M409.738,274.135s-2.882,4.872-4.676,5.259-4.589-1.679-4.589-1.679" transform="translate(-376.664 -236.169)" fill="none" stroke="#c43945" stroke-linecap="round" stroke-linejoin="round" stroke-miterlimit="10" stroke-width="1"/>
                    <path id="Trazado_1052611" data-name="Trazado 1052611" d="M403.165,265.082s-3.746,8.808-6.426,9.446-6.242-1.373-6.745-3.6,3.531-10.533,3.531-10.533" transform="translate(-374.162 -232.901)" fill="none" stroke="#c43945" stroke-linecap="round" stroke-linejoin="round" stroke-miterlimit="10" stroke-width="1"/>
                    <path id="Trazado_1052612" data-name="Trazado 1052612" d="M388.755,273.589a1.922,1.922,0,0,1-1.576-.293" transform="translate(-373.503 -235.969)" fill="none" stroke="#c43945" stroke-linecap="round" stroke-linejoin="round" stroke-miterlimit="10" stroke-width="1"/>
                  </g>
                  <g id="Grupo_1206223" data-name="Grupo 1206223" transform="translate(0 50.989)">
                    <path id="Trazado_1052613" data-name="Trazado 1052613" d="M379.1,297.006s-11.88,58.382-18.1,65.141c-4.2,4.561-24.978,2.284-38.06.324-6.316-.941-10.837-1.818-10.837-1.818l.633-1.66c.008-.008.008-.024.016-.032l11.857-30.97s1.573.506,3.842,1.21l1.715.537c5.715,1.771,13.912,4.229,14.781,4.039,1.36-.293,17.73-42.557,17.73-42.557Z" transform="translate(-312.105 -291.22)" fill="#ffa382"/>
                    <path id="Trazado_1052614" data-name="Trazado 1052614" d="M330.166,341.586a125.271,125.271,0,0,1-7.224,32.732c-6.316-.941-10.837-1.818-10.837-1.818l.633-1.66c.008-.008.008-.024.016-.032a155.841,155.841,0,0,1,15.7-29.76Z" transform="translate(-312.105 -303.067)" fill="#eb7563"/>
                  </g>
                </g>
                <g id="Grupo_1206227" data-name="Grupo 1206227" transform="translate(0 33.918)">
                  <g id="Grupo_1206225" data-name="Grupo 1206225">
                    <path id="Trazado_1052615" data-name="Trazado 1052615" d="M117.4,322.8s3.429-16.97,2.057-20.685-5.257-7.771-5.257-7.771-2.273-25.168-7.2-25.514c-5.985-.419-4.068,22.01-4.068,22.01S83,299.9,85.275,308.309,96.54,326.354,101.4,329.086Z" transform="translate(-85.094 -268.824)" fill="#ffa382"/>
                    <path id="Trazado_1052616" data-name="Trazado 1052616" d="M119.212,300.243s-3.576-3.539-5.721-3.605c-1.564-.049-2.358,1.425-1.957,3.179s3.663,8.818,3.663,8.818a18,18,0,0,0-2.474,14.565" transform="translate(-91.356 -275.437)" fill="none" stroke="#c43945" stroke-linecap="round" stroke-linejoin="round" stroke-miterlimit="10" stroke-width="1"/>
                    <path id="Trazado_1052617" data-name="Trazado 1052617" d="M88.191,323.87s3.688,4.294,5.522,4.363,4.227-2.454,4.227-2.454" transform="translate(-85.831 -281.912)" fill="none" stroke="#c43945" stroke-linecap="round" stroke-linejoin="round" stroke-miterlimit="10" stroke-width="1"/>
                    <path id="Trazado_1052618" data-name="Trazado 1052618" d="M92.127,313.5s5.225,8.019,7.976,8.18,5.907-2.441,6.013-4.723S100.8,307.2,100.8,307.2" transform="translate(-86.766 -277.949)" fill="none" stroke="#c43945" stroke-linecap="round" stroke-linejoin="round" stroke-miterlimit="10" stroke-width="1"/>
                    <path id="Trazado_1052619" data-name="Trazado 1052619" d="M111.135,319.167a1.923,1.923,0,0,0,1.5-.563" transform="translate(-91.286 -280.66)" fill="none" stroke="#c43945" stroke-linecap="round" stroke-linejoin="round" stroke-miterlimit="10" stroke-width="1"/>
                  </g>
                  <g id="Grupo_1206226" data-name="Grupo 1206226" transform="translate(15.112 51.439)">
                    <path id="Trazado_1052620" data-name="Trazado 1052620" d="M178.448,375.515s-4.711,3.272-10.632,6.671c-6.917,3.976-15.469,8.125-20.07,7.438-8.537-1.273-42.826-45.427-42.826-45.427l17.1-7.888s25.073,22.567,26.148,22.235c.506-.15,5.193-4.608,10.039-9.3,2.585-2.505,5.209-5.075,7.257-7.083,2.277-2.237,3.842-3.778,3.842-3.778l7.217,29.309Z" transform="translate(-104.92 -336.309)" fill="#ffa382"/>
                    <path id="Trazado_1052621" data-name="Trazado 1052621" d="M195.068,377.342s-4.711,3.272-10.632,6.671a95.5,95.5,0,0,1-9.612-32.938c2.585-2.505,5.209-5.075,7.256-7.083a181.983,181.983,0,0,0,11.059,25.531Z" transform="translate(-121.541 -338.136)" fill="#eb7563"/>
                  </g>
                </g>
              </g>
              <path id="Trazado_1052622" data-name="Trazado 1052622" d="M196.031,456.505s-7.455,10.532-12.151,44.333l106.727,2.3s-6.788-30.821-10.509-44.989Z" transform="translate(-43.72 -108.541)" fill="#279386"/>
              <g id="Grupo_1206230" data-name="Grupo 1206230" transform="translate(132.009 236.198)">
                <path id="Trazado_1052623" data-name="Trazado 1052623" d="M281.912,370.084l-6.49-.593s.032,25.223.98,32.021,4.213,25.215,4.213,25.215-17.058,9.3-45.268,8.173-46.929-8.379-46.929-8.379,4.775-16.733,5.652-22.006-.1-33.27-.1-33.27l-2.956,1.178c-11.5-10.766-17.833-38.21-17.833-38.21s20.338-11.4,27.784-14.8c1.257-.569,2.838-1.225,4.608-1.913,8.727-3.383,21.958-7.62,21.958-7.62s17.65,2.814,31.634,6.166c3.525.846,6.821,1.723,9.533,2.6,13.493,4.348,28.993,12.173,28.993,12.173C293.485,350.963,281.912,370.084,281.912,370.084Z" transform="translate(-173.187 -309.875)" fill="#ff9e3d"/>
                <g id="Grupo_1206229" data-name="Grupo 1206229" transform="translate(11.296 0.001)">
                  <path id="Trazado_1052624" data-name="Trazado 1052624" d="M269.275,316.042c-1.668,7.723-7.288,23.239-25.6,24.337-17.8,1.067-25.247-14.378-27.989-22.883,8.727-3.383,21.958-7.62,21.958-7.62S255.293,312.69,269.275,316.042Z" transform="translate(-194.587 -309.876)" fill="#de662a"/>
                  <path id="Trazado_1052625" data-name="Trazado 1052625" d="M304.272,345.359a177.386,177.386,0,0,1,2.374,31.939A44.6,44.6,0,0,0,304.272,345.359Z" transform="translate(-215.65 -318.313)" fill="#de662a"/>
                  <path id="Trazado_1052626" data-name="Trazado 1052626" d="M201.918,343.012a140.59,140.59,0,0,0-2.2,35.146c-1.04-6.016-2.083-12.071-2.039-18.176S198.916,347.656,201.918,343.012Z" transform="translate(-190.306 -317.755)" fill="#de662a"/>
                  <path id="Trazado_1052627" data-name="Trazado 1052627" d="M190.091,346.258a54.647,54.647,0,0,0,4.017,25.339c-2.437-3.8-4.665-7.83-5.622-12.242A19.159,19.159,0,0,1,190.091,346.258Z" transform="translate(-188.006 -318.526)" fill="#de662a"/>
                  <path id="Trazado_1052628" data-name="Trazado 1052628" d="M313.1,349.961a92.019,92.019,0,0,1-4.3,24.493C313.222,366.439,315.158,357.077,313.1,349.961Z" transform="translate(-216.727 -319.407)" fill="#de662a"/>
                  <path id="Trazado_1052629" data-name="Trazado 1052629" d="M268.464,444.26a69.584,69.584,0,0,1-47.535,8.869C237.937,452.968,254.893,448.775,268.464,444.26Z" transform="translate(-195.834 -341.828)" fill="#de662a"/>
                </g>
              </g>
              <g id="Grupo_1206231" data-name="Grupo 1206231" transform="translate(135.782 188.036)">
                <path id="Trazado_1052630" data-name="Trazado 1052630" d="M196.944,255.122a14.139,14.139,0,0,0-6.66-7.522c-3.1-1.46-7.109-1.216-9.616,1.12a8.844,8.844,0,0,0-2.432,7.671,14.512,14.512,0,0,0,3.7,7.375,21.9,21.9,0,0,0,19.829,6.942C199.277,265.664,198.944,259.912,196.944,255.122Z" transform="translate(-178.137 -246.69)" fill="#ffab8c"/>
                <path id="Trazado_1052631" data-name="Trazado 1052631" d="M199.307,260.03a11.069,11.069,0,0,0-6.2-5.756c-2.568-.952-5.9-.734-7.529,1.425a5.535,5.535,0,0,0-.859,4.3c.6,3.339,3.438,5.977,6.647,7.273s6.767,1.464,10.24,1.479A44.132,44.132,0,0,0,199.307,260.03Z" transform="translate(-179.677 -248.366)" fill="#ed8072"/>
                <path id="Trazado_1052632" data-name="Trazado 1052632" d="M196.807,255.35a13.458,13.458,0,0,0-5.269-2.246,6.763,6.763,0,0,0-5.426,1.357,4.25,4.25,0,0,0-1.179,5.113,4.3,4.3,0,0,1,2.361-4.447,6.715,6.715,0,0,1,5.253-.152,16.061,16.061,0,0,1,4.592,2.8C197.076,257.137,197.014,256.5,196.807,255.35Z" transform="translate(-179.649 -248.194)" fill="#4f2b36"/>
              </g>
              <g id="Grupo_1206232" data-name="Grupo 1206232" transform="translate(170.409 223.654)">
                <path id="Trazado_1052633" data-name="Trazado 1052633" d="M265.426,311.053s-3.347,21.839-21.357,20.553c-16.283,0-20.5-19.627-20.5-19.627s5.09-1.47,6.987-4.482a1.923,1.923,0,0,0,.134-.253c1.7-3.328.49-13.825.49-13.825l23.674,3.755a24.494,24.494,0,0,0-.5,4.9c.016,2.237.077,3.808,1.524,5.255C258.745,310.206,265.426,311.053,265.426,311.053Z" transform="translate(-223.565 -293.419)" fill="#ffa382"/>
                <path id="Trazado_1052634" data-name="Trazado 1052634" d="M257.072,297.174a24.5,24.5,0,0,0-.5,4.9,43.613,43.613,0,0,1-23.666,5.169c1.7-3.328.49-13.825.49-13.825Z" transform="translate(-225.786 -293.419)" fill="#eb7563"/>
              </g>
              <g id="Grupo_1206245" data-name="Grupo 1206245" transform="translate(135.782 149.407)">
                <g id="Grupo_1206235" data-name="Grupo 1206235" transform="translate(0 38.629)">
                  <g id="Grupo_1206233" data-name="Grupo 1206233" transform="translate(86.634)">
                    <path id="Trazado_1052635" data-name="Trazado 1052635" d="M296.611,255.122a14.139,14.139,0,0,1,6.66-7.522c3.1-1.46,7.109-1.216,9.616,1.12a8.844,8.844,0,0,1,2.432,7.671,14.511,14.511,0,0,1-3.7,7.375,21.9,21.9,0,0,1-19.829,6.942C294.277,265.664,294.611,259.912,296.611,255.122Z" transform="translate(-291.794 -246.69)" fill="#ffa382"/>
                    <path id="Trazado_1052636" data-name="Trazado 1052636" d="M296.316,260.03a11.07,11.07,0,0,1,6.2-5.756c2.568-.952,5.9-.734,7.529,1.425a5.535,5.535,0,0,1,.859,4.3c-.6,3.339-3.438,5.977-6.647,7.273s-6.767,1.464-10.241,1.479A44.132,44.132,0,0,1,296.316,260.03Z" transform="translate(-292.321 -248.366)" fill="#eb7563"/>
                    <path id="Trazado_1052637" data-name="Trazado 1052637" d="M312.32,257.869c-.558-2.382-3.057-3.946-5.5-4.057a11.883,11.883,0,0,0-6.847,2.287" transform="translate(-293.739 -248.382)" fill="none" stroke="#c43945" stroke-linecap="round" stroke-linejoin="round" stroke-miterlimit="10" stroke-width="1"/>
                  </g>
                  <g id="Grupo_1206234" data-name="Grupo 1206234">
                    <path id="Trazado_1052638" data-name="Trazado 1052638" d="M196.944,255.122a14.139,14.139,0,0,0-6.66-7.522c-3.1-1.46-7.109-1.216-9.616,1.12a8.844,8.844,0,0,0-2.432,7.671,14.512,14.512,0,0,0,3.7,7.375,21.9,21.9,0,0,0,19.829,6.942C199.277,265.664,198.944,259.912,196.944,255.122Z" transform="translate(-178.137 -246.69)" fill="#ffa382"/>
                    <path id="Trazado_1052639" data-name="Trazado 1052639" d="M199.307,260.03a11.069,11.069,0,0,0-6.2-5.756c-2.568-.952-5.9-.734-7.529,1.425a5.535,5.535,0,0,0-.859,4.3c.6,3.339,3.438,5.977,6.647,7.273s6.767,1.464,10.24,1.479A44.132,44.132,0,0,0,199.307,260.03Z" transform="translate(-179.677 -248.366)" fill="#eb7563"/>
                    <path id="Trazado_1052640" data-name="Trazado 1052640" d="M184.59,259.786a4.537,4.537,0,0,1,2.185-4.89,7.152,7.152,0,0,1,5.577-.5,17.781,17.781,0,0,1,5.083,2.65" transform="translate(-179.639 -248.443)" fill="none" stroke="#c43945" stroke-linecap="round" stroke-linejoin="round" stroke-miterlimit="10" stroke-width="1"/>
                  </g>
                </g>
                <path id="Trazado_1052641" data-name="Trazado 1052641" d="M278.951,237.321c-.348,1.937-.759,3.889-1.241,5.833a61.071,61.071,0,0,1-8.545,20.085,37.145,37.145,0,0,1-9.058,9.319c-12.173,8.648-29.72,7.96-42.123-.364a41.728,41.728,0,0,1-9.225-8.5,48.853,48.853,0,0,1-9.4-19.524,50,50,0,0,1-1.328-10.2c9.454-9.667,15.832-22.693,16.568-36.123a33.141,33.141,0,0,0,27.476,21.508,38.242,38.242,0,0,1-5.817-23.342,58.637,58.637,0,0,0,39.158,25.3A56.368,56.368,0,0,0,278.951,237.321Z" transform="translate(-182.867 -196.012)" fill="#ffa382"/>
                <g id="Grupo_1206244" data-name="Grupo 1206244" transform="translate(16.494 13.214)">
                  <path id="Trazado_1052642" data-name="Trazado 1052642" d="M227.414,218.374a12.184,12.184,0,0,0-12.706-4.676,11.868,11.868,0,0,0-8.714,10.188,17.248,17.248,0,0,1,9.121-6.222C218.745,216.652,222.718,216.86,227.414,218.374Z" transform="translate(-201.254 -213.348)" fill="#b84453"/>
                  <path id="Trazado_1052643" data-name="Trazado 1052643" d="M264.981,218.374a12.184,12.184,0,0,1,12.706-4.676,11.868,11.868,0,0,1,8.714,10.188,17.251,17.251,0,0,0-9.121-6.222C273.65,216.652,269.676,216.86,264.981,218.374Z" transform="translate(-215.279 -213.348)" fill="#b84453"/>
                  <g id="Grupo_1206237" data-name="Grupo 1206237" transform="translate(6.227 12.658)">
                    <path id="Trazado_1052644" data-name="Trazado 1052644" d="M209.606,244.166c0-7.9,5.227-13.006,11.676-13.006s11.676,5.625,11.676,13.006c0,6.334-4.079,6.436-10.527,6.436S209.606,250.5,209.606,244.166Z" transform="translate(-208.34 -230.241)" fill="#fff"/>
                    <path id="Trazado_1052645" data-name="Trazado 1052645" d="M231.658,235.7c-2.114-3.671-5.92-5.535-10.231-5.733a13.183,13.183,0,0,0-11.227,5.156,12.45,12.45,0,0,0-1.446,11.627c-.206-3.746.489-7.742,3.012-10.572a12.7,12.7,0,0,1,10-3.825A20.42,20.42,0,0,1,231.658,235.7Z" transform="translate(-207.945 -229.955)" fill="#4f2b36"/>
                    <g id="Grupo_1206236" data-name="Grupo 1206236" transform="translate(12.154 4.158)">
                      <ellipse id="Elipse_14264" data-name="Elipse 14264" cx="6.232" cy="7.51" rx="6.232" ry="7.51" fill="#4f2b36"/>
                      <path id="Trazado_1052646" data-name="Trazado 1052646" d="M226.687,240.123c.833-1.522,2.451-2.241,3.614-1.6s1.43,2.387.6,3.909-2.451,2.241-3.614,1.6S225.853,241.645,226.687,240.123Z" transform="translate(-224.44 -236.094)" fill="#fff"/>
                    </g>
                  </g>
                  <g id="Grupo_1206239" data-name="Grupo 1206239" transform="translate(49.477 12.658)">
                    <path id="Trazado_1052647" data-name="Trazado 1052647" d="M288.038,244.166c0-7.9-5.227-13.006-11.676-13.006s-11.676,5.625-11.676,13.006c0,6.334,4.079,6.436,10.527,6.436S288.038,250.5,288.038,244.166Z" transform="translate(-264.686 -230.241)" fill="#fff"/>
                    <path id="Trazado_1052648" data-name="Trazado 1052648" d="M265.873,235.7c2.114-3.671,5.92-5.535,10.231-5.733a13.181,13.181,0,0,1,11.227,5.156,12.45,12.45,0,0,1,1.446,11.627c.206-3.746-.489-7.742-3.012-10.572a12.7,12.7,0,0,0-10-3.825A20.42,20.42,0,0,0,265.873,235.7Z" transform="translate(-264.968 -229.955)" fill="#4f2b36"/>
                    <g id="Grupo_1206238" data-name="Grupo 1206238" transform="translate(7.664 3.871)">
                      <ellipse id="Elipse_14265" data-name="Elipse 14265" cx="6.232" cy="7.51" rx="6.232" ry="7.51" fill="#4f2b36"/>
                      <path id="Trazado_1052649" data-name="Trazado 1052649" d="M286.681,239.746c-.833-1.522-2.451-2.241-3.614-1.6s-1.43,2.387-.6,3.909,2.451,2.241,3.614,1.6S287.515,241.268,286.681,239.746Z" transform="translate(-276.464 -235.717)" fill="#fff"/>
                    </g>
                  </g>
                  <path id="Trazado_1052650" data-name="Trazado 1052650" d="M247.8,254.354a5.875,5.875,0,0,0,2.246,6.5" transform="translate(-211.134 -223.098)" fill="none" stroke="#c43945" stroke-linecap="round" stroke-linejoin="round" stroke-miterlimit="10" stroke-width="1"/>
                  <path id="Trazado_1052651" data-name="Trazado 1052651" d="M237.5,268.77c6.569,1.5,11.209,1.278,16.426-.552,1.71-.6,3.657-1.364,5.266-.557a3.343,3.343,0,0,1,1.61,3.651,7.06,7.06,0,0,1-2.292,3.57,18.081,18.081,0,0,1-11.043,4.731,18.432,18.432,0,0,1-11.665-3.19,8.293,8.293,0,0,1-2.9-3.138,3.859,3.859,0,0,1,.3-3.987C234.1,268.176,235.651,268.347,237.5,268.77Z" transform="translate(-207.556 -226.179)" fill="#fff"/>
                  <g id="Grupo_1206241" data-name="Grupo 1206241" transform="translate(0 32.572)">
                    <path id="Trazado_1052652" data-name="Trazado 1052652" d="M214.992,274.234a15.3,15.3,0,0,1-5.817,3.746,48.853,48.853,0,0,1-9.4-19.524,15.726,15.726,0,0,1,7.043-2.348c3.929-.269,8.1,1.431,10.181,4.775C219.553,265,218.343,270.732,214.992,274.234Z" transform="translate(-199.776 -256.081)" fill="#eb6563"/>
                    <g id="Grupo_1206240" data-name="Grupo 1206240" transform="translate(6.829 4.563)">
                      <path id="Trazado_1052653" data-name="Trazado 1052653" d="M209.652,265.975l-.917,4.354" transform="translate(-208.735 -262.996)" fill="none" stroke="#c43945" stroke-linecap="round" stroke-linejoin="round" stroke-miterlimit="10" stroke-width="1"/>
                      <path id="Trazado_1052654" data-name="Trazado 1052654" d="M216.652,262.067l-.22,6.532" transform="translate(-210.565 -262.067)" fill="none" stroke="#c43945" stroke-linecap="round" stroke-linejoin="round" stroke-miterlimit="10" stroke-width="1"/>
                    </g>
                  </g>
                  <g id="Grupo_1206243" data-name="Grupo 1206243" transform="translate(61.706 32.572)">
                    <path id="Trazado_1052655" data-name="Trazado 1052655" d="M297.373,257.437a61.071,61.071,0,0,1-8.545,20.085,14.962,14.962,0,0,1-4.727-3.288c-3.344-3.5-4.553-9.232-2-13.351,2.079-3.344,6.253-5.043,10.181-4.775A14.635,14.635,0,0,1,297.373,257.437Z" transform="translate(-280.73 -256.081)" fill="#eb6563"/>
                    <g id="Grupo_1206242" data-name="Grupo 1206242" transform="translate(3.331 4.672)">
                      <path id="Trazado_1052656" data-name="Trazado 1052656" d="M286.933,265.524l-1.833,3.438" transform="translate(-285.1 -262.998)" fill="none" stroke="#c43945" stroke-linecap="round" stroke-linejoin="round" stroke-miterlimit="10" stroke-width="1"/>
                      <path id="Trazado_1052657" data-name="Trazado 1052657" d="M293.54,262.21q-.63,3.323-1.259,6.646" transform="translate(-286.807 -262.21)" fill="none" stroke="#c43945" stroke-linecap="round" stroke-linejoin="round" stroke-miterlimit="10" stroke-width="1"/>
                    </g>
                  </g>
                </g>
              </g>
            </g>
          </g>
        </g>
        <g id="TEXTS" transform="translate(-2381.296 1291.417)">
          <g id="Grupo_1206248" data-name="Grupo 1206248" transform="translate(0 0)">
            <text id="O" transform="translate(249.936 141.201)" fill="#ff6e70" font-size="48" font-family="SegoeUI-Bold, Segoe UI" font-weight="700"><tspan x="0" y="0">O</tspan></text>
            <text id="E" transform="translate(205.919 67.765)" fill="#ff6e70" font-size="47" font-family="SegoeUI-Bold, Segoe UI" font-weight="700"><tspan x="0" y="0">E</tspan></text>
            <text id="U" transform="translate(120.29 52)" fill="#ff6e70" font-size="48" font-family="SegoeUI-Bold, Segoe UI" font-weight="700"><tspan x="0" y="0">U</tspan></text>
            <text id="I" transform="translate(51.846 70.941)" fill="#ff6e70" font-size="45" font-family="SegoeUI-Bold, Segoe UI" font-weight="700"><tspan x="0" y="0">I</tspan></text>
            <text id="A" transform="translate(0 137.162)" fill="#ff6e70" font-size="47" font-family="SegoeUI-Bold, Segoe UI" font-weight="700"><tspan x="0" y="0">A</tspan></text>
          </g>
        </g>
      </g>
    </g>
  </g>
</svg>
