<svg xmlns="http://www.w3.org/2000/svg" xmlns:xlink="http://www.w3.org/1999/xlink" width="108" height="108" viewBox="0 0 108 108">
  <defs>
    <filter id="Trazado_904820" x="0" y="0" width="108" height="108" filterUnits="userSpaceOnUse">
      <feOffset dy="3" input="SourceAlpha"/>
      <feGaussianBlur stdDeviation="3" result="blur"/>
      <feFlood flood-opacity="0.161"/>
      <feComposite operator="in" in2="blur"/>
      <feComposite in="SourceGraphic"/>
    </filter>
  </defs>
  <g id="Grupo_1206256" data-name="Grupo 1206256" transform="translate(-200 -676)">
    <g id="Grupo_1182739" data-name="Grupo 1182739" transform="translate(-0.227 -102.67)">
      <g id="Grupo_1179560" data-name="Grupo 1179560" transform="translate(-0.227 23)">
        <g id="Grupo_1173787" data-name="Grupo 1173787" transform="translate(209.455 761.67)">
          <g id="Grupo_1171910" data-name="Grupo 1171910" transform="translate(0)">
            <g id="Grupo_1167341" data-name="Grupo 1167341">
              <g id="Grupo_1166792" data-name="Grupo 1166792">
                <g transform="matrix(1, 0, 0, 1, -9, -6)" filter="url(#Trazado_904820)">
                  <g id="Trazado_904820-2" data-name="Trazado 904820" transform="translate(9 6)" fill="#fff9e9">
                    <path d="M 44.99999618530273 88.50003051757812 C 39.12687301635742 88.50003051757812 33.43022155761719 87.35010528564453 28.06829643249512 85.08219909667969 C 22.88852119445801 82.89134216308594 18.23629570007324 79.75461578369141 14.24084663391113 75.75916290283203 C 10.24540901184082 71.76371765136719 7.108683586120605 67.11150360107422 4.917821407318115 61.93172836303711 C 2.649921178817749 56.56978988647461 1.499996185302734 50.87313842773438 1.499996185302734 45.00001525878906 C 1.499996185302734 39.12689208984375 2.649921178817749 33.43024063110352 4.917821407318115 28.06831550598145 C 7.108683586120605 22.88854026794434 10.24540901184082 18.23631477355957 14.24084663391113 14.24086570739746 C 18.23629570007324 10.24541568756104 22.88852119445801 7.10869026184082 28.06829643249512 4.917840480804443 C 33.43022155761719 2.649927854537964 39.12687301635742 1.50000274181366 44.99999618530273 1.50000274181366 C 50.87311935424805 1.50000274181366 56.56977081298828 2.649927854537964 61.93169784545898 4.917840480804443 C 67.11147308349609 7.10869026184082 71.76369476318359 10.24541568756104 75.75914764404297 14.24086570739746 C 79.75458526611328 18.23631477355957 82.89131164550781 22.88854026794434 85.08216857910156 28.06831550598145 C 87.35007476806641 33.43024063110352 88.5 39.12689208984375 88.5 45.00001525878906 C 88.5 50.87313842773438 87.35007476806641 56.56978988647461 85.08216857910156 61.93172836303711 C 82.89131164550781 67.11150360107422 79.75458526611328 71.76371765136719 75.75914764404297 75.75916290283203 C 71.76369476318359 79.75461578369141 67.11147308349609 82.89134216308594 61.93169784545898 85.08219909667969 C 56.56977081298828 87.35010528564453 50.87311935424805 88.50003051757812 44.99999618530273 88.50003051757812 Z" stroke="none"/>
                    <path d="M 44.99999618530273 3 C 39.32870864868164 3 33.82865142822266 4.110061645507812 28.65262603759766 6.299346923828125 C 23.65165710449219 8.414573669433594 19.15968322753906 11.44334411621094 15.301513671875 15.301513671875 C 11.44333648681641 19.15968322753906 8.414566040039062 23.65165710449219 6.299339294433594 28.65262985229492 C 4.110054016113281 33.82867050170898 2.999992370605469 39.32872772216797 2.999992370605469 45.00001525878906 C 2.999992370605469 50.67130279541016 4.110054016113281 56.17136001586914 6.299339294433594 61.34738922119141 C 8.414566040039062 66.34837341308594 11.44333648681641 70.84033203125 15.301513671875 74.69850158691406 C 19.15968322753906 78.55668640136719 23.65165710449219 81.58545684814453 28.65262603759766 83.70068359375 C 33.82865142822266 85.88996887207031 39.32870864868164 87.00003051757812 44.99999618530273 87.00003051757812 C 50.67128372192383 87.00003051757812 56.17134094238281 85.88996887207031 61.34736633300781 83.70068359375 C 66.34834289550781 81.58545684814453 70.84030914306641 78.55668640136719 74.69847869873047 74.69850158691406 C 78.55665588378906 70.84033203125 81.58542633056641 66.34837341308594 83.70065307617188 61.34738922119141 C 85.88993835449219 56.17136001586914 87 50.67130279541016 87 45.00001525878906 C 87 39.32872772216797 85.88993835449219 33.82867050170898 83.70065307617188 28.65262985229492 C 81.58542633056641 23.65165710449219 78.55665588378906 19.15968322753906 74.69847869873047 15.301513671875 C 70.84030914306641 11.44334411621094 66.34834289550781 8.414573669433594 61.34736633300781 6.299346923828125 C 56.17134094238281 4.110061645507812 50.67128372192383 3 44.99999618530273 3 M 44.99999618530273 0 C 69.85281372070312 0 90 20.14718627929688 90 45.00001525878906 C 90 69.85282897949219 69.85281372070312 90.00003051757812 44.99999618530273 90.00003051757812 C 20.14717864990234 90.00003051757812 -7.62939453125e-06 69.85282897949219 -7.62939453125e-06 45.00001525878906 C -7.62939453125e-06 20.14718627929688 20.14717864990234 0 44.99999618530273 0 Z" stroke="none" fill="#8b701c"/>
                  </g>
                </g>
              </g>
            </g>
          </g>
        </g>
      </g>
    </g>
    <g id="pensar_2_" data-name="pensar (2)" transform="translate(221.113 698.001)">
      <g id="Grupo_1206254" data-name="Grupo 1206254" transform="translate(5.735 5.377)">
        <g id="Grupo_1206252" data-name="Grupo 1206252" transform="translate(8.223 12.774)">
          <path id="Trazado_1052659" data-name="Trazado 1052659" d="M122.609,350.134h.022a3.447,3.447,0,0,0,0-6.893h-31.7a3.447,3.447,0,0,0,0,6.893h.022" transform="translate(-87.213 -322.578)" fill="#f1b986"/>
          <path id="Trazado_1052660" data-name="Trazado 1052660" d="M148.748,257.95a155.466,155.466,0,0,0-30.074,0,106.6,106.6,0,0,0-.687,18.7,8.821,8.821,0,0,0,8.4,8.363q7.323.346,14.645,0a8.821,8.821,0,0,0,8.4-8.363A106.616,106.616,0,0,0,148.748,257.95Z" transform="translate(-114.144 -246.286)" fill="#f1d0a5"/>
          <path id="Trazado_1052661" data-name="Trazado 1052661" d="M118.68,257.947q7.517-.729,15.037-.728a40.042,40.042,0,0,0-7.614.736q-.592,9.44-.348,18.878c.106,4.141,1.62,7.518,3.606,8.288q-1.483-.04-2.967-.111a8.822,8.822,0,0,1-8.4-8.363A106.744,106.744,0,0,1,118.68,257.947Z" transform="translate(-114.149 -246.283)" fill="#f1b986"/>
          <path id="Trazado_1052662" data-name="Trazado 1052662" d="M113.023,177.366c-5.762,2.226-13.947,1.244-18.071-2.881,0,0-.98,6.7-6.054,6.7l-2.213.744c-5.911-23.2,6.7-17,6.7-17a6,6,0,0,1,4.735-3.492c.159-.02.319-.035.479-.044l.038,0a10.512,10.512,0,0,1,3.715.56c.4.129.783.271,1.141.417a17.472,17.472,0,0,1,2.713,1.394l.043.029c1.3-1.717,2.535-3.27,3.9-3.27a1.419,1.419,0,0,1,1.2.555c.981,1.287.175,4.381.11,4.624l0,.011,0-.011.007-.018c.174-.439,2.123-5.161,5.619-5.161a2.732,2.732,0,0,1,.595.06c2.606.576.566,5.134.342,5.616l-.006.014-.012.025c.111-.142,4.475-5.682,6.415-3.14l0,0C126.373,165.674,118.782,175.141,113.023,177.366Z" transform="translate(-85.107 -160.518)" fill="#f4dd45"/>
          <g id="Grupo_1206251" data-name="Grupo 1206251" transform="translate(0 0)">
            <path id="Trazado_1052663" data-name="Trazado 1052663" d="M382.366,178.058h0c-.98-.98-4.377,3.644-6.417,3.143l.015-.028-.012.025C376.062,181.056,380.426,175.516,382.366,178.058Z" transform="translate(-343.058 -175.483)" fill="#ecc32e"/>
            <path id="Trazado_1052664" data-name="Trazado 1052664" d="M324.278,160.578c-1.473-.335-2.838,2.469-3.61,4.46a1.649,1.649,0,0,1-2.406.8l-.211-.131,0,0,0-.011h0l.007-.018c.174-.439,2.123-5.161,5.619-5.161A2.74,2.74,0,0,1,324.278,160.578Z" transform="translate(-291.708 -160.518)" fill="#ecc32e"/>
            <path id="Trazado_1052665" data-name="Trazado 1052665" d="M98.113,168.615c-4.215.743-5.808,10.408-3.164,13.052,0,0-.98,6.7-6.054,6.7l-2.213.744c-5.911-23.2,6.7-17,6.7-17A6,6,0,0,1,98.113,168.615Z" transform="translate(-85.104 -167.699)" fill="#ecc32e"/>
            <path id="Trazado_1052666" data-name="Trazado 1052666" d="M242.992,161.073c-1.482-1.482-2.469,6.116-5.8,7.333s-3.647-.339-3.647-.339h0c1.642-.607,3.028-2.527,4.352-4.279h0l.121-.16c.05-.068.1-.136.154-.2,1.2-1.566,2.357-2.907,3.621-2.907A1.419,1.419,0,0,1,242.992,161.073Z" transform="translate(-216.754 -160.518)" fill="#ecc32e"/>
          </g>
        </g>
        <circle id="Elipse_14267" data-name="Elipse 14267" cx="4.199" cy="4.199" r="4.199" transform="translate(44.78)" fill="#80b4fb"/>
        <path id="Trazado_1052667" data-name="Trazado 1052667" d="M416.3,57.24a4.2,4.2,0,1,1-5.649-5.649A4.2,4.2,0,0,0,416.3,57.24Z" transform="translate(-363.583 -51.135)" fill="#5490f9"/>
        <g id="Grupo_1206253" data-name="Grupo 1206253" transform="translate(0 7.594)">
          <circle id="Elipse_14268" data-name="Elipse 14268" cx="4.822" cy="4.822" r="4.822" fill="#f6f1f1"/>
        </g>
      </g>
      <g id="Grupo_1206255" data-name="Grupo 1206255" transform="translate(4.887 -0.001)">
        <path id="Trazado_1052668" data-name="Trazado 1052668" d="M226.186,410.553a4.438,4.438,0,0,0,3.991-2.524.848.848,0,0,0-1.532-.727,2.721,2.721,0,0,1-4.916,0,.848.848,0,1,0-1.532.727A4.438,4.438,0,0,0,226.186,410.553Z" transform="translate(-197.549 -360.812)"/>
        <path id="Trazado_1052669" data-name="Trazado 1052669" d="M183.458,346.313c0-1.175-.642-2.131-1.43-2.131s-1.43.956-1.43,2.131.641,2.131,1.43,2.131S183.458,347.488,183.458,346.313Z" transform="translate(-160.728 -305.26)"/>
        <path id="Trazado_1052670" data-name="Trazado 1052670" d="M313.226,346.313c0-1.175-.642-2.131-1.43-2.131s-1.43.956-1.43,2.131.641,2.131,1.43,2.131S313.226,347.488,313.226,346.313Z" transform="translate(-275.821 -305.26)"/>
        <path id="Trazado_1052671" data-name="Trazado 1052671" d="M116.572,154.931a5.48,5.48,0,0,0-3.336,1.574,3.625,3.625,0,0,0-.4-2.352,2.542,2.542,0,0,0-2.32-1.13,5.916,5.916,0,0,0-4.471,2.425,3.308,3.308,0,0,0-.59-1.534,2.267,2.267,0,0,0-1.88-.891c-1.577,0-2.839,1.364-4.106,3a19.046,19.046,0,0,0-2.224-1.087c-.4-.163-.8-.31-1.2-.44a11.271,11.271,0,0,0-4.02-.6H91.98c-.177.011-.355.027-.534.05a6.669,6.669,0,0,0-5,3.267c-1.326-.472-4.147-1.151-6.292.589-2.9,2.35-3.225,8.135-.98,17.194a4.291,4.291,0,0,0,2.277,7.2q.033,1.042.085,2.079a9.608,9.608,0,0,0,1.063,3.94.848.848,0,0,0,1.507-.779,7.92,7.92,0,0,1-.876-3.249c-.151-2.932-.176-5.908-.079-8.861a6.445,6.445,0,0,0,4.861-3.749,12.222,12.222,0,0,0,.875-2.178,16.8,16.8,0,0,0,7.8,3.1,20.251,20.251,0,0,0,10.078-.989,19.393,19.393,0,0,0,5.771-3.851,106.07,106.07,0,0,1,.453,16.532,7.952,7.952,0,0,1-7.6,7.559c-4.832.228-9.733.228-14.566,0a7.912,7.912,0,0,1-4.818-1.909.848.848,0,0,0-1.1,1.288,9.594,9.594,0,0,0,5.841,2.316c2.443.115,4.9.173,7.363.173s4.92-.058,7.363-.173a9.643,9.643,0,0,0,9.209-9.167q.053-1.038.085-2.079a4.294,4.294,0,0,0-.066-8.448q-.18-3.816-.629-7.612c2.33-2.474,4.164-5.24,4.737-7.27a3.237,3.237,0,0,0-.284-2.938,2.406,2.406,0,0,0-1.953-1Zm-36.911,23.05a2.6,2.6,0,0,1,1.789-2.47c-.05,1.639-.063,3.284-.038,4.925A2.6,2.6,0,0,1,79.661,177.982Zm36.9,0a2.6,2.6,0,0,1-1.752,2.456q.037-2.459-.039-4.926A2.6,2.6,0,0,1,116.56,177.982Zm.617-19.574c-.983,3.483-6.613,9.816-11.024,11.52a18.8,18.8,0,0,1-9.22.893,14.141,14.141,0,0,1-7.945-3.583.849.849,0,0,0-1.439.476,10.979,10.979,0,0,1-1.055,3.115,4.635,4.635,0,0,1-4.15,2.858h-.085a4.269,4.269,0,0,0-1.582.3c-2.379-9.939-1.04-13.576.544-14.867,1.993-1.624,5.193-.1,5.223-.084a.848.848,0,0,0,1.128-.372,5.149,5.149,0,0,1,4.085-3.039c.137-.017.275-.03.412-.039l.055,0a9.611,9.611,0,0,1,3.4.521c.36.116.723.249,1.08.4a17.269,17.269,0,0,1,1.831.88c-1.087,1.429-2.21,2.8-3.4,3.243a.848.848,0,0,0,.588,1.591c1.795-.663,3.19-2.513,4.54-4.3,1.184-1.571,2.409-3.2,3.416-3.2a.583.583,0,0,1,.529.221c.525.69.294,2.695-.037,3.9a.848.848,0,0,0,1.61.528c.018-.046,1.806-4.646,4.838-4.646.672,0,.826.244.884.336.5.786-.13,2.91-.731,4.165a.848.848,0,0,0,1.433.889c.886-1.137,3.138-3.482,4.455-3.482h.005a.713.713,0,0,1,.613.333A1.835,1.835,0,0,1,117.176,158.408Z" transform="translate(-69.472 -135.718)"/>
        <path id="Trazado_1052672" data-name="Trazado 1052672" d="M59.6,7.139h2.224l1.6,5.941a.848.848,0,0,0,.8.628h.017a.848.848,0,0,0,.809-.595L68.621,1.7h5.067a.848.848,0,1,0,0-1.7H68A.848.848,0,0,0,67.189.6L64.3,9.825,63.291,6.071a.848.848,0,0,0-.819-.628H59.6a.848.848,0,1,0,0,1.7Z" transform="translate(-52.659 -0.001)"/>
        <path id="Trazado_1052673" data-name="Trazado 1052673" d="M145.388,44.9c-1.422,2.031-2.27,3.143-2.726,3.74-.557.729-.765,1-.617,1.483a.891.891,0,0,0,.58.586,7.724,7.724,0,0,0,1.954.08c.681,0,1.612-.007,2.892-.023a.848.848,0,0,0-.01-1.7h-.011c-1.04.013-2.148.02-3,.021.506-.67,1.257-1.687,2.328-3.218a6.647,6.647,0,0,0,1.084-2.241.842.842,0,0,0,.015-.084l.044-.347a.856.856,0,0,0,.007-.108,3.142,3.142,0,0,0-6.225-.608.848.848,0,1,0,1.665.327,1.446,1.446,0,0,1,2.863.233l-.031.242A5.11,5.11,0,0,1,145.388,44.9Z" transform="translate(-126.218 -35.433)"/>
        <path id="Trazado_1052674" data-name="Trazado 1052674" d="M396.847,29.6c2.5-3.191,2.232-4.219,1.7-4.754s-1.564-.809-4.755,1.7a5.039,5.039,0,0,0-2.019-.283.848.848,0,1,0,.11,1.693,3.341,3.341,0,0,1,2.962,1.425c-.667.789-1.431,1.619-2.239,2.426s-1.637,1.572-2.426,2.239a3.348,3.348,0,0,1-.661-4.887.848.848,0,0,0-1.3-1.086,5.016,5.016,0,0,0-.876,4.927c-2.5,3.186-2.227,4.213-1.691,4.749a1.168,1.168,0,0,0,.877.359c.711,0,1.863-.475,3.878-2.057a5.046,5.046,0,0,0,6.447-6.448Zm.078-3.136a12.444,12.444,0,0,1-1,1.547c-.084-.1-.17-.193-.262-.285s-.187-.178-.285-.261A12.419,12.419,0,0,1,396.925,26.462Zm-9.663,9.663a12.428,12.428,0,0,1,1-1.547c.084.1.17.192.262.284s.188.179.285.262A12.438,12.438,0,0,1,387.263,36.124Zm7.2-2.463a3.34,3.34,0,0,1-2.395.979c.576-.515,1.16-1.068,1.733-1.641s1.125-1.157,1.641-1.733A3.341,3.341,0,0,1,394.463,33.662Z" transform="translate(-342.268 -21.715)"/>
        <path id="Trazado_1052675" data-name="Trazado 1052675" d="M224.192,18.594a.848.848,0,0,0,1.095-.491l.669-1.757h4.489l.662,1.755a.848.848,0,1,0,1.587-.6L229.2,8.253l-.009-.023a1.057,1.057,0,0,0-.981-.657h0a1.057,1.057,0,0,0-.981.66l-.007.019L223.7,17.5A.848.848,0,0,0,224.192,18.594Zm4.018-8.168L229.8,14.65h-3.2Z" transform="translate(-198.907 -6.716)"/>
        <path id="Trazado_1052676" data-name="Trazado 1052676" d="M15.161,15.658a.848.848,0,0,0,1.2,0l.408-.408.408.408a.848.848,0,1,0,1.2-1.2l-.408-.408.408-.408a.848.848,0,1,0-1.2-1.2l-.408.408-.408-.408a.848.848,0,0,0-1.2,1.2l.408.408-.408.408A.848.848,0,0,0,15.161,15.658Z" transform="translate(-13.779 -10.815)"/>
        <path id="Trazado_1052677" data-name="Trazado 1052677" d="M475.639,144.359a.848.848,0,0,0-1.2,0l-.408.408-.408-.408a.848.848,0,1,0-1.2,1.2l.408.408-.408.408a.848.848,0,1,0,1.2,1.2l.408-.408.408.408a.848.848,0,1,0,1.2-1.2l-.408-.408.408-.408A.848.848,0,0,0,475.639,144.359Z" transform="translate(-419.332 -127.814)"/>
        <path id="Trazado_1052678" data-name="Trazado 1052678" d="M319.589,108.869a.848.848,0,0,0,1.2,0l.408-.408.408.408a.848.848,0,1,0,1.2-1.2l-.408-.408.408-.408a.848.848,0,1,0-1.2-1.2l-.408.408-.408-.408a.848.848,0,1,0-1.2,1.2l.408.408-.408.408A.848.848,0,0,0,319.589,108.869Z" transform="translate(-283.78 -93.486)"/>
        <path id="Trazado_1052679" data-name="Trazado 1052679" d="M19.27,288.228H17.635v-1.635a.848.848,0,1,0-1.7,0v1.635H14.3a.848.848,0,0,0,0,1.7h1.635v1.635a.848.848,0,0,0,1.7,0v-1.635H19.27a.848.848,0,0,0,0-1.7Z" transform="translate(-12.486 -253.431)"/>
        <path id="Trazado_1052680" data-name="Trazado 1052680" d="M10.557,118.555a5.67,5.67,0,1,0-5.67-5.67A5.676,5.676,0,0,0,10.557,118.555Zm0-9.643a3.973,3.973,0,1,1-3.974,3.973A3.978,3.978,0,0,1,10.557,108.912Z" transform="translate(-4.887 -95.091)"/>
        <path id="Trazado_1052681" data-name="Trazado 1052681" d="M48.371,132.523h1.27a.848.848,0,1,0,0-1.7h-.421v-1.578a.848.848,0,1,0-1.7,0v2.426A.848.848,0,0,0,48.371,132.523Z" transform="translate(-42.701 -113.881)"/>
        <path id="Trazado_1052682" data-name="Trazado 1052682" d="M346.4,5.779h1.76L346.78,8.646a.848.848,0,1,0,1.529.735L350.271,5.3a.848.848,0,0,0-.764-1.216h-1.76l1.378-2.867A.848.848,0,0,0,347.6.48l-1.963,4.083a.848.848,0,0,0,.764,1.216Z" transform="translate(-307.026 0.001)"/>
        <path id="Trazado_1052683" data-name="Trazado 1052683" d="M452.563,216.382a2.767,2.767,0,0,0-2.22-4.42h-2.424a.848.848,0,0,0-.848.848v8.344a.848.848,0,0,0,.848.848h0s2.229-.01,2.843-.01a3.093,3.093,0,0,0,1.8-5.611Zm-2.22-2.723a1.072,1.072,0,0,1,0,2.144l-.884,0h-.691v-2.146Zm.423,6.638c-.365,0-1.3,0-2,.006v-2.8l.7,0h1.3a1.4,1.4,0,1,1,0,2.8Z" transform="translate(-397.066 -187.992)"/>
      </g>
    </g>
  </g>
</svg>
