<svg xmlns="http://www.w3.org/2000/svg" xmlns:xlink="http://www.w3.org/1999/xlink" width="93.934" height="93.934" viewBox="0 0 93.934 93.934">
  <defs>
    <filter id="Trazado_982547" x="0" y="0" width="93.934" height="93.934" filterUnits="userSpaceOnUse">
      <feOffset dy="3" input="SourceAlpha"/>
      <feGaussianBlur stdDeviation="3" result="blur"/>
      <feFlood flood-opacity="0.161"/>
      <feComposite operator="in" in2="blur"/>
      <feComposite in="SourceGraphic"/>
    </filter>
  </defs>
  <g id="Grupo_1206454" data-name="Grupo 1206454" transform="translate(-189 -8543)">
    <g id="Grupo_1185087" data-name="Grupo 1185087" transform="translate(0 8196.939)">
      <g id="Grupo_1181939" data-name="Grupo 1181939" transform="translate(0 -388.939)">
        <g id="Grupo_1175133" data-name="Grupo 1175133" transform="translate(-0.033 -1251)">
          <g id="Grupo_1167337" data-name="Grupo 1167337" transform="translate(198.033 1992)">
            <g id="Grupo_1166720" data-name="Grupo 1166720">
              <g id="Grupo_1164305" data-name="Grupo 1164305">
                <g id="Grupo_1163948" data-name="Grupo 1163948">
                  <g id="Grupo_1158168" data-name="Grupo 1158168">
                    <g id="Grupo_1152576" data-name="Grupo 1152576">
                      <g id="Grupo_1148633" data-name="Grupo 1148633">
                        <g id="Grupo_1148525" data-name="Grupo 1148525">
                          <g transform="matrix(1, 0, 0, 1, -9, -6)" filter="url(#Trazado_982547)">
                            <g id="Trazado_982547-2" data-name="Trazado 982547" transform="translate(9 6)" fill="#eaf9f8">
                              <path d="M 37.966796875 74.43359375 C 33.04315185546875 74.43359375 28.26757431030273 73.46962738037109 23.77274131774902 71.56847381591797 C 19.43047523498535 69.73184967041016 15.53040790557861 67.10224914550781 12.18087482452393 63.75271987915039 C 8.831341743469238 60.4031867980957 6.201741218566895 56.50312042236328 4.365118980407715 52.16086196899414 C 2.463963508605957 47.66601943969727 1.499996900558472 42.89044189453125 1.499996900558472 37.966796875 C 1.499996900558472 33.04315185546875 2.463963508605957 28.26757431030273 4.365118980407715 23.77274131774902 C 6.201741218566895 19.43047523498535 8.831341743469238 15.53040790557861 12.18087482452393 12.18087482452393 C 15.53040790557861 8.831341743469238 19.43047523498535 6.201741218566895 23.77274131774902 4.365118980407715 C 28.26757431030273 2.463963508605957 33.04315185546875 1.499996900558472 37.966796875 1.499996900558472 C 42.89044189453125 1.499996900558472 47.66601943969727 2.463963508605957 52.16086196899414 4.365118980407715 C 56.50312042236328 6.201741218566895 60.4031867980957 8.831341743469238 63.75271987915039 12.18087482452393 C 67.10224914550781 15.53040790557861 69.73184967041016 19.43047523498535 71.56847381591797 23.77274131774902 C 73.46962738037109 28.26757431030273 74.43359375 33.04315185546875 74.43359375 37.966796875 C 74.43359375 42.89044189453125 73.46962738037109 47.66601943969727 71.56847381591797 52.16086196899414 C 69.73184967041016 56.50313186645508 67.10224914550781 60.4031867980957 63.75271987915039 63.75271987915039 C 60.4031867980957 67.10224914550781 56.50313186645508 69.73184967041016 52.16086196899414 71.56847381591797 C 47.66601943969727 73.46962738037109 42.89044189453125 74.43359375 37.966796875 74.43359375 Z" stroke="none"/>
                              <path d="M 37.966796875 3 C 33.2449836730957 3 28.66600799560547 3.924095153808594 24.35705947875977 5.746635437011719 C 20.19359588623047 7.507637023925781 16.45379638671875 10.02928161621094 13.24153518676758 13.24153518676758 C 10.02927398681641 16.45379638671875 7.507621765136719 20.19359588623047 5.746635437011719 24.35705947875977 C 3.924095153808594 28.66600799560547 3 33.2449836730957 3 37.966796875 C 3 42.6886100769043 3.924095153808594 47.26758575439453 5.746635437011719 51.57653427124023 C 7.507621765136719 55.73999786376953 10.02927398681641 59.47979736328125 13.24153518676758 62.69205856323242 C 16.45379638671875 65.90431976318359 20.19359588623047 68.42597198486328 24.35705947875977 70.18695831298828 C 28.66600799560547 72.00949859619141 33.2449836730957 72.93359375 37.966796875 72.93359375 C 42.6886100769043 72.93359375 47.26758575439453 72.00949859619141 51.57653427124023 70.18695831298828 C 55.73999786376953 68.42597198486328 59.47979736328125 65.90431976318359 62.69205856323242 62.69205856323242 C 65.90431976318359 59.47979736328125 68.42597198486328 55.73999786376953 70.18695831298828 51.57653427124023 C 72.00949859619141 47.26758575439453 72.93359375 42.6886100769043 72.93359375 37.966796875 C 72.93359375 33.2449836730957 72.00949859619141 28.66600799560547 70.18695831298828 24.35705947875977 C 68.42597198486328 20.19359588623047 65.90431976318359 16.45379638671875 62.69205856323242 13.24153518676758 C 59.47979736328125 10.02928161621094 55.73999786376953 7.507637023925781 51.57653427124023 5.746635437011719 C 47.26758575439453 3.924095153808594 42.6886100769043 3 37.966796875 3 M 37.966796875 0 C 58.93528366088867 0 75.93359375 16.99832153320312 75.93359375 37.966796875 C 75.93359375 58.93528366088867 58.93528366088867 75.93359375 37.966796875 75.93359375 C 16.99831008911133 75.93359375 0 58.93528366088867 0 37.966796875 C 0 16.99832153320312 16.99831008911133 0 37.966796875 0 Z" stroke="none" fill="#1f7069"/>
                            </g>
                          </g>
                        </g>
                      </g>
                    </g>
                  </g>
                </g>
              </g>
            </g>
          </g>
        </g>
      </g>
    </g>
    <g id="idea_1_" data-name="idea (1)" transform="translate(124.466 8559.999)">
      <g id="Grupo_1206453" data-name="Grupo 1206453" transform="translate(96.457 0.785)">
        <g id="Grupo_1206445" data-name="Grupo 1206445" transform="translate(4.958)">
          <g id="Grupo_1206444" data-name="Grupo 1206444">
            <g id="Grupo_1206443" data-name="Grupo 1206443">
              <g id="Grupo_1206442" data-name="Grupo 1206442">
                <g id="Grupo_1206441" data-name="Grupo 1206441">
                  <g id="Grupo_1206440" data-name="Grupo 1206440">
                    <path id="Trazado_1076342" data-name="Trazado 1076342" d="M175.567,30.784V29.559a7.871,7.871,0,0,1,2.088-5.373,9.864,9.864,0,0,0,2.662-6.748A9.978,9.978,0,0,0,170.439,7.5a10.082,10.082,0,0,0-10.154,9.817,9.865,9.865,0,0,0,2.673,6.884,7.783,7.783,0,0,1,2.076,5.322v1.263h10.533Z" transform="translate(-160.285 -7.496)" fill="#f4eb59"/>
                  </g>
                </g>
              </g>
            </g>
            <path id="Trazado_1076343" data-name="Trazado 1076343" d="M169.238,24.2c-1.1-1.614-2.124-2.275-2.657-4.05a7.535,7.535,0,0,1-.1-3.611c.859-4.9,6.2-8.074,6.993-8.533a10.033,10.033,0,0,0-13.183,9.31,9.865,9.865,0,0,0,2.673,6.884,7.783,7.783,0,0,1,2.076,5.322v1.263h6.279V29.521A13.341,13.341,0,0,0,169.238,24.2Z" transform="translate(-160.286 -7.496)" fill="#fdcf5e"/>
          </g>
        </g>
        <g id="Grupo_1206452" data-name="Grupo 1206452" transform="translate(0 19.969)">
          <path id="Trazado_1076344" data-name="Trazado 1076344" d="M137.791,230.361H117.977a5.066,5.066,0,0,1-5.066-5.066v-12a14.973,14.973,0,0,1,29.947,0v12A5.066,5.066,0,0,1,137.791,230.361Z" transform="translate(-112.911 -198.322)" fill="#5c576e"/>
          <path id="Trazado_1076345" data-name="Trazado 1076345" d="M120.171,225.223c-3.356-6.4-2.929-15.482,2.4-21.405a18.067,18.067,0,0,1,8.453-5.165A14.982,14.982,0,0,0,112.911,213.3v12a5.066,5.066,0,0,0,5.066,5.066h6.279A17.852,17.852,0,0,1,120.171,225.223Z" transform="translate(-112.911 -198.322)" fill="#4f4c5e"/>
          <g id="Grupo_1206451" data-name="Grupo 1206451" transform="translate(0 7.522)">
            <g id="Grupo_1206448" data-name="Grupo 1206448">
              <g id="Grupo_1206446" data-name="Grupo 1206446" transform="translate(0 4.168)">
                <path id="Trazado_1076346" data-name="Trazado 1076346" d="M116.167,316.544h1.153v-6.513h-1.153a3.257,3.257,0,1,0,0,6.513Z" transform="translate(-112.91 -310.031)" fill="#f7bbb0"/>
                <path id="Trazado_1076347" data-name="Trazado 1076347" d="M358.1,316.544h-1.153v-6.513H358.1a3.257,3.257,0,1,1,0,6.513Z" transform="translate(-331.409 -310.031)" fill="#fdc9bc"/>
              </g>
              <g id="Grupo_1206447" data-name="Grupo 1206447" transform="translate(3.76)">
                <path id="Trazado_1076348" data-name="Trazado 1076348" d="M160.015,291.564a11.292,11.292,0,0,1-11.174-11.335v-5.859a24.717,24.717,0,0,0,9.309-1.772,24.373,24.373,0,0,0,4.368-2.3.584.584,0,0,1,.784.132,10.153,10.153,0,0,0,7.965,3.94v5.98A11.214,11.214,0,0,1,160.015,291.564Z" transform="translate(-148.841 -270.202)" fill="#ffdbcd"/>
              </g>
              <path id="Trazado_1076349" data-name="Trazado 1076349" d="M155.122,302.6a24.962,24.962,0,0,1-6.281.778v5.859A11.22,11.22,0,0,0,163.2,320.122a11.349,11.349,0,0,1-8.083-10.886Z" transform="translate(-145.081 -299.209)" fill="#fdc9bc"/>
            </g>
            <g id="Grupo_1206450" data-name="Grupo 1206450" transform="translate(6.236 8.251)">
              <g id="Grupo_1206449" data-name="Grupo 1206449">
                <ellipse id="Elipse_14286" data-name="Elipse 14286" cx="2.355" cy="1.875" rx="2.355" ry="1.875" fill="#fd9faa"/>
                <ellipse id="Elipse_14287" data-name="Elipse 14287" cx="2.355" cy="1.875" rx="2.355" ry="1.875" transform="translate(12.765)" fill="#fd9faa"/>
              </g>
            </g>
          </g>
        </g>
      </g>
      <path id="Trazado_1076350" data-name="Trazado 1076350" d="M116.44,34.849a.785.785,0,0,0-.785.785V36.6a.785.785,0,0,0,1.57,0v-.963A.785.785,0,0,0,116.44,34.849ZM98.111,15.887a.785.785,0,0,0-.785-1.359l-2.078,1.2a.785.785,0,1,0,.785,1.359Zm-.392-4a.785.785,0,0,0,0-1.57h-2.4a.785.785,0,0,0,0,1.57Zm27.425-4.109a.781.781,0,0,0,.392-.105l2.078-1.2a.785.785,0,1,0-.785-1.359l-2.078,1.2a.785.785,0,0,0,.393,1.465Zm-29.9-1.3,2.078,1.2a.785.785,0,0,0,.785-1.359l-2.078-1.2a.785.785,0,1,0-.785,1.359Zm18.019,29.507a.785.785,0,0,0-1.107.076.965.965,0,0,1-1.458,0,.785.785,0,1,0-1.184,1.031,2.535,2.535,0,0,0,3.825,0A.785.785,0,0,0,113.267,35.976Zm-6.846-1.127a.785.785,0,0,0-.785.785V36.6a.785.785,0,1,0,1.57,0v-.963A.785.785,0,0,0,106.42,34.849Zm21.192-19.122-2.078-1.2a.785.785,0,1,0-.785,1.359l2.078,1.2a.785.785,0,0,0,.785-1.359Zm-.071-5.414h-2.4a.785.785,0,1,0,0,1.57h2.4a.785.785,0,0,0,0-1.57Zm-.356,25.277a15.654,15.654,0,0,0-2.871-8.938.785.785,0,0,0-1.283.9,14.089,14.089,0,0,1,2.145,4.65,4.015,4.015,0,0,0-2.03-.549,9.4,9.4,0,0,1-7.849-3.635,1.375,1.375,0,0,0-1.838-.305,23.637,23.637,0,0,1-4.227,2.226,25.383,25.383,0,0,1-9.52,1.714,4.014,4.014,0,0,0-2.029.549A14.19,14.19,0,0,1,120.7,24.986a.785.785,0,1,0,1.026-1.188,15.725,15.725,0,0,0-4.069-2.546,6.946,6.946,0,0,1,1.7-3.243,10.673,10.673,0,0,0-.245-14.821A10.782,10.782,0,0,0,103.893,3.1a10.6,10.6,0,0,0-.378,14.921,6.885,6.885,0,0,1,1.693,3.227,15.781,15.781,0,0,0-9.535,14.407c0,.014,0,5.734,0,5.734a.785.785,0,1,0,1.57,0V38.9a4,4,0,0,0,2.275.84,12.069,12.069,0,0,0,11.871,10.686h.043a12,12,0,0,0,11.927-10.686,4,4,0,0,0,2.262-.839v8.83a4.286,4.286,0,0,1-4.281,4.281H101.523a4.286,4.286,0,0,1-4.281-4.281V45.055a.785.785,0,0,0-1.57,0v2.673a5.858,5.858,0,0,0,5.851,5.851h19.814a5.858,5.858,0,0,0,5.851-5.851c.029-.077,0-12.061,0-12.137ZM109.316,13.641h-.757a.757.757,0,1,1,.757-.757Zm2.658,6.339c-.181-.006-.362-.01-.544-.01s-.363,0-.544.01V15.21h1.088Zm-7.314-3.028a9.031,9.031,0,0,1,.327-12.725A9.213,9.213,0,0,1,118,4.3a9.1,9.1,0,0,1,.21,12.644,8.495,8.495,0,0,0-2.034,3.762,15.761,15.761,0,0,0-2.632-.59v-4.9h.757a2.326,2.326,0,1,0-2.326-2.326v.757h-1.088v-.757a2.326,2.326,0,1,0-2.326,2.326h.757v4.9a15.638,15.638,0,0,0-2.626.587,8.436,8.436,0,0,0-2.029-3.747Zm8.883-3.311v-.757a.757.757,0,1,1,.757.757ZM99.432,38.156a2.472,2.472,0,0,1-2.19-2.471,2.475,2.475,0,0,1,2.19-2.441v4.912Zm22.427.269a10.429,10.429,0,0,1-10.465,10.429A10.509,10.509,0,0,1,101,38.3V33.22a25.311,25.311,0,0,0,8.818-1.82,25.2,25.2,0,0,0,4.352-2.271,10.929,10.929,0,0,0,7.687,4.066Zm3.035-.976a2.447,2.447,0,0,1-1.466.708V33.244a2.472,2.472,0,0,1,1.466,4.2Z" transform="translate(0 0)"/>
    </g>
  </g>
</svg>
