<svg xmlns="http://www.w3.org/2000/svg" xmlns:xlink="http://www.w3.org/1999/xlink" width="93.934" height="93.934" viewBox="0 0 93.934 93.934">
  <defs>
    <filter id="Trazado_982547" x="0" y="0" width="93.934" height="93.934" filterUnits="userSpaceOnUse">
      <feOffset dy="3" input="SourceAlpha"/>
      <feGaussianBlur stdDeviation="3" result="blur"/>
      <feFlood flood-opacity="0.161"/>
      <feComposite operator="in" in2="blur"/>
      <feComposite in="SourceGraphic"/>
    </filter>
  </defs>
  <g id="Grupo_1206469" data-name="Grupo 1206469" transform="translate(-189 -8684.033)">
    <g id="Grupo_1185089" data-name="Grupo 1185089" transform="translate(0 8337.973)">
      <g id="Grupo_1181939" data-name="Grupo 1181939" transform="translate(0 -388.939)">
        <g id="Grupo_1175133" data-name="Grupo 1175133" transform="translate(-0.033 -1251)">
          <g id="Grupo_1167337" data-name="Grupo 1167337" transform="translate(198.033 1992)">
            <g id="Grupo_1166720" data-name="Grupo 1166720">
              <g id="Grupo_1164305" data-name="Grupo 1164305">
                <g id="Grupo_1163948" data-name="Grupo 1163948">
                  <g id="Grupo_1158168" data-name="Grupo 1158168">
                    <g id="Grupo_1152576" data-name="Grupo 1152576">
                      <g id="Grupo_1148633" data-name="Grupo 1148633">
                        <g id="Grupo_1148525" data-name="Grupo 1148525">
                          <g transform="matrix(1, 0, 0, 1, -9, -6)" filter="url(#Trazado_982547)">
                            <g id="Trazado_982547-2" data-name="Trazado 982547" transform="translate(9 6)" fill="#eaf9f8">
                              <path d="M 37.966796875 74.43359375 C 33.04315185546875 74.43359375 28.26757431030273 73.46962738037109 23.77274131774902 71.56847381591797 C 19.43047523498535 69.73184967041016 15.53040790557861 67.10224914550781 12.18087482452393 63.75271987915039 C 8.831341743469238 60.4031867980957 6.201741218566895 56.50312042236328 4.365118980407715 52.16086196899414 C 2.463963508605957 47.66601943969727 1.499996900558472 42.89044189453125 1.499996900558472 37.966796875 C 1.499996900558472 33.04315185546875 2.463963508605957 28.26757431030273 4.365118980407715 23.77274131774902 C 6.201741218566895 19.43047523498535 8.831341743469238 15.53040790557861 12.18087482452393 12.18087482452393 C 15.53040790557861 8.831341743469238 19.43047523498535 6.201741218566895 23.77274131774902 4.365118980407715 C 28.26757431030273 2.463963508605957 33.04315185546875 1.499996900558472 37.966796875 1.499996900558472 C 42.89044189453125 1.499996900558472 47.66601943969727 2.463963508605957 52.16086196899414 4.365118980407715 C 56.50312042236328 6.201741218566895 60.4031867980957 8.831341743469238 63.75271987915039 12.18087482452393 C 67.10224914550781 15.53040790557861 69.73184967041016 19.43047523498535 71.56847381591797 23.77274131774902 C 73.46962738037109 28.26757431030273 74.43359375 33.04315185546875 74.43359375 37.966796875 C 74.43359375 42.89044189453125 73.46962738037109 47.66601943969727 71.56847381591797 52.16086196899414 C 69.73184967041016 56.50313186645508 67.10224914550781 60.4031867980957 63.75271987915039 63.75271987915039 C 60.4031867980957 67.10224914550781 56.50313186645508 69.73184967041016 52.16086196899414 71.56847381591797 C 47.66601943969727 73.46962738037109 42.89044189453125 74.43359375 37.966796875 74.43359375 Z" stroke="none"/>
                              <path d="M 37.966796875 3 C 33.2449836730957 3 28.66600799560547 3.924095153808594 24.35705947875977 5.746635437011719 C 20.19359588623047 7.507637023925781 16.45379638671875 10.02928161621094 13.24153518676758 13.24153518676758 C 10.02927398681641 16.45379638671875 7.507621765136719 20.19359588623047 5.746635437011719 24.35705947875977 C 3.924095153808594 28.66600799560547 3 33.2449836730957 3 37.966796875 C 3 42.6886100769043 3.924095153808594 47.26758575439453 5.746635437011719 51.57653427124023 C 7.507621765136719 55.73999786376953 10.02927398681641 59.47979736328125 13.24153518676758 62.69205856323242 C 16.45379638671875 65.90431976318359 20.19359588623047 68.42597198486328 24.35705947875977 70.18695831298828 C 28.66600799560547 72.00949859619141 33.2449836730957 72.93359375 37.966796875 72.93359375 C 42.6886100769043 72.93359375 47.26758575439453 72.00949859619141 51.57653427124023 70.18695831298828 C 55.73999786376953 68.42597198486328 59.47979736328125 65.90431976318359 62.69205856323242 62.69205856323242 C 65.90431976318359 59.47979736328125 68.42597198486328 55.73999786376953 70.18695831298828 51.57653427124023 C 72.00949859619141 47.26758575439453 72.93359375 42.6886100769043 72.93359375 37.966796875 C 72.93359375 33.2449836730957 72.00949859619141 28.66600799560547 70.18695831298828 24.35705947875977 C 68.42597198486328 20.19359588623047 65.90431976318359 16.45379638671875 62.69205856323242 13.24153518676758 C 59.47979736328125 10.02928161621094 55.73999786376953 7.507637023925781 51.57653427124023 5.746635437011719 C 47.26758575439453 3.924095153808594 42.6886100769043 3 37.966796875 3 M 37.966796875 0 C 58.93528366088867 0 75.93359375 16.99832153320312 75.93359375 37.966796875 C 75.93359375 58.93528366088867 58.93528366088867 75.93359375 37.966796875 75.93359375 C 16.99831008911133 75.93359375 0 58.93528366088867 0 37.966796875 C 0 16.99832153320312 16.99831008911133 0 37.966796875 0 Z" stroke="none" fill="#1f7069"/>
                            </g>
                          </g>
                        </g>
                      </g>
                    </g>
                  </g>
                </g>
              </g>
            </g>
          </g>
        </g>
      </g>
    </g>
    <g id="argumento" transform="translate(212.412 8704.445)">
      <g id="Grupo_1206467" data-name="Grupo 1206467" transform="translate(0.693 0.691)">
        <g id="Grupo_1206464" data-name="Grupo 1206464" transform="translate(0 19.134)">
          <path id="Trazado_1076380" data-name="Trazado 1076380" d="M31.277,226.687l-13.228,6.462-5.8,2.831c-2.284-2.763-7.578-8.934-2.822-14.566,3.66-4.334,9.534-4.433,9.534-4.433S28.481,209.807,31.277,226.687Z" transform="translate(-7.51 -215.466)" fill="#f4dd45"/>
          <path id="Trazado_1076381" data-name="Trazado 1076381" d="M16.4,246.5l1.648,1.591-5.8,2.831c-2.284-2.763-7.578-8.934-2.822-14.566,3.66-4.334,9.534-4.433,9.534-4.433-8.794,4.292-5.617,12.159-2.564,14.576Z" transform="translate(-7.51 -230.413)" fill="#eab14d"/>
          <path id="Trazado_1076382" data-name="Trazado 1076382" d="M52.852,349.123a2.878,2.878,0,0,1-4.061-1.925,1.42,1.42,0,0,1,2.658-.949l16.538-8.072a1.42,1.42,0,0,1,2.384-1.511,2.878,2.878,0,0,1-.98,4.386" transform="translate(-44.953 -325.02)" fill="#eaac9d"/>
          <path id="Trazado_1076383" data-name="Trazado 1076383" d="M81.334,308.663l2.057,4.215a6.706,6.706,0,0,1-3.085,8.968l-4.484,2.189a6.707,6.707,0,0,1-8.968-3.085l-2-4.1c1.185-.793,2.424-1.683,3.615-2.639,2.888-2.317,5.5-5.027,6.428-7.715C74.9,306.5,77.9,309.75,81.334,308.663Z" transform="translate(-59.578 -298.124)" fill="#ffcbbe"/>
          <path id="Trazado_1076384" data-name="Trazado 1076384" d="M79.781,398.246l-3.96,1.933a6.707,6.707,0,0,1-8.968-3.085l-2-4.1c1.185-.793,2.423-1.683,3.615-2.639l2.344,4.8A6.706,6.706,0,0,0,79.781,398.246Z" transform="translate(-59.578 -374.267)" fill="#eaac9d"/>
          <g id="Grupo_1206463" data-name="Grupo 1206463" transform="translate(10.387 14.755)">
            <ellipse id="Elipse_14288" data-name="Elipse 14288" cx="1.506" cy="0.916" rx="1.506" ry="0.916" transform="matrix(0.899, -0.439, 0.439, 0.899, 9.743, 1.322)" fill="#e490b7"/>
            <ellipse id="Elipse_14289" data-name="Elipse 14289" cx="1.506" cy="0.916" rx="1.506" ry="0.916" transform="matrix(0.899, -0.439, 0.439, 0.899, 0, 6.082)" fill="#e490b7"/>
          </g>
        </g>
        <g id="Grupo_1206466" data-name="Grupo 1206466" transform="translate(20.151)">
          <path id="Trazado_1076385" data-name="Trazado 1076385" d="M264.747,143.725a2.878,2.878,0,0,1-4.019-2.012,1.42,1.42,0,0,1,2.677-.892l16.707-7.716a1.42,1.42,0,0,1,2.415-1.46,2.878,2.878,0,0,1-1.074,4.364" transform="translate(-257.548 -119.708)" fill="#b17a4a"/>
          <path id="Trazado_1076386" data-name="Trazado 1076386" d="M248.692,70.985l4.563,9.881a6.707,6.707,0,0,0,8.9,3.277l4.53-2.092a6.706,6.706,0,0,0,3.277-8.9L265.4,63.269" transform="translate(-246.653 -58.138)" fill="#c38959"/>
          <path id="Trazado_1076387" data-name="Trazado 1076387" d="M265.99,141.041l-3.834,1.771a6.707,6.707,0,0,1-8.9-3.277l-4.563-9.881,3.835-1.771,4.563,9.881A6.707,6.707,0,0,0,265.99,141.041Z" transform="translate(-246.653 -116.808)" fill="#b17a4a"/>
          <g id="Grupo_1206465" data-name="Grupo 1206465" transform="translate(8.482 15.581)">
            <ellipse id="Elipse_14290" data-name="Elipse 14290" cx="1.506" cy="0.916" rx="1.506" ry="0.916" transform="translate(9.844 1.262) rotate(-24.771)" fill="#e490b7"/>
            <ellipse id="Elipse_14291" data-name="Elipse 14291" cx="1.506" cy="0.916" rx="1.506" ry="0.916" transform="translate(0 5.805) rotate(-24.771)" fill="#e490b7"/>
          </g>
          <path id="Trazado_1076388" data-name="Trazado 1076388" d="M243.408,8.591l4.232,9.162a2.484,2.484,0,0,1-3.3-1.214l-.732-1.586-12.2,5.633.732,1.586a2.483,2.483,0,0,1-1.213,3.3L226.7,16.307a1.877,1.877,0,0,1,.917-2.492l13.3-6.141a1.878,1.878,0,0,1,2.492.917Z" transform="translate(-226.528 -7.5)" fill="#544f57"/>
          <path id="Trazado_1076389" data-name="Trazado 1076389" d="M231.541,56.45a1.878,1.878,0,0,0-.917,2.492l2.458,5.321-1.667.77.732,1.586a2.483,2.483,0,0,1-1.213,3.3L226.7,60.753a1.877,1.877,0,0,1,.917-2.492Z" transform="translate(-226.529 -51.946)" fill="#454045"/>
        </g>
        <path id="Trazado_1076390" data-name="Trazado 1076390" d="M105.587,18.628a1.682,1.682,0,0,1-1.553,1.495l-.2.014a.942.942,0,0,0-.878.939v1.873a.761.761,0,0,1-1.222.606,13.952,13.952,0,0,1-2.877-2.807.939.939,0,0,0-.778-.4q-3.447.017-6.894-.224a1.68,1.68,0,0,1-1.427-1.014,1.651,1.651,0,0,1-.126-.477,42.732,42.732,0,0,1,0-9.327,1.68,1.68,0,0,1,1.552-1.491,91.589,91.589,0,0,1,10.269-.144q1.29.054,2.581.144A1.68,1.68,0,0,1,105.587,9.3a42.719,42.719,0,0,1,0,9.323Z" transform="translate(-81.845 -7.58)" fill="#dd636e"/>
        <path id="Trazado_1076391" data-name="Trazado 1076391" d="M312.656,329.359a1.682,1.682,0,0,0,1.553,1.495l.2.014a.942.942,0,0,1,.878.939v1.873a.761.761,0,0,0,1.222.606,13.952,13.952,0,0,0,2.877-2.807.939.939,0,0,1,.778-.4q3.447.017,6.894-.224a1.68,1.68,0,0,0,1.427-1.014,1.652,1.652,0,0,0,.126-.477,42.735,42.735,0,0,0,0-9.327,1.68,1.68,0,0,0-1.552-1.491,91.588,91.588,0,0,0-10.269-.144q-1.29.054-2.581.144a1.68,1.68,0,0,0-1.553,1.491A42.732,42.732,0,0,0,312.656,329.359Z" transform="translate(-284.35 -289.722)" fill="#80b4fb"/>
      </g>
      <g id="Grupo_1206468" data-name="Grupo 1206468" transform="translate(0.002 0.001)">
        <path id="Trazado_1076392" data-name="Trazado 1076392" d="M26.648,219.829a2.072,2.072,0,0,0-1.63-.8c-1.081-5.881-3.145-9.47-6.143-10.668-3.144-1.257-6.184.568-6.959,1.093-1.148.064-6.374.576-9.83,4.669a8.376,8.376,0,0,0-1.4,8.9A21.813,21.813,0,0,0,4.41,228.97a2.057,2.057,0,0,0-.55,1.981A3.569,3.569,0,0,0,7.337,233.7a3.539,3.539,0,0,0,1.2-.209,7.384,7.384,0,0,0,8.705,1.657l4.485-2.189c.092-.045.186-.093.28-.144a.69.69,0,0,0-.655-1.215c-.076.041-.153.081-.231.119l-4.484,2.189a6.016,6.016,0,0,1-8.045-2.768l-1.736-3.558c3.529-2.414,7.722-5.843,9.422-9.417a9.925,9.925,0,0,0,1.325.915,6.432,6.432,0,0,0,4.475.883l1.811,3.71A5.981,5.981,0,0,1,23.23,230a.69.69,0,0,0,1.09.847,7.348,7.348,0,0,0,1.457-5.777,3.568,3.568,0,0,0,.872-5.245ZM6.62,232.2a2.171,2.171,0,0,1-1.253-1.108,2.2,2.2,0,0,1-.164-.458.73.73,0,0,1,1.366-.488h0l.78,1.6c.093.19.194.374.3.553A2.176,2.176,0,0,1,6.62,232.2Zm15.621-13.7a4.829,4.829,0,0,1-3.923-.6,8.359,8.359,0,0,1-1.8-1.377.69.69,0,0,0-1.159.244c-1.279,3.718-6.021,7.493-9.773,10.005a.69.69,0,0,0-.236.876l.35.716h0a21.457,21.457,0,0,1-3.725-5.833,7,7,0,0,1,1.167-7.522c3.405-4.033,8.963-4.187,9.018-4.188a.694.694,0,0,0,.4-.138c.029-.022,2.97-2.182,5.81-1.041,2.523,1.015,4.361,4.416,5.328,9.847a2.216,2.216,0,0,0-.223.2l-.407-.835A.69.69,0,0,0,22.241,218.5Zm3.136,5.146c-.075-.194-.158-.386-.251-.576l-.781-1.6a.73.73,0,0,1,1.226-.775,2.189,2.189,0,0,1-.194,2.951Z" transform="translate(-0.002 -188.793)"/>
        <path id="Trazado_1076393" data-name="Trazado 1076393" d="M117.713,400.464c-.432.211-.5.964-.149,1.68a2.009,2.009,0,0,0,.675.8.92.92,0,0,0,.493.167.562.562,0,0,0,.249-.056.751.751,0,0,0,.369-.653,2.009,2.009,0,0,0-.219-1.027C118.78,400.664,118.144,400.253,117.713,400.464Z" transform="translate(-106.544 -363.569)"/>
        <path id="Trazado_1076394" data-name="Trazado 1076394" d="M210.946,358.1a.562.562,0,0,0,.249-.056.751.751,0,0,0,.369-.653,2.176,2.176,0,0,0-.894-1.832.75.75,0,0,0-.742-.111c-.432.211-.5.964-.149,1.68a2.009,2.009,0,0,0,.675.8A.919.919,0,0,0,210.946,358.1Z" transform="translate(-190.275 -322.696)"/>
        <path id="Trazado_1076395" data-name="Trazado 1076395" d="M173.2,415.967a1.293,1.293,0,0,1,1.421.189.6.6,0,0,0,.787-.9,2.492,2.492,0,0,0-4.127,2.014.6.6,0,0,0,.6.565h.033a.6.6,0,0,0,.564-.63A1.294,1.294,0,0,1,173.2,415.967Z" transform="translate(-155.523 -376.49)"/>
        <path id="Trazado_1076396" data-name="Trazado 1076396" d="M166.823,394.614a.69.69,0,0,0-.605-1.24l-1.61.786a.69.69,0,1,0,.605,1.24Z" transform="translate(-149.111 -357.118)"/>
        <path id="Trazado_1076397" data-name="Trazado 1076397" d="M121.141,12.886a3.583,3.583,0,0,0-.41-.679,2.058,2.058,0,0,0-2.765-.521,2.263,2.263,0,0,0-.4.311l-1.656-3.585h0l-3.2-6.921A2.57,2.57,0,0,0,109.3.238L99.675,4.685q-.065-1.175-.192-2.345a2.368,2.368,0,0,0-2.19-2.1c-.862-.061-1.737-.11-2.6-.145A92.7,92.7,0,0,0,84.346.236a2.368,2.368,0,0,0-2.19,2.1,43.622,43.622,0,0,0,0,9.477,2.37,2.37,0,0,0,2.19,2.1c2.3.161,4.632.237,6.946.226h0a.249.249,0,0,1,.206.1,14.654,14.654,0,0,0,3.026,2.962,1.451,1.451,0,0,0,2.33-1.155V14.342l2.127,4.606,0,.009.616,1.335a2.269,2.269,0,0,0-.5.1,2.058,2.058,0,0,0-1.4,2.443,3.569,3.569,0,0,0,3.493,2.822,3.538,3.538,0,0,0,1.125-.184A7.383,7.383,0,0,0,111,27.32l4.53-2.092a7.4,7.4,0,0,0,4.218-7.794,3.57,3.57,0,0,0,1.4-4.548Zm-25.665,1.3v1.872a.064.064,0,0,1-.04.064.063.063,0,0,1-.074-.007,13.327,13.327,0,0,1-2.728-2.651,1.628,1.628,0,0,0-1.339-.7h-.009c-2.278.011-4.581-.063-6.842-.222a.986.986,0,0,1-.842-.6.961.961,0,0,1-.073-.278,42.241,42.241,0,0,1,0-9.177.988.988,0,0,1,.914-.878,91.4,91.4,0,0,1,10.192-.143c.851.035,1.712.083,2.561.143a.989.989,0,0,1,.915.878,42.235,42.235,0,0,1,0,9.173.991.991,0,0,1-.915.882l-.026,0L97,12.558a1.636,1.636,0,0,0-1.522,1.628Zm3.738,8.827a2.2,2.2,0,0,1-.154-.462.73.73,0,0,1,1.375-.461l.747,1.617c.088.191.186.377.289.558a2.189,2.189,0,0,1-2.256-1.252Zm18.858-2.421a5.977,5.977,0,0,1-3.123,3.383l-4.53,2.092a6.017,6.017,0,0,1-7.984-2.939l-1.941-4.2a3.189,3.189,0,0,0,1.25-2.525,3.147,3.147,0,0,0-.293-1.329l-.444-.96,6.21-2.867a.69.69,0,1,0-.579-1.253L99.8,13.149a.69.69,0,0,0-.337.916l.733,1.586a1.778,1.778,0,0,1,.166.75,1.8,1.8,0,0,1-.474,1.215L99.2,16.129l0-.007-1.108-2.4a2.371,2.371,0,0,0,1.393-1.909h0a43.614,43.614,0,0,0,.247-5.634l10.153-4.689a1.188,1.188,0,0,1,1.575.58l3.884,8.411a1.8,1.8,0,0,1-1.7-1.041l-.732-1.586A.69.69,0,0,0,112,7.517l-2.855,1.318a.69.69,0,0,0,.579,1.253l2.228-1.029.443.96a3.169,3.169,0,0,0,3.554,1.772l1.94,4.2a5.976,5.976,0,0,1,.184,4.6Zm1.307-4.6c-.071-.2-.149-.39-.238-.582L118.4,13.8h0a.73.73,0,0,1,1.241-.75,2.189,2.189,0,0,1-.258,2.947Z" transform="translate(-74.363 -0.001)"/>
        <path id="Trazado_1076398" data-name="Trazado 1076398" d="M322.227,196.555a.661.661,0,0,0-1.122.518,2.175,2.175,0,0,0,.855,1.85.91.91,0,0,0,.5.178.56.56,0,0,0,.236-.051c.436-.2.519-.953.185-1.677A2.009,2.009,0,0,0,322.227,196.555Z" transform="translate(-291.555 -178.31)"/>
        <path id="Trazado_1076399" data-name="Trazado 1076399" d="M414.652,153.41c-.436.2-.519.954-.185,1.677a1.523,1.523,0,0,0,1.162,1,.554.554,0,0,0,.234-.05c.436-.2.519-.953.185-1.677S415.088,153.209,414.652,153.41Z" transform="translate(-376.148 -139.251)"/>
        <path id="Trazado_1076400" data-name="Trazado 1076400" d="M376.264,212.922a2.441,2.441,0,0,0-1.419,2.3.552.552,0,0,0,.551.533h.019a.552.552,0,0,0,.533-.57,1.341,1.341,0,0,1,2.245-1.037.552.552,0,1,0,.744-.816A2.441,2.441,0,0,0,376.264,212.922Z" transform="translate(-340.356 -193.127)"/>
        <path id="Trazado_1076401" data-name="Trazado 1076401" d="M370.263,193.979l1.627-.751a.552.552,0,1,0-.463-1l-1.627.751a.552.552,0,1,0,.463,1Z" transform="translate(-335.485 -174.493)"/>
        <path id="Trazado_1076402" data-name="Trazado 1076402" d="M313.141,180.655l-2.3-.052h-.013a.552.552,0,0,0-.012,1.1l2.3.052h.013a.552.552,0,0,0,.012-1.1Z" transform="translate(-281.734 -163.987)"/>
        <path id="Trazado_1076403" data-name="Trazado 1076403" d="M394.974,137.073a.552.552,0,0,0,.776-.08l1.449-1.781a.552.552,0,0,0-.856-.7l-1.449,1.781A.552.552,0,0,0,394.974,137.073Z" transform="translate(-358.45 -121.954)"/>
        <path id="Trazado_1076404" data-name="Trazado 1076404" d="M320.313,311.034a92.723,92.723,0,0,0-10.346-.146c-.864.036-1.739.085-2.6.146a2.368,2.368,0,0,0-2.191,2.1,43.622,43.622,0,0,0,0,9.473h0a2.37,2.37,0,0,0,2.19,2.108h.014l.188.013a.252.252,0,0,1,.235.251v1.872a1.45,1.45,0,0,0,2.33,1.155,14.66,14.66,0,0,0,3.026-2.962.249.249,0,0,1,.206-.1h0c2.313.012,4.651-.064,6.945-.225a2.37,2.37,0,0,0,2.191-2.1,43.623,43.623,0,0,0,0-9.477A2.368,2.368,0,0,0,320.313,311.034Zm.818,11.431a.969.969,0,0,1-.074.282.985.985,0,0,1-.841.6c-2.26.159-4.563.234-6.841.222a1.638,1.638,0,0,0-1.349.7,13.322,13.322,0,0,1-2.728,2.651.062.062,0,0,1-.074.007.064.064,0,0,1-.04-.064v-1.872a1.637,1.637,0,0,0-1.524-1.628l-.182-.012h-.015a.991.991,0,0,1-.915-.882h0a42.237,42.237,0,0,1,0-9.173.989.989,0,0,1,.915-.878c.849-.06,1.71-.108,2.562-.143a91.39,91.39,0,0,1,10.191.143.988.988,0,0,1,.914.878A42.214,42.214,0,0,1,321.131,322.465Z" transform="translate(-276.864 -282.212)"/>
        <path id="Trazado_1076405" data-name="Trazado 1076405" d="M139.135,31.163a.69.69,0,0,0-.69.69v4.773a.69.69,0,1,0,1.38,0V31.853A.69.69,0,0,0,139.135,31.163Z" transform="translate(-125.708 -28.296)"/>
        <path id="Trazado_1076406" data-name="Trazado 1076406" d="M139.135,111.452a.69.69,0,0,0-.69.69v.046a.69.69,0,1,0,1.38,0v-.046A.69.69,0,0,0,139.135,111.452Z" transform="translate(-125.708 -101.198)"/>
        <path id="Trazado_1076407" data-name="Trazado 1076407" d="M172.056,31.163a.69.69,0,0,0-.69.69v4.773a.69.69,0,0,0,1.38,0V31.853A.69.69,0,0,0,172.056,31.163Z" transform="translate(-155.6 -28.296)"/>
        <path id="Trazado_1076408" data-name="Trazado 1076408" d="M172.056,111.452a.69.69,0,0,0-.69.69v.046a.69.69,0,0,0,1.38,0v-.046A.69.69,0,0,0,172.056,111.452Z" transform="translate(-155.6 -101.198)"/>
        <path id="Trazado_1076409" data-name="Trazado 1076409" d="M204.976,31.163a.69.69,0,0,0-.69.69v4.773a.69.69,0,0,0,1.38,0V31.853A.69.69,0,0,0,204.976,31.163Z" transform="translate(-185.491 -28.296)"/>
        <path id="Trazado_1076410" data-name="Trazado 1076410" d="M204.976,111.452a.69.69,0,0,0-.69.69v.046a.69.69,0,0,0,1.38,0v-.046A.69.69,0,0,0,204.976,111.452Z" transform="translate(-185.491 -101.198)"/>
        <path id="Trazado_1076411" data-name="Trazado 1076411" d="M362.154,340.417a.69.69,0,0,0-.69.69v4.773a.69.69,0,1,0,1.38,0v-4.773A.69.69,0,0,0,362.154,340.417Z" transform="translate(-328.208 -309.097)"/>
        <path id="Trazado_1076412" data-name="Trazado 1076412" d="M362.154,420.706a.69.69,0,0,0-.69.69v.046a.69.69,0,1,0,1.38,0V421.4A.69.69,0,0,0,362.154,420.706Z" transform="translate(-328.208 -381.999)"/>
        <path id="Trazado_1076413" data-name="Trazado 1076413" d="M395.074,340.417a.69.69,0,0,0-.69.69v4.773a.69.69,0,1,0,1.38,0v-4.773A.69.69,0,0,0,395.074,340.417Z" transform="translate(-358.099 -309.097)"/>
        <path id="Trazado_1076414" data-name="Trazado 1076414" d="M395.074,420.706a.69.69,0,0,0-.69.69v.046a.69.69,0,1,0,1.38,0V421.4A.69.69,0,0,0,395.074,420.706Z" transform="translate(-358.099 -381.999)"/>
        <path id="Trazado_1076415" data-name="Trazado 1076415" d="M427.995,340.417a.69.69,0,0,0-.69.69v4.773a.69.69,0,0,0,1.38,0v-4.773A.69.69,0,0,0,427.995,340.417Z" transform="translate(-387.991 -309.097)"/>
        <path id="Trazado_1076416" data-name="Trazado 1076416" d="M427.995,420.706a.69.69,0,0,0-.69.69v.046a.69.69,0,0,0,1.38,0V421.4A.69.69,0,0,0,427.995,420.706Z" transform="translate(-387.991 -381.999)"/>
      </g>
    </g>
  </g>
</svg>
