<svg xmlns="http://www.w3.org/2000/svg" xmlns:xlink="http://www.w3.org/1999/xlink" width="93.934" height="93.934" viewBox="0 0 93.934 93.934">
  <defs>
    <filter id="Trazado_982547" x="0" y="0" width="93.934" height="93.934" filterUnits="userSpaceOnUse">
      <feOffset dy="3" input="SourceAlpha"/>
      <feGaussianBlur stdDeviation="3" result="blur"/>
      <feFlood flood-opacity="0.161"/>
      <feComposite operator="in" in2="blur"/>
      <feComposite in="SourceGraphic"/>
    </filter>
  </defs>
  <g id="Grupo_1206471" data-name="Grupo 1206471" transform="translate(-819 -8684.033)">
    <g id="Grupo_1185090" data-name="Grupo 1185090" transform="translate(828 8690.033)">
      <g id="Grupo_1181939" data-name="Grupo 1181939">
        <g id="Grupo_1175133" data-name="Grupo 1175133">
          <g id="Grupo_1167337" data-name="Grupo 1167337">
            <g id="Grupo_1166720" data-name="Grupo 1166720">
              <g id="Grupo_1164305" data-name="Grupo 1164305">
                <g id="Grupo_1163948" data-name="Grupo 1163948">
                  <g id="Grupo_1158168" data-name="Grupo 1158168">
                    <g id="Grupo_1152576" data-name="Grupo 1152576">
                      <g id="Grupo_1148633" data-name="Grupo 1148633">
                        <g id="Grupo_1148525" data-name="Grupo 1148525">
                          <g transform="matrix(1, 0, 0, 1, -9, -6)" filter="url(#Trazado_982547)">
                            <g id="Trazado_982547-2" data-name="Trazado 982547" transform="translate(9 6)" fill="#eaf9f8">
                              <path d="M 37.966796875 74.43359375 C 33.04315185546875 74.43359375 28.26757431030273 73.46962738037109 23.77274131774902 71.56847381591797 C 19.43047523498535 69.73184967041016 15.53040790557861 67.10224914550781 12.18087482452393 63.75271987915039 C 8.831341743469238 60.4031867980957 6.201741218566895 56.50312042236328 4.365118980407715 52.16086196899414 C 2.463963508605957 47.66601943969727 1.499996900558472 42.89044189453125 1.499996900558472 37.966796875 C 1.499996900558472 33.04315185546875 2.463963508605957 28.26757431030273 4.365118980407715 23.77274131774902 C 6.201741218566895 19.43047523498535 8.831341743469238 15.53040790557861 12.18087482452393 12.18087482452393 C 15.53040790557861 8.831341743469238 19.43047523498535 6.201741218566895 23.77274131774902 4.365118980407715 C 28.26757431030273 2.463963508605957 33.04315185546875 1.499996900558472 37.966796875 1.499996900558472 C 42.89044189453125 1.499996900558472 47.66601943969727 2.463963508605957 52.16086196899414 4.365118980407715 C 56.50312042236328 6.201741218566895 60.4031867980957 8.831341743469238 63.75271987915039 12.18087482452393 C 67.10224914550781 15.53040790557861 69.73184967041016 19.43047523498535 71.56847381591797 23.77274131774902 C 73.46962738037109 28.26757431030273 74.43359375 33.04315185546875 74.43359375 37.966796875 C 74.43359375 42.89044189453125 73.46962738037109 47.66601943969727 71.56847381591797 52.16086196899414 C 69.73184967041016 56.50313186645508 67.10224914550781 60.4031867980957 63.75271987915039 63.75271987915039 C 60.4031867980957 67.10224914550781 56.50313186645508 69.73184967041016 52.16086196899414 71.56847381591797 C 47.66601943969727 73.46962738037109 42.89044189453125 74.43359375 37.966796875 74.43359375 Z" stroke="none"/>
                              <path d="M 37.966796875 3 C 33.2449836730957 3 28.66600799560547 3.924095153808594 24.35705947875977 5.746635437011719 C 20.19359588623047 7.507637023925781 16.45379638671875 10.02928161621094 13.24153518676758 13.24153518676758 C 10.02927398681641 16.45379638671875 7.507621765136719 20.19359588623047 5.746635437011719 24.35705947875977 C 3.924095153808594 28.66600799560547 3 33.2449836730957 3 37.966796875 C 3 42.6886100769043 3.924095153808594 47.26758575439453 5.746635437011719 51.57653427124023 C 7.507621765136719 55.73999786376953 10.02927398681641 59.47979736328125 13.24153518676758 62.69205856323242 C 16.45379638671875 65.90431976318359 20.19359588623047 68.42597198486328 24.35705947875977 70.18695831298828 C 28.66600799560547 72.00949859619141 33.2449836730957 72.93359375 37.966796875 72.93359375 C 42.6886100769043 72.93359375 47.26758575439453 72.00949859619141 51.57653427124023 70.18695831298828 C 55.73999786376953 68.42597198486328 59.47979736328125 65.90431976318359 62.69205856323242 62.69205856323242 C 65.90431976318359 59.47979736328125 68.42597198486328 55.73999786376953 70.18695831298828 51.57653427124023 C 72.00949859619141 47.26758575439453 72.93359375 42.6886100769043 72.93359375 37.966796875 C 72.93359375 33.2449836730957 72.00949859619141 28.66600799560547 70.18695831298828 24.35705947875977 C 68.42597198486328 20.19359588623047 65.90431976318359 16.45379638671875 62.69205856323242 13.24153518676758 C 59.47979736328125 10.02928161621094 55.73999786376953 7.507637023925781 51.57653427124023 5.746635437011719 C 47.26758575439453 3.924095153808594 42.6886100769043 3 37.966796875 3 M 37.966796875 0 C 58.93528366088867 0 75.93359375 16.99832153320312 75.93359375 37.966796875 C 75.93359375 58.93528366088867 58.93528366088867 75.93359375 37.966796875 75.93359375 C 16.99831008911133 75.93359375 0 58.93528366088867 0 37.966796875 C 0 16.99832153320312 16.99831008911133 0 37.966796875 0 Z" stroke="none" fill="#1f7069"/>
                            </g>
                          </g>
                        </g>
                      </g>
                    </g>
                  </g>
                </g>
              </g>
            </g>
          </g>
        </g>
      </g>
    </g>
    <g id="apoyo" transform="translate(840.372 8681.288)">
      <g id="Grupo_1206470" data-name="Grupo 1206470" transform="translate(1 24.462)">
        <path id="Trazado_1076417" data-name="Trazado 1076417" d="M222.337,81.007h8.757l-4.028,4.943h0Z" transform="translate(-201.107 -76.254)" fill="#fcc69d"/>
        <path id="Trazado_1076418" data-name="Trazado 1076418" d="M226.851,35.978l-.663-.712a5.652,5.652,0,0,0-4.138-1.8H214.2v1.311a3.54,3.54,0,0,0,3.557,3.54l6.575-.013Z" transform="translate(-193.782 -33.464)" fill="#fcc69d"/>
        <path id="Trazado_1076419" data-name="Trazado 1076419" d="M251.8,299.226h0a8.326,8.326,0,0,0,5.821,1.749l.317-.026,5.485,5.485,13.393-11.549-7.6-7.563Z" transform="translate(-227.621 -261.941)" fill="#fcc69d"/>
        <path id="Trazado_1076420" data-name="Trazado 1076420" d="M20.53,75.392,10,85.92l16.987,7.956,8.962-8.995h0a14.589,14.589,0,0,0,9.787-4.263l9.7-9.7a2.768,2.768,0,0,0,0-3.915h0a2.768,2.768,0,0,0-3.915,0L50.295,68.23l2.572-2.572a2.768,2.768,0,0,0,0-3.915h0a2.768,2.768,0,0,0-3.915,0L46.38,64.315l3.551-3.551a2.768,2.768,0,0,0,0-3.915h0a2.768,2.768,0,0,0-3.915,0L42.465,60.4l4.53-4.53a2.768,2.768,0,0,0,0-3.915h0a2.768,2.768,0,0,0-3.915,0l-7.118,7.118" transform="translate(-10.002 -49.377)" fill="#fcc69d"/>
        <path id="Trazado_1076421" data-name="Trazado 1076421" d="M87.6,222.881l-2.7-2.7a2.768,2.768,0,0,0-3.915,0h0a2.768,2.768,0,0,0,0,3.915l2.7,2.7a2.768,2.768,0,0,0,3.915,0h0A2.768,2.768,0,0,0,87.6,222.881Z" transform="translate(-73.154 -200.781)" fill="#fcc69d"/>
        <path id="Trazado_1076422" data-name="Trazado 1076422" d="M114.661,171.631l-4.046-4.046a2.768,2.768,0,0,0-3.915,0h0a2.768,2.768,0,0,0,0,3.915l4.046,4.046a2.768,2.768,0,0,0,3.915,0h0A2.768,2.768,0,0,0,114.661,171.631Z" transform="translate(-96.302 -153.446)" fill="#fcc69d"/>
        <path id="Trazado_1076423" data-name="Trazado 1076423" d="M145.01,123.661l-5.024-5.024a2.768,2.768,0,0,0-3.915,0h0a2.768,2.768,0,0,0,0,3.915l5.024,5.024a2.768,2.768,0,0,0,3.915,0h0A2.768,2.768,0,0,0,145.01,123.661Z" transform="translate(-122.736 -109.391)" fill="#fcc69d"/>
        <path id="Trazado_1076424" data-name="Trazado 1076424" d="M175.355,75.693l-6-6a2.768,2.768,0,0,0-3.915,0h0a2.768,2.768,0,0,0,0,3.915l6,6a2.768,2.768,0,0,0,3.915,0h0A2.768,2.768,0,0,0,175.355,75.693Z" transform="translate(-149.167 -65.338)" fill="#fcc69d"/>
      </g>
      <path id="Trazado_1076425" data-name="Trazado 1076425" d="M471.732,331.462l-2.44-2.421a1,1,0,1,0-1.408,1.42l2.44,2.421a1,1,0,0,0,1.409-1.42Z" transform="translate(-420.837 -274.765)"/>
      <path id="Trazado_1076426" data-name="Trazado 1076426" d="M442.969,304.245l0,0a1,1,0,1,0,1.416,0A1,1,0,0,0,442.967,304.247Z" transform="translate(-398.416 -252.446)"/>
      <path id="Trazado_1076427" data-name="Trazado 1076427" d="M32.02,62.763a1,1,0,0,0-.789-.29l-.317.026a7.3,7.3,0,0,1-4.173-.908l.643-.645A15.537,15.537,0,0,0,37.442,56.41l9.7-9.7a3.766,3.766,0,0,0-1.818-6.335,3.77,3.77,0,0,0-2.778-5.3,3.762,3.762,0,0,0-2.935-4.891,3.77,3.77,0,0,0-5.378-4.5l-.1-.1a6.673,6.673,0,0,0-4.87-2.12H21.416a1,1,0,0,0-1,1v1.311a4.545,4.545,0,0,0,.258,1.516,3.769,3.769,0,0,0-5.023,4.664,3.768,3.768,0,0,0-2.939,4.892,3.768,3.768,0,0,0-2.775,5.3,3.769,3.769,0,0,0-1.818,6.337l2,1.995L.292,60.3a1,1,0,1,0,1.414,1.414L11.623,51.8a3.766,3.766,0,0,0,5.625-3.429c.051,0,.1,0,.152,0A3.765,3.765,0,0,0,21.169,44.6c0-.051,0-.1,0-.152.05,0,.1,0,.15,0a3.765,3.765,0,0,0,3.768-3.767c0-.051,0-.1,0-.152.05,0,.1,0,.15,0a3.766,3.766,0,0,0,2.915-6.155l6.638-6.638a1.768,1.768,0,1,1,2.5,2.5l-.979.979-3.551,3.551a1,1,0,1,0,1.414,1.414l3.551-3.551a1.768,1.768,0,1,1,2.5,2.5l-.979.979-2.572,2.572a1,1,0,1,0,1.414,1.414l2.572-2.572a1.768,1.768,0,1,1,2.5,2.5L41.813,41.38l-1.229,1.229A1,1,0,1,0,42,44.023l1.23-1.23a1.768,1.768,0,0,1,2.5,2.5l-9.7,9.7a13.547,13.547,0,0,1-9.116,3.971,1,1,0,0,0-.672.294l-8.962,8.995a1,1,0,1,0,1.417,1.412l6.592-6.616A9.3,9.3,0,0,0,30.931,64.5l5.159,5.159A1,1,0,0,0,37.5,68.249Zm-9.6-37.3h6.853a4.667,4.667,0,0,1,3.406,1.483l.041.044-5.97,5.97L24,30.212a4.576,4.576,0,0,0,.958.1h.022l2.744-.013a1,1,0,0,0,0-2h0l-2.744.013h-.012a2.54,2.54,0,0,1-2.54-2.54v-.311ZM14.736,49.77a1.768,1.768,0,0,1-2.5,0l-2.7-2.7a1.768,1.768,0,1,1,2.5-2.5l2.7,2.7A1.771,1.771,0,0,1,14.736,49.77ZM19.169,44.6a1.768,1.768,0,0,1-3.019,1.25l-2.7-2.7L12.1,41.809a1.768,1.768,0,1,1,2.5-2.5l4.046,4.046h0A1.757,1.757,0,0,1,19.169,44.6Zm3.915-3.915a1.768,1.768,0,0,1-3.019,1.25l-5.024-5.024a1.768,1.768,0,0,1,2.5-2.5l2.29,2.29,2.735,2.735h0A1.756,1.756,0,0,1,23.084,40.69Zm3.4-2.665a1.77,1.77,0,0,1-2.5,0L18.956,33l0,0-.977-.977a1.768,1.768,0,0,1,2.5-2.5l6,6a1.769,1.769,0,0,1,0,2.5Z" transform="translate(0)"/>
    </g>
  </g>
</svg>
