<svg xmlns="http://www.w3.org/2000/svg" xmlns:xlink="http://www.w3.org/1999/xlink" width="400" height="385" viewBox="0 0 400 385">
  <defs>
    <clipPath id="clip-path">
      <rect id="Rectángulo_417645" data-name="Rectángulo 417645" width="400" height="385" transform="translate(1020 8959)" fill="#fff" stroke="#707070" stroke-width="1" opacity="0.63"/>
    </clipPath>
    <clipPath id="clip-path-2">
      <rect id="Rectángulo_417643" data-name="Rectángulo 417643" width="318.013" height="162.847"/>
    </clipPath>
  </defs>
  <g id="Enmascarar_grupo_1098863" data-name="Enmascarar grupo 1098863" transform="translate(-1020 -8959)" clip-path="url(#clip-path)">
    <g id="Grupo_1206627" data-name="Grupo 1206627" transform="translate(24 11)">
      <path id="Trazado_1076685" data-name="Trazado 1076685" d="M167,0A167,167,0,1,1,0,167,167,167,0,0,1,167,0Z" transform="translate(1020 8961)" fill="#ffefc1"/>
      <g id="Grupo_1206559" data-name="Grupo 1206559">
        <g id="Grupo_1206496" data-name="Grupo 1206496" transform="translate(1020 8975.692)">
          <g id="Grupo_1206488" data-name="Grupo 1206488" transform="translate(0 38)">
            <rect id="Rectángulo_417641" data-name="Rectángulo 417641" width="334.912" height="179.746" fill="#be5949"/>
            <rect id="Rectángulo_417642" data-name="Rectángulo 417642" width="318.013" height="162.079" transform="translate(8.45 8.834)" fill="#3b3945"/>
            <g id="Grupo_1206487" data-name="Grupo 1206487" transform="translate(8.45 8.811)">
              <g id="Grupo_1206486" data-name="Grupo 1206486">
                <g id="Grupo_1206485" data-name="Grupo 1206485" clip-path="url(#clip-path-2)">
                  <path id="Trazado_1076511" data-name="Trazado 1076511" d="M37.887,155.53s17.614,105.735,94.3,124.094C326.48,326.135,365.094,178.6,365.094,178.6l2,119.985L32.51,299.3l2.512-130.086Z" transform="translate(-40.568 -127.877)" fill="#33313d"/>
                </g>
              </g>
            </g>
          </g>
          <g id="Grupo_1206495" data-name="Grupo 1206495" transform="translate(34.429 77.709)">
            <g id="Grupo_1206489" data-name="Grupo 1206489" transform="translate(198.619 1.379)">
              <path id="Trazado_1076512" data-name="Trazado 1076512" d="M340.145,170.52l-4.755,33.56,38.814,8.334,6.283-35.1Z" transform="translate(-335.39 -163.63)" fill="none" stroke="#fff" stroke-miterlimit="10" stroke-width="3"/>
              <path id="Trazado_1076513" data-name="Trazado 1076513" d="M386.35,212.722l12.713-7.3,4.962-34.9L392,177.472" transform="translate(-347.205 -163.63)" fill="none" stroke="#fff" stroke-miterlimit="10" stroke-width="3"/>
              <path id="Trazado_1076514" data-name="Trazado 1076514" d="M340.89,168.148l20.494-6.6,33.3,5.753" transform="translate(-336.665 -161.55)" fill="none" stroke="#fff" stroke-miterlimit="10" stroke-width="3"/>
            </g>
            <g id="Grupo_1206491" data-name="Grupo 1206491" transform="translate(0)">
              <path id="Trazado_1076515" data-name="Trazado 1076515" d="M109.772,173.473c-.484.146-.968.277-1.459.422-.507-1.92-1.022-3.841-1.613-5.707a1.037,1.037,0,0,0-1.813.906c.33,1.828.691,3.656,1.06,5.485-.7.192-1.406.392-2.1.591-.668.253-1.536.307-1.928.983a1.346,1.346,0,0,0,1.506,1.959,27.612,27.612,0,0,1,3.1-.722c.177.845.346,1.7.522,2.543a26.314,26.314,0,0,0,1,3.58,1.311,1.311,0,0,0,.607.791,1.326,1.326,0,0,0,1.928-.784c.154-.776-.446-2.842-.868-4.54-.215-.714-.415-1.436-.607-2.159a13,13,0,0,0,2-.676A1.527,1.527,0,0,0,109.772,173.473Z" transform="translate(-82.596 -161.617)" fill="#fff"/>
              <path id="Trazado_1076516" data-name="Trazado 1076516" d="M135.292,177.4c-.807-.8-1.982-.277-2.965-.192-1.145.192-2.289.407-3.426.661a30.609,30.609,0,0,0,3.618-6.691c1.121-2.973.092-6.5-3.126-7.536-2.788-.945-5.538,1.605-6.529,4.017a1.119,1.119,0,0,0,2.066.714c1-1.406,2.028-2.4,3.341-2.32a3.134,3.134,0,0,1,1.628,1.014,3.9,3.9,0,0,1,.33,3.042c-.668,2.335-2.327,4.786-4.056,7.451-.469.845-.784.76-1.436,1.982a1.348,1.348,0,0,0,1.321,1.675c1.221.023,1.836-.369,3.664-.615,2.4-.446,1.974-.161,5.07-.707A1.535,1.535,0,0,0,135.292,177.4Z" transform="translate(-87.492 -160.609)" fill="#fff"/>
              <path id="Trazado_1076517" data-name="Trazado 1076517" d="M158.982,159.8a24.457,24.457,0,0,0-3.042.76c-.5.2-1.106.292-1.383.807a1.256,1.256,0,0,0,1.406,1.828,30.687,30.687,0,0,1,3.718-.86A1.315,1.315,0,0,0,158.982,159.8Z" transform="translate(-94.804 -159.755)" fill="#fff"/>
              <path id="Trazado_1076518" data-name="Trazado 1076518" d="M158.195,169.892c-1.075.346-2.158.707-3.2,1.137-.438.223-1.014.3-1.3.73a1.317,1.317,0,0,0,1.383,2.066,19.26,19.26,0,0,1,2.834-.968,4.334,4.334,0,0,0,1.5-.515A1.4,1.4,0,0,0,158.195,169.892Z" transform="translate(-94.578 -162.091)" fill="#fff"/>
              <g id="Grupo_1206490" data-name="Grupo 1206490" transform="translate(0 9.249)">
                <path id="Trazado_1076519" data-name="Trazado 1076519" d="M89.249,179.058a4.041,4.041,0,0,0-3.51-1.828c1.459-1.705,2.965-3.787,1.168-5.139-.991-.6-2.189-.123-3.249.008a39.85,39.85,0,0,0-6.2,1.506,1.153,1.153,0,0,0,.707,2.166,40.677,40.677,0,0,1,5.83-.983c-.507.653-1.145,1.39-1.659,2.013-.469.63-1.145,1.191-1.267,2-.1,1.483,1.36,1.836,2.543,1.536.169-.031.561-.061.784-.077a5.659,5.659,0,0,1,1.452.061l.123.023c.031.008.054.015.1.031a1.508,1.508,0,0,1,.253.115c.115.069.23.146.346.223a3.6,3.6,0,0,1,.361.407c.561,1.2.323,2.535-1.882,4.056a10.875,10.875,0,0,1-3.756,1.275c-.906.215-1.959.061-2.773.545a1.558,1.558,0,0,0-.038,2.573c.868.4.868.3,1.175.253a.058.058,0,0,1,.031.008h-.008a1.387,1.387,0,0,1,.33-.015,16.519,16.519,0,0,0,3.818-.676,9.19,9.19,0,0,0,4.133-2.343C90.178,184.888,90.977,181.431,89.249,179.058Z" transform="translate(-76.821 -171.795)" fill="#fff"/>
                <path id="Trazado_1076520" data-name="Trazado 1076520" d="M81.052,195.22h-.023c-.092.008-.177.015-.269.015A1.154,1.154,0,0,0,81.052,195.22Z" transform="translate(-77.735 -177.227)" fill="#fff"/>
              </g>
            </g>
            <g id="Grupo_1206493" data-name="Grupo 1206493" transform="translate(197.335 76.302)">
              <path id="Trazado_1076521" data-name="Trazado 1076521" d="M345.181,262.492a50.937,50.937,0,0,0-2.3,5.216c-.438-.123-.906-.2-1.3-.3-1.867-.461-3.188-.622-4.486-.83,1.022-1.129,2.535-2.665,3.626-3.779.622-.63,1.26-1.252,1.913-1.851A1.269,1.269,0,0,0,343.2,260a.932.932,0,0,0-1.575-.653c-2.335,2.02-4.547,4.171-6.806,6.276-.952.676-1.621,1.982-.553,2.888,1.39,1.006,3.234,1.083,4.847,1.552.8.123,1.767.492,2.658.7-.415,1.221-.807,2.45-1.191,3.687-.323,1.114-.638,2.235-.968,3.357a1.569,1.569,0,0,0,.576,1.69,1.586,1.586,0,0,0,2.1-.123,6.058,6.058,0,0,0,.845-2.2c.63-2.258,1.3-4.509,2.1-6.706.6-1.644,1.145-3.3,1.705-4.955a8.7,8.7,0,0,0,.645-2.52A1.3,1.3,0,0,0,345.181,262.492Z" transform="translate(-333.719 -259.087)" fill="#fff"/>
              <path id="Trazado_1076522" data-name="Trazado 1076522" d="M360.718,271.944c-1.544-.5-3.288-.284-4.893-.553-1.068-.008-2.427-.43-3.418-.108a1.607,1.607,0,0,0,.622,3.08c1.805.154,3.6.323,5.408.469.876.023,1.928.361,2.612-.369A1.624,1.624,0,0,0,360.718,271.944Z" transform="translate(-337.827 -261.887)" fill="#fff"/>
              <g id="Grupo_1206492" data-name="Grupo 1206492" transform="translate(25.992 3.881)">
                <path id="Trazado_1076523" data-name="Trazado 1076523" d="M380.395,271.983a4.03,4.03,0,0,0-3.119-2.427c1.744-1.413,3.595-3.188,2.074-4.839-.868-.768-2.128-.515-3.2-.576a40.1,40.1,0,0,0-6.368.361,1.153,1.153,0,0,0,.307,2.258,41.161,41.161,0,0,1,5.907.092c-.622.545-1.375,1.16-2,1.675-.576.53-1.344.968-1.605,1.744-.369,1.436,1.006,2.051,2.228,1.966.177,0,.561.038.783.061a5.6,5.6,0,0,1,1.413.323l.115.046c.023.015.054.023.092.046a2.414,2.414,0,0,1,.23.154c.1.092.2.184.3.284a3.494,3.494,0,0,1,.277.461c.33,1.275-.146,2.55-2.581,3.649a10.656,10.656,0,0,1-3.925.568c-.929.046-1.936-.3-2.819.031a1.55,1.55,0,0,0-.5,2.52c.783.553.8.453,1.114.461.008,0,.015.008.023.008a.131.131,0,0,1,.054.008c-.023-.008-.046-.008-.061-.015a1.66,1.66,0,0,1,.33.046,16.377,16.377,0,0,0,3.879.031,9.127,9.127,0,0,0,4.486-1.559C380.249,277.89,381.67,274.633,380.395,271.983Z" transform="translate(-367.557 -264.14)" fill="#fff"/>
                <path id="Trazado_1076524" data-name="Trazado 1076524" d="M369.992,285.931h-.023c-.092-.015-.177-.015-.269-.031A1.023,1.023,0,0,0,369.992,285.931Z" transform="translate(-368.053 -269.185)" fill="#fff"/>
              </g>
              <path id="Trazado_1076525" data-name="Trazado 1076525" d="M401.513,271.141c-.484-.83-1.552-.714-2.381-.776a16.54,16.54,0,0,0-3.326.138,1.137,1.137,0,0,0,.438,2.174c1.221.115,1.244.146,2.8.369a3.578,3.578,0,0,0,1.82.046A1.375,1.375,0,0,0,401.513,271.141Z" transform="translate(-347.957 -261.699)" fill="#fff"/>
              <path id="Trazado_1076526" data-name="Trazado 1076526" d="M398.432,278.9c-1.168-.1-2.343-.115-3.51-.192a1.22,1.22,0,0,0-.868.361,1.243,1.243,0,0,0,.545,2.059c.891.2,1.782.384,2.681.53.853.207,1.928.369,2.427-.545A1.481,1.481,0,0,0,398.432,278.9Z" transform="translate(-347.626 -263.637)" fill="#fff"/>
            </g>
            <g id="Grupo_1206494" data-name="Grupo 1206494" transform="translate(15.846 42.26)">
              <path id="Trazado_1076527" data-name="Trazado 1076527" d="M130.108,224.088a22.818,22.818,0,0,0-9.425,8.511c-.568-5.285-4.056-10.785-8.649-14.3a31.445,31.445,0,0,0-3.672-2.527,5.987,5.987,0,0,0-2.6-1c-1.713.054-1.459,1.828-1.375,2.143q.081.611.138,1.221c.061.668.115,1.337.138,2,.061,3.979-.63,8.15,1.06,11.906a14.794,14.794,0,0,0,5.861,7.466,10.361,10.361,0,0,0,4.947,1.5,22.041,22.041,0,0,0-.914,2.681,3.994,3.994,0,0,0-.138,2.074,1.37,1.37,0,0,0,2.228.438c.645-.929.253-.576.5-1.367,1.567-5.2,4.279-10.716,7.935-14.564a34.078,34.078,0,0,1,4.209-3.779c.438-.284,1.014-.461,1.145-1.029A1.142,1.142,0,0,0,130.108,224.088Zm-17.713,13.227a13.487,13.487,0,0,1-4.962-7.075c-1.045-2.85-.33-6.452-.422-10.14-.008-.453-.108-1.552-.2-2.4.008,0,.008.008.015.008a34.446,34.446,0,0,1,3.341,2.212,29.376,29.376,0,0,1,4.747,4.724c2.535,3.572,4.017,7.781,3.411,10.946a3.576,3.576,0,0,1-.092.484c-.822-1.383-1.782-2.7-2.55-4.11-1.183-2.174-2.036-4.509-3.119-6.737-.906-1.652-1.951-3.672-3.449-4.824a1.009,1.009,0,0,0-1.1,1.636c2.074,2.2,4.125,7.559,5.3,10.3.83,1.728,2.527,4.762,3.426,6.437A8.137,8.137,0,0,1,112.395,237.315Z" transform="translate(-99.044 -214.77)" fill="#237c74"/>
              <path id="Trazado_1076528" data-name="Trazado 1076528" d="M133.722,259.869a13.9,13.9,0,0,0-4.847-6.322,12.356,12.356,0,0,0-12.544-.807,1.945,1.945,0,0,0-.945.63,1.36,1.36,0,0,0-.169-.123c-10.447-5.892-17.483,2.3-17.767,13.75.108,3.572.084,7.5,2.082,10.6a10.614,10.614,0,0,0,6.852,3.994c3.311.469,5.1.085,7.674.952,1.452.469,1.69.753,3.695,1.329a9.987,9.987,0,0,0,4.57.061c2.135-.346,3.864-1.744,5.438-3.134C133.069,275.946,135.842,266.782,133.722,259.869Zm-5.17,14.81c-1.989,3.526-5.216,6.153-7.758,6.245-2,.33-3.818-.883-6.537-1.675-2.589-.707-6.237-.538-7.589-.814.154.023.369.054.115.015-6.053-1.152-6.529-5.039-6.445-12.521.407-6.337,3.541-11.668,7.989-11.783a13.3,13.3,0,0,1,5.584,1.306c1.828,1.429,4.563-.4,4.847-.284a8.544,8.544,0,0,1,4.071-.545,9.7,9.7,0,0,1,7.789,6.091C132.07,265.346,130.872,270.339,128.552,274.679Z" transform="translate(-97.45 -223.236)" fill="#d63845"/>
            </g>
          </g>
        </g>
        <g id="Grupo_1206558" data-name="Grupo 1206558" transform="translate(4168.736 686.892)">
          <g id="Grupo_1206483" data-name="Grupo 1206483" transform="translate(-3043.736 8306.72)">
            <g id="Grupo_1206472" data-name="Grupo 1206472" transform="translate(0.838 10.962)">
              <path id="Trazado_1076428" data-name="Trazado 1076428" d="M562.549,451.79c1.392,61.583-28.154,82.058-65.078,82.85-35.474.762-66.124-21.267-64.036-83.56,1.157-34.519,31.334-41.522,64.036-41.522S561.766,417.26,562.549,451.79Z" transform="translate(-427.079 -409.558)" fill="#b50000"/>
              <path id="Trazado_1076429" data-name="Trazado 1076429" d="M918.918,912.5c-11.578-3.3-19.828-6.365-25.9-10.626-1.664-.364-10.839,6.324-12.335,7.609,2.9,6.826,3.864,22.33,2.419,26.191,0,0,5.567,3.573,11.678,3.211-.062-5.851-.415-11.194-.415-11.194s1.5,5.18,2.618,10.937c4.219-.723,9.208-2.938,14.461-8.141a16.011,16.011,0,0,0,2.678-4.526c-3.337-3.546-5.888-6.63-5.888-6.63s2.864,2.321,6.538,5.088c.334-.828.657-1.691.97-2.56-5.126-3.731-9.731-7.787-9.731-7.787s5,2.893,10.467,5.681C917.987,915.256,918.918,912.5,918.918,912.5Z" transform="translate(-778.474 -796.265)" fill="#b50000"/>
              <path id="Trazado_1076430" data-name="Trazado 1076430" d="M869.949,875.754a6.882,6.882,0,0,0-2.9,6.913,6.719,6.719,0,0,0-1.877-.771,6.9,6.9,0,1,0,5.47,8.075,6.811,6.811,0,0,0-.023-2.5,6.827,6.827,0,0,0,7.066-.3,6.9,6.9,0,1,0-7.737-11.42Z" transform="translate(-759.851 -774.826)" fill="#45cece"/>
              <path id="Trazado_1076431" data-name="Trazado 1076431" d="M404.172,908.373c11.82-3.372,20.243-6.5,26.444-10.849,1.7-.372,11.067,6.457,12.593,7.769-2.956,6.968-3.945,22.8-2.47,26.739,0,0-5.683,3.648-11.922,3.279.064-5.974.423-11.428.423-11.428s-1.534,5.288-2.673,11.166c-4.308-.739-9.4-3-14.764-8.311a16.364,16.364,0,0,1-2.733-4.621c3.407-3.62,6.011-6.769,6.011-6.769s-2.924,2.37-6.676,5.194c-.341-.845-.67-1.726-.989-2.614,5.234-3.809,9.935-7.95,9.935-7.95s-5.1,2.952-10.686,5.8C405.122,911.187,404.172,908.373,404.172,908.373Z" transform="translate(-404.172 -792.848)" fill="#b50000"/>
              <path id="Trazado_1076432" data-name="Trazado 1076432" d="M507.333,870.531a6.881,6.881,0,0,1,2.9,6.912,6.708,6.708,0,0,1,1.877-.77,6.9,6.9,0,1,1-5.471,8.075,6.827,6.827,0,0,1,.024-2.5,6.826,6.826,0,0,1-7.066-.3,6.9,6.9,0,1,1,7.737-11.42Z" transform="translate(-476.749 -770.723)" fill="#45cece"/>
            </g>
            <path id="Trazado_1076433" data-name="Trazado 1076433" d="M427.091,1060.373c10.486-11.787,24.617-31.453,27.066-33.078l15.833,16.911c-2.371,4.4-29.45,25.087-34.692,26.977C433.392,1072.485,422.246,1071.464,427.091,1060.373Z" transform="translate(-420.387 -883.834)" fill="#ffc19f"/>
            <path id="Trazado_1076434" data-name="Trazado 1076434" d="M441.495,1024.655c4.592,5.812,12.9,16.793,19.486,20.287,3.594-2.97,16.247-13.9,18.12-16,7.194-14.443,4.626-33.537,4.664-34.343-9.133.493-13.74,2.162-16.2,3.35C462.851,1002.917,449.07,1017.022,441.495,1024.655Z" transform="translate(-432.651 -858.152)" fill="#ffc200"/>
            <path id="Trazado_1076435" data-name="Trazado 1076435" d="M966.134,958.669c.713-.854-10.384-8.07-11.172-7.284-11.784,11.734-42.51,33.48-46.388,36.22,0,0,17.6,3.528,26.935,2.482C942.941,989.252,956.709,969.957,966.134,958.669Z" transform="translate(-799.546 -824.159)" fill="#ffc19f"/>
            <g id="Grupo_1206473" data-name="Grupo 1206473" transform="translate(150.609 89.243)">
              <path id="Trazado_1076436" data-name="Trazado 1076436" d="M1110.311,795.21c4.381-6.948,12.785-21.644,14.48-20.642,5.009,2.962-.8,13.582-5.02,20.135-.464.719-.883,1.365-1.284,1.974,5.382,5.488,10.053,13.151,13.409,15.494-6.392,7.783-10.841,10.385-13.854,10.814a13.313,13.313,0,0,1-14.273-8.51c-1.735-4.718-1.928-8.484.312-17.047C1105.616,796.956,1108.336,796.565,1110.311,795.21Z" transform="translate(-1102.434 -774.519)" fill="#ffc19f"/>
              <path id="Trazado_1076437" data-name="Trazado 1076437" d="M1136.672,876.592c5.452,6.5,13.631,4.849,17.562-.6-1.4-.951-8.23-12.62-7.67-20.976-5.778-1.035-10.66,10.275-12.466,9.34A9.829,9.829,0,0,1,1136.672,876.592Z" transform="translate(-1127.305 -837.699)" fill="#6b1808" opacity="0.14"/>
              <path id="Trazado_1076438" data-name="Trazado 1076438" d="M1155.079,859.7c2.532-3.561,6.046-5.409,7.85-4.126,1.625,1.155,1.292,4.453-.637,7.7,2.554-1.913,5.255-2.509,6.625-1.234,1.474,1.372.913,4.437-1.162,7.309,2.255-.627,4.238-.363,5.046.9,1.193,1.864-.615,5.151-4.037,7.341s-7.165,2.454-8.357.59c-.654-1.022-.381-2.472.54-3.933a3.2,3.2,0,0,1-2.852-.579c-1.269-1.181-1.03-3.619.383-6.106-1.8,1.292-3.593,1.711-4.718.911C1151.958,867.188,1152.548,863.26,1155.079,859.7Z" transform="translate(-1141.931 -837.868)" fill="#ffc19f"/>
              <path id="Trazado_1076439" data-name="Trazado 1076439" d="M1129.532,872.053c-.152,2.472-1.745,5.906-5.549,5.383-3.521-.485-7.741-3.5-7.589-5.976s3.385-4.283,7.218-4.047S1129.684,869.581,1129.532,872.053Z" transform="translate(-1113.397 -847.472)" fill="#541000" opacity="0.21"/>
              <path id="Trazado_1076440" data-name="Trazado 1076440" d="M1123.955,871.781c-.145,2.351-3.545,4.054-7.593,3.8s-7.212-2.359-7.067-4.71,3.545-4.054,7.593-3.8S1124.1,869.43,1123.955,871.781Z" transform="translate(-1107.82 -847.2)" fill="#ffc19f"/>
            </g>
            <path id="Trazado_1076441" data-name="Trazado 1076441" d="M880.645,1003.523c-.636,6.711-3.545,19.889-4.674,26.792-15.486-1.482-27.965-3.443-28.862-4.122-9.33-7.058-5.011-28.753-5.135-30.216A352.024,352.024,0,0,0,880.645,1003.523Z" transform="translate(-746.531 -859.233)" fill="#ffc200"/>
            <path id="Trazado_1076442" data-name="Trazado 1076442" d="M552.627,1075.306c19.278,11.873,56.977,10.8,80.306-.933,0,0-7.4-66.6-10.415-82.191-16.2-4.672-46.4-3.4-61.23-.78C559.15,1011.293,555.128,1045.927,552.627,1075.306Z" transform="translate(-519.947 -853.794)" fill="#ffc200"/>
            <path id="Trazado_1076443" data-name="Trazado 1076443" d="M687.488,993.681a10.057,10.057,0,0,0-.366-2.933,287.762,287.762,0,0,0-36.947-.039,8.776,8.776,0,0,0-.29,1.291c-.348,7.789,7.787,14.479,18.171,14.943S687.14,1001.469,687.488,993.681Z" transform="translate(-596.336 -854.641)" fill="#ff8b00"/>
            <path id="Trazado_1076444" data-name="Trazado 1076444" d="M700.3,905l-.239,22c-.052,4.73-6.105,8.5-13.522,8.421s-13.387-3.982-13.335-8.712l.239-22Z" transform="translate(-614.66 -787.538)" fill="#ffc19f"/>
            <path id="Trazado_1076445" data-name="Trazado 1076445" d="M698.787,934.67a9.884,9.884,0,0,0-.361-2.886,283.236,283.236,0,0,0-36.358-.039,8.652,8.652,0,0,0-.285,1.271c-.342,7.665,7.663,14.248,17.882,14.7S698.445,942.335,698.787,934.67Z" transform="translate(-605.681 -808.333)" fill="#601805" opacity="0.19"/>
            <ellipse id="Elipse_14292" data-name="Elipse 14292" cx="62.25" cy="4.264" rx="62.25" ry="4.264" transform="translate(10.883 322.861)" opacity="0.11"/>
            <path id="Trazado_1076446" data-name="Trazado 1076446" d="M623.183,1300.246c-.245,20.67-2.637,76.787-3.679,100.913-7.29.151-12.409,1.94-18.658.164,0,0-2.979-74.413-4.42-105.029C604.076,1295.69,623.218,1297.245,623.183,1300.246Z" transform="translate(-554.35 -1095.034)" fill="#ffc19f"/>
            <g id="Grupo_1206475" data-name="Grupo 1206475" transform="translate(13.312 291.311)">
              <g id="Grupo_1206474" data-name="Grupo 1206474" transform="translate(30.148)">
                <path id="Trazado_1076447" data-name="Trazado 1076447" d="M602.884,1716.907c.253-.1.452-.307.742-.306a2.213,2.213,0,0,1,2.194,2.218h-2.726C603.048,1718.36,602.973,1717.695,602.884,1716.907Z" transform="translate(-602.884 -1716.601)" fill="#ed457d"/>
                <path id="Trazado_1076448" data-name="Trazado 1076448" d="M680.195,1716.68a2.2,2.2,0,0,1,2.194,2.2H678A2.2,2.2,0,0,1,680.195,1716.68Z" transform="translate(-661.886 -1716.663)" fill="#ed457d"/>
                <path id="Trazado_1076449" data-name="Trazado 1076449" d="M700.669,1716.69a2.185,2.185,0,0,1,1.543.641c-.052.713-.094,1.293-.113,1.557h-3.628A2.2,2.2,0,0,1,700.669,1716.69Z" transform="translate(-677.968 -1716.671)" fill="#ed457d"/>
                <path id="Trazado_1076450" data-name="Trazado 1076450" d="M659.716,1716.66a2.2,2.2,0,0,1,2.194,2.206h-4.392A2.206,2.206,0,0,1,659.716,1716.66Z" transform="translate(-645.799 -1716.647)" fill="#ed457d"/>
                <path id="Trazado_1076451" data-name="Trazado 1076451" d="M639.242,1716.64a2.205,2.205,0,0,1,2.193,2.21h-4.392A2.209,2.209,0,0,1,639.242,1716.64Z" transform="translate(-629.717 -1716.632)" fill="#ed457d"/>
                <path id="Trazado_1076452" data-name="Trazado 1076452" d="M618.768,1716.62a2.209,2.209,0,0,1,2.193,2.213H616.57A2.213,2.213,0,0,1,618.768,1716.62Z" transform="translate(-613.634 -1716.616)" fill="#ed457d"/>
              </g>
              <path id="Trazado_1076453" data-name="Trazado 1076453" d="M606.018,1750.019c.079.638,20.743-.146,20.835-.918.764-6.442.831-19.738.93-22.164H603.862C604.54,1733.651,605.514,1745.937,606.018,1750.019Z" transform="translate(-573.504 -1724.72)" fill="#fff8b3"/>
              <path id="Trazado_1076454" data-name="Trazado 1076454" d="M512.186,1771.2c.406-1.505,14.5,1.732,17.11,1.4-.1,3.52,1.658,9.285,1.332,14.059-.226,3.324-3.108,5.624-6.175,6.03-11.842,1.57-43.183,6.5-44.132-2.184C479.541,1783.377,498.317,1778.883,512.186,1771.2Z" transform="translate(-476.443 -1759.174)" fill="#fff8b3"/>
              <path id="Trazado_1076455" data-name="Trazado 1076455" d="M517.051,1784.831a.883.883,0,0,0-1.238.079,60.382,60.382,0,0,1-11.391,4.011,31.66,31.66,0,0,1-3.837.739c-1.043-3.75-3.992-8.316-6.812-10.265a1.228,1.228,0,0,0-1.76.4,1.4,1.4,0,0,0,.369,1.868c2.173,1.5,4.577,5.155,5.59,8.182-7.7.341-13.91-1.733-16.27-4.585-9.155,4-19.031,7.075-19.141,11.943-.168,7.456,54.706,3.1,54.706,3.1C517.375,1795.822,516.988,1788.864,517.051,1784.831Z" transform="translate(-462.511 -1765.755)" fill="#f93d77"/>
              <path id="Trazado_1076456" data-name="Trazado 1076456" d="M517.215,1864.59c-.06.993-.11,1.953-.13,2.806,0,0-47.482,6.159-54.374-.836a2.874,2.874,0,0,1-.335-1.828C475.221,1868.277,505.368,1865.819,517.215,1864.59Z" transform="translate(-462.328 -1832.848)" fill="#b52652"/>
              <path id="Trazado_1076457" data-name="Trazado 1076457" d="M628.574,1739.48c-9.736.437-13.879.327-23.511,0-.032-.344-.064-.685-.095-1.015,9.718.326,13.834.439,23.625,0C628.587,1738.807,628.581,1739.1,628.574,1739.48Z" transform="translate(-574.373 -1733.779)" fill="#ed457d"/>
            </g>
            <path id="Trazado_1076458" data-name="Trazado 1076458" d="M748.578,1300.246c.245,20.67,2.637,76.787,3.679,100.913,7.29.151,12.408,1.94,18.658.164,0,0,2.979-74.413,4.421-105.029C767.684,1295.69,748.542,1297.245,748.578,1300.246Z" transform="translate(-673.867 -1095.034)" fill="#ffc19f"/>
            <g id="Grupo_1206477" data-name="Grupo 1206477" transform="translate(75.344 291.311)">
              <g id="Grupo_1206476" data-name="Grupo 1206476" transform="translate(0.495)">
                <path id="Trazado_1076459" data-name="Trazado 1076459" d="M856.117,1716.907c-.253-.1-.452-.307-.741-.306a2.213,2.213,0,0,0-2.194,2.218h2.726C855.953,1718.36,856.029,1717.695,856.117,1716.907Z" transform="translate(-831.874 -1716.601)" fill="#ed457d"/>
                <path id="Trazado_1076460" data-name="Trazado 1076460" d="M773.474,1716.68a2.2,2.2,0,0,0-2.193,2.2h4.392A2.2,2.2,0,0,0,773.474,1716.68Z" transform="translate(-767.54 -1716.663)" fill="#ed457d"/>
                <path id="Trazado_1076461" data-name="Trazado 1076461" d="M755.382,1716.69a2.184,2.184,0,0,0-1.543.641c.052.713.094,1.293.113,1.557h3.628A2.2,2.2,0,0,0,755.382,1716.69Z" transform="translate(-753.839 -1716.671)" fill="#ed457d"/>
                <path id="Trazado_1076462" data-name="Trazado 1076462" d="M793.95,1716.66a2.2,2.2,0,0,0-2.194,2.206h4.392A2.206,2.206,0,0,0,793.95,1716.66Z" transform="translate(-783.623 -1716.647)" fill="#ed457d"/>
                <path id="Trazado_1076463" data-name="Trazado 1076463" d="M814.426,1716.64a2.205,2.205,0,0,0-2.193,2.21h4.391A2.209,2.209,0,0,0,814.426,1716.64Z" transform="translate(-799.708 -1716.632)" fill="#ed457d"/>
                <path id="Trazado_1076464" data-name="Trazado 1076464" d="M834.9,1716.62a2.209,2.209,0,0,0-2.193,2.213H837.1A2.213,2.213,0,0,0,834.9,1716.62Z" transform="translate(-815.791 -1716.616)" fill="#ed457d"/>
              </g>
              <path id="Trazado_1076465" data-name="Trazado 1076465" d="M776.131,1750.019c-.079.638-20.743-.146-20.835-.918-.764-6.442-.831-19.738-.93-22.164h23.921C777.609,1733.651,776.635,1745.937,776.131,1750.019Z" transform="translate(-753.758 -1724.72)" fill="#fff8b3"/>
              <path id="Trazado_1076466" data-name="Trazado 1076466" d="M773.1,1771.2c-.406-1.505-14.5,1.732-17.11,1.4.1,3.52-1.658,9.285-1.332,14.059.227,3.324,3.108,5.624,6.175,6.03,11.842,1.57,43.183,6.5,44.132-2.184C805.741,1783.377,786.965,1778.883,773.1,1771.2Z" transform="translate(-753.953 -1759.174)" fill="#fff8b3"/>
              <path id="Trazado_1076467" data-name="Trazado 1076467" d="M752.287,1784.831a.883.883,0,0,1,1.238.079,60.379,60.379,0,0,0,11.391,4.011,31.655,31.655,0,0,0,3.837.739c1.043-3.75,3.992-8.316,6.812-10.265a1.228,1.228,0,0,1,1.76.4,1.4,1.4,0,0,1-.369,1.868c-2.173,1.5-4.577,5.155-5.59,8.182,7.7.341,13.909-1.733,16.27-4.585,9.155,4,19.031,7.075,19.141,11.943.168,7.456-54.706,3.1-54.706,3.1C751.963,1795.822,752.35,1788.864,752.287,1784.831Z" transform="translate(-751.94 -1765.755)" fill="#f93d77"/>
              <path id="Trazado_1076468" data-name="Trazado 1076468" d="M751.533,1864.59c.059.993.11,1.953.13,2.806,0,0,47.482,6.159,54.374-.836a2.874,2.874,0,0,0,.335-1.828C793.527,1868.277,763.38,1865.819,751.533,1864.59Z" transform="translate(-751.533 -1832.848)" fill="#b52652"/>
              <path id="Trazado_1076469" data-name="Trazado 1076469" d="M754.658,1739.48c9.736.437,13.879.327,23.511,0,.031-.344.064-.685.095-1.015-9.718.326-13.833.439-23.625,0C754.645,1738.807,754.651,1739.1,754.658,1739.48Z" transform="translate(-753.973 -1733.779)" fill="#ed457d"/>
            </g>
            <path id="Trazado_1076470" data-name="Trazado 1076470" d="M502.658,1331.991c21.449,9.234,66.1,11.715,101.536,1.68,0,0-10.545-44.782-11.973-49.612-17.4,1.294-61.887,1.819-77.352-.386C513.271,1289.365,504.4,1324.816,502.658,1331.991Z" transform="translate(-480.695 -1085.221)" fill="#43a3c9"/>
            <path id="Trazado_1076471" data-name="Trazado 1076471" d="M663.354,1156.933c-5.985,3.481-49.291,9.194-57.264,1.7,0,0,2.681-35.6,3.151-53.624,10.348-.251,40.913-.251,50.033.226C659.984,1115.924,661.553,1131.181,663.354,1156.933Z" transform="translate(-561.942 -944.747)" fill="#43a3c9"/>
            <path id="Trazado_1076472" data-name="Trazado 1076472" d="M629.268,1091.623H626a.51.51,0,0,1-.506-.506V1085.8h-1.877a.51.51,0,0,1-.506-.506v-3.479a.51.51,0,0,1,.506-.506h7.642a.509.509,0,0,1,.5.506v3.479a.509.509,0,0,1-.5.506h-1.49v5.317A.51.51,0,0,1,629.268,1091.623Zm-2.757-1.01h2.252v-5.318a.51.51,0,0,1,.506-.506h1.49v-2.468h-6.631v2.468H626a.51.51,0,0,1,.506.506Z" transform="translate(-575.316 -926.263)" fill="#baebf4"/>
            <path id="Trazado_1076473" data-name="Trazado 1076473" d="M625.848,1011.5c-.043-.559-.147-16.516-1.086-20.018l5.666-.681c1.381,5.863,1.306,20.107,1.351,20.7Z" transform="translate(-576.609 -855.164)" fill="#43a3c9"/>
            <path id="Trazado_1076474" data-name="Trazado 1076474" d="M633.87,1117.688a2.344,2.344,0,1,0,1.944-2.688A2.347,2.347,0,0,0,633.87,1117.688Z" transform="translate(-583.74 -952.703)" fill="#f0fcff"/>
            <path id="Trazado_1076475" data-name="Trazado 1076475" d="M818.415,1090.643h-3.263a.51.51,0,0,1-.506-.506v-5.317H812.77a.51.51,0,0,1-.505-.505v-3.479a.51.51,0,0,1,.505-.506h7.641a.509.509,0,0,1,.505.506v3.479a.509.509,0,0,1-.505.505h-1.49v5.317A.51.51,0,0,1,818.415,1090.643Zm-2.757-1.01h2.252v-5.318a.51.51,0,0,1,.505-.506h1.49v-2.468h-6.631v2.468h1.877a.51.51,0,0,1,.505.506Z" transform="translate(-723.894 -925.493)" fill="#baebf4"/>
            <path id="Trazado_1076476" data-name="Trazado 1076476" d="M823.017,1116.717a2.344,2.344,0,1,0,1.944-2.688A2.347,2.347,0,0,0,823.017,1116.717Z" transform="translate(-732.317 -951.94)" fill="#f0fcff"/>
            <path id="Trazado_1076477" data-name="Trazado 1076477" d="M702.208,1153.765a4.908,4.908,0,0,0-4.637,3.306.814.814,0,0,0,.5,1.038.777.777,0,0,0,.267.045.813.813,0,0,0,.771-.548,3.274,3.274,0,0,1,6.192,0,.8.8,0,0,0,1.038.5.815.815,0,0,0,.5-1.038A4.906,4.906,0,0,0,702.208,1153.765Zm-14.529,3.833a.815.815,0,0,0,1.542-.529,4.9,4.9,0,0,0-9.268,0,.819.819,0,0,0,.51,1.035.762.762,0,0,0,.261.045.816.816,0,0,0,.771-.551,3.271,3.271,0,0,1,6.185,0Zm13.566,8.859c-.854,1.533-1.992,2.195-3.323,1.943a5.643,5.643,0,0,1-3.8-3.373c.985-.263,2.408-1.145,2.46-2.05.1-1.766-5.884-1.769-5.943,0-.028.868,1.273,1.695,2.265,2.012a5.42,5.42,0,0,1-3.639,3.271c-1.336.264-2.542-.348-3.514-1.83a.421.421,0,0,0-.595-.124.43.43,0,0,0-.124.595c1.465,2.24,3.172,2.436,4.4,2.206a6.379,6.379,0,0,0,4.064-3.227,6.6,6.6,0,0,0,4.272,3.373,3.831,3.831,0,0,0,.668.056,4.109,4.109,0,0,0,3.558-2.436.43.43,0,0,0-.167-.583A.424.424,0,0,0,701.245,1166.457Z" transform="translate(-619.927 -983.176)" fill="#005f84"/>
            <path id="Trazado_1076478" data-name="Trazado 1076478" d="M823.909,1011.5c.043-.558.409-16.649,1.349-20.152l-5.928-.547c-1.381,5.863-1.306,20.107-1.352,20.7h5.932Z" transform="translate(-728.381 -855.165)" fill="#43a3c9"/>
            <path id="Trazado_1076479" data-name="Trazado 1076479" d="M879.827,1285.47c-2.967.221-6.764.417-11.029.583.4,7.453,5.414,13.364,11.6,13.364a9.6,9.6,0,0,0,2.8-.459C881.59,1292.31,880.27,1286.967,879.827,1285.47Z" transform="translate(-768.302 -1086.633)" fill="#0f84a8"/>
            <path id="Trazado_1076480" data-name="Trazado 1076480" d="M546.44,1283.67c-.544,1.933-1.933,7.331-3.591,13.859a9.633,9.633,0,0,0,2.841.475c6.2,0,11.219-5.93,11.606-13.4C552.965,1284.371,549.22,1284.067,546.44,1283.67Z" transform="translate(-512.266 -1085.219)" fill="#0f84a8"/>
            <g id="Grupo_1206481" data-name="Grupo 1206481" transform="translate(0 0)">
              <path id="Trazado_1076481" data-name="Trazado 1076481" d="M426.774,685.295c9.338-1.149,18.109,7.957,19.583,20.269s-.465,22.754-9.806,23.872-21.632-7.064-24.773-19.865C408.828,697.539,414.01,686.867,426.774,685.295Z" transform="translate(-408.675 -615.113)" fill="#ffc19f"/>
              <path id="Trazado_1076482" data-name="Trazado 1076482" d="M466.542,774.964c1.842,5.116,6.992,7.946,11.5,6.324s6.676-7.087,4.833-12.2-6.99-7.946-11.5-6.324S464.7,769.848,466.542,774.964Z" transform="translate(-451.811 -675.681)" fill="#e0956c"/>
              <path id="Trazado_1076483" data-name="Trazado 1076483" d="M921.421,685.295c-9.338-1.149-18.109,7.957-19.583,20.269s.464,22.754,9.805,23.872,21.633-7.064,24.774-19.865C939.368,697.539,934.186,686.867,921.421,685.295Z" transform="translate(-793.908 -615.113)" fill="#ffc19f"/>
              <path id="Trazado_1076484" data-name="Trazado 1076484" d="M948.221,774.964c-1.842,5.116-6.992,7.946-11.505,6.324s-6.675-7.087-4.833-12.2,6.991-7.946,11.5-6.324S950.059,769.848,948.221,774.964Z" transform="translate(-817.339 -675.681)" fill="#e0956c"/>
              <path id="Trazado_1076485" data-name="Trazado 1076485" d="M444.542,405.458c-3.916,43.347,27.594,71.417,63.348,70.722s64.59-32.779,60.147-74.829c-2.466-23.348-26.7-43.761-60.853-42.873C471.436,359.409,447.327,374.631,444.542,405.458Z" transform="translate(-434.785 -358.451)" fill="#b50000"/>
              <path id="Trazado_1076486" data-name="Trazado 1076486" d="M599.909,469.134c-7.764-21.571-26.474-21.879-50.97-21.879s-43.205.308-50.969,21.879c-2.341,6.506-.325,60.159,6.378,72.188,5.666,10.163,27.429,20.153,42.605,20.153h3.972c15.176,0,36.938-9.99,42.6-20.153C600.234,529.293,602.249,475.639,599.909,469.134Z" transform="translate(-476.277 -428.207)" fill="#ffc19f"/>
              <path id="Trazado_1076487" data-name="Trazado 1076487" d="M534.075,798.13c-.149,2.508,3.217,4.748,7.517,5s7.906-1.572,8.055-4.08-3.218-4.748-7.516-5S534.223,795.622,534.075,798.13Z" transform="translate(-505.37 -700.599)" fill="#ff9797"/>
              <path id="Trazado_1076488" data-name="Trazado 1076488" d="M868.115,799.39c.2,2.5,3.847,4.253,8.141,3.905s7.609-2.659,7.406-5.164-3.848-4.253-8.141-3.905S867.911,796.886,868.115,799.39Z" transform="translate(-767.758 -700.721)" fill="#ff9797"/>
              <g id="Grupo_1206478" data-name="Grupo 1206478" transform="translate(53.212 98.859)">
                <path id="Trazado_1076489" data-name="Trazado 1076489" d="M687.563,823.4c-.81-4.221-7.3-3.128-17.894-3.2-.555,0-2.71,0-3.266,0-10.6.071-17.085-1.022-17.894,3.2-1.56,8.132,8.669,17.029,19.432,17.062h.186C678.891,840.43,689.122,831.534,687.563,823.4Z" transform="translate(-648.351 -819.959)" fill="#701608"/>
                <path id="Trazado_1076490" data-name="Trazado 1076490" d="M700.743,889.339h-.186a22.083,22.083,0,0,1-10.479-2.839l-.206-.11.174-.154a16.407,16.407,0,0,1,21.213,0l.174.154-.206.11A22.142,22.142,0,0,1,700.743,889.339Z" transform="translate(-680.966 -868.835)" fill="#dd6b5b"/>
                <path id="Trazado_1076491" data-name="Trazado 1076491" d="M687.447,824.878c-7.405,0-13.57-2.3-14.341-5.342l-.045-.187h28.773l-.045.187C701.011,822.583,694.846,824.878,687.447,824.878Z" transform="translate(-667.761 -819.35)" fill="#fff"/>
              </g>
              <path id="Trazado_1076492" data-name="Trazado 1076492" d="M717.357,776.913a.578.578,0,0,0,.56-.494A4.126,4.126,0,0,1,726,776.25a.578.578,0,0,0,1.14-.186,5.28,5.28,0,0,0-10.366.188.58.58,0,0,0,.489.656Z" transform="translate(-648.88 -683.203)" fill="#c4735b"/>
              <path id="Trazado_1076493" data-name="Trazado 1076493" d="M400.264,435.791c7.428-2.632,12.062-7.43,12.485-19.537-4.286-.918-6.326-2.172-10.461-3.546,16.057-4.062,13.7-26.989,34.659-36.574,34.365-13,65.7-3.445,74.725,1.807,16.635,9.677,18.685,22.719,19.885,37.338,2.3,13.242,5.25,17.162,12.174,20.176-7.446,2.156-11.852.222-14.374-2.349.738,8.335,4.612,10.975,8.895,14.666-11.623.591-18.094-9.117-20.187-17.5-2.324-9.313,1.306-19.576-.161-23.224-.849-2.111-8.5-14.3-11.712-14.4-6.995-.2-14.675,24.1-39.438,23.709,10-5.381,15.449-13,20.95-23.849a38.493,38.493,0,0,0-5.819,4.273c-20.321,18-42.051,20.585-59.517,19.081,2.888,14.19,7.125,29.063-14.945,35.843,2-2.477,4.926-9.919,5.354-15.8C410.412,437.366,406.081,438.65,400.264,435.791Z" transform="translate(-400.264 -367.215)" fill="#b50000"/>
              <path id="Trazado_1076494" data-name="Trazado 1076494" d="M544.022,594.169a1.81,1.81,0,0,1-1.238-3.145c5.366-4.9,15.083-6.346,23.1-3.457a1.81,1.81,0,1,1-1.229,3.405c-6.72-2.431-15.074-1.261-19.431,2.723A1.805,1.805,0,0,1,544.022,594.169Z" transform="translate(-511.752 -537.263)" fill="#a50202"/>
              <path id="Trazado_1076495" data-name="Trazado 1076495" d="M840.538,594.169a1.81,1.81,0,0,0,1.238-3.145c-5.366-4.9-15.083-6.346-23.1-3.457a1.81,1.81,0,1,0,1.229,3.405c6.72-2.431,15.074-1.261,19.431,2.723A1.805,1.805,0,0,0,840.538,594.169Z" transform="translate(-727.991 -537.263)" fill="#a50202"/>
              <g id="Grupo_1206479" data-name="Grupo 1206479" transform="translate(84.946 68.147)">
                <path id="Trazado_1076496" data-name="Trazado 1076496" d="M798.9,686.626c-3.741,5.54-3.216,11.612.12,13.9,5.027,3.442,16.853,4.352,21.216-.705,4.225-4.9,2.081-13.76-4.915-17.529C809.2,678.988,802.52,681.265,798.9,686.626Z" transform="translate(-796.301 -679.768)" fill="#f9feff"/>
                <path id="Trazado_1076497" data-name="Trazado 1076497" d="M829.957,681.329c-5.5-8.509-18.511-5.522-22.121,1.883a12.493,12.493,0,0,1,16.381-4.218,13.145,13.145,0,0,1,6.7,9.049c.556,3.014-.109,6.4-1.864,8.438C831.085,695.147,834,687.587,829.957,681.329Z" transform="translate(-805.362 -676.166)" fill="#8e381e"/>
                <path id="Trazado_1076498" data-name="Trazado 1076498" d="M832.283,707.493a7.461,7.461,0,1,1-9.7-4.16A7.461,7.461,0,0,1,832.283,707.493Z" transform="translate(-813.26 -697.086)" fill="#752912"/>
                <path id="Trazado_1076499" data-name="Trazado 1076499" d="M828.647,716.84a2.07,2.07,0,1,1-2.69-1.154A2.07,2.07,0,0,1,828.647,716.84Z" transform="translate(-818.572 -707.092)" fill="#fefffe"/>
              </g>
              <g id="Grupo_1206480" data-name="Grupo 1206480" transform="translate(34.227 68.147)">
                <path id="Trazado_1076500" data-name="Trazado 1076500" d="M585.786,686.626c3.741,5.54,3.216,11.612-.12,13.9-5.027,3.442-16.854,4.352-21.217-.705-4.225-4.9-2.081-13.76,4.915-17.529C575.49,678.988,582.166,681.265,585.786,686.626Z" transform="translate(-561.763 -679.768)" fill="#f9feff"/>
                <path id="Trazado_1076501" data-name="Trazado 1076501" d="M561.864,681.329c5.5-8.509,18.512-5.522,22.122,1.883a12.494,12.494,0,0,0-16.381-4.218,13.145,13.145,0,0,0-6.7,9.049c-.556,3.014.109,6.4,1.863,8.438C560.737,695.147,557.821,687.587,561.864,681.329Z" transform="translate(-559.837 -676.166)" fill="#8e381e"/>
                <path id="Trazado_1076502" data-name="Trazado 1076502" d="M596.63,707.493a7.461,7.461,0,1,0,9.7-4.16A7.461,7.461,0,0,0,596.63,707.493Z" transform="translate(-588.318 -697.086)" fill="#752912"/>
                <path id="Trazado_1076503" data-name="Trazado 1076503" d="M600.865,716.84a2.07,2.07,0,1,0,2.69-1.154A2.07,2.07,0,0,0,600.865,716.84Z" transform="translate(-591.948 -707.093)" fill="#fefffe"/>
              </g>
            </g>
            <rect id="Rectángulo_417639" data-name="Rectángulo 417639" width="29.576" height="8.045" transform="translate(13.818 161.204) rotate(51.354)" fill="#ff8b00"/>
            <path id="Trazado_1076504" data-name="Trazado 1076504" d="M461.646,1038.86c-6.18,6.37-14.732,15.1-20.151,20.562,2.415,3.057,1.552,18.349,8.133,19.759,1.494-.832,4.271-2.607,5.793-3.65,3.133-6.867,5.172-16.491,6.281-26.163C466.887,1046.451,464.391,1042.234,461.646,1038.86Z" transform="translate(-432.651 -892.918)" fill="#a00000" opacity="0.19"/>
            <g id="Grupo_1206482" data-name="Grupo 1206482" transform="translate(0.624 120.511)">
              <path id="Trazado_1076505" data-name="Trazado 1076505" d="M508.443,978.919c.772,1.434-.323,3.524-2.446,4.667s-4.47.909-5.243-.524.323-3.523,2.445-4.667S507.671,977.486,508.443,978.919Z" transform="translate(-479.629 -965.363)" fill="#e4a78e"/>
              <path id="Trazado_1076506" data-name="Trazado 1076506" d="M444.651,926.959c-1.028.228-4,2.054-6.081,3.75,3.944-5.91,8.479-3.492,8.187-4.806-.305-1.378-2.835-3.332-4.679-2.924-1.3.288-5.46,2.75-7.7,4.66,2.6-4.876,7.55-4.659,6.909-5.805-.689-1.231-3.024-1.927-4.808-1.315-2.471.847-8.365,7.222-8.358,9.1.008,2.145,2.931,9.315,6.225,14.872,3.83,6.462,9.224,12.73,13.348,10.507,8.267-4.455.671-10.526-3.106-15.083,3.571-6.933,6.477-5.151,7.272-5.171-.039-1.41-2.353-3.99-5.374-3.3a19.21,19.21,0,0,0-4.538,2.585c3.41-5.078,7.309-2.791,7.028-4.062C448.674,928.584,446.326,926.588,444.651,926.959Z" transform="translate(-422.773 -920.295)" fill="#ffc19f"/>
              <path id="Trazado_1076507" data-name="Trazado 1076507" d="M428.87,1049.788c-.878,12.694-4.417,24.315-8.5,32.251-5.8,11.278-22.64.216-15.435-10.81,4.48-6.857,10.259-15.334,13.531-24.826C419.1,1044.572,429.008,1047.8,428.87,1049.788Z" transform="translate(-403.172 -1018.928)" fill="#ffc19f"/>
            </g>
            <rect id="Rectángulo_417640" data-name="Rectángulo 417640" width="29.576" height="8.045" transform="matrix(-0.154, 0.988, -0.988, -0.154, 134.898, 143.426)" fill="#ff8b00"/>
          </g>
          <g id="Grupo_1206484" data-name="Grupo 1206484" transform="translate(-2882.432 8296.108)">
            <path id="Trazado_1076508" data-name="Trazado 1076508" d="M1156.217,341.488a1.791,1.791,0,0,0,1.236,2.2l12.107,3.451a1.742,1.742,0,0,0,2.18-1.181,1.831,1.831,0,0,0-1.236-2.2l-12.107-3.451A1.78,1.78,0,0,0,1156.217,341.488Zm81.867,7.465a1.652,1.652,0,0,1-1.529,1.988l-15.958,2.084a1.754,1.754,0,0,1-1.933-1.513,1.73,1.73,0,0,1,1.475-2.005l15.958-2.084A1.786,1.786,0,0,1,1238.084,348.954Zm-16.535-30.327a1.727,1.727,0,0,1,.423,2.483l-9.359,13.077a1.73,1.73,0,0,1-2.465.368,1.67,1.67,0,0,1-.386-2.41l9.359-13.077A1.756,1.756,0,0,1,1221.549,318.627Zm7.632,15.174a1.69,1.69,0,0,1-.633,2.392l-10.945,6.252a1.735,1.735,0,0,1-2.373-.687,1.688,1.688,0,0,1,.633-2.392l10.944-6.252A1.735,1.735,0,0,1,1229.18,333.8Zm-69.195-9.439a1.692,1.692,0,0,0,.114,2.506l11.885,10.85a1.83,1.83,0,0,0,2.506-.114,1.792,1.792,0,0,0-.115-2.506l-11.884-10.851A1.787,1.787,0,0,0,1159.985,324.361Zm30.927-15.382a1.722,1.722,0,0,0-1.769,1.792l.177,16.08a1.782,1.782,0,0,0,3.561-.023l-.232-16.1A1.727,1.727,0,0,0,1190.913,308.979Zm-14.95,8.064a1.735,1.735,0,0,0-.852,2.322l5.387,11.4a1.805,1.805,0,0,0,2.394.814,1.734,1.734,0,0,0,.8-2.339l-5.387-11.4A1.733,1.733,0,0,0,1175.963,317.043Zm29.849-2.77a1.742,1.742,0,0,1,1.109,2.217l-3.779,12a1.743,1.743,0,0,1-2.18,1.182,1.791,1.791,0,0,1-1.164-2.234l3.78-12A1.79,1.79,0,0,1,1205.812,314.273Zm25.546,50.876a1.755,1.755,0,0,1-2.271,1.092l-11.9-4.109a1.741,1.741,0,0,1-1.109-2.216,1.83,1.83,0,0,1,2.271-1.092l11.9,4.109A1.779,1.779,0,0,1,1231.358,365.149Zm-5.993,15.4a1.661,1.661,0,0,1-2.451.132l-11.885-10.851a1.705,1.705,0,0,1-.132-2.452,1.731,1.731,0,0,1,2.468-.186l11.885,10.851A1.8,1.8,0,0,1,1225.365,380.551Zm-73.058-23.005a1.707,1.707,0,0,0,1.989,1.529l15.958-2.083a1.738,1.738,0,0,0,1.512-1.934,1.8,1.8,0,0,0-1.971-1.584l-15.958,2.084A1.8,1.8,0,0,0,1152.307,357.546Z" transform="translate(-1152.298 -308.979)" fill="#ffdf5a"/>
            <path id="Trazado_1076509" data-name="Trazado 1076509" d="M1278.89,468.964l-5.861-1.845c-.253.8.844,1.865,2.491,2.384C1277.129,470.009,1278.637,469.769,1278.89,468.964Zm4.44-2.6-12.027-3.787a.9.9,0,0,0-1.12.616l-.205.651a.928.928,0,0,0,.565,1.147l12.027,3.787a.963.963,0,0,0,1.159-.6l.205-.651A.935.935,0,0,0,1283.33,466.362Zm1.169-3.715-12.027-3.787a.926.926,0,0,0-1.12.615l-.205.651a.9.9,0,0,0,.565,1.146l12.027,3.787a.908.908,0,0,0,1.158-.6l.2-.651A.934.934,0,0,0,1284.5,462.647Zm16.938-16.35a17.148,17.148,0,1,0-29.315,6.052l-1.435,4.558,16.854,5.307,1.375-4.367A17.128,17.128,0,0,0,1301.438,446.3Z" transform="translate(-1243.13 -399.323)" fill="#ffbc00"/>
            <path id="Trazado_1076510" data-name="Trazado 1076510" d="M1321.288,507.986a3.138,3.138,0,0,0-3.943-2.035,3.183,3.183,0,0,0-.374.162,3.818,3.818,0,0,0-1.367-2.43,3.5,3.5,0,1,0-4.447,5.4,3.925,3.925,0,0,0,1.311.714,3.707,3.707,0,0,0,1.344.167,3.538,3.538,0,0,0,.63-.1l-3.547,11.264,1.241.391,3.463-11a3.132,3.132,0,0,0,5.689-2.533Zm-7.552.68a2.532,2.532,0,0,1-1.752-.587,2.319,2.319,0,0,1-.47-3.233,2.206,2.206,0,0,1,2.389-.636,2.6,2.6,0,0,1,.873.476,2.319,2.319,0,0,1,.468,3.232A2.079,2.079,0,0,1,1313.736,508.667Zm5.122,2.023a1.836,1.836,0,0,1-2.191-2.593,1.835,1.835,0,0,1,2.179-.91,1.867,1.867,0,0,1,.3.122,1.836,1.836,0,0,1-.284,3.381Z" transform="translate(-1275.98 -461.227)" fill="#fff"/>
          </g>
        </g>
      </g>
      <g id="Grupo_1206626" data-name="Grupo 1206626" transform="translate(952.417 8927.059)">
        <g id="Grupo_1206621" data-name="Grupo 1206621" transform="translate(321.908 272.594)">
          <g id="Grupo_1206620" data-name="Grupo 1206620">
            <circle id="Elipse_14295" data-name="Elipse 14295" cx="33.168" cy="33.168" r="33.168" fill="#7182ff"/>
          </g>
        </g>
        <g id="Grupo_1206625" data-name="Grupo 1206625" transform="translate(332.546 295.363)">
          <g id="Grupo_1206622" data-name="Grupo 1206622" transform="translate(0 0.153)">
            <path id="Trazado_1076659" data-name="Trazado 1076659" d="M355.593,331.79a1.43,1.43,0,0,1,.027.361,1.025,1.025,0,0,1-1.032,1.057h-1.623a1.21,1.21,0,0,1-1.187-.928l-.9-3.067h-4.613l-.928,3.067a1.2,1.2,0,0,1-1.16.928h-1.6a1.024,1.024,0,0,1-1.03-1.057,1.525,1.525,0,0,1,.025-.361l4.948-15.978a1.216,1.216,0,0,1,1.185-.9h1.753a1.214,1.214,0,0,1,1.185.9Zm-7.036-10.464-1.212,4.15h2.422Z" transform="translate(-341.547 -314.909)" fill="#ffe9dc"/>
          </g>
          <g id="Grupo_1206623" data-name="Grupo 1206623" transform="translate(17.269 0.283)">
            <path id="Trazado_1076660" data-name="Trazado 1076660" d="M379.612,333.318H374.9a1.5,1.5,0,0,1-1.469-1.546V316.7a1.522,1.522,0,0,1,.439-1.083,1.332,1.332,0,0,1,1.03-.463h4.02a5.236,5.236,0,0,1,5.155,5.309,4.339,4.339,0,0,1-1.083,2.912,4.733,4.733,0,0,1,2.088,4.2A5.6,5.6,0,0,1,379.612,333.318Zm-.9-14.432h-1.573v3.2h1.573a1.682,1.682,0,0,0,1.649-1.571A1.639,1.639,0,0,0,378.711,318.886Zm-1.573,6.8v3.867h2.346a1.935,1.935,0,0,0,0-3.866h-2.346Z" transform="translate(-373.427 -315.149)" fill="#ffe9dc"/>
          </g>
          <g id="Grupo_1206624" data-name="Grupo 1206624" transform="translate(32.426 0)">
            <path id="Trazado_1076661" data-name="Trazado 1076661" d="M412.747,329.548a1.245,1.245,0,0,1,.334.825,1.132,1.132,0,0,1-.232.7l-.025.025a6.465,6.465,0,0,1-5.025,2.321c-3.686,0-6.393-3.3-6.393-6.856v-5.1a6.656,6.656,0,0,1,6.393-6.83,6.271,6.271,0,0,1,5,2.294,1.092,1.092,0,0,1,.258.746,1.436,1.436,0,0,1-.284.8L411.74,319.6a.987.987,0,0,1-.721.336.96.96,0,0,1-.773-.387,3.115,3.115,0,0,0-2.447-1.082,2.9,2.9,0,0,0-2.629,2.99v5.1a2.911,2.911,0,0,0,2.629,3.015,3.114,3.114,0,0,0,2.447-1.082.948.948,0,0,1,.748-.386,1.031,1.031,0,0,1,.746.334Z" transform="translate(-401.407 -314.627)" fill="#ffe9dc"/>
          </g>
        </g>
      </g>
      <g id="Grupo_1206616" data-name="Grupo 1206616" transform="translate(957.417 8942.086)">
        <g id="Grupo_1206614" data-name="Grupo 1206614" transform="translate(82.057 270.914)">
          <g id="Grupo_1206609" data-name="Grupo 1206609" transform="translate(0 18.889)">
            <path id="Trazado_1076653" data-name="Trazado 1076653" d="M165.685,346.22c.308,10.477-4.472,20.587-11.1,28.713a33.767,33.767,0,0,1-8.916,8.087,25.589,25.589,0,0,1-2.516,1.272,44.479,44.479,0,0,1-8.1,2.5c-8.578,1.947-17.744,2.8-25.995-.212-9.388-3.431-16.414-11.489-21.224-20.25-3.393-6.188-5.918-13.05-5.773-20.1a22.37,22.37,0,0,1,.27-3.094c.867-6,3.923-11.749,9.022-14.959a20.748,20.748,0,0,1,12.733-2.766c3.547.27,7.576,2.448,11.1,1.619.116-.019.231-.058.347-.087,3.229-.944,6.053-3.21,9.272-4.492.415-.174.839-.318,1.272-.453a44.964,44.964,0,0,1,13.2-1.783,31.081,31.081,0,0,1,9.918,1.465C159.112,325.1,165.377,335.743,165.685,346.22Z" transform="translate(-82.057 -320.214)" fill="#f7607d"/>
          </g>
          <g id="Grupo_1206610" data-name="Grupo 1206610" transform="translate(33.034)">
            <path id="Trazado_1076654" data-name="Trazado 1076654" d="M168.273,297.226a32.845,32.845,0,0,1,22.065-26.312,24.825,24.825,0,0,1-6.385,16.063C180.073,291.528,173.7,294.718,168.273,297.226Z" transform="translate(-168.273 -270.914)" fill="#7182ff"/>
          </g>
          <g id="Grupo_1206613" data-name="Grupo 1206613" transform="translate(62.788 23.706)">
            <g id="Grupo_1206611" data-name="Grupo 1206611">
              <path id="Trazado_1076655" data-name="Trazado 1076655" d="M245.929,337.976a11.251,11.251,0,0,0,2.461,6.413,11.108,11.108,0,0,0,2.731,2.833,5.318,5.318,0,0,0,3.743.953c2.287-.369,3.91-2.693,4.024-5.007a9.424,9.424,0,0,0-2.49-6.314c-1.438-1.719-4.126-4.074-6.548-4.069C247.392,332.79,245.939,335.773,245.929,337.976Z" transform="translate(-245.929 -332.785)" fill="#ffe9dc"/>
            </g>
            <g id="Grupo_1206612" data-name="Grupo 1206612" transform="translate(10.014 17.052)">
              <path id="Trazado_1076656" data-name="Trazado 1076656" d="M272.418,383.5a4.046,4.046,0,0,0,.934,1.519,3.231,3.231,0,0,0,2.755.787,4.307,4.307,0,0,0-.294-8.493C272.433,376.955,271.449,380.922,272.418,383.5Z" transform="translate(-272.064 -377.289)" fill="#ffe9dc"/>
            </g>
          </g>
        </g>
        <g id="Grupo_1206615" data-name="Grupo 1206615" transform="translate(82.057 312.725)" opacity="0.33">
          <path id="Trazado_1076657" data-name="Trazado 1076657" d="M143.151,421.195a44.479,44.479,0,0,1-8.1,2.5c-8.578,1.947-17.744,2.8-25.995-.212-9.388-3.431-16.414-11.489-21.224-20.25-3.393-6.188-5.918-13.05-5.773-20.1a22.37,22.37,0,0,1,.27-3.094,50.834,50.834,0,0,0,6.332,12.443,67.4,67.4,0,0,0,25.927,22.872A57.593,57.593,0,0,0,143.151,421.195Z" transform="translate(-82.057 -380.039)" fill="#512651"/>
        </g>
      </g>
      <g id="Grupo_1206619" data-name="Grupo 1206619" transform="translate(725.683 8943.836)">
        <g id="Grupo_1206617" data-name="Grupo 1206617" transform="translate(326.605 24.208)">
          <circle id="Elipse_14294" data-name="Elipse 14294" cx="24.193" cy="24.193" r="24.193" transform="translate(0 22.834) rotate(-28.156)" fill="#bd6eeb"/>
        </g>
        <g id="Grupo_1206618" data-name="Grupo 1206618" transform="translate(341.448 50.144)">
          <path id="Trazado_1076658" data-name="Trazado 1076658" d="M371.411,108.136a.642.642,0,0,1-.534-.286l-6.6-9.9a.642.642,0,1,1,1.068-.713l5.781,8.672,3.718-15.571a.642.642,0,0,1,.625-.493H401.1a.642.642,0,1,1,0,1.284H375.978l-3.943,16.51a.642.642,0,0,1-.512.483A.633.633,0,0,1,371.411,108.136Z" transform="translate(-364.171 -89.849)" fill="#ffe9dc"/>
        </g>
      </g>
    </g>
  </g>
</svg>
