<svg xmlns="http://www.w3.org/2000/svg" xmlns:xlink="http://www.w3.org/1999/xlink" width="108" height="108" viewBox="0 0 108 108">
  <defs>
    <filter id="Trazado_904820" x="0" y="0" width="108" height="108" filterUnits="userSpaceOnUse">
      <feOffset dy="3" input="SourceAlpha"/>
      <feGaussianBlur stdDeviation="3" result="blur"/>
      <feFlood flood-opacity="0.161"/>
      <feComposite operator="in" in2="blur"/>
      <feComposite in="SourceGraphic"/>
    </filter>
  </defs>
  <g id="Grupo_1206630" data-name="Grupo 1206630" transform="translate(-620 -9535.403)">
    <g id="Grupo_1185091" data-name="Grupo 1185091" transform="translate(419.773 8756.733)">
      <g id="Grupo_1179560" data-name="Grupo 1179560" transform="translate(-0.227 23)">
        <g id="Grupo_1173787" data-name="Grupo 1173787" transform="translate(209.455 761.67)">
          <g id="Grupo_1171910" data-name="Grupo 1171910" transform="translate(0)">
            <g id="Grupo_1167341" data-name="Grupo 1167341">
              <g id="Grupo_1166792" data-name="Grupo 1166792">
                <g transform="matrix(1, 0, 0, 1, -9, -6)" filter="url(#Trazado_904820)">
                  <g id="Trazado_904820-2" data-name="Trazado 904820" transform="translate(9 6)" fill="#f9ecff">
                    <path d="M 44.99999618530273 88.50003051757812 C 39.12687301635742 88.50003051757812 33.43022155761719 87.35010528564453 28.06829643249512 85.08219909667969 C 22.88852119445801 82.89134216308594 18.23629570007324 79.75461578369141 14.24084663391113 75.75916290283203 C 10.24540901184082 71.76371765136719 7.108683586120605 67.11150360107422 4.917821407318115 61.93172836303711 C 2.649921178817749 56.56978988647461 1.499996185302734 50.87313842773438 1.499996185302734 45.00001525878906 C 1.499996185302734 39.12689208984375 2.649921178817749 33.43024063110352 4.917821407318115 28.06831550598145 C 7.108683586120605 22.88854026794434 10.24540901184082 18.23631477355957 14.24084663391113 14.24086570739746 C 18.23629570007324 10.24541568756104 22.88852119445801 7.10869026184082 28.06829643249512 4.917840480804443 C 33.43022155761719 2.649927854537964 39.12687301635742 1.50000274181366 44.99999618530273 1.50000274181366 C 50.87311935424805 1.50000274181366 56.56977081298828 2.649927854537964 61.93169784545898 4.917840480804443 C 67.11147308349609 7.10869026184082 71.76369476318359 10.24541568756104 75.75914764404297 14.24086570739746 C 79.75458526611328 18.23631477355957 82.89131164550781 22.88854026794434 85.08216857910156 28.06831550598145 C 87.35007476806641 33.43024063110352 88.5 39.12689208984375 88.5 45.00001525878906 C 88.5 50.87313842773438 87.35007476806641 56.56978988647461 85.08216857910156 61.93172836303711 C 82.89131164550781 67.11150360107422 79.75458526611328 71.76371765136719 75.75914764404297 75.75916290283203 C 71.76369476318359 79.75461578369141 67.11147308349609 82.89134216308594 61.93169784545898 85.08219909667969 C 56.56977081298828 87.35010528564453 50.87311935424805 88.50003051757812 44.99999618530273 88.50003051757812 Z" stroke="none"/>
                    <path d="M 44.99999618530273 3 C 39.32870864868164 3 33.82865142822266 4.110061645507812 28.65262603759766 6.299346923828125 C 23.65165710449219 8.414573669433594 19.15968322753906 11.44334411621094 15.301513671875 15.301513671875 C 11.44333648681641 19.15968322753906 8.414566040039062 23.65165710449219 6.299339294433594 28.65262985229492 C 4.110054016113281 33.82867050170898 2.999992370605469 39.32872772216797 2.999992370605469 45.00001525878906 C 2.999992370605469 50.67130279541016 4.110054016113281 56.17136001586914 6.299339294433594 61.34738922119141 C 8.414566040039062 66.34837341308594 11.44333648681641 70.84033203125 15.301513671875 74.69850158691406 C 19.15968322753906 78.55668640136719 23.65165710449219 81.58545684814453 28.65262603759766 83.70068359375 C 33.82865142822266 85.88996887207031 39.32870864868164 87.00003051757812 44.99999618530273 87.00003051757812 C 50.67128372192383 87.00003051757812 56.17134094238281 85.88996887207031 61.34736633300781 83.70068359375 C 66.34834289550781 81.58545684814453 70.84030914306641 78.55668640136719 74.69847869873047 74.69850158691406 C 78.55665588378906 70.84033203125 81.58542633056641 66.34837341308594 83.70065307617188 61.34738922119141 C 85.88993835449219 56.17136001586914 87 50.67130279541016 87 45.00001525878906 C 87 39.32872772216797 85.88993835449219 33.82867050170898 83.70065307617188 28.65262985229492 C 81.58542633056641 23.65165710449219 78.55665588378906 19.15968322753906 74.69847869873047 15.301513671875 C 70.84030914306641 11.44334411621094 66.34834289550781 8.414573669433594 61.34736633300781 6.299346923828125 C 56.17134094238281 4.110061645507812 50.67128372192383 3 44.99999618530273 3 M 44.99999618530273 0 C 69.85281372070312 0 90 20.14718627929688 90 45.00001525878906 C 90 69.85282897949219 69.85281372070312 90.00003051757812 44.99999618530273 90.00003051757812 C 20.14717864990234 90.00003051757812 -7.62939453125e-06 69.85282897949219 -7.62939453125e-06 45.00001525878906 C -7.62939453125e-06 20.14718627929688 20.14717864990234 0 44.99999618530273 0 Z" stroke="none" fill="#cf50ff"/>
                  </g>
                </g>
              </g>
            </g>
          </g>
        </g>
      </g>
    </g>
    <g id="educacion_3_" data-name="educacion (3)" transform="translate(646.449 9552.15)">
      <g id="Grupo_1206629" data-name="Grupo 1206629" transform="translate(0.944 5.659)">
        <path id="Trazado_1076662" data-name="Trazado 1076662" d="M96.5,233.525a10.842,10.842,0,0,0-.065,8.03l.884,1.733H59.143s-7.108-3.994,0-11.1l37.846-.78Z" transform="translate(-50.903 -207.715)" fill="#f1f2f2"/>
        <path id="Trazado_1076663" data-name="Trazado 1076663" d="M97.322,243.286H59.146s-7.107-3.994,0-11.1l37.846-.78-.491,2.119a10.4,10.4,0,0,0-.539,1.722H61.321a2.433,2.433,0,1,0,0,4.866H95.975a9.347,9.347,0,0,0,.462,1.442Z" transform="translate(-50.905 -207.714)" fill="#dee1e1"/>
        <path id="Trazado_1076664" data-name="Trazado 1076664" d="M80.555,234.16l-34.9-.055c-4.181,0-7.771-2.667-7.771-6.847a9.525,9.525,0,0,1,.142-2.952,7.573,7.573,0,0,1,7.1-4.943h35.8a1.707,1.707,0,1,1,0,3.415H53.837l-2.646.621-2.3-.621H45.132a4.155,4.155,0,0,0,0,8.31h35.8a1.709,1.709,0,0,1,1.7,1.908c-.1.848-1.2,1.165-2.072,1.165Z" transform="translate(-34.716 -196.967)" fill="#b7e546"/>
        <path id="Trazado_1076665" data-name="Trazado 1076665" d="M80.273,270.361a1.707,1.707,0,0,1-1.7,1.507l-17.686,1.06-18.113-1.06a7.573,7.573,0,0,1-6.924-10.633v1.556a7.57,7.57,0,0,0,7.57,7.57Z" transform="translate(-32.362 -234.334)" fill="#abd641"/>
        <path id="Trazado_1076666" data-name="Trazado 1076666" d="M146.573,256.07v-4.978h-3.548l-1.26.126.076,4.636a.215.215,0,0,0,.294.2l.89-.218,1-.39a.215.215,0,0,1,.157,0l2.1.823A.215.215,0,0,0,146.573,256.07Z" transform="translate(-127.452 -225.282)" fill="#ef5227"/>
        <path id="Trazado_1076667" data-name="Trazado 1076667" d="M141.869,251.1v4.745l-1.105.433a.215.215,0,0,1-.294-.2V251.1Z" transform="translate(-126.296 -225.285)" fill="#d83724"/>
        <path id="Trazado_1076668" data-name="Trazado 1076668" d="M133.848,173.141v2.427l-.108,1.076a.754.754,0,0,1-.753.753l-28.682-.108a.753.753,0,0,1-.753-.753l-.215-3.4,14.724-.7Z" transform="translate(-93.158 -155.093)" fill="#fdcd08"/>
        <path id="Trazado_1076669" data-name="Trazado 1076669" d="M437.822,197.8c-.674,1.661-1.352,3.3-2.025,4.96a1.508,1.508,0,0,0,1.384,2.081l1.246.108h3.031a1.508,1.508,0,0,0,1.384-2.081l-1.4-3.464-.884-1.6h-2.73Z" transform="translate(-389.738 -177.724)" fill="#fdcd08"/>
        <path id="Trazado_1076670" data-name="Trazado 1076670" d="M438.017,197.661a4.091,4.091,0,0,0,2.528-.612l-.756-1.888-1.249.373h0l-1.628-.217c-.206.507-.5,1.227-.71,1.734h0l-1.4,3.462a1.507,1.507,0,0,0,1.383,2.08H437.9a1.507,1.507,0,0,1-1.383-2.08l1.049-2.585A.435.435,0,0,1,438.017,197.661Z" transform="translate(-388.848 -175.371)" fill="#faab18"/>
        <path id="Trazado_1076671" data-name="Trazado 1076671" d="M452.265,160.336a2.507,2.507,0,0,0-1.677-2.372c-.253-.088-.621.068-.9.068a2.114,2.114,0,0,0-2.217,2.3,2.189,2.189,0,0,0,2.4,2.216c.283,0,.468.244.721.156A2.507,2.507,0,0,0,452.265,160.336Z" transform="translate(-400.254 -142.153)" fill="#fdcd08"/>
        <path id="Trazado_1076672" data-name="Trazado 1076672" d="M449.167,161.806a2.448,2.448,0,0,1-.807.136,2.508,2.508,0,0,1,0-5.016,2.448,2.448,0,0,1,.807.136,2.517,2.517,0,0,0,0,4.745Z" transform="translate(-398.833 -141.25)" fill="#faab18"/>
        <path id="Trazado_1076673" data-name="Trazado 1076673" d="M62.917,21.178l-7.1,2.457-1.937-.2L40.1,29.076a4.516,4.516,0,0,1-2.955,0L23.37,23.657l-1.937-.021-7.1-2.458a.9.9,0,0,1,0-1.707L37.417,11.48a3.693,3.693,0,0,1,2.416,0l23.084,7.991A.9.9,0,0,1,62.917,21.178Z" transform="translate(-13.192 -11.277)" fill="#868491"/>
        <path id="Trazado_1076674" data-name="Trazado 1076674" d="M119.722,82.731v.729L104.006,88.9a4.516,4.516,0,0,1-2.955,0l-15.715-5.44v-.729a3.166,3.166,0,0,1,2.609-3.119,82.657,82.657,0,0,1,29.169,0,3.169,3.169,0,0,1,2.609,3.119Z" transform="translate(-77.096 -71.1)" fill="#77777f"/>
        <path id="Trazado_1076675" data-name="Trazado 1076675" d="M135.633,98.794v6.418H105.444l-.108-6.2A1.231,1.231,0,0,1,106.35,97.8c.307-.055.4-.324.708-.375a80.7,80.7,0,0,1,27.561.16,1.233,1.233,0,0,1,1.014,1.212Z" transform="translate(-94.943 -87.163)" fill="#868491"/>
        <path id="Trazado_1076676" data-name="Trazado 1076676" d="M133.848,175.568v1.184a.754.754,0,0,1-.753.753H104.089a.753.753,0,0,1-.753-.753v-3.611l.969-.7.969.7v1.889a.538.538,0,0,0,.538.538Z" transform="translate(-93.158 -155.093)" fill="#faab18"/>
        <path id="Trazado_1076677" data-name="Trazado 1076677" d="M105.273,106.6v7.789h-1.937v-6.418a1.231,1.231,0,0,1,1.014-1.212C104.658,106.709,104.965,106.656,105.273,106.6Z" transform="translate(-93.158 -96.346)" fill="#77777f"/>
        <path id="Trazado_1076678" data-name="Trazado 1076678" d="M79.184,389.816a10.126,10.126,0,0,1,0-7.75l.327-1.455H35.5s-4.954,5.386.322,10.661l43.973.33Z" transform="translate(-30.744 -340.862)" fill="#f1f2f2"/>
        <path id="Trazado_1076679" data-name="Trazado 1076679" d="M79.8,391.605l-43.972-.329C30.549,386,35.5,380.615,35.5,380.615l44.219.082-.539,1.372a10.085,10.085,0,0,0-.481,1.468H38.314a2.433,2.433,0,1,0,0,4.866h40.4a10.21,10.21,0,0,0,.468,1.417Z" transform="translate(-30.743 -340.866)" fill="#dee1e1"/>
        <path id="Trazado_1076680" data-name="Trazado 1076680" d="M61.878,374.8l-39.788-.073c-4.181,0-7.859-2.359-7.859-6.54,0-1.327-.324-3.154.275-4.238a7.568,7.568,0,0,1,6.629-3.911H62.626a1.707,1.707,0,1,1,0,3.415H52.346l-2.686.595-2.261-.595H21.135a4.155,4.155,0,0,0,0,8.31H62.626a1.709,1.709,0,0,1,1.68,2.016C64.16,374.569,62.716,374.8,61.878,374.8Z" transform="translate(-13.565 -322.499)" fill="#ef5227"/>
        <path id="Trazado_1076681" data-name="Trazado 1076681" d="M59.509,402.822a1.709,1.709,0,0,1-1.68,1.4H16.338a7.571,7.571,0,0,1-6.386-11.636v2.667a7.57,7.57,0,0,0,7.57,7.57Z" transform="translate(-8.768 -351.548)" fill="#d83724"/>
        <path id="Trazado_1076682" data-name="Trazado 1076682" d="M329.215,396.767v-5.018h-3.333l-1.478.09.079,4.713a.215.215,0,0,0,.294.2l1.105-.3.781-.306a.215.215,0,0,1,.157,0l2.1.823A.215.215,0,0,0,329.215,396.767Z" transform="translate(-290.435 -350.802)" fill="#fdcd08"/>
        <path id="Trazado_1076683" data-name="Trazado 1076683" d="M324.754,391.745v4.7l-1.321.517a.215.215,0,0,1-.294-.2v-5.018Z" transform="translate(-289.307 -350.798)" fill="#faab18"/>
      </g>
      <path id="Trazado_1076684" data-name="Trazado 1076684" d="M54.932,30.147l-1.791-4.416a3.279,3.279,0,0,0-1.664-5.291c0-.212,0-5.531,0-5.757a1.675,1.675,0,0,0-1.141-1.6L27.643,5.225a4.456,4.456,0,0,0-2.9,0l-5.65,1.956a.807.807,0,1,0,.528,1.525l5.65-1.956a2.834,2.834,0,0,1,1.847,0l22.693,7.856a.081.081,0,0,1,0,.153L42,17.463v-.242a2.015,2.015,0,0,0-1.661-1.986,79.858,79.858,0,0,0-28.287,0,2.016,2.016,0,0,0-1.661,1.986v.242l-7.812-2.7a.081.081,0,0,1,0-.153L15.992,9.961a.807.807,0,1,0-.528-1.525L2.046,13.081a1.7,1.7,0,0,0,0,3.2l8.34,2.887V27.16a8.374,8.374,0,0,0-3.818,15.3A8.376,8.376,0,0,0,8.377,59.011H49.868a2.514,2.514,0,0,0,.051-5.028,9.247,9.247,0,0,1-.019-6.7,2.514,2.514,0,0,0-.032-5.028h-.5a2.513,2.513,0,0,0-2.347-3.415H47a9.241,9.241,0,0,1-.152-6.271,2.267,2.267,0,0,0,1.667.731h4.31A2.27,2.27,0,0,0,54.709,32.3a2.3,2.3,0,0,0,.223-2.15ZM52.3,23.61a1.635,1.635,0,1,1-1.635-1.658A1.649,1.649,0,0,1,52.3,23.61Zm-2.442-7.161v3.991A3.279,3.279,0,0,0,48.2,25.731l-.563,1.387H42V19.172Zm-37.529.377a78.264,78.264,0,0,1,27.717,0,.4.4,0,0,1,.332.4v5.5H35.408a.807.807,0,0,0,0,1.614h4.974v2.781H12V24.337h19.64a.807.807,0,1,0,0-1.614H12v-5.5a.4.4,0,0,1,.332-.4ZM50.768,44.772a.9.9,0,0,1-.9.9H8.377a4.962,4.962,0,1,0,0,9.924H40.251a.807.807,0,0,0,0-1.614H8.377a3.348,3.348,0,1,1,0-6.7H33.833v4.525a.807.807,0,0,0,1.1.752l2.179-.853,2.179.853a.807.807,0,0,0,1.1-.752V47.286h7.792a10.833,10.833,0,0,0,.016,6.7H44.018a.807.807,0,0,0,0,1.614h5.85a.9.9,0,1,1,0,1.8H8.377a6.762,6.762,0,1,1,0-13.525H49.868a.9.9,0,0,1,.9.9Zm-15.32,2.515H38.78v3.342l-1.372-.537a.807.807,0,0,0-.589,0l-1.372.537Zm-13.815-6.83h25.39a.9.9,0,1,1,0,1.8h-35.8a6.762,6.762,0,0,1,0-13.525H46.98c-.2.535-.568,1.294-.692,1.8H11.223a4.962,4.962,0,1,0,0,9.924h6.643a.807.807,0,1,0,0-1.614H11.223a3.348,3.348,0,1,1,0-6.7h2.951v4.486a.807.807,0,0,0,1.1.752l2.179-.853,2.179.853a.807.807,0,0,0,1.1-.752V32.147H45.286a10.834,10.834,0,0,0,0,6.7H21.632a.807.807,0,0,0,0,1.614Zm-5.844-8.31h3.333v3.3l-1.372-.537a.807.807,0,0,0-.589,0l-1.372.537ZM53.37,31.4a.654.654,0,0,1-.546.293h-4.31a.654.654,0,0,1-.546-.293.677.677,0,0,1-.066-.642l1.651-4.07a3.231,3.231,0,0,0,2.232,0l1.651,4.07a.676.676,0,0,1-.066.642Z" transform="translate(0)"/>
    </g>
  </g>
</svg>
