<svg xmlns="http://www.w3.org/2000/svg" xmlns:xlink="http://www.w3.org/1999/xlink" width="103" height="103" viewBox="0 0 103 103">
  <defs>
    <filter id="Trazado_978624" x="0" y="0" width="103" height="103" filterUnits="userSpaceOnUse">
      <feOffset dy="3" input="SourceAlpha"/>
      <feGaussianBlur stdDeviation="3" result="blur"/>
      <feFlood flood-opacity="0.161"/>
      <feComposite operator="in" in2="blur"/>
      <feComposite in="SourceGraphic"/>
    </filter>
  </defs>
  <g id="Grupo_1206641" data-name="Grupo 1206641" transform="translate(-160 -13142)">
    <g id="Grupo_1185491" data-name="Grupo 1185491" transform="translate(0 9912)">
      <g id="Grupo_1183826" data-name="Grupo 1183826" transform="translate(-11 -401)">
        <g id="Grupo_1164359" data-name="Grupo 1164359" transform="translate(180 3637)">
          <g id="Grupo_1144531" data-name="Grupo 1144531">
            <g transform="matrix(1, 0, 0, 1, -9, -6)" filter="url(#Trazado_978624)">
              <g id="Trazado_978624-2" data-name="Trazado 978624" transform="translate(9 6)" fill="#f9ecff">
                <path d="M 42.5 83.5 C 36.96437835693359 83.5 31.59512901306152 82.41617584228516 26.54141235351562 80.27863311767578 C 21.65934181213379 78.21369171142578 17.27447128295898 75.25723266601562 13.50862312316895 71.49137878417969 C 9.742764472961426 67.72553253173828 6.786305904388428 63.34066009521484 4.721364498138428 58.45858764648438 C 2.583823442459106 53.40486907958984 1.5 48.03562164306641 1.5 42.5 C 1.5 36.96437835693359 2.583823442459106 31.59512901306152 4.721364498138428 26.54141235351562 C 6.786305904388428 21.65934181213379 9.742764472961426 17.27447128295898 13.50862312316895 13.50862312316895 C 17.27447128295898 9.742764472961426 21.65934181213379 6.786305904388428 26.54141235351562 4.721364498138428 C 31.59512901306152 2.583823442459106 36.96437835693359 1.5 42.5 1.5 C 48.03562164306641 1.5 53.40486907958984 2.583823442459106 58.45858764648438 4.721364498138428 C 63.34066009521484 6.786305904388428 67.72553253173828 9.742764472961426 71.49137878417969 13.50862312316895 C 75.25723266601562 17.27447128295898 78.21369171142578 21.65934181213379 80.27863311767578 26.54141235351562 C 82.41617584228516 31.59512901306152 83.5 36.96437835693359 83.5 42.5 C 83.5 48.03562164306641 82.41617584228516 53.40486907958984 80.27863311767578 58.45858764648438 C 78.21369171142578 63.34066009521484 75.25723266601562 67.72553253173828 71.49137878417969 71.49137878417969 C 67.72553253173828 75.25723266601562 63.34066009521484 78.21369171142578 58.45858764648438 80.27863311767578 C 53.40486907958984 82.41617584228516 48.03562164306641 83.5 42.5 83.5 Z" stroke="none"/>
                <path d="M 42.5 3 C 37.16621398925781 3 31.99356079101562 4.043960571289062 27.125732421875 6.102882385253906 C 22.42246627807617 8.092185974121094 18.19785308837891 10.94070434570312 14.56928253173828 14.56928253173828 C 10.94070434570312 18.19785308837891 8.092185974121094 22.42246627807617 6.102882385253906 27.125732421875 C 4.043960571289062 31.99356079101562 3 37.16621398925781 3 42.5 C 3 47.83378601074219 4.043960571289062 53.00643920898438 6.102882385253906 57.87425231933594 C 8.092185974121094 62.57753372192383 10.94070434570312 66.80213165283203 14.56928253173828 70.43071746826172 C 18.19786834716797 74.05929565429688 22.42246627807617 76.90781402587891 27.125732421875 78.89711761474609 C 31.99356079101562 80.95603942871094 37.16621398925781 82 42.5 82 C 47.83378601074219 82 53.00642395019531 80.95603942871094 57.87425231933594 78.89711761474609 C 62.57753372192383 76.90781402587891 66.80213165283203 74.05929565429688 70.43071746826172 70.43071746826172 C 74.05929565429688 66.80213165283203 76.90781402587891 62.57753372192383 78.89711761474609 57.87425231933594 C 80.95603942871094 53.00642395019531 82 47.83378601074219 82 42.5 C 82 37.16621398925781 80.95603942871094 31.99356079101562 78.89711761474609 27.125732421875 C 76.90781402587891 22.42246627807617 74.05929565429688 18.19786834716797 70.43071746826172 14.56928253173828 C 66.80213165283203 10.94070434570312 62.57753372192383 8.092185974121094 57.87425231933594 6.102882385253906 C 53.00643920898438 4.043960571289062 47.83378601074219 3 42.5 3 M 42.5 0 C 65.97209167480469 0 85 19.02789306640625 85 42.5 C 85 65.97209167480469 65.97209167480469 85 42.5 85 C 19.02789306640625 85 0 65.97209167480469 0 42.5 C 0 19.02789306640625 19.02789306640625 0 42.5 0 Z" stroke="none" fill="#ebb8ff"/>
              </g>
            </g>
          </g>
        </g>
      </g>
    </g>
    <g id="terapia-del-lenguaje_1_" data-name="terapia-del-lenguaje (1)" transform="translate(181.313 13162.013)">
      <g id="Grupo_1206639" data-name="Grupo 1206639" transform="translate(0.859 0.859)">
        <g id="Grupo_1206637" data-name="Grupo 1206637" transform="translate(0 17.893)">
          <g id="Grupo_1206631" data-name="Grupo 1206631" transform="translate(6.217 27.194)">
            <path id="Trazado_1076686" data-name="Trazado 1076686" d="M136.037,411.926a11.838,11.838,0,0,0-8.866-8.489l-7.5,1.309v10.272h14A2.452,2.452,0,0,0,136.037,411.926Z" transform="translate(-113.034 -403.151)" fill="#ff8e9e"/>
            <path id="Trazado_1076687" data-name="Trazado 1076687" d="M73.3,400.937a11.858,11.858,0,0,0-11.459,8.777,2.451,2.451,0,0,0,2.366,3.091h4.184a12.713,12.713,0,0,1,7.5-11.582A11.864,11.864,0,0,0,73.3,400.937Z" transform="translate(-61.755 -400.937)" fill="#ea5b70"/>
          </g>
          <g id="Grupo_1206635" data-name="Grupo 1206635">
            <path id="Trazado_1076688" data-name="Trazado 1076688" d="M131.641,388.26l-4,2.143a8.29,8.29,0,0,0,4,4.305,8.278,8.278,0,0,0,3.991-4.305Z" transform="translate(-113.875 -362.519)" fill="#c8866a"/>
            <g id="Grupo_1206633" data-name="Grupo 1206633" transform="translate(0 0.194)">
              <g id="Grupo_1206632" data-name="Grupo 1206632" transform="translate(0 10.495)">
                <circle id="Elipse_14296" data-name="Elipse 14296" cx="3.537" cy="3.537" r="3.537" fill="#c8866a"/>
                <circle id="Elipse_14297" data-name="Elipse 14297" cx="3.537" cy="3.537" r="3.537" transform="translate(28.452)" fill="#c8866a"/>
              </g>
              <path id="Trazado_1076689" data-name="Trazado 1076689" d="M54.947,165.334H52.229a5.881,5.881,0,0,0-4.628,2.252l-9.238,11.78,9.238,11.78a5.881,5.881,0,0,0,4.628,2.251h2.717a14.228,14.228,0,0,0,0-28.062Z" transform="translate(-34.826 -165.334)" fill="#db9e82"/>
            </g>
            <g id="Grupo_1206634" data-name="Grupo 1206634" transform="translate(3.537)">
              <path id="Trazado_1076690" data-name="Trazado 1076690" d="M99.046,169.54l-.365.727a14.234,14.234,0,0,1,9.671-6.435,14.34,14.34,0,0,0-3.94-.106A14.3,14.3,0,0,0,99.046,169.54Z" transform="translate(-91.769 -163.637)" fill="#c8866a"/>
              <path id="Trazado_1076691" data-name="Trazado 1076691" d="M43.079,248.518a14.19,14.19,0,0,1,.935-5.081L38.5,246.545a14.235,14.235,0,0,0,16.447,16A14.229,14.229,0,0,1,43.079,248.518Z" transform="translate(-38.363 -234.292)" fill="#c8866a"/>
              <path id="Trazado_1076692" data-name="Trazado 1076692" d="M42.537,255.72l0-.006Z" transform="translate(-42.059 -245.162)" fill="#4c5699"/>
            </g>
          </g>
          <g id="Grupo_1206636" data-name="Grupo 1206636" transform="translate(6.511 14.872)">
            <ellipse id="Elipse_14298" data-name="Elipse 14298" cx="3.033" cy="2.415" rx="3.033" ry="2.415" transform="translate(0 1.364)" fill="#fff"/>
            <ellipse id="Elipse_14299" data-name="Elipse 14299" cx="3.033" cy="2.415" rx="3.033" ry="2.415" transform="translate(16.438 1.364)" fill="#fff"/>
            <ellipse id="Elipse_14300" data-name="Elipse 14300" cx="1.719" cy="1.924" rx="1.719" ry="1.924" transform="translate(9.532)" fill="#495560"/>
          </g>
        </g>
        <g id="Grupo_1206638" data-name="Grupo 1206638" transform="translate(28.879)">
          <path id="Trazado_1076693" data-name="Trazado 1076693" d="M342.146,7.5l-5.159,1.12V28.686h4.445c8.675.328,14.751-5.045,14.751-10.586,0-5.06-5.289-10.6-14.037-10.6Z" transform="translate(-328.107 -7.5)" fill="#efedff"/>
          <path id="Trazado_1076694" data-name="Trazado 1076694" d="M268.584,17.938A14.509,14.509,0,0,1,273.539,7.5c-7.918,0-14.039,4.88-14.039,10.6,0,4.236,3.291,7.889,8.047,9.587a5.183,5.183,0,0,1-.109,2.208,1.323,1.323,0,0,0,1.774,1.548,8.616,8.616,0,0,0,3.613-2.757,14.509,14.509,0,0,1-4.241-10.748Z" transform="translate(-259.5 -7.5)" fill="#d4d4ff"/>
        </g>
        <path id="Trazado_1076695" data-name="Trazado 1076695" d="M109.734,149.143l-4.219-1.3h-3.633l-7.811,5.85v3.643l1.859-.7a17.038,17.038,0,0,1,11.965,0l.635.318a4.76,4.76,0,0,1,2.113,2.153l.018.036a4.374,4.374,0,0,0,3.017,2.277L116,161.9A9.768,9.768,0,0,0,109.734,149.143Z" transform="translate(-84.15 -131.759)" fill="#676fb2"/>
        <path id="Trazado_1076696" data-name="Trazado 1076696" d="M36.944,144.983l-10.817,5.059c-2.542,1.189-1.856,5.433.946,5.221l.076-.018a14.134,14.134,0,0,0-.879,3.315h.888a5.056,5.056,0,0,0,4.625-3.108l1.284-2.588a14.785,14.785,0,0,1,5.709-6.469,14.29,14.29,0,0,1,5.184-1.9A9.782,9.782,0,0,0,36.944,144.983Z" transform="translate(-22.596 -128.414)" fill="#4c5699"/>
      </g>
      <g id="Grupo_1206640" data-name="Grupo 1206640" transform="translate(0 0)">
        <path id="Trazado_1076697" data-name="Trazado 1076697" d="M88.564,281.2a.86.86,0,0,0-.859.859v1.406a.859.859,0,1,0,1.719,0v-1.406A.86.86,0,0,0,88.564,281.2Z" transform="translate(-77.654 -248.972)"/>
        <path id="Trazado_1076698" data-name="Trazado 1076698" d="M142.578,285.914a2.791,2.791,0,1,0,2.578,2.783A2.69,2.69,0,0,0,142.578,285.914Zm0,3.847a1.088,1.088,0,1,1,.859-1.064A.979.979,0,0,1,142.578,289.761Z" transform="translate(-123.956 -253.149)"/>
        <path id="Trazado_1076699" data-name="Trazado 1076699" d="M223.155,281.2a.86.86,0,0,0-.859.859v1.406a.859.859,0,1,0,1.719,0v-1.406A.859.859,0,0,0,223.155,281.2Z" transform="translate(-196.821 -248.972)"/>
        <path id="Trazado_1076700" data-name="Trazado 1076700" d="M34.125,149.672A10.629,10.629,0,0,0,26.7,138.319l-4.219-1.3a10.607,10.607,0,0,0-7.634.529L4.026,142.605c-2.949,1.379-2.625,5.9.2,6.738l-.043.143a4.394,4.394,0,0,0,.008,8.78,15.178,15.178,0,0,0,8.182,9.355,12.743,12.743,0,0,0-3.112,2.462.86.86,0,1,0,1.265,1.164,11.02,11.02,0,0,1,3.652-2.61,9.4,9.4,0,0,0,4.039,3.96.859.859,0,0,0,.811,0,9.379,9.379,0,0,0,4.032-3.959,11.034,11.034,0,0,1,6.188,7.2,1.591,1.591,0,0,1-1.536,2.009H9.53a1.59,1.59,0,0,1-1.537-2.007,11.089,11.089,0,0,1,.742-1.975.859.859,0,0,0-1.544-.756,12.8,12.8,0,0,0-.858,2.281,3.31,3.31,0,0,0,3.2,4.175H27.715a3.311,3.311,0,0,0,3.2-4.177,12.755,12.755,0,0,0-6.057-7.779,15.077,15.077,0,0,0,8.2-9.349,4.394,4.394,0,0,0,1.071-8.594ZM4.755,144.163,15.572,139.1a8.893,8.893,0,0,1,6.4-.443l4.219,1.3a8.882,8.882,0,0,1,6.119,10.224c-.048.241-.106.481-.173.718l-1.573-.328a3.487,3.487,0,0,1-2.441-1.855,5.6,5.6,0,0,0-2.5-2.537,17.437,17.437,0,0,0-13.286-.354l-3.476,1.3a.859.859,0,0,0,.223,1.658,4.093,4.093,0,0,1-3.527,2.246,15.386,15.386,0,0,1,.686-2.237.86.86,0,0,0-1.028-1.05h0c-1.769.075-2.135-2.8-.458-3.589Zm-3.036,9.713a2.683,2.683,0,0,1,2.042-2.6,15.461,15.461,0,0,0,0,5.206,2.683,2.683,0,0,1-2.046-2.6Zm16.906,16.976a7.972,7.972,0,0,1-2.335-2.066,15.527,15.527,0,0,0,2.332.174,15.1,15.1,0,0,0,2.34-.183A7.939,7.939,0,0,1,18.625,170.852Zm10.076-8.2a13.36,13.36,0,0,1-10.079,4.586,13.192,13.192,0,0,1-11.061-5.874,13.378,13.378,0,0,1-2.26-8.606,5.811,5.811,0,0,0,5.333-3.219l.764-1.523,1.544-.579a15.821,15.821,0,0,1,11.914.282,3.906,3.906,0,0,1,1.75,1.809,5.192,5.192,0,0,0,3.607,2.729l1.716.358A13.383,13.383,0,0,1,28.7,162.656Zm5.921-6.775a2.653,2.653,0,0,1-1.142.6,15.132,15.132,0,0,0,.112-4.48c.073-.207.138-.416.2-.627a2.675,2.675,0,0,1,.833,4.509Z" transform="translate(0 -120.897)"/>
        <path id="Trazado_1076701" data-name="Trazado 1076701" d="M277.756,3.608a.859.859,0,1,0-1.1,1.318,8.757,8.757,0,0,1,3.423,6.532c0,4.608-5.139,10.057-13.859,9.727a.862.862,0,0,0-.715.336,7.765,7.765,0,0,1-3.252,2.483.462.462,0,0,1-.622-.53,6.044,6.044,0,0,0,.126-2.572.859.859,0,0,0-.558-.666c-4.542-1.621-7.477-5.066-7.477-8.777,0-5.371,5.912-9.74,13.18-9.74a16.317,16.317,0,0,1,7.045,1.486.859.859,0,1,0,.736-1.553A18.02,18.02,0,0,0,266.9,0a17.287,17.287,0,0,0-10.512,3.333A10.281,10.281,0,0,0,252,11.459c0,4.741,3.634,8.448,8.112,10.207a4.386,4.386,0,0,1-.145,1.366,2.185,2.185,0,0,0,2.926,2.567,9.47,9.47,0,0,0,3.694-2.684c9.458.162,15.208-5.942,15.208-11.457a10.458,10.458,0,0,0-4.039-7.851Z" transform="translate(-223.122 0)"/>
        <path id="Trazado_1076702" data-name="Trazado 1076702" d="M299.051,44.477a1.068,1.068,0,0,0-1.976,0l-3.459,9.081a.859.859,0,1,0,1.606.612l.649-1.7h4.359l.642,1.7a.859.859,0,1,0,1.608-.607c-3.55-9.4-3.421-9.066-3.429-9.085Zm-2.525,6.272,1.535-4.029,1.521,4.029Z" transform="translate(-259.918 -38.794)"/>
        <path id="Trazado_1076703" data-name="Trazado 1076703" d="M392.969,54.724a.86.86,0,0,0,.8-.554l.649-1.7h4.359l.642,1.7a.859.859,0,1,0,1.608-.607L397.6,44.476a1.068,1.068,0,0,0-1.976,0l-3.459,9.081a.86.86,0,0,0,.8,1.166Zm3.641-8.005,1.521,4.029h-3.055Z" transform="translate(-347.174 -38.793)"/>
        <path id="Trazado_1076704" data-name="Trazado 1076704" d="M371.528,73.457a.859.859,0,1,0,0-1.719h-1.139a.859.859,0,0,0,0,1.719Z" transform="translate(-327.182 -63.517)"/>
      </g>
    </g>
  </g>
</svg>
