<svg xmlns="http://www.w3.org/2000/svg" xmlns:xlink="http://www.w3.org/1999/xlink" width="400" height="321" viewBox="0 0 400 321">
  <defs>
    <clipPath id="clip-path">
      <rect id="Rectángulo_417624" data-name="Rectángulo 417624" width="400" height="321" transform="translate(1020 2308)" fill="#fff" stroke="#707070" stroke-width="1" opacity="0.81"/>
    </clipPath>
  </defs>
  <g id="Enmascarar_grupo_1098859" data-name="Enmascarar grupo 1098859" transform="translate(-1020 -2308)" clip-path="url(#clip-path)">
    <g id="Grupo_1206284" data-name="Grupo 1206284" transform="translate(1030.658 2282.98)">
      <path id="Trazado_1052704" data-name="Trazado 1052704" d="M183.32,313.6c84.525,4.779,156.327-47.574,160.244-116.837S282.037,67.387,197.512,62.607,41.185,110.181,37.268,179.445,98.8,308.822,183.32,313.6" transform="translate(-1.707 -6.317)" fill="#f9ecff" opacity="0.67"/>
      <path id="Trazado_1052705" data-name="Trazado 1052705" d="M182.3,310.023c-84.861,0-153.9,18.865-153.9,42.053s69.04,42.053,153.9,42.053,153.9-18.865,153.9-42.053-69.039-42.053-153.9-42.053" transform="translate(-0.135 -51.059)" fill="#779986"/>
      <g id="Grupo_1206277" data-name="Grupo 1206277" transform="translate(27.651 100.13)">
        <path id="Trazado_1052706" data-name="Trazado 1052706" d="M96.331,116.177a31.93,31.93,0,0,0-4.71.365,30.194,30.194,0,0,0-10.376,3.621,24.867,24.867,0,0,0-7.841,7.006,4.712,4.712,0,0,0-1.087-1.314,6.528,6.528,0,0,0-1.849-1.07,9.561,9.561,0,0,0-2.175-.56,12.892,12.892,0,0,0-1.7-.116,14.19,14.19,0,0,0-2.764.282,16.75,16.75,0,0,0-5.079,2.068,21.348,21.348,0,0,0-6.378,6.03,41.174,41.174,0,0,0-3.2,5.362,4.713,4.713,0,0,0,.038-.932,12.508,12.508,0,0,0-.846-4.432,6.272,6.272,0,0,0-1.1-1.8,4.753,4.753,0,0,0-1.747-1.227,5.043,5.043,0,0,0-1.972-.369c-.073,0-.15,0-.227.006a4.625,4.625,0,0,0-1.763.414,5.156,5.156,0,0,0-2.4,2.565,8.652,8.652,0,0,0-.609,1.826,11.467,11.467,0,0,0-.265,1.948,14.5,14.5,0,0,0,.343,4.063,10.87,10.87,0,0,0,.792,2.332,9.527,9.527,0,0,0-1.894-.361c-.3-.025-.606-.039-.906-.039a10.453,10.453,0,0,0-1.144.064,5.6,5.6,0,0,0-1.8.519,3.2,3.2,0,0,0-1.328,1.165,3.337,3.337,0,0,0-.474,1.954,4.55,4.55,0,0,0,.17,1.064,4.115,4.115,0,0,0,.516,1.168,4.993,4.993,0,0,0,.709.882,7.934,7.934,0,0,0,1.048.884A10.465,10.465,0,0,0,37.291,151l.132.033a15.142,15.142,0,0,0-1.236,1.43,16.979,16.979,0,0,0-2.479,4.561,18.638,18.638,0,0,0-.612,9.837,29.59,29.59,0,0,0,3.916,9.726,40.088,40.088,0,0,0,6.79,8.324c.874.824,1.8,1.617,2.75,2.359a34.7,34.7,0,0,0,3.941,2.635c1.911,1.117,3.946,2.086,5.914,3.024,1.141.542,2.234,1.063,3.317,1.61a.619.619,0,0,0,.338.164.391.391,0,0,0,.094.01.591.591,0,0,0,.379-.127c1.127-1.021,2.332-1.967,3.14-2.588.989-.766,2.054-1.54,3.165-2.3,2.082-1.419,4.31-2.779,6.81-4.154,8.032-4.361,16.824-7.629,25.14-10.6l2.849-1.014q2.64-.941,5.272-1.892a.218.218,0,0,0,.087.013.8.8,0,0,0,.3-.07,10.218,10.218,0,0,0,5.993-6.737,8.952,8.952,0,0,0,.093-4.489,8,8,0,0,0-1.822-3.405,5.293,5.293,0,0,0,1.037-.468,9.327,9.327,0,0,0,1.647-1.179,8.573,8.573,0,0,0,2.144-3.065,9.107,9.107,0,0,0,.7-3.447,9.846,9.846,0,0,0-.15-1.781,9.965,9.965,0,0,0-.481-1.713,8.7,8.7,0,0,0-1.608-2.7,7.674,7.674,0,0,0-2.606-1.907,7.508,7.508,0,0,0-2.518-.634,13.726,13.726,0,0,0,1.238-1.475,18.556,18.556,0,0,0,3.01-5.857,12.9,12.9,0,0,0,.265-6.325,11.246,11.246,0,0,0-2.4-4.818,13.827,13.827,0,0,0-4.192-3.241,21.551,21.551,0,0,0-5.236-1.886,27.461,27.461,0,0,0-6.08-.673" transform="translate(-28.409 -116.177)" fill="#21261f"/>
        <path id="Trazado_1052707" data-name="Trazado 1052707" d="M42.774,326.236a6.3,6.3,0,0,0-.8.051,6.975,6.975,0,0,0-2.554.914,13.328,13.328,0,0,0-2.584,2.056,43.787,43.787,0,0,0-4.8,5.4,33.885,33.885,0,0,0-3.72,6.15,6.583,6.583,0,0,0-.647,2.522,2.955,2.955,0,0,0,.546,1.923,2.494,2.494,0,0,0,1.85.9c.083,0,.166.007.249.007a7.9,7.9,0,0,0,2.676-.613,25.149,25.149,0,0,0,3.2-1.467,33.719,33.719,0,0,0,3.1-1.879c.915-.617,1.858-1.316,2.884-2.139.965-.775,1.8-1.507,2.552-2.234a12.19,12.19,0,0,0,3.091-4.522,7.871,7.871,0,0,0,.465-2.6,6.862,6.862,0,0,0-.426-2.384.635.635,0,0,0-.331-.751,11.29,11.29,0,0,0-4.747-1.336" transform="translate(-27.654 -154.118)" fill="#e34854"/>
        <path id="Trazado_1052708" data-name="Trazado 1052708" d="M41.969,326.265a7.019,7.019,0,0,0-2.557.915,13.579,13.579,0,0,0-2.593,2.058,43.877,43.877,0,0,0-4.8,5.4A34.123,34.123,0,0,0,28.3,340.8a6.607,6.607,0,0,0-.649,2.529,3,3,0,0,0,.55,1.933,2.524,2.524,0,0,0,1.863.906c.083,0,.166.007.249.007A7.916,7.916,0,0,0,33,345.555a23.7,23.7,0,0,0,2.618-1.165.777.777,0,0,1-.022-.084l.01.029a.3.3,0,0,1-.01-.032.021.021,0,0,1-.007-.016v0a7.291,7.291,0,0,0-.352-.925,8.816,8.816,0,0,0-.435-.826.416.416,0,0,0,.025.045,6.926,6.926,0,0,0-.534-.759,7.241,7.241,0,0,0-.541-.592c.01.009.019.016.029.025a5.493,5.493,0,0,0-.6-.5c-.163-.118-.339-.23-.518-.336l-.016-.009s-.007,0-.012-.007-.007,0-.01-.007h0s-.007,0-.01,0c-.151-.074-.3-.147-.451-.211a.2.2,0,0,1-.1-.079.2.2,0,0,1-.11-.039.212.212,0,0,1-.079-.141.22.22,0,0,1,.041-.147A22.166,22.166,0,0,1,33.4,337.6c.493-.64,1-1.274,1.511-1.9,1-1.2,2.045-2.362,3.14-3.473,1.075-1.088,2.189-2.138,3.351-3.13q1.617-1.379,3.337-2.624a7.9,7.9,0,0,0-1.967-.267,6.214,6.214,0,0,0-.8.052M32.62,340.392a.011.011,0,0,1,.007,0s-.007,0-.007,0" transform="translate(-27.651 -154.113)" fill="#313a30"/>
        <path id="Trazado_1052709" data-name="Trazado 1052709" d="M33.749,343.537l.013.007-.017-.011,0,0" transform="translate(-28.751 -157.242)" fill="#313a30"/>
        <path id="Trazado_1052710" data-name="Trazado 1052710" d="M33.768,343.548l0,0,0,0h0" transform="translate(-28.755 -157.244)" fill="#313a30"/>
        <path id="Trazado_1052711" data-name="Trazado 1052711" d="M37.335,348.272a.073.073,0,0,1,.006.016s0-.011-.006-.019Z" transform="translate(-29.4 -158.097)" fill="#313a30"/>
        <path id="Trazado_1052712" data-name="Trazado 1052712" d="M31.259,343.107a.626.626,0,0,0,.388.781c.15.058.3.124.441.191.168.084.335.174.5.267a.636.636,0,0,0,.467.093.6.6,0,0,0,.384-.256.615.615,0,0,0-.163-.854,9.91,9.91,0,0,0-1.236-.606.546.546,0,0,0-.2-.037.638.638,0,0,0-.585.421" transform="translate(-28.297 -157.089)" fill="#313a30"/>
        <path id="Trazado_1052713" data-name="Trazado 1052713" d="M32.324,343.447a.619.619,0,0,0,.166.855,10.57,10.57,0,0,1,1.018.663.616.616,0,0,0,.688-1.022,11.182,11.182,0,0,0-1.018-.659.726.726,0,0,0-.359-.1.583.583,0,0,0-.5.261" transform="translate(-28.476 -157.179)" fill="#313a30"/>
        <path id="Trazado_1052714" data-name="Trazado 1052714" d="M31.451,343.118a.6.6,0,0,0,.032.47.644.644,0,0,0,.352.311c.1.041.2.085.294.131a7.5,7.5,0,0,1,1.386.96.585.585,0,0,0,.467.093.616.616,0,0,0,.477-.726.675.675,0,0,0-.256-.384,7.45,7.45,0,0,0-1.975-1.239.486.486,0,0,0-.193-.039.644.644,0,0,0-.584.424" transform="translate(-28.331 -157.09)" fill="#313a30"/>
        <path id="Trazado_1052715" data-name="Trazado 1052715" d="M31.195,342.983a.627.627,0,0,0,.383.781c.1.038.191.081.284.124a6.729,6.729,0,0,1,.98.642.613.613,0,0,0,.851-.163.625.625,0,0,0-.163-.855,6.714,6.714,0,0,0-1.558-.913.5.5,0,0,0-.194-.037.639.639,0,0,0-.583.421m.72.929.041.018a.434.434,0,0,1-.041-.018" transform="translate(-28.285 -157.066)" fill="#313a30"/>
        <path id="Trazado_1052716" data-name="Trazado 1052716" d="M31.17,342.97a.623.623,0,0,0,.388.778c.192.072.381.151.567.24a6.6,6.6,0,0,1,1.2.8,6.185,6.185,0,0,1,.908,1.038,5.68,5.68,0,0,1,.47.926.611.611,0,0,0,.822.279.628.628,0,0,0,.311-.356.649.649,0,0,0-.032-.467,6.546,6.546,0,0,0-3.85-3.63.551.551,0,0,0-.193-.035.636.636,0,0,0-.587.423m2.218,1.877.035.03-.035-.03" transform="translate(-28.281 -157.064)" fill="#313a30"/>
        <path id="Trazado_1052717" data-name="Trazado 1052717" d="M40.059,343.75a.616.616,0,0,0-.147.855,3.1,3.1,0,0,1,.27.388,3.144,3.144,0,0,1,.2.521c0,.028.01.055.016.083a.657.657,0,0,0,.218.416.6.6,0,0,0,.448.141.613.613,0,0,0,.556-.666,3.959,3.959,0,0,0-.214-.787,3.124,3.124,0,0,0-.483-.8.666.666,0,0,0-.514-.26.592.592,0,0,0-.344.112" transform="translate(-29.845 -157.261)" fill="#313a30"/>
        <path id="Trazado_1052718" data-name="Trazado 1052718" d="M42.2,342.119a.622.622,0,0,0-.147.858,3.685,3.685,0,0,1,.26.382,3.561,3.561,0,0,1,.221.619l0,.014a.69.69,0,0,0,.218.42.635.635,0,0,0,.448.141.616.616,0,0,0,.419-.218.6.6,0,0,0,.141-.448,4.485,4.485,0,0,0-.224-.8,3.418,3.418,0,0,0-.48-.823.651.651,0,0,0-.511-.258.6.6,0,0,0-.347.111" transform="translate(-30.232 -156.966)" fill="#313a30"/>
        <path id="Trazado_1052719" data-name="Trazado 1052719" d="M44.521,340.581a.622.622,0,0,0-.147.858,2.917,2.917,0,0,1,.187.276,2.765,2.765,0,0,1,.145.386,3.46,3.46,0,0,1,.046.413.617.617,0,0,0,.666.561.624.624,0,0,0,.556-.666,2.955,2.955,0,0,0-.595-1.68.649.649,0,0,0-.512-.258.592.592,0,0,0-.346.111" transform="translate(-30.651 -156.688)" fill="#313a30"/>
        <path id="Trazado_1052720" data-name="Trazado 1052720" d="M91.161,215.386a46.182,46.182,0,0,0-7.6.846l-1.006.168a.6.6,0,0,0-.3-.076.575.575,0,0,0-.1.009.618.618,0,0,0-.4.247.6.6,0,0,0-.11.471,11.175,11.175,0,0,1,.457,2.806,14.742,14.742,0,0,1-.38,3.678A13.131,13.131,0,0,1,80.6,226.49a9.55,9.55,0,0,1-1.291,1.8,7.776,7.776,0,0,1-1.18.991.538.538,0,0,0-.208.311.625.625,0,0,0-.323.825,11.387,11.387,0,0,0,2.559,3.879,12.082,12.082,0,0,0,3.745,2.485,13.74,13.74,0,0,0,4.345,1.037q.567.045,1.136.045a15.487,15.487,0,0,0,3.373-.378,13.39,13.39,0,0,0,8.282-5.531.519.519,0,0,0,.136-.081.66.66,0,0,0,.229-.451.572.572,0,0,0-.138-.429,9.686,9.686,0,0,1-.973-1.276,10.238,10.238,0,0,1-.975-2.2,13.043,13.043,0,0,1-.46-3.019l-.011-.086h.008a19.9,19.9,0,0,1,.563-4.8.737.737,0,0,0,0-.52.582.582,0,0,0-.066-.107.368.368,0,0,0-.041-.108,6.958,6.958,0,0,0-.637-.914,6.217,6.217,0,0,0-.783-.756,6.962,6.962,0,0,0-1.852-1.054,10.613,10.613,0,0,0-2.2-.574,15.48,15.48,0,0,0-2.348-.185c-.111,0-.22,0-.329,0" transform="translate(-36.663 -134.096)" fill="#db633c"/>
        <path id="Trazado_1052721" data-name="Trazado 1052721" d="M84.525,216.2l-1.078.179a.623.623,0,0,0-.3-.077.6.6,0,0,0-.106.01.67.67,0,0,0-.41.252.6.6,0,0,0-.111.49,10.935,10.935,0,0,1,.454,2.8q.009.309,0,.622a26.346,26.346,0,0,0,4.4,3.472l-.029-.019a23.962,23.962,0,0,0,2.622,1.424,21.3,21.3,0,0,0,2.746,1.053l-.051-.013a18.547,18.547,0,0,0,2.134.509,17.1,17.1,0,0,0,2.144.225l-.022,0a13.294,13.294,0,0,0,3.147-.265,13.736,13.736,0,0,1-.3-2.362l-.012-.087a20.308,20.308,0,0,1,.569-4.794.758.758,0,0,0,0-.534,1.332,1.332,0,0,0-.067-.116.447.447,0,0,0-.039-.1,6.936,6.936,0,0,0-.64-.922,5.938,5.938,0,0,0-.784-.755,6.88,6.88,0,0,0-1.857-1.053,10.174,10.174,0,0,0-2.2-.579,15.36,15.36,0,0,0-2.349-.186c-.112,0-.221,0-.33,0a45.854,45.854,0,0,0-7.531.836M96.918,227.12h0Z" transform="translate(-37.558 -134.092)" fill="#c94e2b"/>
        <path id="Trazado_1052722" data-name="Trazado 1052722" d="M92.662,143.178c-.853,0-1.758.046-2.692.138A44.621,44.621,0,0,0,78.5,146.193a61.589,61.589,0,0,0-9.523,4.632,44.484,44.484,0,0,0-4.777,3.268,27.3,27.3,0,0,0-4.066,3.926,18.958,18.958,0,0,0-2.93,4.738,16.076,16.076,0,0,0-1.291,5.668,17.552,17.552,0,0,0,1.012,6.6,37.772,37.772,0,0,0,2.788,5.958l.648,1.169.648,1.17c.214.388.422.778.629,1.167.184.345.367.69.555,1.032l.134.386a7.79,7.79,0,0,0-2.646-.578c-.076,0-.154-.007-.23-.007a7.569,7.569,0,0,0-2.529.452,6.9,6.9,0,0,0-2.314,1.387,6.355,6.355,0,0,0-2.1,4.929,8.814,8.814,0,0,0,.093,1.2,8.492,8.492,0,0,0,.295,1.233,9.1,9.1,0,0,0,2.569,3.908,13.441,13.441,0,0,0,8.85,3.414,10.6,10.6,0,0,0,3.237-.489q.386.467.814.91a20.212,20.212,0,0,0,3.622,2.962,25.741,25.741,0,0,0,8.814,3.474,36.052,36.052,0,0,0,7.227.71c.884,0,1.79-.03,2.694-.089a42.779,42.779,0,0,0,9.768-1.793,34.214,34.214,0,0,0,8.34-3.758,24.869,24.869,0,0,0,8.267-8.315,16.6,16.6,0,0,0,2.021-5.617,14.994,14.994,0,0,0-.269-6.232,25.45,25.45,0,0,0-3.511-6.97c-.766-1.2-1.559-2.436-2.216-3.712-.3-.583-.569-1.185-.806-1.789a31.779,31.779,0,0,1-1.226-4.275c-.3-1.305-.555-2.641-.8-3.932l-.182-.939a51.128,51.128,0,0,0-2.615-9.815,17.722,17.722,0,0,0-2.625-4.5,11.95,11.95,0,0,0-4.023-3.181.786.786,0,0,0-.343-.1.657.657,0,0,0-.133.016.626.626,0,0,0-.383.272,16.64,16.64,0,0,0-7.323-1.511" transform="translate(-32.141 -121.054)" fill="#db633c"/>
        <path id="Trazado_1052723" data-name="Trazado 1052723" d="M93.4,143.133c-.785,0-1.691.047-2.692.138a44.861,44.861,0,0,0-11.48,2.891,60.193,60.193,0,0,0-9.523,4.632,44.347,44.347,0,0,0-4.789,3.269,27.527,27.527,0,0,0-4.067,3.926,18.945,18.945,0,0,0-2.929,4.752,16.213,16.213,0,0,0-.9,2.715,16.783,16.783,0,0,0,.617,9.581c.122.359.253.711.391,1.063.409-.058.8-.135,1.194-.219a30.736,30.736,0,0,0,4.46-1.293,17.308,17.308,0,0,0,4.044-2.143,10.7,10.7,0,0,0,1.844-1.745,8.121,8.121,0,0,0,1.023-1.673,7.652,7.652,0,0,0,.51-1.714,7.871,7.871,0,0,0,.093-1.067,9.229,9.229,0,0,0-.048-1.112.182.182,0,0,1,.094-.155.242.242,0,0,1,.1-.025,16.2,16.2,0,0,0,1.627.529c.488.128.976.234,1.489.323a12.18,12.18,0,0,0,1.861.135c.488,0,1-.026,1.534-.077a16.523,16.523,0,0,0,4.23-1.009,11.907,11.907,0,0,0,2.671-1.441,8.31,8.31,0,0,0,1.368-1.276,5.989,5.989,0,0,0,.772-1.25,5.326,5.326,0,0,0,.366-1.218,5.665,5.665,0,0,0,.032-1.228,6.378,6.378,0,0,0-.154-.853,7.135,7.135,0,0,0-.24-.778l-.042-.087a.258.258,0,0,1-.01-.151.171.171,0,0,1,.052-.083.186.186,0,0,1,.132-.052,22.523,22.523,0,0,0,3.548.89,25.642,25.642,0,0,0,4.063.326c.813,0,1.639-.041,2.457-.121a19.649,19.649,0,0,0,5.052-1.182,14.045,14.045,0,0,0,1.576-.723,13.01,13.01,0,0,0,1.448-.9,11.172,11.172,0,0,0,1.124-.938,10.744,10.744,0,0,0,.932-1.012,10.47,10.47,0,0,0,.71-1.026l.052-.086a16.162,16.162,0,0,0-2.37-4.013,11.938,11.938,0,0,0-4.035-3.181.74.74,0,0,0-.356-.11.469.469,0,0,0-.147.029.622.622,0,0,0-.395.285,16.113,16.113,0,0,0-7.3-1.537" transform="translate(-32.88 -121.046)" fill="#d35934"/>
        <path id="Trazado_1052724" data-name="Trazado 1052724" d="M61.8,199.372a4.609,4.609,0,0,0-.4,1.283,5.326,5.326,0,0,0-.016,1.37,7.086,7.086,0,0,0,.3,1.383,7.909,7.909,0,0,0,.618,1.427,9.628,9.628,0,0,0,.8,1.226,9.208,9.208,0,0,0,.957,1.05,7.3,7.3,0,0,0,2.289,1.511.258.258,0,1,0,.215-.47,5.289,5.289,0,0,1-.739-.372A7.135,7.135,0,0,1,64.53,206.7l.008.011a9.572,9.572,0,0,1-1.368-1.936,8.623,8.623,0,0,1-.708-1.893l0,.019a6.56,6.56,0,0,1-.151-1.47,5.688,5.688,0,0,1,.2-1.227l-.015.044.015-.045c.007-.025.014-.049.02-.073,0,.023-.012.047-.02.071.048-.148.1-.292.161-.433a.491.491,0,0,0-.24-.637.469.469,0,0,0-.194-.042.5.5,0,0,0-.442.282m.519,1.939c0,.02,0,.038,0,.059,0-.019,0-.039,0-.059m.879,3.518.014.025-.014-.025m2.609,2.942.009.006-.009-.006M62.516,200.2h0v0s0,0,0,0" transform="translate(-33.737 -131.153)" fill="#ab4124"/>
        <path id="Trazado_1052725" data-name="Trazado 1052725" d="M57.019,198.634a4.044,4.044,0,0,0-1.556,1.04,4.329,4.329,0,0,0-.986,1.921.205.205,0,0,0,.17.234.207.207,0,0,0,.234-.173c.02-.074.039-.147.061-.22,0,.008,0,.016-.007.025a4.6,4.6,0,0,1,.365-.83,3.72,3.72,0,0,1,.528-.66l-.006,0a3.65,3.65,0,0,1,.663-.485,4.205,4.205,0,0,1,.728-.287,4.784,4.784,0,0,1,1.068-.125,5.36,5.36,0,0,1,1.259.187,5.669,5.669,0,0,1,1.182.514.486.486,0,0,0,.384.007.493.493,0,0,0,.019-.912,8.347,8.347,0,0,0-.982-.333,5.848,5.848,0,0,0-1.075-.175c-.129-.011-.259-.015-.388-.015a4.945,4.945,0,0,0-1.661.287m1.354.442h0Zm1.216.2.039.011a.335.335,0,0,1-.039-.011m-4.663,2.213.01-.03-.01.03" transform="translate(-32.495 -131.018)" fill="#ab4124"/>
        <path id="Trazado_1052726" data-name="Trazado 1052726" d="M140.863,297.645a8.208,8.208,0,0,1,.96-.016,6.747,6.747,0,0,1,1.554.267,6.219,6.219,0,0,1,1.391.6,9.026,9.026,0,0,1,1.318.934,33.435,33.435,0,0,1,4.456,4.24,8.676,8.676,0,0,1,1.257,1.953,2.885,2.885,0,0,1,.311,1.537,1.4,1.4,0,0,1-.755,1.074,1.879,1.879,0,0,1-.767.206,4.1,4.1,0,0,1-.469.008,6.651,6.651,0,0,1-1.471-.26l-.187-.052-.115-.033.233.235a6.107,6.107,0,0,1,1.207,1.84,2.582,2.582,0,0,1,.18.978,1.9,1.9,0,0,1-.075.467,2.046,2.046,0,0,1-.229.5,1.749,1.749,0,0,1-.264.33,2.439,2.439,0,0,1-.368.326,2.289,2.289,0,0,1-.921.372,1.829,1.829,0,0,1-.213.029,2.938,2.938,0,0,1-.66-.03,4.578,4.578,0,0,1-1-.281,8.354,8.354,0,0,1-1.713-.977,4.176,4.176,0,0,1,.337,1.332,2.614,2.614,0,0,1-.106.983,1.91,1.91,0,0,1-.574.859,2.207,2.207,0,0,1-.844.454,2.875,2.875,0,0,1-.6.112,3.2,3.2,0,0,1-.5,0,3.842,3.842,0,0,1-.993-.237,5.863,5.863,0,0,1-1.078-.542,10.572,10.572,0,0,1-1.921-1.58,14.728,14.728,0,0,1-1.563-1.862q-.168-.237-.328-.485a2.683,2.683,0,0,1-.122.42,4.808,4.808,0,0,1-1.087,1.72,3.1,3.1,0,0,1-1.622.9,2.044,2.044,0,0,1-.21.029,2.516,2.516,0,0,1-1.558-.459A3.623,3.623,0,0,1,131,312.8a4.817,4.817,0,0,1-.628-1.07,4.463,4.463,0,0,1-.257-2.434,7.259,7.259,0,0,1,.86-2.338,14.817,14.817,0,0,1,.885-1.4A22.223,22.223,0,0,1,133,303.028a11.469,11.469,0,0,1,.744-1.193,9.769,9.769,0,0,1,1.015-1.179,11.242,11.242,0,0,1,2.637-1.925,9.085,9.085,0,0,1,2.965-1.025c.165-.029.33-.048.5-.062" transform="translate(-46.146 -148.949)" fill="#db633c"/>
        <path id="Trazado_1052727" data-name="Trazado 1052727" d="M144.112,310.807c.106.187.222.371.35.551a11.324,11.324,0,0,0,1.035,1.165c.411.411.852.79,1.287,1.177a.2.2,0,0,1-.009.289.21.21,0,0,1-.29-.009c-.507-.448-1.029-.873-1.531-1.323a9.661,9.661,0,0,1-.767-.765,8.248,8.248,0,0,1-.612-.8.286.286,0,0,1-.021-.233.3.3,0,0,1,.147-.179.307.307,0,0,1,.116-.034.314.314,0,0,1,.295.16m.312.5.038.05c-.013-.019-.025-.034-.038-.05" transform="translate(-48.582 -151.302)" fill="#c94e2b"/>
        <path id="Trazado_1052728" data-name="Trazado 1052728" d="M148.679,306.49a.358.358,0,0,1,.263.12c.286.366.554.743.845,1.1.149.178.307.348.461.516.181.191.372.372.569.544a4.888,4.888,0,0,0,.433.314.206.206,0,1,1-.22.348c-.23-.152-.455-.311-.677-.476s-.46-.374-.681-.572-.4-.386-.6-.579c-.232-.222-.456-.455-.677-.687a.374.374,0,0,1,.245-.625l.036,0" transform="translate(-49.442 -150.551)" fill="#c94e2b"/>
        <path id="Trazado_1052729" data-name="Trazado 1052729" d="M105.239,232.886a.613.613,0,0,0,.208.733c4.112,9.151,6.859,18.628,9.541,28.345l.692,2.51a252.13,252.13,0,0,0,8.168,26.006c.576,1.456,1.194,2.932,1.84,4.385-.144.022-.224.032-.3.041a.627.627,0,0,0,.029,1.252,7.213,7.213,0,0,0,3.679-1.807,38.358,38.358,0,0,1,3.823-4.127,33.568,33.568,0,0,1,6.388-4.743c0-.012,0-.026,0-.039a.5.5,0,0,0,.029-.285q-.162-.643-.31-1.286c-.2-.823-.4-1.674-.637-2.5-.342-1.162-.714-2.346-1.136-3.613-.775-2.292-1.684-4.68-2.7-7.093-.945-2.228-2.03-4.545-3.217-6.885-.919-1.8-1.975-3.731-3.326-6.085-2.343-4.094-4.391-7.368-6.453-10.3a61.248,61.248,0,0,0-8.13-9.593,31.368,31.368,0,0,0-7.365-5.246.51.51,0,0,0-.23-.055.659.659,0,0,0-.583.391" transform="translate(-41.656 -137.186)" fill="#fea50c"/>
        <path id="Trazado_1052730" data-name="Trazado 1052730" d="M118.132,301.134c-.177,0-.356.007-.532.016a7.693,7.693,0,0,0-2.413.587A10.787,10.787,0,0,0,111.035,305a17.142,17.142,0,0,0-1.649,2.459,21.079,21.079,0,0,0-1.291,2.773,26.04,26.04,0,0,0-1.54,6.442,25.594,25.594,0,0,0,.138,6.826,19.976,19.976,0,0,0,2.1,6.381,16.777,16.777,0,0,0,1.9,2.812,15.4,15.4,0,0,0,2.5,2.375,15.923,15.923,0,0,0,2.734,1.649c.4.188.8.361,1.214.52l-.111-.028q-.678-.06-1.357-.126h-.007a.62.62,0,0,0-.554,1.013.579.579,0,0,0,.4.223c2.472.234,5.107.469,7.75.563.905.033,1.814.052,2.722.052a46.922,46.922,0,0,0,6.933-.465,26.576,26.576,0,0,0,4.549-1.062,14.681,14.681,0,0,0,3.824-1.894,9.279,9.279,0,0,0,2.7-2.9,7.94,7.94,0,0,0,.775-1.768,8.641,8.641,0,0,0,.324-1.868,11.788,11.788,0,0,0-.506-3.991,19.094,19.094,0,0,0-1.712-4.025,37.153,37.153,0,0,0-5.986-7.895,46.613,46.613,0,0,0-6.646-5.733,31.622,31.622,0,0,0-3.244-2.011c-.562-.3-1.068-.542-1.549-.742a12.35,12.35,0,0,0-5.269-3.182,8.008,8.008,0,0,0-2.044-.266m5.208,3.31c-.114-.108-.233-.212-.359-.314.125.093.249.188.372.283Z" transform="translate(-41.873 -149.584)" fill="#242c24"/>
        <path id="Trazado_1052731" data-name="Trazado 1052731" d="M60.982,306.317a25.671,25.671,0,0,0-8.114,3.137.483.483,0,0,0-.112-.208.633.633,0,0,0-.438-.2.649.649,0,0,0-.442.161.6.6,0,0,0-.2.438,27.3,27.3,0,0,0,.912,5.572,25.823,25.823,0,0,0,1.965,5,26.259,26.259,0,0,0,2.28,3.642,37.059,37.059,0,0,0-6.053-.534c-.169,0-.338,0-.5,0a13.727,13.727,0,0,0-.818,1.363,15.9,15.9,0,0,0-.749,1.677,15.7,15.7,0,0,0-.624,2.122,17.665,17.665,0,0,0-.317,2.093c0-.016,0-.035.007-.054a17.7,17.7,0,0,0-.045,2.394,19.492,19.492,0,0,0,.2,1.944,50.935,50.935,0,0,0,8,5.079,67.675,67.675,0,0,0,10.739,4.4A68.511,68.511,0,0,0,78.3,346.957a59.128,59.128,0,0,0,7.781.538c1.315,0,2.621-.052,3.889-.151a37.977,37.977,0,0,0,10.7-2.3,26.6,26.6,0,0,0,5.063-2.545,14.875,14.875,0,0,0,3.908-3.588,10.5,10.5,0,0,0,1.853-4.068,11.154,11.154,0,0,0,.025-4.237,20.4,20.4,0,0,0-3.966-8.467,41.617,41.617,0,0,0-7.019-7.3,44.234,44.234,0,0,0-3.838-2.848,27.394,27.394,0,0,0-3.979-2.176,47.811,47.811,0,0,0-10.082-3.21,59.409,59.409,0,0,0-11.392-1.258c-.243,0-.486,0-.729,0a44.987,44.987,0,0,0-9.532.976" transform="translate(-31.272 -150.344)" fill="#313a30"/>
        <path id="Trazado_1052732" data-name="Trazado 1052732" d="M52.722,310.572c-.022.259-.084.515-.112.774s-.044.522-.054.784a13.57,13.57,0,0,0,.039,1.844,18.808,18.808,0,0,0,.669,3.418,20.076,20.076,0,0,0,2.932,6.107,22.427,22.427,0,0,0,1.872,2.273q1.019,1.094,2.132,2.09a35.956,35.956,0,0,0,4.644,3.485A48.188,48.188,0,0,0,75.9,336.482q2.9.941,5.873,1.645c.973.23,1.956.423,2.935.615s1.936.352,2.906.5a62.248,62.248,0,0,0,7.474.682.2.2,0,0,0,.23-.173.2.2,0,0,0-.173-.23,51.1,51.1,0,0,1-6.078-.6q-1.617-.251-3.219-.6c-1.095-.237-2.177-.515-3.255-.816l.1.029a58.176,58.176,0,0,1-7.326-2.6,60.648,60.648,0,0,1-6.757-3.418,42.163,42.163,0,0,1-8.757-6.8c-.509-.538-1-1.092-1.476-1.665a15.552,15.552,0,0,1-1.548-2.285,19.987,19.987,0,0,1-1.731-4.509,28.15,28.15,0,0,1-.508-2.775c-.067-.483-.128-.967-.185-1.454-.026-.217-.045-.435-.07-.653-.026-.259-.077-.521-.08-.781a.771.771,0,0,0-.656-.675.7.7,0,0,0-.1-.007.773.773,0,0,0-.775.66" transform="translate(-32.146 -151.169)" fill="#242c24"/>
        <path id="Trazado_1052733" data-name="Trazado 1052733" d="M74.18,230.784a.508.508,0,0,0-.324.131,54.434,54.434,0,0,0-8.241,9.794,66.873,66.873,0,0,0-5.934,11.311,89.179,89.179,0,0,0-4.008,12.272,123.4,123.4,0,0,0-2.477,12.62c-.2,1.418-.4,2.91-.579,4.436-.211,1.818-.359,3.713-.458,5.794-.145,3.057-.151,6.316-.019,10.17l.1.12c-.012-.012-.022-.025-.034-.039a23.988,23.988,0,0,0,2.339,2.3,28.1,28.1,0,0,0,2.544,1.927l-.016-.01a37.282,37.282,0,0,0,8.773,4.2h0l0,0a53.131,53.131,0,0,0,7.367,1.869,62.646,62.646,0,0,0,7.457.912H80.7l.03,0h0A50.231,50.231,0,0,0,94,307.6l-.054.009a47.476,47.476,0,0,0,5.432-1.495c.794-.272,1.584-.557,2.359-.883.7-.292,1.379-.608,2.055-.944l-.016.006a39.073,39.073,0,0,0,8.11-5.514c-.012.013-.025.022-.038.035a33.926,33.926,0,0,0,5.731-6.425,84.324,84.324,0,0,0-2.025-14.706c-.48-2.189-1.041-4.516-1.821-7.547-.694-2.718-1.379-5.166-2.089-7.483-.8-2.618-1.626-5.025-2.52-7.352-.742-1.939-1.572-3.889-2.375-5.771l-.166-.383a76.876,76.876,0,0,0-5.781-11.49,28.511,28.511,0,0,0-4.353-5.419.684.684,0,0,0-.461-.188.508.508,0,0,0-.183.032.56.56,0,0,0-.4.291,6.548,6.548,0,0,1-.531.855A10.194,10.194,0,0,1,93.16,234.9a10.934,10.934,0,0,1-2.221,1.28,12.268,12.268,0,0,1-2.769.746.19.19,0,0,0-.051.013c0,.007-.035.016-.032.016-.547.052-1.114.084-1.681.084a15.409,15.409,0,0,1-1.828-.112,16.106,16.106,0,0,1-3.741-1.014,14.844,14.844,0,0,1-3.153-1.821,12.76,12.76,0,0,1-2.154-2.138c-.217-.288-.425-.579-.615-.89a.648.648,0,0,0-.544-.307.568.568,0,0,0-.192.032" transform="translate(-32.057 -136.871)" fill="#fea50c"/>
        <path id="Trazado_1052734" data-name="Trazado 1052734" d="M132,306.02l.028-.041v0c-.01.016-.019.026-.028.043" transform="translate(-46.497 -150.458)" fill="#fea50c"/>
        <path id="Trazado_1052735" data-name="Trazado 1052735" d="M68.9,322.362h0" transform="translate(-35.1 -153.418)" fill="#fea50c"/>
        <path id="Trazado_1052736" data-name="Trazado 1052736" d="M87,325.759h0Z" transform="translate(-38.37 -154.031)" fill="#fea50c"/>
        <path id="Trazado_1052737" data-name="Trazado 1052737" d="M70.8,234.677l-.009,0a55.2,55.2,0,0,0-5.212,6.724,66.714,66.714,0,0,0-5.935,11.313,88.457,88.457,0,0,0-4.008,12.273,124.37,124.37,0,0,0-2.484,12.63c-.2,1.435-.4,2.926-.579,4.437-.206,1.81-.356,3.706-.458,5.794-.143,3.094-.147,6.325-.016,10.169l.081.107a24.909,24.909,0,0,0,2.338,2.306,27.738,27.738,0,0,0,2.552,1.927,36.626,36.626,0,0,0,8.765,4.191c1.2.4,2.462.77,3.749,1.095a34.176,34.176,0,0,1-2.273-3.929,34.649,34.649,0,0,1-2-5.1,44.068,44.068,0,0,1-1.776-11.081,57.674,57.674,0,0,1,.726-11.285c.179-1.091.379-2.185.631-3.444s.512-2.509.787-3.761c.4-1.826.823-3.645,1.247-5.463l.12-.51.326-1.405c1.14-4.863,2.219-9.636,2.887-14.564a70.049,70.049,0,0,0,.627-7.589c.029-1.412.021-2.668-.025-3.839-.013-.326-.029-.656-.048-.982Z" transform="translate(-32.049 -137.58)" fill="#f19702"/>
        <path id="Trazado_1052738" data-name="Trazado 1052738" d="M115.979,247.559a.212.212,0,0,0-.074.282c.654,1.27,1.251,2.566,1.808,3.881q1.447,3.447,2.6,7.011c.774,2.391,1.456,4.814,2.087,7.246s1.216,4.879,1.792,7.324c.609,2.577,1.2,5.156,1.735,7.749.717,3.428,1.335,6.875,1.805,10.345-.01-.067-.02-.138-.029-.2q.144,1.1.275,2.2c.041.365.089.733.134,1.1l.057.471c.025.2.013.39.039.583.01.057.016.118.022.175a.659.659,0,0,0,.634.48.648.648,0,0,0,.464-.192.674.674,0,0,0,.192-.464,6.956,6.956,0,0,0,.01-.9c-.01-.314-.022-.628-.042-.941-.039-.682-.106-1.363-.179-2.042-.141-1.332-.33-2.656-.547-3.975-.433-2.622-1-5.218-1.61-7.8s-1.261-5.131-1.892-7.695c-.3-1.216-.6-2.432-.922-3.642s-.678-2.4-1.043-3.6c-.916-2.99-1.978-5.932-3.131-8.835s-2.477-5.716-3.9-8.485a.2.2,0,0,0-.179-.1.215.215,0,0,0-.1.025" transform="translate(-43.587 -139.902)" fill="#e88e00"/>
        <path id="Trazado_1052739" data-name="Trazado 1052739" d="M40.07,306.678a8.047,8.047,0,0,0-.958.061,6.749,6.749,0,0,0-1.529.388,6.251,6.251,0,0,0-1.34.7A8.978,8.978,0,0,0,35,308.867a33.584,33.584,0,0,0-4.108,4.578,8.706,8.706,0,0,0-1.1,2.048,2.879,2.879,0,0,0-.189,1.556,1.4,1.4,0,0,0,.837,1.012,1.9,1.9,0,0,0,.781.143,4.2,4.2,0,0,0,.468-.029,6.582,6.582,0,0,0,1.445-.374l.183-.067.112-.042-.215.253a6.127,6.127,0,0,0-1.057,1.929,2.585,2.585,0,0,0-.1.99,1.921,1.921,0,0,0,.112.46,2.031,2.031,0,0,0,.267.479,1.82,1.82,0,0,0,.289.309,2.46,2.46,0,0,0,.392.295,2.278,2.278,0,0,0,.947.3,2.045,2.045,0,0,0,.215.012,2.978,2.978,0,0,0,.655-.082,4.584,4.584,0,0,0,.975-.36,8.423,8.423,0,0,0,1.631-1.108,4.157,4.157,0,0,0-.232,1.354,2.64,2.64,0,0,0,.184.973,1.9,1.9,0,0,0,.639.81,2.192,2.192,0,0,0,.877.385,2.884,2.884,0,0,0,.612.066,3.23,3.23,0,0,0,.5-.04,3.912,3.912,0,0,0,.972-.314,5.932,5.932,0,0,0,1.032-.625,10.614,10.614,0,0,0,1.79-1.726,14.833,14.833,0,0,0,1.412-1.98c.1-.166.2-.336.289-.509a2.672,2.672,0,0,0,.154.409A4.81,4.81,0,0,0,46.99,321.6a3.109,3.109,0,0,0,1.689.773,1.829,1.829,0,0,0,.211.012,2.519,2.519,0,0,0,1.517-.58,3.583,3.583,0,0,0,.693-.792,4.79,4.79,0,0,0,.542-1.115,4.474,4.474,0,0,0,.064-2.447,7.259,7.259,0,0,0-1.041-2.262,14.7,14.7,0,0,0-.992-1.322,22.338,22.338,0,0,0-1.341-2.439,11.714,11.714,0,0,0-.837-1.131,9.646,9.646,0,0,0-1.105-1.1,11.22,11.22,0,0,0-2.78-1.711,9.1,9.1,0,0,0-3.037-.788c-.166-.016-.333-.022-.5-.022" transform="translate(-27.997 -150.585)" fill="#db633c"/>
        <path id="Trazado_1052740" data-name="Trazado 1052740" d="M41.891,319.867a6.379,6.379,0,0,1-.306.577,11.332,11.332,0,0,1-.939,1.245c-.378.442-.787.855-1.191,1.274a.2.2,0,0,0,.032.288.21.21,0,0,0,.288-.032c.47-.487.957-.951,1.421-1.44a9.468,9.468,0,0,0,.7-.823,8.036,8.036,0,0,0,.547-.845.283.283,0,0,0,0-.234.3.3,0,0,0-.161-.166.29.29,0,0,0-.119-.025.312.312,0,0,0-.281.181m-.272.525-.034.052.034-.052" transform="translate(-29.774 -152.935)" fill="#c94e2b"/>
        <path id="Trazado_1052741" data-name="Trazado 1052741" d="M37.045,315.927a.359.359,0,0,0-.253.141c-.256.388-.492.784-.755,1.162-.135.188-.279.371-.42.551-.165.2-.342.4-.524.587a4.815,4.815,0,0,1-.407.347.206.206,0,1,0,.247.33c.217-.17.429-.346.637-.528s.429-.41.634-.624.368-.415.551-.624c.214-.24.419-.49.62-.74a.373.373,0,0,0-.293-.6.265.265,0,0,0-.036,0" transform="translate(-28.907 -152.255)" fill="#c94e2b"/>
        <path id="Trazado_1052742" data-name="Trazado 1052742" d="M70.848,230.752a27.544,27.544,0,0,0-5.941,2.839,42.6,42.6,0,0,0-5.46,4.122A64.311,64.311,0,0,0,54.6,242.5c-1.552,1.693-3.021,3.425-4.366,5.15a80.665,80.665,0,0,0-13.152,25.075c-.65,2.013-1.155,3.844-1.552,5.6a54.407,54.407,0,0,0-1.009,6.225,56.536,56.536,0,0,0,.009,11.152,14.875,14.875,0,0,0,1.889,1.654l-.007-.007a20.334,20.334,0,0,0,4.571,2.481.387.387,0,0,1-.035-.016,21.224,21.224,0,0,0,5.313,1.309l-.007,0h0a16.119,16.119,0,0,0,3.954-.071l-.052.01c.384-.064.765-.138,1.143-.234.134-.036.267-.074.4-.113,0-.034,0-.07-.009-.108-.022-.176-.038-.352-.054-.529l-.016-.083h.007a30.436,30.436,0,0,1,.193-5.387c.185-1.709.419-3.406.7-5.038,1.664-9.429,5.121-18.461,8.52-26.9.474-1.177.955-2.356,1.431-3.53a197,197,0,0,0,8.3-23.151c.348-1.3.672-2.631.959-3.959a.677.677,0,0,0-.038-.471.949.949,0,0,0-.093-.138.648.648,0,0,0-.009-.188.637.637,0,0,0-.272-.391.648.648,0,0,0-.343-.1.406.406,0,0,0-.129.022M46.209,301.113a.152.152,0,0,1,.039,0,.152.152,0,0,0-.039,0" transform="translate(-28.843 -136.867)" fill="#fea50c"/>
        <path id="Trazado_1052743" data-name="Trazado 1052743" d="M67.774,260.329c-1.949,4.75-3.86,9.515-5.633,14.333-1.767,4.8-3.387,9.66-4.711,14.6-.724,2.685-1.354,5.393-1.86,8.126-.259,1.412-.474,2.83-.627,4.258-.084.749-.144,1.5-.189,2.257-.025.374-.039.755-.048,1.133a8.8,8.8,0,0,0,.019,1.129.633.633,0,0,0,.013.07q.595-.136,1.186-.285c.069-.4.1-.815.132-1.222.045-.538.09-1.073.134-1.61.09-1.021.2-2.039.339-3.051.141-.989.324-1.971.5-2.951.173-.963.358-1.923.547-2.88.761-3.818,1.683-7.6,2.717-11.347-.013.039-.022.08-.035.122a207.611,207.611,0,0,1,7.89-22.524.21.21,0,0,0-.109-.269.176.176,0,0,0-.08-.016.2.2,0,0,0-.188.125" transform="translate(-32.536 -142.191)" fill="#d88500"/>
        <path id="Trazado_1052744" data-name="Trazado 1052744" d="M79.057,230.247a.618.618,0,0,0-.1.861,15.944,15.944,0,0,0,10.476,6.2,13.894,13.894,0,0,0,3.137.042,12.033,12.033,0,0,0,3.1-.72,11.015,11.015,0,0,0,2.775-1.575,11.311,11.311,0,0,0,2.228-2.291c.125-.173.243-.349.358-.529a.615.615,0,1,0-.982-.739,10.025,10.025,0,0,1-3.349,3.27,10.739,10.739,0,0,1-2.23.978,12.854,12.854,0,0,1-3.006.451h.084l-.106,0-.057,0,.044,0a14.1,14.1,0,0,1-3.555-.437l.16.039a15.23,15.23,0,0,1-3.552-1.434A16,16,0,0,1,81.359,232l.111.112a16,16,0,0,1-1.552-1.767.6.6,0,0,0-.479-.229.62.62,0,0,0-.383.13m19.7,2.9-.041.043.041-.043m-14.374,1.16.047.027-.047-.027m10.005,1.464-.048.015.048-.015m-2.955.426h0" transform="translate(-36.894 -136.757)" fill="#d88500"/>
        <path id="Trazado_1052745" data-name="Trazado 1052745" d="M100.421,137.506c-2.244,0-4.551.07-6.857.208a91.979,91.979,0,0,0-13.713,1.8,64.853,64.853,0,0,0-13.117,4.226,50.35,50.35,0,0,0-6.031,3.227c-2.054,1.286-3.6,2.339-5.02,3.413a25.937,25.937,0,0,0-4.261,4,15.322,15.322,0,0,0-2.815,5.031,17.988,17.988,0,0,0-.743,6.4,24.453,24.453,0,0,0,.359,3.275,23.83,23.83,0,0,0,.836,3.2,21.793,21.793,0,0,0,4.934,8.171.675.675,0,0,0,.337.211.213.213,0,0,0,.05.078,27.42,27.42,0,0,0,3.567,3.3,9.746,9.746,0,0,0,2.194,1.25,4.816,4.816,0,0,0,1.763.35,4.431,4.431,0,0,0,.507-.029,3.626,3.626,0,0,0,2.082-1.1,5.493,5.493,0,0,0,1.368-2.388,8.085,8.085,0,0,0-.678-5.28,18.257,18.257,0,0,0-1.46-2.655,25.374,25.374,0,0,0-1.7-2.315c-.558-.682-1.155-1.344-1.774-1.969a18.661,18.661,0,0,0-1.431-1.313.262.262,0,0,0,.161.037c.1,0,.193,0,.292-.01a8.423,8.423,0,0,0,2.352-.506,6.605,6.605,0,0,0,3.3-2.6,6.159,6.159,0,0,0,.8-1.964,6.446,6.446,0,0,0,.1-2.138,7.314,7.314,0,0,0-.609-2.121,19.355,19.355,0,0,0,5.781,2.258,11.965,11.965,0,0,0,2.428.247c.186,0,.374-.007.564-.013a8.208,8.208,0,0,0,2.832-.647,7.578,7.578,0,0,0,4.659-6.78,9.445,9.445,0,0,0-.592-3.595,11.12,11.12,0,0,0,1.644.923,19.656,19.656,0,0,0,13.749,1.047,18.147,18.147,0,0,0,7.842-4.585,16.769,16.769,0,0,0,2.815-3.795,17.441,17.441,0,0,0,1.688-4.624c.045-.209.087-.417.122-.625a.6.6,0,0,0,.323-.484.652.652,0,0,0-.564-.7.533.533,0,0,0-.244-.08.677.677,0,0,0-.279.039c-2.924-.254-5.326-.372-7.557-.372" transform="translate(-31.298 -120.029)" fill="#21261f"/>
        <path id="Trazado_1052746" data-name="Trazado 1052746" d="M116.486,141.022a.233.233,0,0,0-.215.126,27.718,27.718,0,0,1-2.54,3.993,26.628,26.628,0,0,1-1.926,2.224,22.587,22.587,0,0,1-2.163,1.93,20.174,20.174,0,0,1-4.28,2.552,21.412,21.412,0,0,1-2.463.858,19.3,19.3,0,0,1-2.467.509l-.1.013a21.076,21.076,0,0,1-2.52.153,21.988,21.988,0,0,1-2.8-.186A17.809,17.809,0,0,1,90.65,152.1a9.493,9.493,0,0,1-1.791-1.02c-.115-.093-.229-.185-.338-.284a.652.652,0,0,0-.447-.184.631.631,0,0,0-.632.633.606.606,0,0,0,.088.317.583.583,0,0,0,.227.228,14.249,14.249,0,0,0,1.366.915,12.779,12.779,0,0,0,1.622.769,15,15,0,0,0,3.311.871,22.351,22.351,0,0,0,3.458.275,20.268,20.268,0,0,0,2.584-.163,19.451,19.451,0,0,0,2.785-.577,18.406,18.406,0,0,0,2.584-.97,20.427,20.427,0,0,0,4.572-2.92,27.993,27.993,0,0,0,6.666-8.59.247.247,0,0,0-.09-.341.239.239,0,0,0-.129-.036" transform="translate(-38.45 -120.664)" fill="#191d17"/>
        <path id="Trazado_1052747" data-name="Trazado 1052747" d="M115.341,125.944h0l-.054.008a.928.928,0,0,0-.608.288.969.969,0,0,0-.236.665,21.032,21.032,0,0,1-.333,2.115,19.4,19.4,0,0,1-.678,2.354,24.044,24.044,0,0,1-2.706,5.3A19.017,19.017,0,0,1,107.743,140l-.065.058a14.256,14.256,0,0,1-2.7,1.776,10.154,10.154,0,0,1-2.373.78,8.575,8.575,0,0,1-1.589.15c-.2,0-.39-.007-.586-.022-.278-.029-.559-.07-.834-.122h0c-.159,0-.262.07-.287.189a.251.251,0,0,0,.036.188.235.235,0,0,0,.152.106,10.546,10.546,0,0,0,1.989.193c.15,0,.3,0,.448-.01a9.57,9.57,0,0,0,2.39-.438,13.851,13.851,0,0,0,4.467-2.406,20.268,20.268,0,0,0,3.763-3.89,23.143,23.143,0,0,0,1.54-2.334,16.4,16.4,0,0,0,1.121-2.376,17.763,17.763,0,0,0,.775-2.517c.079-.367.145-.773.2-1.208.035-.324.046-.645.057-.968l0-.1.009-.243a.886.886,0,0,0-.293-.618.936.936,0,0,0-.62-.242" transform="translate(-40.592 -117.941)" fill="#191d17"/>
        <path id="Trazado_1052748" data-name="Trazado 1052748" d="M81.064,154.354a.735.735,0,0,0-.725.577,4.063,4.063,0,0,1-.71,1.866,5.289,5.289,0,0,1-.732.8,5.96,5.96,0,0,1-1.15.742,8.857,8.857,0,0,1-1.877.614,10.128,10.128,0,0,1-1.81.166c-.243,0-.486-.009-.733-.029a8.722,8.722,0,0,1-2.123-.441.375.375,0,0,0-.156-.039.233.233,0,0,0-.215.129.277.277,0,0,0-.007.218.2.2,0,0,0,.114.117,11.417,11.417,0,0,0,2.972.634c.372.032.743.048,1.118.048.173,0,.349,0,.521-.009a10.545,10.545,0,0,0,1.647-.2,6.534,6.534,0,0,0,2.878-1.3,5.248,5.248,0,0,0,.6-.577,4.543,4.543,0,0,0,.5-.705,4.752,4.752,0,0,0,.362-.814,5.1,5.1,0,0,0,.234-.914.779.779,0,0,0-.1-.55.732.732,0,0,0-.46-.32.792.792,0,0,0-.149-.013" transform="translate(-35.446 -123.072)" fill="#191d17"/>
        <path id="Trazado_1052749" data-name="Trazado 1052749" d="M57.7,178.088a.293.293,0,0,0-.2.089.3.3,0,0,0-.073.208.261.261,0,0,0,.089.188,13.308,13.308,0,0,1,1.57,1.574,10.991,10.991,0,0,1,1.423,2.18,7.943,7.943,0,0,1,.371.941,7.678,7.678,0,0,1,.352,1.944,6.38,6.38,0,0,1-.007.933l0,.125a9.778,9.778,0,0,1-.288,1.5.634.634,0,0,0,.075.5.728.728,0,0,0,.46.337.542.542,0,0,0,.146.016.711.711,0,0,0,.687-.554,13.423,13.423,0,0,0,.131-1.458,7.611,7.611,0,0,0-.1-1.461,8.579,8.579,0,0,0-.333-1.39,9.6,9.6,0,0,0-.538-1.275,13.4,13.4,0,0,0-3.564-4.324.285.285,0,0,0-.188-.072" transform="translate(-33.028 -127.359)" fill="#191d17"/>
        <path id="Trazado_1052750" data-name="Trazado 1052750" d="M41.605,162.067a19.094,19.094,0,0,0-1.738,2.96,13.852,13.852,0,0,0-1,3.054,14.068,14.068,0,0,0-.256,3.107c.013.512.064,1.027.119,1.54A14.733,14.733,0,0,0,39,174.313c.116.512.25,1.021.4,1.526s.343,1.009.542,1.5a23.367,23.367,0,0,0,1.478,3.009,28.957,28.957,0,0,0,1.85,2.775,24.038,24.038,0,0,0,2.208,2.653.9.9,0,0,0,1.076.138.885.885,0,0,0,.406-.528.858.858,0,0,0-.089-.685c-.522-.695-1.079-1.363-1.61-2.052l.007.01a41.587,41.587,0,0,1-2.4-3.473q-.572-.932-1.082-1.894c-.325-.618-.615-1.254-.889-1.894l.011.025a15.829,15.829,0,0,1-.656-1.862,16.362,16.362,0,0,1-.433-1.893c0,.011,0,.022,0,.033,0-.014,0-.028-.006-.042-.006-.037-.011-.075-.016-.111,0,.024.008.048.011.07a13.88,13.88,0,0,1-.02-3.478,14.218,14.218,0,0,1,.331-1.659,13.791,13.791,0,0,1,.565-1.654l-.007.015.016-.038.016-.038-.007.02a13.533,13.533,0,0,1,1.368-2.453.264.264,0,0,0-.1-.362.257.257,0,0,0-.128-.035.29.29,0,0,0-.234.132m-1.8,9.592s0,.006,0,.009c0-.016,0-.034-.007-.05l0,.041m.88-6.855-.009.023c.007-.014.011-.028.017-.041a.12.12,0,0,0-.008.018" transform="translate(-29.63 -124.442)" fill="#191d17"/>
        <path id="Trazado_1052751" data-name="Trazado 1052751" d="M44.608,173.253a.263.263,0,0,0-.179.317c.161.592.32,1.187.5,1.773a19.318,19.318,0,0,0,.675,1.872,16.329,16.329,0,0,0,1.808,3.335.654.654,0,0,0,.359.275.617.617,0,0,0,.464-.061.608.608,0,0,0,.275-.359.626.626,0,0,0-.154-.586c-.194-.229-.388-.459-.574-.7a17.728,17.728,0,0,1-2.167-3.761c-.118-.282-.234-.565-.343-.853-.134-.352-.24-.714-.342-1.076a.261.261,0,0,0-.252-.19.256.256,0,0,0-.066.008m1.018,2.148.016.038-.016-.038m2.1,3.661c.016.019.031.039.047.06l-.047-.06m.057.073.029.039-.029-.039" transform="translate(-30.68 -126.485)" fill="#191d17"/>
        <path id="Trazado_1052752" data-name="Trazado 1052752" d="M91.876,191.174c.638-.186.742-1.758.232-3.509s-1.442-3.022-2.08-2.837-.743,1.758-.233,3.51,1.442,3.021,2.08,2.836" transform="translate(-38.817 -128.573)" fill="#21261f"/>
        <path id="Trazado_1052753" data-name="Trazado 1052753" d="M117.995,182.485c.638-.186.742-1.758.232-3.509s-1.442-3.022-2.08-2.837-.743,1.759-.233,3.51,1.442,3.022,2.08,2.836" transform="translate(-43.534 -127.004)" fill="#21261f"/>
        <path id="Trazado_1052754" data-name="Trazado 1052754" d="M110.146,166.142c.05.745,1.75,1.238,3.794,1.1s3.663-.854,3.613-1.6-1.75-1.238-3.794-1.1-3.663.854-3.613,1.6" transform="translate(-42.551 -124.909)" fill="#21261f"/>
        <path id="Trazado_1052755" data-name="Trazado 1052755" d="M81.216,176c.475.711,2.445.231,4.4-1.072s3.151-2.937,2.676-3.649-2.445-.231-4.4,1.071-3.151,2.938-2.677,3.65" transform="translate(-37.307 -126.07)" fill="#21261f"/>
        <path id="Trazado_1052756" data-name="Trazado 1052756" d="M110.131,196.423a5.957,5.957,0,0,1-1.213.393,5.434,5.434,0,0,1-1.386.116,4.8,4.8,0,0,1-.64-.074l-.093-.018c-.091.151-.18.311-.27.483a8.394,8.394,0,0,0-.947,4.42,5.553,5.553,0,0,1,.606-.039,5.667,5.667,0,0,1,.835.064,6,6,0,0,1,1.652.506,7.3,7.3,0,0,1,1.472.934,8.577,8.577,0,0,1,.682.621,3.444,3.444,0,0,1,.262.3l.01.01a4.249,4.249,0,0,0,.412-1.274,12.2,12.2,0,0,0,.058-2.88c-.016-.3-.035-.6-.045-.9.029-.218.052-.435.07-.656a6.361,6.361,0,0,0-.042-1.363,2.551,2.551,0,0,0-.406-1.082c-.025-.039-.052-.076-.08-.113a4.669,4.669,0,0,1-.937.555" transform="translate(-41.723 -130.571)" fill="#21261f"/>
        <path id="Trazado_1052757" data-name="Trazado 1052757" d="M108.221,195.252a4.885,4.885,0,0,0-1.29,1.56c.149.038.3.067.454.092a.042.042,0,0,1,.02,0l-.02,0h0a.25.25,0,0,0,.03,0H107.4a.059.059,0,0,1,.022,0h0a5.785,5.785,0,0,0,.714.042,6.934,6.934,0,0,0,.737-.042h-.01a.046.046,0,0,0,.016,0h.009l.013,0a.032.032,0,0,1-.013,0h0a.185.185,0,0,0,.03,0h-.016a5.169,5.169,0,0,0,.73-.147,5.952,5.952,0,0,0,.576-.2,4.576,4.576,0,0,0,.48-.237,4.741,4.741,0,0,0,.4-.27l-.007.007.007-.007,0,0h0l0,0,.009-.007a3.625,3.625,0,0,0,.294-.277,2.27,2.27,0,0,0-1.075-.838,1.943,1.943,0,0,0-.749-.147,2.3,2.3,0,0,0-1.357.47" transform="translate(-41.97 -130.375)" fill="#fefefe"/>
        <path id="Trazado_1052758" data-name="Trazado 1052758" d="M112.04,196.313l.009-.007-.009.007" transform="translate(-42.893 -130.65)" fill="#fefefe"/>
        <path id="Trazado_1052759" data-name="Trazado 1052759" d="M112.011,196.333l0,0Z" transform="translate(-42.887 -130.655)" fill="#fefefe"/>
        <path id="Trazado_1052760" data-name="Trazado 1052760" d="M109.312,197.376l0,0,.012,0Z" transform="translate(-42.4 -130.843)" fill="#fefefe"/>
        <path id="Trazado_1052761" data-name="Trazado 1052761" d="M106.582,202.882c-.343,0-.683.019-1.025.051a1.408,1.408,0,0,0,.009.3,5.55,5.55,0,0,0,.3,1.3,4.212,4.212,0,0,0,.737,1.248,3.512,3.512,0,0,0,1.119.834,2.663,2.663,0,0,0,1.178.3,2.083,2.083,0,0,0,.286-.016,2.664,2.664,0,0,0,.845-.283,2.323,2.323,0,0,0,.716-.6,3.529,3.529,0,0,0,.42-.661,2.968,2.968,0,0,0-.215-.42c-.087-.141-.173-.276-.273-.411a4.56,4.56,0,0,0-.33-.37,4.194,4.194,0,0,0-.333-.294,3.688,3.688,0,0,0-.494-.321c-.144-.077-.292-.151-.442-.215a4.229,4.229,0,0,0-.709-.231,6.576,6.576,0,0,0-.7-.141,9.03,9.03,0,0,0-1.083-.064" transform="translate(-41.721 -131.838)" fill="#f68677"/>
        <path id="Trazado_1052762" data-name="Trazado 1052762" d="M108.816,186.01a3.581,3.581,0,0,0-.921.128,5.224,5.224,0,0,0-1,.4,5.858,5.858,0,0,0-1.009.647,5.949,5.949,0,0,0-1.471,1.6.216.216,0,0,0-.027.176.241.241,0,0,0,.112.152.219.219,0,0,0,.12.034.24.24,0,0,0,.209-.12c.05-.083.107-.163.162-.243l.065-.093a5.7,5.7,0,0,1,.932-.911,6.65,6.65,0,0,1,1.278-.738,4.749,4.749,0,0,1,.972-.268,3.505,3.505,0,0,1,.395-.025,3,3,0,0,1,.329.019,2.325,2.325,0,0,1,.439.108,2.418,2.418,0,0,1,.383.22,2.565,2.565,0,0,1,.318.328,3.222,3.222,0,0,1,.383.683l.083.226a.331.331,0,0,0,.321.243c.084-.01.087-.012.089-.015a.31.31,0,0,0,.193-.152.35.35,0,0,0,.036-.248,3.035,3.035,0,0,0-.449-1.143,2.222,2.222,0,0,0-.819-.739,2.324,2.324,0,0,0-1.121-.266" transform="translate(-41.509 -128.79)" fill="#c94e2b"/>
      </g>
      <g id="Grupo_1206278" data-name="Grupo 1206278" transform="translate(136.952 28.002)">
        <path id="Trazado_1052763" data-name="Trazado 1052763" d="M263.621,28.15h-.188a35.257,35.257,0,0,0-8.663,1.075,27.785,27.785,0,0,0-8.087,3.452,23.908,23.908,0,0,0-3.471,2.7,22.724,22.724,0,0,0-2.952,3.384,20.663,20.663,0,0,0-2.507,4.563,18.18,18.18,0,0,0-1.136,4.489c-.6,4.969.923,9.8,2.393,14.475.3.941.592,1.878.868,2.812a44.976,44.976,0,0,1,1.38,5.853l.014.06h0v.009l0-.006.008.033h-.008a24.637,24.637,0,0,1,.18,5.617.589.589,0,0,0,.263.5,12.447,12.447,0,0,1-.442,2.11,15.172,15.172,0,0,1-1.565,3.327,41.757,41.757,0,0,1-5.027,6.122l-.479.509a52.666,52.666,0,0,0-4.752,5.532,18.4,18.4,0,0,0-1.917,3.34,12.619,12.619,0,0,0-.984,3.661,12.363,12.363,0,0,0,.27,4.09,16.013,16.013,0,0,0,.708,2.261,15.77,15.77,0,0,0,1.15,2.353,12.232,12.232,0,0,0,2.28,2.684,16.56,16.56,0,0,0,3.071,2.175,15.122,15.122,0,0,0,3.459,1.39c.314.083.634.153.957.208a23.386,23.386,0,0,0-1.8,5.377,25.288,25.288,0,0,0,.262,11.139,24.153,24.153,0,0,0,2.549,6.308,22.2,22.2,0,0,0,4.307,5.322.581.581,0,0,0,.318.14,26.924,26.924,0,0,0,6.241,5.469,39.2,39.2,0,0,0,10.408,4.565,63.474,63.474,0,0,0,12.155,2.171c2.579.228,5.3.342,8.1.342,1.622,0,3.312-.039,5.024-.115a128.269,128.269,0,0,0,13.1-1.294c4.063-.6,8.18-1.41,12.237-2.4a106.245,106.245,0,0,0,10.386-3.047,65.746,65.746,0,0,0,11.448-5.288,40.815,40.815,0,0,0,11.262-9.492,28.041,28.041,0,0,0,3.739-6.141,25.259,25.259,0,0,0,1.96-7.117,29.325,29.325,0,0,0-.035-7.024,27.185,27.185,0,0,0-1.617-6.606,18.96,18.96,0,0,0-3.4-5.705q-.4-.457-.837-.882c.212-.085.427-.191.642-.3a16.564,16.564,0,0,0,5.194-4.115,17.169,17.169,0,0,0,3.119-5.6,17.96,17.96,0,0,0,.915-6.347,18.413,18.413,0,0,0-1.24-6.062,18.941,18.941,0,0,0-1.446-2.949,19.547,19.547,0,0,0-4.576-5.165,41.914,41.914,0,0,0-3.784-2.6c-.876-.55-1.763-1.081-2.649-1.612-1.788-1.072-3.637-2.18-5.359-3.426l-.08-.048,0,.007c-.821-.628-1.637-1.3-2.391-1.981a22.561,22.561,0,0,1-2.2-2.323,37.95,37.95,0,0,1-4.819-8.458l.028.1q-.59-1.407-1.183-2.811c-.882-2.092-1.794-4.255-2.842-6.313A32.039,32.039,0,0,0,319,38.389a24.093,24.093,0,0,0-3.329-3.723,21.03,21.03,0,0,0-3.858-2.77,19.523,19.523,0,0,0-4.244-1.735,20.573,20.573,0,0,0-4.553-.717c-.328-.017-.656-.025-.983-.025a25.085,25.085,0,0,0-3.817.317,41.775,41.775,0,0,0-5.336,1.31,42.591,42.591,0,0,1-5.217,1.291,17.039,17.039,0,0,1-2.414.175c-.489,0-.982-.022-1.466-.066a35.624,35.624,0,0,1-7.114-1.9c-1.3-.448-2.648-.91-4-1.274a32.5,32.5,0,0,0-4.629-.848,40.4,40.4,0,0,0-4.421-.272" transform="translate(-172.865 -28.15)" fill="#21261f"/>
        <path id="Trazado_1052764" data-name="Trazado 1052764" d="M269.387,43.857c-.515,0-1.028.016-1.543.052-.448.035-.9.079-1.341.134h.013a21.51,21.51,0,0,0-2.881.592,22.245,22.245,0,0,0-2.608.913l.047-.02a21.492,21.492,0,0,0-2.586,1.309,23.106,23.106,0,0,0-2.215,1.508,22.555,22.555,0,0,0-2.157,1.911,24.319,24.319,0,0,0-1.885,2.16,23.249,23.249,0,0,0-1.693,2.542,24.66,24.66,0,0,0-1.306,2.644c.007-.016.013-.033.02-.052a23.969,23.969,0,0,0-1.018,2.983,25.487,25.487,0,0,0-.6,2.958.146.146,0,0,1,0,.021c0-.007,0-.014,0-.021V63.48c-.052.391-.1.781-.128,1.168q-.053.639-.08,1.277c-.048,1.107-.093,2.215-.144,3.322-.1,2.09-.217,4.18-.416,6.264-.175,1.869-.406,3.735-.736,5.585-.179,1.015-.381,2.026-.621,3.028-.15.633-.307,1.264-.487,1.888-.6,2.1-1.363,4.149-2.138,6.187-.8,2.1-1.626,4.2-2.339,6.331a33.586,33.586,0,0,0-1.524,6.033c0-.016.007-.035.01-.054a15.794,15.794,0,0,0-.151,1.9,12.912,12.912,0,0,0,.1,1.753v-.006a9.259,9.259,0,0,0,.218,1.1,9.1,9.1,0,0,0,.336,1.009,7.679,7.679,0,0,0,.442.89,7.962,7.962,0,0,0,.547.813,7.731,7.731,0,0,0,.7.781c.234.224.477.435.726.633h0l0,0,0,0,.008.007.008.007s0,0,0,0l0,0,0,0h0a10.724,10.724,0,0,0,1.181.774,13.809,13.809,0,0,0,1.434.7l-.048-.02a22.966,22.966,0,0,0,5.444,1.4.209.209,0,0,1,.122.3c-.368.643-.72,1.3-1.047,1.958s-.62,1.313-.905,1.978c.007-.016.016-.032.022-.048a34.212,34.212,0,0,0-1.491,4.34,35.029,35.029,0,0,0-.848,4.212c0-.016.007-.035.01-.054a32.736,32.736,0,0,0-.3,4.548,34.995,34.995,0,0,0,.292,4.334v-.01a34.673,34.673,0,0,0,.957,4.686,37.952,37.952,0,0,0,1.517,4.367.085.085,0,0,1,.01.024l-.01-.024,0,0a37.617,37.617,0,0,0,2.18,4.349q.467.8.972,1.569.54.382,1.1.742a39.13,39.13,0,0,0,10.409,4.564,63.4,63.4,0,0,0,12.16,2.176c2.583.228,5.306.342,8.1.342,1.486,0,3.175-.038,5.022-.115a130.029,130.029,0,0,0,13.1-1.293c4.1-.612,8.216-1.422,12.239-2.4,1.259-.306,2.474-.619,3.651-.942q1.147-.779,2.248-1.625a38.855,38.855,0,0,0,3.64-3.172c.592-.583,1.168-1.184,1.718-1.808.493-.56.967-1.133,1.428-1.719l0,0,0,0a.149.149,0,0,1,.01-.015l.012-.014a.02.02,0,0,1,.007-.009v0a36.542,36.542,0,0,0,2.621-3.892c.413-.71.806-1.434,1.172-2.173.336-.682.653-1.37.951-2.071-.007.019-.013.035-.02.051a36.7,36.7,0,0,0,1.553-4.478c.218-.791.413-1.587.573-2.391.151-.742.275-1.488.381-2.237l-.01.054a33.314,33.314,0,0,0,.311-4.516c0-.755-.019-1.508-.074-2.263q-.076-1.008-.2-2.016v.007a30.292,30.292,0,0,0-.784-3.9c-.185-.675-.387-1.345-.618-2.007-.211-.606-.442-1.2-.687-1.793l.019.048a29.293,29.293,0,0,0-1.456-2.97c-.234-.413-.474-.819-.737-1.214q-.37-.547-.768-1.072a19.474,19.474,0,0,0-1.857-2.065,23.952,23.952,0,0,0-1.921-1.654,35.68,35.68,0,0,0-4.126-2.679c-1.389-.784-2.81-1.514-4.221-2.257-1.172-.611-2.34-1.229-3.476-1.9a31.688,31.688,0,0,1-3.262-2.164,20.367,20.367,0,0,1-2.819-2.567,18.133,18.133,0,0,1-2.4-3.36,24.621,24.621,0,0,1-1.882-4.411,37.543,37.543,0,0,1-1.168-4.836c-.583-3.278-.88-6.6-1.315-9.893V70.9a39.664,39.664,0,0,0-2.357-9.924s0-.008,0-.011l0,.011.012.02a22.716,22.716,0,0,0-1.361-2.72c-.269-.455-.55-.906-.851-1.341-.256-.371-.521-.739-.8-1.1a25.217,25.217,0,0,0-2.212-2.493A29.212,29.212,0,0,0,290,51.161a32.3,32.3,0,0,0-3.674-2.438,37.658,37.658,0,0,0-3.87-1.9l.051.02A40.03,40.03,0,0,0,277.4,45.1a41.647,41.647,0,0,0-5.079-1.047l.035.007a22.526,22.526,0,0,0-2.9-.2h-.06m-2.829.179a.192.192,0,0,1-.042.007.192.192,0,0,0,.042-.007m31.149,16.915c0,.007,0,.01.007.016s0-.01-.007-.016m2.369,9.951a.028.028,0,0,1,0,.016.1.1,0,0,1,0-.016m-54.252,66.872a.214.214,0,0,1,.007.045c0-.016,0-.029-.007-.045m2.49,9.122.01.019Z" transform="translate(-175.104 -30.987)" fill="#191d17"/>
        <path id="Trazado_1052765" data-name="Trazado 1052765" d="M321.081,102.642h0" transform="translate(-189.951 -41.604)" fill="#191d17"/>
        <path id="Trazado_1052766" data-name="Trazado 1052766" d="M242.642,128.735v0l0,0,0,.006" transform="translate(-175.783 -46.316)" fill="#191d17"/>
        <path id="Trazado_1052767" data-name="Trazado 1052767" d="M345.556,170.353a.082.082,0,0,0-.011.013l-.01.015.021-.028" transform="translate(-194.368 -53.834)" fill="#191d17"/>
        <path id="Trazado_1052768" data-name="Trazado 1052768" d="M345.535,170.387h0" transform="translate(-194.368 -53.841)" fill="#191d17"/>
        <path id="Trazado_1052769" data-name="Trazado 1052769" d="M246.877,77.039a4.945,4.945,0,0,0-.981.112,5.083,5.083,0,0,0-1.292.487,5.955,5.955,0,0,0-1.1.753,7.285,7.285,0,0,0-1,1.014,9.577,9.577,0,0,0-1.5,2.632,13.037,13.037,0,0,0-.733,3.376,13.376,13.376,0,0,0,.119,3.352,16.047,16.047,0,0,0,2.392,6.032,27.93,27.93,0,0,0,4.176,5.046.393.393,0,0,0,.272.114.351.351,0,0,0,.258-.115.422.422,0,0,0,.108-.3.387.387,0,0,0-.109-.271c-.166-.163-.333-.329-.5-.5a.448.448,0,0,0,.226-.126,16.538,16.538,0,0,0,3.324-4.151,19.218,19.218,0,0,0,1.268-2.678,17.594,17.594,0,0,0,.839-2.817,14.51,14.51,0,0,0,.067-5.867A8.6,8.6,0,0,0,249.8,78.1a5.618,5.618,0,0,0-.571-.4,5.556,5.556,0,0,0-.619-.3,4.395,4.395,0,0,0-1.439-.342c-.1-.007-.193-.01-.289-.01" transform="translate(-175.346 -36.98)" fill="#d79d70"/>
        <path id="Trazado_1052770" data-name="Trazado 1052770" d="M245.065,80.7a.241.241,0,0,0,.132.465c.1-.023.2-.043.3-.061a3.409,3.409,0,0,1,.77,0,3.334,3.334,0,0,1,.6.166,3.678,3.678,0,0,1,.661.389,4.02,4.02,0,0,1,.533.536,7.762,7.762,0,0,1,.884,1.556c-.011-.025-.021-.051-.03-.077l.036.09.038.086-.034-.078a9.364,9.364,0,0,1,.556,1.982.732.732,0,0,0,.193.327.731.731,0,0,0,1.04,0,.713.713,0,0,0,.218-.522,6.4,6.4,0,0,0-.176-1.1,5.831,5.831,0,0,0-.4-1.065,4.734,4.734,0,0,0-.554-.9,4.892,4.892,0,0,0-.839-.868A5.051,5.051,0,0,0,247.2,80.7a3.805,3.805,0,0,0-1.015-.134,4.776,4.776,0,0,0-1.12.139m1.817.574.049.019-.049-.019m.573.326.028.022-.028-.022m1.5,2.169,0-.008s0-.009-.006-.013l.009.021" transform="translate(-176.19 -37.617)" fill="#bf8b63"/>
        <path id="Trazado_1052771" data-name="Trazado 1052771" d="M264.079,40.126a22.083,22.083,0,0,0-3.583.285.772.772,0,0,0-.223.065.614.614,0,0,0-.71.117,33.2,33.2,0,0,0-2.112,2.942,29.409,29.409,0,0,0-1.643,2.983,34.17,34.17,0,0,0-2.216,6.118,79.523,79.523,0,0,0-1.821,10.994l-.2,1.7c-.093.778-.192,1.558-.3,2.336-.342,2.494-.7,4.536-1.133,6.417-.241,1.054-.54,2.111-.83,3.133-.257.908-.524,1.846-.747,2.781a44.445,44.445,0,0,0-1.307,10.919,28.056,28.056,0,0,0,1.957,10.323,22.049,22.049,0,0,0,2.536,4.575,21.481,21.481,0,0,0,3.743,3.954,25.351,25.351,0,0,0,5.126,3.215,31.328,31.328,0,0,0,6.176,2.164,34.059,34.059,0,0,0,5.583.845c-.007.47-.02.947-.048,1.422a.008.008,0,0,1,0,0h0a21.412,21.412,0,0,1-1.081,5.384,17.9,17.9,0,0,1-2,4l-.063.107-.007,0a14.629,14.629,0,0,1-2.245,2.5,13.5,13.5,0,0,1-2.6,1.727c-.039.016-.077.035-.116.054a14.233,14.233,0,0,1-1.7.659.625.625,0,0,0-.415.687.479.479,0,0,0-.109.242,12.286,12.286,0,0,0,.9,6.54,9.6,9.6,0,0,0,1.669,2.438,10.231,10.231,0,0,0,2.257,1.762,13.487,13.487,0,0,0,2.8,1.211,18.45,18.45,0,0,0,3.122.682,26.492,26.492,0,0,0,3.518.227,34.922,34.922,0,0,0,3.718-.211,45.3,45.3,0,0,0,7.756-1.576,48.163,48.163,0,0,0,7.418-2.839,37.527,37.527,0,0,0,6.447-3.864,20.968,20.968,0,0,0,4.611-4.6,13.23,13.23,0,0,0,1.047-1.729.586.586,0,0,0,.227-.243.607.607,0,0,0,.035-.483.589.589,0,0,0-.306-.357l-.662-.23-.435-.151a16.4,16.4,0,0,1-2.051-.876,14.93,14.93,0,0,1-1.638-.982s.024.022.021.025.031.032.035.034a14.63,14.63,0,0,1-2.558-2.325,13.675,13.675,0,0,1-1.692-2.578,15.069,15.069,0,0,1-1.174-3.484.2.2,0,0,0-.017-.048h0s-.012-.029-.014-.032l.006-.011-.007,0a19.427,19.427,0,0,1-.242-4.639s-.007.032-.011.032-.013.043-.014.047a24.88,24.88,0,0,1,1.263-6,.339.339,0,0,0,.016-.066.56.56,0,0,1,.01-.056h0a27.584,27.584,0,0,1,2.41-4.974c.111.007.231.009.351.009s.24,0,.36,0a13.022,13.022,0,0,0,1.765-.2,16.177,16.177,0,0,0,3.346-1,16.754,16.754,0,0,0,2.949-1.6,14.643,14.643,0,0,0,2.223-1.9,16.39,16.39,0,0,0,1.9-2.383,14.546,14.546,0,0,0,1.4-2.677,11.181,11.181,0,0,0,.759-5.871,8.855,8.855,0,0,0-.74-2.393,7.268,7.268,0,0,0-1.256-1.874,7.167,7.167,0,0,0-5.22-2.25,8.029,8.029,0,0,0-2.406.378,7.593,7.593,0,0,0-2.362,1.243,52.4,52.4,0,0,0,.746-6.417,58.145,58.145,0,0,0-.051-7.526,27.3,27.3,0,0,0-.4-3.243,21.637,21.637,0,0,0-3.423-8.209,25.388,25.388,0,0,0-3.906-4.463,32.092,32.092,0,0,0-4.841-3.57A74.226,74.226,0,0,0,280.812,44a56.253,56.253,0,0,0-10.427-3.21,35.631,35.631,0,0,0-5.135-.631q-.585-.028-1.172-.029" transform="translate(-176.616 -30.313)" fill="#febe86"/>
        <path id="Trazado_1052772" data-name="Trazado 1052772" d="M265.1,40.084a21.812,21.812,0,0,0-3.586.285.647.647,0,0,0-.234.075.412.412,0,0,0-.255-.075.628.628,0,0,0-.467.194,32.537,32.537,0,0,0-2.113,2.952A27.529,27.529,0,0,0,256.8,46.5a33.862,33.862,0,0,0-2.219,6.118,71.276,71.276,0,0,0-1.661,9.62,40.968,40.968,0,0,1,3.86-3.5,33.156,33.156,0,0,1,3.264-2.3,29.494,29.494,0,0,1,3.411-1.8.278.278,0,0,1,.1-.021l.088.012h.056a.215.215,0,0,1,.112.016.224.224,0,0,1,.089.12l.086.234.087.237a21.575,21.575,0,0,0,1.383,2.91,27.115,27.115,0,0,0,1.739,2.683,38.393,38.393,0,0,0,7.1,7.184,53.779,53.779,0,0,0,5.083,3.55c1.046.649,1.985,1.191,2.869,1.654,1,.534,2.051,1.038,3.121,1.5a41.129,41.129,0,0,0,5.209,1.844,44.124,44.124,0,0,0,5.311,1.142,45.87,45.87,0,0,0,6.15.483h.432c.895,0,1.805-.024,2.706-.07.062-.548.1-1.092.136-1.653a58.616,58.616,0,0,0-.052-7.526,28.5,28.5,0,0,0-.4-3.243,21.724,21.724,0,0,0-3.432-8.222A25.432,25.432,0,0,0,297.524,53a31.94,31.94,0,0,0-4.85-3.569,73.106,73.106,0,0,0-10.827-5.464,55.782,55.782,0,0,0-10.436-3.22,36.114,36.114,0,0,0-5.138-.631c-.389-.019-.781-.029-1.172-.029" transform="translate(-177.641 -30.305)" fill="#f2b37e"/>
        <path id="Trazado_1052773" data-name="Trazado 1052773" d="M294.909,127.46a25.484,25.484,0,0,1-3.22,1.511,35.562,35.562,0,0,1-7.316,1.975c-.208.032-.419.061-.628.089s-.432.077-.65.112q-.4.071-.8.13-.274.044-.549.084a28.168,28.168,0,0,1-2.938.275l-.088,0q-.677.046-1.356.055l.3.022c-.025.483-.039.941-.067,1.4a21.173,21.173,0,0,1-1.034,5.24,18.354,18.354,0,0,0,1.87-.154c-.013,0-.026,0-.039.007a25.417,25.417,0,0,0,6.4-1.783l-.048.023a26.254,26.254,0,0,0,5.758-3.323c-.013.01-.025.022-.039.032a19.452,19.452,0,0,0,3.437-3.37s0,0-.006.007.012-.016.019-.026.01-.009.013-.016v0a15.181,15.181,0,0,0,.931-1.377,13.148,13.148,0,0,0,.669-1.283c-.2.125-.413.246-.621.361" transform="translate(-181.911 -46.022)" fill="#d79d70"/>
        <path id="Trazado_1052774" data-name="Trazado 1052774" d="M270.88,131.646l0,0-.013,0,.017,0" transform="translate(-180.881 -46.843)" fill="#d79d70"/>
        <path id="Trazado_1052775" data-name="Trazado 1052775" d="M297.742,130.361c0,.007-.01.013-.013.019s.013-.016.02-.025,0,.007-.007.007" transform="translate(-185.733 -46.61)" fill="#d79d70"/>
        <path id="Trazado_1052776" data-name="Trazado 1052776" d="M315.484,97.71a.6.6,0,0,0-.218.81c.094.172.179.343.257.52a6.519,6.519,0,0,1,.392,1.494,8.587,8.587,0,0,1-.016,1.924l.007-.049-.007.052c0,.025-.006.049-.008.074,0-.02,0-.041.007-.061a10.433,10.433,0,0,1-.682,2.457c.009-.02.018-.042.029-.063l-.035.08a.142.142,0,0,0-.007.016.109.109,0,0,1,.006-.015,10.285,10.285,0,0,1-1.239,2.114,8.177,8.177,0,0,1-1.113,1.14.318.318,0,0,0,0,.451.326.326,0,0,0,.451,0,10.568,10.568,0,0,0,3.217-4.89,9.19,9.19,0,0,0,.455-2.926,6.847,6.847,0,0,0-.678-2.912.565.565,0,0,0-.515-.294.591.591,0,0,0-.3.076m.415,2.695c.006.043.011.084.015.126-.006-.042-.012-.084-.015-.126m-.692,4.543v0a.137.137,0,0,0,.007-.017l-.007.019m.689-2.476a.065.065,0,0,1,0-.012v0a.09.09,0,0,0,0,.015" transform="translate(-188.448 -40.7)" fill="#d79d70"/>
        <path id="Trazado_1052777" data-name="Trazado 1052777" d="M321.195,95.335a8.648,8.648,0,0,0-2.753.5,7.1,7.1,0,0,0-1.305.615,6.783,6.783,0,0,0-.577.384,2.454,2.454,0,0,0-.56.556.515.515,0,0,0,.019.624.509.509,0,0,0,.609.141,5.253,5.253,0,0,0,.649-.445c.2-.152.412-.3.625-.434a8.747,8.747,0,0,1,1.943-.883,8.235,8.235,0,0,1,1.874-.29,6.8,6.8,0,0,1,1.667.162l-.05-.011a6.027,6.027,0,0,1,1.331.5l-.034-.016a5.211,5.211,0,0,1,.984.7l0,0c.044.042.089.085.131.128a.21.21,0,0,0,.288.029.2.2,0,0,0,.029-.288,7.2,7.2,0,0,0-.992-.829,6.478,6.478,0,0,0-1.219-.646,6.8,6.8,0,0,0-1.232-.361,6.42,6.42,0,0,0-1.33-.135h-.094m4.385,2.071.022.02-.022-.02m-.946-.666-.017-.01.017.01" transform="translate(-189.016 -40.285)" fill="#d79d70"/>
        <path id="Trazado_1052778" data-name="Trazado 1052778" d="M236.858,118.71H236.8a9.76,9.76,0,0,0-1.64.167,25.943,25.943,0,0,0-3.759.977,43.148,43.148,0,0,0-4.543,1.885,82.854,82.854,0,0,0-12.346,7.1,90.157,90.157,0,0,0-9.13,7.3.6.6,0,0,0-.147.448.62.62,0,0,0,.619.579.677.677,0,0,0,.477-.218l.07-.063.062-.068-.006-.006.376-.311a6.412,6.412,0,0,0-.1,1.579,8.234,8.234,0,0,0,.692,2.825,11.424,11.424,0,0,0,3.757,4.622,9.461,9.461,0,0,0,3.925,1.73,20.233,20.233,0,0,0,3.182.266c.163,0,.326,0,.489,0a28.96,28.96,0,0,0,3.25-.187,21.636,21.636,0,0,0,3.765-.742,9.556,9.556,0,0,0,3-1.41,4.114,4.114,0,0,0,1.638-2.348,3.862,3.862,0,0,0-.1-1.9,4.347,4.347,0,0,0-.221-.606,5.478,5.478,0,0,0,1.332-2.071,4.357,4.357,0,0,0,.234-1.161,3.726,3.726,0,0,0-.138-1.205,3.268,3.268,0,0,0-.363-.819,7.2,7.2,0,0,0,.451-.6,8.441,8.441,0,0,0,1.413-3.216,4.122,4.122,0,0,0-.01-1.61,2.422,2.422,0,0,0-.2-.582,2.992,2.992,0,0,0-.218-.382,2.381,2.381,0,0,0-.259-.309,2.279,2.279,0,0,0-.21-.2,40.577,40.577,0,0,0,3.543-2.91,22.992,22.992,0,0,0,2.27-2.373,10.242,10.242,0,0,0,.679-.935,4.834,4.834,0,0,0,.41-.779,1.945,1.945,0,0,0,.1-1.4,1.522,1.522,0,0,0-.9-.86,3.766,3.766,0,0,0-1.389-.212" transform="translate(-169.028 -44.507)" fill="#febe86"/>
        <path id="Trazado_1052779" data-name="Trazado 1052779" d="M235.885,130.4c-.794.3-1.585.6-2.366.922a25.65,25.65,0,0,0-2.356,1.127.271.271,0,0,0-.118.183.284.284,0,0,0,.044.22.3.3,0,0,0,.186.122.322.322,0,0,0,.221-.048c.47-.282.947-.551,1.436-.8l-.061.029a31.781,31.781,0,0,1,3.146-1.367.205.205,0,0,0-.07-.4.174.174,0,0,0-.065.011" transform="translate(-173.688 -46.616)" fill="#d79d70"/>
        <path id="Trazado_1052780" data-name="Trazado 1052780" d="M235.006,138.5c-.551.125-1.1.265-1.635.432a15.567,15.567,0,0,0-1.588.589.225.225,0,0,0-.131.279.215.215,0,0,0,.275.131c.522-.22,1.047-.42,1.585-.595s1.082-.324,1.629-.451a.2.2,0,0,0,.119-.1.214.214,0,0,0-.1-.275.174.174,0,0,0-.078-.018.332.332,0,0,0-.079.011" transform="translate(-173.796 -48.08)" fill="#d79d70"/>
        <path id="Trazado_1052781" data-name="Trazado 1052781" d="M233.471,144.646c-.346.1-.688.2-1.031.311-.393.121-.781.252-1.172.378a.261.261,0,1,0,.173.492,16.891,16.891,0,0,1,2.164-.793.2.2,0,0,0,.125-.263.2.2,0,0,0-.193-.134.222.222,0,0,0-.066.01" transform="translate(-173.698 -49.19)" fill="#d79d70"/>
        <path id="Trazado_1052782" data-name="Trazado 1052782" d="M176.467,153.679c-1.642,1.594-3.264,3.306-4.824,5.1-1.59,1.83-2.778,3.258-3.844,4.638a46.576,46.576,0,0,0-3.649,5.393,25.063,25.063,0,0,0-2.519,5.848,14.6,14.6,0,0,0-.448,6.03,13.155,13.155,0,0,0,.964,3.351,13.968,13.968,0,0,0,3.962,5.156,22,22,0,0,0,6.072,3.473,40.678,40.678,0,0,0,7.6,2.1,68.875,68.875,0,0,0,8.421.986c1.831.109,3.771.163,5.759.163q1.5,0,3-.038a132.993,132.993,0,0,0,15.619-1.341c2.036-.3,3.835-.608,5.5-.951.759-.157,1.562-.343,2.522-.583,1.351-.339,2.455-.646,3.467-.966a30.368,30.368,0,0,0,2.669,18.141,24.265,24.265,0,0,0,3.477,5.042,24.844,24.844,0,0,0,2.375,2.307l.4.339a58.487,58.487,0,0,1-.176,6.325,73.059,73.059,0,0,1-1.255,8.715l0-.01a67.8,67.8,0,0,1-5.684,16.7l.086-.134a41.682,41.682,0,0,1-4.721,7.368.607.607,0,0,0,0,.7.51.51,0,0,0,.077.285,63.715,63.715,0,0,0,19.412,18.5,51.708,51.708,0,0,0,12.218,5.383,44.16,44.16,0,0,0,12.345,1.776c.3,0,.592,0,.887-.01a52.356,52.356,0,0,0,7.294-.726,64.4,64.4,0,0,0,7.388-1.674,80.465,80.465,0,0,0,13.948-5.563c2.347-1.178,4.77-2.52,7.41-4.1,1.111-.666,2.3-1.4,3.62-2.244l.234-.147c1.259-.8,2.561-1.635,3.89-2.366a.512.512,0,0,0,.121.013.612.612,0,0,0,.384-.132.586.586,0,0,0,.233-.41,120.4,120.4,0,0,1,3.024-22.651c.442-2.093.906-4.177,1.37-6.264,1.178-5.3,2.4-10.785,3.22-16.249a100.633,100.633,0,0,0,.922-22.956,79.794,79.794,0,0,0-1.773-11.43c-.327-1.4-.717-2.925-1.229-4.811-.458-1.667-.906-3.188-1.367-4.648a60.081,60.081,0,0,0-8.3-17.246,38.36,38.36,0,0,0-6.721-7.2,59,59,0,0,0-6.459-4.4l-.54-.335c-.963-.487-1.929-.968-2.888-1.459-.474-.2-.95-.4-1.421-.607-.016.02-.032.042-.051.061-.122.15-.243.3-.374.438-.02.022-.038.041-.058.061l-.061.07c-.106.125-.215.25-.326.368-.074.08-.151.16-.228.24a29.729,29.729,0,0,1-8.031,6.369c-.684.372-1.44.74-2.314,1.121l.02-.007a42.873,42.873,0,0,1-10.425,2.97l.087,0a34.655,34.655,0,0,1-4.891.374,24.7,24.7,0,0,1-2.75-.147,16.5,16.5,0,0,1-3.972-.957,11.686,11.686,0,0,1-2.516-1.4,9.769,9.769,0,0,1-1.568-1.53,10.048,10.048,0,0,1-1.232-2.08,12.575,12.575,0,0,1-.768-2.839v0a.088.088,0,0,1,0-.029.651.651,0,0,0-.259-.493.6.6,0,0,0-.119-.156.637.637,0,0,0-.391-.176,148.77,148.77,0,0,0-26.018,6.018,126.175,126.175,0,0,0-12.742,4.97,99.373,99.373,0,0,0-11.587,6.187l.048-.077.131-.311c.8-1.889,1.626-3.844,2.579-5.7.371-.717.781-1.472,1.259-2.307.989-1.722,2.089-3.479,3.155-5.179q.581-.925,1.155-1.846a33.109,33.109,0,0,0-2.074-5.573s0,.007.007.009a.192.192,0,0,0-.01-.022s0,.007,0,.01a.262.262,0,0,1-.013-.029,24.906,24.906,0,0,0-3.508-5.473c.01.013.022.025.035.042a16.711,16.711,0,0,0-1.434-1.457,98.8,98.8,0,0,0-22.84,16.295m18.084,40.989c.2,0,.4,0,.6,0-.176,0-.349,0-.525,0Zm115.136,66.817c-.1,1.373-.17,2.717-.2,4.017l-.038.02c.047-1.319.125-2.673.234-4.036" transform="translate(-161.046 -47.88)" fill="#ab4991"/>
        <path id="Trazado_1052783" data-name="Trazado 1052783" d="M213.733,145.788l.01.02-.011-.025a.022.022,0,0,1,0,.006" transform="translate(-170.562 -49.397)" fill="#ab4991"/>
        <path id="Trazado_1052784" data-name="Trazado 1052784" d="M247.147,178.868a45.348,45.348,0,0,0-6.651,10.514,39.832,39.832,0,0,0-3.409,12.249,33.7,33.7,0,0,0-.08,6.305,29.338,29.338,0,0,0,.42,3.073,26.722,26.722,0,0,0,.787,3.073,26.4,26.4,0,0,0,2.663,5.781,25.091,25.091,0,0,0,1.946,2.782,17.919,17.919,0,0,0,2.336,2.368c.32.269.656.515,1,.752a.888.888,0,1,0,1.053-1.431,16.051,16.051,0,0,1-1.819-1.485,21.732,21.732,0,0,1-3.238-4.088l.116.183a27.769,27.769,0,0,1-2.906-6.459c.02.064.042.128.061.2a28.947,28.947,0,0,1-1.224-7.561c0,.011,0,.021,0,.033a34.332,34.332,0,0,1,.228-4.906,41.971,41.971,0,0,1,.9-4.96c0,.016-.008.033-.013.048a41.883,41.883,0,0,1,3.986-10.155.113.113,0,0,0-.011.016,37.941,37.941,0,0,1,4.178-6.085.207.207,0,0,0-.045-.288.2.2,0,0,0-.116-.038.215.215,0,0,0-.169.083M238.2,204.976c0,.039,0,.076,0,.113Zm1.139-9.69c0-.014.007-.029.011-.043,0,.015-.007.029-.011.043" transform="translate(-174.746 -55.357)" fill="#913d7a"/>
        <path id="Trazado_1052785" data-name="Trazado 1052785" d="M209.487,152.489c-3.165,3.437-5.14,7.723-7.172,11.878-.5,1.014-1,2.03-1.534,3.028s-1.075,1.959-1.648,2.916a58.387,58.387,0,0,1-3.8,5.576q-.8,1.037-1.652,2.042a54.48,54.48,0,0,1-10.6,9.619h0c-.624.423-1.255.836-1.9,1.232a.209.209,0,0,0-.093.275.2.2,0,0,0,.275.089,54.032,54.032,0,0,0,5.393-3.79,58.713,58.713,0,0,0,5.009-4.507,63.115,63.115,0,0,0,4.471-5.015,64.205,64.205,0,0,0,3.946-5.476q1.3-2.027,2.417-4.161c.774-1.479,1.491-2.99,2.23-4.488s1.508-3,2.362-4.443a29.381,29.381,0,0,1,2.823-4.014c-.08-.293-.159-.587-.233-.882h-.007a.435.435,0,0,0-.3.121M193.66,177.961a.134.134,0,0,0-.022.029.134.134,0,0,1,.022-.029" transform="translate(-164.665 -50.586)" fill="#913d7a"/>
        <path id="Trazado_1052786" data-name="Trazado 1052786" d="M183.518,195.308l.008-.006a.019.019,0,0,0-.008.006" transform="translate(-165.105 -58.341)" fill="#913d7a"/>
        <path id="Trazado_1052787" data-name="Trazado 1052787" d="M183.475,195.335a.246.246,0,0,1,.035-.025.138.138,0,0,0-.035.025" transform="translate(-165.097 -58.342)" fill="#913d7a"/>
        <path id="Trazado_1052788" data-name="Trazado 1052788" d="M317.869,152.76c-.368.646-.72,1.3-1.046,1.968q-.428.884-.807,1.786l.02-.048a35.708,35.708,0,0,0-1.617,4.834c-.2.781-.378,1.568-.528,2.362s-.279,1.6-.388,2.4c0-.009,0-.019,0-.029a50.353,50.353,0,0,0-.384,7.576q.043,2,.211,3.991c.106,1.239.247,2.475.41,3.71v-.01a117.365,117.365,0,0,0,2.858,13.9c1.031,3.934,2.186,7.829,3.341,11.727.279.938.557,1.879.813,2.824.231.864.451,1.728.653,2.6.426,1.824.794,3.664,1.091,5.511a90.115,90.115,0,0,1,1.088,11.174,98.858,98.858,0,0,1-.284,11.606,109.149,109.149,0,0,1-4.453,23.007,111.835,111.835,0,0,1-4.01,11.007q-1.664,3.913-3.62,7.695a84.8,84.8,0,0,0,10.731-4.555c2.34-1.171,4.763-2.512,7.41-4.1,1.165-.7,2.35-1.431,3.62-2.243l.234-.147c1.262-.8,2.564-1.635,3.89-2.365a.313.313,0,0,0,.115.019.641.641,0,0,0,.4-.138.6.6,0,0,0,.24-.422,119.794,119.794,0,0,1,3.024-22.645c.429-2.036.877-4.062,1.328-6.088l.039-.176c1.181-5.313,2.4-10.808,3.223-16.256a100.725,100.725,0,0,0,.922-22.956,80.779,80.779,0,0,0-1.776-11.436c-.324-1.373-.715-2.9-1.229-4.811-.443-1.616-.89-3.137-1.367-4.648a60.015,60.015,0,0,0-8.306-17.248,38.407,38.407,0,0,0-6.721-7.2,58.7,58.7,0,0,0-6.453-4.4l-.282-.176-.269-.166-.351-.176a30.716,30.716,0,0,0-1.772,2.747" transform="translate(-188.17 -50.161)" fill="#913d7a"/>
        <path id="Trazado_1052789" data-name="Trazado 1052789" d="M183.183,252.87a21.608,21.608,0,0,0-6.7,1.028,18.152,18.152,0,0,0-5.476,2.892,17.65,17.65,0,0,0-2.248,2.094,17.232,17.232,0,0,0-1.845,2.481,20.792,20.792,0,0,0-2.67,13.081,31.86,31.86,0,0,0,2,8.091,61.4,61.4,0,0,0,3.652,7.785,62.08,62.08,0,0,0,9.715,13.137,64.881,64.881,0,0,0,12.411,9.975,78.391,78.391,0,0,0,30.282,10.691,91.665,91.665,0,0,0,12.915.9c1.483,0,3-.034,4.5-.1a.576.576,0,0,0,.406-.2.64.64,0,0,0,.159-.471.628.628,0,0,0-.642-.565c-1.509.068-3,.1-4.475.1-1.136,0-2.284-.02-3.415-.06v0c-.329-.013-.66-.029-.986-.045,1.273-.025,2.544-.054,3.821-.061l1.512-.007a73.772,73.772,0,0,0,9.33-.431A30.033,30.033,0,0,0,250.714,322c.474-.153.946-.325,1.415-.5l.121-.044c1.335-.486,2.72-1.009,4.232-1.6,4.712-1.847,8.259-3.4,11.5-5.044a39.313,39.313,0,0,0,4.773-2.751,12.548,12.548,0,0,0,1.631-1.329,3.9,3.9,0,0,0,.908-1.247,2.161,2.161,0,0,0,.147-.531,1.6,1.6,0,0,0-.071-.675,1.78,1.78,0,0,0-.3-.55,3.624,3.624,0,0,0-.568-.568A8.28,8.28,0,0,0,273,306.24a21.426,21.426,0,0,0-2.1-.894c-1.637-.616-3.341-1.128-5.089-1.642q-.876-.257-1.755-.507c-1.067-.306-2.134-.613-3.2-.94h0c-.578-.179-1.155-.365-1.722-.574a17.515,17.515,0,0,1-2.022-.94c-2.115-1.091-4.267-2.326-6.576-3.777-8.5-5.378-16.24-12.038-23.729-18.476q-2.869-2.468-5.749-4.914a179.459,179.459,0,0,0-14.823-11.443c-2.647-1.793-5.318-3.426-7.935-4.852-1.578-.863-2.817-1.477-4.017-1.992a33.968,33.968,0,0,0-3.871-1.37,26.112,26.112,0,0,0-7.223-1.05" transform="translate(-161.601 -68.739)" fill="#242c24"/>
        <path id="Trazado_1052790" data-name="Trazado 1052790" d="M281.834,283.886a9.234,9.234,0,0,0-2.947.5.188.188,0,0,0-.062-.174.2.2,0,0,0-.137-.054.244.244,0,0,0-.169.073l-.264.253-.264.252c-.107.047-.216.1-.324.149a.531.531,0,0,0-.276.25.479.479,0,0,0-.048.221c-.961.919-1.921,1.844-2.863,2.792-1.594,1.605-2.964,3.1-4.187,4.568a40.726,40.726,0,0,0-3.656,5.119c-.517.869-1,1.781-1.437,2.708a22.679,22.679,0,0,0-1.095,2.827,16,16,0,0,0-.756,5.8,13.126,13.126,0,0,0,.528,2.937,7.1,7.1,0,0,0,1.032,2.182,4.769,4.769,0,0,0,1.58,1.395,4.846,4.846,0,0,0,.923.362,4.306,4.306,0,0,0,.911.164q.284.026.567.025a9.687,9.687,0,0,0,3.684-.842,21.693,21.693,0,0,0,2.2-1.064c.624-.338,1.274-.722,1.984-1.178,1.09-.7,2.108-1.422,3.326-2.3a35.291,35.291,0,0,0,7.869-7.633c2.688-3.67,3.863-7.175,3.493-10.418a9.326,9.326,0,0,0-.7-2.649,10.046,10.046,0,0,0-1.563-2.508,11.734,11.734,0,0,0-2.511-2.248,9.125,9.125,0,0,0-3.133-1.33,8.269,8.269,0,0,0-1.7-.176" transform="translate(-179.519 -74.341)" fill="#febe86"/>
        <path id="Trazado_1052791" data-name="Trazado 1052791" d="M310.093,148.106a.625.625,0,0,0-.262.4c-.007.035-.01.07-.013.106a.642.642,0,0,0-.118.154,42.332,42.332,0,0,0-5.166,14.281,41.564,41.564,0,0,0-.522,7.634,42,42,0,0,0,.922,7.771,63.107,63.107,0,0,0,5.179,14.077c.817,1.684,1.662,3.355,2.506,5.022l.944,1.866q1.815,3.6,3.6,7.211l.342.7c.285.576.566,1.155.848,1.735,3.45,7.134,7.314,15.715,9.6,24.869a112.415,112.415,0,0,0-14.868,4.728,104.68,104.68,0,0,0-24.149,13.382c-1.527,1.139-3.051,2.356-4.651,3.713-1.758,1.486-3.264,2.874-4.612,4.244a21.889,21.889,0,0,0,1.956,4.3l-.029-.048a31.978,31.978,0,0,0,5.185,6.575c-.013-.013-.029-.026-.042-.039a30.438,30.438,0,0,0,6.337,4.823s0,0,0,0,0,0,0,0c.122.067.243.132.369.2l.179-.061c4.839-1.6,9.842-3.258,14.717-5.012,4.856-1.748,9.814-3.729,14.742-5.882,4.779-2.09,9.619-4.369,14.384-6.773a139.545,139.545,0,0,0,12.319-7.314l.544-.349c3.439-2.2,7.324-4.692,11.394-6.8.046-.08.092-.161.138-.242.221-.453.442-.906.668-1.356a33.567,33.567,0,0,0,1.9-6.752,44.856,44.856,0,0,0,.628-7.992,73.511,73.511,0,0,0-2.017-15.859,101.575,101.575,0,0,0-4.92-15.667,105.875,105.875,0,0,0-7.329-14.66A86.561,86.561,0,0,0,342.03,168.8a70.176,70.176,0,0,0-10.143-9.653,67.625,67.625,0,0,0-10-6.405,73.588,73.588,0,0,0-11.328-4.727.5.5,0,0,0-.118-.016.69.69,0,0,0-.349.112" transform="translate(-182.472 -49.796)" fill="#ab4991"/>
        <path id="Trazado_1052792" data-name="Trazado 1052792" d="M279.455,285.591l-.043-.119a.691.691,0,0,0,.043.119" transform="translate(-182.425 -74.627)" fill="#ab4991"/>
        <path id="Trazado_1052793" data-name="Trazado 1052793" d="M344.6,163.431c1.853,2.17,3.588,4.436,5.217,6.779q2.785,4.014,5.2,8.268c1.735,3.044,3.332,6.165,4.765,9.366a101.492,101.492,0,0,1,4.167,10.876,86.292,86.292,0,0,1,2.8,11.28,67.337,67.337,0,0,1,1.069,11.593,51.617,51.617,0,0,1-1.133,11.132c-.208.955-.442,1.9-.714,2.84-.234.8-.483,1.6-.771,2.384a35.563,35.563,0,0,1-2.286,5.009,49.924,49.924,0,0,1-6.4,8.885,91.289,91.289,0,0,1-7.9,7.759q-1.056.93-2.128,1.842,1.111-.548,2.218-1.106a137.889,137.889,0,0,0,12.319-7.317l.544-.348c3.447-2.2,7.352-4.7,11.394-6.792l.109-.186.323-.65.381-.771a33.864,33.864,0,0,0,1.9-6.757,45.164,45.164,0,0,0,.627-8,73.481,73.481,0,0,0-2.02-15.862,101.309,101.309,0,0,0-4.92-15.671,105.969,105.969,0,0,0-7.329-14.66,86.541,86.541,0,0,0-8.77-12.3,70.238,70.238,0,0,0-10.143-9.656q-.622-.482-1.259-.95,1.411,1.461,2.729,3.009" transform="translate(-193.706 -52.041)" fill="#9b4283"/>
        <path id="Trazado_1052794" data-name="Trazado 1052794" d="M336.22,251.671c-1.248.057-2.5.151-3.741.288-1.214.131-2.423.3-3.627.5q-1.834.307-3.652.724c-1.207.272-2.407.588-3.6.928-2.388.679-4.74,1.489-7.057,2.379-1.159.448-2.314.909-3.464,1.392s-2.292.989-3.431,1.5A100.739,100.739,0,0,0,283.1,274.595c-.65.56-1.287,1.139-1.911,1.728-.609.57-1.207,1.158-1.781,1.763.091.253.183.5.27.759.03.088.059.175.088.262a.591.591,0,0,0,.27-.143c.483-.455.964-.916,1.45-1.363q.793-.725,1.6-1.434c1.009-.887,2.045-1.744,3.1-2.58l.024-.019-.021.016.021-.016a97.9,97.9,0,0,1,12.027-8.044q3.111-1.776,6.331-3.351c1.088-.534,2.189-1.05,3.291-1.562q1.695-.792,3.4-1.546c.774-.342,1.549-.682,2.33-1.011l-.025.01a94.231,94.231,0,0,1,8.987-3.3,61.058,61.058,0,0,1,9.414-2.151l-.074.009c1.437-.2,2.883-.333,4.334-.4a.276.276,0,0,0,.272-.272.281.281,0,0,0-.266-.272h-.01Z" transform="translate(-182.425 -68.522)" fill="#85386f"/>
        <path id="Trazado_1052795" data-name="Trazado 1052795" d="M287.7,278.391l.017-.013-.017.013" transform="translate(-183.923 -73.346)" fill="#85386f"/>
        <path id="Trazado_1052796" data-name="Trazado 1052796" d="M307.3,147.249a28.727,28.727,0,0,1-2.807,2.825l.02-.018a33.818,33.818,0,0,1-6.966,4.662c.022-.011.045-.024.068-.034l-.08.039a39.214,39.214,0,0,1-9.24,3.2l.064-.012-.151.03-.007,0h0a31.339,31.339,0,0,1-8.046.654l.069.007a19.807,19.807,0,0,1-4.871-.895l.037.011a13,13,0,0,1-2.857-1.375,10.21,10.21,0,0,1-1.811-1.57,9.63,9.63,0,0,1-1.247-1.852,11.044,11.044,0,0,1-.853-2.5c-.03-.156-.057-.311-.082-.466a.661.661,0,0,0-.208-.415.625.625,0,0,0-.451-.154.617.617,0,0,0-.566.66,12.411,12.411,0,0,0,.685,2.576,10.283,10.283,0,0,0,1.149,2.139,10.621,10.621,0,0,0,3.435,3.053,14.971,14.971,0,0,0,4.416,1.6,23.72,23.72,0,0,0,4.92.455,31.188,31.188,0,0,0,4.814-.413,40.779,40.779,0,0,0,6.549-1.632,35.5,35.5,0,0,0,11.711-6.568,28.874,28.874,0,0,0,3.227-3.191.611.611,0,0,0-.464-1.018.6.6,0,0,0-.458.2m-36.671,7.416.091.1-.091-.1m4.606,3,.075.025-.075-.025m12.968.274h0l.087-.018-.091.019m9.331-3.214h0l.012-.006Z" transform="translate(-180.238 -49.624)" fill="#85386f"/>
        <path id="Trazado_1052797" data-name="Trazado 1052797" d="M221.338,329.842h.012l-.032,0h0a35.747,35.747,0,0,0-5.27.807,45.633,45.633,0,0,0-5.083,1.495l.051-.02a59.965,59.965,0,0,0-7.855,3.486c-.637.339-1.27.682-1.9,1.037-.311.176-.618.352-.925.534-.211.122-.423.247-.64.368-.973.538-1.962,1.041-2.881,1.671.016-.009.029-.019.045-.029a7.321,7.321,0,0,0-1.313,1.137,3.719,3.719,0,0,0-.284.371,3.667,3.667,0,0,0-.228.4,4.057,4.057,0,0,0-.252.8,4.529,4.529,0,0,0-.064.628c0,.17,0,.339.012.509v-.01a27.957,27.957,0,0,0,.883,3.768,8.065,8.065,0,0,1,.25,1.789c0,.109,0,.218-.009.325a73.437,73.437,0,0,0,15.318,1.516,140.342,140.342,0,0,0,15.436-1.037c2.081-.234,4.158-.487,6.239-.739,1.162-.141,2.32-.282,3.482-.42a.625.625,0,0,0-.007-1.249l-2.026.24-.243.03A15.5,15.5,0,0,0,235.245,343a17.736,17.736,0,0,0,.153-2.727,16.82,16.82,0,0,0-.288-2.708,13.5,13.5,0,0,0-1.936-4.906,10.725,10.725,0,0,0-1.093-1.4q-.755-.28-1.528-.508-1.052-.3-2.129-.515l.055.01a25.831,25.831,0,0,0-3.643-.439q-.69-.032-1.378-.032-1.062,0-2.12.074m-26.294,11.241s0,.01-.007.013,0-.009.007-.013" transform="translate(-167.128 -82.628)" fill="#f79400"/>
        <path id="Trazado_1052798" data-name="Trazado 1052798" d="M227.176,329.862h0" transform="translate(-172.99 -82.645)" fill="#f79400"/>
        <path id="Trazado_1052799" data-name="Trazado 1052799" d="M194.736,346c0-.01,0-.019,0-.029a.086.086,0,0,0,0,.029" transform="translate(-167.13 -85.555)" fill="#f79400"/>
        <path id="Trazado_1052800" data-name="Trazado 1052800" d="M218.534,326.8a36.633,36.633,0,0,0-5.23.589c-1.767.316-3.553.733-5.464,1.273a89.748,89.748,0,0,0-10.293,3.65c-1.367.569-2.747,1.181-4.344,1.92q-.965.452-1.927.916c-.838.406-1.651.81-2.42,1.258a15.748,15.748,0,0,0-2.557,1.817,7.039,7.039,0,0,0-1.479,1.806,4.033,4.033,0,0,0-.506,1.849,3.487,3.487,0,0,0,.47,1.732,5.218,5.218,0,0,0,1.252,1.491,10.106,10.106,0,0,0,1.975,1.3,18.177,18.177,0,0,0,2.6,1.082,28.026,28.026,0,0,0,3.083.848q.667.145,1.35.279c.022-.083.042-.166.064-.247a11.271,11.271,0,0,0,.256-1.344,9.581,9.581,0,0,0,.07-1.309,10.731,10.731,0,0,0-.109-1.357c0,.016.007.035.01.051a9.774,9.774,0,0,0-.263-1.2,10.612,10.612,0,0,0-.4-1.13s0-.007-.007-.013,0,0,0-.007l0-.006c-.111-.247-.229-.492-.356-.73a.207.207,0,0,1,.07-.282.239.239,0,0,1,.106-.025.2.2,0,0,1,.054.007,65.8,65.8,0,0,1,6.594-4.168,64.869,64.869,0,0,1,7.307-3.467,53.009,53.009,0,0,1,19.415-3.975c.316,0,.633,0,.95.01a10.981,10.981,0,0,0-1.225-.814,13.459,13.459,0,0,0-4.18-1.476,20.835,20.835,0,0,0-3.934-.342c-.311,0-.618.007-.928.016" transform="translate(-165.248 -82.088)" fill="#313a30"/>
        <path id="Trazado_1052801" data-name="Trazado 1052801" d="M196.94,345.4l-.007-.017.007.017" transform="translate(-167.528 -85.448)" fill="#313a30"/>
        <path id="Trazado_1052802" data-name="Trazado 1052802" d="M196.944,345.411l0-.006,0,.006" transform="translate(-167.529 -85.452)" fill="#313a30"/>
        <path id="Trazado_1052803" data-name="Trazado 1052803" d="M196.95,345.42l0,.007,0-.012a.012.012,0,0,1,0,.006" transform="translate(-167.53 -85.454)" fill="#313a30"/>
        <path id="Trazado_1052804" data-name="Trazado 1052804" d="M196.956,345.435a.012.012,0,0,0,0,0,.092.092,0,0,0,0-.011l0,.006" transform="translate(-167.531 -85.456)" fill="#313a30"/>
        <path id="Trazado_1052805" data-name="Trazado 1052805" d="M196.368,341.39c-.87.784-1.751,1.555-2.609,2.356a.661.661,0,0,0-.237.4.617.617,0,0,0,.983.579c.857-.8,1.738-1.572,2.608-2.356a.652.652,0,0,0,.237-.4.616.616,0,0,0-.121-.464.652.652,0,0,0-.509-.244.522.522,0,0,0-.352.129" transform="translate(-166.911 -84.704)" fill="#313a30"/>
        <path id="Trazado_1052806" data-name="Trazado 1052806" d="M197.286,340.864c-1.168,1.1-2.343,2.189-3.55,3.246a.614.614,0,1,0,.746.976c1.207-1.053,2.381-2.148,3.55-3.246a.651.651,0,0,0,.237-.4.617.617,0,0,0-.519-.7.849.849,0,0,0-.093-.006.555.555,0,0,0-.37.125" transform="translate(-166.907 -84.609)" fill="#313a30"/>
        <path id="Trazado_1052807" data-name="Trazado 1052807" d="M197.5,340.76c-1.14.915-2.237,1.872-3.306,2.868a.634.634,0,0,0-.234.4.61.61,0,0,0,.518.7.586.586,0,0,0,.461-.119q1.6-1.492,3.306-2.865a.615.615,0,0,0-.382-1.1.575.575,0,0,0-.364.124" transform="translate(-166.99 -84.591)" fill="#313a30"/>
        <path id="Trazado_1052808" data-name="Trazado 1052808" d="M208.684,350.674a.624.624,0,0,0-.522.7,5.081,5.081,0,0,1,.059.638,3.689,3.689,0,0,1-.417,1.723.615.615,0,1,0,1.136.471,5.37,5.37,0,0,0,.442-1.4,4.961,4.961,0,0,0,0-1.61.623.623,0,0,0-.61-.528.6.6,0,0,0-.085.007" transform="translate(-169.482 -86.403)" fill="#313a30"/>
        <path id="Trazado_1052809" data-name="Trazado 1052809" d="M215.685,350.916a.622.622,0,0,0-.522.694c.021.185.034.368.038.553a6.407,6.407,0,0,1-.188,1.434c-.02.075-.043.147-.067.219a.652.652,0,0,0,0,.48.616.616,0,0,0,1.132-.007,7.676,7.676,0,0,0,.3-1.338,6.705,6.705,0,0,0,0-1.517.612.612,0,0,0-.61-.525.427.427,0,0,0-.085.007M215,353.638c0,.016-.007.032-.012.048l.012-.048" transform="translate(-170.773 -86.446)" fill="#313a30"/>
        <path id="Trazado_1052810" data-name="Trazado 1052810" d="M222.112,350.287a.616.616,0,0,0-.519.695,6.28,6.28,0,0,1,.089.858,4.534,4.534,0,0,1-.361,1.844.615.615,0,0,0,1.136.47,6.527,6.527,0,0,0,.41-1.575,5.984,5.984,0,0,0-.057-1.773.625.625,0,0,0-.607-.526.58.58,0,0,0-.091.007" transform="translate(-171.925 -86.333)" fill="#313a30"/>
        <path id="Trazado_1052811" data-name="Trazado 1052811" d="M228.845,349.883a.622.622,0,0,0-.519.7,8.074,8.074,0,0,1,.06.812,6.554,6.554,0,0,1-.2,1.482l-.043.142a.648.648,0,0,0,0,.477.615.615,0,0,0,1.133-.007,7.455,7.455,0,0,0,.3-1.454,7.3,7.3,0,0,0-.038-1.632.621.621,0,0,0-.613-.524.6.6,0,0,0-.085.006m-.615,2.849-.02.073c.006-.024.012-.049.02-.073" transform="translate(-173.158 -86.26)" fill="#313a30"/>
        <path id="Trazado_1052812" data-name="Trazado 1052812" d="M356.337,258.336a63.155,63.155,0,0,0-12.156,2.362,111.4,111.4,0,0,0-11.7,4.148c-3.668,1.5-7.487,3.207-11.347,5.057-8.607,4.132-16.989,8.93-24.77,13.5q-2.919,1.718-5.832,3.447-3.182,1.882-6.366,3.758c-3.914,2.3-8.043,4.657-12.275,7.022q-2.1,1.171-4.205,2.324c-9.429,5.137-20.745,10.915-33.1,14.769a22.048,22.048,0,0,0-.487,2.5v-.007a23.18,23.18,0,0,0-.188,3.015,24.451,24.451,0,0,0,.208,3.015l0,0a23.987,23.987,0,0,0,.663,3.252,25.992,25.992,0,0,0,1.05,3.028l-.02-.052a24.776,24.776,0,0,0,1.428,2.862,25.854,25.854,0,0,0,1.686,2.506h0l.013.013-.007-.009,0,0a.008.008,0,0,1,0,0,.152.152,0,0,1,.022.031l0,0,.007.012v0l0,0,0,0a24.035,24.035,0,0,0,1.637,1.883c18.2-1.172,37-2.4,55.56-5.246a259.693,259.693,0,0,0,27.35-5.637,194.282,194.282,0,0,0,25.884-8.831,98.441,98.441,0,0,0,18.743-10.066,52.019,52.019,0,0,0,8.046-6.952,34.826,34.826,0,0,0,5.886-8.472,27.967,27.967,0,0,0,2.72-9.941,23.868,23.868,0,0,0-1.248-9.8,20.127,20.127,0,0,0-2.189-4.33,18.473,18.473,0,0,0-3.265-3.668,23.165,23.165,0,0,0-9.871-4.734,34.108,34.108,0,0,0-8.072-.909c-1.217,0-2.493.054-3.8.16" transform="translate(-174.206 -69.697)" fill="#313a30"/>
        <path id="Trazado_1052813" data-name="Trazado 1052813" d="M376.385,262.823a.015.015,0,0,0-.011.012c.106.514.2,1.023.285,1.534a28.122,28.122,0,0,1,.358,4.541,31.794,31.794,0,0,1-.32,4.412,34.358,34.358,0,0,1-1.014,4.713,37.1,37.1,0,0,1-1.5,4.167,34.978,34.978,0,0,1-2.067,4.048c-.409.677-.8,1.277-1.184,1.837-.4.58-.822,1.154-1.255,1.705a58.448,58.448,0,0,1-7.247,7.723,71.168,71.168,0,0,1-8.283,6.33,104.947,104.947,0,0,1-19.027,9.643c-5.786,2.29-12.27,4.445-20.4,6.782q-2.506.72-5.019,1.415c-1.952.541-3.9,1.078-5.86,1.594-4.516,1.187-8.993,2.275-13.305,3.233a298.673,298.673,0,0,1-52.3,7.041,21.164,21.164,0,0,0,1.441,2.151,24.333,24.333,0,0,0,1.667,1.925c18.1-1.158,36.807-2.358,55.588-5.237a260.347,260.347,0,0,0,27.358-5.642,193.518,193.518,0,0,0,25.885-8.832,98.283,98.283,0,0,0,18.748-10.067,52.332,52.332,0,0,0,8.054-6.956,34.755,34.755,0,0,0,5.887-8.481,27.891,27.891,0,0,0,2.731-9.953,23.949,23.949,0,0,0-1.255-9.815,20.25,20.25,0,0,0-2.193-4.335,18.5,18.5,0,0,0-5.754-5.482s-.006,0-.008,0" transform="translate(-174.988 -70.536)" fill="#2b342b"/>
        <path id="Trazado_1052814" data-name="Trazado 1052814" d="M267.227,38.239a20.972,20.972,0,0,0-9.007,1.828,18.469,18.469,0,0,0-7.864,7.5,26.059,26.059,0,0,0-3.336,15.4.567.567,0,0,0,.068.224.661.661,0,0,0,.041.348.613.613,0,0,0,.574.383.654.654,0,0,0,.24-.046.684.684,0,0,0,.333-.33c.1-.173.2-.346.294-.515a35.117,35.117,0,0,1,5.382-6.832l-.012.011a38.321,38.321,0,0,1,7.481-5.719c.834-.478,1.649-.906,2.49-1.309a36.938,36.938,0,0,0,5.127,7.446,50.517,50.517,0,0,0,9.3,8.25,48.849,48.849,0,0,0,10.289,5.483,33.967,33.967,0,0,0,9.547,2.248c0,.553.03,1.15.088,1.929.085,1.252.224,2.478.413,3.643a21.022,21.022,0,0,0,.922,3.763,5.968,5.968,0,0,0,1.658,2.67,2.564,2.564,0,0,0,1.252.565,2.236,2.236,0,0,0,.331.025,2.933,2.933,0,0,0,1.143-.252,4,4,0,0,0,1.331-.959,5.805,5.805,0,0,0,.917-1.394,10.572,10.572,0,0,0,.66-1.752,20.417,20.417,0,0,0,.5-2.146,36.584,36.584,0,0,0,.493-4.667c.083-1.716.093-3.459.029-5.33-.051-1.511-.129-2.661-.253-3.727a.626.626,0,0,0-.619-.542l-.1.008a39.331,39.331,0,0,0-4.693-9.025,36.847,36.847,0,0,0-7.712-8.016,41.194,41.194,0,0,0-9.864-5.555,47.867,47.867,0,0,0-5.624-1.825,62.343,62.343,0,0,0-6.911-1.414,35.224,35.224,0,0,0-4.9-.369" transform="translate(-176.552 -29.972)" fill="#21261f"/>
        <path id="Trazado_1052815" data-name="Trazado 1052815" d="M271.1,46.677a.207.207,0,0,0-.044.285c.521.873,1.053,1.741,1.616,2.589.577.873,1.188,1.725,1.818,2.564a56.137,56.137,0,0,0,4.135,4.932c.752.794,1.533,1.563,2.327,2.317s1.61,1.489,2.461,2.18a43.937,43.937,0,0,0,5.4,3.8,35.2,35.2,0,0,0,3.2,1.677,30.105,30.105,0,0,0,3.45,1.319,25.689,25.689,0,0,0,3.6.873q.874.144,1.758.215c.351.029.707.044,1.059.054s.675-.012,1.011-.012a1.13,1.13,0,0,0,.547-.2,1.12,1.12,0,0,0,.253-1.559,1.073,1.073,0,0,0-.727-.451c-.294-.012-.589-.051-.883-.076-.336-.03-.672-.058-1.009-.09-.672-.064-1.341-.153-2.007-.262a32.721,32.721,0,0,1-3.8-.849l.118.036-.137-.042-.132-.038.12.035a38.465,38.465,0,0,1-4.415-1.654,40.179,40.179,0,0,1-4.452-2.37c-.8-.5-1.586-1.026-2.347-1.581-.851-.618-1.69-1.251-2.5-1.921a51.306,51.306,0,0,1-4.464-4.239,42.567,42.567,0,0,1-3.038-3.621,43.746,43.746,0,0,1-2.634-3.86.183.183,0,0,0-.162-.083.228.228,0,0,0-.126.038m5.9,7.458.032.034-.032-.034m9.46,7.859c.027.016.055.033.081.05l-.081-.05m8.8,3.977.019.006-.031-.009.012,0" transform="translate(-180.908 -31.489)" fill="#191d17"/>
        <path id="Trazado_1052816" data-name="Trazado 1052816" d="M287.692,56.58a.207.207,0,0,0,.032.288,18.363,18.363,0,0,0,2.874,2.42,26.006,26.006,0,0,0,3.447,1.966,34.292,34.292,0,0,0,3.607,1.513c1.229.433,2.484.823,3.752,1.136a.636.636,0,0,0,.729-.528.644.644,0,0,0-.528-.733c-.692-.125-1.38-.256-2.065-.406-.752-.166-1.495-.365-2.231-.583.038.013.077.022.116.035a31.632,31.632,0,0,1-3.22-1.12,22.881,22.881,0,0,1-3.092-1.579l.036.023a17.2,17.2,0,0,1-3.169-2.461.169.169,0,0,0-.12-.046.226.226,0,0,0-.168.075m3.421,2.409-.025-.016.025.016" transform="translate(-183.912 -33.271)" fill="#191d17"/>
        <path id="Trazado_1052817" data-name="Trazado 1052817" d="M364.983,123.74c.3.524.589,1.063.846,1.616-.01-.016-.016-.035-.026-.051a22.211,22.211,0,0,1,1.709,5.5c0-.032-.009-.064-.012-.093a22.649,22.649,0,0,1,.23,5.871,23.2,23.2,0,0,1-1.36,5.632,27.565,27.565,0,0,1-1.217,2.642,21.546,21.546,0,0,1-1.638,2.67c.033-.046.066-.091.1-.134l-.12.164-.018.025.017-.023a25.334,25.334,0,0,1-3.253,3.666,1.074,1.074,0,0,0-.3.793,1.1,1.1,0,0,0,.352.772,1.116,1.116,0,0,0,1.565-.052c.7-.778,1.377-1.581,2-2.423a27.345,27.345,0,0,0,3.054-5.473,25.945,25.945,0,0,0,.979-2.948,24.316,24.316,0,0,0,.81-6,22.545,22.545,0,0,0-.7-6.018,24.583,24.583,0,0,0-2.676-6.357.18.18,0,0,0-.159-.1.212.212,0,0,0-.187.315m2.744,12.873c0,.014,0,.028,0,.042,0-.014,0-.028,0-.042m-1.313,5.49-.02.054.02-.054m-2.921,5.456v0l.021-.029-.022.031" transform="translate(-196.97 -45.358)" fill="#191d17"/>
        <path id="Trazado_1052818" data-name="Trazado 1052818" d="M339.487,55.477A43.415,43.415,0,0,0,345.495,66.6a48.03,48.03,0,0,0,4.122,4.737,43.532,43.532,0,0,0,4.772,4.2c.688.521,1.392,1.021,2.09,1.523-.052-.038-.1-.074-.151-.112a38.726,38.726,0,0,1,7.08,6.054,16.487,16.487,0,0,1,2.1,3.3,16.743,16.743,0,0,1,1.168,3.817,12.638,12.638,0,0,1,.147,2.91,8.606,8.606,0,0,1-.415,1.753,9.771,9.771,0,0,1-1.055,1.871h0c-.061.087-.121.17-.182.256a1.183,1.183,0,0,0-.147.627,1.229,1.229,0,0,0,2.129.8,8.091,8.091,0,0,0,1.075-1.434,8.18,8.18,0,0,0,.727-1.681,7.455,7.455,0,0,0,.294-1.434,11.67,11.67,0,0,0,.084-1.83,14.283,14.283,0,0,0-.148-1.562c-.086-.618-.2-1.236-.342-1.847a15.222,15.222,0,0,0-1.075-2.983,16.524,16.524,0,0,0-3.383-4.638,28.287,28.287,0,0,0-4.577-3.582c-.989-.643-2.016-1.229-3.041-1.815a37.547,37.547,0,0,1-3.232-2.094l.022.017-.052-.038-.063-.046.02.014a40.646,40.646,0,0,1-3.654-2.993,36.962,36.962,0,0,1-3.281-3.5c.016.019.035.042.052.064a43.056,43.056,0,0,1-2.983-4.09,39.551,39.551,0,0,1-2.5-4.584c.007.016.016.035.023.052q-.677-1.465-1.239-2.98a.2.2,0,0,0-.193-.135.191.191,0,0,0-.2.256M353.5,73.415l.03.02-.072-.052c.014.011.029.022.043.032" transform="translate(-193.273 -33.04)" fill="#191d17"/>
        <path id="Trazado_1052819" data-name="Trazado 1052819" d="M361.718,92.385a.351.351,0,0,0-.109.48c.061.122.122.244.181.369a10.955,10.955,0,0,1,.744,2.573c-.007-.039-.01-.074-.016-.112a14.072,14.072,0,0,1,.147,3.668c0-.052.01-.1.013-.151a13.751,13.751,0,0,1-.691,3.173,8.193,8.193,0,0,1-.855,1.654,7.184,7.184,0,0,1-1.039,1.112,7.43,7.43,0,0,1-1.452.874,1.043,1.043,0,0,0-.477.666,1.086,1.086,0,0,0,.8,1.309l.291.029a1.1,1.1,0,0,0,.544-.166,5.644,5.644,0,0,0,1.677-1.274,7.259,7.259,0,0,0,1.152-1.738,10.974,10.974,0,0,0,.74-2,13.62,13.62,0,0,0,.365-4.41,18.934,18.934,0,0,0-.275-2.241,12.793,12.793,0,0,0-1.264-3.706.328.328,0,0,0-.294-.161.347.347,0,0,0-.186.052" transform="translate(-196.644 -39.743)" fill="#191d17"/>
        <path id="Trazado_1052820" data-name="Trazado 1052820" d="M274.066,109.383a6.065,6.065,0,0,0,1.232.4,5.533,5.533,0,0,0,1.409.117,4.974,4.974,0,0,0,.651-.075l.094-.019q.138.23.273.49a8.519,8.519,0,0,1,.963,4.491,5.52,5.52,0,0,0-.615-.039,5.629,5.629,0,0,0-.849.066,6.06,6.06,0,0,0-1.678.514,7.381,7.381,0,0,0-1.5.95,8.541,8.541,0,0,0-.692.631,3.431,3.431,0,0,0-.266.306l-.011.009a4.342,4.342,0,0,1-.419-1.294A12.422,12.422,0,0,1,272.6,113c.016-.306.036-.611.046-.917-.029-.221-.052-.442-.071-.667a6.461,6.461,0,0,1,.042-1.386,2.591,2.591,0,0,1,.413-1.1c.026-.039.053-.077.082-.115a4.678,4.678,0,0,0,.952.564" transform="translate(-181.185 -42.72)" fill="#21261f"/>
        <path id="Trazado_1052821" data-name="Trazado 1052821" d="M276.365,108.194a4.976,4.976,0,0,1,1.31,1.586c-.152.038-.3.069-.461.093a.052.052,0,0,0-.02,0l.02,0h0a.17.17,0,0,1-.031,0h.008a.048.048,0,0,0-.023,0h0a5.82,5.82,0,0,1-.725.042,7.126,7.126,0,0,1-.747-.042h.009a.037.037,0,0,1-.016,0h-.009l-.013,0,.013,0h0a.128.128,0,0,1-.03,0h.016a5.3,5.3,0,0,1-.742-.149,6.151,6.151,0,0,1-.586-.2,4.643,4.643,0,0,1-.488-.241c-.143-.084-.273-.176-.406-.273l.007.006-.007-.006,0,0h0l0,0-.01-.006a3.594,3.594,0,0,1-.3-.281,2.292,2.292,0,0,1,1.092-.851,1.955,1.955,0,0,1,.76-.15,2.343,2.343,0,0,1,1.379.478" transform="translate(-181.291 -42.521)" fill="#fefefe"/>
        <path id="Trazado_1052822" data-name="Trazado 1052822" d="M273.482,109.271l-.009-.007.009.007" transform="translate(-181.352 -42.801)" fill="#fefefe"/>
        <path id="Trazado_1052823" data-name="Trazado 1052823" d="M273.512,109.291l0,0Z" transform="translate(-181.359 -42.806)" fill="#fefefe"/>
        <path id="Trazado_1052824" data-name="Trazado 1052824" d="M276.253,110.351l0,0-.012,0Z" transform="translate(-181.853 -42.997)" fill="#fefefe"/>
        <path id="Trazado_1052825" data-name="Trazado 1052825" d="M277.772,115.945c.348,0,.693.02,1.041.052a1.451,1.451,0,0,1-.009.3,5.682,5.682,0,0,1-.3,1.319,4.3,4.3,0,0,1-.75,1.267,3.565,3.565,0,0,1-1.138.848,2.708,2.708,0,0,1-1.2.3,2.16,2.16,0,0,1-.29-.016,2.683,2.683,0,0,1-.858-.287,2.354,2.354,0,0,1-.728-.61,3.6,3.6,0,0,1-.428-.671,3.027,3.027,0,0,1,.219-.428c.088-.143.175-.28.277-.417a4.577,4.577,0,0,1,.336-.375,4.155,4.155,0,0,1,.338-.3,3.676,3.676,0,0,1,.5-.326c.147-.079.3-.153.449-.218a4.246,4.246,0,0,1,.72-.235,6.59,6.59,0,0,1,.716-.143,8.97,8.97,0,0,1,1.1-.066" transform="translate(-181.287 -44.007)" fill="#f68677"/>
        <path id="Trazado_1052826" data-name="Trazado 1052826" d="M288.991,89.034a6.218,6.218,0,0,0-1.422,1.386,7.266,7.266,0,0,0-1.021,1.972,8.781,8.781,0,0,0-.314,1.168.351.351,0,0,0,.24.425.346.346,0,0,0,.426-.24,8.236,8.236,0,0,1,.444-1.483,6.643,6.643,0,0,1,.8-1.365,5.684,5.684,0,0,1,.9-.894,5.151,5.151,0,0,1,1.021-.588l-.106.042a4.9,4.9,0,0,1,1.177-.323,4.71,4.71,0,0,1,1.047,0,4.527,4.527,0,0,1,.983.277,4.778,4.778,0,0,1,.8.467,5.127,5.127,0,0,1,.759.755,5.864,5.864,0,0,1,.619,1.064,7.5,7.5,0,0,1,.454,1.719c.029.24.048.481.059.724a.745.745,0,0,0,.733.733.735.735,0,0,0,.733-.733,8.021,8.021,0,0,0-.49-2.448,6.208,6.208,0,0,0-1.133-1.882,5.036,5.036,0,0,0-1.495-1.149,5.2,5.2,0,0,0-1.783-.522,4.486,4.486,0,0,0-.524-.029,5.213,5.213,0,0,0-2.9.923m4.987.856.054.04c-.019-.013-.037-.026-.054-.04" transform="translate(-183.656 -38.98)" fill="#21261f"/>
        <path id="Trazado_1052827" data-name="Trazado 1052827" d="M257.652,86.02a6.26,6.26,0,0,0-2.352,3.425.68.68,0,0,0,1,.769.711.711,0,0,0,.314-.407c.084-.252.175-.5.274-.744a7.206,7.206,0,0,1,.753-1.329,4.935,4.935,0,0,1,.718-.739,3.764,3.764,0,0,1,.695-.419,3.427,3.427,0,0,1,.748-.2,3.753,3.753,0,0,1,.8.011,3.991,3.991,0,0,1,.832.235,4.59,4.59,0,0,1,.806.478,5.375,5.375,0,0,1,.838.85l0,0a6.215,6.215,0,0,1,.7,1.21c-.009-.02-.019-.039-.029-.061a7.52,7.52,0,0,1,.487,1.726.239.239,0,0,0,.294.166.245.245,0,0,0,.17-.294,7.711,7.711,0,0,0-1.446-3.55,4.657,4.657,0,0,0-2.577-1.709,3.587,3.587,0,0,0-.8-.088,4.081,4.081,0,0,0-2.222.679m2.833.346.083.012-.083-.012m-2.772,1.268c-.01.014-.02.027-.03.04.011-.013.02-.027.03-.04m5.376.334.027.034-.027-.034m-6.215,1.12-.012.027.012-.027" transform="translate(-178.065 -38.48)" fill="#21261f"/>
        <path id="Trazado_1052828" data-name="Trazado 1052828" d="M255.487,69.2c.431,1.009,3.028.867,5.8-.316s4.665-2.963,4.234-3.972-3.029-.868-5.8.316-4.665,2.963-4.234,3.972" transform="translate(-178.092 -34.668)" fill="#21261f"/>
        <path id="Trazado_1052829" data-name="Trazado 1052829" d="M276.2,82.733a.28.28,0,0,0-.182.082.241.241,0,0,0-.06.16,15.317,15.317,0,0,1-.029,3.459,8.005,8.005,0,0,1-.474,1.8,7.886,7.886,0,0,1-1,1.7,12.058,12.058,0,0,1-1.036,1.161c-.327.326-.673.63-1.021.931l-.07.061-.356.311a13.285,13.285,0,0,0-1.323,1.349,6.564,6.564,0,0,0-1,1.583,3.852,3.852,0,0,0-.25.744,3.642,3.642,0,0,0-.106.9,3.959,3.959,0,0,0,.533,1.857,5.749,5.749,0,0,0,.669.942,6.145,6.145,0,0,0,.8.766,4.681,4.681,0,0,0,1.892.949.552.552,0,0,0,.162.026.629.629,0,0,0,.619-.464.627.627,0,0,0-.438-.782c-.192-.054-.38-.118-.566-.188a5.085,5.085,0,0,1-.955-.559,6.548,6.548,0,0,1-.9-.908,4.509,4.509,0,0,1-.488-.8,3.515,3.515,0,0,1-.182-.676,3.1,3.1,0,0,1,0-.734,4.327,4.327,0,0,1,.229-.837,7.332,7.332,0,0,1,.806-1.34,14.086,14.086,0,0,1,1.267-1.417l.275-.279c.333-.329.662-.663.979-1.011a10.539,10.539,0,0,0,1.682-2.441,11.726,11.726,0,0,0,.759-6.108.253.253,0,0,0-.242-.241" transform="translate(-180.597 -38.009)" fill="#c08c64"/>
      </g>
      <g id="Grupo_1206279" data-name="Grupo 1206279" transform="translate(109.509 27.333)">
        <path id="Trazado_1052830" data-name="Trazado 1052830" d="M195.083,41.041H137.567a10.43,10.43,0,0,0-5.253,1.419,9.6,9.6,0,0,0-4.04,4.43l-.045.109a8.222,8.222,0,0,0-.676,3.255V87.284c0,5,4.585,9.216,10.014,9.216h11.349a16.752,16.752,0,0,1,.206,1.954l.02.1a16.629,16.629,0,0,1-.423,4.035,16.87,16.87,0,0,1-1.423,3.763,15.181,15.181,0,0,1-2.2,3.051,13.152,13.152,0,0,1-2.53,2.057,12.246,12.246,0,0,1-2.575,1.148.579.579,0,0,0-.254.208.615.615,0,0,0-.117.477.655.655,0,0,0,.578.535c.578.04,1.111.061,1.581.061a19.862,19.862,0,0,0,4.044-.42,18.935,18.935,0,0,0,14.656-16.993l34.6.026c5.428,0,10.014-4.221,10.014-9.216V50.255A8.237,8.237,0,0,0,204.421,47l-.045-.109a9.812,9.812,0,0,0-5.773-5.234,10.29,10.29,0,0,0-3.52-.615" transform="translate(-127.553 -29.809)" fill="#90d8d9"/>
        <text id="O" transform="translate(18.786 50)" fill="#fff" font-size="46" font-family="SegoeUI, Segoe UI"><tspan x="0" y="0">O</tspan></text>
      </g>
      <g id="Grupo_1206283" data-name="Grupo 1206283" transform="translate(91.432 298.479)">
        <g id="Grupo_1206280" data-name="Grupo 1206280">
          <path id="Trazado_1052831" data-name="Trazado 1052831" d="M179.218,358.248H129.169l-.7.547-.7.551q-11.143,8.738-22.277,17.482l50.064.03,2.493-1.954,2.5-1.958,18.635-14.628s.043-.07.039-.07" transform="translate(-105.491 -358.248)" fill="#f1f3f8"/>
          <text id="A" transform="matrix(0, -1, 1, 0, 43.494, 15.202)" fill="#fea50c" font-size="14" font-family="SegoeUI, Segoe UI"><tspan x="0" y="0">A</tspan></text>
        </g>
        <g id="Grupo_1206281" data-name="Grupo 1206281" transform="translate(118.797 8.279)">
          <path id="Trazado_1052832" data-name="Trazado 1052832" d="M336.585,368.352H278.127L263.764,379.62l-.073.057L250.542,390l-.067.052,58.52.03,6.4-5.02,10.6-8.319,10.6-8.322Z" transform="translate(-250.475 -368.352)" fill="#fea50c"/>
          <text id="U" transform="matrix(0.044, -0.999, 0.999, 0.044, 53.476, 16.732)" fill="#fff" font-size="18" font-family="SegoeUI, Segoe UI"><tspan x="0" y="0">U</tspan></text>
        </g>
        <g id="Grupo_1206282" data-name="Grupo 1206282" transform="translate(56.03 7.949)">
          <path id="Trazado_1052833" data-name="Trazado 1052833" d="M190.337,367.949l-.012.006-5.233,7.106L179.8,382.24l-3.761,5.109-2.171,2.945c1.094.118,2.173.214,3.251.307l.262.025,15.872,1.382,15.873,1.386c1.533.134,3.073.269,4.606.4l.38.035,3.538-4.789,8.639-11.734,4.286-5.819-8.258-.746-8.965-.784-11.51-1-11.511-1.005Z" transform="translate(-173.872 -367.949)" fill="#90d8d9"/>
          <text id="E" transform="matrix(-0.111, 0.994, -0.994, -0.111, 22.187, 4.958)" fill="#fff" font-size="18" font-family="SegoeUI, Segoe UI"><tspan x="0" y="0">E</tspan></text>
        </g>
      </g>
    </g>
  </g>
</svg>
