<svg xmlns="http://www.w3.org/2000/svg" xmlns:xlink="http://www.w3.org/1999/xlink" width="110" height="110" viewBox="0 0 110 110">
  <defs>
    <filter id="Trazado_982547" x="0" y="0" width="110" height="110" filterUnits="userSpaceOnUse">
      <feOffset dy="3" input="SourceAlpha"/>
      <feGaussianBlur stdDeviation="3" result="blur"/>
      <feFlood flood-opacity="0.161"/>
      <feComposite operator="in" in2="blur"/>
      <feComposite in="SourceGraphic"/>
    </filter>
  </defs>
  <g id="Grupo_1206296" data-name="Grupo 1206296" transform="translate(-797 -2812.131)">
    <g id="Grupo_1185076" data-name="Grupo 1185076" transform="translate(806 2818.131)">
      <g id="Grupo_1183626" data-name="Grupo 1183626" transform="translate(0 0)">
        <g id="Grupo_1179602" data-name="Grupo 1179602">
          <g id="Grupo_1171898" data-name="Grupo 1171898" transform="translate(0 0)">
            <g id="Grupo_1164700" data-name="Grupo 1164700">
              <g id="Grupo_1160931" data-name="Grupo 1160931">
                <g id="Grupo_1160749" data-name="Grupo 1160749">
                  <g id="Grupo_1158891" data-name="Grupo 1158891">
                    <g id="Grupo_1157406" data-name="Grupo 1157406">
                      <g id="Grupo_1155793" data-name="Grupo 1155793">
                        <g id="Grupo_1154704" data-name="Grupo 1154704">
                          <g id="Grupo_1150790" data-name="Grupo 1150790">
                            <g id="Grupo_1154214" data-name="Grupo 1154214">
                              <g id="Grupo_1152583" data-name="Grupo 1152583">
                                <g id="Grupo_1146973" data-name="Grupo 1146973">
                                  <g id="Grupo_1146954" data-name="Grupo 1146954">
                                    <g transform="matrix(1, 0, 0, 1, -9, -6)" filter="url(#Trazado_982547)">
                                      <g id="Trazado_982547-2" data-name="Trazado 982547" transform="translate(9 6)" fill="#eaf9f8">
                                        <path d="M 46.00000381469727 90.49986267089844 C 39.99188232421875 90.49986267089844 34.16428375244141 89.32350158691406 28.67905807495117 87.00344848632812 C 23.38021659851074 84.76223754882812 18.62104415893555 81.55341339111328 14.53376388549805 77.46613311767578 C 10.44647026062012 73.37885284423828 7.237643718719482 68.61968994140625 4.996417045593262 63.32085037231445 C 2.676363706588745 57.83565139770508 1.500003814697266 52.00805282592773 1.500003814697266 45.99993133544922 C 1.500003814697266 39.99182510375977 2.676363706588745 34.16422653198242 4.996417045593262 28.67901039123535 C 7.237643718719482 23.38017082214355 10.44647026062012 18.62101173400879 14.53376388549805 14.53373146057129 C 18.62104415893555 10.44645118713379 23.38021659851074 7.237624645233154 28.67905807495117 4.996411323547363 C 34.16428375244141 2.676357984542847 39.99188232421875 1.499997973442078 46.00000381469727 1.499997973442078 C 52.00812530517578 1.499997973442078 57.83573532104492 2.676357984542847 63.32094955444336 4.996411323547363 C 68.61980438232422 7.237624645233154 73.37896728515625 10.44645118713379 77.46625518798828 14.53373146057129 C 81.55353546142578 18.62101173400879 84.76236724853516 23.38017082214355 87.00359344482422 28.67901039123535 C 89.32364654541016 34.16422653198242 90.5 39.99182510375977 90.5 45.99993133544922 C 90.5 52.00805282592773 89.32364654541016 57.83565139770508 87.00359344482422 63.32085037231445 C 84.76236724853516 68.61968994140625 81.55353546142578 73.37885284423828 77.46625518798828 77.46613311767578 C 73.37896728515625 81.55341339111328 68.61980438232422 84.76223754882812 63.32094955444336 87.00344848632812 C 57.83573532104492 89.32350158691406 52.00812530517578 90.49986267089844 46.00000381469727 90.49986267089844 Z" stroke="none"/>
                                        <path d="M 46.00000381469727 3 C 40.19371795654297 3 34.56270217895508 4.136505126953125 29.26338958740234 6.377914428710938 C 24.14333343505859 8.54351806640625 19.54443359375 11.64438629150391 15.59442138671875 15.59439086914062 C 11.64440155029297 19.54440307617188 8.543533325195312 24.14330291748047 6.3779296875 29.26334381103516 C 4.136505126953125 34.56266021728516 3.000007629394531 40.19366073608398 3.000007629394531 45.99993133544922 C 3.000007629394531 51.80620193481445 4.136505126953125 57.43720245361328 6.3779296875 62.73651885986328 C 8.543533325195312 67.85655975341797 11.64440155029297 72.45545959472656 15.59442138671875 76.40547180175781 C 19.54443359375 80.35547637939453 24.14333343505859 83.45634460449219 29.26338958740234 85.6219482421875 C 34.56270217895508 87.86335754394531 40.19371795654297 88.99986267089844 46.00000381469727 88.99986267089844 C 51.80628967285156 88.99986267089844 57.43730545043945 87.86335754394531 62.73663330078125 85.6219482421875 C 67.85667419433594 83.45634460449219 72.45558929443359 80.35547637939453 76.40560150146484 76.40547180175781 C 80.35560607910156 72.45545959472656 83.45648956298828 67.85655975341797 85.62208557128906 62.73651885986328 C 87.86350250244141 57.43720245361328 89 51.80620193481445 89 45.99993133544922 C 89 40.19366073608398 87.86350250244141 34.56266021728516 85.62208557128906 29.26334381103516 C 83.45648956298828 24.14330291748047 80.35560607910156 19.54440307617188 76.40560150146484 15.59439086914062 C 72.45558929443359 11.64438629150391 67.85667419433594 8.54351806640625 62.73663330078125 6.377914428710938 C 57.43730545043945 4.136505126953125 51.80628967285156 3 46.00000381469727 3 M 46.00000381469727 0 C 71.40510559082031 0 92 20.59487152099609 92 45.99993133544922 C 92 71.40499114990234 71.40510559082031 91.99986267089844 46.00000381469727 91.99986267089844 C 20.59491729736328 91.99986267089844 7.62939453125e-06 71.40499114990234 7.62939453125e-06 45.99993133544922 C 7.62939453125e-06 20.59487152099609 20.59491729736328 0 46.00000381469727 0 Z" stroke="none" fill="#1f7069"/>
                                      </g>
                                    </g>
                                  </g>
                                </g>
                              </g>
                            </g>
                          </g>
                        </g>
                      </g>
                    </g>
                  </g>
                </g>
              </g>
            </g>
          </g>
        </g>
      </g>
    </g>
    <g id="estudiante_3_" data-name="estudiante (3)" transform="translate(819.07 2835.478)">
      <g id="Grupo_1206294" data-name="Grupo 1206294" transform="translate(5.092 0.839)">
        <path id="Trazado_1052949" data-name="Trazado 1052949" d="M74.479,32.774A23.224,23.224,0,0,1,97.544,9.666h.042a23.133,23.133,0,0,1,23.106,23.106Z" transform="translate(-67.459 -9.424)" fill="#77718c"/>
        <path id="Trazado_1052950" data-name="Trazado 1052950" d="M151.2,331.238H125.049a4.924,4.924,0,0,0-4.924,4.924v11.287H156.12V336.162A4.925,4.925,0,0,0,151.2,331.238Z" transform="translate(-107.995 -295.003)" fill="#f9d888"/>
        <path id="Trazado_1052951" data-name="Trazado 1052951" d="M143.072,356.871H139.1V355.9H122.045v1.031h-3.773c-2.3,1.894-6.5,6.585-6.5,15.6h37.864C149.638,363.423,145.355,358.728,143.072,356.871Z" transform="translate(-100.579 -316.901)" fill="#81ddfd"/>
        <path id="Trazado_1052952" data-name="Trazado 1052952" d="M174.626,355.893v14.02h-4.81V356.924a9.8,9.8,0,0,1,1.466-1.031Z" transform="translate(-152.125 -316.898)" fill="#f9f097"/>
        <path id="Trazado_1052953" data-name="Trazado 1052953" d="M353.235,356.868v13.045h-4.81v-14.02h3.414A9.63,9.63,0,0,1,353.235,356.868Z" transform="translate(-310.742 -316.898)" fill="#f9f097"/>
        <path id="Trazado_1052954" data-name="Trazado 1052954" d="M257.611,433.516l-1.42-8.946h-3.882l-1.42,8.946Z" transform="translate(-224.123 -377.887)" fill="#fc5c70"/>
        <path id="Trazado_1052955" data-name="Trazado 1052955" d="M253.348,358.388V363.4a3.086,3.086,0,0,0,6.172,0v-5.009Z" transform="translate(-226.307 -319.114)" fill="#ff6f7f"/>
        <circle id="Elipse_14270" data-name="Elipse 14270" cx="5.617" cy="5.617" r="5.617" transform="translate(43.442 18.854)" fill="#c7856a"/>
        <path id="Trazado_1052956" data-name="Trazado 1052956" d="M30.344,10.871a6.739,6.739,0,0,0-12.3,1.463,6.764,6.764,0,0,1-3.649,4.327,7.942,7.942,0,0,1-1.113.4,2.105,2.105,0,0,0-.9,3.517c1.79,1.772,4.416,3.393,7.7,2.674a22.813,22.813,0,0,0-1.3,7.594h7.917c.208-11.049,4.733-19.422,13.2-23.02a22.863,22.863,0,0,0-9.548,3.04Z" transform="translate(-11.756 -7.5)" fill="#6a647f"/>
        <path id="Trazado_1052957" data-name="Trazado 1052957" d="M145.937,104.518a7.605,7.605,0,0,0-6.916-4.122,13.707,13.707,0,0,0-7.246,2.136,5.126,5.126,0,0,1-5.572,0,13.771,13.771,0,0,0-7.473-2.143,7.522,7.522,0,0,0-6.674,3.964,18.9,18.9,0,0,0-2.282,8.987,19.156,19.156,0,1,0,38.313,0A19.072,19.072,0,0,0,145.937,104.518Z" transform="translate(-98.803 -89.995)" fill="#da9d81"/>
        <path id="Trazado_1052958" data-name="Trazado 1052958" d="M174.626,418.045a7.454,7.454,0,0,0-4.81,0v6.709h4.81Z" transform="translate(-152.125 -371.74)" fill="#f9d888"/>
        <path id="Trazado_1052959" data-name="Trazado 1052959" d="M158.554,447.647a4.128,4.128,0,0,0-4.128,4.128,2.235,2.235,0,0,0,2.235,2.235h3.785a2.235,2.235,0,0,0,2.235-2.235A4.128,4.128,0,0,0,158.554,447.647Z" transform="translate(-138.457 -398.382)" fill="#da9d81"/>
        <path id="Trazado_1052960" data-name="Trazado 1052960" d="M353.236,418.021a7.46,7.46,0,0,0-4.81.047v6.686h4.81v-6.733Z" transform="translate(-310.743 -371.739)" fill="#f9d888"/>
        <path id="Trazado_1052961" data-name="Trazado 1052961" d="M337.776,447.647a4.128,4.128,0,0,1,4.128,4.128,2.235,2.235,0,0,1-2.235,2.235h-3.785a2.235,2.235,0,0,1-2.235-2.235A4.128,4.128,0,0,1,337.776,447.647Z" transform="translate(-297.619 -398.382)" fill="#da9d81"/>
        <path id="Trazado_1052962" data-name="Trazado 1052962" d="M78.409,133.728a22.342,22.342,0,0,1-7.464-16.692,32,32,0,0,1,2.635-13.392,7.555,7.555,0,0,0-4.312,3.6,19.038,19.038,0,0,0-1.736,4.5c-.1-.006-.21-.01-.321-.01a5.617,5.617,0,1,0,0,11.233,4.386,4.386,0,0,0,.986-.1,19.493,19.493,0,0,0,10.213,10.861Z" transform="translate(-56.016 -92.883)" fill="#c7856a"/>
        <g id="Grupo_1206293" data-name="Grupo 1206293" transform="translate(14.493 23.667)">
          <g id="Grupo_1206292" data-name="Grupo 1206292">
            <g id="Grupo_1206290" data-name="Grupo 1206290">
              <ellipse id="Elipse_14271" data-name="Elipse 14271" cx="4.214" cy="3.355" rx="4.214" ry="3.355" fill="#ffbfc5"/>
            </g>
            <g id="Grupo_1206291" data-name="Grupo 1206291" transform="translate(22.839)">
              <ellipse id="Elipse_14272" data-name="Elipse 14272" cx="4.214" cy="3.355" rx="4.214" ry="3.355" fill="#ffbfc5"/>
            </g>
          </g>
        </g>
      </g>
      <g id="Grupo_1206295" data-name="Grupo 1206295" transform="translate(4.252 0)">
        <path id="Trazado_1052963" data-name="Trazado 1052963" d="M175.418,193.729a.839.839,0,1,0,1.679,0,1.166,1.166,0,0,1,2.332,0,.839.839,0,1,0,1.679,0,2.845,2.845,0,0,0-5.69,0Z" transform="translate(-156.26 -169.519)"/>
        <path id="Trazado_1052964" data-name="Trazado 1052964" d="M336.43,194.568a.839.839,0,0,0,.839-.839,1.166,1.166,0,0,1,2.332,0,.839.839,0,1,0,1.679,0,2.845,2.845,0,0,0-5.69,0A.839.839,0,0,0,336.43,194.568Z" transform="translate(-298.505 -169.519)"/>
        <path id="Trazado_1052965" data-name="Trazado 1052965" d="M257.383,232.394a3.662,3.662,0,0,0,2.76-1.257.839.839,0,0,0-1.266-1.1,1.98,1.98,0,0,1-2.989,0,.839.839,0,0,0-1.266,1.1A3.662,3.662,0,0,0,257.383,232.394Z" transform="translate(-226.416 -204.031)"/>
        <path id="Trazado_1052966" data-name="Trazado 1052966" d="M12.217,17.6a23.542,23.542,0,0,0-.722,3.392,6.452,6.452,0,0,0,4.793,10.776c.146,0,.293-.007.441-.017a20.041,20.041,0,0,0,3.01,5.014A5.774,5.774,0,0,0,16.383,42v7.5a25.1,25.1,0,0,0-.935,6.966.839.839,0,0,0,.839.839H54.151a.839.839,0,0,0,.839-.839,25.227,25.227,0,0,0-.935-7.008V42a5.791,5.791,0,0,0-3.307-5.213,19.85,19.85,0,0,0,2.992-5.035A6.451,6.451,0,0,0,58.95,21a24.078,24.078,0,0,0-9.4-15.977.839.839,0,1,0-1.007,1.343,22.432,22.432,0,0,1,8.441,13.145,6.406,6.406,0,0,0-2.491-.644,20.211,20.211,0,0,0-1.526-3.888A8.4,8.4,0,0,0,45.292,10.4a14.481,14.481,0,0,0-7.684,2.271,4.287,4.287,0,0,1-4.657,0,14.391,14.391,0,0,0-7.37-2.265,8.355,8.355,0,0,0-6.009,1.962,13.085,13.085,0,0,0-3.608,6.489,6.434,6.434,0,0,0-2.5.64,22.314,22.314,0,0,1,3.334-7.739.84.84,0,0,0-1.39-.944,24.169,24.169,0,0,0-2.613,5.038c-2.262.341-4.441-.509-6.486-2.533a1.266,1.266,0,0,1,.539-2.112,7.566,7.566,0,0,0,5.342-5.3A5.9,5.9,0,0,1,22.492,3.948a24.652,24.652,0,0,0-4.949,4.159A.839.839,0,0,0,17.6,9.293c.343.312,0,0,0,0A.843.843,0,0,0,18.81,9.21,22.315,22.315,0,0,1,35.179,1.921h.041A22.24,22.24,0,0,1,46.008,4.714a.839.839,0,1,0,.816-1.467,23.924,23.924,0,0,0-11.606-3h-.042A23.775,23.775,0,0,0,23.955,3.1a7.577,7.577,0,0,0-13.38,2.334A5.886,5.886,0,0,1,6.393,9.6a2.944,2.944,0,0,0-1.268,4.922,9.541,9.541,0,0,0,6.713,3.09c.126,0,.253,0,.38-.01Zm-.706,7.712a4.785,4.785,0,0,1,4.049-4.722,19.725,19.725,0,0,0,.565,9.5A4.783,4.783,0,0,1,11.511,25.31ZM45.25,49.264a5.028,5.028,0,0,0-1.635.274V42.346a19.811,19.811,0,0,0,2.644-1.479c.137.093.3.21.487.351v8.276a5.273,5.273,0,0,0-1.5-.23Zm-4.967,4.967a3.054,3.054,0,0,0,.337,1.4H39.3l-1.238-7.8a3.911,3.911,0,0,0,1.086-2.706V43.8a19.8,19.8,0,0,0,2.791-.768v7.5a4.956,4.956,0,0,0-1.654,3.7Zm-10.461,1.4a3.055,3.055,0,0,0,.336-1.4,4.956,4.956,0,0,0-1.724-3.757v-7.49a19.633,19.633,0,0,0,2.861.808v1.33a3.91,3.91,0,0,0,1.086,2.706l-1.238,7.8ZM25.19,49.264a5.2,5.2,0,0,0-1.566.252V41.272c.233-.18.436-.324.6-.432a19.925,19.925,0,0,0,2.534,1.44v7.236A5.03,5.03,0,0,0,25.19,49.264Zm10.03-1.9a2.249,2.249,0,0,1-2.246-2.247V44.056a20.069,20.069,0,0,0,4.493,0v1.063A2.25,2.25,0,0,1,35.22,47.369ZM18.062,42a4.09,4.09,0,0,1,2.871-3.9,20.313,20.313,0,0,0,1.858,1.69,17.032,17.032,0,0,0-4.729,5.566V42Zm3.883.813v7.664a4.957,4.957,0,0,0-1.723,3.757,3.055,3.055,0,0,0,.336,1.4H17.14a19.437,19.437,0,0,1,4.8-12.816ZM23.3,55.628a1.4,1.4,0,0,1-1.4-1.4,3.293,3.293,0,0,1,3.289-3.289h0a3.294,3.294,0,0,1,3.288,3.289,1.4,1.4,0,0,1-1.4,1.4Zm9.545,0,1.08-6.8a3.913,3.913,0,0,0,2.6,0l1.08,6.8Zm10.515,0a1.4,1.4,0,0,1-1.4-1.4,3.294,3.294,0,0,1,3.288-3.289h0a3.293,3.293,0,0,1,3.289,3.289,1.4,1.4,0,0,1-1.4,1.4Zm6.524,0a3.056,3.056,0,0,0,.337-1.4,4.959,4.959,0,0,0-1.792-3.817V42.737A19.273,19.273,0,0,1,53.3,55.628H49.881Zm-.316-17.512A4.1,4.1,0,0,1,52.377,42v3.348a17.181,17.181,0,0,0-4.69-5.525q.739-.591,1.428-1.257c.228-.221.211-.2.45-.449Zm4.771-8.033a20.193,20.193,0,0,0,.555-9.493,4.767,4.767,0,0,1,2.588,1.3l0,0a4.775,4.775,0,0,1-3.147,8.193Zm-22.3-16a5.964,5.964,0,0,0,6.485,0,12.928,12.928,0,0,1,7.05-2A6.731,6.731,0,0,1,51.5,15.785,18.218,18.218,0,0,1,53.03,19.9h0a18.3,18.3,0,0,1-4.347,16.708l0,0a18.231,18.231,0,0,1-26.861-.013l0,0a18.43,18.43,0,0,1-3.722-5.952.834.834,0,0,0-.03-.1,17.945,17.945,0,0,1-.464-11.3,13.737,13.737,0,0,1,2.117-4.614,6.654,6.654,0,0,1,5.294-2.556,12.9,12.9,0,0,1,7.024,2.007Z" transform="translate(-4.252 0)"/>
      </g>
    </g>
  </g>
</svg>
